<svg xmlns="http://www.w3.org/2000/svg" width="24" height="24" viewBox="0 0 24 24">
  <path fill-rule="evenodd" d="M11.993 5.136c-2-2.338-5.333-2.966-7.838-.826s-2.858 5.719-.89 8.25c1.485 1.912 5.706 5.751 7.683 7.515.363.324.545.486.758.55.184.055.39.055.575 0 .212-.064.394-.226.757-.55 1.977-1.764 6.198-5.603 7.684-7.515 1.967-2.531 1.658-6.132-.89-8.25-2.549-2.118-5.84-1.512-7.839.826Z" clip-rule="evenodd" opacity=".2"/>
  <path fill-rule="evenodd" d="M11.993 3.717c-2.34-2.045-5.8-2.463-8.488-.167-2.907 2.483-3.329 6.666-1.03 9.624.795 1.023 2.274 2.509 3.757 3.923a174.19 174.19 0 0 0 4.05 3.724l.022.02c.163.145.325.29.475.403a2 2 0 0 0 .64.339c.372.112.777.112 1.149 0 .264-.08.47-.21.64-.338.149-.114.312-.26.474-.404l.022-.02a174.19 174.19 0 0 0 4.05-3.724c1.483-1.414 2.963-2.9 3.758-3.923 2.29-2.947 1.932-7.162-1.041-9.633-2.717-2.258-6.141-1.87-8.478.176Zm-.76 2.069C9.528 3.792 6.818 3.35 4.804 5.07c-2.103 1.797-2.386 4.772-.75 6.877.69.889 2.065 2.278 3.558 3.703 1.477 1.408 3.017 2.8 4.002 3.679.193.172.295.262.374.322l.005.004.006-.004c.078-.06.18-.15.373-.322.985-.879 2.525-2.271 4.002-3.68 1.494-1.424 2.868-2.813 3.559-3.702 1.644-2.117 1.382-5.104-.74-6.868-2.068-1.718-4.742-1.278-6.44.707a1 1 0 0 1-1.52 0Zm-.162 1.717a1 1 0 0 1 .878.68l1.236 3.71.42-.84a1 1 0 0 1 .895-.553h1a1 1 0 1 1 0 2h-.382l-1.224 2.447a1 1 0 0 1-1.843-.13l-1.236-3.71-.42.84a1 1 0 0 1-.895.553h-1a1 1 0 1 1 0-2h.382l1.224-2.447a1 1 0 0 1 .965-.55Z" clip-rule="evenodd"/>
</svg>
