<svg xmlns="http://www.w3.org/2000/svg" width="24" height="24"  viewBox="0 0 24 24">
  <path fill-rule="evenodd" d="M3.505 3.55c2.687-2.296 6.148-1.878 8.488.167 2.337-2.046 5.76-2.435 8.478-.176 2.973 2.471 3.33 6.686 1.04 9.633-.794 1.023-2.274 2.509-3.757 3.923a174.19 174.19 0 0 1-4.05 3.724l-.022.02c-.162.145-.325.29-.475.403a1.98 1.98 0 0 1-.64.339 2.013 2.013 0 0 1-1.149 0c-.263-.08-.47-.21-.639-.339-.15-.113-.312-.258-.475-.403l-.022-.02a174.19 174.19 0 0 1-4.05-3.724c-1.483-1.414-2.962-2.9-3.757-3.923C.176 10.216.598 6.034 3.505 3.55Zm8.444 4.634a1 1 0 0 0-1.843-.131L8.882 10.5H8.5a1 1 0 1 0 0 2h1a1 1 0 0 0 .894-.553l.42-.84 1.237 3.71a1 1 0 0 0 1.843.13l1.224-2.447h.382a1 1 0 0 0 0-2h-1a1 1 0 0 0-.894.553l-.42.84-1.237-3.71Z" clip-rule="evenodd"/>
</svg>
