<svg xmlns="http://www.w3.org/2000/svg" width="24" height="24" viewBox="0 0 24 24">
  <path fill-rule="evenodd" d="M6.125 4.5a3.125 3.125 0 1 0 0 6.25h.017c.138 0 .27 0 .377.004.087.004.278.012.47.078.18.062.39.166.577.352a1.49 1.49 0 0 1 .43 1.018c.004.096.004.21.004.32v6.353a.625.625 0 1 0 1.25 0V7.625c0-1.726-1.4-3.125-3.125-3.125ZM1 7.625a5.125 5.125 0 1 1 10.25 0v11.25a2.625 2.625 0 0 1-5.25 0v-6.127a5.125 5.125 0 0 1-5-5.123Zm11.75 0A5.125 5.125 0 1 1 18 12.748v6.127a2.625 2.625 0 0 1-5.25 0V7.625ZM17.875 4.5a3.125 3.125 0 0 0-3.125 3.125v11.25a.625.625 0 1 0 1.25 0v-6.354c0-.109 0-.223.005-.32a1.49 1.49 0 0 1 .43-1.018 1.49 1.49 0 0 1 1.046-.429c.107-.004.239-.004.377-.004h.017a3.125 3.125 0 1 0 0-6.25Z" clip-rule="evenodd"/>
</svg>
