<svg xmlns="http://www.w3.org/2000/svg" width="24" height="24" viewBox="0 0 24 24">
  <path fill-rule="evenodd" d="M11.485 14.372a1.5 1.5 0 0 1 1.03 0c.263.096.443.257.556.37a5.39 5.39 0 0 1 .312.355l3.315 3.978c.154.185.31.373.424.538.108.155.304.462.31.864a1.5 1.5 0 0 1-.557 1.19c-.313.253-.674.298-.863.315-.2.018-.443.018-.684.018H8.672c-.24 0-.485 0-.684-.018-.189-.017-.55-.062-.863-.315a1.5 1.5 0 0 1-.557-1.19c.006-.402.202-.709.31-.864a8.15 8.15 0 0 1 .424-.538l.023-.027 3.292-3.95.017-.02c.09-.11.195-.235.295-.336.112-.113.293-.274.556-.37Zm.515 2.19L9.135 20h5.73L12 16.562Z" clip-rule="evenodd" opacity=".5"/>
  <path fill-rule="evenodd" d="M6.759 2H17.24c.805 0 1.47 0 2.01.044.563.046 1.08.145 1.565.392a4 4 0 0 1 1.748 1.748c.247.485.346 1.002.392 1.564C23 6.29 23 6.954 23 7.758V15a4 4 0 0 1-4 4 1 1 0 1 1 0-2 2 2 0 0 0 2-2V7.8c0-.857 0-1.439-.038-1.889-.035-.438-.1-.663-.18-.819a2 2 0 0 0-.874-.874c-.156-.08-.38-.145-.819-.18C18.639 4 18.057 4 17.2 4H6.8c-.857 0-1.439 0-1.889.038-.438.035-.663.1-.819.18a2 2 0 0 0-.874.874c-.08.156-.145.38-.18.819C3 6.361 3 6.943 3 7.8V15a2 2 0 0 0 2 2 1 1 0 1 1 0 2 4 4 0 0 1-4-4V7.759c0-.805 0-1.47.044-2.01.046-.563.145-1.08.392-1.565a4 4 0 0 1 1.748-1.748c.485-.247 1.002-.346 1.564-.392C5.29 2 5.954 2 6.758 2Z" clip-rule="evenodd"/>
</svg>
