<svg xmlns="http://www.w3.org/2000/svg" width="24" height="24" viewBox="0 0 24 24">
  <path d="M17.657 18.657A8 8 0 1 1 6.86 6.869l11.275 11.265a8.03 8.03 0 0 1-.48.523Z" opacity=".2"/>
  <path fill-rule="evenodd" d="M2.293 2.293a1 1 0 0 1 1.414 0l15.099 15.099c.026.023.05.047.073.073l2.828 2.828a1 1 0 0 1-1.414 1.414l-2.14-2.14a9 9 0 0 1-11.77.465l-1.676 1.675a1 1 0 0 1-1.414-1.414l1.675-1.675a9 9 0 0 1 .464-11.771L4 5.414 2.707 6.707a1 1 0 0 1-1.414-1.414L2.586 4l-.293-.293a1 1 0 0 1 0-1.414Zm4.554 5.969a7 7 0 0 0 9.891 9.89l-9.89-9.89Zm11.446-5.97a1 1 0 0 1 1.414 0l3 3a1 1 0 0 1-1.414 1.415l-3-3a1 1 0 0 1 0-1.414Zm-7.98 1.868A8.998 8.998 0 0 1 20.84 14.687a1 1 0 0 1-1.964-.374 6.999 6.999 0 0 0-8.189-8.189 1 1 0 1 1-.374-1.964Z" clip-rule="evenodd"/>
</svg>
