<svg xmlns="http://www.w3.org/2000/svg" width="24" height="24" viewBox="0 0 24 24">
  <path d="M12 21a8 8 0 1 0 0-16.001A8 8 0 0 0 12 21Z" opacity=".2"/>
  <path fill-rule="evenodd" d="M5.707 2.293a1 1 0 0 1 0 1.414l-3 3a1 1 0 0 1-1.414-1.414l3-3a1 1 0 0 1 1.414 0Zm12.586 0a1 1 0 0 1 1.414 0l3 3a1 1 0 0 1-1.414 1.414l-3-3a1 1 0 0 1 0-1.414ZM5.636 6.636a9 9 0 0 1 13.396 11.981l1.675 1.676a1 1 0 0 1-1.414 1.414l-1.675-1.675a9 9 0 0 1-11.235 0l-1.676 1.675a1 1 0 0 1-1.414-1.414l1.675-1.675a9 9 0 0 1 .668-11.982ZM12 6a7 7 0 1 0 0 14 7 7 0 0 0 0-14Zm0 3a1 1 0 0 1 1 1v2h2a1 1 0 1 1 0 2h-2v2a1 1 0 1 1-2 0v-2H9a1 1 0 1 1 0-2h2v-2a1 1 0 0 1 1-1Z" clip-rule="evenodd"/>
</svg>
