<svg xmlns="http://www.w3.org/2000/svg" width="24" height="24" viewBox="0 0 24 24">
  <path d="M20.49 22H4.04c-1.09 0-1.69 0-2.22-.38-.46-.33-.75-.85-.81-1.41-.07-.65.23-1.17.78-2.11l8.22-14.21c.54-.94.84-1.46 1.44-1.72.52-.23 1.11-.23 1.62 0 .59.26.89.78 1.44 1.72l8.22 14.21c.55.94.85 1.46.78 2.11-.06.56-.36 1.08-.81 1.41-.52.38-1.12.38-2.22.38h.01ZM3.04 19.98c.21.02.61.02 1 .02h16.45c.39 0 .79 0 1-.02-.09-.19-.29-.54-.48-.88L12.78 4.9c-.19-.34-.4-.68-.52-.85-.12.17-.32.52-.52.85L3.52 19.1c-.2.34-.4.69-.48.88Z" opacity=".5"/>
  <path d="M12.27 18.5c-.55 0-1-.45-1-1s.44-1 1-1c.55 0 1 .45 1 1s-.45 1-1 1Zm-.01-4c-.55 0-1-.45-1-1v-4c0-.55.45-1 1-1s1 .45 1 1v4c0 .55-.45 1-1 1Z"/>
</svg>
