<svg xmlns="http://www.w3.org/2000/svg" width="24" height="24" viewBox="0 0 24 24">
  <path fill-rule="evenodd" d="M8.472 1h7.056c.19 0 .43-.001.665.055.204.05.399.13.578.24.206.126.375.296.509.43l.036.037 4.922 4.922.037.036c.134.134.304.303.43.51.11.178.19.373.24.577a2.8 2.8 0 0 1 .055.665v7.056c0 .19.001.43-.055.665a2.02 2.02 0 0 1-.24.578 2.795 2.795 0 0 1-.43.509l-.037.036-4.922 4.922-.036.037a2.795 2.795 0 0 1-.51.43c-.178.11-.373.19-.577.24a2.796 2.796 0 0 1-.665.055H8.472c-.19 0-.43.001-.665-.055a2.02 2.02 0 0 1-.578-.24 2.795 2.795 0 0 1-.509-.43l-.036-.037-4.922-4.922-.037-.036a2.796 2.796 0 0 1-.43-.51 2.001 2.001 0 0 1-.24-.577C1 15.957 1 15.718 1 15.528V8.472c0-.19-.001-.43.055-.665a2 2 0 0 1 .24-.578c.126-.206.296-.375.43-.509l.037-.036 4.922-4.922.036-.037c.134-.134.303-.304.51-.43a2 2 0 0 1 .577-.24C8.043 1 8.282 1 8.472 1Zm-.197 2.003-.002.002a6.167 6.167 0 0 0-.175.17L3.176 8.099a6.152 6.152 0 0 0-.171.175l-.002.002v.004A6.184 6.184 0 0 0 3 8.523v6.954c0 .131 0 .197.002.244v.004l.003.002c.032.035.078.082.17.175l4.923 4.922a6.13 6.13 0 0 0 .177.173h.004c.047.003.113.003.244.003h6.954c.131 0 .197 0 .244-.002h.004l.002-.003a6.14 6.14 0 0 0 .175-.17l4.922-4.923a6.14 6.14 0 0 0 .171-.175l.002-.002v-.004c.003-.047.003-.113.003-.244V8.523c0-.131 0-.197-.002-.244v-.004l-.003-.002a6.13 6.13 0 0 0-.17-.175l-4.923-4.922a6.175 6.175 0 0 0-.177-.173h-.004A6.18 6.18 0 0 0 15.477 3H8.523c-.131 0-.197 0-.244.002h-.004ZM12 7a1 1 0 0 1 1 1v4a1 1 0 1 1-2 0V8a1 1 0 0 1 1-1Zm-1 9a1 1 0 0 1 1-1h.01a1 1 0 1 1 0 2H12a1 1 0 0 1-1-1Z" clip-rule="evenodd"/>
</svg>
