<svg xmlns="http://www.w3.org/2000/svg" width="24" height="24" viewBox="0 0 24 24">
  <path d="M20.49 22H4.04c-1.09 0-1.69 0-2.22-.38-.46-.33-.75-.85-.81-1.41-.07-.65.23-1.17.78-2.11l8.22-14.2.87.5-.86-.5c.54-.94.84-1.46 1.44-1.72.52-.23 1.11-.23 1.63 0 .59.26.89.78 1.44 1.72l8.23 14.21c.55.94.85 1.46.78 2.11-.06.56-.36 1.08-.81 1.41-.53.38-1.13.38-2.22.38l-.02-.01ZM3.04 19.98c.21.02.61.02 1 .02h16.45c.39 0 .79 0 1-.02-.09-.2-.3-.55-.48-.88L12.78 4.9c-.2-.34-.4-.68-.52-.85-.12.17-.32.51-.52.85L3.52 19.1c-.2.34-.4.68-.48.88Zm9.24-1.48c-.55 0-1-.45-1-1s.44-1 1-1c.55 0 1 .45 1 1s-.45 1-1 1Zm0-4c-.55 0-1-.45-1-1v-4c0-.55.45-1 1-1s1 .45 1 1v4c0 .55-.45 1-1 1Z"/>
</svg>
