<svg xmlns="http://www.w3.org/2000/svg" width="24" height="24" viewBox="0 0 24 24">
  <path d="m2.39 18.098 8.225-14.206c.455-.785.682-1.178.979-1.31a1 1 0 0 1 .812 0c.297.132.524.525.979 1.31l8.225 14.206c.456.788.684 1.182.65 1.506a1 1 0 0 1-.406.705c-.263.191-.719.191-1.63.191H3.776c-.91 0-1.366 0-1.629-.191a1 1 0 0 1-.406-.705c-.034-.324.194-.718.65-1.506Z" opacity=".2"/>
  <path d="M11.27 17.5c0 .55.45 1 1 1s1-.45 1-1-.45-1-1-1c-.56 0-1 .45-1 1Zm-.01-4c0 .55.45 1 1 1s1-.45 1-1v-4c0-.55-.45-1-1-1s-1 .45-1 1v4Z"/>
  <path fill-rule="evenodd" d="M1.82 21.62c.53.38 1.13.38 2.22.38h16.44c1.1 0 1.7 0 2.22-.38.45-.33.75-.85.81-1.41.07-.65-.23-1.17-.78-2.11L14.51 3.89l-.016-.027c-.54-.923-.84-1.435-1.424-1.693-.51-.23-1.1-.23-1.62 0-.6.26-.9.78-1.44 1.72L1.79 18.1c-.55.94-.85 1.46-.78 2.11.06.56.35 1.08.81 1.41ZM4.04 20c-.39 0-.79 0-1-.02.08-.19.28-.54.48-.88l8.22-14.2c.061-.1.122-.203.18-.302.135-.225.257-.43.34-.548.12.17.33.51.52.85l8.23 14.2.102.182c.156.278.304.542.378.698-.21.02-.61.02-1 .02H4.04Z" clip-rule="evenodd"/>
</svg>
