<svg xmlns="http://www.w3.org/2000/svg" width="24" height="24" viewBox="0 0 24 24">
  <path fill-rule="evenodd" d="M11.597 1.185a2 2 0 0 1 .806 0c.307.063.582.217.8.34l.06.033 7.4 4.11c.02.012.041.024.063.035.23.128.522.288.745.53.193.21.339.458.428.728.103.313.102.644.101.908v8.262c.001.264.002.595-.101.908-.09.27-.235.519-.428.728-.223.242-.514.402-.745.53l-.063.034-7.4 4.111-.06.034c-.218.122-.493.276-.8.339a1.99 1.99 0 0 1-.806 0c-.307-.063-.582-.217-.8-.34l-.06-.033-7.4-4.11a.938.938 0 0 0-.063-.035c-.23-.128-.522-.288-.745-.53a2 2 0 0 1-.428-.728c-.103-.313-.102-.645-.101-.908V7.869c-.001-.264-.002-.595.101-.908a2 2 0 0 1 .428-.728c.223-.242.514-.402.745-.53l.063-.034 7.4-4.111.06-.034c.218-.122.493-.276.8-.34ZM12 3.149a6.574 6.574 0 0 0-.291.157l-7.4 4.11c-.16.09-.242.136-.3.172l-.004.003v.006A6.64 6.64 0 0 0 4 7.941v8.117c0 .183 0 .277.005.345v.006l.005.003c.057.036.139.082.299.171l7.4 4.111c.151.084.229.127.286.155l.005.002.005-.002a6.62 6.62 0 0 0 .286-.155l7.4-4.111c.16-.089.242-.135.3-.171l.004-.003v-.006c.005-.068.005-.162.005-.345V7.941a6.616 6.616 0 0 0-.005-.35 6.677 6.677 0 0 0-.304-.174l-7.4-4.111A6.574 6.574 0 0 0 12 3.149ZM12 7a1 1 0 0 1 1 1v4a1 1 0 1 1-2 0V8a1 1 0 0 1 1-1Zm-1 9a1 1 0 0 1 1-1h.01a1 1 0 1 1 0 2H12a1 1 0 0 1-1-1Z" clip-rule="evenodd"/>
</svg>
