<svg xmlns="http://www.w3.org/2000/svg" width="24" height="24"  viewBox="0 0 24 24">
  <path fill-rule="evenodd" d="M18.529 2c1.496.014 2.627 1.13 3.326 2.43C22.581 5.778 23 7.573 23 9.5c0 1.927-.419 3.722-1.145 5.07-.701 1.303-1.835 2.42-3.336 2.43-2.4.043-5.07-.902-7.426-1.33l.274 3.564c.1 1.297-.267 2.618-1.808 2.747-1.069.09-2.199.088-3.265.003-1.272-.1-1.812-1.194-1.895-2.368l-.376-5.254a3.95 3.95 0 0 1-.787-.276 4 4 0 0 1-2.084-2.497c-.334-1.177-.336-2.995 0-4.178a4 4 0 0 1 2.084-2.498c.503-.247 1.098-.354 1.894-.499C9.53 3.614 17 2 18.529 2Zm.044 12.997-.472-.086c-.365-.157-.793-.54-1.195-1.289C16.364 12.618 16 11.162 16 9.5c0-1.663.365-3.118.905-4.122.334-.62.684-.99 1.002-1.187.124-.077.267-.115.41-.142.17-.03.345-.047.507.01.381.136.84.519 1.27 1.319.54 1.004.906 2.46.906 4.122 0 1.663-.365 3.118-.906 4.122-.53.986-1.103 1.338-1.521 1.375Z" clip-rule="evenodd"/>
</svg>
