<svg xmlns="http://www.w3.org/2000/svg" width="24" height="24" viewBox="0 0 24 24">
  <path fill-rule="evenodd" d="M4.929 13.003a1 1 0 0 1 1.068.926l.394 5.514a7.89 7.89 0 0 0 .05.547h.011c.109.01.26.01.538.01h1.782c.317 0 .493 0 .62-.011l.014-.002v-.015a8.113 8.113 0 0 0-.036-.618l-.367-4.777a1 1 0 0 1 1.994-.154l.367 4.778.003.033c.02.27.041.531.04.752a2.03 2.03 0 0 1-.159.825 2 2 0 0 1-.88.95 2.03 2.03 0 0 1-.81.22c-.22.02-.481.019-.752.019H6.959c-.236 0-.467 0-.665-.015a2.016 2.016 0 0 1-.733-.184 2 2 0 0 1-.864-.805 2.017 2.017 0 0 1-.236-.718 8.373 8.373 0 0 1-.062-.662l-.003-.03-.393-5.515a1 1 0 0 1 .926-1.068Z" clip-rule="evenodd" opacity=".5"/>
  <path fill-rule="evenodd" d="M16.906 5.378C16.365 6.382 16 7.838 16 9.5c0 1.663.365 3.118.906 4.122.403.749.83 1.132 1.195 1.29l.472.085c.417-.037.99-.389 1.521-1.375.541-1.004.906-2.46.906-4.122 0-1.663-.365-3.118-.906-4.122-.53-.986-1.104-1.338-1.521-1.375l-.472.086c-.365.157-.792.54-1.195 1.289Zm-1.874-.731C14.376 5.968 14 7.674 14 9.5c0 1.826.376 3.532 1.032 4.853l-9.41-1.71-.178.983.178-.984c-.99-.18-1.285-.243-1.504-.35l-.42.854.42-.855a2 2 0 0 1-1.042-1.248C3.01 10.808 3 10.507 3 9.5s.01-1.308.076-1.543A2 2 0 0 1 4.118 6.71c.22-.108.514-.171 1.504-.351l9.41-1.711Zm2.512-2.49L5.264 4.39l-.134.024c-.796.145-1.39.253-1.894.5l.441.897-.44-.898a4 4 0 0 0-2.085 2.498C1 7.95 1 8.554 1 9.363a235.682 235.682 0 0 1 0 .274c0 .809 0 1.413.152 1.952a4 4 0 0 0 2.084 2.497c.503.248 1.098.355 1.894.5l.135.024 12.28 2.233c.299.101.618.157.955.157 1.51 0 2.651-1.122 3.355-2.43C22.581 13.222 23 11.427 23 9.5c0-1.927-.419-3.722-1.145-5.07C21.151 3.122 20.011 2 18.5 2a2.98 2.98 0 0 0-.956.157Z" clip-rule="evenodd"/>
</svg>
