<svg xmlns="http://www.w3.org/2000/svg" width="24" height="24" viewBox="0 0 24 24">
  <path fill-rule="evenodd" d="M7.759 2h8.482c.805 0 1.47 0 2.01.044.563.046 1.08.145 1.565.392a4 4 0 0 1 1.748 1.748c.247.485.346 1.002.392 1.564C22 6.29 22 6.954 22 7.758v5.776c0 .67 0 1.223-.03 1.675-.033.47-.101.904-.274 1.322a4 4 0 0 1-2.165 2.165c-.418.173-.852.241-1.322.273-.452.031-1.005.031-1.675.031H16.5c-.537 0-.643.006-.73.027a1 1 0 0 0-.41.205c-.07.057-.138.139-.46.568l-1.477 1.97a5.926 5.926 0 0 1-.3.378 1.522 1.522 0 0 1-.58.417 1.5 1.5 0 0 1-1.087 0 1.522 1.522 0 0 1-.579-.417 5.679 5.679 0 0 1-.3-.379L9.1 19.8c-.322-.43-.39-.51-.46-.568a1 1 0 0 0-.41-.205c-.087-.02-.193-.027-.73-.027h-.034c-.67 0-1.223 0-1.676-.03-.469-.033-.903-.101-1.32-.274a4 4 0 0 1-2.166-2.165c-.173-.418-.241-.852-.273-1.321C2 14.757 2 14.204 2 13.534V7.76c0-.805 0-1.47.044-2.01.046-.563.145-1.08.392-1.565a4 4 0 0 1 1.748-1.748c.485-.247 1.002-.346 1.564-.392C6.29 2 6.954 2 7.758 2ZM5.91 4.038c-.438.035-.663.1-.819.18a2 2 0 0 0-.874.874c-.08.156-.145.38-.18.819C4 6.361 4 6.943 4 7.8v5.7c0 .713 0 1.197.026 1.573.025.368.07.559.126.692a2 2 0 0 0 1.083 1.083c.133.055.324.1.692.126.376.026.86.026 1.573.026h.084c.405 0 .762 0 1.105.08a3 3 0 0 1 1.233.617c.27.226.485.511.728.836l.05.067 1.3 1.733 1.3-1.733.05-.067c.243-.325.457-.61.728-.836a3 3 0 0 1 1.233-.617c.343-.08.7-.08 1.105-.08h.084c.713 0 1.197 0 1.573-.026.368-.025.559-.07.692-.126a2 2 0 0 0 1.083-1.083c.055-.133.1-.324.126-.692.026-.376.026-.86.026-1.573V7.8c0-.857 0-1.439-.038-1.889-.035-.438-.1-.663-.18-.819a2 2 0 0 0-.874-.874c-.156-.08-.38-.145-.819-.18C17.639 4 17.057 4 16.2 4H7.8c-.857 0-1.439 0-1.889.038Z" clip-rule="evenodd" opacity=".5"/>
  <path fill-rule="evenodd" d="M16.207 7.793a1 1 0 0 1 0 1.414l-4.5 4.5a1 1 0 0 1-1.414 0l-2-2a1 1 0 1 1 1.414-1.414L11 11.586l3.793-3.793a1 1 0 0 1 1.414 0Z" clip-rule="evenodd"/>
</svg>
