<svg xmlns="http://www.w3.org/2000/svg" width="24" height="24" viewBox="0 0 24 24">
  <path d="M18.5 13.5a3.5 3.5 0 1 0 0-7v7Zm-8.5-8H6.5a4.5 4.5 0 0 0 0 9H10v-9Z" opacity=".2"/>
  <path fill-rule="evenodd" d="M17.39 3.964c-.24.109-.566.285-1.067.558C14.85 5.325 12.85 6.246 11 6.456v7.088c1.85.21 3.85 1.13 5.323 1.934.501.273.826.45 1.067.558l.083.036.007-.07c.02-.245.02-.589.02-1.128V5.126c0-.54 0-.883-.02-1.128a2.62 2.62 0 0 0-.007-.07l-.083.036Zm2.11 1.648v-.526c0-.488 0-.913-.026-1.246-.026-.316-.083-.754-.347-1.123a1.944 1.944 0 0 0-1.384-.821c-.458-.057-.884.113-1.176.245-.318.144-.71.358-1.167.606l-.034.02C13.706 3.67 11.74 4.5 10.25 4.5H6.5a5.5 5.5 0 0 0-3.462 9.774l1.567 6.267.007.031c.037.146.068.273.108.39a3 3 0 0 0 2.597 2.028c.123.01.254.01.405.01h.073c.188 0 .349 0 .495-.014a3 3 0 0 0 2.696-2.696c.014-.146.014-.307.014-.495v-4.234c1.363.207 2.972.913 4.366 1.673l.034.018c.457.25.85.463 1.167.607.292.132.718.302 1.176.245a1.944 1.944 0 0 0 1.384-.821c.264-.37.321-.807.347-1.123.026-.333.026-.758.026-1.246v-.525a4.502 4.502 0 0 0 0-8.777Zm0 2.096v4.584a2.5 2.5 0 0 0 0-4.584ZM9 13.5v-7H6.5a3.5 3.5 0 0 0 0 7H9Zm0 2v4.254c0 .252-.001.306-.005.342a1 1 0 0 1-.898.9 5.524 5.524 0 0 1-.343.004c-.201 0-.243 0-.274-.003a1 1 0 0 1-.866-.676c-.01-.03-.02-.07-.07-.265l-1.167-4.67c.363.075.738.114 1.123.114H9Z" clip-rule="evenodd"/>
</svg>
