<svg xmlns="http://www.w3.org/2000/svg" width="24" height="24" viewBox="0 0 24 24">
  <path fill-rule="evenodd" d="M16.906 5.378C16.365 6.382 16 7.838 16 9.5c0 1.663.365 3.118.906 4.122.403.749.83 1.132 1.195 1.29l.472.085c.417-.037.99-.389 1.521-1.375.541-1.004.906-2.46.906-4.122 0-1.663-.365-3.118-.906-4.122-.53-.986-1.104-1.338-1.521-1.375l-.472.086c-.365.157-.792.54-1.195 1.289Zm-1.874-.731C14.376 5.968 14 7.674 14 9.5c0 1.826.376 3.532 1.032 4.853l-9.41-1.71c-.99-.18-1.285-.244-1.504-.352a2 2 0 0 1-1.042-1.248C3.01 10.808 3 10.507 3 9.5s.01-1.308.076-1.543A2 2 0 0 1 4.118 6.71c.22-.108.514-.171 1.504-.351l9.41-1.711Zm2.512-2.49L5.264 4.39l-.134.024c-.796.145-1.39.253-1.894.5A4 4 0 0 0 1.152 7.41C1 7.95 1 8.554 1 9.363v.274c0 .809 0 1.413.152 1.952a4 4 0 0 0 2.084 2.497c.238.117.497.203.787.276l.376 5.254c.016.235.033.466.062.662.033.216.092.467.236.718a2 2 0 0 0 .864.805c.26.126.516.166.733.183.198.016.43.016.665.016h1.847c.27 0 .533 0 .753-.018.24-.02.526-.069.81-.221a2 2 0 0 0 .88-.95c.13-.295.156-.583.157-.825a9.254 9.254 0 0 0-.039-.752l-.274-3.564 6.451 1.173c.3.101.619.157.956.157 1.51 0 2.651-1.122 3.355-2.43C22.581 13.222 23 11.427 23 9.5c0-1.927-.419-3.722-1.145-5.07C21.151 3.122 20.011 2 18.5 2a2.98 2.98 0 0 0-.956.157ZM9.06 15.3l-3.003-.546.335 4.689c.02.277.032.428.048.535l.002.012h.011c.109.01.26.01.538.01h1.782c.317 0 .493 0 .62-.011l.014-.002v-.015a8.113 8.113 0 0 0-.036-.618L9.06 15.3Z" clip-rule="evenodd"/>
</svg>
