<svg xmlns="http://www.w3.org/2000/svg" width="24" height="24" viewBox="0 0 24 24">
  <path d="M10.25 5.5H6.8c-1.68 0-2.52 0-3.162.327a3 3 0 0 0-1.311 1.311C2 7.78 2 8.62 2 10.3v1.2c0 .932 0 1.398.152 1.765a2 2 0 0 0 1.083 1.083c.367.152.833.152 1.765.152v4.25c0 .232 0 .348.01.446a2 2 0 0 0 1.794 1.794c.098.01.214.01.446.01s.348 0 .446-.01a2 2 0 0 0 1.794-1.794c.01-.098.01-.214.01-.446V14.5h.75c1.766 0 3.927.947 5.594 1.856.973.53 1.46.795 1.778.756a.946.946 0 0 0 .691-.41c.187-.262.187-.784.187-1.828V5.126c0-1.044 0-1.566-.187-1.827a.946.946 0 0 0-.691-.41c-.319-.04-.805.225-1.778.755-1.667.91-3.828 1.856-5.594 1.856Z" opacity=".2"/>
  <path fill-rule="evenodd" d="M17.39 3.964c-.24.109-.566.285-1.067.558-1.674.913-4.031 1.978-6.073 1.978H6.8c-.857 0-1.439 0-1.889.038-.438.035-.663.1-.819.18a2 2 0 0 0-.874.874c-.08.156-.145.38-.18.819C3 8.861 3 9.443 3 10.3v1.2c0 .48 0 .79.017 1.026.015.228.042.315.06.357a1 1 0 0 0 .54.54c.042.018.129.045.357.06.237.016.546.017 1.026.017a1 1 0 0 1 1 1v4.25c0 .256.001.311.005.348a1 1 0 0 0 .897.897c.037.004.092.005.348.005s.311-.001.348-.005a1 1 0 0 0 .897-.897c.004-.037.005-.092.005-.348V14.5a1 1 0 0 1 1-1h.75c2.042 0 4.399 1.065 6.073 1.978.501.273.826.45 1.067.558l.083.036.007-.07c.02-.245.02-.589.02-1.128V5.126c0-.54 0-.883-.02-1.128a2.62 2.62 0 0 0-.007-.07l-.083.036Zm-.823-1.823c.292-.132.718-.302 1.176-.245.573.07 1.048.351 1.384.821.264.37.321.807.347 1.123.026.333.026.758.026 1.246v9.828c0 .488 0 .913-.026 1.246-.026.316-.083.754-.347 1.123-.336.47-.81.751-1.384.822-.458.056-.884-.114-1.176-.246-.318-.144-.71-.358-1.167-.607l-.034-.018c-1.569-.856-3.41-1.643-4.866-1.727v3.285c0 .19 0 .354-.014.502a3 3 0 0 1-2.692 2.692C7.646 22 7.482 22 7.292 22h-.084c-.19 0-.354 0-.502-.014a3 3 0 0 1-2.692-2.692C4 19.146 4 18.982 4 18.792v-3.304a7.356 7.356 0 0 1-.162-.01 3.07 3.07 0 0 1-.986-.206 3 3 0 0 1-1.624-1.624 3.07 3.07 0 0 1-.207-.986C1 12.35 1 11.971 1 11.532v-1.273c0-.805 0-1.47.044-2.01.046-.563.145-1.08.392-1.565a4 4 0 0 1 1.748-1.748c.485-.247 1.002-.346 1.564-.392C5.29 4.5 5.954 4.5 6.758 4.5h3.492c1.491 0 3.456-.829 5.116-1.734l.034-.019c.457-.248.85-.462 1.167-.606ZM22 7a1 1 0 0 1 1 1v4a1 1 0 1 1-2 0V8a1 1 0 0 1 1-1Z" clip-rule="evenodd"/>
</svg>
