<svg xmlns="http://www.w3.org/2000/svg" width="24" height="24" viewBox="0 0 24 24">
  <path fill-rule="evenodd" d="M10 4.5a1 1 0 0 1 1 1v14.295c0 .188 0 .349-.014.495a3 3 0 0 1-2.696 2.696l-.097-.995.097.995a5.291 5.291 0 0 1-.495.014h-.073c-.151 0-.282 0-.405-.01a3 3 0 0 1-2.597-2.028l.928-.314-.928.314a5.024 5.024 0 0 1-.108-.39l-.008-.03-1.574-6.3a1 1 0 1 1 1.94-.485l1.575 6.299c.049.195.06.236.07.265a1 1 0 0 0 .865.676c.03.002.073.003.274.003.252 0 .307-.001.343-.005M10 4.5a1 1 0 0 0-1 1l1-1Zm-1 1v14.254V5.5Zm8.5 1a1 1 0 0 1 1-1 4.5 4.5 0 1 1 0 9 1 1 0 1 1 0-2 2.5 2.5 0 0 0 0-5 1 1 0 0 1-1-1ZM9 19.754c0 .252-.001.306-.005.342L9 19.755Zm-.005.342a1 1 0 0 1-.898.9l.898-.9Z" clip-rule="evenodd" opacity=".5"/>
  <path fill-rule="evenodd" d="M17.39 3.964c-.24.109-.566.285-1.067.558-1.674.913-4.031 1.978-6.073 1.978H6.5a3.5 3.5 0 1 0 0 7h3.75c2.042 0 4.399 1.065 6.073 1.978.501.273.826.45 1.067.558l.083.036a2.62 2.62 0 0 0 .007-.07c.02-.245.02-.589.02-1.128V5.126c0-.54 0-.883-.02-1.128a2.624 2.624 0 0 0-.007-.07l-.083.036Zm-.823-1.823c.292-.132.718-.302 1.176-.245.573.07 1.048.351 1.384.821.264.37.321.807.347 1.123.026.333.026.758.026 1.246v9.828c0 .488 0 .913-.026 1.246-.026.316-.083.754-.347 1.123-.336.47-.81.751-1.384.821-.458.056-.884-.113-1.176-.245-.318-.144-.71-.358-1.167-.607l-.034-.018c-1.66-.905-3.625-1.734-5.116-1.734H6.5a5.5 5.5 0 1 1 0-11h3.75c1.491 0 3.456-.829 5.116-1.734l.034-.019c.457-.249.85-.462 1.167-.606Z" clip-rule="evenodd"/>
</svg>
