<svg xmlns="http://www.w3.org/2000/svg" width="24" height="24" viewBox="0 0 24 24">
  <path fill-rule="evenodd" d="M12 3a8.996 8.996 0 0 0-7.797 4.5 1 1 0 1 1-1.73-1A10.989 10.989 0 0 1 12 1c6.075 0 11 4.925 11 11s-4.925 11-11 11a10.996 10.996 0 0 1-9.528-5.5 1 1 0 1 1 1.731-1A9 9 0 1 0 12 3Z" clip-rule="evenodd" opacity=".5"/>
  <path fill-rule="evenodd" d="M11.293 7.293a1 1 0 0 1 1.414 0l4 4a1 1 0 0 1 0 1.414l-4 4a1 1 0 0 1-1.414-1.414L13.586 13H2a1 1 0 1 1 0-2h11.586l-2.293-2.293a1 1 0 0 1 0-1.414Z" clip-rule="evenodd"/>
</svg>
