<svg xmlns="http://www.w3.org/2000/svg" width="24" height="24" viewBox="0 0 24 24">
  <path d="M4.929 19.071c3.905 3.905 10.237 3.905 14.142 0a9.996 9.996 0 0 0 2.59-9.66L14.59 2.338a9.996 9.996 0 0 0-9.661 2.59c-3.905 3.905-3.905 10.237 0 14.142Z" opacity=".2"/>
  <path fill-rule="evenodd" d="M14.332 3.306a9 9 0 1 0 6.363 6.363 1 1 0 0 1 1.932-.517 10.997 10.997 0 0 1-2.849 10.626c-4.296 4.296-11.26 4.296-15.556 0-4.296-4.295-4.296-11.26 0-15.556a10.996 10.996 0 0 1 10.626-2.849 1 1 0 1 1-.517 1.933Zm5.375.987a1 1 0 0 1 0 1.414L11.414 14H15a1 1 0 1 1 0 2H9a1 1 0 0 1-1-1V9a1 1 0 1 1 2 0v3.586l8.293-8.293a1 1 0 0 1 1.414 0Z" clip-rule="evenodd"/>
</svg>
