<svg xmlns="http://www.w3.org/2000/svg" width="24" height="24" viewBox="0 0 24 24">
  <path d="M9 3.8c0-.28 0-.42.055-.527a.5.5 0 0 1 .218-.219C9.38 3 9.52 3 9.8 3h4.4c.28 0 .42 0 .527.054a.5.5 0 0 1 .218.219C15 3.38 15 3.52 15 3.8V14h4l-7 7-7-7h4V3.8Z" opacity=".2"/>
  <path fill-rule="evenodd" d="M9.777 2h4.446c.12 0 .261 0 .387.01.145.012.353.042.571.154a1.5 1.5 0 0 1 .655.655c.112.218.142.426.154.571.01.125.01.268.01.387V13h3a1 1 0 0 1 .707 1.707l-7 7a1 1 0 0 1-1.414 0l-7-7A1 1 0 0 1 5 13h3V3.777c0-.12 0-.262.01-.387a1.51 1.51 0 0 1 .153-.571 1.5 1.5 0 0 1 .656-.655c.218-.112.426-.142.571-.154.125-.01.268-.01.387-.01ZM10 4v10a1 1 0 0 1-1 1H7.414L12 19.586 16.586 15H15a1 1 0 0 1-1-1V4h-4Z" clip-rule="evenodd"/>
</svg>
