<svg xmlns="http://www.w3.org/2000/svg" width="24" height="24" viewBox="0 0 24 24">
  <path fill-rule="evenodd" d="M14.332 3.306a9 9 0 1 0 6.363 6.363 1 1 0 0 1 1.932-.517 10.997 10.997 0 0 1-2.849 10.626c-4.296 4.296-11.26 4.296-15.556 0-4.296-4.295-4.296-11.26 0-15.556a10.996 10.996 0 0 1 10.625-2.849 1 1 0 1 1-.515 1.933Z" clip-rule="evenodd" opacity=".5"/>
  <path fill-rule="evenodd" d="M19.707 4.293a1 1 0 0 1 0 1.414L11.414 14H15a1 1 0 1 1 0 2H9a1 1 0 0 1-1-1V9a1 1 0 0 1 2 0v3.586l8.293-8.293a1 1 0 0 1 1.414 0Z" clip-rule="evenodd"/>
</svg>
