<svg xmlns="http://www.w3.org/2000/svg" width="24" height="24" viewBox="0 0 24 24">
  <path d="M2 12c0 5.523 4.477 10 10 10a9.996 9.996 0 0 0 8.662-5V7A9.996 9.996 0 0 0 12 2C6.477 2 2 6.477 2 12Z" opacity=".2"/>
  <path fill-rule="evenodd" d="M12 3a9 9 0 1 0 7.797 13.5 1 1 0 1 1 1.73 1A10.996 10.996 0 0 1 12 23C5.925 23 1 18.075 1 12S5.925 1 12 1c4.073 0 7.627 2.214 9.528 5.5a1 1 0 1 1-1.731 1A8.996 8.996 0 0 0 12 3Zm.707 4.293a1 1 0 0 1 0 1.414L10.414 11H22a1 1 0 1 1 0 2H10.414l2.293 2.293a1 1 0 0 1-1.414 1.414l-4-4a1 1 0 0 1 0-1.414l4-4a1 1 0 0 1 1.414 0Z" clip-rule="evenodd"/>
</svg>
