<svg xmlns="http://www.w3.org/2000/svg" width="24" height="24" viewBox="0 0 24 24">
  <path fill-rule="evenodd" d="M10.807 2.083a3 3 0 0 1 2.386 0c.534.231.92.65 1.251 1.095.326.437.685 1.024 1.115 1.728l2.183 3.573a1 1 0 0 1-1.706 1.042L13.877 5.99c-.461-.756-.772-1.263-1.037-1.618-.266-.357-.395-.434-.442-.454a1 1 0 0 0-.796 0c-.047.02-.176.097-.442.454-.265.355-.576.862-1.037 1.618l-1.02 1.668a1 1 0 0 1-1.707-1.043l1.045-1.71c.43-.703.789-1.29 1.115-1.727.33-.445.717-.864 1.251-1.095ZM6.652 9.752a1 1 0 0 1 .331 1.375L4.83 14.653c-.497.813-.832 1.363-1.043 1.792-.214.435-.22.594-.216.642a1 1 0 0 0 .402.718c.04.028.178.106.66.15C5.11 18 5.754 18 6.707 18H8.5a1 1 0 1 1 0 2H6.657c-.891 0-1.629 0-2.207-.053-.582-.053-1.175-.171-1.665-.533a3 3 0 0 1-1.207-2.153c-.054-.607.155-1.174.413-1.698.256-.522.64-1.151 1.105-1.911l2.18-3.568a1 1 0 0 1 1.376-.332Zm11.854 1.895a1 1 0 0 1 1.375.332l1.023 1.673c.464.76.849 1.39 1.105 1.91.258.525.467 1.092.413 1.7a3 3 0 0 1-1.207 2.152c-.49.362-1.083.48-1.665.533-.578.053-1.316.053-2.207.053H13a1 1 0 1 1 0-2h4.294c.953 0 1.597-.001 2.073-.045.483-.044.622-.122.66-.15a1 1 0 0 0 .403-.718c.004-.048-.002-.207-.216-.642-.21-.429-.546-.98-1.043-1.792l-.997-1.632a1 1 0 0 1 .332-1.374Z" clip-rule="evenodd" opacity=".5"/>
  <path fill-rule="evenodd" d="M18.259 4.034a1 1 0 0 1 .707 1.225l-1.098 4.098a1 1 0 0 1-1.225.707l-4.098-1.098a1 1 0 0 1 .518-1.932l3.132.84.84-3.133a1 1 0 0 1 1.224-.707Zm-11.66 5.6a1 1 0 0 1 .465.607l1.098 4.098a1 1 0 1 1-1.932.518l-.839-3.132-3.132.839a1 1 0 1 1-.518-1.932L5.84 9.534a1 1 0 0 1 .76.1Zm9.608 5.659a1 1 0 0 1 0 1.414L13.914 19l2.293 2.293a1 1 0 0 1-1.414 1.414l-3-3a1 1 0 0 1 0-1.414l3-3a1 1 0 0 1 1.414 0Z" clip-rule="evenodd"/>
</svg>
