<svg xmlns="http://www.w3.org/2000/svg" width="24" height="24" viewBox="0 0 24 24">
  <path d="M12 2C6.477 2 2 6.477 2 12a9.996 9.996 0 0 0 5 8.662h10A9.995 9.995 0 0 0 22 12c0-5.523-4.477-10-10-10Z" opacity=".2"/>
  <path fill-rule="evenodd" d="M12 3a9 9 0 0 0-4.5 16.797 1 1 0 0 1-1 1.73A10.996 10.996 0 0 1 1 12C1 5.925 5.925 1 12 1s11 4.925 11 11c0 4.073-2.214 7.627-5.5 9.528a1 1 0 1 1-1-1.731A9 9 0 0 0 12 3Zm-4.707 8.293 4-4a1 1 0 0 1 1.414 0l4 4a1 1 0 0 1-1.414 1.414L13 10.414V22a1 1 0 1 1-2 0V10.414l-2.293 2.293a1 1 0 0 1-1.414-1.414Z" clip-rule="evenodd"/>
</svg>
