<svg xmlns="http://www.w3.org/2000/svg" width="24" height="24" viewBox="0 0 24 24">
  <path fill-rule="evenodd" d="M10.807 2.083a3 3 0 0 1 2.386 0c.534.231.92.65 1.251 1.095.326.437.685 1.024 1.115 1.728l.995 1.628.48-1.793a1 1 0 1 1 1.932.518l-1.098 4.098a1 1 0 0 1-1.225.707l-4.098-1.098a1 1 0 0 1 .518-1.932L14.8 7.5l-.923-1.51c-.461-.756-.772-1.263-1.037-1.618-.266-.357-.395-.434-.442-.454a1 1 0 0 0-.796 0c-.047.02-.176.097-.442.454-.265.355-.576.862-1.037 1.618l-1.02 1.668a1 1 0 0 1-1.707-1.043l1.045-1.71c.43-.703.789-1.29 1.115-1.727.33-.445.717-.864 1.251-1.095ZM5.84 9.534a1 1 0 0 1 1.225.707l.006.023c.02.054.035.11.045.167l1.047 3.908a1 1 0 0 1-1.932.518l-.465-1.736-.936 1.532c-.497.813-.832 1.363-1.043 1.792-.214.435-.22.594-.216.642a1 1 0 0 0 .402.718c.04.028.178.106.66.15C5.11 18 5.754 18 6.707 18H8.5a1 1 0 1 1 0 2H6.657c-.891 0-1.629 0-2.207-.053-.582-.053-1.175-.171-1.665-.533a3 3 0 0 1-1.207-2.153c-.054-.607.155-1.174.413-1.698.256-.522.64-1.151 1.105-1.911l.96-1.57-1.797.482a1 1 0 1 1-.518-1.932L5.84 9.534Zm12.667 2.113a1 1 0 0 1 1.375.332l1.023 1.673c.464.76.849 1.39 1.105 1.91.258.525.467 1.092.413 1.7a3 3 0 0 1-1.207 2.152c-.49.362-1.083.48-1.665.533-.578.053-1.316.053-2.207.053h-2.429l1.293 1.293a1 1 0 0 1-1.414 1.414l-3-3a1 1 0 0 1 0-1.414l3-3a1 1 0 0 1 1.414 1.414L14.914 18h2.38c.953 0 1.598-.001 2.073-.045.483-.044.622-.122.66-.15a1 1 0 0 0 .403-.718c.004-.048-.002-.207-.216-.642-.21-.429-.546-.98-1.043-1.792l-.997-1.632a1 1 0 0 1 .332-1.374Z" clip-rule="evenodd"/>
</svg>
