<svg xmlns="http://www.w3.org/2000/svg" width="24" height="24" viewBox="0 0 24 24">
  <path d="M4.929 4.929c-3.905 3.905-3.905 10.237 0 14.142a9.996 9.996 0 0 0 9.66 2.59l7.072-7.071a9.996 9.996 0 0 0-2.59-9.661c-3.905-3.905-10.237-3.905-14.142 0Z" opacity=".2"/>
  <path fill-rule="evenodd" d="M18.364 5.636a9 9 0 1 0-4.033 15.058 1 1 0 1 1 .517 1.933 10.997 10.997 0 0 1-10.626-2.849c-4.296-4.296-4.296-11.26 0-15.556 4.296-4.296 11.26-4.296 15.556 0a10.996 10.996 0 0 1 2.849 10.625 1 1 0 1 1-1.933-.515 8.996 8.996 0 0 0-2.33-8.696ZM8 9a1 1 0 0 1 1-1h6a1 1 0 1 1 0 2h-3.586l8.293 8.293a1 1 0 0 1-1.414 1.414L10 11.414V15a1 1 0 0 1-2 0V9Z" clip-rule="evenodd"/>
</svg>
