<svg xmlns="http://www.w3.org/2000/svg" width="24" height="24" viewBox="0 0 24 24">
  <path d="M19.071 4.929c-3.905-3.905-10.237-3.905-14.142 0a9.996 9.996 0 0 0-2.59 9.66l7.071 7.072a9.996 9.996 0 0 0 9.661-2.59c3.905-3.905 3.905-10.237 0-14.142Z" opacity=".2"/>
  <path fill-rule="evenodd" d="M18.364 5.636a9 9 0 0 0-15.058 8.695 1 1 0 1 1-1.933.517A10.996 10.996 0 0 1 4.222 4.222c4.296-4.296 11.26-4.296 15.556 0 4.296 4.296 4.296 11.26 0 15.556a10.996 10.996 0 0 1-10.626 2.849 1 1 0 0 1 .517-1.933 9 9 0 0 0 8.695-15.058ZM8 9a1 1 0 0 1 1-1h6a1 1 0 0 1 1 1v6a1 1 0 1 1-2 0v-3.586l-8.293 8.293a1 1 0 0 1-1.414-1.414L12.586 10H9a1 1 0 0 1-1-1Z" clip-rule="evenodd"/>
</svg>
