<svg xmlns="http://www.w3.org/2000/svg" width="24" height="24" viewBox="0 0 24 24">
  <path fill-rule="evenodd" d="M12 3a9 9 0 0 0-4.5 16.797 1 1 0 1 1-1 1.73A10.996 10.996 0 0 1 1 12C1 5.925 5.925 1 12 1s11 4.925 11 11c0 4.073-2.214 7.627-5.5 9.528a1 1 0 1 1-1-1.731A9 9 0 0 0 12 3Z" clip-rule="evenodd" opacity=".5"/>
  <path fill-rule="evenodd" d="M11.293 7.293a1 1 0 0 1 1.414 0l4 4a1 1 0 0 1-1.414 1.414L13 10.414V22a1 1 0 1 1-2 0V10.414l-2.293 2.293a1 1 0 0 1-1.414-1.414l4-4Z" clip-rule="evenodd"/>
</svg>
