<svg xmlns="http://www.w3.org/2000/svg" width="24" height="24" viewBox="0 0 24 24">
  <path fill-rule="evenodd" d="M18.364 5.636a8.996 8.996 0 0 0-8.695-2.33 1 1 0 1 1-.517-1.933 10.996 10.996 0 0 1 10.626 2.849c4.296 4.296 4.296 11.26 0 15.556-4.295 4.296-11.26 4.296-15.556 0A10.996 10.996 0 0 1 1.373 9.152a1 1 0 1 1 1.933.517 9 9 0 1 0 15.058-4.032ZM4.293 4.293a1 1 0 0 1 1.414 0L14 12.586V9a1 1 0 1 1 2 0v6a1 1 0 0 1-1 1H9a1 1 0 0 1 0-2h3.586L4.293 5.707a1 1 0 0 1 0-1.414Z" clip-rule="evenodd"/>
</svg>
