<svg xmlns="http://www.w3.org/2000/svg" width="24" height="24"  viewBox="0 0 24 24">
  <path d="M21.464 17.611c-.263.443-.394.665-.642.796a1.09 1.09 0 0 1-.706.089c-.272-.066-.482-.276-.9-.694l-7.63-7.63h3.242a1 1 0 0 0 0-2H9.172a1 1 0 0 0-1 1v5.656a1 1 0 1 0 2 0v-3.242l7.63 7.63c.418.418.628.628.694.9a1.09 1.09 0 0 1-.089.706c-.131.248-.353.38-.796.642-4.22 2.507-9.758 1.945-13.39-1.686-4.295-4.296-4.295-11.26 0-15.556 4.297-4.296 11.261-4.296 15.557 0 3.631 3.63 4.193 9.168 1.686 13.39Z"/>
</svg>
