<svg xmlns="http://www.w3.org/2000/svg" width="24" height="24" viewBox="0 0 24 24">
  <path d="m21 12-7-7v4H3.8c-.28 0-.42 0-.527.055a.5.5 0 0 0-.219.218C3 9.38 3 9.52 3 9.8v4.4c0 .28 0 .42.054.527a.5.5 0 0 0 .219.218C3.38 15 3.52 15 3.8 15H14v4l7-7Z" opacity=".2"/>
  <path fill-rule="evenodd" d="M13.617 4.076a1 1 0 0 1 1.09.217l7 7a1 1 0 0 1 0 1.414l-7 7A1 1 0 0 1 13 19v-3H3.777c-.12 0-.262 0-.387-.01a1.508 1.508 0 0 1-.571-.154 1.5 1.5 0 0 1-.656-.655 1.507 1.507 0 0 1-.153-.571C2 14.485 2 14.342 2 14.223V9.777c0-.12 0-.261.01-.387a1.51 1.51 0 0 1 .153-.571 1.5 1.5 0 0 1 .656-.655c.218-.112.426-.142.571-.154.125-.01.268-.01.387-.01H13V5a1 1 0 0 1 .617-.924ZM15 7.414V9a1 1 0 0 1-1 1H4v4h10a1 1 0 0 1 1 1v1.586L19.586 12 15 7.414Z" clip-rule="evenodd"/>
</svg>
