<svg xmlns="http://www.w3.org/2000/svg" width="24" height="24" viewBox="0 0 24 24">
  <path fill-rule="evenodd" d="M4.222 4.222a1 1 0 0 1 1.414 0L12 10.586l6.364-6.364a1 1 0 1 1 1.414 1.414L13.414 12l6.364 6.364a1 1 0 0 1-1.414 1.414L12 13.414l-6.364 6.364a1 1 0 0 1-1.414-1.414L10.586 12 4.222 5.636a1 1 0 0 1 0-1.414Z" clip-rule="evenodd" opacity=".5"/>
  <path fill-rule="evenodd" d="M12 1a1 1 0 0 1 1 1v9h9a1 1 0 1 1 0 2h-9v9a1 1 0 1 1-2 0v-9H2a1 1 0 1 1 0-2h9V2a1 1 0 0 1 1-1Z" clip-rule="evenodd"/>
</svg>
