<svg xmlns="http://www.w3.org/2000/svg" width="24" height="24" viewBox="0 0 24 24">
  <path fill-rule="evenodd" d="M14.803 4.48c-1.986.584-4.265 1.952-6.318 4.005-.295.296-.577.596-.844.9a1 1 0 0 1-1.502-1.32c.296-.337.606-.668.932-.994 2.243-2.243 4.803-3.814 7.168-4.51 2.323-.683 4.715-.577 6.267.975 1.062 1.062 1.447 2.535 1.366 4.077-.081 1.539-.625 3.227-1.523 4.887a1 1 0 0 1-1.759-.952c.799-1.476 1.223-2.875 1.285-4.04.06-1.163-.238-2.013-.783-2.558-.792-.792-2.262-1.066-4.289-.47Zm-9.76 6.665a1 1 0 0 1 .405 1.355c-.797 1.475-1.22 2.872-1.281 4.037-.06 1.161.238 2.01.783 2.555.791.792 2.261 1.066 4.289.47 1.986-.585 4.264-1.953 6.317-4.006.283-.282.553-.57.81-.86a1 1 0 0 1 1.498 1.325 21.27 21.27 0 0 1-.893.95c-2.243 2.242-4.803 3.814-7.168 4.51-2.323.683-4.716.577-6.267-.975-1.062-1.061-1.447-2.533-1.366-4.074.08-1.538.622-3.224 1.519-4.883a1 1 0 0 1 1.355-.404Z" clip-rule="evenodd" opacity=".5"/>
  <path fill-rule="evenodd" d="M9.239 4.48c-2.028-.596-3.498-.322-4.29.47-.79.791-1.065 2.261-.469 4.289.584 1.986 1.952 4.264 4.005 6.317s4.332 3.421 6.318 4.005c2.027.597 3.497.323 4.289-.469.791-.791 1.066-2.262.47-4.289-.585-1.986-1.953-4.265-4.006-6.318-2.052-2.053-4.331-3.42-6.317-4.005Zm.564-1.918c2.365.695 4.925 2.266 7.168 4.51 2.242 2.242 3.814 4.802 4.51 7.167.682 2.323.577 4.715-.975 6.267-1.552 1.552-3.944 1.658-6.267.974-2.365-.695-4.925-2.267-7.168-4.51-2.243-2.242-3.814-4.802-4.51-7.167-.683-2.323-.577-4.716.975-6.267 1.551-1.552 3.944-1.658 6.267-.974ZM10 12a2 2 0 1 1 4 0 2 2 0 0 1-4 0Z" clip-rule="evenodd"/>
</svg>
