<svg xmlns="http://www.w3.org/2000/svg" width="24" height="24" viewBox="0 0 24 24">
  <path fill-rule="evenodd" d="M9.239 4.48c-2.028-.596-3.498-.322-4.29.47-.79.791-1.065 2.261-.469 4.289.584 1.986 1.952 4.264 4.005 6.317a17.906 17.906 0 0 0 3.536 2.767 17.906 17.906 0 0 0 3.535-2.767c.283-.282.553-.57.81-.86a1 1 0 0 1 1.498 1.325 21.27 21.27 0 0 1-.893.95 20.518 20.518 0 0 1-2.832 2.37c.224.083.446.156.664.22 2.027.597 3.497.323 4.289-.469.791-.791 1.066-2.262.47-4.289a12.054 12.054 0 0 0-.933-2.238 1.019 1.019 0 0 1-.072-.133c-.723-1.32-1.73-2.677-3-3.947A17.904 17.904 0 0 0 12.02 5.72a17.904 17.904 0 0 0-3.536 2.766c-.295.296-.577.596-.844.9a1 1 0 0 1-1.502-1.32c.296-.337.606-.668.932-.994a20.513 20.513 0 0 1 2.832-2.37 10.334 10.334 0 0 0-.664-.22Zm2.782-1.036a13.61 13.61 0 0 0-2.218-.882c-2.323-.684-4.716-.578-6.267.974C1.984 5.087 1.878 7.48 2.56 9.803c.214.726.51 1.47.882 2.218-.75 1.505-1.2 3.02-1.273 4.411-.081 1.541.304 3.013 1.366 4.074 1.551 1.552 3.944 1.658 6.267.974a13.61 13.61 0 0 0 2.218-.882 13.61 13.61 0 0 0 2.218.882c2.323.684 4.715.578 6.267-.974 1.552-1.552 1.657-3.944.974-6.267a13.61 13.61 0 0 0-.882-2.218c.75-1.504 1.2-3.017 1.274-4.408.081-1.542-.304-3.015-1.366-4.077-1.552-1.552-3.944-1.658-6.267-.974a13.53 13.53 0 0 0-2.218.882ZM14.139 4.7a20.514 20.514 0 0 1 2.832 2.37 20.516 20.516 0 0 1 2.37 2.832c.319-.863.496-1.674.534-2.395.06-1.163-.238-2.013-.783-2.558-.792-.792-2.262-1.066-4.289-.47-.218.064-.44.138-.664.22ZM9.903 19.34a20.517 20.517 0 0 1-2.832-2.37 20.507 20.507 0 0 1-2.37-2.832c-.32.864-.496 1.676-.534 2.398-.06 1.161.238 2.01.783 2.555.791.792 2.261 1.066 4.289.47.218-.065.44-.138.664-.221ZM10 12a2 2 0 1 1 4 0 2 2 0 0 1-4 0Z" clip-rule="evenodd"/>
</svg>
