<svg xmlns="http://www.w3.org/2000/svg" width="24" height="24" viewBox="0 0 24 24">
  <path fill-rule="evenodd" d="M5.55 3.805c-.677-.005-1.086.175-1.328.417-.242.241-.422.65-.417 1.328.005.683.202 1.554.62 2.57.834 2.025 2.473 4.435 4.747 6.708 2.273 2.273 4.683 3.913 6.709 4.747 1.015.418 1.886.614 2.569.62.677.005 1.086-.175 1.328-.417s.422-.65.417-1.328c-.006-.683-.202-1.554-.62-2.57-.834-2.026-2.473-4.436-4.747-6.709-2.273-2.273-4.683-3.912-6.709-4.747-1.015-.418-1.886-.614-2.569-.619Zm3.33-1.23c2.325.957 4.95 2.769 7.363 5.182 2.413 2.413 4.224 5.037 5.182 7.362.477 1.16.762 2.293.77 3.316.007 1.027-.268 2.023-1.003 2.757-.734.735-1.73 1.01-2.757 1.002-1.022-.007-2.156-.292-3.316-.77-2.324-.957-4.948-2.768-7.362-5.182-2.413-2.413-4.225-5.037-5.182-7.361-.477-1.16-.762-2.294-.77-3.316-.007-1.027.268-2.023 1.003-2.758.734-.734 1.73-1.01 2.757-1.002 1.022.008 2.156.292 3.316.77Z" clip-rule="evenodd" opacity=".5"/>
  <path fill-rule="evenodd" d="M15.88 4.425c-2.025.834-4.435 2.473-6.708 4.747-2.274 2.273-3.913 4.683-4.747 6.709-.418 1.015-.615 1.886-.62 2.569-.005.677.175 1.086.417 1.328s.65.422 1.328.417c.683-.005 1.554-.202 2.57-.62 2.025-.834 4.435-2.473 6.708-4.747 2.274-2.273 3.913-4.683 4.747-6.709.418-1.015.615-1.886.62-2.569.005-.677-.175-1.086-.417-1.328s-.65-.422-1.328-.417c-.683.005-1.554.202-2.57.62Zm2.555-2.62c1.027-.007 2.023.268 2.757 1.003.735.734 1.01 1.73 1.003 2.757-.008 1.022-.293 2.156-.77 3.316-.957 2.324-2.77 4.948-5.182 7.362-2.413 2.413-5.038 4.225-7.362 5.182-1.16.477-2.294.762-3.316.77-1.027.007-2.023-.268-2.757-1.003-.735-.734-1.01-1.73-1.003-2.757.008-1.022.293-2.156.77-3.316.958-2.324 2.77-4.948 5.182-7.362 2.414-2.413 5.038-4.224 7.362-5.182 1.16-.477 2.294-.762 3.316-.77ZM10.5 12a1.5 1.5 0 1 1 3 0 1.5 1.5 0 0 1-3 0Z" clip-rule="evenodd"/>
</svg>
