<svg xmlns="http://www.w3.org/2000/svg" width="24" height="24" viewBox="0 0 24 24">
  <path fill-rule="evenodd" d="M5.55 3.805c-.678-.005-1.087.175-1.329.417s-.421.65-.416 1.328c.005.683.201 1.554.62 2.57.278.676.647 1.396 1.099 2.14a29.072 29.072 0 0 1 2.233-2.502 29.064 29.064 0 0 1 2.502-2.234 15.566 15.566 0 0 0-2.14-1.1c-1.015-.417-1.887-.614-2.57-.619Zm6.45.456c-1.068-.706-2.122-1.275-3.12-1.686-1.16-.477-2.293-.762-3.315-.77-1.027-.007-2.023.268-2.758 1.003-.734.734-1.01 1.73-1.002 2.757.008 1.022.292 2.156.77 3.316.41.998.98 2.051 1.685 3.12-.706 1.067-1.274 2.12-1.685 3.118-.478 1.16-.762 2.294-.77 3.316-.008 1.027.268 2.023 1.002 2.758.735.734 1.73 1.01 2.758 1.002 1.022-.008 2.155-.293 3.315-.77.998-.411 2.052-.98 3.12-1.686 1.068.706 2.12 1.275 3.119 1.686 1.16.477 2.293.762 3.315.77 1.027.007 2.023-.268 2.758-1.003.734-.734 1.01-1.73 1.002-2.757-.008-1.022-.292-2.156-.77-3.316-.41-.998-.98-2.05-1.685-3.119.706-1.068 1.274-2.121 1.685-3.12.478-1.16.762-2.292.77-3.315.008-1.027-.268-2.023-1.002-2.757-.735-.735-1.73-1.01-2.758-1.002-1.022.007-2.155.292-3.315.77-.998.41-2.051.979-3.12 1.685Zm0 2.447a26.651 26.651 0 0 0-2.83 2.464A26.65 26.65 0 0 0 6.707 12a26.651 26.651 0 0 0 2.464 2.828A26.663 26.663 0 0 0 12 17.293a26.642 26.642 0 0 0 2.828-2.464A26.645 26.645 0 0 0 17.292 12a26.644 26.644 0 0 0-2.464-2.828A26.64 26.64 0 0 0 12 6.708Zm6.475 3.551a29.054 29.054 0 0 0-2.233-2.502 29.069 29.069 0 0 0-2.502-2.233 15.71 15.71 0 0 1 2.14-1.1c1.015-.417 1.887-.613 2.57-.619.677-.005 1.086.175 1.328.417s.421.65.416 1.328c-.005.683-.201 1.554-.62 2.57a15.553 15.553 0 0 1-1.099 2.14Zm0 3.482a29.058 29.058 0 0 1-2.233 2.502 29.084 29.084 0 0 1-2.502 2.233c.743.452 1.463.82 2.14 1.1 1.015.417 1.887.613 2.57.619.677.005 1.086-.175 1.328-.417s.421-.65.416-1.328c-.005-.683-.201-1.554-.62-2.57a15.565 15.565 0 0 0-1.099-2.14Zm-8.216 4.735a29.067 29.067 0 0 1-2.502-2.233 29.055 29.055 0 0 1-2.233-2.502 15.57 15.57 0 0 0-1.1 2.14c-.418 1.015-.614 1.886-.62 2.569-.004.678.176 1.087.417 1.328.242.242.651.422 1.329.417.682-.005 1.554-.201 2.569-.62a15.571 15.571 0 0 0 2.14-1.1ZM10.5 12a1.5 1.5 0 1 1 3 0 1.5 1.5 0 0 1-3 0Z" clip-rule="evenodd"/>
</svg>
