<svg xmlns="http://www.w3.org/2000/svg" width="24" height="24" viewBox="0 0 24 24">
  <path d="M12 18.529a27.122 27.122 0 0 0 3.536-2.994A27.116 27.116 0 0 0 18.529 12a27.118 27.118 0 0 0-2.993-3.536A27.12 27.12 0 0 0 12 5.471a27.13 27.13 0 0 0-3.535 2.993A27.124 27.124 0 0 0 5.47 12a27.12 27.12 0 0 0 2.994 3.536A27.13 27.13 0 0 0 12 18.529Z" opacity=".2"/>
  <path fill-rule="evenodd" d="M5.55 3.805c-.677-.005-1.086.175-1.328.417-.242.241-.422.65-.417 1.328.005.683.202 1.554.62 2.57.278.676.647 1.396 1.1 2.14a29.068 29.068 0 0 1 2.232-2.503 29.06 29.06 0 0 1 2.503-2.233 15.567 15.567 0 0 0-2.14-1.1c-1.016-.418-1.887-.614-2.57-.619Zm6.45.456c-1.068-.706-2.121-1.275-3.12-1.686-1.16-.478-2.293-.762-3.315-.77-1.027-.007-2.023.268-2.757 1.002-.735.735-1.01 1.73-1.003 2.758.008 1.022.293 2.155.77 3.316.411.998.98 2.05 1.686 3.119-.706 1.068-1.275 2.121-1.686 3.12-.477 1.16-.762 2.293-.77 3.315-.007 1.027.268 2.023 1.003 2.757.734.735 1.73 1.01 2.757 1.003 1.022-.008 2.156-.293 3.316-.77.998-.411 2.051-.98 3.12-1.686 1.067.706 2.12 1.275 3.118 1.685 1.16.478 2.294.763 3.316.77 1.027.008 2.023-.267 2.757-1.002.735-.734 1.01-1.73 1.003-2.757-.008-1.023-.293-2.156-.77-3.316-.411-.998-.98-2.051-1.686-3.119.706-1.068 1.275-2.121 1.686-3.12.477-1.16.762-2.293.77-3.315.007-1.027-.268-2.023-1.003-2.757-.734-.735-1.73-1.01-2.757-1.003-1.022.008-2.156.293-3.316.77-.998.411-2.05.98-3.119 1.686Zm0 2.446a26.652 26.652 0 0 0-2.828 2.465A26.643 26.643 0 0 0 6.708 12a26.66 26.66 0 0 0 2.464 2.828A26.654 26.654 0 0 0 12 17.293a26.632 26.632 0 0 0 2.828-2.465A26.646 26.646 0 0 0 17.293 12a26.646 26.646 0 0 0-2.465-2.829A26.65 26.65 0 0 0 12 6.707Zm6.476 3.552a29.051 29.051 0 0 0-2.233-2.502 29.07 29.07 0 0 0-2.502-2.233 15.71 15.71 0 0 1 2.14-1.1c1.015-.417 1.886-.614 2.569-.619.677-.005 1.086.175 1.328.417s.422.65.417 1.328c-.005.683-.202 1.554-.62 2.57a15.555 15.555 0 0 1-1.1 2.14Zm0 3.482a29.057 29.057 0 0 1-2.233 2.502 29.068 29.068 0 0 1-2.502 2.233c.743.452 1.463.82 2.14 1.1 1.015.417 1.886.613 2.569.619.677.005 1.086-.175 1.328-.417s.422-.65.417-1.328c-.006-.683-.202-1.554-.62-2.57a15.565 15.565 0 0 0-1.1-2.14Zm-8.216 4.735a29.062 29.062 0 0 1-2.503-2.233 29.07 29.07 0 0 1-2.233-2.502 15.71 15.71 0 0 0-1.1 2.14c-.417 1.015-.614 1.886-.619 2.569-.005.677.175 1.086.417 1.328s.65.422 1.328.417c.683-.005 1.554-.202 2.57-.62a15.543 15.543 0 0 0 2.14-1.1ZM10.5 12a1.5 1.5 0 1 1 3 0 1.5 1.5 0 0 1-3 0Z" clip-rule="evenodd"/>
</svg>
