<svg xmlns="http://www.w3.org/2000/svg" width="24" height="24" viewBox="0 0 24 24">
  <path fill-rule="evenodd" d="M15.903 13.73a1 1 0 0 1 1.123.86l.965 7.279a1 1 0 0 1-1.506.989L12 20.166l-4.486 2.692a1 1 0 0 1-1.505-.99l.966-7.278a1 1 0 1 1 1.983.264l-.694 5.221 2.81-1.685.029-.018a1.9 1.9 0 0 1 .575-.254l.213.97-.213-.97a1.52 1.52 0 0 1 .644 0l-.213.97.213-.97a1.917 1.917 0 0 1 .604.272l-.514.857.514-.857 2.81 1.685-.693-5.222a1 1 0 0 1 .86-1.123Z" clip-rule="evenodd" opacity=".5"/>
  <path fill-rule="evenodd" d="M12 3a6 6 0 1 0 0 12 6 6 0 0 0 0-12ZM4 9a8 8 0 1 1 16 0A8 8 0 0 1 4 9Z" clip-rule="evenodd"/>
</svg>
