<svg xmlns="http://www.w3.org/2000/svg" width="24" height="24" viewBox="0 0 24 24">
  <path d="M17.003 23c-.18 0-.36-.05-.51-.14l-4.49-2.69-4.49 2.69a.99.99 0 0 1-1.06-.02c-.32-.21-.49-.59-.44-.97l.87-6.54c.07-.55.57-.93 1.12-.86a1 1 0 0 1 .86 1.12l-.6 4.48 2.81-1.69c.2-.12.36-.22.6-.27.21-.05.44-.05.65 0 .24.05.4.15.59.27l2.82 1.69-.6-4.49a.995.995 0 0 1 .86-1.12.995.995 0 0 1 1.12.86l.87 6.54c.05.38-.12.76-.44.97-.17.11-.36.16-.55.16l.01.01Z" opacity=".5"/>
  <path d="M14.482 18c-.33 0-.65-.06-.97-.19l-1.31-.54a.552.552 0 0 0-.4 0l-1.31.54c-.62.26-1.31.26-1.93 0-.61-.25-1.11-.75-1.37-1.37l-.54-1.31a.513.513 0 0 0-.28-.28l-1.31-.54a2.52 2.52 0 0 1-1.37-1.37c-.26-.62-.26-1.31 0-1.93l.54-1.31c.05-.13.05-.27 0-.4l-.54-1.31c-.12-.3-.19-.63-.19-.96 0-.33.07-.66.19-.97.13-.31.31-.58.55-.82.23-.23.51-.42.82-.55l1.31-.54c.13-.05.23-.16.28-.28l.54-1.31c.26-.62.74-1.11 1.37-1.37.62-.26 1.31-.26 1.93 0l1.31.54c.13.05.27.05.4 0l1.31-.54c.61-.25 1.32-.25 1.93 0 .62.26 1.11.74 1.37 1.37l.52 1.27s.01.03.02.04c.05.13.16.23.28.28l1.31.54c.62.26 1.11.74 1.37 1.37.25.61.25 1.32 0 1.93l-.54 1.31c-.05.13-.05.27 0 .4l.54 1.31c.13.31.19.63.19.97a2.518 2.518 0 0 1-.74 1.78c-.24.24-.51.42-.82.55l-1.31.54c-.13.05-.23.16-.29.28l-.54 1.31a2.52 2.52 0 0 1-2.34 1.56h.02ZM9.532 3c-.07 0-.14.01-.2.04a.5.5 0 0 0-.28.29l-.54 1.31c-.25.61-.75 1.11-1.37 1.37l-1.31.54a.99.99 0 0 0-.17.11c-.05.04-.09.11-.11.17-.03.07-.04.13-.04.2s.01.14.04.2l.54 1.31c.26.62.26 1.31 0 1.93l-.54 1.31c-.05.13-.05.27 0 .4s.16.23.28.28l1.31.54c.62.26 1.11.75 1.37 1.37l.54 1.31c.05.13.16.23.28.28.13.05.27.05.4 0l1.31-.54c.62-.26 1.3-.26 1.93 0l1.31.54c.13.05.27.05.4 0s.23-.15.28-.28l.54-1.31c.26-.62.74-1.11 1.37-1.37l1.31-.54a.62.62 0 0 0 .17-.11c.05-.05.09-.11.11-.17.03-.07.04-.13.04-.2s-.01-.14-.04-.2l-.54-1.31c-.26-.62-.26-1.31 0-1.93l.54-1.31c.05-.13.05-.27 0-.4a.53.53 0 0 0-.28-.29L16.873 6c-.61-.25-1.08-.72-1.34-1.31 0-.02-.02-.03-.02-.05l-.54-1.31a.483.483 0 0 0-.28-.28.552.552 0 0 0-.4 0l-1.31.54c-.62.26-1.31.26-1.93 0l-1.31-.54a.448.448 0 0 0-.2-.04L9.533 3Z"/>
</svg>
