<svg xmlns="http://www.w3.org/2000/svg" width="24" height="24" viewBox="0 0 24 24">
  <path d="M7.869 15.46 7 22l4.588-2.753c.15-.09.225-.135.305-.152a.497.497 0 0 1 .214 0c.08.017.155.062.305.152L17 22l-.868-6.543-.25.602a1.525 1.525 0 0 1-1.991.825l-1.308-.542a1.524 1.524 0 0 0-1.166 0l-1.31.542a1.524 1.524 0 0 1-1.99-.824l-.248-.6Z" opacity=".2"/>
  <path d="M14.473 18h.01-.02.01Z"/>
  <path fill-rule="evenodd" d="m6.846 15.6-.194-.47a.513.513 0 0 0-.28-.28l-1.31-.54a2.52 2.52 0 0 1-1.37-1.37c-.26-.62-.26-1.31 0-1.93l.54-1.31c.05-.13.05-.27 0-.4l-.54-1.31c-.12-.3-.19-.63-.19-.96 0-.33.07-.66.19-.97.13-.31.31-.58.55-.82.23-.23.51-.42.82-.55l1.31-.54c.13-.05.23-.16.28-.28l.54-1.31c.26-.62.74-1.11 1.37-1.37.62-.26 1.31-.26 1.93 0l1.31.54c.13.05.27.05.4 0l1.31-.54c.61-.25 1.32-.25 1.93 0 .62.26 1.11.74 1.37 1.37l.52 1.27s.01.03.02.04c.05.13.16.23.28.28l1.31.54c.62.26 1.11.74 1.37 1.37.25.61.25 1.32 0 1.93l-.54 1.31c-.05.13-.05.27 0 .4l.54 1.31c.13.31.19.63.19.97a2.518 2.518 0 0 1-.74 1.78c-.24.24-.51.42-.82.55l-1.31.54c-.13.05-.23.16-.29.28l-.192.468.833 6.262c.05.38-.12.76-.44.97-.17.11-.36.16-.55.16l.01.01c-.18 0-.36-.05-.51-.14l-4.49-2.69-4.49 2.69a.99.99 0 0 1-1.06-.02c-.32-.21-.49-.59-.44-.97l.833-6.27Zm1.719 2.211c.62.259 1.308.259 1.928-.001l1.31-.54c.13-.05.27-.05.4 0l1.31.54a2.524 2.524 0 0 0 1.918 0l.302 2.26-2.82-1.69c-.19-.12-.35-.22-.59-.27-.21-.05-.44-.05-.65 0-.231.048-.388.142-.577.256l-.024.014-2.81 1.69.303-2.259Zm6.713-2.896.224-.545c.26-.62.74-1.11 1.37-1.37l1.31-.54a.62.62 0 0 0 .17-.11c.05-.05.09-.11.11-.17.03-.07.04-.13.04-.2s-.01-.14-.04-.2l-.54-1.31c-.26-.62-.26-1.31 0-1.93l.54-1.31c.05-.13.05-.27 0-.4a.53.53 0 0 0-.28-.29L16.873 6c-.61-.25-1.08-.72-1.34-1.31a.043.043 0 0 0-.01-.025c-.005-.008-.01-.015-.01-.025l-.54-1.31a.483.483 0 0 0-.28-.28.552.552 0 0 0-.4 0l-1.31.54c-.62.26-1.31.26-1.93 0l-1.31-.54a.448.448 0 0 0-.2-.04L9.533 3c-.07 0-.14.01-.2.04a.5.5 0 0 0-.28.29l-.54 1.31c-.25.61-.75 1.11-1.37 1.37l-1.31.54a.99.99 0 0 0-.17.11c-.05.04-.09.11-.11.17-.03.07-.04.13-.04.2s.01.14.04.2l.54 1.31c.26.62.26 1.31 0 1.93l-.54 1.31c-.05.13-.05.27 0 .4s.16.23.28.28l1.31.54c.62.26 1.11.75 1.37 1.37l.54 1.31c.05.13.16.23.28.28.13.05.27.05.4 0l1.31-.54c.62-.26 1.3-.26 1.93 0l1.31.54c.13.05.27.05.4 0s.23-.15.28-.28l.187-.451a.987.987 0 0 1 .129-.314Z" clip-rule="evenodd"/>
</svg>
