<svg xmlns="http://www.w3.org/2000/svg" width="24" height="24" viewBox="0 0 24 24">
  <path d="M17.5 23c-.13 0-.25-.02-.37-.07l-4.63-1.85-4.63 1.85c-.31.12-.66.08-.93-.1-.27-.19-.44-.5-.44-.83v-6.91c0-.55.45-1 1-1s1 .45 1 1v5.43l3.33-1.33c.14-.06.27-.11.44-.13.16-.02.3-.02.45 0 .18.03.31.08.45.14l3.33 1.33V15.1c0-.55.45-1 1-1s1 .45 1 1v6.91c0 .33-.17.64-.44.83-.17.11-.36.17-.56.17V23Z" opacity=".5"/>
  <path fill-rule="evenodd" d="M12 3a6.5 6.5 0 1 0 0 13 6.5 6.5 0 0 0 0-13ZM3.5 9.5a8.5 8.5 0 1 1 17 0 8.5 8.5 0 0 1-17 0Z" clip-rule="evenodd"/>
</svg>
