<svg xmlns="http://www.w3.org/2000/svg" width="24" height="24" viewBox="0 0 24 24">
  <path fill-rule="evenodd" d="M7.161 1h9.678c.527 0 .982 0 1.356.03.395.033.789.104 1.167.297a3 3 0 0 1 1.311 1.311c.193.378.264.772.296 1.167.031.375.031.83.031 1.356v.787c0 .347 0 .652-.061.954a2.997 2.997 0 0 1-.267.761c-.14.274-.332.513-.548.783l-.044.055-3.603 4.504a6 6 0 1 1-8.954 0L3.92 8.5l-.044-.055c-.216-.27-.408-.509-.548-.783a3 3 0 0 1-.267-.761C3 6.6 3 6.295 3 5.948v-.787c0-.527 0-.981.03-1.356.033-.395.104-.789.297-1.167a3 3 0 0 1 1.311-1.311c.378-.193.772-.264 1.167-.296C6.18 1 6.635 1 7.161 1Zm1.923 10.754a5.96 5.96 0 0 1 1.091-.471L5.001 4.63 5 5.2v.678c0 .456.005.545.02.621a1 1 0 0 0 .09.254c.035.07.087.143.372.499l3.602 4.502ZM6.273 3.008 12 10.37l5.727-7.363A32.322 32.322 0 0 0 16.8 3H7.2c-.39 0-.688 0-.927.008ZM18.999 4.63l-5.174 6.652c.375.12.74.276 1.09.471l3.603-4.502c.285-.356.337-.43.372-.499a1 1 0 0 0 .09-.254c.015-.076.02-.165.02-.621V5.2c0-.217 0-.404-.002-.57Zm-4.17 15.197a4 4 0 1 0-5.657-5.656 4 4 0 0 0 5.656 5.656Z" clip-rule="evenodd"/>
</svg>
