<svg xmlns="http://www.w3.org/2000/svg" width="24" height="24" viewBox="0 0 24 24">
  <path d="M17.16 12.19a1 1 0 0 1-.87-1.49l3.8-6.81c.19-.34.38-.68.46-.87-.21-.02-.6-.02-.99-.02h-2.61c0 .04-.05.13-.14.28L13.14 9.5c-.36.61-1.36.61-1.72 0L7.76 3.29c-.09-.16-.14-.25-.2-.32-.04.02-.15.02-.32.02H5c-.38 0-.78 0-.99.02.08.19.27.53.46.87l3.81 6.81a1 1 0 0 1-.38 1.36c-.49.27-1.09.1-1.36-.39L2.75 4.87c-.52-.94-.81-1.46-.74-2.1.07-.56.36-1.06.82-1.39C3.35 1 3.95 1 5.02 1h2.24c.4 0 .66 0 .96.1.26.08.5.22.71.41.23.21.36.43.56.76l2.81 4.77 2.8-4.75c.21-.35.34-.57.57-.77.21-.19.45-.32.72-.41.3-.1.56-.1.96-.1h2.24c1.08 0 1.67 0 2.19.38.46.33.75.84.82 1.39.07.64-.21 1.16-.74 2.09l-3.81 6.81c-.18.33-.52.51-.87.51h-.02Z" opacity=".5"/>
  <path d="M12.29 23c-2 0-3.89-.78-5.3-2.2-2.92-2.92-2.92-7.68 0-10.61 2.92-2.92 7.68-2.92 10.61 0 1.42 1.42 2.2 3.3 2.2 5.3s-.78 3.89-2.2 5.3a7.444 7.444 0 0 1-5.3 2.2l-.01.01Zm0-13c-1.41 0-2.82.54-3.89 1.61-2.14 2.14-2.14 5.63 0 7.78A5.46 5.46 0 0 0 12.29 21c1.47 0 2.85-.57 3.89-1.61a5.46 5.46 0 0 0 1.61-3.89c0-1.47-.57-2.85-1.61-3.89A5.49 5.49 0 0 0 12.29 10Zm1.25 9h-2.5c-.55 0-1-.45-1-1s.45-1 1-1h.25v-2.13a1 1 0 0 1-1.33-.31c-.31-.46-.18-1.08.28-1.39l1.5-1c.31-.2.7-.22 1.03-.05.33.17.53.51.53.88v4h.25c.55 0 1 .45 1 1s-.45 1-1 1h-.01Z"/>
</svg>
