<svg xmlns="http://www.w3.org/2000/svg" width="24" height="24"  viewBox="0 0 24 24">
  <path fill-rule="evenodd" d="m17.334 3.831.016.036c.053.128.155.23.283.284l1.309.542a2.524 2.524 0 0 1 1.366 3.298l-.542 1.308a.522.522 0 0 0 0 .4v.003l.541 1.306a2.523 2.523 0 0 1-1.366 3.3l-1.308.542a.526.526 0 0 0-.285.283l-.19.459.833 6.277a1 1 0 0 1-1.506.989L12 20.166l-4.485 2.692a1 1 0 0 1-1.506-.99l.833-6.273-.191-.462a.526.526 0 0 0-.283-.284l-1.309-.542a2.525 2.525 0 0 1-1.367-3.297l.542-1.308a.525.525 0 0 0 0-.401l-.542-1.31a2.528 2.528 0 0 1 .548-2.753c.234-.234.513-.42.819-.547l1.308-.542a.526.526 0 0 0 .284-.283l.542-1.308a2.524 2.524 0 0 1 3.298-1.366l1.307.542a.525.525 0 0 0 .402 0l1.31-.541a2.524 2.524 0 0 1 3.298 1.366l.526 1.272Zm-8.769 13.98-.3 2.264 2.809-1.685.029-.018a1.9 1.9 0 0 1 .575-.254 1.52 1.52 0 0 1 .644 0c.251.055.47.19.575.254l.03.018 2.809 1.685-.3-2.265a2.525 2.525 0 0 1-1.928-.002l-1.307-.542a.525.525 0 0 0-.401 0l-1.31.542a2.525 2.525 0 0 1-1.925.002Z" clip-rule="evenodd"/>
</svg>
