<svg xmlns="http://www.w3.org/2000/svg" width="24" height="24" viewBox="0 0 24 24">
  <path d="M17 15.09A7.472 7.472 0 0 1 12 17a7.472 7.472 0 0 1-5-1.91V22l4.703-1.881c.11-.044.165-.066.221-.075a.5.5 0 0 1 .152 0c.056.01.111.031.221.075L17 22v-6.91Z" opacity=".2"/>
  <path fill-rule="evenodd" d="M12 3a6.5 6.5 0 1 0 0 13 6.5 6.5 0 0 0 0-13ZM3.5 9.5A8.5 8.5 0 1 1 18 15.52V22a1 1 0 0 1-1.371.928L12 21.078l-4.629 1.851A1 1 0 0 1 6 22v-6.48A8.474 8.474 0 0 1 3.5 9.5ZM8 17.002v3.521l3.332-1.333.021-.008c.079-.032.242-.099.42-.126.15-.023.304-.023.454 0 .178.027.341.093.42.126l.021.008L16 20.523v-3.521A8.462 8.462 0 0 1 12 18a8.462 8.462 0 0 1-4-.998Z" clip-rule="evenodd"/>
</svg>
