<svg xmlns="http://www.w3.org/2000/svg" width="24" height="24" viewBox="0 0 24 24">
  <path d="M16.99 23c-.18 0-.36-.05-.51-.14l-4.49-2.69-4.49 2.69a.99.99 0 0 1-1.06-.02c-.32-.21-.49-.59-.44-.97l.83-6.27-.19-.46a.566.566 0 0 0-.28-.29l-1.31-.54a2.52 2.52 0 0 1-1.37-1.37c-.26-.62-.26-1.31 0-1.93l.54-1.31c.05-.13.05-.27 0-.4l-.54-1.31c-.12-.31-.19-.63-.19-.96a2.503 2.503 0 0 1 .74-1.79c.24-.24.51-.42.82-.55l1.31-.54a.53.53 0 0 0 .29-.28l.54-1.31c.26-.62.74-1.11 1.37-1.37.62-.26 1.31-.26 1.93 0l1.31.54c.13.05.27.05.4 0l1.31-.54c.62-.26 1.31-.26 1.93 0 .62.26 1.11.74 1.37 1.37l.53 1.27s.01.03.02.04c.05.13.16.23.28.28l1.31.54c.61.25 1.11.75 1.37 1.37.26.62.26 1.31 0 1.93l-.54 1.31c-.05.13-.05.27 0 .4l.54 1.31c.13.31.19.63.19.97a2.518 2.518 0 0 1-.74 1.79c-.24.24-.51.42-.82.55l-1.31.54c-.13.05-.23.15-.28.28l-.19.46.83 6.28c.05.38-.12.76-.44.97-.17.11-.36.16-.55.16l-.02-.01Zm-5-4.92c.11 0 .22.01.32.04.24.05.41.15.6.27l2.81 1.69-.3-2.27c-.62.26-1.31.25-1.93 0l-1.31-.54a.552.552 0 0 0-.4 0l-1.31.54c-.62.26-1.3.26-1.92 0l-.3 2.26 2.81-1.69c.2-.12.37-.22.6-.27.1-.02.21-.04.32-.04l.01.01Zm0-2.86c.33 0 .65.06.96.19l1.31.54c.13.05.27.05.4 0s.23-.15.28-.28l.25-.59v-.02l.29-.7c.26-.62.74-1.11 1.37-1.37l1.31-.54c.06-.03.12-.07.17-.12a.5.5 0 0 0 .11-.17c.03-.07.04-.13.04-.2s-.01-.14-.04-.2l-.54-1.31c-.25-.61-.25-1.32 0-1.93l.54-1.31c.05-.13.05-.27 0-.4a.566.566 0 0 0-.28-.29l-1.31-.54a2.56 2.56 0 0 1-1.34-1.31c0-.02-.02-.03-.02-.05l-.54-1.31a.483.483 0 0 0-.28-.28.552.552 0 0 0-.4 0l-1.31.54c-.62.26-1.31.26-1.93 0l-1.31-.54a.552.552 0 0 0-.4 0c-.13.05-.23.16-.28.28L8.5 4.62c-.26.62-.75 1.11-1.37 1.37l-1.31.54a.62.62 0 0 0-.17.11c-.05.05-.09.11-.11.17-.02.06-.04.13-.04.2s.01.14.04.2l.54 1.31c.26.62.26 1.31 0 1.93l-.54 1.31c-.05.13-.05.27 0 .4s.15.23.28.28l1.31.54c.62.26 1.11.74 1.37 1.37l.54 1.31c.05.13.16.23.28.28.13.05.27.05.4 0l1.31-.54c.31-.13.64-.19.96-.19v.01Z"/>
</svg>
