<svg xmlns="http://www.w3.org/2000/svg" width="24" height="24" viewBox="0 0 24 24">
  <path d="M7.135 11.189 3.33 4.381c-.437-.783-.656-1.175-.62-1.495a1 1 0 0 1 .41-.697C3.382 2 3.83 2 4.727 2h2.235c.333 0 .5 0 .65.048a1 1 0 0 1 .357.205c.118.104.202.248.371.535L12 9a6.48 6.48 0 0 0-4.865 2.189Zm9.73 0 3.805-6.808c.437-.783.656-1.175.62-1.495a1 1 0 0 0-.41-.697C20.618 2 20.17 2 19.273 2h-2.235c-.333 0-.5 0-.65.048a1 1 0 0 0-.357.205c-.118.104-.202.248-.371.535L12 9a6.48 6.48 0 0 1 4.865 2.189Z" opacity=".2"/>
  <path d="M10.04 18c0 .55.45 1 1 1h2.51c.55 0 1-.45 1-1s-.45-1-1-1h-.25v-4c0-.37-.2-.71-.53-.88-.33-.17-.72-.15-1.03.05l-1.5 1c-.46.31-.59.93-.28 1.39a1 1 0 0 0 1.33.31V17h-.25c-.55 0-1 .45-1 1Z"/>
  <path fill-rule="evenodd" d="M18.376 11.097 21.86 4.87c.53-.93.81-1.45.74-2.09-.07-.55-.36-1.06-.82-1.39-.52-.38-1.11-.38-2.19-.38h-2.24c-.4 0-.66 0-.96.1-.27.09-.51.22-.72.41-.226.196-.355.412-.559.752l-.011.018-2.8 4.75-2.81-4.77-.018-.03c-.19-.314-.319-.526-.542-.73-.21-.19-.45-.33-.71-.41-.3-.1-.56-.1-.96-.1H5.02c-1.07 0-1.67 0-2.19.38-.46.33-.75.83-.82 1.39-.07.636.217 1.154.732 2.085l.008.015 3.473 6.221c-2.126 2.935-1.87 7.072.767 9.709 1.41 1.42 3.3 2.2 5.3 2.2l.01-.01c2 0 3.88-.78 5.3-2.2 1.42-1.41 2.2-3.3 2.2-5.3a7.429 7.429 0 0 0-1.424-4.393Zm-1.463-1.513L20.09 3.89c.19-.34.38-.68.46-.87-.21-.02-.6-.02-.99-.02h-2.61c0 .04-.05.13-.14.28l-2.89 4.897a7.473 7.473 0 0 1 2.993 1.407Zm-6.27-1.402L7.76 3.29l-.008-.014a1.96 1.96 0 0 0-.192-.306c-.04.02-.15.02-.32.02H5c-.38 0-.78 0-.99.02.08.19.27.53.46.87l3.195 5.711a7.444 7.444 0 0 1 2.978-1.41ZM8.4 11.61A5.49 5.49 0 0 1 12.29 10c1.41 0 2.82.54 3.89 1.61a5.46 5.46 0 0 1 1.61 3.89c0 1.47-.57 2.85-1.61 3.89A5.46 5.46 0 0 1 12.29 21a5.46 5.46 0 0 1-3.89-1.61c-2.14-2.15-2.14-5.64 0-7.78Z" clip-rule="evenodd"/>
</svg>
