<svg xmlns="http://www.w3.org/2000/svg" width="24" height="24" viewBox="0 0 24 24">
  <path d="M12.29 23c-2 0-3.89-.78-5.3-2.2a7.502 7.502 0 0 1-.76-9.71L2.75 4.87c-.52-.94-.81-1.46-.74-2.1.07-.56.36-1.06.82-1.39C3.35 1 3.95 1 5.02 1h2.23c.4 0 .66 0 .95.1.27.09.51.22.72.41.23.21.37.43.57.77l2.8 4.75 2.8-4.75c.2-.34.33-.57.57-.77.21-.19.45-.32.72-.41.3-.1.56-.1.95-.1h2.24c1.08 0 1.67 0 2.19.38.46.33.75.84.82 1.39.07.64-.21 1.16-.74 2.1l-3.48 6.22c2.13 2.93 1.88 7.07-.76 9.71a7.444 7.444 0 0 1-5.3 2.2h-.01ZM8.16 11.87a5.506 5.506 0 0 0 .24 7.52A5.46 5.46 0 0 0 12.29 21c1.47 0 2.85-.57 3.89-1.61a5.506 5.506 0 0 0 .24-7.52l-.03-.03c-.07-.08-.14-.15-.21-.23-2.15-2.15-5.63-2.14-7.78 0-.07.07-.14.15-.21.23 0 .01-.02.02-.03.03ZM4.04 3.02c.08.19.27.54.46.87l3.18 5.69c.89-.7 1.91-1.17 2.97-1.4L7.77 3.29c-.09-.15-.14-.25-.2-.32-.04.02-.15.02-.32.02H5.02c-.38 0-.78 0-.99.02l.01.01Zm9.9 5.16c1.06.24 2.08.7 2.97 1.4l3.18-5.69c.19-.34.38-.68.46-.87-.21-.02-.6-.02-.99-.02h-2.61c0 .04-.05.14-.14.28l-2.88 4.89.01.01ZM13.55 19h-2.5c-.55 0-1-.45-1-1s.45-1 1-1h.25v-2.13a1 1 0 0 1-1.33-.31c-.31-.46-.18-1.08.28-1.39l1.5-1c.31-.21.7-.22 1.03-.05.33.17.53.51.53.88v4h.25c.55 0 1 .45 1 1s-.45 1-1 1h-.01Z"/>
</svg>
