<svg xmlns="http://www.w3.org/2000/svg" width="24" height="24" viewBox="0 0 24 24">
  <path d="M15.12 14.1c-.22 0-.44-.07-.62-.22-.43-.34-.5-.97-.16-1.41l4.17-5.22c.2-.25.33-.41.37-.5.04-.08.07-.16.09-.25.02-.1.02-.3.02-.62V4.63l-6.21 7.98c-.38.49-1.2.49-1.58 0L5 4.63v1.25c0 .33 0 .52.02.62.02.09.05.18.09.25.05.09.17.24.37.5l4.17 5.22c.34.43.27 1.06-.16 1.41-.43.35-1.06.27-1.41-.16L3.92 8.5c-.28-.35-.45-.56-.59-.84-.12-.24-.21-.5-.27-.76C3 6.6 3 6.33 3 5.88V5.2c0-1.24 0-1.92.33-2.56.29-.57.75-1.02 1.31-1.31C5.28 1 5.96 1 7.2 1h9.6c1.24 0 1.92 0 2.56.33.57.29 1.02.74 1.31 1.31.33.64.33 1.32.33 2.56v.68c0 .45 0 .73-.06 1.02-.05.26-.14.52-.27.76-.14.27-.31.49-.59.84l-4.17 5.22c-.2.25-.49.38-.78.38h-.01ZM6.27 3.01 12 10.37l5.73-7.36H6.27Z" opacity=".5"/>
  <path d="M12 23c-1.6 0-3.11-.62-4.24-1.76A5.97 5.97 0 0 1 6 17c0-1.6.62-3.11 1.76-4.24A5.97 5.97 0 0 1 12 11c1.6 0 3.11.62 4.24 1.76A5.97 5.97 0 0 1 18 17c0 1.6-.62 3.11-1.76 4.24A5.97 5.97 0 0 1 12 23Zm0-10c-1.07 0-2.07.42-2.83 1.17C8.41 14.93 8 15.93 8 17s.42 2.07 1.17 2.83C9.93 20.59 10.93 21 12 21s2.07-.42 2.83-1.17C15.59 19.07 16 18.07 16 17s-.42-2.07-1.17-2.83A3.962 3.962 0 0 0 12 13Z"/>
</svg>
