<svg xmlns="http://www.w3.org/2000/svg" width="24" height="24" viewBox="0 0 24 24">
  <path d="M16.034 14.721A6.968 6.968 0 0 1 12 16a6.968 6.968 0 0 1-4.033-1.278L7 22l4.588-2.753c.15-.09.225-.135.305-.152a.5.5 0 0 1 .214 0c.08.017.155.062.305.152L17 22l-.966-7.279Z" opacity=".2"/>
  <path fill-rule="evenodd" d="M12 3a6 6 0 1 0 0 12 6 6 0 0 0 0-12Zm5.102 12.163a8 8 0 1 0-10.202 0l-.891 6.705a1 1 0 0 0 1.505.99L12 20.166l4.485 2.692a1 1 0 0 0 1.506-.99l-.89-6.705Zm-1.865 1.155A7.973 7.973 0 0 1 12 17a7.972 7.972 0 0 1-3.237-.682l-.499 3.757 2.81-1.685.029-.018a1.9 1.9 0 0 1 .575-.254 1.52 1.52 0 0 1 .644 0 1.917 1.917 0 0 1 .604.272l-.514.857m2.825-2.93.499 3.758-2.81-1.685-.514.857" clip-rule="evenodd"/>
</svg>
