<svg xmlns="http://www.w3.org/2000/svg" width="24" height="24" viewBox="0 0 24 24">
  <path d="M3 7.714c0-1.6 0-2.399.297-3.016a3 3 0 0 1 1.401-1.4C5.315 3 6.115 3 7.714 3h8.572c1.6 0 2.399 0 3.016.297a3 3 0 0 1 1.4 1.401C21 5.315 21 6.115 21 7.714c0 2.133 0 3.199-.396 4.021a4 4 0 0 1-1.869 1.869c-.822.396-1.888.396-4.02.396h-5.43c-2.132 0-3.198 0-4.02-.396a4 4 0 0 1-1.869-1.868C3 10.912 3 9.845 3 7.713Z" opacity=".2"/>
  <path fill-rule="evenodd" d="M7.675 2h8.65c.766 0 1.399 0 1.915.04.535.042 1.029.131 1.495.356a4 4 0 0 1 1.869 1.868c.225.467.314.96.356 1.496.04.516.04 1.149.04 1.915v.08c0 1.032 0 1.864-.052 2.539-.055.694-.169 1.306-.443 1.875A4.996 4.996 0 0 1 21 13v4.839c0 .527 0 .982-.03 1.356-.033.395-.104.789-.297 1.167a3 3 0 0 1-1.311 1.311c-.378.193-.772.264-1.167.296-.375.031-.83.031-1.356.031H7.16c-.527 0-.981 0-1.356-.03-.395-.033-.789-.104-1.167-.297a3 3 0 0 1-1.311-1.311c-.193-.378-.264-.772-.296-1.167A17.9 17.9 0 0 1 3 17.838V13a4.996 4.996 0 0 1-.505-.83c-.274-.57-.388-1.182-.442-1.876C2 9.619 2 8.787 2 7.755v-.08c0-.766 0-1.399.04-1.915.042-.535.131-1.029.356-1.496a4 4 0 0 1 1.868-1.868c.467-.225.96-.314 1.496-.356C6.276 2 6.91 2 7.675 2ZM5 14.581V17.8c0 .577 0 .949.024 1.232.022.272.06.372.085.422a1 1 0 0 0 .437.437c.05.025.15.063.422.085C6.25 20 6.623 20 7.2 20h9.6c.577 0 .949 0 1.232-.024.272-.022.372-.06.422-.085a1 1 0 0 0 .437-.437c.025-.05.063-.15.085-.422C19 18.75 19 18.377 19 17.8v-3.219c-.521.22-1.08.318-1.706.367-.675.052-1.507.052-2.539.052h-5.51c-1.032 0-1.864 0-2.539-.053-.626-.048-1.185-.146-1.706-.366Zm.916-10.547c-.419.033-.634.092-.784.164a2 2 0 0 0-.934.934c-.072.15-.131.365-.164.784C4.001 6.345 4 6.899 4 7.714c0 1.082 0 1.836.046 2.425.045.577.13.91.251 1.163a3 3 0 0 0 1.401 1.4c.253.123.586.207 1.164.252.588.045 1.342.046 2.424.046h5.428c1.082 0 1.836 0 2.425-.046.577-.045.91-.13 1.163-.251a3 3 0 0 0 1.4-1.401c.123-.253.207-.586.251-1.163C20 9.55 20 8.796 20 7.714c0-.815 0-1.37-.034-1.798-.033-.419-.092-.634-.164-.784a2 2 0 0 0-.934-.934c-.15-.072-.365-.131-.784-.164-.429-.033-.983-.034-1.798-.034H7.714c-.815 0-1.37 0-1.798.034ZM8 10a1 1 0 0 1 1-1h6a1 1 0 1 1 0 2H9a1 1 0 0 1-1-1Z" clip-rule="evenodd"/>
</svg>
