<svg xmlns="http://www.w3.org/2000/svg" width="24" height="24" fill="currentColor" viewBox="0 0 24 24">
  <path fill-rule="evenodd" d="M11.544 6.072C10.087 6.524 8.551 7 7 7a14.44 14.44 0 0 1-2.72-.258c-.529-.102-.88-.169-1.134-.202a3.232 3.232 0 0 0-.125-.014 2.434 2.434 0 0 0-.006.078C3 6.819 3 7.12 3 7.589v10.828a.843.843 0 0 0 .007.01l.007.011C3.535 18.658 4.713 19 7 19c1.837 0 3.462-.457 5.08-.956l.376-.116C13.913 17.476 15.449 17 17 17c1.027 0 1.946.11 2.72.258.529.102.88.169 1.134.202.05.007.09.011.125.014l.006-.078c.015-.215.015-.516.015-.985V5.583a.498.498 0 0 0-.014-.021C20.465 5.34 19.287 5 17 5c-1.837 0-3.462.458-5.08.956l-.376.116Zm9.553 11.408h.004-.004ZM2.903 6.52a.04.04 0 0 1-.004 0h.004Zm8.428-2.476C12.96 3.542 14.837 3 17 3c2.546 0 4.016.389 4.836.75l.008.004c.043.019.142.062.251.134.111.073.204.155.286.233a2.1 2.1 0 0 1 .287.36c.056.086.154.244.213.407.12.33.12.564.119.761v10.796c0 .425 0 .794-.02 1.084-.017.27-.058.649-.253.983a1.973 1.973 0 0 1-.447.541 1.976 1.976 0 0 1-.616.337c-.379.134-.793.09-1.073.053-.318-.042-.728-.121-1.216-.215l-.032-.006A12.442 12.442 0 0 0 17 19c-1.235 0-2.486.386-4.026.862l-.305.094C11.04 20.458 9.163 21 7 21c-2.546 0-4.016-.389-4.836-.75l-.008-.004a1.741 1.741 0 0 1-.251-.134 2.016 2.016 0 0 1-.286-.233 2.101 2.101 0 0 1-.287-.36 2.102 2.102 0 0 1-.213-.407c-.12-.33-.12-.564-.119-.761V7.555c0-.425 0-.794.02-1.084.017-.27.058-.649.253-.983.106-.182.244-.374.447-.541.203-.168.418-.268.616-.337.379-.134.793-.09 1.072-.053.319.042.729.121 1.217.215l.032.006A12.44 12.44 0 0 0 7 5c1.235 0 2.486-.386 4.026-.862l.305-.094ZM18 8a1 1 0 0 1 1 1v4a1 1 0 1 1-2 0V9a1 1 0 0 1 1-1Zm-6 2.5a1.5 1.5 0 1 0 0 3 1.5 1.5 0 0 0 0-3ZM8.5 12a3.5 3.5 0 1 1 7 0 3.5 3.5 0 0 1-7 0ZM6 10a1 1 0 0 1 1 1v4a1 1 0 1 1-2 0v-4a1 1 0 0 1 1-1Z" clip-rule="evenodd"/>
</svg>
