<svg xmlns="http://www.w3.org/2000/svg" width="24" height="24" viewBox="0 0 24 24">
  <path d="M19.4 21c.56 0 .84 0 1.054-.109a1 1 0 0 0 .437-.437C21 20.24 21 19.96 21 19.4v-.8c0-.56 0-.84-.109-1.054a1 1 0 0 0-.437-.437C20.24 17 19.96 17 19.4 17H4.6c-.56 0-.84 0-1.054.109a1 1 0 0 0-.437.437C3 17.76 3 18.04 3 18.6v.8c0 .56 0 .84.109 1.054a1 1 0 0 0 .437.437C3.76 21 4.04 21 4.6 21h14.8Zm0-12c.56 0 .84 0 1.054-.109a1 1 0 0 0 .437-.437C21 8.24 21 7.96 21 7.4V6.283c0-.457 0-.686-.081-.875a1 1 0 0 0-.335-.417c-.166-.12-.39-.17-.837-.27l-7.4-1.644a2.083 2.083 0 0 0-.26-.049 1 1 0 0 0-.174 0c-.066.006-.13.02-.26.05l-7.4 1.644c-.447.099-.67.149-.838.269a1 1 0 0 0-.334.417C3 5.597 3 5.826 3 6.283V7.4c0 .56 0 .84.109 1.054a1 1 0 0 0 .437.437C3.76 9 4.04 9 4.6 9h14.8Z" opacity=".2"/>
  <path fill-rule="evenodd" d="M11.825 2.032a2 2 0 0 1 .35 0c.133.012.261.04.362.063l.027.006 7.427 1.65c.2.045.4.09.568.14.188.056.402.138.61.288a2 2 0 0 1 .669.834c.101.236.135.463.15.658.012.176.012.38.012.585v1.176c0 .252 0 .498-.017.706a2.022 2.022 0 0 1-.201.77 2 2 0 0 1-.874.874 2.022 2.022 0 0 1-.77.201c-.044.004-.09.007-.138.009v6.016c.048.003.094.005.138.009.229.019.499.063.77.201a2 2 0 0 1 .874.874c.138.271.182.541.201.77.017.208.017.454.017.706v.864c0 .252 0 .498-.017.706a2.022 2.022 0 0 1-.201.77 2 2 0 0 1-.874.874 2.022 2.022 0 0 1-.77.201 9.148 9.148 0 0 1-.706.017H4.568c-.252 0-.498 0-.706-.017a2.022 2.022 0 0 1-.77-.201 2 2 0 0 1-.874-.874 2.022 2.022 0 0 1-.201-.77C2 19.93 2 19.684 2 19.432v-.864c0-.252 0-.498.017-.706.019-.229.063-.498.201-.77a2 2 0 0 1 .874-.874 2.02 2.02 0 0 1 .77-.201c.044-.004.09-.006.138-.009V9.992a4.033 4.033 0 0 1-.138-.009 2.021 2.021 0 0 1-.77-.201 2 2 0 0 1-.874-.874 2.022 2.022 0 0 1-.201-.77C2 7.93 2 7.684 2 7.432V6.256c0-.205 0-.41.013-.585.014-.195.048-.422.15-.658a2 2 0 0 1 .668-.834 1.99 1.99 0 0 1 .61-.288c.169-.05.368-.095.568-.14l.027-.006 7.4-1.644.027-.006a2.75 2.75 0 0 1 .362-.063ZM6 10v6h2.5v-6H6ZM4.6 8a8.192 8.192 0 0 1-.589-.011v-.014A8.186 8.186 0 0 1 4 7.4V6.283a7.368 7.368 0 0 1 .008-.474l.009-.003c.09-.027.215-.055.453-.108l7.4-1.645c.07-.015.103-.023.128-.027h.004c.025.004.059.012.128.027l7.4 1.645c.238.053.364.081.453.108l.009.003v.009a7.3 7.3 0 0 1 .008.466V7.4c0 .297 0 .459-.01.575l-.001.014A8.194 8.194 0 0 1 19.4 8H4.6Zm5.9 2v6h3v-6h-3Zm5 0v6H18v-6h-2.5ZM4.6 18a8.205 8.205 0 0 0-.589.012v.013C4 18.14 4 18.304 4 18.6v.8a8.187 8.187 0 0 0 .011.589h.014c.116.01.278.011.575.011h14.8c.297 0 .459 0 .575-.01l.014-.001v-.014c.01-.116.011-.279.011-.575v-.8a8.202 8.202 0 0 0-.012-.588l-.013-.002A8.207 8.207 0 0 0 19.4 18H4.6Z" clip-rule="evenodd"/>
</svg>
