<svg xmlns="http://www.w3.org/2000/svg" width="24" height="24" viewBox="0 0 24 24">
  <path fill-rule="evenodd" d="M5 8a1 1 0 0 1 1 1v8a1 1 0 1 1-2 0V9a1 1 0 0 1 1-1Zm4.5 0a1 1 0 0 1 1 1v8a1 1 0 1 1-2 0V9a1 1 0 0 1 1-1Zm5 0a1 1 0 0 1 1 1v8a1 1 0 1 1-2 0V9a1 1 0 0 1 1-1ZM19 8a1 1 0 0 1 1 1v8a1 1 0 1 1-2 0V9a1 1 0 0 1 1-1Z" clip-rule="evenodd" opacity=".5"/>
  <path fill-rule="evenodd" d="M11.825 2.032a2 2 0 0 1 .35 0c.133.012.261.04.362.063l.027.006 7.427 1.65c.2.045.4.09.568.14.188.056.402.138.61.288a2 2 0 0 1 .669.834c.101.236.135.463.15.658.012.176.012.38.012.585v1.176c0 .252 0 .498-.017.706a2.022 2.022 0 0 1-.201.77 2 2 0 0 1-.874.874 2.022 2.022 0 0 1-.77.201 9.132 9.132 0 0 1-.706.017H4.568c-.252 0-.498 0-.706-.017a2.021 2.021 0 0 1-.77-.201 2 2 0 0 1-.874-.874 2.022 2.022 0 0 1-.201-.77C2 7.93 2 7.684 2 7.432V6.256c0-.205 0-.41.013-.585.014-.195.048-.422.15-.658a2 2 0 0 1 .668-.834 1.99 1.99 0 0 1 .61-.288c.169-.05.368-.095.568-.14l.027-.006 7.4-1.644.027-.006a2.75 2.75 0 0 1 .362-.063Zm.173 1.994a5.948 5.948 0 0 0-.128.027l-7.4 1.645a7.368 7.368 0 0 0-.462.11v.01A7.368 7.368 0 0 0 4 6.283V7.4a8.186 8.186 0 0 0 .011.589h.014C4.14 8 4.303 8 4.6 8h14.8a8.194 8.194 0 0 0 .589-.011v-.014C20 7.86 20 7.697 20 7.4V6.283a7.3 7.3 0 0 0-.008-.474l-.009-.003a7.357 7.357 0 0 0-.453-.108l-7.4-1.645a5.948 5.948 0 0 0-.128-.027h-.004ZM4.568 16h14.864c.252 0 .498 0 .706.017.229.019.499.063.77.201a2 2 0 0 1 .874.874c.138.271.182.541.201.77.017.208.017.454.017.706v.864c0 .252 0 .498-.017.706a2.022 2.022 0 0 1-.201.77 2 2 0 0 1-.874.874 2.022 2.022 0 0 1-.77.201 9.148 9.148 0 0 1-.706.017H4.568c-.252 0-.498 0-.706-.017a2.022 2.022 0 0 1-.77-.201 2 2 0 0 1-.874-.874 2.022 2.022 0 0 1-.201-.77C2 19.93 2 19.684 2 19.432v-.864c0-.252 0-.498.017-.706.019-.229.063-.498.201-.77a2 2 0 0 1 .874-.874 2.02 2.02 0 0 1 .77-.201C4.07 16 4.316 16 4.568 16Zm-.557 2.012v.013C4 18.14 4 18.304 4 18.6v.8a8.187 8.187 0 0 0 .011.589h.014c.116.01.278.011.575.011h14.8c.297 0 .459 0 .575-.01l.014-.001v-.014c.01-.116.011-.279.011-.575v-.8a8.202 8.202 0 0 0-.012-.588l-.013-.002A8.207 8.207 0 0 0 19.4 18H4.6a8.205 8.205 0 0 0-.589.012Z" clip-rule="evenodd"/>
</svg>
