<svg xmlns="http://www.w3.org/2000/svg" width="24" height="24" viewBox="0 0 24 24">
  <path fill-rule="evenodd" d="M12 9a1 1 0 0 1 1 1v10a1 1 0 1 1-2 0V10a1 1 0 0 1 1-1Zm8 3a1 1 0 0 1 1 1v7a1 1 0 1 1-2 0v-7a1 1 0 0 1 1-1ZM4 15a1 1 0 0 1 1 1v4a1 1 0 1 1-2 0v-4a1 1 0 0 1 1-1Z" clip-rule="evenodd" opacity=".5"/>
  <path fill-rule="evenodd" d="M12.354 4.146a.5.5 0 1 0-.708.708.5.5 0 0 0 .708-.708Zm-2.122-1.414a2.5 2.5 0 0 1 4.264 1.636l3.71 1.391.026-.027a2.5 2.5 0 1 1-.729 1.9L13.794 6.24a2.501 2.501 0 0 1-3.028.434l-4.333 3.25a2.5 2.5 0 1 1-1.2-1.6l4.334-3.25a2.498 2.498 0 0 1 .665-2.343Zm10.122 4.414a.5.5 0 1 0-.708.708.5.5 0 0 0 .708-.708Zm-16 3a.5.5 0 1 0-.708.708.5.5 0 0 0 .708-.708Z" clip-rule="evenodd"/>
</svg>
