<svg xmlns="http://www.w3.org/2000/svg" width="24" height="24" viewBox="0 0 24 24">
  <path d="M21 16.2V7.8c0-1.68 0-2.52-.327-3.162a3 3 0 0 0-1.311-1.311C18.72 3 17.88 3 16.2 3H12l-9 9v4.2c0 1.68 0 2.52.327 3.162a3 3 0 0 0 1.311 1.311C5.28 21 6.12 21 7.8 21h8.4c1.68 0 2.52 0 3.162-.327a3 3 0 0 0 1.311-1.311C21 18.72 21 17.88 21 16.2Z" opacity=".2"/>
  <path fill-rule="evenodd" d="M5 1a1 1 0 0 1 1 1v2h2a1 1 0 0 1 0 2H6v2a1 1 0 0 1-2 0V6H2a1 1 0 0 1 0-2h2V2a1 1 0 0 1 1-1Zm13.089 3.038C17.639 4 17.057 4 16.2 4H12a1 1 0 1 1 0-2h4.241c.805 0 1.47 0 2.01.044.563.046 1.08.145 1.565.392a4 4 0 0 1 1.748 1.748c.247.485.346 1.002.392 1.564C22 6.29 22 6.954 22 7.758v8.483c0 .805 0 1.47-.044 2.01-.046.563-.145 1.08-.392 1.565a4 4 0 0 1-1.748 1.748c-.485.247-1.002.346-1.564.392-.541.044-1.206.044-2.01.044H7.758c-.805 0-1.47 0-2.01-.044-.563-.046-1.08-.145-1.565-.392a4 4 0 0 1-1.748-1.748c-.247-.485-.346-1.002-.392-1.564C2 17.71 2 17.046 2 16.242V12a1 1 0 1 1 2 0v4.2c0 .857 0 1.439.038 1.889.035.438.1.663.18.819a2 2 0 0 0 .874.874c.156.08.38.145.819.18C6.361 20 6.943 20 7.8 20h8.4c.857 0 1.439 0 1.889-.038.438-.035.663-.1.819-.18a2 2 0 0 0 .874-.874c.08-.156.145-.38.18-.819.037-.45.038-1.032.038-1.889V7.8c0-.857 0-1.439-.038-1.889-.035-.438-.1-.663-.18-.819a2 2 0 0 0-.874-.874c-.156-.08-.38-.145-.819-.18ZM12 6a1 1 0 0 1 1 1v10a1 1 0 1 1-2 0V7a1 1 0 0 1 1-1Zm4 4a1 1 0 0 1 1 1v6a1 1 0 1 1-2 0v-6a1 1 0 0 1 1-1Zm-8 2a1 1 0 0 1 1 1v4a1 1 0 1 1-2 0v-4a1 1 0 0 1 1-1Z" clip-rule="evenodd"/>
</svg>
