<svg xmlns="http://www.w3.org/2000/svg" width="24" height="24" viewBox="0 0 24 24">
  <path d="M19.4 22H4.6c-.65 0-1.08 0-1.51-.22-.38-.19-.68-.49-.87-.87C2 20.48 2 20.05 2 19.4v-5.8c0-.65 0-1.08.22-1.51.19-.38.49-.68.87-.87.43-.22.86-.22 1.51-.22H8V8.6c0-.65 0-1.08.22-1.51.19-.38.49-.68.87-.87C9.52 6 9.95 6 10.6 6H14V4.59c0-.65 0-1.08.22-1.51.19-.38.49-.68.87-.87.43-.22.86-.22 1.51-.22h2.8c.65 0 1.08 0 1.51.22.38.19.68.49.87.87.22.43.22.86.22 1.51v14.8c0 .65 0 1.08-.22 1.51-.2.38-.5.68-.88.88-.43.22-.86.22-1.51.22h.01ZM4.6 13c-.28 0-.57 0-.65.02.05.01.05.3.05.58v5.8c0 .28 0 .57.02.65.01-.05.3-.05.58-.05H8v-7H4.6ZM16 20h3.4c.28 0 .57 0 .65-.02-.05-.01-.05-.3-.05-.58V4.6c0-.28 0-.57-.02-.65-.01.05-.3.05-.58.05h-2.8c-.28 0-.57 0-.65.02.05.01.05.3.05.58V20Zm-6 0h4V8.6c0-.28 0-.57-.02-.65-.01.05-.3.05-.58.05h-2.8c-.28 0-.57 0-.65.02.05.01.05.3.05.58V20Z"/>
</svg>
