<svg xmlns="http://www.w3.org/2000/svg" width="24" height="24" viewBox="0 0 24 24">
  <path d="M19.4 22H15c-.55 0-1-.45-1-1s.45-1 1-1h4.4c.28 0 .57 0 .65-.02-.05-.02-.05-.3-.05-.58v-6.8c0-.28 0-.57-.02-.65-.01.05-.3.05-.58.05H15c-.55 0-1-.45-1-1s.45-1 1-1h4.4c.65 0 1.08 0 1.51.22.38.19.68.5.88.88.22.43.22.86.22 1.51v6.8c0 .65 0 1.08-.22 1.51-.19.38-.5.68-.88.87-.43.22-.86.22-1.51.22V22ZM9 22H4.6c-.65 0-1.08 0-1.51-.22-.38-.19-.68-.5-.87-.88C2 20.47 2 20.04 2 19.39V4.6c0-.65 0-1.08.22-1.51.19-.38.5-.68.88-.88.43-.22.86-.22 1.51-.22h2.8c.65 0 1.08 0 1.51.22.38.19.68.5.88.88.22.43.22.86.22 1.51V8c0 .55-.45 1-1 1s-1-.45-1-1V4.6c0-.28 0-.57-.02-.65-.01.05-.3.05-.58.05h-2.8c-.28 0-.57 0-.65.02.05.01.05.3.05.58v14.8c0 .28 0 .57.02.65.01-.05.3-.05.58-.05h4.4c.55 0 1 .45 1 1s-.45 1-1 1H9Z" opacity=".5"/>
  <path d="M15 22H9c-.55 0-1-.45-1-1V8.6c0-.65 0-1.08.22-1.51.19-.38.5-.68.88-.88.43-.22.86-.22 1.51-.22h2.8c.65 0 1.08 0 1.51.22.38.19.68.5.88.88.22.43.22.86.22 1.51V21c0 .55-.45 1-1 1H15Zm-5-2h4V8.6c0-.28 0-.57-.02-.65-.01.05-.3.05-.58.05h-2.8c-.28 0-.57 0-.65.02.05.01.05.3.05.58V20Z"/>
</svg>
