<svg xmlns="http://www.w3.org/2000/svg" width="24" height="24" viewBox="0 0 24 24">
  <path fill-rule="evenodd" d="M13.975 4.01A8.194 8.194 0 0 0 13.4 4h-2.8a8.194 8.194 0 0 0-.588.011l-.002.014C10 4.14 10 4.303 10 4.6V20h4V4.6c0-.297 0-.459-.01-.575l-.001-.014h-.014ZM16 10V4.568c0-.252 0-.498-.017-.706a2.022 2.022 0 0 0-.201-.77 2 2 0 0 0-.874-.874 2.022 2.022 0 0 0-.77-.201C13.93 2 13.684 2 13.432 2h-2.864c-.252 0-.498 0-.706.017a2.021 2.021 0 0 0-.77.201 2 2 0 0 0-.874.874 2.022 2.022 0 0 0-.201.77C8 4.07 8 4.316 8 4.568V6H4.568c-.252 0-.498 0-.706.017a2.022 2.022 0 0 0-.77.201 2 2 0 0 0-.874.874 2.022 2.022 0 0 0-.201.77C2 8.07 2 8.316 2 8.568v10.864c0 .252 0 .498.017.706.019.229.063.499.201.77a2 2 0 0 0 .874.874c.271.138.541.182.77.201.208.017.454.017.706.017h14.864c.252 0 .498 0 .706-.017a2.03 2.03 0 0 0 .77-.201 2 2 0 0 0 .874-.874 2.03 2.03 0 0 0 .201-.77c.017-.208.017-.454.017-.706v-6.864c0-.252 0-.498-.017-.706a2.022 2.022 0 0 0-.201-.77 2 2 0 0 0-.874-.874 2.022 2.022 0 0 0-.77-.201C19.93 10 19.684 10 19.432 10H16Zm0 2v8h3.4a8.207 8.207 0 0 0 .589-.012v-.013c.01-.116.011-.279.011-.575v-6.8a8.207 8.207 0 0 0-.012-.589h-.013A8.207 8.207 0 0 0 19.4 12H16ZM8 8H4.6a8.192 8.192 0 0 0-.589.011v.014C4 8.14 4 8.303 4 8.6v10.8a8.187 8.187 0 0 0 .011.588l.014.002c.116.01.278.01.575.01H8V8ZM3.092 21.782Z" clip-rule="evenodd"/>
</svg>
