<svg xmlns="http://www.w3.org/2000/svg" width="24" height="24" viewBox="0 0 24 24">
  <path fill-rule="evenodd" d="M12.055 5.168a1 1 0 0 1 .277 1.387L9.37 11h4.13a1 1 0 0 1 .832 1.555l-4 6a1 1 0 0 1-1.664-1.11L11.632 13H7.5a1 1 0 0 1-.832-1.555l4-6a1 1 0 0 1 1.387-.277ZM22 10a1 1 0 0 1 1 1v2a1 1 0 1 1-2 0v-2a1 1 0 0 1 1-1Z" clip-rule="evenodd" opacity=".5"/>
  <path fill-rule="evenodd" d="M16.518 7.068C16.295 7.008 15.994 7 15 7a1 1 0 1 1 0-2h.138c.795 0 1.386 0 1.897.136a4 4 0 0 1 2.829 2.829C20 8.476 20 9.067 20 9.862v3.379c0 .805 0 1.47-.044 2.01-.046.563-.145 1.08-.392 1.565a4 4 0 0 1-1.748 1.748c-.485.247-1.002.346-1.564.392-.541.044-1.206.044-2.01.044H14a1 1 0 1 1 0-2h.2c.857 0 1.439 0 1.889-.038.438-.035.663-.1.819-.18a2 2 0 0 0 .874-.874c.08-.156.145-.38.18-.819.037-.45.038-1.032.038-1.889V10c0-.994-.009-1.295-.068-1.518a2 2 0 0 0-1.414-1.414ZM6.758 5H7a1 1 0 1 1 0 2h-.2c-.857 0-1.439 0-1.889.038-.438.035-.663.1-.819.18a2 2 0 0 0-.874.874c-.08.156-.145.38-.18.819C3 9.361 3 9.943 3 10.8V14c0 .994.009 1.295.068 1.518a2 2 0 0 0 1.414 1.414c.223.06.524.068 1.518.068a1 1 0 1 1 0 2h-.138c-.795 0-1.386 0-1.897-.136a4 4 0 0 1-2.829-2.829C1 15.524 1 14.933 1 14.138v-3.379c0-.805 0-1.47.044-2.01.046-.563.145-1.08.392-1.565a4 4 0 0 1 1.748-1.748c.485-.247 1.002-.346 1.564-.392C5.29 5 5.954 5 6.758 5Z" clip-rule="evenodd"/>
</svg>
