<svg xmlns="http://www.w3.org/2000/svg" width="24" height="24" viewBox="0 0 24 24">
  <path d="M12 22a7.5 7.5 0 0 0 2.58-14.544c-.226-.083-.339-.125-.409-.185a.469.469 0 0 1-.138-.198C14 6.986 14 6.878 14 6.66V2.8c0-.28 0-.42-.055-.527a.5.5 0 0 0-.218-.218C13.62 2 13.48 2 13.2 2h-2.4c-.28 0-.42 0-.527.055a.5.5 0 0 0-.218.218C10 2.38 10 2.52 10 2.8v3.86c0 .218 0 .326-.033.413a.47.47 0 0 1-.138.198c-.07.06-.183.102-.409.184A7.5 7.5 0 0 0 12 22Z" opacity=".2"/>
  <path fill-rule="evenodd" d="M7.5 2a1 1 0 0 1 1-1h7a1 1 0 1 1 0 2H15v3.545a8.5 8.5 0 1 1-6 0V3h-.5a1 1 0 0 1-1-1ZM11 3v3.678c0 .093 0 .203-.006.301a1.468 1.468 0 0 1-.913 1.293c-.093.04-.202.08-.3.116l-.017.007a6.5 6.5 0 1 0 4.472 0l-.017-.007a5.767 5.767 0 0 1-.3-.116 1.534 1.534 0 0 1-.405-.248l.657-.753-.657.753a1.468 1.468 0 0 1-.415-.594l.934-.357-.934.357a1.51 1.51 0 0 1-.093-.45C13 6.88 13 6.77 13 6.677V3h-2Z" clip-rule="evenodd"/>
</svg>
