<svg xmlns="http://www.w3.org/2000/svg" width="24" height="24"  viewBox="0 0 24 24">
  <path fill-rule="evenodd" d="M8.277 1h7.446c.12 0 .261 0 .387.01.145.012.353.042.571.153a1.5 1.5 0 0 1 .655.656c.112.218.142.426.154.571.01.125.01.268.01.387v2.446c0 .12 0 .262-.01.387a1.508 1.508 0 0 1-.153.571 1.5 1.5 0 0 1-.656.656 1.507 1.507 0 0 1-.571.153 2.642 2.642 0 0 1-.11.006v3.505c0 .605.008.724.034.822a1 1 0 0 0 .148.316c.058.083.145.165.61.552l3.77 3.141c.35.293.66.55.891.878a3 3 0 0 1 .444.947c.104.387.103.79.103 1.248v1.179c0 .38 0 .709-.058 1.001a3 3 0 0 1-2.357 2.357c-.293.059-.62.058-1.001.058H5.416c-.38 0-.708 0-1.001-.058a2.995 2.995 0 0 1-2.357-2.357c-.059-.293-.058-.62-.058-1.001v-1.18c0-.457-.001-.86.103-1.247a3 3 0 0 1 .444-.947c.23-.327.54-.585.892-.878l3.77-3.14c.464-.388.55-.47.609-.553.067-.096.117-.203.148-.316.026-.098.034-.217.034-.822V6.996a2.659 2.659 0 0 1-.11-.006 1.508 1.508 0 0 1-.571-.153 1.5 1.5 0 0 1-.655-.656 1.508 1.508 0 0 1-.154-.571 4.928 4.928 0 0 1-.01-.387V2.777c0-.12 0-.262.01-.387.012-.145.042-.353.154-.571a1.5 1.5 0 0 1 .655-.655c.218-.112.426-.142.571-.154.125-.01.268-.01.387-.01Zm9.96 15H5.763l2.8-2.332c.35-.293.66-.55.891-.878a3 3 0 0 0 .444-.947c.104-.387.103-.79.103-1.248V7h4v3.595c0 .458-.001.861.103 1.248a3 3 0 0 0 .444.947c.23.327.54.585.892.878L18.238 16Z" clip-rule="evenodd"/>
</svg>
