<svg xmlns="http://www.w3.org/2000/svg" width="24" height="24" viewBox="0 0 24 24">
  <path fill-rule="evenodd" d="M8.277 1h7.446c.12 0 .261 0 .387.01.145.012.353.042.571.153a1.5 1.5 0 0 1 .655.656c.112.218.142.426.154.571.01.125.01.268.01.387v2.446c0 .12 0 .262-.01.387a1.508 1.508 0 0 1-.153.571 1.5 1.5 0 0 1-.656.656 1.508 1.508 0 0 1-.571.153 2.637 2.637 0 0 1-.11.006v3.505c0 .605.008.724.034.822.03.113.08.22.148.316.059.083.145.165.61.552l3.697 3.081.072.06c.352.293.662.55.892.878a3 3 0 0 1 .444.947c.104.387.104.79.103 1.248v.434c0 .527 0 .982-.03 1.356-.033.395-.104.789-.297 1.167a3 3 0 0 1-1.311 1.311c-.378.193-.772.264-1.167.296-.375.031-.83.031-1.356.031H6.16c-.527 0-.981 0-1.356-.03-.395-.033-.789-.104-1.167-.297a3 3 0 0 1-1.311-1.311c-.193-.378-.264-.772-.296-1.167C2 19.82 2 19.365 2 18.839v-.434c0-.458-.001-.861.103-1.248a3 3 0 0 1 .444-.947c.23-.327.54-.585.892-.878l.072-.06 3.697-3.08c.465-.388.552-.47.61-.553a1 1 0 0 0 .148-.316c.026-.098.034-.217.034-.822V6.996a2.647 2.647 0 0 1-.11-.006 1.508 1.508 0 0 1-.571-.153 1.5 1.5 0 0 1-.655-.656 1.508 1.508 0 0 1-.154-.571c-.01-.125-.01-.268-.01-.387V2.777c0-.12 0-.262.01-.387.012-.145.042-.353.154-.571a1.5 1.5 0 0 1 .655-.655c.218-.112.426-.142.571-.154.125-.01.268-.01.387-.01ZM10 7v3.595c0 .458.001.861-.103 1.248a3 3 0 0 1-.444.947c-.23.327-.54.585-.892.878l-.072.06-3.697 3.08c-.465.388-.552.47-.61.553a1 1 0 0 0-.148.316c-.026.098-.034.217-.034.822v.301c0 .577 0 .949.024 1.232.022.272.06.373.085.422a1 1 0 0 0 .437.437c.05.025.15.063.422.085C5.25 21 5.623 21 6.2 21h11.6c.577 0 .949 0 1.232-.024.272-.022.373-.06.422-.085a1 1 0 0 0 .437-.437c.025-.05.063-.15.085-.422C20 19.75 20 19.377 20 18.8v-.301c0-.605-.008-.724-.034-.822a.983.983 0 0 0-.148-.316c-.059-.082-.145-.165-.61-.552l-3.697-3.081-.072-.06c-.352-.293-.662-.55-.892-.878a3.003 3.003 0 0 1-.444-.947c-.104-.387-.104-.79-.103-1.248V7h-4ZM8.5 5V3h7v2h-7Z" clip-rule="evenodd" opacity=".5"/>
  <path fill-rule="evenodd" d="M5.416 16h13.168c.38 0 .708 0 1.001.058a3 3 0 0 1 2.357 2.357c.059.293.058.62.058 1.001v.168c0 .38 0 .708-.058 1.001a3 3 0 0 1-2.357 2.357c-.293.059-.62.058-1.001.058H5.416c-.38 0-.708 0-1.001-.058a3 3 0 0 1-2.357-2.357c-.059-.293-.058-.62-.058-1.001v-.168c0-.38 0-.708.058-1.001a3 3 0 0 1 2.357-2.357c.293-.059.62-.058 1.001-.058Zm.084 2c-.513 0-.623.005-.695.02a1 1 0 0 0-.786.785c-.014.072-.019.182-.019.695 0 .513.005.623.02.695a1 1 0 0 0 .785.786c.072.014.182.019.695.019h13c.513 0 .623-.005.695-.02a1 1 0 0 0 .786-.785c.014-.072.019-.182.019-.695 0-.513-.005-.623-.02-.695a1 1 0 0 0-.785-.786c-.072-.014-.182-.019-.695-.019h-13Z" clip-rule="evenodd"/>
</svg>
