<svg xmlns="http://www.w3.org/2000/svg" width="24" height="24" viewBox="0 0 24 24">
  <path fill-rule="evenodd" d="M12 3a1.5 1.5 0 0 0-1.367 2.12 7.892 7.892 0 0 1 2.734 0A1.5 1.5 0 0 0 12 3Zm3.28 2.721a3.5 3.5 0 1 0-6.561 0 7.012 7.012 0 0 0-1.616 1.046C5.778 7.915 5 9.506 5 11.2c0 2.108-.52 3.6-1.132 4.636l-.01.017a71.196 71.196 0 0 0-.908 1.56c-.103.186-.194.36-.26.507a2.158 2.158 0 0 0-.097.256 1.21 1.21 0 0 0-.051.47c.012.12.039.36.178.604a1.466 1.466 0 0 0 .827.65c.094.025.185.04.26.05.151.02.327.031.51.037.365.013.875.013 1.519.013h2.29a4.002 4.002 0 0 0 7.748 0h2.29c.644 0 1.154 0 1.52-.013.183-.006.358-.016.51-.036.075-.01.166-.026.26-.052.079-.022.238-.072.397-.188a1.48 1.48 0 0 0 .43-.461 1.48 1.48 0 0 0 .178-.604c.021-.22-.03-.4-.052-.47a2.158 2.158 0 0 0-.096-.256 6.912 6.912 0 0 0-.26-.508c-.206-.373-.514-.893-.908-1.56l-.01-.016C19.52 14.8 19 13.308 19 11.2c0-1.694-.777-3.285-2.102-4.433a7.012 7.012 0 0 0-1.617-1.046Zm-1.766 1.477a5.228 5.228 0 0 1 2.074 1.08C16.514 9.082 17 10.137 17 11.2c0 2.456.612 4.301 1.411 5.654.275.465.498.842.673 1.144-.26.002-.57.002-.942.002H5.858c-.37 0-.682 0-.941-.002.174-.302.397-.68.672-1.144C6.39 15.5 7 13.656 7 11.2c0-1.064.487-2.119 1.413-2.921a5.228 5.228 0 0 1 2.073-1.08 5.85 5.85 0 0 1 3.028 0ZM10.268 20a2 2 0 0 0 3.465 0h-3.465ZM18.55 4.312a1 1 0 0 1 1.363-.38 5.007 5.007 0 0 1 2.54 4.4 1 1 0 0 1-2-.019 3.007 3.007 0 0 0-1.523-2.639 1 1 0 0 1-.38-1.362Zm-13.1 0a1 1 0 0 1-.38 1.362 3.007 3.007 0 0 0-1.523 2.64 1 1 0 1 1-2 .019 5.007 5.007 0 0 1 2.54-4.4 1 1 0 0 1 1.363.379Z" clip-rule="evenodd"/>
</svg>
