<svg xmlns="http://www.w3.org/2000/svg" width="24" height="24"  viewBox="0 0 24 24">
  <path fill-rule="evenodd" d="M15.28 5.721a3.5 3.5 0 1 0-6.561 0 7.012 7.012 0 0 0-1.617 1.046C5.779 7.915 5 9.506 5 11.2c0 2.108-.52 3.6-1.133 4.636l-.01.017a71.24 71.24 0 0 0-.908 1.56 7.57 7.57 0 0 0-.26.507 2.158 2.158 0 0 0-.096.256 1.21 1.21 0 0 0-.051.47c.011.12.038.36.178.604.14.244.331.39.43.46.158.117.318.167.397.19.094.025.185.04.26.05.151.02.327.031.51.037.365.013.875.013 1.519.013h2.29a4.002 4.002 0 0 0 7.748 0h2.29c.644 0 1.154 0 1.52-.013.182-.006.358-.016.509-.036.075-.01.166-.026.26-.052.08-.022.239-.072.398-.188a1.48 1.48 0 0 0 .43-.461 1.48 1.48 0 0 0 .178-.604c.02-.22-.03-.4-.052-.47a2.158 2.158 0 0 0-.096-.256 6.916 6.916 0 0 0-.26-.508 75.198 75.198 0 0 0-.908-1.559l-.01-.017C19.52 14.8 19 13.308 19 11.2c0-1.694-.778-3.285-2.102-4.433a7.012 7.012 0 0 0-1.617-1.046ZM12 3a1.5 1.5 0 0 0-1.367 2.12 7.892 7.892 0 0 1 2.734 0A1.5 1.5 0 0 0 12 3Zm-1.732 17a2 2 0 0 0 3.464 0h-3.464Z" clip-rule="evenodd"/>
  <path d="M5.07 5.674a1 1 0 1 0-.982-1.742 5.007 5.007 0 0 0-2.541 4.4 1 1 0 0 0 2-.019A3.007 3.007 0 0 1 5.07 5.674Zm13.48-1.362a1 1 0 0 1 1.362-.38 5.007 5.007 0 0 1 2.541 4.4 1 1 0 0 1-2-.019 3.007 3.007 0 0 0-1.523-2.639 1 1 0 0 1-.38-1.362Z"/>
</svg>
