<svg xmlns="http://www.w3.org/2000/svg" width="24" height="24" viewBox="0 0 24 24">
  <path fill-rule="evenodd" d="M11.41 4.138a1.5 1.5 0 1 0-2.61 1.34 7.892 7.892 0 0 1 2.642-.707 1.493 1.493 0 0 0-.032-.633Zm2.036.72a3.5 3.5 0 1 0-6.338 1.698 7.013 7.013 0 0 0-1.29 1.428c-.983 1.452-1.323 3.19-.884 4.826.545 2.036.429 3.612.105 4.771l-.005.02a71.92 71.92 0 0 0-.473 1.74 6.942 6.942 0 0 0-.12.558c-.012.08-.024.174-.027.272a1.24 1.24 0 0 0 .072.468c.043.113.13.337.329.537.197.2.42.29.533.334.184.071.351.078.434.079.097 0 .189-.008.264-.018a5.59 5.59 0 0 0 .502-.096c.356-.083.85-.215 1.47-.381l1.247-.334a4.002 4.002 0 0 0 7.484-2.005l3.178-.852a50.34 50.34 0 0 0 1.464-.405c.175-.054.342-.11.483-.168.07-.03.154-.067.238-.117a1.21 1.21 0 0 0 .335-.285c.076-.094.224-.284.296-.556a1.48 1.48 0 0 0 .015-.63 1.225 1.225 0 0 0-.17-.44 2.167 2.167 0 0 0-.16-.222 6.977 6.977 0 0 0-.383-.423c-.296-.308-.727-.73-1.28-1.272l-.015-.014c-.86-.842-1.748-2.149-2.293-4.184-.439-1.637-1.602-2.972-3.178-3.738a7.012 7.012 0 0 0-1.833-.592ZM12.122 6.74h.04c.798.006 1.568.18 2.242.507 1.102.535 1.845 1.429 2.12 2.456.636 2.372 1.705 3.997 2.827 5.096.386.378.7.685.946.931-.25.07-.55.15-.91.246l-11.864 3.18c-.359.095-.66.176-.91.241.09-.337.207-.759.353-1.28.422-1.513.535-3.453-.1-5.826-.276-1.027-.079-2.172.608-3.187a5.228 5.228 0 0 1 1.724-1.581 5.85 5.85 0 0 1 2.924-.783Zm2.558 12.568-3.346.897a1.999 1.999 0 0 0 3.346-.897Zm1.797-15.712a1 1 0 0 1 1.217-.72 5.007 5.007 0 0 1 3.594 3.594 1 1 0 1 1-1.937.498 3.007 3.007 0 0 0-2.155-2.154 1 1 0 0 1-.72-1.218ZM3.823 6.987a1 1 0 0 1-.014 1.415 3.007 3.007 0 0 0-.789 2.943 1 1 0 1 1-1.926.537 5.007 5.007 0 0 1 1.315-4.909 1 1 0 0 1 1.414.014Z" clip-rule="evenodd"/>
</svg>
