<svg xmlns="http://www.w3.org/2000/svg" width="24" height="24"  viewBox="0 0 24 24">
  <path fill-rule="evenodd" d="M14 5a1 1 0 0 1 1-1h6a1 1 0 1 1 0 2h-6a1 1 0 0 1-1-1Z" clip-rule="evenodd"/>
  <path d="M12 1a7 7 0 0 0-7 7c0 2.913-.732 4.844-1.5 6.077l-.011.02c-.358.573-.64 1.027-.83 1.358a5.66 5.66 0 0 0-.247.466 2.028 2.028 0 0 0-.096.252 1.225 1.225 0 0 0-.051.45c.01.136.039.37.173.611.134.242.318.389.428.47.25.186.538.229.634.243h.004c.147.023.315.033.484.04.335.013.799.013 1.376.013h13.272c.577 0 1.041 0 1.377-.013a4.45 4.45 0 0 0 .483-.04h.004a1.41 1.41 0 0 0 1.062-.712c.134-.242.162-.476.173-.613a1.224 1.224 0 0 0-.05-.449 1.988 1.988 0 0 0-.097-.251 5.677 5.677 0 0 0-.247-.467c-.19-.33-.472-.784-.83-1.358l-.012-.02C19.732 12.844 19 10.913 19 8h-4a3 3 0 1 1 0-6c.17 0 .227-.214.074-.29A7 7 0 0 0 12 1Zm-1.984 19.25a1 1 0 1 0-1.324 1.5A4.987 4.987 0 0 0 12 23a4.984 4.984 0 0 0 3.307-1.25 1 1 0 1 0-1.323-1.5c-.53.468-1.223.75-1.984.75a2.985 2.985 0 0 1-1.984-.75Z"/>
</svg>
