<svg xmlns="http://www.w3.org/2000/svg" width="24" height="24" viewBox="0 0 24 24">
  <path fill-rule="evenodd" d="M12 3a1.5 1.5 0 0 0-1.388 2.071l.013.03a.125.125 0 0 0 .005.003c.03-.001.072-.005.136-.012a15.9 15.9 0 0 0 .238-.03 7.909 7.909 0 0 1 2.363.057A1.5 1.5 0 0 0 12 3Zm3.28 2.721a3.5 3.5 0 1 0-6.517.113l.006.014c.027.064.075.183.148.304a1.946 1.946 0 0 0 .71.682c.123.072.293.157.477.207.39.106.775.055 1.075.016l.077-.01a5.906 5.906 0 0 1 2.278.157l.009.002a5.23 5.23 0 0 1 2.045 1.073C16.514 9.08 17 10.136 17 11.2c0 .353.01.693.028 1.021a1 1 0 1 0 1.997-.112c-.016-.29-.025-.592-.025-.909 0-1.694-.778-3.285-2.102-4.433a7.012 7.012 0 0 0-1.617-1.046ZM2.254 3.336a1 1 0 0 1 1.411-.083l4.301 3.823a1.01 1.01 0 0 1 .146.13L20.481 18.2c.043.032.084.069.122.108l1.061.944a1 1 0 0 1-1.328 1.494L19.495 20h-3.621a4.002 4.002 0 0 1-7.748 0h-2.29c-.644 0-1.154 0-1.52-.013a5.37 5.37 0 0 1-.509-.036 1.938 1.938 0 0 1-.26-.052 1.224 1.224 0 0 1-.398-.188 1.48 1.48 0 0 1-.43-.461 1.48 1.48 0 0 1-.177-.604c-.022-.22.03-.4.05-.47.029-.094.065-.182.098-.256.066-.148.156-.32.26-.508.206-.373.513-.893.907-1.56l.01-.016C4.48 14.8 5 13.308 5 11.2a5.68 5.68 0 0 1 1-3.196L2.336 4.747a1 1 0 0 1-.083-1.411Zm5.26 6.014A3.65 3.65 0 0 0 7 11.2c0 2.456-.611 4.301-1.411 5.654-.275.465-.498.842-.673 1.144.26.002.571.002.942.002h11.387L7.514 9.35ZM13.734 20h-3.465a2 2 0 0 0 3.464 0Z" clip-rule="evenodd"/>
</svg>
