<svg xmlns="http://www.w3.org/2000/svg" width="24" height="24" viewBox="0 0 24 24">
  <path d="M4.35 14.605C5.22 13.206 6 11.09 6 8a6 6 0 0 1 .259-1.743L17 17H5.389c-1.196 0-1.795 0-1.927-.098-.147-.11-.186-.179-.2-.361-.014-.165.353-.755 1.088-1.936Z" opacity=".2"/>
  <path fill-rule="evenodd" d="M8.072 2.206A7 7 0 0 1 19 8c0 2.014.259 3.569.608 4.75a1 1 0 1 1-1.919.566C17.281 11.934 17 10.187 17 8a5 5 0 0 0-7.806-4.139 1 1 0 0 1-1.122-1.655Zm-5.78.087a1 1 0 0 1 1.415 0L6.93 5.516a.999.999 0 0 1 .07.069l14.707 14.708a1 1 0 0 1-1.414 1.414L16.586 18H5.364c-.577 0-1.041 0-1.376-.013a4.618 4.618 0 0 1-.484-.04H3.5a1.405 1.405 0 0 1-.634-.242 1.48 1.48 0 0 1-.428-.47 1.482 1.482 0 0 1-.173-.613c-.017-.203.027-.37.05-.449.029-.094.065-.18.097-.251.064-.142.151-.302.247-.467.19-.33.472-.785.83-1.359l.012-.019C4.268 12.844 5 10.913 5 8c0-.486.05-.968.149-1.437L2.293 3.707a1 1 0 0 1 0-1.414ZM6.997 8.41c-.066 3.051-.864 5.224-1.797 6.724-.213.342-.39.627-.536.865L5.39 16h9.197l-7.59-7.59Zm1.608 11.928a1 1 0 0 1 1.412-.088c.53.468 1.223.75 1.984.75.761 0 1.455-.282 1.984-.75a1 1 0 1 1 1.324 1.5A4.985 4.985 0 0 1 12 23a4.984 4.984 0 0 1-3.308-1.25 1 1 0 0 1-.088-1.412Z" clip-rule="evenodd"/>
</svg>
