<svg xmlns="http://www.w3.org/2000/svg" width="24" height="24" viewBox="0 0 24 24">
  <path d="M18 11.2c0-1.38-.632-2.702-1.757-3.677C15.117 6.548 13.59 6 12 6c-1.591 0-3.117.548-4.243 1.523C6.632 8.498 6 9.821 6 11.2c0 2.282-.566 3.95-1.272 5.145-.805 1.36-1.207 2.041-1.191 2.204.018.186.052.244.202.355.132.096.795.096 2.12.096h12.283c1.325 0 1.987 0 2.119-.096.15-.11.184-.17.202-.355.016-.163-.386-.843-1.191-2.204C18.566 15.15 18 13.482 18 11.2Z" opacity=".2"/>
  <path fill-rule="evenodd" d="M12 3a1.5 1.5 0 0 0-1.367 2.12 7.893 7.893 0 0 1 2.734 0A1.5 1.5 0 0 0 12 3Zm3.28 2.721a3.5 3.5 0 1 0-6.561 0 7.012 7.012 0 0 0-1.617 1.046C5.778 7.915 5 9.506 5 11.2c0 2.108-.52 3.6-1.133 4.636l-.01.017a71.196 71.196 0 0 0-.908 1.56 7.57 7.57 0 0 0-.26.507 2.16 2.16 0 0 0-.096.256 1.21 1.21 0 0 0-.051.47c.011.12.038.36.178.604.14.244.331.39.429.46.16.117.319.167.398.19.094.025.185.04.26.05.151.02.327.031.51.037A50.2 50.2 0 0 0 5.835 20h2.291a4.002 4.002 0 0 0 7.748 0h2.29c.644 0 1.154 0 1.52-.013.182-.006.358-.016.509-.036.075-.01.166-.026.26-.052.08-.022.239-.072.398-.188.098-.072.29-.217.43-.461a1.48 1.48 0 0 0 .177-.604c.022-.22-.03-.4-.05-.47a2.158 2.158 0 0 0-.098-.256 6.951 6.951 0 0 0-.26-.508 71.35 71.35 0 0 0-.907-1.56l-.01-.016C19.52 14.8 19 13.308 19 11.2c0-1.694-.778-3.285-2.102-4.433a7.012 7.012 0 0 0-1.617-1.046Zm-1.766 1.477a5.228 5.228 0 0 1 2.073 1.08C16.515 9.082 17 10.137 17 11.2c0 2.456.611 4.301 1.411 5.654.275.465.498.842.673 1.144-.26.002-.571.002-.942.002H5.858c-.37 0-.682 0-.942-.002.175-.302.398-.68.673-1.144C6.389 15.5 7 13.656 7 11.2c0-1.064.487-2.119 1.412-2.921a5.228 5.228 0 0 1 2.074-1.08 5.852 5.852 0 0 1 3.028 0ZM10.268 20a2 2 0 0 0 3.464 0h-3.464ZM18.55 4.312a1 1 0 0 1 1.362-.38 5.007 5.007 0 0 1 2.541 4.4 1 1 0 1 1-2-.019 3.007 3.007 0 0 0-1.523-2.639 1 1 0 0 1-.38-1.362Zm-13.1 0a1 1 0 0 1-.38 1.362 3.007 3.007 0 0 0-1.523 2.64 1 1 0 1 1-2 .019 5.007 5.007 0 0 1 2.54-4.4 1 1 0 0 1 1.363.379Z" clip-rule="evenodd"/>
</svg>
