<svg xmlns="http://www.w3.org/2000/svg" width="24" height="24" viewBox="0 0 24 24">
  <path fill-rule="evenodd" d="M7.05 3.05A7 7 0 0 1 19 8c0 2.913.732 4.844 1.5 6.077l.011.019c.358.574.64 1.028.83 1.359.096.165.183.325.247.466.032.071.068.158.096.252.024.079.068.246.052.45-.012.136-.04.37-.174.611a1.48 1.48 0 0 1-.428.47c-.25.186-.538.229-.633.243h-.005a4.618 4.618 0 0 1-.483.04c-.336.013-.8.013-1.377.013H5.364c-.577 0-1.041 0-1.376-.013a4.618 4.618 0 0 1-.484-.04H3.5a1.405 1.405 0 0 1-.634-.242 1.48 1.48 0 0 1-.428-.47 1.482 1.482 0 0 1-.173-.613c-.017-.203.028-.37.051-.449a2.01 2.01 0 0 1 .096-.251c.064-.142.151-.302.247-.467.19-.33.473-.785.83-1.359l.012-.019C4.268 12.844 5 10.913 5 8a7 7 0 0 1 2.05-4.95ZM12 3a5 5 0 0 0-5 5c0 3.268-.827 5.568-1.801 7.134-.213.342-.39.627-.536.865L5.39 16h13.222l.726-.001c-.145-.238-.323-.523-.535-.865C17.826 13.568 17 11.268 17 8a5 5 0 0 0-5-5ZM5.197 1.809a1 1 0 0 1-.38 1.362A3.007 3.007 0 0 0 3.295 5.81a1 1 0 0 1-2 .02 5.007 5.007 0 0 1 2.54-4.4 1 1 0 0 1 1.363.379Zm13.602 0a1 1 0 0 1 1.363-.38 5.007 5.007 0 0 1 2.54 4.4 1 1 0 1 1-2-.019 3.007 3.007 0 0 0-1.523-2.64 1 1 0 0 1-.38-1.361ZM8.605 20.339a1 1 0 0 1 1.411-.089c.53.468 1.223.75 1.984.75a2.98 2.98 0 0 0 1.984-.75 1 1 0 1 1 1.324 1.5A4.984 4.984 0 0 1 12 23a4.984 4.984 0 0 1-3.307-1.25 1 1 0 0 1-.088-1.412Z" clip-rule="evenodd"/>
</svg>
