<svg xmlns="http://www.w3.org/2000/svg" width="24" height="24"  viewBox="0 0 24 24">
  <path d="M19 2a1 1 0 1 0-2 0v2h-2a1 1 0 1 0 0 2h2v2a1 1 0 1 0 2 0V6h2a1 1 0 1 0 0-2h-2V2Z"/>
  <path d="M15.006 1.813a.19.19 0 0 0-.108-.185A6.999 6.999 0 0 0 5 8c0 2.913-.732 4.844-1.5 6.077l-.011.02c-.358.573-.64 1.027-.83 1.358a5.66 5.66 0 0 0-.247.466 2.028 2.028 0 0 0-.096.252 1.225 1.225 0 0 0-.051.45c.01.136.039.37.173.611.134.242.318.389.428.47.25.186.538.229.634.243h.004c.147.023.315.033.484.04.335.013.799.013 1.376.013h13.272c.577 0 1.041 0 1.377-.013a4.45 4.45 0 0 0 .483-.04h.004a1.41 1.41 0 0 0 1.062-.712c.134-.242.162-.476.173-.613a1.224 1.224 0 0 0-.05-.449 1.988 1.988 0 0 0-.097-.251 5.677 5.677 0 0 0-.247-.467c-.19-.33-.472-.784-.83-1.358l-.012-.02a9.18 9.18 0 0 1-1.022-2.355c-.099-.348-.149-.522-.215-.603a.385.385 0 0 0-.225-.155c-.1-.034-.324-.014-.774.025a3 3 0 1 1-3.449-8.983.206.206 0 0 0 .192-.193ZM8.604 20.338a1 1 0 0 1 1.412-.088c.53.468 1.223.75 1.984.75.761 0 1.455-.282 1.984-.75a1 1 0 1 1 1.323 1.5A4.984 4.984 0 0 1 12 23a4.984 4.984 0 0 1-3.308-1.25 1 1 0 0 1-.088-1.412Z"/>
</svg>
