<svg xmlns="http://www.w3.org/2000/svg" width="24" height="24" viewBox="0 0 24 24">
  <path fill-rule="evenodd" d="M7.05 3.05a7 7 0 0 1 6.117-1.952 1 1 0 1 1-.334 1.972 4.998 4.998 0 0 0-4.369 1.394A5 5 0 0 0 7 8c0 3.268-.827 5.568-1.801 7.134-.213.342-.39.627-.536.865L5.39 16h13.22l.726-.001c-.145-.238-.323-.523-.536-.866-.548-.88-1.053-2-1.388-3.4a1 1 0 1 1 1.945-.466c.284 1.19.705 2.11 1.141 2.81l.012.019c.357.574.64 1.028.83 1.359.096.165.183.325.247.466.032.071.068.158.096.252.023.079.068.246.051.45-.01.136-.039.37-.173.611a1.48 1.48 0 0 1-.428.47c-.25.186-.538.229-.634.243h-.004a4.616 4.616 0 0 1-.484.04c-.335.013-.799.013-1.376.013H5.364c-.577 0-1.041 0-1.376-.013a4.618 4.618 0 0 1-.484-.04H3.5a1.406 1.406 0 0 1-.634-.242 1.48 1.48 0 0 1-.428-.47 1.482 1.482 0 0 1-.173-.613c-.017-.203.027-.37.05-.449.029-.094.065-.18.097-.251.064-.142.151-.302.247-.467.19-.33.472-.785.83-1.359l.012-.019C4.268 12.844 5 10.913 5 8a7 7 0 0 1 2.05-4.95ZM18 1a1 1 0 0 1 1 1v2h2a1 1 0 1 1 0 2h-2v2a1 1 0 1 1-2 0V6h-2a1 1 0 1 1 0-2h2V2a1 1 0 0 1 1-1ZM8.604 20.338a1 1 0 0 1 1.412-.088c.53.468 1.223.75 1.984.75.761 0 1.455-.282 1.984-.75a1 1 0 1 1 1.324 1.5A4.985 4.985 0 0 1 12 23a4.984 4.984 0 0 1-3.308-1.25 1 1 0 0 1-.088-1.412Z" clip-rule="evenodd"/>
</svg>
