<svg xmlns="http://www.w3.org/2000/svg" width="24" height="24" viewBox="0 0 24 24">
  <path fill-rule="evenodd" d="M12 3a1.5 1.5 0 0 0-1.367 2.12 7.892 7.892 0 0 1 2.734 0A1.5 1.5 0 0 0 12 3Zm3.28 2.721a3.5 3.5 0 1 0-6.561 0 7.012 7.012 0 0 0-1.617 1.046C5.778 7.915 5 9.506 5 11.2c0 2.108-.52 3.6-1.133 4.636l-.01.017a71.196 71.196 0 0 0-.908 1.56c-.103.186-.194.36-.26.507a2.158 2.158 0 0 0-.097.256c-.02.07-.072.25-.05.47.011.12.038.36.177.604.14.244.332.39.43.46.159.117.318.167.398.19.093.025.184.04.26.05.15.02.326.031.51.037.365.013.875.013 1.518.013h2.29a4.002 4.002 0 0 0 7.749 0h2.29c.643 0 1.154 0 1.519-.013.183-.006.359-.016.51-.036.075-.01.166-.026.26-.052.08-.022.238-.072.398-.188.097-.072.29-.217.429-.461a1.48 1.48 0 0 0 .178-.604c.022-.22-.03-.4-.051-.47a2.158 2.158 0 0 0-.097-.256 6.951 6.951 0 0 0-.26-.508c-.206-.373-.514-.893-.907-1.56l-.01-.016C19.52 14.8 19 13.308 19 11.2c0-1.694-.778-3.285-2.103-4.433a7.012 7.012 0 0 0-1.617-1.046Zm-1.766 1.477.038.01c.77.213 1.469.58 2.035 1.07C16.513 9.082 17 10.137 17 11.2c0 2.456.611 4.301 1.41 5.654.276.465.499.842.673 1.144-.259.002-.57.002-.941.002H5.857c-.371 0-.683 0-.942-.002.175-.302.397-.68.673-1.144.8-1.353 1.41-3.198 1.41-5.654 0-1.064.487-2.119 1.413-2.921a5.228 5.228 0 0 1 2.073-1.08 5.852 5.852 0 0 1 3.029 0ZM10.267 20a2 2 0 0 0 3.465 0h-3.465Z" clip-rule="evenodd"/>
</svg>
