<svg xmlns="http://www.w3.org/2000/svg" width="24" height="24" viewBox="0 0 24 24">
  <path fill-rule="evenodd" d="M9 21a1 1 0 0 1 1-1h4a1 1 0 1 1 0 2h-4a1 1 0 0 1-1-1Z" clip-rule="evenodd" opacity=".5"/>
  <path fill-rule="evenodd" d="M7.05 3.05A7 7 0 0 1 19 8c0 2.913.732 4.844 1.5 6.077l.011.019c.358.574.64 1.028.83 1.359.096.165.183.325.247.466.032.071.068.158.096.252.024.079.068.246.051.45-.01.136-.039.37-.173.611a1.482 1.482 0 0 1-.428.47c-.25.186-.538.229-.634.243h-.004a4.619 4.619 0 0 1-.483.04c-.336.013-.8.013-1.377.013H5.364c-.577 0-1.041 0-1.376-.013a4.618 4.618 0 0 1-.484-.04H3.5a1.405 1.405 0 0 1-.634-.242 1.48 1.48 0 0 1-.428-.47 1.482 1.482 0 0 1-.173-.613c-.017-.203.027-.37.05-.449.029-.094.065-.18.097-.251a5.66 5.66 0 0 1 .247-.467c.19-.33.472-.785.83-1.359l.012-.019C4.268 12.844 5 10.913 5 8a7 7 0 0 1 2.05-4.95ZM12 3a5 5 0 0 0-5 5c0 3.268-.827 5.568-1.801 7.134-.213.342-.39.627-.536.865L5.39 16h13.22l.726-.001c-.145-.238-.323-.523-.536-.865C17.827 13.568 17 11.268 17 8a5 5 0 0 0-5-5Z" clip-rule="evenodd"/>
</svg>
