<svg xmlns="http://www.w3.org/2000/svg" width="24" height="24"  viewBox="0 0 24 24">
  <path fill-rule="evenodd" d="M15.874 20h3.62l.842.747a1 1 0 0 0 1.328-1.494l-18-16a1 1 0 1 0-1.328 1.494l3.663 3.257A5.69 5.69 0 0 0 5 11.2c0 2.108-.52 3.6-1.133 4.636l-.01.017a71.232 71.232 0 0 0-.908 1.56 7.57 7.57 0 0 0-.26.507 2.166 2.166 0 0 0-.096.256 1.21 1.21 0 0 0-.051.47c.011.12.038.36.178.604.14.244.331.39.429.46.16.117.319.167.398.19.094.025.185.04.26.05.151.02.327.031.51.037.365.013.875.013 1.518.013h2.291a4.002 4.002 0 0 0 7.748 0ZM12 21a2 2 0 0 1-1.732-1h3.464A2 2 0 0 1 12 21ZM8.522 4.895l11.085 9.853C19.25 13.826 19 12.661 19 11.2c0-1.694-.778-3.285-2.102-4.433a7.012 7.012 0 0 0-1.617-1.046 3.5 3.5 0 1 0-6.759-.827ZM12 3a1.5 1.5 0 0 0-1.367 2.12 7.892 7.892 0 0 1 2.734 0A1.5 1.5 0 0 0 12 3Z" clip-rule="evenodd"/>
</svg>
