<svg xmlns="http://www.w3.org/2000/svg" width="24" height="24"  viewBox="0 0 24 24">
  <path fill-rule="evenodd" d="M8.72 5.721a3.5 3.5 0 1 1 6.561 0 7.012 7.012 0 0 1 1.617 1.046C18.222 7.915 19 9.506 19 11.2c0 2.108.52 3.6 1.133 4.636l.01.017c.394.666.701 1.186.908 1.56.103.186.194.36.26.507.032.074.068.162.096.256.021.07.073.25.052.47a1.48 1.48 0 0 1-.179.604 1.454 1.454 0 0 1-.827.65 1.934 1.934 0 0 1-.26.05c-.15.02-.327.031-.51.037-.365.013-.875.013-1.518.013h-2.29a4.002 4.002 0 0 1-7.749 0h-2.29c-.644 0-1.154 0-1.52-.013a5.37 5.37 0 0 1-.509-.036 1.938 1.938 0 0 1-.26-.052 1.224 1.224 0 0 1-.398-.188 1.481 1.481 0 0 1-.43-.461 1.48 1.48 0 0 1-.177-.604c-.022-.22.03-.4.05-.47.029-.094.065-.182.098-.256.066-.148.156-.32.26-.508.206-.373.513-.893.907-1.559l.01-.017C4.48 14.8 5 13.308 5 11.2c0-1.694.778-3.285 2.103-4.433a7.012 7.012 0 0 1 1.616-1.046ZM10.5 4.5a1.5 1.5 0 1 1 2.867.62 7.893 7.893 0 0 0-2.734 0 1.494 1.494 0 0 1-.133-.62ZM12 21a2 2 0 0 0 1.733-1h-3.465A2 2 0 0 0 12 21Z" clip-rule="evenodd"/>
</svg>
