<svg xmlns="http://www.w3.org/2000/svg" width="24" height="24"  viewBox="0 0 24 24">
  <path fill-rule="evenodd" d="M9 21a1 1 0 0 1 1-1h4a1 1 0 0 1 0 2h-4a1 1 0 0 1-1-1ZM5.197 1.809a1 1 0 0 1-.38 1.362A3.007 3.007 0 0 0 3.295 5.81a1 1 0 0 1-2 .02 5.007 5.007 0 0 1 2.54-4.4 1 1 0 0 1 1.363.379Zm13.603 0a1 1 0 0 1 1.361-.38 5.007 5.007 0 0 1 2.541 4.4 1 1 0 1 1-2-.019 3.007 3.007 0 0 0-1.523-2.64 1 1 0 0 1-.38-1.361ZM7.05 3.05A7 7 0 0 1 19 8c0 2.913.732 4.844 1.5 6.077l.011.02c.358.573.64 1.027.83 1.358.096.165.183.325.247.466.032.071.068.158.096.252.024.079.068.246.051.45-.01.136-.039.37-.173.611a1.48 1.48 0 0 1-.428.47c-.25.186-.538.229-.634.243h-.004a4.618 4.618 0 0 1-.483.04c-.336.013-.8.013-1.377.013H5.364c-.577 0-1.041 0-1.376-.013a4.618 4.618 0 0 1-.484-.04H3.5a1.405 1.405 0 0 1-.634-.242 1.48 1.48 0 0 1-.428-.47 1.482 1.482 0 0 1-.173-.613c-.017-.203.027-.37.05-.449.029-.094.065-.18.097-.251a5.66 5.66 0 0 1 .247-.467c.19-.33.473-.785.83-1.359l.012-.019C4.268 12.844 5 10.913 5 8a7 7 0 0 1 2.05-4.95Z" clip-rule="evenodd"/>
</svg>
