<svg xmlns="http://www.w3.org/2000/svg" width="24" height="24"  viewBox="0 0 24 24">
  <path fill-rule="evenodd" d="M12.191 4.857a3.5 3.5 0 1 0-6.338 1.698 7.012 7.012 0 0 0-1.29 1.43c-.983 1.451-1.323 3.189-.884 4.825.545 2.036.429 3.612.106 4.771l-.006.02c-.208.745-.37 1.327-.473 1.74a6.957 6.957 0 0 0-.12.558c-.012.08-.024.174-.027.272a1.24 1.24 0 0 0 .072.468c.043.113.131.337.329.537s.42.29.534.334c.184.071.35.078.433.079.097 0 .189-.008.264-.018a5.59 5.59 0 0 0 .502-.096c.356-.082.849-.215 1.47-.38l1.247-.335a4.002 4.002 0 0 0 7.484-2.005l3.178-.852a49.896 49.896 0 0 0 1.464-.405c.175-.054.342-.11.483-.168.07-.029.154-.067.238-.117.07-.041.212-.13.335-.285a1.48 1.48 0 0 0 .296-.556 1.48 1.48 0 0 0 .016-.63 1.225 1.225 0 0 0-.172-.44 2.169 2.169 0 0 0-.16-.222 6.977 6.977 0 0 0-.382-.423c-.296-.308-.727-.73-1.28-1.272l-.014-.014c-.86-.842-1.749-2.149-2.294-4.184-.439-1.637-1.602-2.972-3.178-3.738a7.012 7.012 0 0 0-1.833-.592Zm-3.873-1.78a1.5 1.5 0 0 0-.772 2.402 7.89 7.89 0 0 1 2.64-.708 1.5 1.5 0 0 0-1.869-1.693Zm5.107 16.232-3.347.897a2 2 0 0 0 3.347-.897Z" clip-rule="evenodd"/>
</svg>
