<svg xmlns="http://www.w3.org/2000/svg" width="24" height="24" viewBox="0 0 24 24">
  <path fill-rule="evenodd" d="M2 7a1 1 0 0 1 1-1h7a1 1 0 0 1 .992 1.126 1 1 0 0 1-.743 1.094A7.003 7.003 0 0 0 5 15a1 1 0 1 1-2 0 8.981 8.981 0 0 1 3.343-7H3a1 1 0 0 1-1-1Zm11 0a1 1 0 0 1 1-1h7a1 1 0 1 1 0 2h-3.343A8.981 8.981 0 0 1 21 15a1 1 0 1 1-2 0c0-3.26-2.23-6.002-5.25-6.78a1 1 0 0 1-.742-1.094A1.007 1.007 0 0 1 13 7Z" clip-rule="evenodd" opacity=".5"/>
  <path fill-rule="evenodd" d="M11.568 4h.864c.252 0 .498 0 .706.017.229.019.499.063.77.201a2 2 0 0 1 .874.874c.138.271.182.541.201.77.017.208.017.454.017.706v.864c0 .252 0 .498-.017.706a2.022 2.022 0 0 1-.201.77 2 2 0 0 1-.874.874 2.022 2.022 0 0 1-.77.201c-.208.017-.454.017-.706.017h-.864c-.252 0-.498 0-.706-.017a2.022 2.022 0 0 1-.77-.201 2 2 0 0 1-.874-.874 2.022 2.022 0 0 1-.201-.77A9.184 9.184 0 0 1 9 7.432v-.864c0-.252 0-.498.017-.706a2.03 2.03 0 0 1 .201-.77 2 2 0 0 1 .874-.874 2.03 2.03 0 0 1 .77-.201C11.07 4 11.316 4 11.568 4Zm-.557 2.011v.014C11 6.14 11 6.303 11 6.6v.8c0 .297 0 .459.01.575l.001.014h.014c.116.01.278.011.575.011h.8a8.185 8.185 0 0 0 .588-.011l.002-.014C13 7.86 13 7.697 13 7.4v-.8a8.205 8.205 0 0 0-.011-.589h-.014A8.187 8.187 0 0 0 12.4 6h-.8a8.187 8.187 0 0 0-.589.011ZM1 7a2 2 0 1 1 4 0 2 2 0 0 1-4 0Zm18 0a2 2 0 1 1 4 0 2 2 0 0 1-4 0ZM3.568 14h.864c.252 0 .498 0 .706.017.229.019.499.063.77.201a2 2 0 0 1 .874.874c.138.271.182.541.201.77.017.208.017.454.017.706v.864c0 .252 0 .498-.017.706a2.022 2.022 0 0 1-.201.77 2 2 0 0 1-.874.874 2.022 2.022 0 0 1-.77.201C4.93 20 4.684 20 4.432 20h-.864c-.252 0-.498 0-.706-.017a2.022 2.022 0 0 1-.77-.201 2 2 0 0 1-.874-.874 2.022 2.022 0 0 1-.201-.77A9.18 9.18 0 0 1 1 17.432v-.864c0-.252 0-.498.017-.706a2.03 2.03 0 0 1 .201-.77 2 2 0 0 1 .874-.874 2.03 2.03 0 0 1 .77-.201C3.07 14 3.316 14 3.568 14Zm-.557 2.012v.013C3 16.14 3 16.304 3 16.6v.8a8.194 8.194 0 0 0 .011.589h.014c.116.01.278.011.575.011h.8c.297 0 .459 0 .575-.01l.014-.001v-.014C5 17.86 5 17.696 5 17.4v-.8a8.185 8.185 0 0 0-.011-.588l-.014-.002A8.205 8.205 0 0 0 4.4 16h-.8a8.205 8.205 0 0 0-.589.012ZM19.568 14h.864c.252 0 .498 0 .706.017.229.019.499.063.77.201a2 2 0 0 1 .874.874c.138.271.182.541.201.77.017.208.017.454.017.706v.864c0 .252 0 .498-.017.706a2.022 2.022 0 0 1-.201.77 2 2 0 0 1-.874.874 2.022 2.022 0 0 1-.77.201c-.208.017-.454.017-.706.017h-.864c-.252 0-.498 0-.706-.017a2.022 2.022 0 0 1-.77-.201 2 2 0 0 1-.874-.874 2.022 2.022 0 0 1-.201-.77C17 17.93 17 17.684 17 17.432v-.864c0-.252 0-.498.017-.706a2.03 2.03 0 0 1 .201-.77 2 2 0 0 1 .874-.874 2.03 2.03 0 0 1 .77-.201c.208-.017.454-.017.706-.017Zm-.556 2.012-.002.013c-.01.116-.01.279-.01.575v.8c0 .297 0 .459.01.575l.001.013.014.002c.116.01.279.01.575.01h.8a8.207 8.207 0 0 0 .589-.012v-.013c.01-.116.011-.279.011-.575v-.8a8.207 8.207 0 0 0-.012-.588l-.013-.002A8.207 8.207 0 0 0 20.4 16h-.8a8.207 8.207 0 0 0-.588.012Z" clip-rule="evenodd"/>
</svg>
