<svg xmlns="http://www.w3.org/2000/svg" width="24" height="24" viewBox="0 0 24 24">
  <path fill-rule="evenodd" d="M10.972 3.502a1 1 0 0 1-.737 1.207 7.513 7.513 0 0 0-5.526 5.525 1 1 0 1 1-1.944-.468 9.513 9.513 0 0 1 7-7.002 1 1 0 0 1 1.207.738Zm2.056 0a1 1 0 0 1 1.207-.738 9.513 9.513 0 0 1 7 7.001 1 1 0 1 1-1.944.47 7.513 7.513 0 0 0-5.525-5.526 1 1 0 0 1-.738-1.207Zm-9.526 9.526a1 1 0 0 1 1.207.737 7.513 7.513 0 0 0 5.525 5.526 1 1 0 1 1-.469 1.944 9.513 9.513 0 0 1-7-7 1 1 0 0 1 .737-1.207Zm16.996 0a1 1 0 0 1 .738 1.206 9.513 9.513 0 0 1-7.001 7.001 1 1 0 0 1-.47-1.944 7.513 7.513 0 0 0 5.526-5.526 1 1 0 0 1 1.207-.737Z" clip-rule="evenodd" opacity=".5"/>
  <path fill-rule="evenodd" d="M11.568 1h.864c.252 0 .498 0 .706.017.229.019.499.063.77.201a2 2 0 0 1 .874.874c.138.271.182.541.201.77.017.208.017.454.017.706v.864c0 .252 0 .498-.017.706a2.022 2.022 0 0 1-.201.77 2 2 0 0 1-.874.874 2.022 2.022 0 0 1-.77.201C12.93 7 12.684 7 12.432 7h-.864c-.252 0-.498 0-.706-.017a2.022 2.022 0 0 1-.77-.201 2 2 0 0 1-.874-.874 2.022 2.022 0 0 1-.201-.77A9.184 9.184 0 0 1 9 4.432v-.864c0-.252 0-.498.017-.706a2.03 2.03 0 0 1 .201-.77 2 2 0 0 1 .874-.874 2.03 2.03 0 0 1 .77-.201C11.07 1 11.316 1 11.568 1Zm-.557 2.011v.014C11 3.14 11 3.303 11 3.6v.8c0 .297 0 .459.01.575l.001.014h.014c.116.01.278.011.575.011h.8a8.185 8.185 0 0 0 .588-.011l.002-.014C13 4.86 13 4.697 13 4.4v-.8a8.205 8.205 0 0 0-.011-.589h-.014A8.187 8.187 0 0 0 12.4 3h-.8a8.187 8.187 0 0 0-.589.011ZM3.568 9h.864c.252 0 .498 0 .706.017.229.019.499.063.77.201a2 2 0 0 1 .874.874c.138.271.182.541.201.77.017.208.017.454.017.706v.864c0 .252 0 .498-.017.706a2.022 2.022 0 0 1-.201.77 2 2 0 0 1-.874.874 2.022 2.022 0 0 1-.77.201C4.93 15 4.684 15 4.432 15h-.864c-.252 0-.498 0-.706-.017a2.022 2.022 0 0 1-.77-.201 2 2 0 0 1-.874-.874 2.022 2.022 0 0 1-.201-.77A9.18 9.18 0 0 1 1 12.432v-.864c0-.252 0-.498.017-.706a2.03 2.03 0 0 1 .201-.77 2 2 0 0 1 .874-.874 2.03 2.03 0 0 1 .77-.201C3.07 9 3.316 9 3.568 9Zm-.557 2.011v.014C3 11.14 3 11.303 3 11.6v.8a8.194 8.194 0 0 0 .011.589h.014c.116.01.278.011.575.011h.8c.297 0 .459 0 .575-.01l.014-.001v-.014C5 12.86 5 12.697 5 12.4v-.8a8.185 8.185 0 0 0-.011-.588l-.014-.002A8.205 8.205 0 0 0 4.4 11h-.8a8.205 8.205 0 0 0-.589.011ZM19.568 9h.864c.252 0 .498 0 .706.017.229.019.499.063.77.201a2 2 0 0 1 .874.874c.138.271.182.541.201.77.017.208.017.454.017.706v.864c0 .252 0 .498-.017.706a2.022 2.022 0 0 1-.201.77 2 2 0 0 1-.874.874 2.022 2.022 0 0 1-.77.201c-.208.017-.454.017-.706.017h-.864c-.252 0-.498 0-.706-.017a2.022 2.022 0 0 1-.77-.201 2 2 0 0 1-.874-.874 2.022 2.022 0 0 1-.201-.77C17 12.93 17 12.684 17 12.432v-.864c0-.252 0-.498.017-.706a2.03 2.03 0 0 1 .201-.77 2 2 0 0 1 .874-.874 2.03 2.03 0 0 1 .77-.201C19.07 9 19.316 9 19.568 9Zm-.556 2.011-.002.014c-.01.116-.01.278-.01.575v.8c0 .296 0 .459.01.575l.001.014h.014c.116.01.279.011.575.011h.8a8.207 8.207 0 0 0 .589-.011v-.014c.01-.116.011-.278.011-.575v-.8a8.207 8.207 0 0 0-.012-.588l-.013-.002A8.207 8.207 0 0 0 20.4 11h-.8a8.207 8.207 0 0 0-.588.011ZM11.568 17h.864c.252 0 .498 0 .706.017.229.019.499.063.77.201a2 2 0 0 1 .874.874c.138.271.182.541.201.77.017.208.017.454.017.706v.864c0 .252 0 .498-.017.706a2.022 2.022 0 0 1-.201.77 2 2 0 0 1-.874.874 2.022 2.022 0 0 1-.77.201c-.208.017-.454.017-.706.017h-.864c-.252 0-.498 0-.706-.017a2.022 2.022 0 0 1-.77-.201 2 2 0 0 1-.874-.874 2.022 2.022 0 0 1-.201-.77A9.182 9.182 0 0 1 9 20.432v-.864c0-.252 0-.498.017-.706a2.03 2.03 0 0 1 .201-.77 2 2 0 0 1 .874-.874 2.02 2.02 0 0 1 .77-.201c.208-.017.454-.017.706-.017Zm-.556 2.012-.002.013c-.01.116-.01.279-.01.575v.8c0 .297 0 .459.01.575l.001.013.014.002c.116.01.278.01.575.01h.8a8.207 8.207 0 0 0 .588-.012l.002-.013c.01-.116.01-.279.01-.575v-.8a8.207 8.207 0 0 0-.011-.588l-.014-.002A8.207 8.207 0 0 0 12.4 19h-.8a8.207 8.207 0 0 0-.588.012Z" clip-rule="evenodd"/>
</svg>
