<svg xmlns="http://www.w3.org/2000/svg" width="24" height="24" viewBox="0 0 24 24">
  <path d="M2 16.6c0-.56 0-.84.109-1.054a1 1 0 0 1 .437-.437C2.76 15 3.04 15 3.6 15h.8c.56 0 .84 0 1.054.109a1 1 0 0 1 .437.437C6 15.76 6 16.04 6 16.6v.8c0 .56 0 .84-.109 1.054a1 1 0 0 1-.437.437C5.24 19 4.96 19 4.4 19h-.8c-.56 0-.84 0-1.054-.109a1 1 0 0 1-.437-.437C2 18.24 2 17.96 2 17.4v-.8Zm8-10c0-.56 0-.84.109-1.054a1 1 0 0 1 .437-.437C10.76 5 11.04 5 11.6 5h.8c.56 0 .84 0 1.054.109a1 1 0 0 1 .437.437C14 5.76 14 6.04 14 6.6v.8c0 .56 0 .84-.109 1.054a1 1 0 0 1-.437.437C13.24 9 12.96 9 12.4 9h-.8c-.56 0-.84 0-1.054-.109a1 1 0 0 1-.437-.437C10 8.24 10 7.96 10 7.4v-.8Zm8 10c0-.56 0-.84.109-1.054a1 1 0 0 1 .437-.437C18.76 15 19.04 15 19.6 15h.8c.56 0 .84 0 1.054.109a1 1 0 0 1 .437.437C22 15.76 22 16.04 22 16.6v.8c0 .56 0 .84-.109 1.054a1 1 0 0 1-.437.437C21.24 19 20.96 19 20.4 19h-.8c-.56 0-.84 0-1.054-.109a1 1 0 0 1-.437-.437C18 18.24 18 17.96 18 17.4v-.8Z" opacity=".2"/>
  <path fill-rule="evenodd" d="M11.568 4h.864c.252 0 .498 0 .706.017.229.019.499.063.77.201a2 2 0 0 1 .874.874c.138.271.182.541.201.77.004.044.006.09.009.138h4.276A2 2 0 0 1 23 7a2 2 0 0 1-3.732 1h-1.61a8.986 8.986 0 0 1 3.288 6.006c.067.002.131.006.192.01.229.02.499.064.77.202a2 2 0 0 1 .874.874c.138.271.182.541.201.77.017.208.017.454.017.706v.864c0 .252 0 .498-.017.706a2.022 2.022 0 0 1-.201.77 2 2 0 0 1-.874.874 2.022 2.022 0 0 1-.77.201c-.208.017-.454.017-.706.017h-.864c-.252 0-.498 0-.706-.017a2.022 2.022 0 0 1-.77-.201 2 2 0 0 1-.874-.874 2.02 2.02 0 0 1-.201-.77C17 17.93 17 17.684 17 17.432v-.864c0-.252 0-.498.017-.706a2.02 2.02 0 0 1 .201-.77 2 2 0 0 1 .874-.874 2.022 2.022 0 0 1 .839-.206 7.009 7.009 0 0 0-4.035-5.387 1.731 1.731 0 0 1-.114.283 2 2 0 0 1-.874.874 2.022 2.022 0 0 1-.77.201c-.208.017-.454.017-.706.017h-.864c-.252 0-.498 0-.706-.017a2.022 2.022 0 0 1-.77-.201 2 2 0 0 1-.874-.874 1.73 1.73 0 0 1-.114-.283 7.009 7.009 0 0 0-4.035 5.387l.07.005c.228.019.498.063.769.201a2 2 0 0 1 .874.874c.138.271.182.541.201.77.017.208.017.454.017.706v.864c0 .252 0 .498-.017.706a2.022 2.022 0 0 1-.201.77 2 2 0 0 1-.874.874 2.022 2.022 0 0 1-.77.201C4.93 20 4.684 20 4.432 20h-.864c-.252 0-.498 0-.706-.017a2.022 2.022 0 0 1-.77-.201 2 2 0 0 1-.874-.874 2.022 2.022 0 0 1-.201-.77C1 17.93 1 17.684 1 17.432v-.864c0-.252 0-.498.017-.706a2.03 2.03 0 0 1 .201-.77 2 2 0 0 1 .874-.874 2.03 2.03 0 0 1 .77-.201c.061-.005.125-.009.192-.011A8.985 8.985 0 0 1 6.343 8h-1.61a2 2 0 1 1 0-2h4.275c.002-.048.005-.094.009-.138a2.03 2.03 0 0 1 .201-.77 2 2 0 0 1 .874-.874 2.03 2.03 0 0 1 .77-.201C11.07 4 11.316 4 11.568 4ZM11 7.23V6.6a8.205 8.205 0 0 1 .011-.589h.014C11.14 6 11.303 6 11.6 6h.8a8.194 8.194 0 0 1 .589.011v.014c.01.116.011.278.011.575v.8c0 .297 0 .459-.01.575l-.001.014h-.014C12.86 8 12.697 8 12.4 8h-.8a8.194 8.194 0 0 1-.588-.011l-.002-.014A8.205 8.205 0 0 1 11 7.4v-.169Zm-7.989 8.781v.014C3 16.14 3 16.304 3 16.6v.8a8.187 8.187 0 0 0 .011.589h.014c.116.01.278.011.575.011h.8c.297 0 .459 0 .575-.01l.014-.001v-.014C5 17.86 5 17.696 5 17.4v-.8a8.185 8.185 0 0 0-.011-.589h-.014A8.205 8.205 0 0 0 4.4 16h-.8c-.297 0-.459 0-.575.01l-.014.001Zm16 0v.014c-.01.116-.011.279-.011.575v.8a8.207 8.207 0 0 0 .012.588l.013.002c.116.01.279.01.575.01h.8a8.207 8.207 0 0 0 .589-.012v-.013c.01-.116.011-.279.011-.575v-.8a8.207 8.207 0 0 0-.012-.589h-.013A8.207 8.207 0 0 0 20.4 16h-.8c-.297 0-.459 0-.575.01l-.013.001Z" clip-rule="evenodd"/>
</svg>
