<svg xmlns="http://www.w3.org/2000/svg" width="24" height="24" viewBox="0 0 24 24">
  <path fill-rule="evenodd" d="M11.353 6.132a1 1 0 0 1 .372 1.364l-5.714 10a1 1 0 0 1-1.736-.992l5.714-10a1 1 0 0 1 1.364-.372Zm1.294 0a1 1 0 0 1 1.364.372l5.714 10a1 1 0 0 1-1.736.992l-5.714-10a1 1 0 0 1 .372-1.364ZM5 19a1 1 0 0 1 1-1h12a1 1 0 1 1 0 2H6a1 1 0 0 1-1-1Z" clip-rule="evenodd" opacity=".5"/>
  <path fill-rule="evenodd" d="M11.568 2h.864c.252 0 .498 0 .706.017.229.019.499.063.77.201a2 2 0 0 1 .874.874c.138.271.182.541.201.77.017.208.017.454.017.706v.864c0 .252 0 .498-.017.706a2.022 2.022 0 0 1-.201.77 2 2 0 0 1-.874.874 2.022 2.022 0 0 1-.77.201C12.93 8 12.684 8 12.432 8h-.864c-.252 0-.498 0-.706-.017a2.022 2.022 0 0 1-.77-.201 2 2 0 0 1-.874-.874 2.021 2.021 0 0 1-.201-.77C9 5.93 9 5.684 9 5.432v-.864c0-.252 0-.498.017-.706a2.03 2.03 0 0 1 .201-.77 2 2 0 0 1 .874-.874 2.03 2.03 0 0 1 .77-.201C11.07 2 11.316 2 11.568 2Zm-.557 2.011v.014C11 4.14 11 4.303 11 4.6v.8c0 .297 0 .459.01.575l.001.014h.014c.116.01.278.011.575.011h.8a8.185 8.185 0 0 0 .589-.011v-.014C13 5.86 13 5.697 13 5.4v-.8c0-.297 0-.459-.01-.575l-.001-.014A8.187 8.187 0 0 0 12.4 4h-.8a8.187 8.187 0 0 0-.589.011ZM3.568 16h.864c.252 0 .498 0 .706.017.229.019.499.063.77.201a2 2 0 0 1 .874.874c.138.271.182.541.201.77.017.208.017.454.017.706v.864c0 .252 0 .498-.017.706a2.022 2.022 0 0 1-.201.77 2 2 0 0 1-.874.874 2.022 2.022 0 0 1-.77.201C4.93 22 4.684 22 4.432 22h-.864c-.252 0-.498 0-.706-.017a2.022 2.022 0 0 1-.77-.201 2 2 0 0 1-.874-.874 2.022 2.022 0 0 1-.201-.77C1 19.93 1 19.684 1 19.432v-.864c0-.252 0-.498.017-.706a2.03 2.03 0 0 1 .201-.77 2 2 0 0 1 .874-.874 2.03 2.03 0 0 1 .77-.201C3.07 16 3.316 16 3.568 16Zm-.557 2.012v.013C3 18.14 3 18.304 3 18.6v.8a8.194 8.194 0 0 0 .011.588l.014.002c.116.01.278.01.575.01h.8a8.205 8.205 0 0 0 .589-.012v-.013C5 19.86 5 19.696 5 19.4v-.8a8.194 8.194 0 0 0-.011-.588l-.014-.002A8.205 8.205 0 0 0 4.4 18h-.8a8.205 8.205 0 0 0-.589.012ZM19.568 16h.864c.252 0 .498 0 .706.017.229.019.499.063.77.201a2 2 0 0 1 .874.874c.138.271.182.541.201.77.017.208.017.454.017.706v.864c0 .252 0 .498-.017.706a2.022 2.022 0 0 1-.201.77 2 2 0 0 1-.874.874 2.022 2.022 0 0 1-.77.201c-.208.017-.454.017-.706.017h-.864c-.252 0-.498 0-.706-.017a2.022 2.022 0 0 1-.77-.201 2 2 0 0 1-.874-.874 2.022 2.022 0 0 1-.201-.77C17 19.93 17 19.684 17 19.432v-.864c0-.252 0-.498.017-.706a2.03 2.03 0 0 1 .201-.77 2 2 0 0 1 .874-.874 2.03 2.03 0 0 1 .77-.201c.208-.017.454-.017.706-.017Zm-.556 2.012-.002.013c-.01.116-.01.279-.01.575v.8c0 .297 0 .459.01.575l.001.013.014.002c.116.01.279.01.575.01h.8a8.207 8.207 0 0 0 .589-.012v-.013c.01-.116.011-.279.011-.575v-.8a8.207 8.207 0 0 0-.012-.588l-.013-.002A8.207 8.207 0 0 0 20.4 18h-.8a8.207 8.207 0 0 0-.588.012Z" clip-rule="evenodd"/>
</svg>
