<svg xmlns="http://www.w3.org/2000/svg" width="24" height="24" viewBox="0 0 24 24">
  <path fill-rule="evenodd" d="M11.568 1h.864c.252 0 .498 0 .706.017.229.019.499.063.77.201a2 2 0 0 1 .874.874c.138.271.182.541.201.77l.008.119a9.522 9.522 0 0 1 6.029 6.028l.118.008c.229.019.499.063.77.201a2 2 0 0 1 .874.874c.138.271.182.541.201.77.017.208.017.454.017.706v.864c0 .252 0 .498-.017.706a2.022 2.022 0 0 1-.201.77 2 2 0 0 1-.874.874 2.022 2.022 0 0 1-.77.201 4.082 4.082 0 0 1-.118.008 9.522 9.522 0 0 1-6.03 6.028 3.79 3.79 0 0 1-.007.12 2.022 2.022 0 0 1-.201.769 2 2 0 0 1-.874.874 2.022 2.022 0 0 1-.77.201c-.208.017-.454.017-.706.017h-.864c-.252 0-.498 0-.706-.017a2.022 2.022 0 0 1-.77-.201 2 2 0 0 1-.874-.874 2.022 2.022 0 0 1-.201-.77 3.943 3.943 0 0 1-.008-.119 9.522 9.522 0 0 1-6.028-6.028 3.78 3.78 0 0 1-.12-.008 2.022 2.022 0 0 1-.769-.201 2 2 0 0 1-.874-.874 2.022 2.022 0 0 1-.201-.77C1 12.93 1 12.684 1 12.432v-.864c0-.252 0-.498.017-.706a2.03 2.03 0 0 1 .201-.77 2 2 0 0 1 .874-.874 2.03 2.03 0 0 1 .77-.201l.119-.008a9.522 9.522 0 0 1 6.028-6.028l.008-.12a2.03 2.03 0 0 1 .201-.769 2 2 0 0 1 .874-.874 2.03 2.03 0 0 1 .77-.201C11.07 1 11.316 1 11.568 1ZM11 3.767V3.6a8.205 8.205 0 0 1 .011-.589h.014C11.14 3 11.303 3 11.6 3h.8a8.187 8.187 0 0 1 .589.011v.014c.01.116.011.278.011.575v.8c0 .297 0 .459-.01.575l-.001.014A8.185 8.185 0 0 1 12.4 5h-.8a8.185 8.185 0 0 1-.588-.011l-.002-.014A8.205 8.205 0 0 1 11 4.4v-.633Zm-1.985 1.35a7.53 7.53 0 0 0-3.898 3.898l.021.002c.229.019.499.063.77.201a2 2 0 0 1 .874.874c.138.271.182.541.201.77.017.208.017.454.017.706v.864c0 .252 0 .498-.017.706a2.022 2.022 0 0 1-.201.77 2 2 0 0 1-.874.874 2.022 2.022 0 0 1-.77.201l-.02.002a7.53 7.53 0 0 0 3.897 3.898l.002-.021a2.03 2.03 0 0 1 .201-.77 2 2 0 0 1 .874-.874 2.02 2.02 0 0 1 .77-.201c.208-.017.454-.017.706-.017h.864c.252 0 .498 0 .706.017.229.019.499.063.77.201a2 2 0 0 1 .874.874c.138.271.182.541.201.77l.002.02a7.53 7.53 0 0 0 3.898-3.897l-.021-.002a2.022 2.022 0 0 1-.77-.201 2 2 0 0 1-.874-.874 2.02 2.02 0 0 1-.201-.77C17 12.93 17 12.684 17 12.432v-.864c0-.252 0-.498.017-.706a2.02 2.02 0 0 1 .201-.77 2 2 0 0 1 .874-.874 2.022 2.022 0 0 1 .791-.203 7.53 7.53 0 0 0-3.898-3.898l-.002.021a2.022 2.022 0 0 1-.201.77 2 2 0 0 1-.874.874 2.022 2.022 0 0 1-.77.201C12.93 7 12.684 7 12.432 7h-.864c-.252 0-.498 0-.706-.017a2.022 2.022 0 0 1-.77-.201 2 2 0 0 1-.874-.874 2.022 2.022 0 0 1-.203-.79ZM20.247 11H19.6a8.207 8.207 0 0 0-.588.011l-.002.014c-.01.116-.01.278-.01.575v.8a8.207 8.207 0 0 0 .012.588l.013.002c.116.01.279.01.575.01h.8a8.207 8.207 0 0 0 .589-.011v-.014c.01-.116.011-.278.011-.575v-.8a8.207 8.207 0 0 0-.012-.588l-.013-.002A8.207 8.207 0 0 0 20.4 11h-.152ZM11 20.27v-.67a8.207 8.207 0 0 1 .011-.588l.014-.002c.116-.01.278-.01.575-.01h.8a8.207 8.207 0 0 1 .588.012l.002.013c.01.116.01.279.01.575v.8c0 .297 0 .459-.01.575l-.001.013-.014.002c-.116.01-.278.01-.575.01h-.8a8.207 8.207 0 0 1-.588-.012l-.002-.013A8.207 8.207 0 0 1 11 20.4v-.13ZM3.761 13H4.4c.297 0 .459 0 .575-.01l.014-.001v-.014C5 12.86 5 12.697 5 12.4v-.8a8.185 8.185 0 0 0-.011-.588l-.014-.002A8.205 8.205 0 0 0 4.4 11h-.8a8.205 8.205 0 0 0-.589.011v.014C3 11.14 3 11.303 3 11.6v.8a8.187 8.187 0 0 0 .011.589h.014c.116.01.278.011.575.011h.161Z" clip-rule="evenodd"/>
</svg>
