<svg xmlns="http://www.w3.org/2000/svg" width="24" height="24" viewBox="0 0 24 24">
  <path fill-rule="evenodd" d="M11.576 1.094a1 1 0 0 1 1.064.138l6 5a1 1 0 0 1 0 1.536l-3.31 2.758a1 1 0 0 1-1.28-1.536L16.438 7 13 4.135V7.5a1 1 0 1 1-2 0V2a1 1 0 0 1 .576-.906Z" clip-rule="evenodd" opacity=".5"/>
  <path fill-rule="evenodd" d="M2.293 2.293a1 1 0 0 1 1.414 0l8.995 8.994.01.011 8.995 8.995a1 1 0 0 1-1.414 1.414l-2.9-2.9-4.753 3.961A1 1 0 0 1 11 22v-7.865l-4.36 3.633a1 1 0 1 1-1.28-1.536l5.159-4.3-8.226-8.225a1 1 0 0 1 0-1.414ZM13 14.414v5.451l2.973-2.478L13 14.414Z" clip-rule="evenodd"/>
</svg>
