<svg xmlns="http://www.w3.org/2000/svg" width="24" height="24" viewBox="0 0 24 24">
  <path d="M12 12v10l5.44-4.533L12 12Z" opacity=".2"/>
  <path fill-rule="evenodd" d="M11.576 1.094a1 1 0 0 1 1.064.138l6 5a1 1 0 0 1 0 1.536L15.722 10.2a1 1 0 0 1-1.28-1.536L16.438 7 13 4.135V7a1 1 0 1 1-2 0V2a1 1 0 0 1 .576-.906ZM2.293 2.293a1 1 0 0 1 1.414 0l8.995 8.994a.53.53 0 0 1 .01.011l8.995 8.995a1 1 0 0 1-1.414 1.414l-2.9-2.9-4.753 3.961A1 1 0 0 1 11 22v-7.865l-4.36 3.633a1 1 0 1 1-1.28-1.536l5.159-4.3-8.226-8.225a1 1 0 0 1 0-1.414ZM13 14.414v5.451l2.973-2.478L13 14.414Z" clip-rule="evenodd"/>
</svg>
