<svg xmlns="http://www.w3.org/2000/svg" width="24" height="24" viewBox="0 0 24 24">
  <path fill-rule="evenodd" d="M20.032 5.024C19.75 5 19.377 5 18.8 5h-.4c-1.137 0-1.929 0-2.546.051-.605.05-.953.142-1.216.276a3 3 0 0 0-1.311 1.311c-.134.263-.226.611-.276 1.216-.05.617-.051 1.41-.051 2.546V19h5.8c.577 0 .949 0 1.232-.024.272-.022.372-.06.422-.085a1 1 0 0 0 .437-.437c.025-.05.063-.15.085-.422C21 17.75 21 17.377 21 16.8V7.2c0-.577 0-.949-.024-1.232-.022-.272-.06-.373-.085-.422a1 1 0 0 0-.437-.437c-.05-.025-.15-.063-.422-.085Zm.163-1.993c.395.032.789.103 1.167.296a3 3 0 0 1 1.311 1.311c.193.378.264.772.296 1.167.031.375.031.83.031 1.356v9.677c0 .528 0 .982-.03 1.357-.033.395-.104.789-.297 1.167a3 3 0 0 1-1.311 1.311c-.378.193-.772.264-1.167.296-.375.031-.83.031-1.356.031H12a1 1 0 0 1-1-1v-9.643c0-1.084 0-1.958.058-2.666.06-.728.185-1.369.487-1.96a5 5 0 0 1 2.185-2.186c.592-.302 1.232-.428 1.961-.487C16.4 3 17.273 3 18.357 3h.482c.527 0 .982 0 1.356.03Z" clip-rule="evenodd" opacity=".5"/>
  <path fill-rule="evenodd" d="M5.161 3h.482c1.084 0 1.958 0 2.666.058.728.06 1.369.185 1.961.487a5 5 0 0 1 2.185 2.185c.302.592.428 1.233.487 1.961C13 8.4 13 9.273 13 10.357V20a1 1 0 0 1-1 1H5.161c-.527 0-.981 0-1.356-.03-.395-.033-.789-.104-1.167-.297a3 3 0 0 1-1.311-1.311c-.193-.378-.264-.772-.296-1.167C1 17.82 1 17.365 1 16.838V7.162c0-.527 0-.981.03-1.356.033-.395.104-.789.297-1.167a3 3 0 0 1 1.311-1.311c.378-.193.772-.264 1.167-.296C4.18 3 4.635 3 5.161 3ZM3.968 5.024c-.272.022-.373.06-.422.085a1 1 0 0 0-.437.437c-.025.05-.063.15-.085.422C3 6.25 3 6.623 3 7.2v9.6c0 .577 0 .949.024 1.232.022.272.06.372.085.422a1 1 0 0 0 .437.437c.05.025.15.063.422.085C4.25 19 4.623 19 5.2 19H11v-8.6c0-1.137 0-1.929-.051-2.546-.05-.605-.142-.953-.276-1.216a3 3 0 0 0-1.311-1.311c-.263-.134-.611-.226-1.216-.276C7.529 5.001 6.736 5 5.6 5h-.4c-.577 0-.949 0-1.232.024Z" clip-rule="evenodd"/>
</svg>
