<svg xmlns="http://www.w3.org/2000/svg" width="24" height="24" viewBox="0 0 24 24">
  <path fill-rule="evenodd" d="M5.161 2h.482c1.084 0 1.958 0 2.666.058.728.06 1.369.185 1.961.487A5 5 0 0 1 12 4a5 5 0 0 1 1.73-1.455c.592-.302 1.232-.428 1.961-.487C16.4 2 17.273 2 18.357 2h.482c.527 0 .982 0 1.356.03.395.033.789.104 1.167.297a3 3 0 0 1 1.311 1.311c.193.378.264.772.296 1.167.031.375.031.83.031 1.356v8.678c0 .527 0 .981-.03 1.356-.033.395-.104.789-.297 1.167a3 3 0 0 1-1.311 1.311c-.378.193-.772.264-1.167.296-.375.031-.83.031-1.356.031h-1.414c-1.314 0-1.763.01-2.156.13a2.997 2.997 0 0 0-1.033.552c-.317.261-.575.629-1.304 1.723l-.1.15a1 1 0 0 1-1.664 0l-.1-.15c-.73-1.094-.987-1.462-1.304-1.723a2.999 2.999 0 0 0-1.033-.552c-.393-.12-.842-.13-2.156-.13H5.16c-.527 0-.981 0-1.356-.03-.395-.033-.789-.104-1.167-.297a3 3 0 0 1-1.311-1.311c-.193-.378-.264-.772-.296-1.167C1 15.82 1 15.365 1 14.838V6.162c0-.527 0-.981.03-1.356.033-.395.104-.789.297-1.167a3 3 0 0 1 1.311-1.311c.378-.193.772-.264 1.167-.296C4.18 2 4.635 2 5.161 2ZM11 9.4c0-1.137 0-1.929-.051-2.546-.05-.605-.142-.953-.276-1.216a3 3 0 0 0-1.311-1.311c-.263-.134-.611-.226-1.216-.276C7.529 4.001 6.736 4 5.6 4h-.4c-.577 0-.949 0-1.232.024-.272.022-.373.06-.422.085a1 1 0 0 0-.437.437c-.025.05-.063.15-.085.422C3 5.25 3 5.623 3 6.2v8.6c0 .577 0 .949.024 1.232.022.272.06.372.085.422a1 1 0 0 0 .437.437c.05.025.15.063.422.085C4.25 17 4.623 17 5.2 17h1.522c1.11 0 1.877 0 2.59.216.615.186 1.188.49 1.688.893V9.4Zm2 8.71a5 5 0 0 1 1.688-.894c.713-.217 1.48-.216 2.59-.216H18.8c.577 0 .949 0 1.232-.024.272-.022.373-.06.422-.085a1 1 0 0 0 .437-.437c.025-.05.063-.15.085-.422C21 15.75 21 15.377 21 14.8V6.2c0-.577 0-.949-.024-1.232-.022-.272-.06-.373-.085-.422a1 1 0 0 0-.437-.437c-.05-.025-.15-.063-.422-.085C19.75 4 19.377 4 18.8 4h-.4c-1.137 0-1.929 0-2.546.051-.605.05-.953.142-1.216.276a3 3 0 0 0-1.311 1.311c-.134.263-.226.611-.276 1.216-.05.617-.051 1.41-.051 2.546v8.71Z" clip-rule="evenodd"/>
</svg>
