<svg xmlns="http://www.w3.org/2000/svg" width="24" height="24" viewBox="0 0 24 24">
  <path d="M16.8 2h-8c-1.68 0-2.52 0-3.162.327a3 3 0 0 0-1.311 1.311C4 4.28 4 5.12 4 6.8V19a3 3 0 0 1 3-3h13V5.2c0-1.12 0-1.68-.218-2.108a2 2 0 0 0-.874-.874C18.48 2 17.92 2 16.8 2Z" opacity=".2"/>
  <path fill-rule="evenodd" d="M18.032 3.024C17.75 3 17.377 3 16.8 3h-8c-.857 0-1.439 0-1.889.038-.438.035-.663.1-.819.18a2 2 0 0 0-.874.874c-.08.156-.145.38-.18.819C5 5.361 5 5.943 5 6.8v8.735A3.982 3.982 0 0 1 7 15h12V5.2c0-.577 0-.949-.024-1.232-.022-.272-.06-.373-.085-.422a1 1 0 0 0-.437-.437c-.05-.025-.15-.063-.422-.085ZM21 5.16c0-.527 0-.981-.03-1.356-.033-.395-.104-.789-.297-1.167a3 3 0 0 0-1.311-1.311c-.378-.193-.772-.264-1.167-.296C17.82 1 17.365 1 16.838 1h-8.08c-.804 0-1.469 0-2.01.044-.562.046-1.079.145-1.564.392a4 4 0 0 0-1.748 1.748c-.247.485-.346 1.002-.392 1.564C3 5.29 3 5.954 3 6.758v10.483c0 .539 0 1.014.013 1.432A4.054 4.054 0 0 0 3 19c0 .108.017.213.05.31.047.54.147 1.038.386 1.506a4 4 0 0 0 1.748 1.748c.485.247 1.002.346 1.564.392C7.29 23 7.954 23 8.758 23h8.08c.528 0 .982 0 1.357-.03.395-.033.789-.104 1.167-.297a3 3 0 0 0 1.311-1.311c.193-.378.264-.772.296-1.167.028-.334.03-.731.031-1.187V5.161ZM5.017 18.74c.005.125.012.24.02.349.036.438.101.663.181.819a2 2 0 0 0 .874.874c.156.08.38.145.819.18C7.361 21 7.943 21 8.8 21h8c.577 0 .949 0 1.232-.024.272-.022.372-.06.422-.085a1 1 0 0 0 .437-.437c.025-.05.063-.15.085-.422C19 19.75 19 19.377 19 18.8V17H7a2 2 0 0 0-1.983 1.74Z" clip-rule="evenodd"/>
</svg>
