<svg xmlns="http://www.w3.org/2000/svg" width="24" height="24" viewBox="0 0 24 24">
  <path fill-rule="evenodd" d="M20.5 8v8.2c0 1.68 0 2.52-.327 3.162a3 3 0 0 1-1.311 1.311C18.22 21 17.38 21 15.7 21H8.3c-1.68 0-2.52 0-3.162-.327a3 3 0 0 1-1.311-1.311C3.5 18.72 3.5 17.88 3.5 16.2V8h17ZM9.6 11.5h4.8c.56 0 .84 0 1.054.109a1 1 0 0 1 .437.437C16 12.26 16 12.54 16 13.1v.8c0 .56 0 .84-.109 1.054a1 1 0 0 1-.437.437c-.214.109-.494.109-1.054.109H9.6c-.56 0-.84 0-1.054-.109a1 1 0 0 1-.437-.437C8 14.74 8 14.46 8 13.9v-.8c0-.56 0-.84.109-1.054a1 1 0 0 1 .437-.437C8.76 11.5 9.04 11.5 9.6 11.5Z" clip-rule="evenodd" opacity=".2"/>
  <path fill-rule="evenodd" d="M9.6 16.5h4.8c.65 0 1.08 0 1.51-.22.37-.19.68-.49.87-.87.22-.43.22-.86.22-1.51v-.8c0-.65 0-1.08-.22-1.51-.19-.38-.49-.68-.87-.87-.43-.22-.86-.22-1.51-.22H9.6c-.65 0-1.08 0-1.51.22-.37.19-.68.49-.87.87-.22.43-.22.86-.22 1.51v.8c0 .65 0 1.08.22 1.51.19.37.49.68.87.87.43.22.86.22 1.51.22Zm-.65-3.98c.08-.02.37-.02.65-.02h4.8c.28 0 .57 0 .58-.05.02.08.02.37.02.65v.8c0 .28 0 .57.05.58-.08.02-.37.02-.65.02H9.6c-.28 0-.57 0-.58.05C9 14.47 9 14.18 9 13.9v-.8c0-.28 0-.57-.05-.58Z" clip-rule="evenodd"/>
  <path fill-rule="evenodd" d="M8.3 22h7.38c1.84 0 2.76 0 3.62-.44a4 4 0 0 0 1.75-1.75c.44-.86.44-1.78.44-3.62V8.92c.14-.03.28-.08.41-.15.37-.19.68-.49.87-.87.22-.43.22-.86.22-1.51v-1.8c0-.65 0-1.08-.22-1.51-.19-.38-.49-.68-.87-.87-.43-.22-.86-.22-1.51-.22H3.59c-.65 0-1.08 0-1.51.22-.37.19-.68.49-.87.87-.22.43-.22.86-.22 1.51v1.8c0 .65 0 1.08.22 1.51.19.37.49.68.87.87.14.07.27.12.41.15v7.27c0 1.84 0 2.76.44 3.62a4 4 0 0 0 1.75 1.75c.86.44 1.78.44 3.62.44Zm-3.8-5.8V9h15v7.2c0 1.47 0 2.28-.22 2.71-.19.37-.49.68-.87.87-.43.22-1.24.22-2.71.22H8.3c-1.47 0-2.28 0-2.71-.22-.37-.19-.68-.49-.87-.87-.22-.43-.22-1.24-.22-2.71ZM2.95 4.02C3.03 4 3.32 4 3.6 4h16.8c.28 0 .57 0 .58-.05.02.08.02.37.02.65v1.8c0 .28 0 .57.05.58-.08.02-.37.02-.65.02H3.5c-.24 0-.47.01-.48.05C3 6.97 3 6.68 3 6.4V4.6c0-.28 0-.57-.05-.58Z" clip-rule="evenodd"/>
</svg>
