<svg xmlns="http://www.w3.org/2000/svg" width="24" height="24" viewBox="0 0 24 24">
  <path d="M14.4 16.5H9.6c-.65 0-1.08 0-1.51-.22-.38-.19-.68-.5-.87-.87C7 14.98 7 14.55 7 13.9v-.8c0-.65 0-1.08.22-1.51.19-.38.5-.68.87-.87.43-.22.86-.22 1.51-.22h4.8c.65 0 1.08 0 1.51.22.38.19.68.49.87.87.22.43.22.86.22 1.51v.8c0 .65 0 1.08-.22 1.51-.19.38-.5.68-.87.87-.43.22-.86.22-1.51.22Zm-4.8-4c-.28 0-.57 0-.65.02.05.01.05.3.05.58v.8c0 .28 0 .57.02.65.01-.05.3-.05.58-.05h4.8c.28 0 .57 0 .65-.02-.05-.01-.05-.3-.05-.58v-.8c0-.28 0-.57-.02-.65-.01.05-.3.05-.58.05H9.6Z" opacity=".5"/>
  <path d="M15.7 22H8.3c-1.84 0-2.76 0-3.62-.44a4 4 0 0 1-1.75-1.75c-.44-.86-.44-1.78-.44-3.62V8.92c-.14-.03-.27-.08-.41-.15-.38-.19-.68-.5-.87-.87-.22-.43-.22-.86-.22-1.51v-1.8c0-.65 0-1.08.22-1.51.19-.38.5-.68.87-.87.43-.22.86-.22 1.51-.22h16.8c.65 0 1.08 0 1.51.22.38.19.68.49.87.87.22.43.22.86.22 1.51v1.8c0 .65 0 1.08-.22 1.51-.19.38-.5.68-.87.87-.13.07-.27.12-.41.15v7.27c0 1.84 0 2.76-.44 3.62a4 4 0 0 1-1.75 1.75c-.86.44-1.78.44-3.62.44h.02ZM4.5 9v7.2c0 1.47 0 2.28.22 2.71.19.38.5.68.87.87.43.22 1.24.22 2.71.22h7.4c1.47 0 2.28 0 2.71-.22.38-.19.68-.5.87-.87.22-.43.22-1.24.22-2.71V9h-15Zm-.9-5c-.28 0-.57 0-.65.02.05.01.05.3.05.58v1.8c0 .28 0 .57.02.65.01-.04.24-.05.48-.05h16.9c.28 0 .57 0 .65-.02-.05-.01-.05-.3-.05-.58V4.6c0-.28 0-.57-.02-.65-.01.05-.3.05-.58.05H3.6Z"/>
</svg>
