<svg xmlns="http://www.w3.org/2000/svg" width="24" height="24" viewBox="0 0 24 24">
  <path fill-rule="evenodd" d="M8 6a1 1 0 0 1 1 1v14a1 1 0 1 1-2 0V7a1 1 0 0 1 1-1Zm8 0a1 1 0 0 1 1 1v14a1 1 0 1 1-2 0V7a1 1 0 0 1 1-1Z" clip-rule="evenodd" opacity=".5"/>
  <path fill-rule="evenodd" d="M11.862 2a309.695 309.695 0 0 0 .276 0c.795 0 1.386 0 1.897.136a4 4 0 0 1 2.829 2.829c.082.307.115.643.128 1.035h1.846c.528 0 .982 0 1.357.03.395.033.789.104 1.167.297a3 3 0 0 1 1.311 1.311c.193.378.264.772.296 1.167.031.375.031.83.031 1.356v7.678c0 .527 0 .982-.03 1.356-.033.395-.104.789-.297 1.167a3 3 0 0 1-1.311 1.311c-.378.193-.772.264-1.167.296-.375.031-.83.031-1.356.031H5.16c-.527 0-.981 0-1.356-.03-.395-.033-.789-.104-1.167-.297a3 3 0 0 1-1.311-1.311c-.193-.378-.264-.772-.296-1.167C1 18.82 1 18.365 1 17.838v-7.677c0-.527 0-.981.03-1.356.033-.395.104-.789.297-1.167a3 3 0 0 1 1.311-1.311c.378-.193.772-.264 1.167-.296C4.18 6 4.635 6 5.161 6h1.847c.013-.392.046-.728.128-1.035a4 4 0 0 1 2.829-2.829C10.476 2 11.067 2 11.862 2ZM5.2 8c-.577 0-.949 0-1.232.024-.272.022-.373.06-.422.085a1 1 0 0 0-.437.437c-.025.05-.063.15-.085.422C3 9.25 3 9.623 3 10.2v7.6c0 .577 0 .949.024 1.232.022.272.06.373.085.422a1 1 0 0 0 .437.437c.05.025.15.063.422.085C4.25 20 4.623 20 5.2 20h13.6c.577 0 .949 0 1.232-.024.272-.022.372-.06.422-.085a1 1 0 0 0 .437-.437c.025-.05.063-.15.085-.422C21 18.75 21 18.377 21 17.8v-7.6c0-.577 0-.949-.024-1.232-.022-.272-.06-.373-.085-.422a1 1 0 0 0-.437-.437c-.05-.025-.15-.063-.422-.085C19.75 8 19.377 8 18.8 8H5.2Zm9.79-2H9.01c.01-.258.026-.399.058-.518a2 2 0 0 1 1.414-1.414C10.705 4.008 11.006 4 12 4s1.295.009 1.518.068a2 2 0 0 1 1.414 1.414c.032.12.049.26.058.518Z" clip-rule="evenodd"/>
</svg>
