<svg xmlns="http://www.w3.org/2000/svg" width="24" height="24" viewBox="0 0 24 24">
  <path fill-rule="evenodd" d="M11.862 2a309.251 309.251 0 0 0 .276 0c.795 0 1.386 0 1.897.136a4 4 0 0 1 2.829 2.829C17 5.476 17 6.067 17 6.862V7a1 1 0 1 1-2 0c0-.994-.009-1.295-.068-1.518a2 2 0 0 0-1.414-1.414C13.295 4.008 12.994 4 12 4s-1.295.009-1.518.068a2 2 0 0 0-1.414 1.414C9.008 5.705 9 6.006 9 7a1 1 0 1 1-2 0v-.138c0-.795 0-1.386.136-1.897a4 4 0 0 1 2.829-2.829C10.476 2 11.067 2 11.862 2Z" clip-rule="evenodd" opacity=".5"/>
  <path fill-rule="evenodd" d="M5.161 6H18.84c.527 0 .982 0 1.356.03.395.033.789.104 1.167.297a3 3 0 0 1 1.311 1.311c.193.378.264.772.296 1.167.031.375.031.83.031 1.356v7.678c0 .527 0 .982-.03 1.356-.033.395-.104.789-.297 1.167a3 3 0 0 1-1.311 1.311c-.378.193-.772.264-1.167.296-.375.031-.83.031-1.357.031H5.162c-.527 0-.981 0-1.356-.03-.395-.033-.789-.104-1.167-.297a3 3 0 0 1-1.311-1.311c-.193-.378-.264-.772-.296-1.167C1 18.82 1 18.365 1 17.838v-7.677c0-.527 0-.981.03-1.356.033-.395.104-.789.297-1.167a3 3 0 0 1 1.311-1.311c.378-.193.772-.264 1.167-.296C4.18 6 4.635 6 5.161 6ZM3.968 8.024c-.272.022-.373.06-.422.085a1 1 0 0 0-.437.437c-.025.05-.063.15-.085.422C3 9.25 3 9.623 3 10.2v7.6c0 .577 0 .949.024 1.232.022.272.06.372.085.422a1 1 0 0 0 .437.437c.05.025.15.063.422.085C4.25 20 4.623 20 5.2 20h13.6c.577 0 .949 0 1.232-.024.272-.022.372-.06.422-.085a1 1 0 0 0 .437-.437c.025-.05.063-.15.085-.422C21 18.75 21 18.377 21 17.8v-7.6c0-.577 0-.949-.024-1.232-.022-.272-.06-.373-.085-.422a1 1 0 0 0-.437-.437c-.05-.025-.15-.063-.422-.085C19.75 8 19.377 8 18.8 8H5.2c-.577 0-.949 0-1.232.024Z" clip-rule="evenodd"/>
</svg>
