<svg xmlns="http://www.w3.org/2000/svg" width="24" height="24" viewBox="0 0 24 24">
  <path d="M22 9V7.8c0-1.68 0-2.52-.327-3.162a3 3 0 0 0-1.311-1.311C19.72 3 18.88 3 17.2 3H6.8c-1.68 0-2.52 0-3.162.327a3 3 0 0 0-1.311 1.311C2 5.28 2 6.12 2 7.8V9h20Z" opacity=".2"/>
  <path fill-rule="evenodd" d="M6.759 2H17.24c.805 0 1.47 0 2.01.044.563.046 1.08.145 1.565.392a4 4 0 0 1 1.748 1.748c.247.485.346 1.002.392 1.564C23 6.29 23 6.954 23 7.758v8.483c0 .805 0 1.47-.044 2.01-.046.563-.145 1.08-.392 1.565a4 4 0 0 1-1.748 1.748c-.485.247-1.002.346-1.564.392-.541.044-1.206.044-2.01.044H6.758c-.805 0-1.47 0-2.01-.044-.563-.046-1.08-.145-1.565-.392a4 4 0 0 1-1.748-1.748c-.247-.485-.346-1.002-.392-1.564C1 17.71 1 17.046 1 16.242V7.758c0-.805 0-1.47.044-2.01.046-.563.145-1.08.392-1.565a4 4 0 0 1 1.748-1.748c.485-.247 1.002-.346 1.564-.392C5.29 2 5.954 2 6.758 2ZM3 10v6.2c0 .857 0 1.439.038 1.889.035.438.1.663.18.819a2 2 0 0 0 .874.874c.156.08.38.145.819.18C5.361 20 5.943 20 6.8 20h10.4c.857 0 1.439 0 1.889-.038.438-.035.663-.1.819-.18a2 2 0 0 0 .874-.874c.08-.156.145-.38.18-.819.037-.45.038-1.032.038-1.889V10H3Zm18-2H3v-.2c0-.857 0-1.439.038-1.889.035-.438.1-.663.18-.819a2 2 0 0 1 .874-.874c.156-.08.38-.145.819-.18C5.361 4 5.943 4 6.8 4h10.4c.857 0 1.439 0 1.889.038.438.035.663.1.819.18a2 2 0 0 1 .874.874c.08.156.145.38.18.819C21 6.361 21 6.943 21 7.8V8Z" clip-rule="evenodd"/>
</svg>
