<svg xmlns="http://www.w3.org/2000/svg" width="24" height="24" viewBox="0 0 24 24">
  <path fill-rule="evenodd" d="M8.293 10.515a1 1 0 0 1 1.414 0l3.778 3.778a1 1 0 0 1-1.414 1.414L8.293 11.93a1 1 0 0 1 0-1.414Z" clip-rule="evenodd" opacity=".5"/>
  <path fill-rule="evenodd" d="M17.264 2.207a3.205 3.205 0 0 1 4.529 4.529l-9.138 9.868a49.4 49.4 0 0 0-.085.092c-.386.418-.718.778-1.1 1.003a3 3 0 0 1-1.486.417 4.49 4.49 0 0 1-1.302 3.566c-.94.94-2.233 1.224-3.378 1.315-.776.062-1.637.04-2.389.02A35.326 35.326 0 0 0 2 23a1 1 0 0 1-.89-1.456c.357-.696.324-1.517.28-2.629l-.005-.1v-.026c-.04-.989-.098-2.44.933-3.471a4.49 4.49 0 0 1 3.566-1.302 2.999 2.999 0 0 1 .417-1.486c.225-.382.585-.714 1.003-1.1.03-.028.06-.057.092-.085l9.868-9.138Zm3.029 1.5a1.205 1.205 0 0 0-1.67-.032l-9.868 9.137c-.563.522-.677.64-.732.735a1 1 0 0 0-.02.983c.053.097.161.22.704.763.543.543.666.651.762.703a1 1 0 0 0 .984-.019c.094-.055.213-.169.735-.732l9.137-9.868a1.205 1.205 0 0 0-.032-1.67ZM7.268 16.732a2.5 2.5 0 0 0-3.536 0c-.327.327-.394.847-.348 2.003l.01.235c.026.59.059 1.314-.056 2.056a17.05 17.05 0 0 0 1.808-.023c1-.08 1.695-.309 2.122-.735a2.5 2.5 0 0 0 0-3.536Z" clip-rule="evenodd"/>
</svg>
