<svg xmlns="http://www.w3.org/2000/svg" width="24" height="24" viewBox="0 0 24 24">
  <path d="M12 23c-1.93 0-3.5-1.57-3.5-3.5V16c-1.64 0-2.51-.02-3.32-.44a4 4 0 0 1-1.75-1.75c-.44-.85-.44-1.78-.44-3.61V3.6c0-.65 0-1.08.22-1.51.19-.38.49-.68.87-.87C4.51 1 4.94 1 5.59 1H18.4c.65 0 1.08 0 1.51.22.38.19.68.49.87.87.22.43.22.86.22 1.51v6.6c0 1.84 0 2.76-.44 3.62a3.95 3.95 0 0 1-1.75 1.75c-.81.41-1.68.44-3.32.44v3.5c0 1.93-1.57 3.5-3.5 3.5L12 23Zm-1.5-7v3.5c0 .83.67 1.5 1.5 1.5s1.5-.67 1.5-1.5V16h-3Zm4-2h.7c1.47 0 2.28 0 2.71-.22.38-.19.68-.5.87-.87.18-.34.21-.93.22-1.91H5c0 .98.04 1.56.22 1.91.19.38.5.68.87.88.43.22 1.24.22 2.71.22h5.7V14ZM5 9h14V3.6c0-.28 0-.57-.02-.65-.01.05-.3.05-.58.05H5.6c-.28 0-.57 0-.65.02.05.01.05.3.05.58V9Z"/>
</svg>
