<svg xmlns="http://www.w3.org/2000/svg" width="24" height="24" viewBox="0 0 24 24">
  <path fill-rule="evenodd" d="M17.264 2.207a3.205 3.205 0 0 1 4.529 4.529l-8.275 8.937a1.241 1.241 0 0 1-.012.012l-.85.919-.086.092c-.386.418-.718.778-1.1 1.003a3 3 0 0 1-1.486.417 4.49 4.49 0 0 1-1.302 3.566c-.94.94-2.233 1.224-3.378 1.315-.776.062-1.637.04-2.389.02A35.326 35.326 0 0 0 2 23a1 1 0 0 1-.89-1.456c.357-.696.324-1.517.28-2.629l-.005-.1v-.026c-.04-.989-.098-2.44.933-3.471a4.49 4.49 0 0 1 3.566-1.302 2.999 2.999 0 0 1 .417-1.486c.225-.382.585-.714 1.003-1.1.03-.028.06-.057.092-.085l9.868-9.138ZM12.75 13.558l7.575-8.18a1.205 1.205 0 0 0-1.702-1.703l-8.181 7.575 2.308 2.308Zm-3.777-.948 2.417 2.417-.202.218c-.522.563-.64.677-.735.732a1 1 0 0 1-.984.02c-.096-.053-.22-.161-.762-.704-.543-.543-.651-.666-.703-.762a1 1 0 0 1 .019-.984c.055-.094.169-.213.732-.735l.218-.202Zm-1.705 4.122a2.5 2.5 0 0 0-3.536 0c-.327.327-.394.847-.348 2.003l.01.235c.026.59.059 1.314-.056 2.056a17.05 17.05 0 0 0 1.808-.023c1-.08 1.695-.309 2.122-.735a2.5 2.5 0 0 0 0-3.536Z" clip-rule="evenodd"/>
</svg>
