<svg xmlns="http://www.w3.org/2000/svg" width="24" height="24" viewBox="0 0 24 24">
  <path fill-rule="evenodd" d="M7.568 1h8.864c.252 0 .498 0 .706.017.229.019.499.063.77.201a2 2 0 0 1 .874.874c.138.271.182.541.201.77.017.208.017.454.017.706v6.673c0 .805 0 1.47-.044 2.01-.046.563-.145 1.08-.392 1.565a4 4 0 0 1-1.748 1.748c-.413.21-.849.313-1.316.367V19.5a3.5 3.5 0 1 1-7 0v-3.569c-.467-.054-.903-.156-1.316-.367a4 4 0 0 1-1.748-1.748c-.247-.485-.346-1.002-.392-1.564C5 11.71 5 11.046 5 10.242V3.567c0-.252 0-.498.017-.706a2.03 2.03 0 0 1 .201-.77 2 2 0 0 1 .874-.874 2.03 2.03 0 0 1 .77-.201C7.07 1 7.316 1 7.568 1ZM10.5 16v3.5a1.5 1.5 0 0 0 3 0V16h-3ZM7.011 3.011v.014C7 3.14 7 3.303 7 3.6V9h10V3.6c0-.297 0-.459-.01-.575l-.001-.014A8.187 8.187 0 0 0 16.4 3H7.6a8.186 8.186 0 0 0-.589.011ZM16.998 11H7.002c.003.445.012.795.036 1.089.035.438.1.663.18.819a2 2 0 0 0 .874.874c.156.08.38.145.819.18C9.361 14 9.943 14 10.8 14h2.4c.857 0 1.439 0 1.889-.037.438-.036.663-.101.819-.181a2 2 0 0 0 .874-.874c.08-.156.145-.38.18-.819.024-.294.033-.644.036-1.089Z" clip-rule="evenodd"/>
</svg>
