<svg xmlns="http://www.w3.org/2000/svg" width="24" height="24" viewBox="0 0 24 24">
  <path fill-rule="evenodd" d="M6.161 10H11a1 1 0 1 1 0 2H6.2c-.577 0-.949 0-1.232.024-.272.022-.373.06-.422.085a1 1 0 0 0-.437.437c-.025.05-.063.15-.085.422C4 13.25 4 13.623 4 14.2V21a1 1 0 1 1-2 0v-6.838c0-.528 0-.982.03-1.357.033-.395.104-.789.297-1.167a3 3 0 0 1 1.311-1.311c.378-.193.772-.264 1.167-.296C5.18 10 5.635 10 6.161 10Z" clip-rule="evenodd" opacity=".5"/>
  <path fill-rule="evenodd" d="M14.162 2h3.676c.528 0 .982 0 1.357.03.395.033.789.104 1.167.297a3 3 0 0 1 1.311 1.311c.193.378.264.772.296 1.167.031.375.031.83.031 1.356V20a1 1 0 1 1 0 2H2a1 1 0 1 1 0-2h8V6.161c0-.527 0-.981.03-1.356.033-.395.104-.789.297-1.167a3 3 0 0 1 1.311-1.311c.378-.193.772-.264 1.167-.296C13.18 2 13.635 2 14.162 2ZM12 20h8V6.2c0-.577 0-.949-.024-1.232-.022-.272-.06-.373-.085-.422a1 1 0 0 0-.437-.437c-.05-.025-.15-.063-.422-.085C18.75 4 18.377 4 17.8 4h-3.6c-.577 0-.949 0-1.232.024-.272.022-.373.06-.422.085a1 1 0 0 0-.437.437c-.025.05-.063.15-.085.422C12 5.25 12 5.623 12 6.2V20Zm1.5-13a1 1 0 0 1 1-1h3a1 1 0 1 1 0 2h-3a1 1 0 0 1-1-1Zm0 4a1 1 0 0 1 1-1h3a1 1 0 1 1 0 2h-3a1 1 0 0 1-1-1Zm0 4a1 1 0 0 1 1-1h3a1 1 0 1 1 0 2h-3a1 1 0 0 1-1-1Z" clip-rule="evenodd"/>
</svg>
