<svg xmlns="http://www.w3.org/2000/svg" width="24" height="24"  viewBox="0 0 24 24">
  <path fill-rule="evenodd" d="M13.338 2h-2.676c-.528 0-.982 0-1.357.03-.395.033-.789.104-1.167.297a3 3 0 0 0-1.311 1.311c-.193.378-.264.772-.296 1.167-.031.375-.031.83-.031 1.356V10H4.568c-.252 0-.498 0-.706.017a2.02 2.02 0 0 0-.77.201 2 2 0 0 0-.874.874 2.022 2.022 0 0 0-.201.77C2 12.07 2 12.316 2 12.568V20a1 1 0 1 0 0 2h20a1 1 0 1 0 0-2v-7.432c0-.252 0-.498-.017-.706a2.023 2.023 0 0 0-.201-.77 2 2 0 0 0-.874-.874 2.02 2.02 0 0 0-.77-.201 9.155 9.155 0 0 0-.706-.017H17.5V6.161c0-.527 0-.981-.03-1.356-.033-.395-.104-.789-.297-1.167a3 3 0 0 0-1.311-1.311c-.378-.193-.772-.264-1.167-.296A17.9 17.9 0 0 0 13.338 2ZM10 7a1 1 0 0 1 1-1h2a1 1 0 1 1 0 2h-2a1 1 0 0 1-1-1Zm0 4a1 1 0 0 1 1-1h2a1 1 0 1 1 0 2h-2a1 1 0 0 1-1-1Zm1 3a1 1 0 1 0 0 2h2a1 1 0 1 0 0-2h-2Z" clip-rule="evenodd"/>
</svg>
