<svg xmlns="http://www.w3.org/2000/svg" width="24" height="24" viewBox="0 0 24 24">
  <path d="M3 12.6c0-.56 0-.84.109-1.054a1 1 0 0 1 .437-.437C3.76 11 4.04 11 4.6 11h2.9v10H3v-8.4ZM16.5 11h2.9c.56 0 .84 0 1.054.109a1 1 0 0 1 .437.437C21 11.76 21 12.04 21 12.6V21h-4.5V11Z" opacity=".2"/>
  <path fill-rule="evenodd" d="M10.662 2h2.676c.528 0 .982 0 1.357.03.395.033.789.104 1.167.297a3 3 0 0 1 1.311 1.311c.193.378.264.772.296 1.167.031.375.031.83.031 1.356V10h1.932c.252 0 .498 0 .706.017.229.019.499.063.77.201a2 2 0 0 1 .874.874c.138.271.182.541.201.77.017.208.017.454.017.706V20a1 1 0 1 1 0 2H2a1 1 0 1 1 0-2v-7.432c0-.252 0-.498.017-.706a2.03 2.03 0 0 1 .201-.77 2 2 0 0 1 .874-.874 2.03 2.03 0 0 1 .77-.201C4.07 10 4.316 10 4.568 10H6.5V6.161c0-.527 0-.981.03-1.356.033-.395.104-.789.297-1.167a3 3 0 0 1 1.311-1.311c.378-.193.772-.264 1.167-.296C9.68 2 10.135 2 10.662 2ZM6.5 12H4.6a8.205 8.205 0 0 0-.589.011v.014C4 12.14 4 12.303 4 12.6V20h2.5v-8Zm2 8V6.2c0-.577 0-.949.024-1.232.022-.272.06-.373.085-.422a1 1 0 0 1 .437-.437c.05-.025.15-.063.422-.085C9.75 4 10.123 4 10.7 4h2.6c.577 0 .949 0 1.232.024.272.022.373.06.422.085a1 1 0 0 1 .437.437c.025.05.063.15.085.422.023.283.024.655.024 1.232V20h-7Zm9 0H20v-7.4a8.207 8.207 0 0 0-.012-.589h-.013A8.207 8.207 0 0 0 19.4 12h-1.9v8ZM10 7a1 1 0 0 1 1-1h2a1 1 0 1 1 0 2h-2a1 1 0 0 1-1-1Zm0 4a1 1 0 0 1 1-1h2a1 1 0 1 1 0 2h-2a1 1 0 0 1-1-1Zm0 4a1 1 0 0 1 1-1h2a1 1 0 1 1 0 2h-2a1 1 0 0 1-1-1Z" clip-rule="evenodd"/>
</svg>
