<svg xmlns="http://www.w3.org/2000/svg" width="24" height="24" viewBox="0 0 24 24">
  <path fill-rule="evenodd" d="M11.668 1.127a1.5 1.5 0 0 1 .664 0c.26.059.484.202.592.271l.03.019 7.576 4.735A1 1 0 0 1 20 8H4a1 1 0 0 1-.53-1.848l7.576-4.735.03-.019a1.92 1.92 0 0 1 .592-.271ZM12 3.179 7.487 6h9.026L12 3.18ZM6 9a1 1 0 0 1 1 1v8a1 1 0 1 1-2 0v-8a1 1 0 0 1 1-1Zm4 0a1 1 0 0 1 1 1v8a1 1 0 1 1-2 0v-8a1 1 0 0 1 1-1Zm4 0a1 1 0 0 1 1 1v8a1 1 0 1 1-2 0v-8a1 1 0 0 1 1-1Zm4 0a1 1 0 0 1 1 1v8a1 1 0 1 1-2 0v-8a1 1 0 0 1 1-1ZM2 21a1 1 0 0 1 1-1h18a1 1 0 1 1 0 2H3a1 1 0 0 1-1-1Z" clip-rule="evenodd"/>
</svg>
