<svg xmlns="http://www.w3.org/2000/svg" width="24" height="24" viewBox="0 0 24 24">
  <path d="M15 14H9v7h6v-7Z" opacity=".2"/>
  <path fill-rule="evenodd" d="M8.161 2h7.678c.527 0 .981 0 1.356.03.395.033.789.104 1.167.297a3 3 0 0 1 1.311 1.311c.193.378.264.772.296 1.167.031.375.031.83.031 1.356V20h1a1 1 0 1 1 0 2H3a1 1 0 1 1 0-2h1V6.161c0-.527 0-.981.03-1.356.033-.395.104-.789.297-1.167a3 3 0 0 1 1.311-1.311c.378-.193.772-.264 1.167-.296C7.18 2 7.635 2 8.161 2ZM6 20h2v-4.432c0-.252 0-.498.017-.706a2.03 2.03 0 0 1 .201-.77 2 2 0 0 1 .874-.874 2.03 2.03 0 0 1 .77-.201c.208-.017.454-.017.706-.017h2.864c.252 0 .498 0 .706.017.229.019.499.063.77.201a2 2 0 0 1 .874.874c.138.271.182.541.201.77.017.208.017.454.017.706V20h2V6.2c0-.577 0-.949-.024-1.232-.022-.272-.06-.373-.085-.422a1 1 0 0 0-.437-.437c-.05-.025-.15-.063-.422-.085C16.75 4 16.377 4 15.8 4H8.2c-.577 0-.949 0-1.232.024-.272.022-.373.06-.422.085a1 1 0 0 0-.437.437c-.025.05-.063.15-.085.422C6 5.25 6 5.623 6 6.2V20Zm8 0v-4.4c0-.296 0-.459-.01-.575l-.001-.014h-.014A8.207 8.207 0 0 0 13.4 15h-2.8a8.207 8.207 0 0 0-.589.011v.014c-.01.116-.011.278-.011.575V20h4ZM8 8a1.5 1.5 0 1 1 3 0 1.5 1.5 0 0 1-3 0Zm5 0a1.5 1.5 0 1 1 3 0 1.5 1.5 0 0 1-3 0Z" clip-rule="evenodd"/>
</svg>
