<svg xmlns="http://www.w3.org/2000/svg" width="24" height="24" viewBox="0 0 24 24">
  <path d="M3 12h18v2.2c0 1.68 0 2.52-.327 3.162a3 3 0 0 1-1.311 1.311C18.72 19 17.88 19 16.2 19H7.8c-1.68 0-2.52 0-3.162-.327a3 3 0 0 1-1.311-1.311C3 16.72 3 15.88 3 14.2V12ZM16.2 2H7.8c-1.68 0-2.52 0-3.162.327a3 3 0 0 0-1.311 1.311c-.23.45-.298.997-.318 1.862H20.99c-.02-.865-.089-1.412-.318-1.862a3 3 0 0 0-1.311-1.311C18.72 2 17.88 2 16.2 2Z" opacity=".2"/>
  <path fill-rule="evenodd" d="M7.759 1h8.482c.805 0 1.47 0 2.01.044.563.046 1.08.145 1.565.392a4 4 0 0 1 1.748 1.748c.247.485.346 1.002.392 1.564.015.183.025.38.031.591a1.011 1.011 0 0 1 .007.273C22 5.958 22 6.34 22 6.76v7.482c0 .805 0 1.47-.044 2.01-.046.563-.145 1.08-.392 1.565A4 4 0 0 1 20 19.464v1.759c0 .12 0 .262-.01.387a1.508 1.508 0 0 1-.153.571 1.5 1.5 0 0 1-.656.655 1.508 1.508 0 0 1-.571.154 4.92 4.92 0 0 1-.387.01h-1.946c-.12 0-.262 0-.387-.01a1.508 1.508 0 0 1-.571-.153 1.5 1.5 0 0 1-.655-.656 1.508 1.508 0 0 1-.154-.571 4.923 4.923 0 0 1-.01-.387V20h-5v1.223c0 .12 0 .262-.01.387a1.508 1.508 0 0 1-.153.571 1.5 1.5 0 0 1-.656.655 1.508 1.508 0 0 1-.571.154c-.125.01-.268.01-.387.01H5.777c-.12 0-.262 0-.387-.01a1.508 1.508 0 0 1-.571-.153 1.5 1.5 0 0 1-.656-.656 1.508 1.508 0 0 1-.153-.571C4 21.485 4 21.342 4 21.223v-1.759a4 4 0 0 1-1.564-1.648c-.247-.485-.346-1.002-.392-1.564C2 15.71 2 15.046 2 14.242V6.758c0-.42 0-.801.006-1.147a1.012 1.012 0 0 1 .007-.273 11.8 11.8 0 0 1 .031-.59c.046-.563.145-1.08.392-1.565a4 4 0 0 1 1.748-1.748c.485-.247 1.002-.346 1.564-.392C6.29 1 6.954 1 7.758 1ZM4 6.5V11h16V6.5H4Zm15.91-2H4.09a1.47 1.47 0 0 1 .128-.408 2 2 0 0 1 .874-.874c.156-.08.38-.145.819-.18C6.361 3 6.943 3 7.8 3h8.4c.857 0 1.439 0 1.889.038.438.035.663.1.819.18a2 2 0 0 1 .874.874c.05.098.094.222.128.408ZM20 13H4v1.2c0 .857 0 1.439.038 1.889.035.438.1.663.18.819a2 2 0 0 0 .874.874c.156.08.38.145.819.18C6.361 18 6.943 18 7.8 18h8.4c.857 0 1.439 0 1.889-.038.438-.035.663-.1.819-.18a2 2 0 0 0 .874-.874c.08-.156.145-.38.18-.819.037-.45.038-1.032.038-1.889V13Zm-3.5 7v1H18v-1.027a28.81 28.81 0 0 1-1.5.027Zm-9 0a28.81 28.81 0 0 1-1.5-.027V21h1.5v-1Zm-2-4.5a1 1 0 0 1 1-1H8a1 1 0 1 1 0 2H6.5a1 1 0 0 1-1-1Zm9.5 0a1 1 0 0 1 1-1h1.5a1 1 0 1 1 0 2H16a1 1 0 0 1-1-1Z" clip-rule="evenodd"/>
</svg>
