<svg xmlns="http://www.w3.org/2000/svg" width="24" height="24" viewBox="0 0 24 24">
  <path fill-rule="evenodd" d="M5.5 15.5a1 1 0 0 1 1-1H8a1 1 0 1 1 0 2H6.5a1 1 0 0 1-1-1Zm9.5 0a1 1 0 0 1 1-1h1.5a1 1 0 1 1 0 2H16a1 1 0 0 1-1-1ZM5 18a1 1 0 0 1 1 1v2h1.5v-2a1 1 0 1 1 2 0v2.223c0 .12 0 .262-.01.387a1.508 1.508 0 0 1-.153.571 1.5 1.5 0 0 1-.656.655 1.508 1.508 0 0 1-.571.154c-.125.01-.268.01-.387.01H5.777c-.12 0-.261 0-.387-.01a1.508 1.508 0 0 1-.571-.153 1.5 1.5 0 0 1-.655-.656 1.508 1.508 0 0 1-.154-.571 4.927 4.927 0 0 1-.01-.387V19a1 1 0 0 1 1-1Zm10.5 0a1 1 0 0 1 1 1v2H18v-2a1 1 0 1 1 2 0v2.223c0 .12 0 .262-.01.387a1.508 1.508 0 0 1-.153.571 1.5 1.5 0 0 1-.656.655 1.507 1.507 0 0 1-.571.154 4.92 4.92 0 0 1-.387.01h-1.946c-.12 0-.262 0-.387-.01a1.508 1.508 0 0 1-.571-.153 1.5 1.5 0 0 1-.655-.656 1.51 1.51 0 0 1-.154-.571c-.01-.125-.01-.268-.01-.387V19a1 1 0 0 1 1-1Z" clip-rule="evenodd" opacity=".5"/>
  <path fill-rule="evenodd" d="M7.759 1h8.482c.805 0 1.47 0 2.01.044.563.046 1.08.145 1.565.392a4 4 0 0 1 1.748 1.748c.247.485.346 1.002.392 1.564.015.183.025.38.031.591a1.011 1.011 0 0 1 .007.273C22 5.958 22 6.34 22 6.76v7.482c0 .805 0 1.47-.044 2.01-.046.563-.145 1.08-.392 1.565a4 4 0 0 1-1.748 1.748c-.485.247-1.002.346-1.564.392-.541.044-1.206.044-2.01.044H7.758c-.805 0-1.47 0-2.01-.044-.563-.046-1.08-.145-1.565-.392a4 4 0 0 1-1.748-1.748c-.247-.485-.346-1.002-.392-1.564C2 15.71 2 15.046 2 14.242V6.758c0-.42 0-.801.006-1.147a1.012 1.012 0 0 1 .007-.273 11.8 11.8 0 0 1 .031-.59c.046-.563.145-1.08.392-1.565a4 4 0 0 1 1.748-1.748c.485-.247 1.002-.346 1.564-.392C6.29 1 6.954 1 7.758 1ZM4 6.5V11h16V6.5H4Zm15.91-2H4.09a1.47 1.47 0 0 1 .128-.408 2 2 0 0 1 .874-.874c.156-.08.38-.145.819-.18C6.361 3 6.943 3 7.8 3h8.4c.857 0 1.439 0 1.889.038.438.035.663.1.819.18a2 2 0 0 1 .874.874c.05.098.094.222.128.408ZM20 13H4v1.2c0 .857 0 1.439.038 1.889.035.438.1.663.18.819a2 2 0 0 0 .874.874c.156.08.38.145.819.18C6.361 18 6.943 18 7.8 18h8.4c.857 0 1.439 0 1.889-.038.438-.035.663-.1.819-.18a2 2 0 0 0 .874-.874c.08-.156.145-.38.18-.819.037-.45.038-1.032.038-1.889V13Z" clip-rule="evenodd"/>
</svg>
