<svg xmlns="http://www.w3.org/2000/svg" width="24" height="24" viewBox="0 0 24 24">
  <path d="M7.759 1h8.482c.805 0 1.47 0 2.01.044.563.046 1.08.145 1.565.392a4 4 0 0 1 1.748 1.748c.073.143.133.29.183.439.079.238.119.358.083.5a.558.558 0 0 1-.216.299c-.123.078-.276.078-.58.078H2.966c-.305 0-.458 0-.581-.078a.558.558 0 0 1-.216-.3c-.036-.141.004-.26.083-.5.05-.149.11-.295.183-.438a4 4 0 0 1 1.748-1.748c.485-.247 1.002-.346 1.564-.392C6.29 1 6.954 1 7.758 1ZM2.8 6.5c-.28 0-.42 0-.527.054a.5.5 0 0 0-.219.219C2 6.88 2 7.02 2 7.299V10.2c0 .28 0 .42.054.527a.5.5 0 0 0 .219.218C2.38 11 2.52 11 2.8 11h18.4c.28 0 .42 0 .527-.055a.5.5 0 0 0 .218-.218C22 10.62 22 10.48 22 10.2V7.3c0-.28 0-.42-.054-.527a.5.5 0 0 0-.219-.219C21.62 6.5 21.48 6.5 21.2 6.5H2.8Z"/>
  <path fill-rule="evenodd" d="M22 13.8c0-.28 0-.42-.055-.527a.5.5 0 0 0-.218-.218C21.62 13 21.48 13 21.2 13H2.8c-.28 0-.42 0-.527.055a.5.5 0 0 0-.219.218C2 13.38 2 13.52 2 13.8v.441c0 .805 0 1.47.044 2.01.046.563.145 1.08.392 1.565A4 4 0 0 0 4 19.464v1.76c0 .118 0 .26.01.386.012.145.042.353.153.571a1.5 1.5 0 0 0 .656.655c.218.112.426.142.571.154.125.01.268.01.387.01h1.946c.12 0 .261 0 .387-.01.145-.012.353-.042.57-.153a1.5 1.5 0 0 0 .656-.656c.111-.218.142-.426.154-.571.01-.125.01-.268.01-.387V20h5v1.223c0 .12 0 .262.01.387.012.145.042.353.153.571a1.5 1.5 0 0 0 .656.655c.218.112.426.142.571.154.125.01.268.01.387.01h1.946c.12 0 .262 0 .387-.01.145-.012.353-.042.57-.153a1.5 1.5 0 0 0 .656-.656c.112-.218.142-.426.154-.571.01-.125.01-.268.01-.387v-1.759a4 4 0 0 0 1.564-1.648c.247-.485.346-1.002.392-1.564.044-.541.044-1.206.044-2.01V13.8ZM5.5 15.5a1 1 0 0 1 1-1H8a1 1 0 1 1 0 2H6.5a1 1 0 0 1-1-1Zm10.5-1a1 1 0 1 0 0 2h1.5a1 1 0 1 0 0-2H16Z" clip-rule="evenodd"/>
</svg>
