<svg xmlns="http://www.w3.org/2000/svg" width="24" height="24" viewBox="0 0 24 24">
  <g opacity=".2">
    <path d="M3 8.8c0-1.68 0-2.52.327-3.162a3 3 0 0 1 1.311-1.311C5.28 4 6.12 4 7.8 4h8.4c1.68 0 2.52 0 3.162.327a3 3 0 0 1 1.311 1.311C21 6.28 21 7.12 21 8.8V10H3V8.8Z"/>
    <path fill-rule="evenodd" d="M17.498 15.712c-.7-.78-1.867-.989-2.744-.275-.877.713-1 1.906-.311 2.75.688.844 3.055 2.813 3.055 2.813s2.366-1.97 3.055-2.813c.688-.844.58-2.044-.312-2.75-.892-.706-2.044-.504-2.743.275Z" clip-rule="evenodd"/>
  </g>
  <path fill-rule="evenodd" d="M8 1a1 1 0 0 1 1 1v1h6V2a1 1 0 1 1 2 0v1.002c.476.003.891.013 1.252.042.562.046 1.079.145 1.564.392a4 4 0 0 1 1.748 1.748c.247.485.346 1.002.392 1.564C22 7.29 22 7.954 22 8.758V11.5a1 1 0 1 1-2 0V11H4v6.2c0 .857 0 1.439.038 1.889.035.438.1.663.18.819a2 2 0 0 0 .874.874c.156.08.38.145.819.18C6.361 21 6.943 21 7.8 21h4.7a1 1 0 1 1 0 2H7.759c-.805 0-1.47 0-2.01-.044-.563-.046-1.08-.145-1.565-.392a4 4 0 0 1-1.748-1.748c-.247-.485-.346-1.002-.392-1.564C2 18.71 2 18.046 2 17.242V8.758c0-.805 0-1.47.044-2.01.046-.563.145-1.08.392-1.565a4 4 0 0 1 1.748-1.748c.485-.247 1.002-.346 1.564-.392.361-.03.777-.04 1.252-.042V2a1 1 0 0 1 1-1ZM7 5.002c-.446.003-.795.012-1.089.036-.438.035-.663.1-.819.18a2 2 0 0 0-.874.874c-.08.156-.145.38-.18.819C4 7.361 4 7.943 4 8.8V9h16v-.2c0-.857 0-1.439-.038-1.889-.035-.438-.1-.663-.18-.819a2 2 0 0 0-.874-.874c-.156-.08-.38-.145-.819-.18A15.155 15.155 0 0 0 17 5.002V6a1 1 0 1 1-2 0V5H9v1a1 1 0 1 1-2 0v-.998Zm10.497 9.431c.998-.593 2.3-.623 3.365.22 1.333 1.055 1.504 2.894.466 4.166-.406.498-1.237 1.256-1.9 1.84a67.232 67.232 0 0 1-1.184 1.02l-.078.066-.028.023-.64-.768-.64.769-.029-.024-.078-.066a64.566 64.566 0 0 1-1.184-1.02c-.663-.584-1.493-1.342-1.9-1.84-1.047-1.284-.838-3.105.456-4.158 1.06-.863 2.374-.822 3.374-.228Zm0 6.567-.64.769c.372.308.91.308 1.28 0l-.64-.769Zm0-1.311c.183-.157.391-.338.608-.53.693-.61 1.39-1.258 1.673-1.604.339-.415.293-.978-.158-1.334-.425-.337-.985-.279-1.378.16a1 1 0 0 1-1.488 0c-.4-.447-.969-.494-1.369-.169-.46.375-.497.94-.168 1.343.283.346.98.994 1.673 1.605.217.191.425.372.608.529Z" clip-rule="evenodd"/>
</svg>
