<svg xmlns="http://www.w3.org/2000/svg" width="24" height="24" viewBox="0 0 24 24">
  <path fill-rule="evenodd" d="M8 1a1 1 0 0 1 1 1v1h6V2a1 1 0 1 1 2 0v1.002c.476.003.891.013 1.252.042.562.046 1.079.145 1.564.392a4 4 0 0 1 1.748 1.748c.247.485.346 1.002.392 1.564a16.66 16.66 0 0 1 .043 1.303L22 8.76v8.482c0 .805 0 1.47-.044 2.01-.046.563-.145 1.08-.392 1.565a4 4 0 0 1-1.748 1.748c-.485.247-1.002.346-1.564.392-.541.044-1.206.044-2.01.044H7.758c-.805 0-1.47 0-2.01-.044-.563-.046-1.08-.145-1.565-.392a4 4 0 0 1-1.748-1.748c-.247-.485-.346-1.002-.392-1.564C2 18.71 2 18.046 2 17.242V8.758l.001-.708a1.019 1.019 0 0 1 .001-.117c.004-.448.014-.842.042-1.186.046-.562.145-1.079.392-1.564a4 4 0 0 1 1.748-1.748c.485-.247 1.002-.346 1.564-.392.361-.03.777-.04 1.252-.042V2a1 1 0 0 1 1-1ZM7 5.002c-.446.003-.795.012-1.089.036-.438.035-.663.1-.819.18a2 2 0 0 0-.874.874c-.08.156-.145.38-.18.819L4.03 7h15.938a5.475 5.475 0 0 0-.007-.089c-.035-.438-.1-.663-.18-.819a2 2 0 0 0-.874-.874c-.156-.08-.38-.145-.819-.18A15.155 15.155 0 0 0 17 5.002 1 1 0 0 1 15 5H9a1 1 0 0 1-2 .002ZM20 9H4v8.2c0 .857 0 1.439.038 1.889.035.438.1.663.18.819a2 2 0 0 0 .874.874c.156.08.38.145.819.18C6.361 21 6.943 21 7.8 21h8.4c.857 0 1.439 0 1.889-.038.438-.035.663-.1.819-.18a2 2 0 0 0 .874-.874c.08-.156.145-.38.18-.819.037-.45.038-1.032.038-1.889V9Zm-8.003 2.027c-1.107-.705-2.587-.773-3.774.213-1.413 1.174-1.633 3.183-.498 4.602.64.803 2.307 2.278 3.102 2.97l.015.013c.075.065.17.148.26.215.11.08.265.18.471.24a1.47 1.47 0 0 0 1.318-.24c.092-.067.186-.15.261-.215l.016-.014c.794-.691 2.46-2.166 3.102-2.969a3.256 3.256 0 0 0-.509-4.61c-1.193-.965-2.66-.909-3.764-.205Zm-.75 1.964c-.503-.57-1.227-.643-1.746-.212-.592.491-.654 1.265-.214 1.815.474.593 1.841 1.824 2.71 2.584.87-.76 2.236-1.99 2.71-2.584.45-.562.382-1.334-.203-1.807-.546-.441-1.26-.359-1.756.204a1 1 0 0 1-1.502 0Z" clip-rule="evenodd"/>
</svg>
