<svg xmlns="http://www.w3.org/2000/svg" width="24" height="24" viewBox="0 0 24 24">
  <path fill-rule="evenodd" d="M8.558 1h6.884a3 3 0 0 1 2.999 2.162l.097.29c.11.327.415.548.76.548A3.702 3.702 0 0 1 23 7.702v8.54c0 .804 0 1.469-.044 2.01-.046.562-.145 1.079-.392 1.564a4 4 0 0 1-1.748 1.748c-.485.247-1.002.346-1.564.392-.541.044-1.206.044-2.01.044H6.758c-.805 0-1.47 0-2.01-.044-.563-.046-1.08-.145-1.565-.392a4 4 0 0 1-1.748-1.748c-.247-.485-.346-1.002-.392-1.564C1 17.71 1 17.046 1 16.242v-8.54A3.702 3.702 0 0 1 4.702 4a.8.8 0 0 0 .76-.548l.09-.268.007-.022c.035-.105.065-.196.099-.281A3 3 0 0 1 8.26 1.005C8.352 1 8.448 1 8.558 1Zm.023 2c-.147 0-.177 0-.2.002a1 1 0 0 0-.867.625c-.009.021-.019.05-.065.19l-.09.268A2.801 2.801 0 0 1 4.702 6C3.762 6 3 6.762 3 7.702V16.2c0 .857 0 1.439.038 1.889.035.438.1.663.18.819a2 2 0 0 0 .874.874c.156.08.38.145.819.18C5.361 20 5.943 20 6.8 20h10.4c.857 0 1.439 0 1.889-.038.438-.035.663-.1.819-.18a2 2 0 0 0 .874-.874c.08-.156.145-.38.18-.819.037-.45.038-1.032.038-1.889V7.702C21 6.762 20.238 6 19.298 6a2.801 2.801 0 0 1-2.657-1.915l-.09-.269a4.104 4.104 0 0 0-.065-.189 1 1 0 0 0-.867-.625 4.144 4.144 0 0 0-.2-.002H8.58Z" clip-rule="evenodd" opacity=".5"/>
  <path fill-rule="evenodd" d="M12 8.5a3.5 3.5 0 1 0 0 7 3.5 3.5 0 0 0 0-7ZM6.5 12a5.5 5.5 0 1 1 11 0 5.5 5.5 0 0 1-11 0Z" clip-rule="evenodd"/>
</svg>
