<svg xmlns="http://www.w3.org/2000/svg" width="24" height="24" viewBox="0 0 24 24">
  <path fill-rule="evenodd" d="M9.272 1.757a1 1 0 0 1 1.326-.494 10.173 10.173 0 0 1 5.915 8.582c.228.477.376.984.444 1.499a8.166 8.166 0 0 0 1.648-5.737 1 1 0 0 1 1.991-.19 10.172 10.172 0 0 1-4.473 9.413 5.017 5.017 0 0 1-1.076 1.135 8.168 8.168 0 0 0 5.789-1.439 1 1 0 1 1 1.16 1.63 10.172 10.172 0 0 1-10.389.829 4.999 4.999 0 0 1-1.518-.363 8.168 8.168 0 0 0 4.144 4.296 1 1 0 1 1-.83 1.82 10.173 10.173 0 0 1-5.916-8.583 4.99 4.99 0 0 1-.444-1.5 8.166 8.166 0 0 0-1.649 5.738 1 1 0 0 1-1.99.19 10.172 10.172 0 0 1 4.473-9.414 5.029 5.029 0 0 1 1.076-1.134 8.168 8.168 0 0 0-5.789 1.439 1 1 0 0 1-1.16-1.63 10.172 10.172 0 0 1 10.389-.829 5 5 0 0 1 1.518.363 8.168 8.168 0 0 0-4.144-4.296 1 1 0 0 1-.495-1.325Zm5.315 8.723a3.006 3.006 0 0 0-2.362-1.472.996.996 0 0 1-.233-.008 3 3 0 1 0 2.468 4.718.997.997 0 0 1 .154-.244 3.01 3.01 0 0 0 .1-2.755.995.995 0 0 1-.127-.24Z" clip-rule="evenodd" opacity=".5"/>
  <path fill-rule="evenodd" d="M18.364 5.636A9 9 0 1 0 5.636 18.364 9 9 0 0 0 18.364 5.636Zm1.414-1.414c4.296 4.296 4.296 11.26 0 15.556-4.296 4.296-11.26 4.296-15.556 0-4.296-4.296-4.296-11.26 0-15.556 4.296-4.296 11.26-4.296 15.556 0Z" clip-rule="evenodd"/>
</svg>
