<svg xmlns="http://www.w3.org/2000/svg" width="24" height="24" viewBox="0 0 24 24">
  <path fill-rule="evenodd" d="M9.558 1h4.884a3 3 0 0 1 2.999 2.162l.008.022c.046.139.056.168.065.189a1 1 0 0 0 .867.625c.023.002.057.002.213.002h.056c.315 0 .547 0 .744.02a4 4 0 0 1 3.587 3.586c.02.197.02.42.019.72V18c0 1.448-.77 2.715-1.918 3.416a1 1 0 0 1-1.042-1.707c.578-.353.96-.987.96-1.709V8.377a7.07 7.07 0 0 0-.01-.574 2 2 0 0 0-1.793-1.793 7.666 7.666 0 0 0-.603-.01h-.025c-.117 0-.217 0-.309-.005a3 3 0 0 1-2.701-2.157l-.008-.022a4.1 4.1 0 0 0-.065-.189 1 1 0 0 0-.867-.625 4.144 4.144 0 0 0-.2-.002H9.58c-.147 0-.177 0-.2.002a1 1 0 0 0-.867.625c-.009.021-.019.05-.065.19l-.008.021A3 3 0 0 1 5.442 6H5a1 1 0 0 1 0-2h.419c.147 0 .177 0 .2-.002a1 1 0 0 0 .867-.625 4.156 4.156 0 0 0 .073-.211c.035-.105.065-.196.099-.281A3 3 0 0 1 9.26 1.005C9.352 1 9.448 1 9.558 1ZM2 6.5a1 1 0 0 1 1 1v8.7c0 .857 0 1.439.038 1.889.035.438.1.663.18.819a2 2 0 0 0 .874.874c.156.08.38.145.819.18C5.361 20 5.943 20 6.8 20h8.7a1 1 0 1 1 0 2H6.759c-.805 0-1.47 0-2.01-.044-.563-.046-1.08-.145-1.565-.392a4 4 0 0 1-1.748-1.748c-.247-.485-.346-1.002-.392-1.564C1 17.71 1 17.046 1 16.242V7.5a1 1 0 0 1 1-1Z" clip-rule="evenodd" opacity=".5"/>
  <path fill-rule="evenodd" d="M1.293 1.293a1 1 0 0 1 1.414 0l6.846 6.846a5 5 0 0 1 6.808 6.808l6.346 6.346a1 1 0 0 1-1.414 1.414l-6.86-6.86-.012-.01a1.002 1.002 0 0 1-.133-.135l-5.505-5.505a1.01 1.01 0 0 1-.114-.114L1.293 2.707a1 1 0 0 1 0-1.414Zm9.77 8.356 3.788 3.788a3 3 0 0 0-3.788-3.788ZM8 11.5a1 1 0 0 1 1 1 3 3 0 0 0 3 3 1 1 0 1 1 0 2 5 5 0 0 1-5-5 1 1 0 0 1 1-1Z" clip-rule="evenodd"/>
</svg>
