<svg xmlns="http://www.w3.org/2000/svg" width="24" height="24"  viewBox="0 0 24 24">
  <path fill-rule="evenodd" d="M8.558 1a3 3 0 0 0-2.999 2.162l-.097.29a.801.801 0 0 1-.76.548A3.702 3.702 0 0 0 1 7.702v8.54c0 .804 0 1.469.044 2.01.046.562.145 1.079.392 1.564a4 4 0 0 0 1.748 1.748c.485.247 1.002.346 1.564.392C5.29 22 5.954 22 6.758 22h10.483c.805 0 1.47 0 2.01-.044.563-.046 1.08-.145 1.565-.392a4 4 0 0 0 1.748-1.748c.247-.485.346-1.002.392-1.564.044-.541.044-1.206.044-2.01v-8.54A3.702 3.702 0 0 0 19.298 4a.801.801 0 0 1-.76-.548l-.097-.29c-.035-.105-.065-.196-.099-.281a3 3 0 0 0-2.602-1.876C15.648 1 15.552 1 15.442 1H8.558ZM16.5 12a4.5 4.5 0 1 1-9 0 4.5 4.5 0 0 1 9 0Z" clip-rule="evenodd"/>
</svg>
