<svg xmlns="http://www.w3.org/2000/svg" width="24" height="24" viewBox="0 0 24 24">
  <path d="M12 16a4 4 0 1 0 0-8 4 4 0 0 0 0 8Z" opacity=".2"/>
  <path fill-rule="evenodd" d="M19 1a1 1 0 0 1 1 1v2h2a1 1 0 1 1 0 2h-2v2a1 1 0 1 1-2 0V6h-2a1 1 0 1 1 0-2h2V2a1 1 0 0 1 1-1ZM8.357 2H12.5a1 1 0 1 1 0 2H8.4c-1.137 0-1.929 0-2.546.051-.605.05-.953.142-1.216.276a3 3 0 0 0-1.311 1.311c-.134.263-.226.611-.276 1.216C3.001 7.471 3 8.264 3 9.4v5.2c0 1.137 0 1.929.051 2.546.05.605.142.953.276 1.216a3 3 0 0 0 1.311 1.311c.263.134.611.226 1.216.276.617.05 1.41.051 2.546.051h7.2c1.137 0 1.929 0 2.546-.051.605-.05.953-.142 1.216-.276a3 3 0 0 0 1.311-1.311c.134-.263.226-.611.276-1.216.05-.617.051-1.41.051-2.546v-3.1a1 1 0 1 1 2 0v3.143c0 1.084 0 1.958-.058 2.666-.06.729-.185 1.369-.487 1.961a5 5 0 0 1-2.185 2.185c-.592.302-1.232.428-1.961.487C17.6 22 16.727 22 15.643 22H8.357c-1.084 0-1.958 0-2.666-.058-.728-.06-1.369-.185-1.961-.487a5 5 0 0 1-2.185-2.185c-.302-.592-.428-1.232-.487-1.961C1 16.6 1 15.727 1 14.643V9.357c0-1.084 0-1.958.058-2.666.06-.728.185-1.369.487-1.96A5 5 0 0 1 3.73 2.544c.592-.302 1.233-.428 1.961-.487C6.4 2 7.273 2 8.357 2ZM12 9a3 3 0 1 0 0 6 3 3 0 0 0 0-6Zm-5 3a5 5 0 1 1 10 0 5 5 0 0 1-10 0Z" clip-rule="evenodd"/>
</svg>
