<svg xmlns="http://www.w3.org/2000/svg" width="24" height="24" viewBox="0 0 24 24">
  <path fill-rule="evenodd" d="M8.161 2h7.678c.527 0 .981 0 1.356.03.395.033.789.104 1.167.297a3 3 0 0 1 1.311 1.311c.193.378.264.772.296 1.167.031.375.031.83.031 1.356V8h1a1 1 0 1 1 2 0v1a1 1 0 0 1-1 1h-.354a4 4 0 0 1 .918 1.184c.247.485.346 1.002.392 1.564.044.541.044 1.206.044 2.01v3.274c0 .439 0 .817-.021 1.13-.023.33-.072.66-.207.986a3 3 0 0 1-1.624 1.624 3.073 3.073 0 0 1-.986.207c-.313.021-.691.021-1.13.021h-.699c-.305 0-.567 0-.802-.037a3 3 0 0 1-2.494-2.494 3.447 3.447 0 0 1-.035-.469H8.998a3.448 3.448 0 0 1-.035.47 3 3 0 0 1-2.494 2.493C6.234 22 5.972 22 5.667 22h-.699c-.439 0-.817 0-1.13-.021a3.072 3.072 0 0 1-.986-.207 3 3 0 0 1-1.624-1.624 3.07 3.07 0 0 1-.207-.986C1 18.85 1 18.471 1 18.032v-3.273c0-.805 0-1.47.044-2.01.046-.563.145-1.08.392-1.565A4 4 0 0 1 2.354 10H2a1 1 0 0 1-1-1V8a1 1 0 0 1 2 0h1V6.161c0-.527 0-.981.03-1.356.033-.395.104-.789.297-1.167a3 3 0 0 1 1.311-1.311c.378-.193.772-.264 1.167-.296C7.18 2 7.635 2 8.161 2ZM6 9.002C6.238 9 6.49 9 6.759 9H17.24c.269 0 .521 0 .759.002V9m0 0V6.2c0-.577 0-.949-.024-1.232-.022-.272-.06-.373-.085-.422a1 1 0 0 0-.437-.437c-.05-.025-.15-.063-.422-.085C16.75 4 16.377 4 15.8 4H8.2c-.577 0-.949 0-1.232.024-.272.022-.373.06-.422.085a1 1 0 0 0-.437.437c-.025.05-.063.15-.085.422C6 5.25 6 5.623 6 6.2V9m-1.089 2.038c-.438.035-.663.1-.819.18a2 2 0 0 0-.874.874c-.08.156-.145.38-.18.819C3 13.361 3 13.943 3 14.8V18c0 .48 0 .79.017 1.026.015.228.042.315.06.357a1 1 0 0 0 .54.54c.042.018.129.045.357.06C4.21 20 4.52 20 5 20h.6c.41 0 .498-.003.556-.012a1 1 0 0 0 .832-.832c.009-.058.012-.146.012-.556v-.019c0-.064-.001-.193.018-.316A1.5 1.5 0 0 1 8.581 17h6.837c.065 0 .194-.001.317.018A1.5 1.5 0 0 1 17 18.581v.019c0 .41.003.498.012.556a1 1 0 0 0 .832.832c.058.009.146.012.556.012h.6c.48 0 .79 0 1.026-.017.228-.015.315-.042.357-.06a1 1 0 0 0 .54-.54c.018-.042.045-.129.06-.357C21 18.79 21 18.48 21 18v-3.2c0-.857 0-1.439-.038-1.889-.035-.438-.1-.663-.18-.819a2 2 0 0 0-.874-.874c-.156-.08-.38-.145-.819-.18C18.639 11 18.057 11 17.2 11H6.8c-.857 0-1.439 0-1.889.038ZM4.5 13.5a1.5 1.5 0 1 1 3 0 1.5 1.5 0 0 1-3 0Zm12 0a1.5 1.5 0 1 1 3 0 1.5 1.5 0 0 1-3 0Z" clip-rule="evenodd"/>
</svg>
