<svg xmlns="http://www.w3.org/2000/svg" width="24" height="24" viewBox="0 0 24 24">
  <path fill-rule="evenodd" d="M8.161 3h7.679c.683-.001 1.283-.002 1.818.208a3 3 0 0 1 1.203.867c.368.441.557 1.01.772 1.66l.046.137.906 2.718.969-.484a1 1 0 1 1 .894 1.788l-.597.3c.285.29.527.623.714.99.247.485.346 1.002.392 1.564.044.541.044 1.206.044 2.01v2.826c0 .38 0 .708-.058 1.001a3 3 0 0 1-2.357 2.357c-.293.059-.62.058-1.001.058H19a3 3 0 0 1-2.959-2.5H7.96A3 3 0 0 1 5 21h-.584c-.38 0-.708 0-1.001-.058a3 3 0 0 1-2.357-2.357C.999 18.292 1 17.965 1 17.584v-2.825c0-.805 0-1.47.044-2.01.046-.563.145-1.08.392-1.565a4 4 0 0 1 .714-.99l-.597-.3a1 1 0 0 1 .894-1.788l.969.484.906-2.718.046-.138c.215-.649.404-1.218.772-1.659a3 3 0 0 1 1.204-.867c.534-.21 1.134-.21 1.817-.208ZM5.384 9.01C5.788 9 6.244 9 6.759 9H17.24c.515 0 .971 0 1.375.011l-.835-2.507c-.29-.867-.363-1.035-.455-1.146a1 1 0 0 0-.402-.289C16.79 5.017 16.607 5 15.693 5H8.306c-.914 0-1.097.017-1.23.07a1 1 0 0 0-.402.288c-.092.11-.165.279-.455 1.146l-.835 2.507Zm-.473 2.027c-.438.035-.663.1-.819.18a2 2 0 0 0-.874.874c-.08.156-.145.38-.18.819C3 13.361 3 13.943 3 14.8v2.7c0 .513.005.623.02.695a1 1 0 0 0 .785.786c.072.014.182.019.695.019H5a1 1 0 0 0 1-1 1.5 1.5 0 0 1 1.5-1.5h9A1.5 1.5 0 0 1 18 18a1 1 0 0 0 1 1h.5c.513 0 .623-.005.695-.02a1 1 0 0 0 .786-.785c.014-.072.019-.182.019-.695v-2.7c0-.857 0-1.439-.038-1.889-.035-.438-.1-.663-.18-.819a2 2 0 0 0-.874-.874c-.156-.08-.38-.145-.819-.18C18.639 11 18.057 11 17.2 11H6.8c-.857 0-1.439 0-1.889.037ZM4 13a1 1 0 0 1 1-1h3a1 1 0 1 1 0 2H5a1 1 0 0 1-1-1Zm11 0a1 1 0 0 1 1-1h3a1 1 0 1 1 0 2h-3a1 1 0 0 1-1-1Z" clip-rule="evenodd"/>
</svg>
