<svg xmlns="http://www.w3.org/2000/svg" width="24" height="24" viewBox="0 0 24 24">
  <path fill-rule="evenodd" d="M10.09 4.055C9.97 4.013 9.813 4 9.022 4H5.2c-.577 0-.949 0-1.232.024-.272.022-.373.06-.422.085a1 1 0 0 0-.437.437c-.025.05-.063.15-.085.422C3.004 5.217 3 5.535 3 6h8.382l-.392-.784c-.353-.707-.435-.841-.526-.93a1 1 0 0 0-.374-.231ZM13.618 6l-.84-1.678a57.167 57.167 0 0 1-.055-.112c-.264-.53-.497-.998-.86-1.353a3 3 0 0 0-1.12-.693c-.48-.166-1.003-.165-1.596-.164H5.162c-.528 0-.982 0-1.357.03-.395.033-.789.104-1.167.297a3 3 0 0 0-1.311 1.311c-.193.378-.264.772-.296 1.167C1 5.18 1 5.635 1 6.161v10.08c0 .805 0 1.47.044 2.01.046.563.145 1.08.392 1.565a4 4 0 0 0 1.748 1.748c.485.247 1.002.346 1.564.392C5.29 22 5.954 22 6.758 22H9.2a1 1 0 1 0 0-2H6.8c-.857 0-1.439 0-1.889-.038-.438-.035-.663-.1-.819-.18a2 2 0 0 1-.874-.874c-.08-.156-.145-.38-.18-.819C3 17.639 3 17.057 3 16.2V8h14.2c.857 0 1.439 0 1.889.038.438.035.663.1.819.18a2 2 0 0 1 .874.874 1 1 0 1 0 1.782-.908 4 4 0 0 0-1.748-1.748c-.485-.247-1.002-.346-1.564-.392C18.71 6 18.046 6 17.242 6h-3.624ZM20 14a1 1 0 1 0 0 2 1 1 0 0 0 0-2Zm-3 1a3 3 0 1 1 1.707 2.708L16.914 19.5l1.293 1.293a1 1 0 0 1-1.414 1.414L15.5 20.914l-1.793 1.793a1 1 0 0 1-1.414-1.414l5-5A2.988 2.988 0 0 1 17 15Z" clip-rule="evenodd"/>
</svg>
