<svg xmlns="http://www.w3.org/2000/svg" width="24" height="24" viewBox="0 0 24 24">
  <path fill-rule="evenodd" d="M2 4a3 3 0 0 1 3-3h14a3 3 0 0 1 3 3v14a3 3 0 0 1-3 3h-1.5a1 1 0 1 1 0-2H19a1 1 0 0 0 1-1V4a1 1 0 0 0-1-1H5a1 1 0 0 0-1 1v14a1 1 0 0 0 1 1h1.5a1 1 0 1 1 0 2H5a3 3 0 0 1-3-3V4Z" clip-rule="evenodd" opacity=".5"/>
  <path fill-rule="evenodd" d="M8 6a1 1 0 0 1 1-1h6a1 1 0 1 1 0 2H9a1 1 0 0 1-1-1ZM6 9.5a1 1 0 0 1 1-1h10a1 1 0 1 1 0 2H7a1 1 0 0 1-1-1Zm6 4.5a2 2 0 0 0-1.987 2.227v.006A2 2 0 0 0 11.997 18h.032A2 2 0 0 0 12 14Zm-1.909 5.516a4.02 4.02 0 0 1-1.464-1.365l-1.213 1.213 1.415 1.414 1.262-1.262Zm-2.09-3.566a4 4 0 0 1 7.998-.022l2.73 2.729a1 1 0 0 1 0 1.414l-2.83 2.829a1 1 0 0 1-1.413 0l-2.475-2.475L9.536 22.9a1 1 0 0 1-1.414 0l-2.829-2.83a1 1 0 0 1 0-1.414L8 15.95Zm5.922 3.558 1.27 1.27 1.414-1.414-1.226-1.226a4.018 4.018 0 0 1-1.458 1.37Z" clip-rule="evenodd"/>
</svg>
