<svg xmlns="http://www.w3.org/2000/svg" width="24" height="24" viewBox="0 0 24 24">
  <path fill-rule="evenodd" d="M11.998 6.212c-.7-.78-1.867-.989-2.744-.275-.877.713-1 1.906-.312 2.75.689.844 3.056 2.813 3.056 2.813s2.366-1.97 3.055-2.813c.688-.844.58-2.044-.312-2.75-.892-.706-2.044-.504-2.743.275Z" clip-rule="evenodd" opacity=".2"/>
  <path fill-rule="evenodd" d="M2 4.222C2 2.544 3.247 1 5 1h14c1.753 0 3 1.544 3 3.222v15.556C22 21.456 20.753 23 19 23H5c-1.753 0-3-1.544-3-3.222V4.222ZM5 3c-.456 0-1 .446-1 1.222v15.556C4 20.555 4.544 21 5 21h14c.456 0 1-.445 1-1.222V4.222C20 3.445 19.456 3 19 3H5Zm6.997 1.933c.998-.593 2.3-.623 3.365.22 1.333 1.055 1.504 2.893.466 4.166-.406.498-1.237 1.256-1.9 1.84a67.232 67.232 0 0 1-1.184 1.02l-.078.066-.028.023-.64-.768-.64.769-.029-.024-.078-.066a64.566 64.566 0 0 1-1.184-1.02c-.663-.584-1.493-1.342-1.9-1.84-1.047-1.284-.837-3.105.456-4.158 1.06-.863 2.374-.822 3.374-.228Zm0 6.567-.64.769c.372.308.91.308 1.28 0l-.64-.769Zm0-1.311c.183-.157.391-.338.608-.53.693-.61 1.39-1.258 1.673-1.604.339-.415.293-.978-.158-1.334-.425-.337-.985-.279-1.378.16a1 1 0 0 1-1.488 0c-.4-.447-.969-.494-1.369-.169-.46.375-.497.94-.168 1.343.283.346.98.994 1.673 1.605.217.191.425.372.608.529ZM6 15a1 1 0 0 1 1-1h10a1 1 0 1 1 0 2H7a1 1 0 0 1-1-1Zm2 3.5a1 1 0 0 1 1-1h6a1 1 0 1 1 0 2H9a1 1 0 0 1-1-1Z" clip-rule="evenodd"/>
</svg>
