<svg xmlns="http://www.w3.org/2000/svg" width="24" height="24" viewBox="0 0 24 24">
  <path d="M14.978 16.366a3 3 0 1 0-5.958-.022L6 19.365l2.828 2.829 3.183-3.183 3.182 3.183 2.829-2.829-3.02-3.02-.024.022Z" opacity=".2"/>
  <path fill-rule="evenodd" d="M2 4a3 3 0 0 1 3-3h14a3 3 0 0 1 3 3v14a3 3 0 0 1-3 3h-1.2l-1.9 1.9a1 1 0 0 1-1.414 0l-2.475-2.475L9.536 22.9a1 1 0 0 1-1.414 0l-1.9-1.9H5a3 3 0 0 1-3-3V4Zm5.414 15.364 1.415 1.414 1.262-1.262a4.019 4.019 0 0 1-1.464-1.365l-1.213 1.213ZM8 15.95l-2.707 2.707A1 1 0 0 0 5.07 19H5a1 1 0 0 1-1-1V4a1 1 0 0 1 1-1h14a1 1 0 0 1 1 1v14a1 1 0 0 1-1 1h-.047a1 1 0 0 0-.225-.343L16 15.928a4 4 0 0 0-8 .022Zm2.014.283-.001-.006A2 2 0 1 1 12.028 18h-.032a2 2 0 0 1-1.982-1.767Zm3.909 3.275a4.018 4.018 0 0 0 1.458-1.37l1.226 1.226-1.414 1.414-1.27-1.27ZM8 6a1 1 0 0 1 1-1h6a1 1 0 1 1 0 2H9a1 1 0 0 1-1-1ZM6 9.5a1 1 0 0 1 1-1h10a1 1 0 1 1 0 2H7a1 1 0 0 1-1-1Z" clip-rule="evenodd"/>
</svg>
