<svg xmlns="http://www.w3.org/2000/svg" width="24" height="24"  viewBox="0 0 24 24">
  <path fill-rule="evenodd" d="M5 1a3 3 0 0 0-3 3v13a3 3 0 0 0 3 3h.098l3.038 2.914a1 1 0 0 0 1.4-.014l2.475-2.475 2.475 2.475a1 1 0 0 0 1.401.012L18.904 20H19a3 3 0 0 0 3-3V4a3 3 0 0 0-3-3H5Zm10.875 16.79a4.52 4.52 0 0 1-1.91 1.76l1.24 1.24 1.868-1.803-1.198-1.198Zm-3.868.21h.017a2.5 2.5 0 1 0-.035 0h.018Zm-3.193 2.793 1.236-1.236a4.52 4.52 0 0 1-1.925-1.768l-1.196 1.196 1.885 1.808ZM8 6a1 1 0 0 1 1-1h6a1 1 0 1 1 0 2H9a1 1 0 0 1-1-1ZM7 8.5a1 1 0 0 0 0 2h10a1 1 0 1 0 0-2H7Z" clip-rule="evenodd"/>
</svg>
