<svg xmlns="http://www.w3.org/2000/svg" width="24" height="24" viewBox="0 0 24 24">
  <path fill-rule="evenodd" d="M15.5 1a1 1 0 0 1 1 1v1.5a1 1 0 1 1-2 0V2a1 1 0 0 1 1-1ZM7.759 2H11a1 1 0 1 1 0 2H7.8c-.857 0-1.439 0-1.889.038-.438.035-.663.1-.819.18a2 2 0 0 0-.874.874c-.08.156-.145.38-.18.819C4 6.361 4 6.943 4 7.8v4.659A11.96 11.96 0 0 0 13.47 9H12a1 1 0 1 1 0-2h4a1 1 0 0 1 1 1v4a1 1 0 1 1-2 0v-1.702a13.96 13.96 0 0 1-11 4.167V16.2c0 .857 0 1.439.038 1.889.035.438.1.663.18.819a2 2 0 0 0 .874.874c.156.08.38.145.82.18C6.361 20 6.942 20 7.8 20h8.4c.857 0 1.439 0 1.889-.038.438-.035.663-.1.819-.18a2 2 0 0 0 .874-.874c.08-.156.145-.38.18-.819.037-.45.038-1.032.038-1.889V13a1 1 0 1 1 2 0v3.241c0 .805 0 1.47-.044 2.01-.046.563-.145 1.08-.392 1.565a4 4 0 0 1-1.748 1.748c-.485.247-1.002.346-1.564.392-.541.044-1.206.044-2.01.044H7.758c-.805 0-1.47 0-2.01-.044-.563-.046-1.08-.145-1.565-.392a4 4 0 0 1-1.748-1.748c-.247-.485-.346-1.002-.392-1.564C2 17.71 2 17.046 2 16.242v-2.877a.99.99 0 0 1 0-.034V7.76c0-.805 0-1.47.044-2.01.046-.563.145-1.08.392-1.565a4 4 0 0 1 1.748-1.748c.485-.247 1.002-.346 1.564-.392C6.29 2 6.954 2 7.758 2Zm13.448.793a1 1 0 0 1 0 1.414l-1.06 1.06a1 1 0 1 1-1.415-1.413l1.06-1.061a1 1 0 0 1 1.415 0ZM19.51 8.5a1 1 0 0 1 1-1h1.5a1 1 0 1 1 0 2h-1.5a1 1 0 0 1-1-1Z" clip-rule="evenodd"/>
</svg>
