<svg xmlns="http://www.w3.org/2000/svg" width="24" height="24" viewBox="0 0 24 24">
  <path fill-rule="evenodd" d="M15.5 1a1 1 0 0 1 1 1v1.5a1 1 0 1 1-2 0V2a1 1 0 0 1 1-1Zm-3.505.95a1 1 0 0 1-.896 1.094 9.001 9.001 0 0 0-8.093 9.291c.648.109 1.314.165 1.994.165 3.306 0 6.3-1.336 8.47-3.5H12a1 1 0 1 1 0-2h4a1 1 0 0 1 1 1v4a1 1 0 1 1-2 0v-1.702A13.96 13.96 0 0 1 5 14.5c-.567 0-1.126-.034-1.676-.1a9.001 9.001 0 0 0 17.632-1.5 1 1 0 1 1 1.99.199C22.394 18.659 17.704 23 12 23 5.925 23 1 18.075 1 12 1 6.296 5.341 1.606 10.901 1.054a1 1 0 0 1 1.094.897Zm9.212.843a1 1 0 0 1 0 1.414l-1.06 1.06a1 1 0 1 1-1.415-1.413l1.06-1.061a1 1 0 0 1 1.415 0ZM19.51 8.5a1 1 0 0 1 1-1h1.5a1 1 0 0 1 0 2h-1.5a1 1 0 0 1-1-1Z" clip-rule="evenodd"/>
</svg>
