<svg xmlns="http://www.w3.org/2000/svg" width="24" height="24" viewBox="0 0 24 24">
  <path d="M9.202 20.6a1.24 1.24 0 0 1 .92.247l1.203.924c.398.305.951.305 1.348 0l1.248-.959c.234-.179.528-.258.82-.219l1.561.206a1.11 1.11 0 0 0 1.168-.675l.601-1.453c.112-.272.328-.488.6-.6l1.453-.601c.464-.191.74-.671.675-1.168l-.198-1.505a1.24 1.24 0 0 1 .247-.92l.923-1.204a1.105 1.105 0 0 0 0-1.347l-.959-1.25a1.105 1.105 0 0 1-.219-.818l.206-1.562a1.108 1.108 0 0 0-.675-1.168l-1.453-.601a1.103 1.103 0 0 1-.6-.6l-.6-1.453a1.107 1.107 0 0 0-1.169-.675l-1.562.206a1.1 1.1 0 0 1-.817-.217l-1.25-.959a1.105 1.105 0 0 0-1.347 0l-1.249.959a1.115 1.115 0 0 1-.818.219L7.696 3.2a1.108 1.108 0 0 0-1.167.675l-.6 1.453a1.117 1.117 0 0 1-.6.6l-1.453.6c-.464.192-.74.671-.675 1.168l.206 1.562a1.11 1.11 0 0 1-.219.818l-.959 1.249a1.105 1.105 0 0 0 0 1.347l.959 1.25a1.1 1.1 0 0 1 .219.818L3.2 16.303c-.065.497.211.976.675 1.168l1.453.601c.272.112.488.328.6.6l.6 1.453c.192.464.672.74 1.169.675l1.504-.2Z" opacity=".2"/>
  <path d="M10.99 15H11h-.02.01Zm-.7-.29c.198.188.444.287.7.29a.981.981 0 0 0 .7-.29l4.5-4.5a.996.996 0 1 0-1.41-1.41l-3.79 3.79L9.7 11.3a.996.996 0 1 0-1.41 1.41l2 2Z"/>
  <path fill-rule="evenodd" d="M10.72 22.56c.37.29.83.44 1.28.44l.02.01c.45 0 .9-.15 1.28-.44l1.33-.98 1.56.2c.94.13 1.86-.4 2.22-1.28l.66-1.51 1.45-.6c.89-.36 1.41-1.27 1.29-2.22l-.2-1.51c-.01-.06.01-.13.05-.18l.92-1.2c.58-.76.58-1.82 0-2.57l-.98-1.33.21-1.56c.13-.94-.4-1.85-1.28-2.22l-1.51-.66-.6-1.45a2.105 2.105 0 0 0-2.22-1.29l-1.64.19-1.25-.96c-.76-.58-1.82-.58-2.57 0l-1.33.98-1.56-.21c-.93-.13-1.85.4-2.22 1.28L4.97 5l-1.45.6a2.11 2.11 0 0 0-1.28 2.22l.18 1.64-.96 1.25c-.58.76-.58 1.82 0 2.57l.98 1.33-.21 1.56c-.13.94.4 1.85 1.28 2.22l1.51.66.6 1.45c.36.89 1.28 1.42 2.22 1.29l1.5-.2c.06-.01.13.01.18.05l1.2.92Zm.01-2.51c-.39-.3-.88-.46-1.37-.46l-.02-.01c-.092 0-.175.008-.265.018l-.025.002-1.5.2c-.04 0-.11-.07-.11-.07l-.6-1.45c-.21-.51-.63-.93-1.14-1.14l-1.45-.6c-.05-.02-.07-.11-.07-.11l.21-1.56c.07-.56-.08-1.12-.42-1.56l-.96-1.25c-.03-.04 0-.13 0-.13l.96-1.25c.34-.45.49-1 .42-1.56l-.21-1.56c0-.05.07-.11.07-.11l1.46-.6c.52-.22.92-.62 1.14-1.14l.6-1.45c.02-.05.11-.07.11-.07l1.56.21c.56.07 1.11-.08 1.56-.42l1.25-.96c.04-.03.13 0 .13 0l1.25.96c.44.34 1.01.49 1.56.42l1.56-.21c.03 0 .11.07.11.07l.6 1.45c.21.52.62.93 1.14 1.14l1.45.6c.05.02.07.11.07.11l-.21 1.56c-.07.56.08 1.11.42 1.56l.96 1.25c.03.04 0 .13 0 .13l-.92 1.2c-.37.47-.53 1.07-.45 1.66l.2 1.51c0 .05-.07.11-.07.11l-1.45.6c-.52.21-.93.62-1.14 1.14l-.6 1.45c-.02.04-.06.06-.11.06l-1.56-.2a2.13 2.13 0 0 0-1.56.42l-1.25.96c-.04.03-.13 0-.13 0l-1.2-.92Z" clip-rule="evenodd"/>
</svg>
