<svg xmlns="http://www.w3.org/2000/svg" width="24" height="24" viewBox="0 0 24 24">
  <path d="M15.3 23c-.39 0-.79-.08-1.16-.23l-1.75-.72c-.25-.11-.54-.1-.79 0l-1.75.72c-.74.31-1.58.3-2.32 0-.74-.31-1.33-.9-1.64-1.64l-.72-1.75c-.1-.25-.31-.46-.56-.56l-1.74-.72c-.75-.31-1.33-.89-1.64-1.64a3.01 3.01 0 0 1 0-2.32l.72-1.74c.11-.25.11-.54 0-.79l-.72-1.75C1.08 9.49 1 9.1 1 8.7c0-.4.08-.79.23-1.16.16-.37.38-.7.66-.99.28-.28.61-.5.98-.66l1.75-.72c.26-.11.45-.3.56-.56l.72-1.74c.31-.75.89-1.33 1.64-1.64a3.01 3.01 0 0 1 2.32 0l1.74.72c.25.1.53.11.79 0l1.75-.72c.73-.3 1.58-.31 2.32 0 .75.31 1.33.89 1.64 1.64l.7 1.7s.01.03.02.04c.11.26.3.45.56.56l1.75.72c.75.31 1.33.89 1.64 1.64.31.75.31 1.57 0 2.32l-.72 1.74c-.11.26-.11.54 0 .79l.72 1.75c.15.37.23.76.23 1.16 0 .4-.08.79-.23 1.16-.15.37-.38.7-.66.98-.29.29-.62.51-.99.66l-1.74.72c-.25.11-.45.3-.56.56l-.72 1.74c-.31.75-.89 1.33-1.64 1.64-.37.15-.77.23-1.16.23V23ZM12 19.97c.39 0 .78.08 1.16.23l1.75.72c.25.11.54.11.79 0s.45-.3.56-.56l.72-1.75c.31-.75.89-1.33 1.64-1.64l1.74-.72c.13-.05.24-.13.34-.22a1.087 1.087 0 0 0 .3-.73c0-.13-.03-.27-.08-.39l-.72-1.75a3.01 3.01 0 0 1 0-2.32l.72-1.74c.11-.25.11-.54 0-.79s-.3-.45-.56-.56l-1.75-.72c-.73-.3-1.3-.86-1.62-1.58 0-.02-.02-.04-.02-.05l-.72-1.75c-.11-.25-.3-.45-.56-.56-.25-.1-.54-.1-.79 0l-1.75.72c-.75.31-1.57.31-2.32 0l-1.75-.72a.987.987 0 0 0-.79 0c-.25.1-.45.31-.56.56L7.01 5.4c-.31.75-.9 1.33-1.64 1.64l-1.74.72c-.13.05-.24.13-.33.22a1.046 1.046 0 0 0-.31.73c0 .13.03.27.08.39l.72 1.75c.31.75.31 1.57 0 2.32l-.72 1.74c-.1.25-.1.54 0 .79.11.26.3.45.56.56l1.75.72c.74.31 1.33.9 1.64 1.64l.72 1.75c.1.25.31.45.56.56.25.1.54.1.79 0l1.75-.72c.37-.15.77-.23 1.16-.23v-.01Z" opacity=".5"/>
  <path d="M11 15c-.26 0-.51-.1-.71-.29l-2-2A.996.996 0 1 1 9.7 11.3l1.29 1.29 3.79-3.79a.996.996 0 1 1 1.41 1.41l-4.5 4.5c-.2.2-.45.29-.71.29H11Z"/>
</svg>
