<svg xmlns="http://www.w3.org/2000/svg" width="24" height="24" viewBox="0 0 24 24">
  <path d="M12 23c-.45 0-.91-.15-1.28-.44l-1.2-.92a.238.238 0 0 0-.18-.05l-1.5.2c-.94.13-1.86-.4-2.22-1.29l-.6-1.45-1.51-.66a2.105 2.105 0 0 1-1.28-2.22l.21-1.56-.98-1.33c-.58-.75-.58-1.81 0-2.57l.96-1.25-.18-1.64c-.12-.94.4-1.86 1.28-2.22L4.97 5l.66-1.51C6 2.61 6.92 2.08 7.85 2.21l1.56.21 1.33-.98c.75-.58 1.81-.58 2.57 0l1.25.96 1.64-.19c.94-.12 1.86.4 2.22 1.29l.6 1.45 1.51.66c.88.37 1.41 1.28 1.28 2.22l-.21 1.56.98 1.33c.58.75.58 1.81 0 2.57l-.92 1.2c-.04.05-.06.12-.05.18l.2 1.51c.12.95-.4 1.86-1.29 2.22l-1.45.6-.66 1.51c-.36.88-1.28 1.41-2.22 1.28l-1.56-.2-1.33.98c-.38.29-.83.44-1.28.44L12 23Zm-2.64-3.41c.49 0 .98.16 1.37.46l1.2.92s.09.03.13 0l1.25-.96a2.13 2.13 0 0 1 1.56-.42l1.56.2c.05 0 .09-.02.11-.06l.6-1.45c.21-.52.62-.93 1.14-1.14l1.45-.6s.07-.06.07-.11l-.2-1.51c-.08-.59.08-1.19.45-1.66l.92-1.2s.03-.09 0-.13l-.96-1.25c-.34-.45-.49-1-.42-1.56l.21-1.56s-.02-.09-.07-.11l-1.45-.6c-.52-.21-.93-.62-1.14-1.14l-.6-1.45s-.08-.07-.11-.07l-1.56.21a2.13 2.13 0 0 1-1.56-.42l-1.25-.96s-.09-.03-.13 0l-1.25.96c-.45.34-1 .49-1.56.42l-1.56-.21s-.09.02-.11.07l-.6 1.45c-.22.52-.62.92-1.14 1.14l-1.46.6s-.07.06-.07.11l.21 1.56c.07.56-.08 1.11-.42 1.56l-.96 1.25s-.03.09 0 .13l.96 1.25c.34.44.49 1 .42 1.56l-.21 1.56s.02.09.07.11l1.45.6c.51.21.93.63 1.14 1.14l.6 1.45s.07.07.11.07l1.5-.2c.1-.01.19-.02.29-.02l.02.01Z" opacity=".5"/>
  <path d="M11 15c-.26 0-.51-.1-.71-.29l-2-2A.996.996 0 1 1 9.7 11.3l1.29 1.29 3.79-3.79a.996.996 0 1 1 1.41 1.41l-4.5 4.5c-.2.2-.45.29-.71.29H11Z"/>
</svg>
