<svg xmlns="http://www.w3.org/2000/svg" width="24" height="24" viewBox="0 0 24 24">
  <path d="M17.901 4.999a2.03 2.03 0 0 0 1.1 1.1l1.744.723a2.033 2.033 0 0 1 1.1 2.656l-.722 1.744a2.03 2.03 0 0 0 0 1.556l.722 1.744a2.033 2.033 0 0 1-1.1 2.656L19 17.901A2.033 2.033 0 0 0 17.9 19l-.723 1.745a2.032 2.032 0 0 1-2.656 1.1l-1.744-.722a2.032 2.032 0 0 0-1.555 0l-1.745.723a2.033 2.033 0 0 1-2.654-1.1L6.1 19.001A2.033 2.033 0 0 0 5 17.9l-1.744-.723a2.033 2.033 0 0 1-1.1-2.654l.721-1.744a2.033 2.033 0 0 0 0-1.556l-.722-1.746a2.033 2.033 0 0 1 1.1-2.657L5 6.098A2.03 2.03 0 0 0 6.1 5l.723-1.745a2.033 2.033 0 0 1 2.656-1.1l1.744.722a2.033 2.033 0 0 0 1.555-.001l1.746-.72a2.032 2.032 0 0 1 2.655 1.1l.723 1.746v-.003Z" opacity=".2"/>
  <path d="M10.99 15H11h-.02.01Zm-.7-.29c.198.188.444.287.7.29a.981.981 0 0 0 .7-.29l4.5-4.5a.996.996 0 1 0-1.41-1.41l-3.79 3.79L9.7 11.3a.996.996 0 1 0-1.41 1.41l2 2Z"/>
  <path fill-rule="evenodd" d="M14.14 22.77c.37.15.77.23 1.16.23v-.02c.39 0 .79-.08 1.16-.23.75-.31 1.33-.89 1.64-1.64l.72-1.74c.11-.26.31-.45.56-.56l1.74-.72c.37-.15.7-.37.99-.66.28-.28.51-.61.66-.98.15-.37.23-.76.23-1.16 0-.4-.08-.79-.23-1.16l-.72-1.75a.987.987 0 0 1 0-.79l.72-1.74c.31-.75.31-1.57 0-2.32-.31-.75-.89-1.33-1.64-1.64l-1.75-.72c-.26-.11-.45-.3-.56-.56a.142.142 0 0 1-.02-.04l-.7-1.7c-.31-.75-.89-1.33-1.64-1.64-.74-.31-1.59-.3-2.32 0l-1.75.72c-.26.11-.54.1-.79 0l-1.74-.72a3.01 3.01 0 0 0-2.32 0c-.75.31-1.33.89-1.64 1.64l-.72 1.74c-.11.26-.3.45-.56.56l-1.75.72c-.37.16-.7.38-.98.66-.28.29-.5.62-.66.99C1.08 7.91 1 8.3 1 8.7c0 .4.08.79.23 1.16l.72 1.75c.11.25.11.54 0 .79l-.72 1.74a3.01 3.01 0 0 0 0 2.32c.31.75.89 1.33 1.64 1.64l1.74.72c.25.1.46.31.56.56l.72 1.75c.31.74.9 1.33 1.64 1.64.74.3 1.58.31 2.32 0l1.75-.72c.25-.1.54-.11.79 0l1.75.72Zm-.98-2.57c-.38-.15-.77-.23-1.16-.23v.01c-.39 0-.79.08-1.16.23l-1.75.72c-.25.1-.54.1-.79 0-.25-.11-.46-.31-.56-.56l-.72-1.75c-.31-.74-.9-1.33-1.64-1.64l-1.75-.72c-.26-.11-.45-.3-.56-.56-.1-.25-.1-.54 0-.79l.72-1.74c.31-.75.31-1.57 0-2.32L3.07 9.1c-.05-.12-.08-.26-.08-.39a1.046 1.046 0 0 1 .64-.95l1.74-.72A3.03 3.03 0 0 0 7.01 5.4l.72-1.75c.11-.25.31-.46.56-.56.26-.11.54-.11.79 0l1.75.72c.75.31 1.57.31 2.32 0l1.75-.72c.25-.1.54-.1.79 0 .26.11.45.31.56.56l.72 1.75c0 .004.003.01.007.017.006.01.013.021.013.033.32.72.89 1.28 1.62 1.58l1.75.72c.26.11.45.31.56.56.11.25.11.54 0 .79l-.72 1.74a3.01 3.01 0 0 0 0 2.32l.72 1.75c.05.12.08.26.08.39a1.087 1.087 0 0 1-.3.73c-.1.09-.21.17-.34.22l-1.74.72c-.75.31-1.33.89-1.64 1.64l-.72 1.75c-.11.26-.31.45-.56.56-.25.11-.54.11-.79 0l-1.75-.72Z" clip-rule="evenodd"/>
</svg>
