<svg xmlns="http://www.w3.org/2000/svg" width="24" height="24" viewBox="0 0 24 24">
  <path fill-rule="evenodd" d="M11.993 3.717c-2.34-2.045-5.8-2.463-8.488-.167-2.907 2.483-3.329 6.666-1.03 9.624.795 1.023 2.274 2.509 3.757 3.923a174.19 174.19 0 0 0 4.05 3.724l.022.02c.163.145.325.29.475.403a2 2 0 0 0 .64.339c.372.112.777.112 1.149 0 .264-.08.47-.21.64-.338.149-.114.312-.26.474-.404l.022-.02a174.19 174.19 0 0 0 4.05-3.724c1.483-1.414 2.963-2.9 3.758-3.923 2.29-2.947 1.932-7.162-1.041-9.633-2.717-2.258-6.141-1.87-8.478.176Zm-.76 2.069C9.528 3.792 6.818 3.35 4.804 5.07c-2.103 1.797-2.386 4.772-.75 6.877.69.889 2.065 2.278 3.558 3.703 1.477 1.408 3.017 2.8 4.002 3.679.193.172.295.262.374.322l.005.004.006-.004c.078-.06.18-.15.373-.322.985-.879 2.525-2.271 4.002-3.68 1.494-1.424 2.868-2.813 3.559-3.702 1.644-2.117 1.382-5.104-.74-6.868-2.068-1.718-4.742-1.278-6.44.707a1 1 0 0 1-1.52 0Zm4.974 2.007a1 1 0 0 1 0 1.414l-4.5 4.5a1 1 0 0 1-1.414 0l-2-2a1 1 0 1 1 1.414-1.414L11 11.586l3.793-3.793a1 1 0 0 1 1.414 0Z" clip-rule="evenodd"/>
</svg>
