<svg xmlns="http://www.w3.org/2000/svg" width="24" height="24"  viewBox="0 0 24 24">
  <path fill-rule="evenodd" d="M3.505 3.55c2.688-2.296 6.148-1.878 8.488.167 2.337-2.046 5.76-2.434 8.478-.176 2.974 2.472 3.33 6.687 1.04 9.633-.794 1.023-2.274 2.509-3.756 3.923-1.5 1.43-3.059 2.839-4.05 3.724l-.023.02a8.17 8.17 0 0 1-.475.403 2 2 0 0 1-.64.339 2.015 2.015 0 0 1-1.148 0 2 2 0 0 1-.64-.338 8.24 8.24 0 0 1-.475-.404l-.022-.02a174.19 174.19 0 0 1-4.05-3.724c-1.483-1.414-2.962-2.9-3.757-3.923C.176 10.216.598 6.034 3.505 3.55Zm12.702 5.657a1 1 0 1 0-1.414-1.414L11 11.586l-1.293-1.293a1 1 0 1 0-1.414 1.414l2 2a1 1 0 0 0 1.414 0l4.5-4.5Z" clip-rule="evenodd"/>
</svg>
