<svg xmlns="http://www.w3.org/2000/svg" width="24" height="24" viewBox="0 0 24 24">
  <path d="M2 7.8c0-1.68 0-2.52.327-3.162a3 3 0 0 1 1.311-1.311C4.28 3 5.12 3 6.8 3h10.4c1.68 0 2.52 0 3.162.327a3 3 0 0 1 1.311 1.311C22 5.28 22 6.12 22 7.8v8.4c0 1.68 0 2.52-.327 3.162a3 3 0 0 1-1.311 1.311C19.72 21 18.88 21 17.2 21H14C14 14.17 8.732 8.57 2.038 8.04L2 8v-.2Z" opacity=".2"/>
  <path fill-rule="evenodd" d="M6.759 2H17.24c.805 0 1.47 0 2.01.044.563.046 1.08.145 1.565.392a4 4 0 0 1 1.748 1.748c.247.485.346 1.002.392 1.564C23 6.29 23 6.954 23 7.758v8.483c0 .805 0 1.47-.044 2.01-.046.563-.145 1.08-.392 1.565a4 4 0 0 1-1.748 1.748c-.485.247-1.002.346-1.564.392-.541.044-1.206.044-2.01.044H14a1 1 0 1 1 0-2h3.2c.857 0 1.439 0 1.889-.038.438-.035.663-.1.819-.18a2 2 0 0 0 .874-.874c.08-.156.145-.38.18-.819.037-.45.038-1.032.038-1.889V7.8c0-.857 0-1.439-.038-1.889-.035-.438-.1-.663-.18-.819a2 2 0 0 0-.874-.874c-.156-.08-.38-.145-.819-.18C18.639 4 18.057 4 17.2 4H6.8c-.857 0-1.439 0-1.889.038-.438.035-.663.1-.819.18a2 2 0 0 0-.874.874c-.08.156-.145.38-.18.819C3 6.361 3 6.943 3 7.8V8a1 1 0 1 1-2 0v-.241c0-.805 0-1.47.044-2.01.046-.563.145-1.08.392-1.565a4 4 0 0 1 1.748-1.748c.485-.247 1.002-.346 1.564-.392C5.29 2 5.954 2 6.758 2Zm-5.753 9.94a1 1 0 0 1 1.105-.884 10 10 0 0 1 8.833 8.834 1 1 0 1 1-1.988.22 8 8 0 0 0-7.067-7.066 1 1 0 0 1-.883-1.104Zm.014 3.96a1 1 0 0 1 1.18-.78 6 6 0 0 1 4.68 4.68 1 1 0 1 1-1.96.4 4 4 0 0 0-3.12-3.12 1 1 0 0 1-.78-1.18ZM1 20a1 1 0 0 1 1-1h.01a1 1 0 1 1 0 2H2a1 1 0 0 1-1-1Z" clip-rule="evenodd"/>
</svg>
