<svg xmlns="http://www.w3.org/2000/svg" width="24" height="24" viewBox="0 0 24 24">
  <path d="M13 13.414V17a1 1 0 1 1-2 0v-3.586l-1.293 1.293a1 1 0 0 1-1.414-1.414l3-3a1 1 0 0 1 1.414 0l3 3a1 1 0 0 1-1.414 1.414L13 13.414Z"/>
  <path fill-rule="evenodd" d="M9.568 1c-.252 0-.498 0-.706.017a2.022 2.022 0 0 0-.77.201 2 2 0 0 0-.874.874 2.022 2.022 0 0 0-.201.77 4.079 4.079 0 0 0-.01.146c-.394.013-.733.045-1.042.128a4 4 0 0 0-2.829 2.829C3 6.476 3 7.067 3 7.862v9.38c0 .804 0 1.469.044 2.01.046.562.145 1.079.392 1.564a4 4 0 0 0 1.748 1.748c.485.247 1.002.346 1.564.392C7.29 23 7.954 23 8.758 23h6.483c.805 0 1.47 0 2.01-.044.563-.046 1.08-.145 1.565-.392a4 4 0 0 0 1.748-1.748c.247-.485.346-1.002.392-1.564.044-.541.044-1.206.044-2.01v-9.38c0-.795 0-1.386-.136-1.897a4 4 0 0 0-2.829-2.829c-.31-.083-.648-.115-1.043-.128a3.18 3.18 0 0 0-.009-.146 2.02 2.02 0 0 0-.201-.77 2 2 0 0 0-.874-.874 2.022 2.022 0 0 0-.77-.201C14.93 1 14.684 1 14.432 1H9.568ZM6.482 5.068c.12-.032.264-.05.527-.058l.008.128c.019.229.063.499.201.77a2 2 0 0 0 .874.874c.271.138.541.182.77.201C9.07 7 9.316 7 9.568 7h4.864c.252 0 .498 0 .706-.017.229-.019.498-.063.77-.201a2 2 0 0 0 .874-.874 2.02 2.02 0 0 0 .201-.77l.008-.128c.263.009.407.026.527.058a2 2 0 0 1 1.414 1.414c.06.223.068.524.068 1.518v9.2c0 .857 0 1.439-.038 1.889-.035.438-.1.663-.18.819a2 2 0 0 1-.874.874c-.156.08-.38.145-.82.18-.45.037-1.031.038-1.888.038H8.8c-.857 0-1.439 0-1.889-.038-.438-.035-.663-.1-.819-.18a2 2 0 0 1-.874-.874c-.08-.156-.145-.38-.18-.819C5 18.639 5 18.057 5 17.2V8c0-.994.009-1.295.068-1.518a2 2 0 0 1 1.414-1.414Zm8.508-2.043c.01.116.01.278.01.575v.8c0 .297 0 .459-.01.575l-.002.014h-.013A8.18 8.18 0 0 1 14.4 5H9.6c-.297 0-.459 0-.575-.01l-.014-.001v-.014A8.183 8.183 0 0 1 9 4.4v-.8c0-.297 0-.459.01-.575l.001-.014h.014C9.14 3 9.303 3 9.6 3h4.8c.296 0 .459 0 .575.01l.014.001v.014Z" clip-rule="evenodd"/>
</svg>
