<svg xmlns="http://www.w3.org/2000/svg" width="24" height="24" viewBox="0 0 24 24">
  <path fill-rule="evenodd" d="M7.862 3H8a1 1 0 1 1 0 2c-.994 0-1.295.009-1.518.068a2 2 0 0 0-1.414 1.414C5.008 6.705 5 7.006 5 8v9.2c0 .857 0 1.439.038 1.889.035.438.1.663.18.819a2 2 0 0 0 .874.874c.156.08.38.145.819.18C7.361 21 7.943 21 8.8 21h6.4c.857 0 1.439 0 1.889-.038.438-.035.663-.1.819-.18a2 2 0 0 0 .874-.874c.08-.156.145-.38.18-.82.037-.45.038-1.031.038-1.888V8c0-.994-.009-1.295-.068-1.518a2 2 0 0 0-1.414-1.414C17.295 5.008 16.994 5 16 5a1 1 0 1 1 0-2h.138c.795 0 1.386 0 1.897.136a4 4 0 0 1 2.829 2.829C21 6.476 21 7.067 21 7.862v9.379c0 .805 0 1.47-.044 2.01-.046.563-.145 1.08-.392 1.565a4 4 0 0 1-1.748 1.748c-.485.247-1.002.346-1.564.392-.541.044-1.206.044-2.01.044H8.758c-.805 0-1.47 0-2.01-.044-.563-.046-1.08-.145-1.565-.392a4 4 0 0 1-1.748-1.748c-.247-.485-.346-1.002-.392-1.564C3 18.71 3 18.046 3 17.242v-9.38c0-.795 0-1.386.136-1.897a4 4 0 0 1 2.829-2.829C6.476 3 7.067 3 7.862 3Z" clip-rule="evenodd" opacity=".5"/>
  <path fill-rule="evenodd" d="M9.568 1h4.864c.252 0 .498 0 .706.017.229.019.499.063.77.201a2 2 0 0 1 .874.874c.138.271.182.541.201.77.017.208.017.454.017.706v.864c0 .252 0 .498-.017.706a2.022 2.022 0 0 1-.201.77 2 2 0 0 1-.874.874 2.022 2.022 0 0 1-.77.201C14.93 7 14.684 7 14.432 7H9.568c-.252 0-.498 0-.706-.017a2.022 2.022 0 0 1-.77-.201 2 2 0 0 1-.874-.874 2.022 2.022 0 0 1-.201-.77C7 4.93 7 4.684 7 4.432v-.864c0-.252 0-.498.017-.706a2.03 2.03 0 0 1 .201-.77 2 2 0 0 1 .874-.874 2.03 2.03 0 0 1 .77-.201C9.07 1 9.316 1 9.568 1Zm-.557 2.011v.014C9 3.14 9 3.303 9 3.6v.8a8.185 8.185 0 0 0 .011.589h.014C9.14 5 9.303 5 9.6 5h4.8a8.185 8.185 0 0 0 .589-.011v-.014C15 4.86 15 4.697 15 4.4v-.8c0-.297 0-.459-.01-.575l-.001-.014A8.187 8.187 0 0 0 14.4 3H9.6a8.186 8.186 0 0 0-.589.011Zm7.196 8.782a1 1 0 0 1 0 1.414l-4.5 4.5a1 1 0 0 1-1.414 0l-2-2a1 1 0 1 1 1.414-1.414L11 15.586l3.793-3.793a1 1 0 0 1 1.414 0Z" clip-rule="evenodd"/>
</svg>
