<svg xmlns="http://www.w3.org/2000/svg" width="24" height="24" viewBox="0 0 24 24">
  <path fill-rule="evenodd" d="M17.645 7.06a7.502 7.502 0 0 0-13.104 4.153 1 1 0 1 1-1.989-.212A9.488 9.488 0 0 1 7.25 3.773c4.129-2.384 9.303-1.316 12.182 2.308l.109-.406a1 1 0 1 1 1.931.518l-.732 2.732a1 1 0 0 1-1.224.707L16.784 8.9a1 1 0 1 1 .517-1.932l.344.092Zm2.915 4.84a1 1 0 0 1 .889 1.1 9.489 9.489 0 0 1-4.698 7.228c-4.129 2.384-9.303 1.316-12.182-2.308l-.109.406a1 1 0 0 1-1.932-.518l.733-2.732a1 1 0 0 1 1.224-.707l2.732.732a1 1 0 0 1-.517 1.932l-.345-.092a7.502 7.502 0 0 0 13.105-4.153 1 1 0 0 1 1.1-.889Z" clip-rule="evenodd" opacity=".5"/>
  <path fill-rule="evenodd" d="M12 6.5a1 1 0 0 1 1 1v3.934l2.014 1.209a1 1 0 0 1-1.028 1.714l-2.5-1.5A1 1 0 0 1 11 12V7.5a1 1 0 0 1 1-1Z" clip-rule="evenodd"/>
</svg>
