<svg xmlns="http://www.w3.org/2000/svg" width="24" height="24" viewBox="0 0 24 24">
  <path fill-rule="evenodd" d="M19 15a1 1 0 0 1 1 1v2h2a1 1 0 1 1 0 2h-2v2a1 1 0 1 1-2 0v-2h-2a1 1 0 1 1 0-2h2v-2a1 1 0 0 1 1-1Z" clip-rule="evenodd" opacity=".5"/>
  <path fill-rule="evenodd" d="M12 3a9 9 0 1 0 1.158 17.926 1 1 0 0 1 .254 1.984c-.463.06-.934.09-1.412.09-6.075 0-11-4.925-11-11S5.925 1 12 1s11 4.925 11 11c0 .47-.03.934-.087 1.39a1 1 0 1 1-1.984-.25A9 9 0 0 0 12 3Zm0 2a1 1 0 0 1 1 1v5.382l3.186 1.593a1 1 0 1 1-.895 1.789l-3.738-1.87A1 1 0 0 1 11 12V6a1 1 0 0 1 1-1Z" clip-rule="evenodd"/>
</svg>
