<svg xmlns="http://www.w3.org/2000/svg" width="24" height="24" viewBox="0 0 24 24">
  <path fill-rule="evenodd" d="M17.645 7.06a7.503 7.503 0 0 0-13.104 4.153 1 1 0 0 1-1.99-.212A9.488 9.488 0 0 1 7.25 3.773c4.129-2.384 9.303-1.316 12.182 2.308l.108-.406a1 1 0 1 1 1.932.518l-.732 2.732a1 1 0 0 1-1.224.707L16.782 8.9a1 1 0 0 1 .518-1.932l.344.092ZM12 6.5a1 1 0 0 1 1 1v3.934l2.014 1.208a1 1 0 1 1-1.029 1.715l-2.5-1.5A1 1 0 0 1 11 12V7.5a1 1 0 0 1 1-1Zm8.56 5.398a1 1 0 0 1 .888 1.1 9.488 9.488 0 0 1-4.698 7.23c-4.13 2.383-9.303 1.315-12.182-2.309l-.109.406a1 1 0 1 1-1.932-.518l.732-2.732a1 1 0 0 1 1.225-.707l2.732.732a1 1 0 1 1-.518 1.932l-.344-.092a7.503 7.503 0 0 0 13.105-4.153 1 1 0 0 1 1.1-.889Z" clip-rule="evenodd"/>
</svg>
