<svg xmlns="http://www.w3.org/2000/svg" width="24" height="24" viewBox="0 0 24 24">
  <path d="M12 21a9 9 0 1 0 0-18 9 9 0 0 0 0 18Z" opacity=".2"/>
  <path fill-rule="evenodd" d="M12 4a8 8 0 1 0 6.223 13.028 1 1 0 0 1 1.554 1.258A9.983 9.983 0 0 1 12 22C6.477 22 2 17.523 2 12S6.477 2 12 2c5.134 0 9.365 3.87 9.935 8.851l.058-.058a1 1 0 0 1 1.414 1.414l-2 2a1 1 0 0 1-1.413 0l-2.001-2a1 1 0 0 1 1.414-1.414l.568.568A8 8 0 0 0 12 4Zm0 2a1 1 0 0 1 1 1v4.465l2.555 1.703a1 1 0 0 1-1.11 1.664l-3-2A1 1 0 0 1 11 12V7a1 1 0 0 1 1-1Z" clip-rule="evenodd"/>
</svg>
