<svg xmlns="http://www.w3.org/2000/svg" width="24" height="24" viewBox="0 0 24 24">
  <path fill-rule="evenodd" d="M9 2a1 1 0 0 1 1-1h4a1 1 0 1 1 0 2h-1v2a1 1 0 1 1-2 0V3h-1a1 1 0 0 1-1-1ZM5.878 3.385a1 1 0 0 1 0 1.414l-.75.75-.75.75a1 1 0 0 1-1.414-1.414l.75-.75.75-.75a1 1 0 0 1 1.414 0Zm12.244 0a1 1 0 0 1 1.414 0l.75.75.75.75a1 1 0 0 1-1.414 1.414l-.75-.75-.75-.75a1 1 0 0 1 0-1.414Z" clip-rule="evenodd" opacity=".5"/>
  <path fill-rule="evenodd" d="M12 6a7.5 7.5 0 1 0 0 15 7.5 7.5 0 0 0 0-15Zm-9.5 7.5a9.5 9.5 0 1 1 19 0 9.5 9.5 0 0 1-19 0Zm9.5-5a1 1 0 0 1 1 1v3.434l2.014 1.209a1 1 0 0 1-1.028 1.714l-2.5-1.5A1 1 0 0 1 11 13.5v-4a1 1 0 0 1 1-1Z" clip-rule="evenodd"/>
</svg>
