<svg xmlns="http://www.w3.org/2000/svg" width="24" height="24" viewBox="0 0 24 24">
  <path d="M12 22c5.523 0 10-4.477 10-10S17.523 2 12 2 2 6.477 2 12s4.477 10 10 10Z" opacity=".2"/>
  <path fill-rule="evenodd" d="M12 3a9 9 0 0 0-.236 17.997 1 1 0 1 1-.051 2C5.77 22.843 1 17.978 1 12 1 5.925 5.925 1 12 1s11 4.925 11 11c0 .203-.006.404-.016.604a1 1 0 0 1-1.997-.108A9 9 0 0 0 12 3Zm0 2a1 1 0 0 1 1 1v5.382l3.186 1.593a1 1 0 1 1-.895 1.789l-3.738-1.87A1 1 0 0 1 11 12V6a1 1 0 0 1 1-1Zm9.707 10.793a1 1 0 0 1 0 1.414l-4.5 4.5a1 1 0 0 1-1.414 0l-2-2a1 1 0 0 1 1.414-1.414l1.293 1.293 3.793-3.793a1 1 0 0 1 1.414 0Z" clip-rule="evenodd"/>
</svg>
