<svg xmlns="http://www.w3.org/2000/svg" width="24" height="24" viewBox="0 0 24 24">
  <path fill-rule="evenodd" d="M16.5 18a1 1 0 1 1 0-2h5a1 1 0 0 1 .707 1.707L18.914 21H21.5a1 1 0 1 1 0 2h-5a1 1 0 0 1-.707-1.707L19.086 18H16.5Z" clip-rule="evenodd" opacity=".5"/>
  <path fill-rule="evenodd" d="M12 3a9 9 0 1 0 .901 17.956 1 1 0 1 1 .198 1.99A11.063 11.063 0 0 1 12 23C5.925 23 1 18.075 1 12S5.925 1 12 1s11 4.925 11 11c0 .37-.018.737-.054 1.099a1 1 0 1 1-1.99-.198A9 9 0 0 0 12 3Zm0 2a1 1 0 0 1 1 1v5.382l3.186 1.593a1 1 0 1 1-.895 1.789l-3.738-1.87A1 1 0 0 1 11 12V6a1 1 0 0 1 1-1Z" clip-rule="evenodd"/>
</svg>
