<svg xmlns="http://www.w3.org/2000/svg" width="24" height="24" fill="currentColor" viewBox="0 0 24 24">
  <path fill-rule="evenodd" d="M15.87 1.456a1 1 0 0 1 .264.95 4.5 4.5 0 0 0 5.46 5.46 1 1 0 0 1 1.213 1.212 6.51 6.51 0 0 1-2.5 3.691A5.5 5.5 0 0 1 17.5 23H6a5 5 0 0 1-1.42-9.794 7.006 7.006 0 0 1 5.605-4.158 6.502 6.502 0 0 1 4.736-7.854 1 1 0 0 1 .95.263Zm-4.364 9.57.018.001a5.002 5.002 0 0 1 3.884 2.611 1 1 0 0 0 1.15.49A3.5 3.5 0 1 1 17.5 21H6a3 3 0 0 1-.51-5.957 1 1 0 0 0 .778-.662 5.003 5.003 0 0 1 5.238-3.356ZM12.3 9.12A4.488 4.488 0 0 1 12 7.5c0-1.562.796-2.939 2.005-3.746a6.5 6.5 0 0 0 6.241 6.24 4.498 4.498 0 0 1-3.505 2A7.003 7.003 0 0 0 12.3 9.12ZM5 2a1 1 0 0 1 1 1v1h1a1 1 0 1 1 0 2H6v1a1 1 0 0 1-2 0V6H3a1 1 0 0 1 0-2h1V3a1 1 0 0 1 1-1Z" clip-rule="evenodd"/>
</svg>
