<svg xmlns="http://www.w3.org/2000/svg" width="24" height="24" viewBox="0 0 24 24">
  <path fill-rule="evenodd" d="M9.421 12.072a1 1 0 0 1 .557 1.3l-2.8 7a1 1 0 1 1-1.856-.743l2.8-7a1 1 0 0 1 1.3-.557Zm8 0a1 1 0 0 1 .558 1.3l-2.8 7a1 1 0 0 1-1.857-.743l2.8-7a1 1 0 0 1 1.3-.557Zm-4.8 2a1 1 0 0 1 .557 1.3l-2.8 7a1 1 0 1 1-1.857-.743l2.8-7a1 1 0 0 1 1.3-.557Z" clip-rule="evenodd" opacity=".5"/>
  <path fill-rule="evenodd" d="M5.25 6.143a7.002 7.002 0 0 1 13.5 0 5.502 5.502 0 0 1 1.806 9.93 1 1 0 0 1-1.112-1.662 3.5 3.5 0 0 0-1.616-6.396 1 1 0 0 1-.895-.833 5.002 5.002 0 0 0-9.867 0 1 1 0 0 1-.894.833 3.5 3.5 0 0 0-1.616 6.396 1 1 0 0 1-1.112 1.662 5.502 5.502 0 0 1 1.805-9.93Z" clip-rule="evenodd"/>
</svg>
