<svg xmlns="http://www.w3.org/2000/svg" width="24" height="24" viewBox="0 0 24 24">
  <path d="M7 21a5 5 0 1 1 .1-9.999 5.502 5.502 0 0 1 10.195 1.004A4.5 4.5 0 1 1 17.5 21H6.999Z" opacity=".2"/>
  <path fill-rule="evenodd" d="M11.072 7.066A6.001 6.001 0 0 1 23 8a5.984 5.984 0 0 1-1.879 4.36A5.5 5.5 0 0 1 17.5 22H7a6 6 0 0 1-.49-11.98 6.502 6.502 0 0 1 4.562-2.954Zm2.031.027a6.509 6.509 0 0 1 4.908 3.93c.438.04.86.132 1.262.269a4 4 0 1 0-6.17-4.199ZM12 9a4.5 4.5 0 0 0-4.01 2.456 1 1 0 0 1-.91.545L7 12a4 4 0 0 0 0 8h10.5a3.5 3.5 0 1 0-.16-6.996 1 1 0 0 1-1.008-.728A4.502 4.502 0 0 0 12 9Z" clip-rule="evenodd"/>
</svg>
