<svg xmlns="http://www.w3.org/2000/svg" width="24" height="24" viewBox="0 0 24 24">
  <path d="M6.5 19a4.5 4.5 0 0 1-.42-8.98 5.973 5.973 0 0 1 1.207-2.734l11.524 11.52A4.502 4.502 0 0 1 17.5 19h-11Z" opacity=".2"/>
  <path fill-rule="evenodd" d="M2.293 2.293a1 1 0 0 1 1.414 0L7.96 6.545a.924.924 0 0 1 .07.07L19.455 18.04a.997.997 0 0 1 .124.124l2.13 2.129a1 1 0 0 1-1.415 1.414l-1.797-1.797c-.324.06-.657.09-.996.09h-11A5.5 5.5 0 0 1 5.25 9.143c.169-.617.42-1.2.742-1.737l-3.7-3.699a1 1 0 0 1 0-1.414Zm5.176 6.59c-.19.406-.327.842-.403 1.299a1 1 0 0 1-.894.833A3.5 3.5 0 0 0 6.5 18h10.086L7.469 8.883Zm3.015-4.718a7.002 7.002 0 0 1 8.267 4.978 5.502 5.502 0 0 1 3.882 7.335 1 1 0 0 1-1.866-.72 3.5 3.5 0 0 0-2.94-4.743 1 1 0 0 1-.893-.833 5.002 5.002 0 0 0-6.019-4.064 1 1 0 1 1-.431-1.953Z" clip-rule="evenodd"/>
</svg>
