<svg xmlns="http://www.w3.org/2000/svg" width="24" height="24" fill="currentColor" viewBox="0 0 24 24">
  <path fill-rule="evenodd" d="M10.5 3a6.5 6.5 0 0 0-6.37 7.801 1 1 0 0 1-1.96.398 8.5 8.5 0 1 1 16.755-2.831 1 1 0 0 1-1.982.264A6.502 6.502 0 0 0 10.5 3Zm1.5 8a5.003 5.003 0 0 0-4.72 3.345 1 1 0 0 1-1.027.665A3 3 0 1 0 6 21h11.5a3.5 3.5 0 1 0-.232-6.992 1 1 0 0 1-.932-.5A4.997 4.997 0 0 0 12 11Zm-6.331 2.01a7 7 0 0 1 12.08-1.005A5.5 5.5 0 0 1 17.5 23H6a5 5 0 0 1-.331-9.99Z" clip-rule="evenodd"/>
</svg>
