<svg xmlns="http://www.w3.org/2000/svg" width="24" height="24" viewBox="0 0 24 24">
  <path fill-rule="evenodd" d="M10.5.5a1 1 0 0 1 1 1v1.6a1 1 0 1 1-2 0V1.5a1 1 0 0 1 1-1Zm6.888 2.613a1 1 0 0 1 0 1.414l-1.131 1.131a1 1 0 1 1-1.414-1.414l1.131-1.131a1 1 0 0 1 1.414 0Zm-13.775 0a1 1 0 0 1 1.414 0l1.131 1.131a1 1 0 1 1-1.414 1.414l-1.131-1.13a1 1 0 0 1 0-1.415ZM10.5 7a3 3 0 0 0-3 3 1 1 0 1 1-2 0 5 5 0 0 1 9.375-2.423 1 1 0 0 1-1.75.97A2.999 2.999 0 0 0 10.5 7ZM1 10a1 1 0 0 1 1-1h1.6a1 1 0 1 1 0 2H2a1 1 0 0 1-1-1Zm15.4 0a1 1 0 0 1 1-1H19a1 1 0 1 1 0 2h-1.6a1 1 0 0 1-1-1Z" clip-rule="evenodd" opacity=".5"/>
  <path fill-rule="evenodd" d="M12 12a4.002 4.002 0 0 0-3.74 2.58 1 1 0 0 1-1.267.588A3 3 0 1 0 6 21h12a3 3 0 1 0-.993-5.832 1 1 0 0 1-1.266-.588A4.002 4.002 0 0 0 12 12Zm-5.23 1.059A5.998 5.998 0 0 1 12 10a5.998 5.998 0 0 1 5.23 3.059A5 5 0 1 1 18 23H6a5 5 0 1 1 .77-9.941Z" clip-rule="evenodd"/>
</svg>
