<svg xmlns="http://www.w3.org/2000/svg" width="24" height="24" viewBox="0 0 24 24">
  <path d="M2 11.5a4.5 4.5 0 0 1 4.08-4.48 6.002 6.002 0 0 1 11.84 0A4.5 4.5 0 0 1 19 15.743H5A4.502 4.502 0 0 1 2 11.5Z" opacity=".2"/>
  <path fill-rule="evenodd" d="M5.25 6.143a7.002 7.002 0 0 1 13.5 0 5.502 5.502 0 0 1 .583 10.544 1 1 0 1 1-.666-1.886 3.502 3.502 0 0 0-.839-6.786 1 1 0 0 1-.895-.833 5.002 5.002 0 0 0-9.867 0 1 1 0 0 1-.894.833 3.5 3.5 0 0 0-.839 6.786 1 1 0 0 1-.666 1.886 5.502 5.502 0 0 1 .582-10.544Zm8.305 3.025a1 1 0 0 1 .277 1.387L10.868 15H15a1 1 0 0 1 .832 1.555l-4 6a1 1 0 0 1-1.664-1.11L13.132 17H9a1 1 0 0 1-.832-1.555l4-6a1 1 0 0 1 1.387-.277Z" clip-rule="evenodd"/>
</svg>
