<svg xmlns="http://www.w3.org/2000/svg" width="24" height="24" viewBox="0 0 24 24">
  <path fill-rule="evenodd" d="M11 8a6 6 0 1 1 8.842 5.285 1 1 0 1 1-.948-1.76A4 4 0 1 0 13 8a1 1 0 1 1-2-.001Z" clip-rule="evenodd" opacity=".5"/>
  <path fill-rule="evenodd" d="M6.51 10.02a6.501 6.501 0 0 1 11.502 1.004A5.5 5.5 0 0 1 17.5 22H7a6 6 0 0 1-.49-11.98ZM12 9a4.5 4.5 0 0 0-4.01 2.456 1 1 0 0 1-.91.545L7 12a4 4 0 0 0 0 8h10.5a3.5 3.5 0 1 0-.16-6.996 1 1 0 0 1-1.008-.728A4.502 4.502 0 0 0 12 9Z" clip-rule="evenodd"/>
</svg>
