<svg xmlns="http://www.w3.org/2000/svg" width="24" height="24" viewBox="0 0 24 24">
  <path fill-rule="evenodd" d="M15.87 1.456a1 1 0 0 1 .264.95 4.5 4.5 0 0 0 5.46 5.46 1 1 0 0 1 1.213 1.212A6.502 6.502 0 0 1 16.5 14a1 1 0 1 1 0-2 4.497 4.497 0 0 0 3.746-2.005 6.5 6.5 0 0 1-6.241-6.24A4.497 4.497 0 0 0 12 7.5c0 .749.182 1.452.503 2.07a1 1 0 1 1-1.775.922 6.502 6.502 0 0 1 4.193-9.299 1 1 0 0 1 .95.263Z" clip-rule="evenodd" opacity=".5"/>
  <path fill-rule="evenodd" d="M5 2a1 1 0 0 1 1 1v1h1a1 1 0 0 1 0 2H6v1a1 1 0 0 1-2 0V6H3a1 1 0 0 1 0-2h1V3a1 1 0 0 1 1-1Zm6 9a5.003 5.003 0 0 0-4.732 3.38 1 1 0 0 1-.778.663A3.001 3.001 0 0 0 6 21h11.5a3.5 3.5 0 1 0-.942-6.872 1 1 0 0 1-1.15-.49A4.999 4.999 0 0 0 11 11Zm-6.42 2.205a7.001 7.001 0 0 1 12.198-1.158A5.5 5.5 0 1 1 17.5 23H6a5 5 0 0 1-1.42-9.795Z" clip-rule="evenodd"/>
</svg>
