<svg xmlns="http://www.w3.org/2000/svg" width="24" height="24" viewBox="0 0 24 24">
  <path fill-rule="evenodd" d="M8.371 17.572a1 1 0 0 1 .557 1.3l-1 2.5a1 1 0 1 1-1.856-.743l1-2.5a1 1 0 0 1 1.3-.558Zm4 0a1 1 0 0 1 .557 1.3l-1 2.5a1 1 0 0 1-1.857-.743l1-2.5a1 1 0 0 1 1.3-.558Zm4 0a1 1 0 0 1 .558 1.3l-1 2.5a1 1 0 0 1-1.857-.743l1-2.5a1 1 0 0 1 1.3-.558Z" clip-rule="evenodd" opacity=".5"/>
  <path fill-rule="evenodd" d="M6.51 4.02a6.501 6.501 0 0 1 11.502 1.004A5.5 5.5 0 0 1 17.5 16H7a6 6 0 0 1-.49-11.98ZM12 3a4.5 4.5 0 0 0-4.01 2.456 1 1 0 0 1-.91.545L7 6a4 4 0 1 0 0 8h10.5a3.5 3.5 0 1 0-.16-6.996 1 1 0 0 1-1.008-.728A4.502 4.502 0 0 0 12 3Z" clip-rule="evenodd"/>
</svg>
