<svg xmlns="http://www.w3.org/2000/svg" width="24" height="24" fill="none" viewBox="0 0 24 24">
  <path fill="#000" fill-rule="evenodd" d="M12 1C5.925 1 1 5.925 1 12s4.925 11 11 11 11-4.925 11-11S18.075 1 12 1Zm1.98 6.196a1 1 0 0 0-1.96-.392l-2 10a1 1 0 0 0 1.96.392l2-10ZM9.208 8.293a1 1 0 0 1 0 1.414L6.914 12l2.293 2.293a1 1 0 1 1-1.414 1.414l-3-3a1 1 0 0 1 0-1.414l3-3a1 1 0 0 1 1.414 0Zm5.586 0a1 1 0 0 1 1.414 0l3 3a1 1 0 0 1 0 1.414l-3 3a1 1 0 0 1-1.414-1.414L17.086 12l-2.293-2.293a1 1 0 0 1 0-1.414Z" clip-rule="evenodd"/>
</svg>
