<svg xmlns="http://www.w3.org/2000/svg" width="24" height="24" viewBox="0 0 24 24">
  <path fill-rule="evenodd" d="M7.707 6.293a1 1 0 0 1 0 1.414L3.414 12l4.293 4.293a1 1 0 1 1-1.414 1.414l-5-5a1 1 0 0 1 0-1.414l5-5a1 1 0 0 1 1.414 0Zm8.586 0a1 1 0 0 1 1.414 0l5 5a1 1 0 0 1 0 1.414l-5 5a1 1 0 0 1-1.414-1.414L20.586 12l-4.293-4.293a1 1 0 0 1 0-1.414Z" clip-rule="evenodd" opacity=".5"/>
  <path fill-rule="evenodd" d="M14.217 2.024a1 1 0 0 1 .76 1.193l-4 18a1 1 0 0 1-1.953-.434l4-18a1 1 0 0 1 1.193-.76Z" clip-rule="evenodd"/>
</svg>
