<svg xmlns="http://www.w3.org/2000/svg" width="24" height="24" viewBox="0 0 24 24">
  <path fill-rule="evenodd" d="M12 1.5a1 1 0 0 1 1 1v5.957l7.515 4.885c.315.205.606.394.829.57.232.182.507.437.665.813a2 2 0 0 1 0 1.55 1 1 0 0 1-1.853-.752 1.518 1.518 0 0 0-.05-.04 11.05 11.05 0 0 0-.715-.486L12 10.193l-7.391 4.804c-.36.234-.572.373-.715.485l-.05.041a1 1 0 0 1-1.853.752 2 2 0 0 1 0-1.55c.158-.376.433-.63.665-.814.223-.175.514-.364.83-.569L11 8.457V2.5a1 1 0 0 1 1-1Z" clip-rule="evenodd" opacity=".5"/>
  <path fill-rule="evenodd" d="M11.543 1.246a2 2 0 0 1 .914 0c.348.081.652.28.893.439l.067.043 8.4 5.46.056.037c.206.132.464.3.662.535a2 2 0 0 1 .377.695c.09.294.089.602.088.847v5.396c.001.245.002.553-.088.847a2 2 0 0 1-.377.695c-.198.236-.456.403-.662.536l-.056.036-8.4 5.46-.067.043c-.241.159-.545.358-.893.44-.3.07-.613.07-.914 0-.348-.082-.652-.281-.893-.44l-.067-.043-8.4-5.46a11.486 11.486 0 0 0-.056-.037c-.206-.132-.465-.3-.662-.535a2 2 0 0 1-.377-.695c-.09-.294-.089-.602-.088-.847V9.302c-.001-.245-.002-.553.088-.847a2 2 0 0 1 .377-.695c.197-.236.456-.403.662-.535l.056-.037 8.4-5.46.067-.043c.241-.159.545-.358.893-.44Zm.451 1.957a6.838 6.838 0 0 0-.321.202L3.856 8.486c.01.01.023.02.038.032.143.112.355.251.715.485L12 13.807l7.391-4.804a11.031 11.031 0 0 0 .753-.517l-7.817-5.08a6.838 6.838 0 0 0-.321-.203L12 3.2l-.006.003ZM21 10.338c-.15.102-.314.209-.485.32L13 15.543v4.614l7.727-5.022c.142-.093.214-.14.265-.177l.004-.003a6.566 6.566 0 0 0 .004-.323v-4.294Zm-10 9.82-7.727-5.023a6.505 6.505 0 0 1-.265-.177l-.004-.003v-.005A6.508 6.508 0 0 1 3 14.632v-4.294c.15.102.314.209.485.32L11 15.543v4.614Z" clip-rule="evenodd"/>
</svg>
