<svg xmlns="http://www.w3.org/2000/svg" width="24" height="24" viewBox="0 0 24 24">
  <path fill-rule="evenodd" d="M11.543 1.246a2 2 0 0 1 .914 0c.348.081.652.28.893.439l.067.043 8.4 5.46.056.037c.206.132.465.3.662.535a2 2 0 0 1 .377.695c.09.294.089.602.088.847v5.396c.001.245.002.553-.088.847a2 2 0 0 1-.377.695c-.197.236-.456.403-.662.536l-.056.036-8.4 5.46-.067.043c-.241.159-.545.358-.893.44-.3.07-.613.07-.914 0-.348-.082-.652-.281-.893-.44l-.067-.043-8.4-5.46a11.011 11.011 0 0 0-.056-.037c-.206-.132-.465-.3-.662-.535a2 2 0 0 1-.377-.695c-.09-.294-.089-.602-.088-.847V9.302c-.001-.245-.002-.553.088-.847a2 2 0 0 1 .377-.695c.197-.236.456-.403.662-.535l.056-.037 8.4-5.46.067-.043c.241-.159.545-.358.893-.44ZM13 3.843l7.144 4.643c-.01.01-.023.02-.038.032a11.05 11.05 0 0 1-.715.485l-2.776 1.804L13 8.457V3.843Zm-2 4.614V3.843L3.856 8.486c.01.01.023.02.038.032.143.112.355.251.715.485l2.776 1.804L11 8.457ZM5.55 12l-2.065-1.342a27.745 27.745 0 0 1-.485-.32v3.324c.15-.102.314-.209.485-.32L5.55 12Zm-1.694 3.514c.01-.01.023-.02.038-.032.143-.112.355-.251.715-.485l2.776-1.804L11 15.543v4.614l-7.144-4.643ZM13 20.157l7.144-4.643c-.01-.01-.023-.02-.038-.032a11.069 11.069 0 0 0-.715-.485l-2.776-1.804L13 15.543v4.614Zm-1-6.35L9.22 12 12 10.193 14.78 12 12 13.807ZM18.45 12l2.065 1.342c.171.111.335.218.485.32v-3.324c-.15.102-.314.209-.485.32L18.45 12Z" clip-rule="evenodd"/>
</svg>
