<svg xmlns="http://www.w3.org/2000/svg" width="24" height="24" fill="none" viewBox="0 0 24 24">
  <path fill="#000" fill-rule="evenodd" d="M12.457 1.246a2 2 0 0 0-.914 0c-.348.081-.652.28-.893.439l-8.523 5.54c-.206.132-.464.3-.662.535a2 2 0 0 0-.377.695c-.09.294-.089.602-.088.847v5.396c0 .245-.002.553.088.847a2 2 0 0 0 .377.695c.198.236.456.403.662.535l8.523 5.54c.241.159.545.358.893.44.3.07.614.07.914 0 .348-.082.652-.281.893-.44l8.523-5.54c.206-.132.465-.3.662-.535a2 2 0 0 0 .377-.695c.09-.294.09-.602.088-.847V9.302c.001-.245.002-.553-.088-.847a2 2 0 0 0-.377-.695c-.197-.236-.456-.403-.662-.536l-8.523-5.54c-.241-.158-.545-.357-.893-.438ZM3 10.343l.004 4.612L11 20.157v-4.624l-8-5.19Zm10 9.814 7.996-5.207.004-4.607-8 5.19v4.624Z" clip-rule="evenodd"/>
</svg>
