<svg xmlns="http://www.w3.org/2000/svg" width="24" height="24" fill="currentColor" viewBox="0 0 24 24">
  <path fill-rule="evenodd" d="M5.293 1.293a1 1 0 0 1 1.414 0l2 2a1 1 0 0 1 0 1.414l-2 2a1 1 0 0 1-1.414-1.414l.26-.26A3 3 0 0 0 3 8a1 1 0 0 1-2 0 5 5 0 0 1 4.601-4.984l-.308-.309a1 1 0 0 1 0-1.414ZM9.22 6.25a7 7 0 1 1 8.529 8.529 1 1 0 1 1-.5-1.938 5 5 0 1 0-6.093-6.093A1 1 0 0 1 9.22 6.25ZM8 11a5 5 0 1 0 0 10 5 5 0 0 0 0-10Zm-7 5a7 7 0 1 1 14 0 7 7 0 0 1-14 0Zm21-1a1 1 0 0 1 1 1 5 5 0 0 1-4.601 4.984l.308.309a1 1 0 0 1-1.414 1.414l-2-2a1 1 0 0 1 0-1.414l2-2a1 1 0 0 1 1.414 1.414l-.26.26A3 3 0 0 0 21 16a1 1 0 0 1 1-1Z" clip-rule="evenodd"/>
</svg>
