<svg xmlns="http://www.w3.org/2000/svg" width="24" height="24" viewBox="0 0 24 24">
  <path d="M12 8c4.418 0 8-1.343 8-3v14c0 1.657-3.582 3-8 3s-8-1.343-8-3V5c0 1.657 3.582 3 8 3Z" opacity=".2"/>
  <path fill-rule="evenodd" d="M5.292 4.58C5.01 4.83 5 4.975 5 5c0 .026.01.17.292.42.28.248.744.518 1.402.765C8.004 6.675 9.88 7 12 7s3.997-.324 5.306-.815c.658-.247 1.121-.517 1.402-.766C18.99 5.17 19 5.026 19 5c0-.026-.01-.17-.292-.42-.28-.248-.744-.518-1.402-.765C15.996 3.325 14.12 3 12 3s-3.997.324-5.306.815c-.658.247-1.121.517-1.402.766ZM19 7.617a8.52 8.52 0 0 1-.992.442C16.422 8.653 14.298 9 12 9c-2.297 0-4.422-.347-6.008-.942A8.52 8.52 0 0 1 5 7.616v2.05c0 .026.01.17.292.42.28.249.744.519 1.402.766 1.31.49 3.185.815 5.306.815s3.997-.325 5.306-.815c.658-.247 1.121-.517 1.402-.766.282-.25.292-.394.292-.42v-2.05ZM21 5c0-.803-.438-1.448-.965-1.916-.53-.469-1.238-.846-2.027-1.142C16.422 1.347 14.298 1 12 1c-2.297 0-4.422.347-6.008.942-.79.296-1.498.673-2.027 1.142C3.437 3.552 3 4.197 3 5v14c0 .803.437 1.448.965 1.916.53.469 1.238.846 2.027 1.142C7.578 22.653 9.702 23 12 23c2.297 0 4.422-.348 6.008-.942.79-.296 1.498-.673 2.027-1.142.527-.468.965-1.113.965-1.916V5Zm-2 7.283a8.72 8.72 0 0 1-.992.441c-1.586.595-3.71.943-6.008.943-2.297 0-4.422-.348-6.008-.943A8.518 8.518 0 0 1 5 12.283v2.047c0 .025.01.17.292.42.28.248.744.518 1.402.765 1.31.49 3.185.815 5.306.815s3.997-.324 5.306-.815c.658-.247 1.121-.517 1.402-.766.282-.25.292-.394.292-.419v-2.047Zm0 4.663c-.31.164-.643.31-.992.442-1.586.595-3.71.942-6.008.942-2.297 0-4.422-.347-6.008-.942A8.518 8.518 0 0 1 5 16.946V19c0 .026.01.17.292.42.28.248.744.518 1.402.765C8.004 20.675 9.88 21 12 21s3.997-.324 5.306-.815c.658-.247 1.121-.517 1.402-.765.282-.25.292-.395.292-.42v-2.054Z" clip-rule="evenodd"/>
</svg>
