<svg xmlns="http://www.w3.org/2000/svg" width="24" height="24" viewBox="0 0 24 24">
  <path d="M17 22a5 5 0 1 0 0-10 5 5 0 0 0 0 10Z" opacity=".2"/>
  <path fill-rule="evenodd" d="m3.061 5 .023.02c.154.132.435.297.869.454C4.813 5.787 6.066 6 7.5 6c1.434 0 2.688-.213 3.547-.526.434-.157.715-.322.869-.454l.023-.02a1.105 1.105 0 0 0-.023-.02c-.154-.132-.435-.297-.869-.454C10.187 4.213 8.934 4 7.5 4c-1.434 0-2.688.213-3.547.526-.434.157-.715.322-.869.454a1.088 1.088 0 0 0-.023.02ZM12 7.25a7.023 7.023 0 0 1-.27.104C10.6 7.765 9.105 8 7.5 8c-1.604 0-3.1-.235-4.23-.646A7.034 7.034 0 0 1 3 7.25v2.187c.015.018.04.046.084.083.154.132.435.297.869.454.86.313 2.113.526 3.547.526 1.434 0 2.688-.213 3.547-.526.434-.157.715-.322.869-.454A.68.68 0 0 0 12 9.437V7.25Zm0 4.5a7.106 7.106 0 0 1-.27.104c-1.13.411-2.626.646-4.23.646-1.604 0-3.1-.235-4.23-.646A7.118 7.118 0 0 1 3 11.75v2.187c.015.018.04.046.084.083.154.132.435.297.869.454.86.313 2.113.526 3.547.526 1.027 0 1.97-.11 2.743-.29.67-.157 1.16-.355 1.466-.543.09-.166.187-.328.291-.485V11.75Zm2 .053V5c0-.677-.38-1.193-.78-1.537-.403-.346-.928-.613-1.49-.817C10.6 2.235 9.105 2 7.5 2c-1.604 0-3.1.235-4.23.646-.562.204-1.087.47-1.49.817C1.38 3.807 1 4.323 1 5v13.5c0 .677.38 1.193.78 1.537.403.346.928.613 1.49.817 1.13.411 2.626.646 4.23.646 1.202 0 2.336-.132 3.298-.367.51-.124 1-.284 1.438-.485A6 6 0 1 0 14 11.803Zm-2.998 5.352c.015.6.118 1.177.297 1.72-.259.111-.583.22-.975.315-.788.193-1.76.31-2.824.31-1.434 0-2.688-.213-3.547-.526-.434-.157-.715-.322-.869-.454A.677.677 0 0 1 3 18.437V16.25c.089.036.178.071.27.104C4.4 16.765 5.895 17 7.5 17c1.162 0 2.259-.123 3.199-.343.106-.025.212-.051.316-.079a6.078 6.078 0 0 0-.013.577ZM13 17a4 4 0 1 0 8 0 4 4 0 0 0-8 0Z" clip-rule="evenodd"/>
</svg>
