<svg xmlns="http://www.w3.org/2000/svg" width="24" height="24" fill="currentColor" viewBox="0 0 24 24">
  <path fill-rule="evenodd" d="M5.293 1.293a1 1 0 0 1 1.414 0l2 2a1 1 0 0 1 0 1.414l-2 2a1 1 0 0 1-1.414-1.414l.26-.26A3 3 0 0 0 3 8a1 1 0 0 1-2 0 5 5 0 0 1 4.601-4.984l-.308-.309a1 1 0 0 1 0-1.414ZM9 8a7 7 0 1 1 5.917 6.916 7 7 0 1 1-5.833-5.833A7.045 7.045 0 0 1 9 8Zm2.355 1.855a7.033 7.033 0 0 1 2.79 2.79 5 5 0 1 0-2.79-2.79ZM8 11a5 5 0 1 0 0 10 5 5 0 0 0 0-10Zm14 4a1 1 0 0 1 1 1 5 5 0 0 1-4.601 4.984l.308.309a1 1 0 0 1-1.414 1.414l-2-2a1 1 0 0 1 0-1.414l2-2a1 1 0 0 1 1.414 1.414l-.26.26A3 3 0 0 0 21 16a1 1 0 0 1 1-1Z" clip-rule="evenodd"/>
</svg>
