<svg xmlns="http://www.w3.org/2000/svg" width="24" height="24" viewBox="0 0 24 24">
  <path fill-rule="evenodd" d="M7.071 7.93A8.001 8.001 0 0 1 23 9a8.001 8.001 0 0 1-6.93 7.929 1 1 0 1 1-.265-1.982A6.001 6.001 0 0 0 15 3a6.001 6.001 0 0 0-5.947 5.195 1 1 0 0 1-1.982-.265Z" clip-rule="evenodd" opacity=".5"/>
  <path fill-rule="evenodd" d="M9 9a6 6 0 1 0 0 12A6 6 0 0 0 9 9Zm-8 6a8 8 0 1 1 16 0 8 8 0 0 1-16 0Zm8.472-3.882A1 1 0 0 1 10 12v4.5h.5a1 1 0 1 1 0 2h-3a1 1 0 1 1 0-2H8v-2.634a1 1 0 0 1-1.055-1.698l1.5-1a1 1 0 0 1 1.027-.05Z" clip-rule="evenodd"/>
</svg>
