<svg xmlns="http://www.w3.org/2000/svg" width="24" height="24" viewBox="0 0 24 24">
  <path d="M9 22A7 7 0 1 0 9 8a7 7 0 0 0 0 14Z" opacity=".2"/>
  <path fill-rule="evenodd" d="M7.203 7.203a8 8 0 1 1 9.594 9.594 8 8 0 1 1-9.594-9.594Zm.978 1.852A6.055 6.055 0 0 1 9 9a6 6 0 1 1-.82.055Zm8.812 5.606a8 8 0 0 0-7.654-7.654 6 6 0 1 1 7.654 7.654Zm-7.521-3.543A1 1 0 0 1 10 12v4.5h.5a1 1 0 1 1 0 2h-3a1 1 0 1 1 0-2H8v-2.634a1 1 0 0 1-1.055-1.698l1.5-1a1 1 0 0 1 1.027-.05Z" clip-rule="evenodd"/>
</svg>
