<svg xmlns="http://www.w3.org/2000/svg" width="24" height="24" fill="currentColor" viewBox="0 0 24 24">
  <path fill-rule="evenodd" d="M7 5.5a4.5 4.5 0 0 1 7.726-3.137 4.5 4.5 0 1 1-1.453 7.274A4.5 4.5 0 0 1 7 5.5Zm5.22 2.395A4.495 4.495 0 0 1 12 6.5c0-1.12.41-2.145 1.086-2.932a2.5 2.5 0 1 0-.866 4.327ZM16.5 4a2.5 2.5 0 1 0 0 5 2.5 2.5 0 0 0 0-5ZM3.568 12h.864c.252 0 .498 0 .706.017.229.019.499.063.77.201a2 2 0 0 1 .874.874c.079.155.127.31.158.456l1.593-.666.01-.004a12.352 12.352 0 0 1 .29-.126c.19-.08.456-.187.755-.294.553-.198 1.38-.458 2.055-.458.48 0 .956.057 1.421.17l2.386.58a2.544 2.544 0 0 1 1.955 2.334l1.483-1.082a2.61 2.61 0 0 1 3.347.234 2.503 2.503 0 0 1 0 3.602l-2.157 2.1a5.205 5.205 0 0 1-2.634 1.372l-3.05.593a5.278 5.278 0 0 1-2.254-.052l-2.757-.67-.003-.001a3.229 3.229 0 0 0-.77-.093H6.987a2.022 2.022 0 0 1-.205.82 2 2 0 0 1-.874.875 2.022 2.022 0 0 1-.77.201C4.93 23 4.684 23 4.432 23h-.864c-.252 0-.498 0-.706-.017a2.022 2.022 0 0 1-.77-.201 2 2 0 0 1-.874-.874 2.022 2.022 0 0 1-.201-.77C1 20.93 1 20.684 1 20.432v-5.864c0-.252 0-.498.017-.706a2.03 2.03 0 0 1 .201-.77 2 2 0 0 1 .874-.874 2.03 2.03 0 0 1 .77-.201C3.07 12 3.316 12 3.568 12ZM7 19.087h1.61c.42 0 .838.05 1.246.15h.001l2.756.67c.458.112.936.123 1.4.033m0 0 3.049-.593a3.206 3.206 0 0 0 1.621-.843l2.158-2.1a.504.504 0 0 0 0-.734.61.61 0 0 0-.775-.052l-2.513 1.834c-.534.39-1.18.598-1.84.598h-2.427a1 1 0 0 1 0-2h1.545c.345 0 .577-.265.577-.534v-.307c0-.225-.16-.45-.43-.515l-2.385-.58a4.025 4.025 0 0 0-.95-.114c-.29 0-.818.14-1.38.34a13.547 13.547 0 0 0-.851.34l-.05.022-.012.005-.002.001a1.09 1.09 0 0 1-.03.013L7 15.691v3.396m-2-4.039V20.4a8.185 8.185 0 0 1-.011.588l-.014.002C4.86 21 4.697 21 4.4 21h-.8a8.205 8.205 0 0 1-.589-.012v-.013A8.187 8.187 0 0 1 3 20.4v-5.8a8.187 8.187 0 0 1 .011-.589h.014C3.14 14 3.303 14 3.6 14h.8c.297 0 .459 0 .575.01l.014.001v.014c.01.116.011.278.011.575v.448Z" clip-rule="evenodd"/>
</svg>
