<svg xmlns="http://www.w3.org/2000/svg" width="24" height="24" viewBox="0 0 24 24">
  <path d="M16.5 11c-1.26 0-2.41-.52-3.22-1.36-.56.24-1.16.36-1.78.36C9.02 10 7 7.98 7 5.5a4.507 4.507 0 0 1 7.73-3.14A4.507 4.507 0 0 1 21 6.5c0 2.48-2.02 4.5-4.5 4.5Zm0-7a2.5 2.5 0 0 0 0 5 2.5 2.5 0 0 0 0-5Zm-5-1a2.5 2.5 0 0 0 0 5c.25 0 .49-.04.72-.11-.14-.44-.22-.91-.22-1.39 0-1.12.41-2.14 1.09-2.93-.44-.36-1-.57-1.59-.57Z" opacity=".5"/>
  <path d="M4.4 23h-.8c-.65 0-1.08 0-1.51-.22-.38-.19-.68-.5-.87-.87C1 21.48 1 21.05 1 20.4v-5.8c0-.65 0-1.08.22-1.51.19-.38.49-.68.87-.87.43-.22.86-.22 1.51-.22h.8c.65 0 1.08 0 1.51.22a1.928 1.928 0 0 1 1.03 1.33l1.61-.67c.29-.13 1.97-.88 3.1-.88.48 0 .95.06 1.42.17l2.39.58a2.55 2.55 0 0 1 1.96 2.33L18.9 14c1.03-.75 2.44-.65 3.35.23.49.48.77 1.12.76 1.8 0 .68-.27 1.32-.76 1.8l-2.16 2.1c-.72.7-1.63 1.18-2.63 1.37l-3.05.59c-.74.14-1.52.12-2.25-.05l-2.76-.67c-.25-.06-.51-.09-.77-.09H7.01c-.02.31-.07.56-.21.82-.19.38-.49.68-.87.87-.43.22-.86.22-1.51.22L4.4 23Zm-.8-9c-.28 0-.57 0-.65.02.05.01.05.3.05.58v5.8c0 .28 0 .57.02.65.01-.05.3-.05.58-.05h.8c.28 0 .57 0 .65-.02-.05-.01-.05-.3-.05-.58v-5.8c0-.28 0-.57-.02-.65-.01.05-.3.05-.58.05h-.8ZM7 19.09h1.61c.42 0 .84.05 1.25.15l2.76.67c.46.11.94.12 1.4.03l3.05-.59c.62-.12 1.18-.41 1.62-.84l2.16-2.1c.1-.1.16-.23.16-.37 0-.14-.06-.27-.16-.37a.605.605 0 0 0-.77-.05l-2.51 1.83c-.53.38-1.18.6-1.84.6H13.3c-.55 0-1-.45-1-1s.45-1 1-1h1.55c.32 0 .58-.24.58-.53v-.31c0-.24-.18-.45-.43-.52l-2.39-.58c-.31-.08-.63-.11-.95-.11-.51 0-1.65.41-2.3.71l-2.35.98v3.4H7Z"/>
</svg>
