<svg xmlns="http://www.w3.org/2000/svg" width="24" height="24" viewBox="0 0 24 24">
  <path fill-rule="evenodd" d="m3.061 5 .023.02c.154.132.435.297.869.454C4.813 5.787 6.066 6 7.5 6c1.434 0 2.688-.213 3.547-.526.434-.157.715-.322.869-.454l.023-.02a1.105 1.105 0 0 0-.023-.02c-.154-.132-.435-.297-.869-.454C10.187 4.213 8.934 4 7.5 4c-1.434 0-2.688.213-3.547.526-.434.157-.715.322-.869.454a1.088 1.088 0 0 0-.023.02ZM12 7.25a7.023 7.023 0 0 1-.27.104C10.6 7.765 9.105 8 7.5 8c-1.604 0-3.1-.235-4.23-.646A7.034 7.034 0 0 1 3 7.25v2.187c.015.018.04.046.084.083.154.132.435.297.869.454.86.313 2.113.526 3.547.526 1.434 0 2.688-.213 3.547-.526.434-.157.715-.322.869-.454A.68.68 0 0 0 12 9.437V7.25Zm0 4.5a7.106 7.106 0 0 1-.27.104c-1.13.411-2.626.646-4.23.646-1.604 0-3.1-.235-4.23-.646A7.118 7.118 0 0 1 3 11.75v2.187c.015.018.04.046.084.083.154.132.435.297.869.454.86.313 2.113.526 3.547.526 1.027 0 1.97-.11 2.743-.29.671-.157 1.16-.355 1.467-.543a5.99 5.99 0 0 1 .29-.485V11.75Zm-.985 4.828c-.104.028-.21.054-.316.08A14.31 14.31 0 0 1 7.5 17c-1.604 0-3.1-.235-4.23-.646A7.118 7.118 0 0 1 3 16.25v2.187c.015.018.04.046.084.083.154.132.435.297.869.454.86.313 2.113.526 3.547.526 1.064 0 2.036-.117 2.824-.31a6.3 6.3 0 0 0 .975-.315 5.995 5.995 0 0 1-.284-2.297ZM1 5c0-.677.38-1.193.78-1.537.403-.346.928-.613 1.49-.817C4.4 2.235 5.895 2 7.5 2c1.604 0 3.1.235 4.23.646.562.204 1.087.47 1.49.817.4.344.78.86.78 1.537v9a1 1 0 0 1-.2.6A3.978 3.978 0 0 0 13 17c0 .662.16 1.284.443 1.831a1 1 0 0 1-.244 1.223c-.593.501-1.464.85-2.401 1.08-.962.234-2.096.366-3.298.366-1.604 0-3.1-.235-4.23-.646-.562-.204-1.087-.47-1.49-.817-.4-.344-.78-.86-.78-1.537V5Z" clip-rule="evenodd" opacity=".5"/>
  <path fill-rule="evenodd" d="M17 13a4 4 0 1 0 0 8 4 4 0 0 0 0-8Zm-6 4a6 6 0 1 1 12 0 6 6 0 0 1-12 0Z" clip-rule="evenodd"/>
</svg>
