<svg xmlns="http://www.w3.org/2000/svg" width="24" height="24" viewBox="0 0 24 24">
  <path fill-rule="evenodd" d="M4 8.667a1 1 0 0 1 1 1c0 .025.01.17.292.42.28.248.744.518 1.402.765 1.31.49 3.185.815 5.306.815s3.997-.325 5.306-.815c.658-.247 1.121-.517 1.402-.766.282-.25.292-.394.292-.42a1 1 0 1 1 2 0c0 .803-.438 1.449-.965 1.917-.53.469-1.238.845-2.027 1.141-1.586.595-3.71.943-6.008.943-2.297 0-4.422-.348-6.008-.943-.79-.296-1.498-.672-2.027-1.141C3.437 11.115 3 10.469 3 9.667a1 1 0 0 1 1-1Zm0 4.663a1 1 0 0 1 1 1c0 .026.01.17.292.42.28.248.744.518 1.402.765 1.31.49 3.185.815 5.306.815s3.997-.324 5.306-.815c.658-.247 1.121-.517 1.402-.766.282-.25.292-.393.292-.419a1 1 0 1 1 2 0c0 .803-.438 1.448-.965 1.916-.53.469-1.238.846-2.027 1.142-1.586.595-3.71.942-6.008.942-2.297 0-4.422-.347-6.008-.942-.79-.296-1.498-.673-2.027-1.142C3.437 15.778 3 15.133 3 14.33a1 1 0 0 1 1-1Z" clip-rule="evenodd" opacity=".5"/>
  <path fill-rule="evenodd" d="M5.292 4.58C5.01 4.83 5 4.975 5 5c0 .026.01.17.292.42.28.248.744.518 1.402.765C8.004 6.675 9.88 7 12 7s3.997-.324 5.306-.815c.658-.247 1.121-.517 1.402-.766C18.99 5.17 19 5.026 19 5c0-.026-.01-.17-.292-.42-.28-.248-.744-.518-1.402-.765C15.996 3.325 14.12 3 12 3s-3.997.324-5.306.815c-.658.247-1.121.517-1.402.766ZM19 7.617a8.52 8.52 0 0 1-.992.442C16.422 8.653 14.298 9 12 9c-2.297 0-4.422-.347-6.008-.942A8.52 8.52 0 0 1 5 7.616V19c0 .026.01.17.292.42.28.248.744.518 1.402.765C8.004 20.675 9.88 21 12 21s3.997-.324 5.306-.815c.658-.247 1.121-.517 1.402-.765.282-.25.292-.395.292-.42V7.616ZM21 5v14c0 .803-.438 1.448-.965 1.916-.53.469-1.238.846-2.027 1.142-1.586.595-3.71.942-6.008.942-2.297 0-4.422-.348-6.008-.942-.79-.296-1.498-.673-2.027-1.142C3.437 20.448 3 19.803 3 19V5c0-.803.437-1.448.965-1.916.53-.469 1.238-.846 2.027-1.142C7.578 1.347 9.702 1 12 1c2.297 0 4.422.347 6.008.942.79.296 1.498.673 2.027 1.142C20.562 3.552 21 4.197 21 5Z" clip-rule="evenodd"/>
</svg>
