<svg xmlns="http://www.w3.org/2000/svg" width="24" height="24" fill="currentColor" viewBox="0 0 24 24">
  <path d="M16.5 22c-2.71 0-5.6-.7-6.33-2.23-.82.15-1.73.23-2.67.23-3.13 0-6.5-.94-6.5-3V5c0-2.06 3.37-3 6.5-3s6.5.94 6.5 3v3.21c.8-.14 1.66-.21 2.5-.21 3.13 0 6.5.94 6.5 3v8c0 2.06-3.37 3-6.5 3ZM12 18.54V19c.15.23 1.7 1 4.5 1s4.35-.77 4.52-1.09v-1.68c-2.49 1.03-6.53 1.04-9.02 0v1.31Zm-9-3.3V17c.15.23 1.7 1 4.5 1 .88 0 1.75-.08 2.5-.24V15.8c-2.19.38-5.08.24-7-.56Zm9-.24c.15.23 1.7 1 4.5 1s4.3-.75 4.51-1.07v-1.69c-2.49 1.03-6.52 1.03-9.01 0V15Zm-9-2.06c.24.33 1.77 1.06 4.5 1.06.88 0 1.75-.08 2.5-.24V11.8c-2.19.38-5.08.24-7-.56v1.7Zm9.03-1.91c.26.26 1.79.97 4.47.97 2.68 0 4.08-.65 4.45-1-.36-.35-1.88-1-4.45-1-1.36 0-2.42.18-3.18.4-.01 0-.02 0-.03.01-.78.23-1.14.49-1.26.62ZM3 8.94C3.24 9.27 4.77 10 7.5 10c1.14 0 2.25-.14 3.13-.39l.01-.01c.3-.3.74-.59 1.36-.85V7.24c-2.49 1.03-6.51 1.03-9 0v1.7Zm.02-3.91C3.27 5.29 4.8 6 7.5 6s4.08-.65 4.45-1c-.36-.35-1.88-1-4.45-1-2.57 0-4.17.68-4.48 1.03Z"/>
</svg>
