<svg xmlns="http://www.w3.org/2000/svg" width="24" height="24" viewBox="0 0 24 24">
  <path d="M9 22A7 7 0 1 0 9 8a7 7 0 0 0 0 14Z" opacity=".2"/>
  <path fill-rule="evenodd" d="M9.401 3.286a8 8 0 0 1 11.313 11.313 1 1 0 0 1-1.428-1.4A6 6 0 0 0 10.8 4.714a1 1 0 1 1-1.4-1.428ZM9 9a6 6 0 1 0 0 12A6 6 0 0 0 9 9Zm-8 6a8 8 0 1 1 16 0 8 8 0 0 1-16 0Zm8.472-3.882A1 1 0 0 1 10 12v4.5h.5a1 1 0 1 1 0 2h-3a1 1 0 1 1 0-2H8v-2.634a1 1 0 0 1-1.055-1.698l1.5-1a1 1 0 0 1 1.027-.05Z" clip-rule="evenodd"/>
</svg>
