<svg xmlns="http://www.w3.org/2000/svg" width="24" height="24" fill="currentColor" viewBox="0 0 24 24">
  <path fill-rule="evenodd" d="m3.061 5 .023.02c.154.132.435.297.869.454C4.813 5.787 6.066 6 7.5 6c1.434 0 2.688-.213 3.547-.526.434-.157.715-.322.869-.454l.023-.02a1.105 1.105 0 0 0-.023-.02c-.154-.132-.435-.297-.869-.454C10.187 4.213 8.934 4 7.5 4c-1.434 0-2.688.213-3.547.526-.434.157-.715.322-.869.454a1.088 1.088 0 0 0-.023.02Zm9.176 2.147a6.621 6.621 0 0 1-.506.207C10.6 7.765 9.104 8 7.5 8s-3.1-.235-4.23-.646A7.034 7.034 0 0 1 3 7.25v1.687A.622.622 0 0 0 3.062 9c.128.117.37.27.755.422.764.302 1.894.526 3.216.57.153.004.31.007.467.007a1 1 0 1 1 0 2c-.18 0-.357-.003-.533-.009-1.481-.048-2.851-.299-3.886-.708A7.232 7.232 0 0 1 3 11.25v1.687c.015.018.04.046.084.083.154.132.435.297.869.454.86.313 2.113.526 3.547.526a1 1 0 1 1 0 2c-1.604 0-3.1-.235-4.23-.646A7.118 7.118 0 0 1 3 15.25v1.687c.015.018.04.046.084.083.154.132.435.297.869.454.86.313 2.113.526 3.547.526a1 1 0 1 1 0 2c-1.604 0-3.1-.235-4.23-.646-.562-.204-1.087-.47-1.49-.817-.4-.344-.78-.86-.78-1.537V5c0-.677.38-1.193.78-1.537.403-.346.928-.613 1.49-.817C4.4 2.235 5.895 2 7.5 2c1.604 0 3.1.235 4.23.646.562.204 1.087.47 1.49.817.4.344.78.86.78 1.537v1.5a1 1 0 0 1-1.763.647Zm-.176 4.353.023.02c.154.132.435.297.869.454.86.313 2.114.526 3.547.526 1.433 0 2.688-.213 3.547-.526.434-.157.715-.322.869-.454l.023-.02a1.137 1.137 0 0 0-.023-.02c-.154-.132-.435-.297-.869-.454-.86-.313-2.114-.526-3.547-.526-1.434 0-2.688.213-3.547.526-.434.157-.715.322-.869.454a1.137 1.137 0 0 0-.023.02ZM21 13.75a7.106 7.106 0 0 1-.27.104c-1.13.411-2.626.646-4.23.646-1.604 0-3.1-.235-4.23-.646a7.106 7.106 0 0 1-.27-.104v1.437c.015.018.04.046.084.083.154.132.435.297.869.454.86.313 2.114.526 3.547.526 1.433 0 2.688-.213 3.547-.526.434-.157.715-.322.869-.454a.679.679 0 0 0 .084-.083V13.75Zm0 3.75a7.106 7.106 0 0 1-.27.104c-1.13.411-2.626.646-4.23.646-1.604 0-3.1-.235-4.23-.646A7.106 7.106 0 0 1 12 17.5v1.437c.015.018.04.046.084.083.154.132.435.297.869.454.86.313 2.114.526 3.547.526 1.433 0 2.688-.213 3.547-.526.434-.157.715-.322.869-.454a.679.679 0 0 0 .084-.083V17.5Zm2 1.5c0 .677-.38 1.193-.78 1.537-.403.346-.928.613-1.49.817-1.13.411-2.626.646-4.23.646-1.604 0-3.1-.235-4.23-.646-.562-.204-1.087-.47-1.49-.817-.4-.344-.78-.86-.78-1.537v-7.5c0-.677.38-1.193.78-1.537.403-.346.928-.613 1.49-.817 1.13-.411 2.626-.646 4.23-.646 1.604 0 3.1.235 4.23.646.562.204 1.087.47 1.49.817.4.344.78.86.78 1.537V19Z" clip-rule="evenodd"/>
</svg>
