<svg xmlns="http://www.w3.org/2000/svg" width="24" height="24" viewBox="0 0 24 24">
  <path fill-rule="evenodd" d="M2.293 2.293a1 1 0 0 1 1.414 0L7 5.586V3a1 1 0 0 1 2 0v5a1 1 0 0 1-1 1H3a1 1 0 0 1 0-2h2.586L2.293 3.707a1 1 0 0 1 0-1.414Zm18 0a1 1 0 1 1 1.414 1.414L18.414 7H21a1 1 0 1 1 0 2h-5a1 1 0 0 1-1-1V3a1 1 0 1 1 2 0v2.586l3.293-3.293ZM5.586 17H3a1 1 0 1 1 0-2h5a1 1 0 0 1 1 1v5a1 1 0 1 1-2 0v-2.586l-3.293 3.293a1 1 0 0 1-1.414-1.414L5.586 17ZM16 15h5a1 1 0 1 1 0 2h-2.586l3.293 3.293a1 1 0 0 1-1.414 1.414L17 18.414V21a1 1 0 1 1-2 0v-5a1 1 0 0 1 1-1Z" clip-rule="evenodd"/>
</svg>
