<svg xmlns="http://www.w3.org/2000/svg" width="24" height="24" viewBox="0 0 24 24">
  <path fill-rule="evenodd" d="M14 3a1 1 0 1 1 2 0v3.586l4.293-4.293a1 1 0 1 1 1.414 1.414L17.414 8H21a1 1 0 1 1 0 2h-6a1 1 0 0 1-1-1V3ZM7.161 3H10a1 1 0 1 1 0 2H7.2c-.577 0-.949 0-1.232.024-.272.022-.373.06-.422.085a1 1 0 0 0-.437.437c-.025.05-.063.15-.085.422C5 6.25 5 6.623 5 7.2V10a1 1 0 1 1-2 0V7.161c0-.527 0-.981.03-1.356.033-.395.104-.789.297-1.167a3 3 0 0 1 1.311-1.311c.378-.193.772-.264 1.167-.296C6.18 3 6.635 3 7.161 3ZM20 13a1 1 0 0 1 1 1v2.839c0 .527 0 .982-.03 1.356-.033.395-.104.789-.297 1.167a3 3 0 0 1-1.311 1.311c-.378.193-.772.264-1.167.296-.375.031-.83.031-1.356.031H14a1 1 0 1 1 0-2h2.8c.577 0 .949 0 1.232-.024.272-.022.372-.06.422-.085a1 1 0 0 0 .437-.437c.025-.05.063-.15.085-.422C19 17.75 19 17.377 19 16.8V14a1 1 0 0 1 1-1ZM3 16a1 1 0 1 1 0-2h6a1 1 0 0 1 1 1v6a1 1 0 1 1-2 0v-3.586l-4.293 4.293a1 1 0 0 1-1.414-1.414L6.586 16H3Z" clip-rule="evenodd"/>
</svg>
