<svg xmlns="http://www.w3.org/2000/svg" width="24" height="24" viewBox="0 0 24 24">
  <path fill-rule="evenodd" d="M9 2a1 1 0 0 1 1 1v6a1 1 0 0 1-1 1H3a1 1 0 1 1 0-2h3.586L2.293 3.707a1 1 0 0 1 1.414-1.414L8 6.586V3a1 1 0 0 1 1-1Zm6 0a1 1 0 0 1 1 1v3.586l4.293-4.293a1 1 0 1 1 1.414 1.414L17.414 8H21a1 1 0 1 1 0 2h-6a1 1 0 0 1-1-1V3a1 1 0 0 1 1-1ZM6.586 16H3a1 1 0 1 1 0-2h6a1 1 0 0 1 1 1v6a1 1 0 1 1-2 0v-3.586l-4.293 4.293a1 1 0 0 1-1.414-1.414L6.586 16ZM15 14h6a1 1 0 1 1 0 2h-3.586l4.293 4.293a1 1 0 0 1-1.414 1.414L16 17.414V21a1 1 0 1 1-2 0v-6a1 1 0 0 1 1-1Z" clip-rule="evenodd"/>
</svg>
