<svg xmlns="http://www.w3.org/2000/svg" width="24" height="24" viewBox="0 0 24 24">
  <path fill-rule="evenodd" d="M2.338 14.188a1 1 0 0 1 1.412.088A10.971 10.971 0 0 0 12 18c3.285 0 6.233-1.439 8.25-3.724a1 1 0 1 1 1.5 1.323A12.971 12.971 0 0 1 12 20c-3.883 0-7.37-1.704-9.75-4.4a1 1 0 0 1 .088-1.412Z" clip-rule="evenodd" opacity=".5"/>
  <path fill-rule="evenodd" d="M12 1a1 1 0 0 1 1 1v1.145a3.501 3.501 0 0 1 1.549 5.753l7.316 12.6a1 1 0 1 1-1.73 1.004L12.82 9.903a3.51 3.51 0 0 1-1.64 0l-7.315 12.6a1 1 0 0 1-1.73-1.005l7.316-12.6A3.502 3.502 0 0 1 11 3.144V2a1 1 0 0 1 1-1Zm-.73 6.81a.94.94 0 0 0-.046-.026 1.5 1.5 0 1 1 .046.027Z" clip-rule="evenodd"/>
</svg>
