<svg xmlns="http://www.w3.org/2000/svg" width="24" height="24" viewBox="0 0 24 24">
  <path fill-rule="evenodd" d="M12 3a9 9 0 1 0 0 18 9 9 0 0 0 0-18ZM1 12C1 5.925 5.925 1 12 1s11 4.925 11 11-4.925 11-11 11S1 18.075 1 12Zm13.659-2.659-3.988 1.33-1.33 3.988 3.988-1.33 1.33-3.988Zm.404-2.224c.183-.043.525-.11.89.02a1.5 1.5 0 0 1 .91.91c.13.365.063.707.02.89a7.128 7.128 0 0 1-.19.624l-.01.033-1.488 4.463a1.902 1.902 0 0 1-.232.515 1.5 1.5 0 0 1-.391.39 1.903 1.903 0 0 1-.515.233L9.56 16.694a7.886 7.886 0 0 1-.624.19c-.183.042-.525.109-.89-.022a1.5 1.5 0 0 1-.91-.909c-.13-.365-.063-.707-.02-.89.044-.188.117-.409.19-.624l.01-.033 1.488-4.463.009-.027c.032-.1.099-.306.223-.488a1.5 1.5 0 0 1 .391-.39c.182-.125.388-.192.488-.224l.027-.01 4.463-1.487.033-.01c.215-.073.437-.146.624-.19Z" clip-rule="evenodd"/>
</svg>
