<svg xmlns="http://www.w3.org/2000/svg" width="24" height="24" viewBox="0 0 24 24">
  <path d="M12 23c-2.99 0-5.71-1.2-7.7-3.15-.03-.02-.05-.05-.08-.07a.27.27 0 0 1-.07-.08A10.973 10.973 0 0 1 1 12c0-2.99 1.2-5.71 3.15-7.7.02-.03.05-.05.07-.08a.27.27 0 0 1 .08-.07C6.29 2.2 9.01 1 12 1s5.71 1.2 7.7 3.15c.03.02.06.05.08.07.02.02.05.05.07.08C21.8 6.29 23 9 23 12s-1.2 5.71-3.15 7.7c-.02.03-.05.06-.07.08-.02.02-.05.05-.08.07C17.71 21.8 15 23 12 23Zm0-4c.55 0 1 .45 1 1v.94a8.96 8.96 0 0 0 4.62-1.92l-.67-.67a.996.996 0 1 1 1.41-1.41l.67.67A8.976 8.976 0 0 0 20.95 13h-.94c-.55 0-1-.45-1-1s.45-1 1-1h.94a8.893 8.893 0 0 0-1.92-4.61l-.67.66a.996.996 0 1 1-1.41-1.41l.67-.66A9.01 9.01 0 0 0 13 3.06V4c0 .55-.45 1-1 1s-1-.45-1-1v-.94c-1.73.19-3.32.88-4.61 1.92l.67.67a.996.996 0 1 1-1.41 1.41l-.67-.67a8.974 8.974 0 0 0-1.92 4.62H4c.55 0 1 .45 1 1s-.45 1-1 1h-.94a8.96 8.96 0 0 0 1.92 4.62l.66-.67a.996.996 0 1 1 1.41 1.41l-.67.67a8.976 8.976 0 0 0 4.61 1.92v-.94c0-.55.45-1 1-1L12 19Zm0-2c-.26 0-.51-.1-.71-.29l-4-4a.996.996 0 0 1 0-1.41l4-4a.996.996 0 0 1 1.41 0l4 4c.39.39.39 1.02 0 1.41l-4 4c-.2.2-.45.29-.71.29H12Zm-2.59-5L12 14.59 14.59 12 12 9.41 9.41 12Z"/>
</svg>
