<svg xmlns="http://www.w3.org/2000/svg" width="24" height="24" viewBox="0 0 24 24">
  <path fill-rule="evenodd" d="M12 1a1 1 0 0 1 1 1v2a1 1 0 1 1-2 0V2a1 1 0 0 1 1-1ZM4.222 4.222a1 1 0 0 1 1.414 0L7.05 5.636A1 1 0 1 1 5.636 7.05L4.222 5.636a1 1 0 0 1 0-1.414Zm15.556 0a1 1 0 0 1 0 1.414L18.364 7.05a1 1 0 0 1-1.414-1.414l1.414-1.414a1 1 0 0 1 1.414 0ZM1 12a1 1 0 0 1 1-1h2a1 1 0 1 1 0 2H2a1 1 0 0 1-1-1Zm18 0a1 1 0 0 1 1-1h2a1 1 0 1 1 0 2h-2a1 1 0 0 1-1-1ZM7.05 16.95a1 1 0 0 1 0 1.414l-1.414 1.414a1 1 0 0 1-1.414-1.414l1.414-1.414a1 1 0 0 1 1.414 0Zm9.9 0a1 1 0 0 1 1.414 0l1.414 1.414a1 1 0 0 1-1.414 1.414l-1.414-1.414a1 1 0 0 1 0-1.414ZM12 19a1 1 0 0 1 1 1v2a1 1 0 1 1-2 0v-2a1 1 0 0 1 1-1Z" clip-rule="evenodd" opacity=".5"/>
  <path fill-rule="evenodd" d="M12 3a9 9 0 1 0 0 18 9 9 0 0 0 0-18ZM1 12C1 5.925 5.925 1 12 1s11 4.925 11 11-4.925 11-11 11S1 18.075 1 12Zm11-5a1 1 0 0 1 .857.486L14.23 9.77l2.286 1.371a1 1 0 0 1 0 1.716l-2.286 1.37-1.371 2.287a1 1 0 0 1-1.716 0l-1.37-2.286-2.287-1.371a1 1 0 0 1 0-1.716l2.286-1.37 1.371-2.287A1 1 0 0 1 12 7Zm0 2.944-.643 1.07a1.005 1.005 0 0 1-.342.344L9.944 12l1.07.643c.141.084.259.202.344.342L12 14.056l.643-1.07c.084-.141.202-.259.342-.344L14.056 12l-1.07-.643a1.002 1.002 0 0 1-.344-.342L12 9.944Z" clip-rule="evenodd"/>
</svg>
