<svg xmlns="http://www.w3.org/2000/svg" width="24" height="24" viewBox="0 0 24 24">
  <path d="M16 8.5a7.5 7.5 0 0 1-9.284 7.287 6.5 6.5 0 1 0 9.07-9.07c.14.571.214 1.168.214 1.783Z" opacity=".2"/>
  <path fill-rule="evenodd" d="M12 3a9 9 0 1 0 0 18 9 9 0 0 0 0-18ZM1 12C1 5.925 5.925 1 12 1s11 4.925 11 11-4.925 11-11 11S1 18.075 1 12Zm14.227-6.113a1 1 0 0 1 1.143.017A7.5 7.5 0 1 1 5.904 16.37a1 1 0 0 1 1.05-1.555 6.5 6.5 0 0 0 7.862-7.862 1 1 0 0 1 .411-1.066Zm1.707 3.68a8.504 8.504 0 0 1-7.368 7.367 5.5 5.5 0 0 0 7.368-7.368Z" clip-rule="evenodd"/>
</svg>
