<svg xmlns="http://www.w3.org/2000/svg" width="24" height="24" viewBox="0 0 24 24">
  <path fill-rule="evenodd" d="M11 2a1 1 0 0 1 1-1c.65 0 1.287.056 1.907.165a1 1 0 1 1-.345 1.97A9.063 9.063 0 0 0 12 3a1 1 0 0 1-1-1Zm5.92 1.235a1 1 0 0 1 1.392-.245 11.058 11.058 0 0 1 2.7 2.701 1 1 0 0 1-1.637 1.149 9.056 9.056 0 0 0-2.212-2.212 1 1 0 0 1-.244-1.393Zm4.758 6.046a1 1 0 0 1 1.157.812 11.063 11.063 0 0 1 0 3.814 1 1 0 1 1-1.97-.345 9.063 9.063 0 0 0 0-3.124 1 1 0 0 1 .813-1.157Zm-.914 7.641a1 1 0 0 1 .244 1.393 11.054 11.054 0 0 1-2.697 2.695 1 1 0 1 1-1.148-1.637 9.055 9.055 0 0 0 2.208-2.207 1 1 0 0 1 1.393-.244Zm-6.046 4.756a1 1 0 0 1-.813 1.157A10.99 10.99 0 0 1 12 23a1 1 0 1 1 0-2 8.99 8.99 0 0 0 1.56-.135 1 1 0 0 1 1.158.813Z" clip-rule="evenodd" opacity=".5"/>
  <path fill-rule="evenodd" d="M11 3.055a9.001 9.001 0 0 0 0 17.89V3.055ZM1 12C1 5.925 5.925 1 12 1a1 1 0 0 1 1 1v20a1 1 0 0 1-1 1C5.925 23 1 18.075 1 12Z" clip-rule="evenodd"/>
</svg>
