<svg xmlns="http://www.w3.org/2000/svg" width="24" height="24" viewBox="0 0 24 24">
  <path d="M8 5.2c0-1.12 0-1.68.218-2.108a2 2 0 0 1 .874-.874C9.52 2 10.08 2 11.2 2h7.6c1.12 0 1.68 0 2.108.218a2 2 0 0 1 .874.874C22 3.52 22 4.08 22 5.2v7.6c0 1.12 0 1.68-.218 2.108a2 2 0 0 1-.874.874C20.48 16 19.92 16 18.8 16h-7.6c-1.12 0-1.68 0-2.108-.218a2 2 0 0 1-.874-.874C8 14.48 8 13.92 8 12.8V5.2Z" opacity=".2"/>
  <path fill-rule="evenodd" d="M11.162 1h7.676c.528 0 .982 0 1.357.03.395.033.789.104 1.167.297a3 3 0 0 1 1.311 1.311c.193.378.264.772.296 1.167.031.375.031.83.031 1.356v7.678c0 .527 0 .981-.03 1.356-.033.395-.104.789-.297 1.167a3 3 0 0 1-1.311 1.311c-.378.193-.772.264-1.167.296-.375.031-.83.031-1.357.031H17v1.838c0 .528 0 .982-.03 1.357-.033.395-.104.789-.297 1.167a3 3 0 0 1-1.311 1.311c-.378.193-.772.264-1.167.296-.375.031-.83.031-1.356.031H5.16c-.527 0-.981 0-1.356-.03-.395-.033-.789-.104-1.167-.297a3 3 0 0 1-1.311-1.311c-.193-.378-.264-.772-.296-1.167C1 19.82 1 19.365 1 18.838v-7.677c0-.527 0-.981.03-1.356.033-.395.104-.789.297-1.167a3 3 0 0 1 1.311-1.311c.378-.193.772-.264 1.167-.296C4.18 7 4.635 7 5.161 7H7V5.161c0-.527 0-.981.03-1.356.033-.395.104-.789.297-1.167a3 3 0 0 1 1.311-1.311c.378-.193.772-.264 1.167-.296C10.18 1 10.635 1 11.162 1ZM7 9H5.2c-.577 0-.949 0-1.232.024-.272.022-.373.06-.422.085a1 1 0 0 0-.437.437c-.025.05-.063.15-.085.422C3 10.25 3 10.623 3 11.2v7.6c0 .577 0 .949.024 1.232.022.272.06.373.085.422a1 1 0 0 0 .437.437c.05.025.15.063.422.085C4.25 21 4.623 21 5.2 21h7.6c.577 0 .949 0 1.232-.024.272-.022.373-.06.422-.085a1 1 0 0 0 .437-.437c.025-.05.063-.15.085-.422C15 19.75 15 19.377 15 18.8V17h-3.838c-.528 0-.982 0-1.357-.03-.395-.033-.789-.104-1.167-.297a3 3 0 0 1-1.311-1.311c-.193-.378-.264-.772-.296-1.167A17.9 17.9 0 0 1 7 12.838V9Zm4.2 6c-.577 0-.949 0-1.232-.024-.272-.022-.373-.06-.422-.085a1 1 0 0 1-.437-.437c-.025-.05-.063-.15-.085-.422C9 13.75 9 13.377 9 12.8V5.2c0-.577 0-.949.024-1.232.022-.272.06-.373.085-.422a1 1 0 0 1 .437-.437c.05-.025.15-.063.422-.085C10.25 3 10.623 3 11.2 3h7.6c.577 0 .949 0 1.232.024.272.022.373.06.422.085a1 1 0 0 1 .437.437c.025.05.063.15.085.422C21 4.25 21 4.623 21 5.2v7.6c0 .577 0 .949-.024 1.232-.022.272-.06.373-.085.422a1 1 0 0 1-.437.437c-.05.025-.15.063-.422.085C19.75 15 19.377 15 18.8 15h-7.6Z" clip-rule="evenodd"/>
</svg>
