<svg xmlns="http://www.w3.org/2000/svg" width="24" height="24" viewBox="0 0 24 24">
  <path fill-rule="evenodd" d="M8 3a1 1 0 0 1 1 1v6.4c0 1.697 0 2.909.078 3.86.077.938.224 1.533.467 2.01a5 5 0 0 0 2.185 2.185c.477.243 1.072.39 2.01.467.951.077 2.163.078 3.86.078H21a1 1 0 1 1 0 2h-3.444c-1.643 0-2.937 0-3.978-.085-1.063-.087-1.95-.267-2.756-.678a7 7 0 0 1-3.059-3.06c-.41-.805-.591-1.692-.678-2.755C7 13.381 7 12.087 7 10.444V4a1 1 0 0 1 1-1Z" clip-rule="evenodd" opacity=".5"/>
  <path fill-rule="evenodd" d="M7.293 3.293a1 1 0 0 1 1.414 0l5 5a1 1 0 0 1-1.414 1.414L8 5.414 3.707 9.707a1 1 0 0 1-1.414-1.414l5-5Z" clip-rule="evenodd"/>
</svg>
