<svg xmlns="http://www.w3.org/2000/svg" width="24" height="24" viewBox="0 0 24 24">
  <path fill-rule="evenodd" d="M14.26 10.078c-.951-.077-2.163-.078-3.86-.078H4a1 1 0 1 1 0-2h6.444c1.643 0 2.937 0 3.978.085 1.063.087 1.95.267 2.756.678a7 7 0 0 1 3.059 3.06c.41.805.591 1.692.678 2.755.085 1.041.085 2.335.085 3.978V20a1 1 0 1 1-2 0v-1.4c0-1.697 0-2.909-.078-3.86-.077-.938-.224-1.533-.467-2.01a5 5 0 0 0-2.185-2.185c-.477-.243-1.072-.39-2.01-.467Z" clip-rule="evenodd" opacity=".5"/>
  <path fill-rule="evenodd" d="M9.707 3.293a1 1 0 0 1 0 1.414L5.414 9l4.293 4.293a1 1 0 0 1-1.414 1.414l-5-5a1 1 0 0 1 0-1.414l5-5a1 1 0 0 1 1.414 0Z" clip-rule="evenodd"/>
</svg>
