<svg xmlns="http://www.w3.org/2000/svg" width="24" height="24" viewBox="0 0 24 24">
  <path fill-rule="evenodd" d="M9 1a1 1 0 0 1 1 1v2h4V2a1 1 0 1 1 2 0v2.027c.087.005.17.01.252.017.562.046 1.079.145 1.564.392a4 4 0 0 1 1.748 1.748c.247.485.346 1.002.392 1.564l.017.252H22a1 1 0 1 1 0 2h-2v3h2a1 1 0 1 1 0 2h-2.002c-.003.476-.013.891-.042 1.252-.046.562-.145 1.079-.392 1.564a4 4 0 0 1-1.748 1.748c-.485.247-1.002.346-1.564.392a9.728 9.728 0 0 1-.252.017V22a1 1 0 1 1-2 0v-2h-4v2a1 1 0 1 1-2 0v-2.027a9.764 9.764 0 0 1-.252-.017c-.562-.046-1.079-.145-1.564-.392a4 4 0 0 1-1.748-1.748c-.247-.485-.346-1.002-.392-1.564-.03-.361-.04-.776-.042-1.252H2a1 1 0 1 1 0-2h2v-3H2a1 1 0 0 1 0-2h2.027c.005-.087.01-.17.017-.252.046-.562.145-1.079.392-1.564a4 4 0 0 1 1.748-1.748c.485-.247 1.002-.346 1.564-.392L8 4.027V2a1 1 0 0 1 1-1ZM6 14.2c0 .857 0 1.439.038 1.889.035.438.1.663.18.819a2 2 0 0 0 .874.874c.156.08.38.145.819.18C8.361 18 8.943 18 9.8 18h4.4c.857 0 1.439 0 1.889-.038.438-.035.663-.1.819-.18a2 2 0 0 0 .874-.874c.08-.156.145-.38.18-.819.037-.45.038-1.032.038-1.889V9.8c0-.857 0-1.439-.038-1.889-.035-.438-.1-.663-.18-.819a2 2 0 0 0-.874-.874c-.156-.08-.38-.145-.819-.18C15.639 6 15.057 6 14.2 6H9.8c-.857 0-1.439 0-1.889.038-.438.035-.663.1-.819.18a2 2 0 0 0-.874.874c-.08.156-.145.38-.18.819C6 8.361 6 8.943 6 9.8v4.4Z" clip-rule="evenodd"/>
</svg>
