<svg xmlns="http://www.w3.org/2000/svg" width="24" height="24" viewBox="0 0 24 24">
  <path fill-rule="evenodd" d="M9 1a1 1 0 0 1 1 1v1h4V2a1 1 0 1 1 2 0v1.002c.476.003.891.013 1.252.042.562.046 1.079.145 1.564.392a4 4 0 0 1 1.748 1.748c.247.485.346 1.002.392 1.564.03.361.04.777.042 1.252H22a1 1 0 1 1 0 2h-1v3h1a1 1 0 1 1 0 2h-1v.241c0 .805 0 1.47-.044 2.01-.046.563-.145 1.08-.392 1.565a4 4 0 0 1-1.748 1.748c-.485.247-1.002.346-1.564.392-.361.03-.776.04-1.252.042V22a1 1 0 1 1-2 0v-1h-4v1a1 1 0 1 1-2 0v-1.002a17.308 17.308 0 0 1-1.252-.042c-.562-.046-1.079-.145-1.564-.392a4 4 0 0 1-1.748-1.748c-.247-.485-.346-1.002-.392-1.564C3 16.71 3 16.046 3 15.242V15H2a1 1 0 1 1 0-2h1v-3H2a1 1 0 0 1 0-2h1.002c.003-.475.013-.891.042-1.252.046-.562.145-1.079.392-1.564a4 4 0 0 1 1.748-1.748c.485-.247 1.002-.346 1.564-.392.361-.03.777-.04 1.252-.042V2a1 1 0 0 1 1-1Zm-.2 4c-.857 0-1.439 0-1.889.038-.438.035-.663.1-.819.18a2 2 0 0 0-.874.874c-.08.156-.145.38-.18.819C5 7.361 5 7.943 5 8.8v6.4c0 .857 0 1.439.038 1.889.035.438.1.663.18.819a2 2 0 0 0 .874.874c.156.08.38.145.819.18C7.361 19 7.943 19 8.8 19h6.4c.857 0 1.439 0 1.889-.038.438-.035.663-.1.819-.18a2 2 0 0 0 .874-.874c.08-.156.145-.38.18-.819.037-.45.038-1.032.038-1.889V8.8c0-.857 0-1.439-.038-1.889-.035-.438-.1-.663-.18-.819a2 2 0 0 0-.874-.874c-.156-.08-.38-.145-.819-.18C16.639 5 16.057 5 15.2 5H8.8Zm1.768 3h2.864c.252 0 .498 0 .706.017.229.019.499.063.77.201a2 2 0 0 1 .874.874c.138.271.182.541.201.77.017.208.017.454.017.706v2.864c0 .252 0 .498-.017.706a2.022 2.022 0 0 1-.201.77 2 2 0 0 1-.874.874 2.022 2.022 0 0 1-.77.201c-.208.017-.454.017-.706.017h-2.864c-.252 0-.498 0-.706-.017a2.022 2.022 0 0 1-.77-.201 2 2 0 0 1-.874-.874 2.022 2.022 0 0 1-.201-.77C8 13.93 8 13.684 8 13.432v-2.864c0-.252 0-.498.017-.706a2.03 2.03 0 0 1 .201-.77 2 2 0 0 1 .874-.874 2.03 2.03 0 0 1 .77-.201C10.07 8 10.316 8 10.568 8Zm-.557 2.011v.014c-.01.116-.011.278-.011.575v2.8c0 .296 0 .459.01.575l.001.014h.014c.116.01.278.011.575.011h2.8c.296 0 .459 0 .575-.01l.014-.001v-.014c.01-.116.011-.278.011-.575v-2.8c0-.296 0-.459-.01-.575l-.001-.014h-.014A8.207 8.207 0 0 0 13.4 10h-2.8c-.296 0-.459 0-.575.01l-.014.001Z" clip-rule="evenodd"/>
</svg>
