<svg xmlns="http://www.w3.org/2000/svg" width="24" height="24" viewBox="0 0 24 24">
  <path d="M2 7.2V9h20V7.2c0-1.12 0-1.68-.218-2.108a2 2 0 0 0-.874-.874C20.48 4 19.92 4 18.8 4H5.2c-1.12 0-1.68 0-2.108.218a2 2 0 0 0-.874.874C2 5.52 2 6.08 2 7.2Z" opacity=".2"/>
  <path fill-rule="evenodd" d="M5.161 3H18.84c.527 0 .982 0 1.356.03.395.033.789.104 1.167.297a3 3 0 0 1 1.311 1.311c.193.378.264.772.296 1.167.031.375.031.83.031 1.356v7.678c0 .527 0 .981-.03 1.356-.033.395-.104.789-.297 1.167a3 3 0 0 1-1.311 1.311c-.378.193-.772.264-1.167.296-.375.031-.83.031-1.357.031H18.5a1 1 0 1 1 0-2h.3c.577 0 .949 0 1.232-.024.272-.022.372-.06.422-.085a1 1 0 0 0 .437-.437c.025-.05.063-.15.085-.422C21 15.75 21 15.377 21 14.8V10H3v4.8c0 .577 0 .949.024 1.232.022.272.06.372.085.422a1 1 0 0 0 .437.437c.05.025.15.063.422.085C4.25 17 4.623 17 5.2 17h.3a1 1 0 1 1 0 2h-.339c-.527 0-.981 0-1.356-.03-.395-.033-.789-.104-1.167-.297a3 3 0 0 1-1.311-1.311c-.193-.378-.264-.772-.296-1.167C1 15.82 1 15.365 1 14.838V7.162c0-.527 0-.981.03-1.356.033-.395.104-.789.297-1.167a3 3 0 0 1 1.311-1.311c.378-.193.772-.264 1.167-.296C4.18 3 4.635 3 5.161 3ZM3 8h18v-.8c0-.577 0-.949-.024-1.232-.022-.272-.06-.373-.085-.422a1 1 0 0 0-.437-.437c-.05-.025-.15-.063-.422-.085C19.75 5 19.377 5 18.8 5H5.2c-.577 0-.949 0-1.232.024-.272.022-.373.06-.422.085a1 1 0 0 0-.437.437c-.025.05-.063.15-.085.422C3 6.25 3 6.623 3 7.2V8Zm8.293 4.293a1 1 0 0 1 1.414 0l3 3a1 1 0 0 1-1.414 1.414L13 15.414V20a1 1 0 1 1-2 0v-4.586l-1.293 1.293a1 1 0 0 1-1.414-1.414l3-3Z" clip-rule="evenodd"/>
</svg>
