<svg xmlns="http://www.w3.org/2000/svg" width="24" height="24" fill="currentColor" viewBox="0 0 24 24">
  <path fill-rule="evenodd" d="M5.161 4H18.84c.527 0 .982 0 1.356.03.395.033.789.104 1.167.297a3 3 0 0 1 1.311 1.311c.193.378.264.772.296 1.167.031.375.031.83.031 1.356V11a1 1 0 1 1-2 0H3v4.8c0 .577 0 .949.024 1.232.022.272.06.372.085.422a1 1 0 0 0 .437.437c.05.025.15.063.422.085C4.25 18 4.623 18 5.2 18h6.3a1 1 0 1 1 0 2H5.161c-.527 0-.981 0-1.356-.03-.395-.033-.789-.104-1.167-.297a3 3 0 0 1-1.311-1.311c-.193-.378-.264-.772-.296-1.167C1 16.82 1 16.365 1 15.838V8.162c0-.527 0-.981.03-1.356.033-.395.104-.789.297-1.167a3 3 0 0 1 1.311-1.311c.378-.193.772-.264 1.167-.296C4.18 4 4.635 4 5.161 4ZM3 9h18v-.8c0-.577 0-.949-.024-1.232-.022-.272-.06-.373-.085-.422a1 1 0 0 0-.437-.437c-.05-.025-.15-.063-.422-.085C19.75 6 19.377 6 18.8 6H5.2c-.577 0-.949 0-1.232.024-.272.022-.373.06-.422.085a1 1 0 0 0-.437.437c-.025.05-.063.15-.085.422C3 7.25 3 7.623 3 8.2V9Zm16.15 4.2 2.187.781a1 1 0 0 1 .663.942v2.502c0 1.54-1.056 2.69-1.86 3.36a9.122 9.122 0 0 1-1.659 1.093l-.034.017-.01.005-.004.002h-.002L18 21l-.43.902h-.003l-.004-.002-.01-.005-.034-.017a8.638 8.638 0 0 1-.5-.276 9.122 9.122 0 0 1-1.16-.817c-.803-.67-1.859-1.82-1.859-3.36v-2.502a1 1 0 0 1 .663-.942l2.186-.781a3.414 3.414 0 0 1 2.3 0ZM18 21l-.43.902c.271.13.588.13.86 0L18 21Zm0-1.142a7.09 7.09 0 0 0 .86-.609c.697-.581 1.14-1.218 1.14-1.824v-1.798l-1.524-.544a1.413 1.413 0 0 0-.952 0L16 15.627v1.798c0 .606.444 1.243 1.14 1.824.306.255.616.461.86.61Z" clip-rule="evenodd"/>
</svg>
