<svg xmlns="http://www.w3.org/2000/svg" width="24" height="24" fill="currentColor" viewBox="0 0 24 24">
  <path fill-rule="evenodd" d="M5.161 4H18.84c.527 0 .982 0 1.356.03.395.033.789.104 1.167.297a3 3 0 0 1 1.311 1.311c.193.378.264.772.296 1.167.031.375.031.83.031 1.356V10a1 1 0 0 1-1 1H3v4.8c0 .577 0 .949.024 1.232.022.272.06.372.085.422a1 1 0 0 0 .437.437c.05.025.15.063.422.085C4.25 18 4.623 18 5.2 18H11a1 1 0 1 1 0 2H5.161c-.527 0-.981 0-1.356-.03-.395-.033-.789-.104-1.167-.297a3 3 0 0 1-1.311-1.311c-.193-.378-.264-.772-.296-1.167C1 16.82 1 16.365 1 15.838V8.162c0-.527 0-.981.03-1.356.033-.395.104-.789.297-1.167a3 3 0 0 1 1.311-1.311c.378-.193.772-.264 1.167-.296C4.18 4 4.635 4 5.161 4ZM3 9h18v-.8c0-.577 0-.949-.024-1.232-.022-.272-.06-.373-.085-.422a1 1 0 0 0-.437-.437c-.05-.025-.15-.063-.422-.085C19.75 6 19.377 6 18.8 6H5.2c-.577 0-.949 0-1.232.024-.272.022-.373.06-.422.085a1 1 0 0 0-.437.437c-.025.05-.063.15-.085.422C3 7.25 3 7.623 3 8.2V9Zm17.793 6.293a.414.414 0 1 0-.586-.586l-4.157 4.158a5.796 5.796 0 0 0-.126.127l-.002.002v.002a6.09 6.09 0 0 0-.036.175l-.111.554.554-.11.175-.037h.002l.002-.002c.025-.024.06-.057.127-.126l4.158-4.157Zm-2-2a2.414 2.414 0 0 1 3.414 3.414l-4.157 4.158-.027.026c-.099.1-.224.225-.372.328-.129.09-.268.164-.414.222a2.71 2.71 0 0 1-.48.127l-.036.008-2.025.405a1 1 0 0 1-1.177-1.177l.405-2.025.008-.037c.027-.137.061-.311.127-.48.058-.145.132-.284.222-.413.103-.148.228-.273.328-.372l.026-.027 4.158-4.157Z" clip-rule="evenodd"/>
</svg>
