<svg xmlns="http://www.w3.org/2000/svg" width="24" height="24" fill="currentColor" viewBox="0 0 24 24">
  <path fill-rule="evenodd" d="M5.161 4H18.84c.527 0 .982 0 1.356.03.395.033.789.104 1.167.297a3 3 0 0 1 1.311 1.311c.193.378.264.772.296 1.167.031.375.031.83.031 1.356V11a1 1 0 1 1-2 0H3v4.8c0 .577 0 .949.024 1.232.022.272.06.372.085.422a1 1 0 0 0 .437.437c.05.025.15.063.422.085C4.25 18 4.623 18 5.2 18H11a1 1 0 1 1 0 2H5.161c-.527 0-.981 0-1.356-.03-.395-.033-.789-.104-1.167-.297a3 3 0 0 1-1.311-1.311c-.193-.378-.264-.772-.296-1.167C1 16.82 1 16.365 1 15.838V8.162c0-.527 0-.981.03-1.356.033-.395.104-.789.297-1.167a3 3 0 0 1 1.311-1.311c.378-.193.772-.264 1.167-.296C4.18 4 4.635 4 5.161 4ZM3 9h18v-.8c0-.577 0-.949-.024-1.232-.022-.272-.06-.373-.085-.422a1 1 0 0 0-.437-.437c-.05-.025-.15-.063-.422-.085C19.75 6 19.377 6 18.8 6H5.2c-.577 0-.949 0-1.232.024-.272.022-.373.06-.422.085a1 1 0 0 0-.437.437c-.025.05-.063.15-.085.422C3 7.25 3 7.623 3 8.2V9Zm12.75 6.75a2.75 2.75 0 1 1 5.5 0v.778c.203.024.43.074.658.19a2 2 0 0 1 .874.874c.138.271.182.541.201.77.017.208.017.454.017.706v.864c0 .252 0 .498-.017.706a2.022 2.022 0 0 1-.201.77 2 2 0 0 1-.874.874 2.022 2.022 0 0 1-.77.201c-.208.017-.454.017-.706.017h-3.864c-.252 0-.498 0-.706-.017a2.022 2.022 0 0 1-.77-.201 2 2 0 0 1-.874-.874 2.022 2.022 0 0 1-.201-.77C14 20.43 14 20.184 14 19.932v-.864c0-.252 0-.498.017-.706a2.03 2.03 0 0 1 .201-.77 2 2 0 0 1 .874-.874 1.93 1.93 0 0 1 .658-.19v-.778Zm.85 2.75a8.207 8.207 0 0 0-.588.012l-.002.013c-.01.116-.01.279-.01.575v.8a8.207 8.207 0 0 0 .012.589h.013c.116.01.279.011.575.011h3.8a8.207 8.207 0 0 0 .589-.012v-.013c.01-.116.011-.279.011-.575v-.8a8.207 8.207 0 0 0-.012-.589h-.013a8.207 8.207 0 0 0-.575-.011h-3.8Zm2.65-2h-1.5v-.75a.75.75 0 0 1 1.5 0v.75Z" clip-rule="evenodd"/>
</svg>
