<svg xmlns="http://www.w3.org/2000/svg" width="24" height="24" viewBox="0 0 24 24">
  <path fill-rule="evenodd" d="M6 1a1 1 0 0 1 1 1v3h7.838c.528 0 .982 0 1.357.03.395.033.789.104 1.167.297a3 3 0 0 1 1.311 1.311c.193.378.264.772.296 1.167.031.375.031.83.031 1.356V17h3a1 1 0 1 1 0 2h-3v3a1 1 0 1 1-2 0v-3H9.161c-.527 0-.981 0-1.356-.03-.395-.033-.789-.104-1.167-.297a3 3 0 0 1-1.311-1.311c-.193-.378-.264-.772-.296-1.167C5 15.82 5 15.365 5 14.838V7H2a1 1 0 0 1 0-2h3V2a1 1 0 0 1 1-1Zm1 6v7.8c0 .577 0 .949.024 1.232.022.272.06.372.085.422a1 1 0 0 0 .437.437c.05.025.15.063.422.085C8.25 17 8.623 17 9.2 17H17V9.2c0-.577 0-.949-.024-1.232-.022-.272-.06-.373-.085-.422a1 1 0 0 0-.437-.437c-.05-.025-.15-.063-.422-.085C15.75 7 15.377 7 14.8 7H7Z" clip-rule="evenodd"/>
</svg>
