<svg xmlns="http://www.w3.org/2000/svg" width="24" height="24" viewBox="0 0 24 24">
  <path fill-rule="evenodd" d="M16.032 7.024C15.75 7 15.377 7 14.8 7H10a1 1 0 1 1 0-2h4.838c.528 0 .982 0 1.357.03.395.033.789.104 1.167.297a3 3 0 0 1 1.311 1.311c.193.378.264.772.296 1.167.031.375.031.83.031 1.356V14a1 1 0 1 1-2 0V9.2c0-.577 0-.949-.024-1.232-.022-.272-.06-.373-.085-.422a1 1 0 0 0-.437-.437c-.05-.025-.15-.063-.422-.085ZM1 6a1 1 0 0 1 1-1h4a1 1 0 0 1 0 2H2a1 1 0 0 1-1-1Zm17 11a1 1 0 0 1 1 1v4a1 1 0 1 1-2 0v-4a1 1 0 0 1 1-1Z" clip-rule="evenodd" opacity=".5"/>
  <path fill-rule="evenodd" d="M6 1a1 1 0 0 1 1 1v12.8c0 .577 0 .949.024 1.232.022.272.06.372.085.422a1 1 0 0 0 .437.437c.05.025.15.063.422.085C8.25 17 8.623 17 9.2 17H22a1 1 0 1 1 0 2H9.161c-.527 0-.981 0-1.356-.03-.395-.033-.789-.104-1.167-.297a3 3 0 0 1-1.311-1.311c-.193-.378-.264-.772-.296-1.167A17.9 17.9 0 0 1 5 14.838V2a1 1 0 0 1 1-1Z" clip-rule="evenodd"/>
</svg>
