<svg xmlns="http://www.w3.org/2000/svg" width="24" height="24" viewBox="0 0 24 24">
  <path fill-rule="evenodd" d="M1.293 1.293a1 1 0 0 1 1.414 0l2 2a1 1 0 0 1-1.414 1.414l-2-2a1 1 0 0 1 0-1.414ZM8 1a1 1 0 0 1 1 1v1.5a1 1 0 0 1-2 0V2a1 1 0 0 1 1-1Zm13.293.293a1 1 0 1 1 1.414 1.414l-2 2a1 1 0 1 1-1.414-1.414l2-2ZM16 1a1 1 0 0 1 1 1v4a1 1 0 1 1-2 0V2a1 1 0 0 1 1-1ZM1 8a1 1 0 0 1 1-1h4a1 1 0 0 1 0 2H2a1 1 0 0 1-1-1Zm18.5 0a1 1 0 0 1 1-1H22a1 1 0 1 1 0 2h-1.5a1 1 0 0 1-1-1Zm-16 9H2a1 1 0 1 1 0-2h1.5a1 1 0 1 1 0 2ZM17 16a1 1 0 0 1 1-1h3.5a1 1 0 1 1 0 2H18a1 1 0 0 1-1-1Zm-9 1a1 1 0 0 1 1 1v4a1 1 0 1 1-2 0v-4a1 1 0 0 1 1-1Zm-3.293 2.293a1 1 0 0 1 0 1.414l-2 2a1 1 0 0 1-1.414-1.414l2-2a1 1 0 0 1 1.414 0Zm14.586 0a1 1 0 0 1 1.414 0l2 2a1 1 0 0 1-1.414 1.414l-2-2a1 1 0 0 1 0-1.414ZM16 19.5a1 1 0 0 1 1 1V22a1 1 0 1 1-2 0v-1.5a1 1 0 0 1 1-1Z" clip-rule="evenodd" opacity=".5"/>
  <path d="M12 17.79c-.15 0-.31-.02-.46-.07-.35-.11-.56-.33-.81-.58l-3.87-3.87c-.25-.25-.47-.47-.58-.81-.1-.3-.1-.62 0-.92.11-.35.33-.56.58-.81l3.87-3.87c.25-.25.47-.47.81-.58.3-.1.62-.1.92 0 .35.11.56.33.81.58l3.87 3.87c.25.25.47.47.58.81.1.3.1.62 0 .92-.11.35-.33.56-.58.81l-3.87 3.87c-.25.25-.47.47-.81.58-.15.05-.31.07-.46.07ZM8.41 12 12 15.59 15.59 12 12 8.41 8.41 12Z"/>
</svg>
