<svg xmlns="http://www.w3.org/2000/svg" width="24" height="24" viewBox="0 0 24 24">
  <path fill-rule="evenodd" d="M8.515 2.574a1 1 0 0 1-.46 1.337 9 9 0 0 0-4.967 9.341 1 1 0 1 1-1.98.279 11 11 0 0 1 6.07-11.418 1 1 0 0 1 1.337.46Zm6.97 0a1 1 0 0 1 1.337-.46 11 11 0 0 1 6.07 11.417 1 1 0 1 1-1.98-.279 9 9 0 0 0-4.967-9.341 1 1 0 0 1-.46-1.337ZM5.313 19.502a1 1 0 0 1 1.397-.22 9 9 0 0 0 10.58 0 1 1 0 0 1 1.176 1.617 11 11 0 0 1-12.932 0 1 1 0 0 1-.22-1.397Z" clip-rule="evenodd" opacity=".5"/>
  <path fill-rule="evenodd" d="m12.463 5.28-.303.934.303-.933c.233.075.402.2.513.295.096.081.196.182.28.266l.017.017 4.868 4.868.017.016c.084.085.185.185.266.281.094.111.22.28.296.513a1.5 1.5 0 0 1 0 .926 1.508 1.508 0 0 1-.296.513c-.081.096-.182.196-.266.28l-.017.017-4.868 4.868-.017.017c-.084.084-.184.185-.28.266a1.52 1.52 0 0 1-.513.296 1.5 1.5 0 0 1-.926 0 1.506 1.506 0 0 1-.513-.296c-.096-.081-.196-.182-.28-.266a2.544 2.544 0 0 0-.017-.017L5.86 13.273l-.017-.017c-.084-.084-.185-.184-.266-.28a1.508 1.508 0 0 1-.295-.513l.933-.303-.933.303a1.5 1.5 0 0 1 0-.926l.933.303-.933-.303c.075-.233.2-.402.295-.513.081-.096.182-.196.266-.28l.017-.017 4.868-4.868.016-.017c.085-.084.185-.185.281-.266.111-.094.28-.22.513-.295l.303.933-.303-.933a1.5 1.5 0 0 1 .926 0ZM12 7.415 7.414 12 12 16.586 16.586 12 12 7.414Z" clip-rule="evenodd"/>
</svg>
