<svg xmlns="http://www.w3.org/2000/svg" width="24" height="24" viewBox="0 0 24 24">
  <path d="m6.566 11.434 4.868-4.868c.198-.198.297-.297.412-.334a.5.5 0 0 1 .309 0c.114.037.213.136.41.334l4.87 4.868c.197.198.296.297.333.412a.5.5 0 0 1 0 .309c-.037.114-.136.213-.334.41l-4.868 4.87c-.198.197-.297.296-.412.333a.5.5 0 0 1-.309 0c-.114-.037-.213-.136-.41-.334l-4.87-4.868c-.197-.198-.296-.297-.333-.412a.5.5 0 0 1 0-.309c.037-.114.136-.213.334-.41Z" opacity=".2"/>
  <path fill-rule="evenodd" d="M8.515 2.574a1 1 0 0 1-.46 1.337 9 9 0 0 0-4.967 9.341 1 1 0 1 1-1.98.279 11 11 0 0 1 6.07-11.418 1 1 0 0 1 1.337.46Zm6.97 0a1 1 0 0 1 1.337-.46 11 11 0 0 1 6.071 11.417 1 1 0 0 1-1.98-.278 9 9 0 0 0-4.968-9.342 1 1 0 0 1-.46-1.337ZM12 7.414 7.414 12 12 16.586 16.586 12 12 7.414Zm-.463-2.133a1.5 1.5 0 0 1 .926 0c.233.075.402.2.513.295.096.081.196.182.28.266l.017.017 4.885 4.884c.084.085.185.185.266.281.094.111.22.28.296.513a1.5 1.5 0 0 1 0 .926 1.506 1.506 0 0 1-.296.513 4.912 4.912 0 0 1-.266.28l-4.885 4.885-.016.017c-.085.084-.185.185-.281.266a1.52 1.52 0 0 1-.513.296 1.5 1.5 0 0 1-.926 0 1.506 1.506 0 0 1-.513-.296 4.912 4.912 0 0 1-.28-.266l-.017-.017-4.868-4.868-.017-.016a4.921 4.921 0 0 1-.266-.281 1.506 1.506 0 0 1-.295-.513 1.5 1.5 0 0 1 0-.926c.075-.233.2-.402.295-.513.081-.096.182-.196.266-.28l.017-.017 4.868-4.868.017-.017c.084-.084.184-.185.28-.266.111-.094.28-.22.513-.295ZM5.313 19.502a1 1 0 0 1 1.397-.22 9 9 0 0 0 10.58 0 1 1 0 1 1 1.176 1.617 11 11 0 0 1-12.932 0 1 1 0 0 1-.22-1.397Z" clip-rule="evenodd"/>
</svg>
