<svg xmlns="http://www.w3.org/2000/svg" width="24" height="24" viewBox="0 0 24 24">
  <path fill-rule="evenodd" d="M1.293 1.293a1 1 0 0 1 1.414 0l2 2a1 1 0 0 1-1.414 1.414l-2-2a1 1 0 0 1 0-1.414ZM8 1a1 1 0 0 1 1 1v1.5a1 1 0 0 1-2 0V2a1 1 0 0 1 1-1Zm13.293.293a1 1 0 1 1 1.414 1.414l-2 2a1 1 0 1 1-1.414-1.414l2-2ZM16 1a1 1 0 0 1 1 1v4a1 1 0 1 1-2 0V2a1 1 0 0 1 1-1ZM1 8a1 1 0 0 1 1-1h4a1 1 0 0 1 0 2H2a1 1 0 0 1-1-1Zm18.5 0a1 1 0 0 1 1-1H22a1 1 0 1 1 0 2h-1.5a1 1 0 0 1-1-1Zm-16 9H2a1 1 0 1 1 0-2h1.5a1 1 0 1 1 0 2ZM17 16a1 1 0 0 1 1-1h3.5a1 1 0 1 1 0 2H18a1 1 0 0 1-1-1Zm-9 1a1 1 0 0 1 1 1v4a1 1 0 1 1-2 0v-4a1 1 0 0 1 1-1Zm-3.293 2.293a1 1 0 0 1 0 1.414l-2 2a1 1 0 0 1-1.414-1.414l2-2a1 1 0 0 1 1.414 0Zm14.586 0a1 1 0 0 1 1.414 0l2 2a1 1 0 0 1-1.414 1.414l-2-2a1 1 0 0 1 0-1.414ZM16 19.5a1 1 0 0 1 1 1V22a1 1 0 1 1-2 0v-1.5a1 1 0 0 1 1-1Z" clip-rule="evenodd" opacity=".5"/>
  <path fill-rule="evenodd" d="M12 9a3 3 0 1 0 0 6 3 3 0 0 0 0-6Zm-5 3a5 5 0 1 1 10 0 5 5 0 0 1-10 0Z" clip-rule="evenodd"/>
</svg>
