<svg xmlns="http://www.w3.org/2000/svg" width="24" height="24" viewBox="0 0 24 24">
  <path fill-rule="evenodd" d="M8.515 2.574a1 1 0 0 1-.46 1.337 9 9 0 0 0-4.967 9.341 1 1 0 1 1-1.98.279 11 11 0 0 1 6.07-11.418 1 1 0 0 1 1.337.46Zm6.97 0a1 1 0 0 1 1.337-.46 11 11 0 0 1 6.07 11.417 1 1 0 1 1-1.98-.279 9 9 0 0 0-4.967-9.341 1 1 0 0 1-.46-1.337ZM5.313 19.502a1 1 0 0 1 1.397-.22 9 9 0 0 0 10.58 0 1 1 0 0 1 1.176 1.617 11 11 0 0 1-12.932 0 1 1 0 0 1-.22-1.397Z" clip-rule="evenodd" opacity=".5"/>
  <path fill-rule="evenodd" d="M12 7.5a4.5 4.5 0 1 0 0 9 4.5 4.5 0 0 0 0-9ZM5.5 12a6.5 6.5 0 1 1 13 0 6.5 6.5 0 0 1-13 0Z" clip-rule="evenodd"/>
</svg>
