<svg xmlns="http://www.w3.org/2000/svg" width="24" height="24" fill="currentColor" viewBox="0 0 24 24">
  <path fill-rule="evenodd" d="M1.293 1.293a1 1 0 0 1 1.414 0l2 2a1 1 0 0 1-1.414 1.414l-2-2a1 1 0 0 1 0-1.414ZM8 1a1 1 0 0 1 1 1v1.5a1 1 0 0 1-2 0V2a1 1 0 0 1 1-1Zm13.293.293a1 1 0 1 1 1.414 1.414l-2 2a1 1 0 1 1-1.414-1.414l2-2ZM16 1a1 1 0 0 1 1 1v4a1 1 0 1 1-2 0V2a1 1 0 0 1 1-1Zm-4 7.414L8.414 12 12 15.586 15.586 12 12 8.414Zm-.463-2.133a1.5 1.5 0 0 1 .926 0c.233.075.402.2.513.295.096.081.196.182.28.266l.017.017 3.885 3.885c.084.084.185.184.266.28.094.111.22.28.296.513a1.5 1.5 0 0 1 0 .926 1.506 1.506 0 0 1-.296.513 4.876 4.876 0 0 1-.266.28l-.017.017-3.868 3.868-.016.017c-.085.084-.185.185-.281.266a1.52 1.52 0 0 1-.513.296 1.5 1.5 0 0 1-.926 0 1.506 1.506 0 0 1-.513-.296c-.096-.081-.196-.182-.28-.266l-.017-.017-3.868-3.868-.017-.017c-.084-.084-.185-.184-.266-.28a1.506 1.506 0 0 1-.295-.513 1.5 1.5 0 0 1 0-.926c.075-.233.2-.402.295-.513.081-.096.182-.196.266-.28l.017-.017 3.868-3.868.017-.017c.084-.084.184-.185.28-.266.111-.094.28-.22.513-.295ZM1 8a1 1 0 0 1 1-1h4a1 1 0 0 1 0 2H2a1 1 0 0 1-1-1Zm18.5 0a1 1 0 0 1 1-1H22a1 1 0 1 1 0 2h-1.5a1 1 0 0 1-1-1Zm-16 9H2a1 1 0 1 1 0-2h1.5a1 1 0 1 1 0 2ZM17 16a1 1 0 0 1 1-1h3.5a1 1 0 1 1 0 2H18a1 1 0 0 1-1-1Zm-9 1a1 1 0 0 1 1 1v4a1 1 0 1 1-2 0v-4a1 1 0 0 1 1-1Zm-3.293 2.293a1 1 0 0 1 0 1.414l-2 2a1 1 0 0 1-1.414-1.414l2-2a1 1 0 0 1 1.414 0Zm14.586 0a1 1 0 0 1 1.414 0l2 2a1 1 0 0 1-1.414 1.414l-2-2a1 1 0 0 1 0-1.414ZM16 19.5a1 1 0 0 1 1 1V22a1 1 0 1 1-2 0v-1.5a1 1 0 0 1 1-1Z" clip-rule="evenodd"/>
</svg>
