<svg xmlns="http://www.w3.org/2000/svg" width="24" height="24" viewBox="0 0 24 24">
  <path fill-rule="evenodd" d="M8.612 2h11.611c.12 0 .262 0 .387.01.145.012.353.042.571.154a1.5 1.5 0 0 1 .655.655c.112.218.142.426.154.571.01.125.01.268.01.387v11.611c0 .19.001.43-.055.665a2.02 2.02 0 0 1-.24.578 2.795 2.795 0 0 1-.43.509l-.037.036-4.062 4.063-.036.036a2.795 2.795 0 0 1-.51.43 2 2 0 0 1-.577.24 2.796 2.796 0 0 1-.665.055H3.777c-.12 0-.262 0-.387-.01a1.508 1.508 0 0 1-.571-.153 1.5 1.5 0 0 1-.656-.656 1.508 1.508 0 0 1-.153-.571 4.927 4.927 0 0 1-.01-.387V8.612c0-.19-.001-.43.055-.665a2 2 0 0 1 .24-.578 2.795 2.795 0 0 1 .467-.545l4.062-4.062.036-.037c.134-.134.303-.304.51-.43a2 2 0 0 1 .577-.24C8.183 2 8.422 2 8.612 2ZM9 4v3h6.586l3-3H9Zm11 1.414V15h-3V8.414l3-3ZM15 9H9v6h6V9Zm0 8H8.414l-3 3H15v-3Zm2 1.586L18.586 17H17v1.586Zm-13 0V9h3v6.586l-3 3ZM7 7V5.414L5.414 7H7Z" clip-rule="evenodd"/>
</svg>
