<svg xmlns="http://www.w3.org/2000/svg" width="24" height="24" viewBox="0 0 24 24">
  <path fill-rule="evenodd" d="M2.126 6.514a1 1 0 0 1 1.36-.388l2.25 1.25a1 1 0 1 1-.972 1.748l-2.25-1.25a1 1 0 0 1-.388-1.36Zm19.748 0a1 1 0 0 1-.388 1.36l-2.25 1.25a1 1 0 0 1-.972-1.748l2.25-1.25a1 1 0 0 1 1.36.388Zm-12.998 3.75a1 1 0 0 1 1.36-.388l1.764.98 1.764-.98a1 1 0 1 1 .972 1.748L13 12.588V14.5a1 1 0 1 1-2 0v-1.912l-1.736-.964a1 1 0 0 1-.388-1.36ZM12 18.5a1 1 0 0 1 1 1V22a1 1 0 1 1-2 0v-2.5a1 1 0 0 1 1-1Z" clip-rule="evenodd" opacity=".5"/>
  <path fill-rule="evenodd" d="M11.597 1.185a2 2 0 0 1 .806 0c.307.063.582.217.8.34l.06.033 1.473.818a1 1 0 1 1-.972 1.748l-1.473-.818A6.574 6.574 0 0 0 12 3.149a6.574 6.574 0 0 0-.291.157l-1.473.818a1 1 0 1 1-.972-1.748l1.473-.818.06-.034c.218-.122.493-.276.8-.34Zm6.279 4.08a1 1 0 0 1 1.36-.39l1.427.794.063.035c.23.127.522.287.745.53.193.208.339.457.428.727.103.313.102.644.101.908V9.5a1 1 0 1 1-2 0V7.941a6.616 6.616 0 0 0-.005-.35 6.663 6.663 0 0 0-.304-.174l-1.427-.793a1 1 0 0 1-.388-1.36Zm-11.752 0a1 1 0 0 1-.388 1.36l-1.427.792c-.16.089-.242.135-.3.171l-.004.003v.006A6.627 6.627 0 0 0 4 7.941V9.5a1 1 0 1 1-2 0V7.869c-.001-.264-.002-.595.101-.908a2 2 0 0 1 .428-.728c.223-.242.514-.402.745-.53l.063-.034 1.427-.793a1 1 0 0 1 1.36.388ZM3 13.5a1 1 0 0 1 1 1v1.558a6.63 6.63 0 0 0 .005.35l.005.004c.057.036.139.082.299.171l1.427.793a1 1 0 0 1-.972 1.748l-1.427-.793-.063-.034c-.23-.128-.522-.288-.745-.53a2 2 0 0 1-.428-.728c-.103-.313-.102-.645-.101-.908V14.5a1 1 0 0 1 1-1Zm18 0a1 1 0 0 1 1 1v1.631c.001.264.002.595-.101.908-.09.27-.235.518-.428.728-.223.242-.514.402-.745.53l-.063.034-1.427.793a1 1 0 1 1-.972-1.748l1.427-.793c.16-.089.242-.135.3-.171l.004-.003v-.006c.005-.068.005-.162.005-.345V14.5a1 1 0 0 1 1-1ZM8.876 20.264a1 1 0 0 1 1.36-.388l1.473.818c.151.084.229.127.286.155l.005.002.005-.002a6.62 6.62 0 0 0 .286-.155l1.473-.818a1 1 0 0 1 .972 1.748l-1.473.819-.06.033c-.218.122-.493.276-.8.339a1.99 1.99 0 0 1-.806 0c-.307-.063-.582-.217-.8-.34a8.957 8.957 0 0 0-.06-.033l-1.473-.818a1 1 0 0 1-.388-1.36Z" clip-rule="evenodd"/>
</svg>
