<svg xmlns="http://www.w3.org/2000/svg" width="24" height="24" viewBox="0 0 24 24">
  <path fill-rule="evenodd" d="M21.207 2.793a1 1 0 0 1 0 1.414L17 8.414V20.5a1 1 0 1 1-2 0V9H3.5a1 1 0 0 1 0-2h12.086l4.207-4.207a1 1 0 0 1 1.414 0Z" clip-rule="evenodd" opacity=".5"/>
  <path fill-rule="evenodd" d="M8.612 2h11.611c.12 0 .262 0 .387.01.145.012.353.042.571.154a1.5 1.5 0 0 1 .655.655c.112.218.142.426.154.571.01.125.01.268.01.387v11.611c0 .19.001.43-.055.665a2.02 2.02 0 0 1-.24.578 2.795 2.795 0 0 1-.43.509l-.037.036-4.062 4.063-.036.036a2.795 2.795 0 0 1-.51.43 2 2 0 0 1-.577.24 2.796 2.796 0 0 1-.665.055H3.777c-.12 0-.262 0-.387-.01a1.508 1.508 0 0 1-.571-.153 1.5 1.5 0 0 1-.656-.656 1.508 1.508 0 0 1-.153-.571C2 20.485 2 20.342 2 20.223V8.612c0-.19-.001-.43.055-.665a2 2 0 0 1 .24-.578c.126-.206.296-.375.43-.509l.037-.036 4.062-4.062.036-.037c.134-.134.303-.304.51-.43a2 2 0 0 1 .577-.24C8.183 2 8.422 2 8.612 2Zm-.197 2.003-.002.002a6.182 6.182 0 0 0-.175.17L4.176 8.239a6.186 6.186 0 0 0-.173.177v.004A6.184 6.184 0 0 0 4 8.663V20h11.337c.131 0 .197 0 .244-.002h.004l.002-.003a6.14 6.14 0 0 0 .175-.17l4.062-4.063a6.14 6.14 0 0 0 .171-.175l.002-.002v-.004c.003-.047.003-.113.003-.244V4H8.663a6.184 6.184 0 0 0-.248.003Z" clip-rule="evenodd"/>
</svg>
