<svg xmlns="http://www.w3.org/2000/svg" width="24" height="24" viewBox="0 0 24 24">
  <path d="m12 12 9-5v9.059c0 .342 0 .514-.05.666a1 1 0 0 1-.215.364c-.109.119-.258.202-.558.368l-7.4 4.111c-.284.158-.425.237-.575.267a.998.998 0 0 1-.403 0c-.15-.03-.292-.11-.576-.267l-7.4-4.11c-.3-.167-.45-.25-.558-.369a1 1 0 0 1-.215-.364C3 16.573 3 16.401 3 16.06V7l9 5Z" opacity=".2"/>
  <path fill-rule="evenodd" d="M11.597 1.185a2 2 0 0 1 .806 0c.307.063.582.217.8.34l.06.033 7.4 4.11.063.036c.23.127.522.287.745.53.193.208.339.457.428.727.103.313.102.644.101.908v8.262c.001.264.002.595-.101.908-.09.27-.235.519-.428.728-.223.242-.514.402-.745.53l-.063.034-7.4 4.111-.06.034c-.218.122-.493.276-.8.339a1.99 1.99 0 0 1-.806 0c-.307-.063-.582-.217-.8-.34a8.957 8.957 0 0 0-.06-.033l-7.4-4.11a.938.938 0 0 0-.063-.035c-.23-.128-.522-.288-.745-.53a2 2 0 0 1-.428-.728c-.103-.313-.102-.644-.101-.908V7.869c-.001-.264-.002-.595.101-.908a2 2 0 0 1 .428-.728c.223-.242.514-.402.745-.53l.063-.034 7.4-4.111.06-.034c.218-.122.493-.276.8-.339ZM11 3.7v6.6L5.06 7 11 3.7Zm-7 5v6.6L9.94 12 4 8.7Zm7 5L5.06 17 11 20.3v-6.6Zm2 6.6 5.94-3.3L13 13.7v6.6Zm1.06-8.3L20 15.3V8.7L14.06 12Zm4.88-5L13 3.7v6.6L18.94 7Z" clip-rule="evenodd"/>
</svg>
