<svg xmlns="http://www.w3.org/2000/svg" width="24" height="24"  viewBox="0 0 24 24">
  <path d="m7 2.586-3.56 3.56A.5.5 0 0 0 3.792 7H7V2.586ZM9 7V2l10.377.002a.5.5 0 0 1 .353.854l-3.998 3.998A.5.5 0 0 1 15.38 7H9ZM7 9H2.5a.5.5 0 0 0-.5.5l.002 9.877a.5.5 0 0 0 .854.353l3.998-3.998A.5.5 0 0 0 7 15.38V9ZM4.27 21.144a.5.5 0 0 0 .353.854L14.5 22a.5.5 0 0 0 .5-.5V17H8.621a.5.5 0 0 0-.353.146L4.27 21.145ZM15 15H9.5a.5.5 0 0 1-.5-.5V9h5.5a.5.5 0 0 1 .5.5V15Zm2 2v3.207a.5.5 0 0 0 .854.354l2.707-2.707a.5.5 0 0 0-.354-.854H17Zm5-2.5a.5.5 0 0 1-.5.5H17V8.621a.5.5 0 0 1 .146-.353l3.998-3.998a.5.5 0 0 1 .854.353L22 14.5Z"/>
</svg>
