<svg xmlns="http://www.w3.org/2000/svg" width="24" height="24" viewBox="0 0 24 24">
  <path d="M14.4 8H4.6c-.56 0-.84 0-1.054.109a1 1 0 0 0-.437.437C3 8.76 3 9.04 3 9.6v9.8c0 .56 0 .84.109 1.054a1 1 0 0 0 .437.437C3.76 21 4.04 21 4.6 21h9.8c.56 0 .84 0 1.054-.109a1 1 0 0 0 .437-.437C16 20.24 16 19.96 16 19.4V9.6c0-.56 0-.84-.109-1.054a1 1 0 0 0-.437-.437C15.24 8 14.96 8 14.4 8Z" opacity=".2"/>
  <path fill-rule="evenodd" d="M8.612 2h11.611c.12 0 .262 0 .387.01.145.012.353.042.571.153a1.5 1.5 0 0 1 .655.656c.112.218.142.426.154.571.01.125.01.268.01.387v11.611c0 .19.001.43-.055.665a2.02 2.02 0 0 1-.24.578 2.795 2.795 0 0 1-.43.509l-.037.036-4.062 4.063-.036.036a2.795 2.795 0 0 1-.51.43c-.178.11-.373.19-.577.24a2.796 2.796 0 0 1-.665.055H3.777c-.12 0-.262 0-.387-.01a1.508 1.508 0 0 1-.571-.153 1.5 1.5 0 0 1-.656-.656 1.508 1.508 0 0 1-.153-.571 4.927 4.927 0 0 1-.01-.387V8.612c0-.19-.001-.43.055-.665a2 2 0 0 1 .24-.578 2.795 2.795 0 0 1 .467-.545l4.062-4.062.036-.037c.134-.134.303-.304.51-.43a2 2 0 0 1 .577-.24C8.183 2 8.422 2 8.612 2Zm-.197 2.003-.002.002a6.152 6.152 0 0 0-.175.17L5.414 7h10.172l3-3H8.663c-.131 0-.197 0-.244.002h-.004ZM20 5.414v9.923c0 .131 0 .197-.002.244v.004l-.003.002a6.14 6.14 0 0 1-.17.175L17 18.585V8.414l3-3ZM15 9H4v11h11V9Z" clip-rule="evenodd"/>
</svg>
