<svg xmlns="http://www.w3.org/2000/svg" width="24" height="24" viewBox="0 0 24 24">
  <path fill-rule="evenodd" d="M11.597 1.185a2 2 0 0 1 .806 0c.307.063.582.217.8.34l.06.033-.486.874.486-.874 1.473.818a1 1 0 1 1-.972 1.748l-1.473-.818A6.574 6.574 0 0 0 12 3.149a6.574 6.574 0 0 0-.291.157l-1.473.818a1 1 0 1 1-.972-1.748l1.473-.818.06-.034c.218-.122.493-.276.8-.34Zm6.279 4.08a1 1 0 0 1 1.36-.39l1.427.794.063.035c.16.088.349.192.524.328a.997.997 0 0 1 .718 1.22c.034.22.033.435.032.617V9.5a1 1 0 1 1-2 0v-.8l-.764.424a1 1 0 0 1-.972-1.748L18.941 7l-.677-.376a1 1 0 0 1-.388-1.36Zm-11.752 0a1 1 0 0 1-.388 1.36L5.059 7l.677.376a1 1 0 0 1-.972 1.748L4 8.7v.8a1 1 0 1 1-2 0V7.869c0-.182-.002-.398.032-.617a.997.997 0 0 1 .718-1.22 3.89 3.89 0 0 1 .524-.328l.063-.035 1.427-.793a1 1 0 0 1 1.36.388Zm2.752 5a1 1 0 0 1 1.36-.39l1.764.981 1.764-.98a1 1 0 0 1 .972 1.748L13 12.588V14.5a1 1 0 1 1-2 0v-1.912l-1.736-.964a1 1 0 0 1-.388-1.36ZM3 13.5a1 1 0 0 1 1 1v1.558a6.63 6.63 0 0 0 .005.35l.005.004c.057.036.139.082.299.171l-.431.775.43-.775 1.428.793a1 1 0 0 1-.972 1.748l-1.427-.793.486-.874-.486.874-.063-.034c-.23-.128-.522-.288-.745-.53a2 2 0 0 1-.428-.728c-.103-.313-.102-.645-.101-.908V14.5a1 1 0 0 1 1-1Zm18 0a1 1 0 0 1 1 1v1.631c.001.264.002.595-.101.908-.09.27-.235.518-.428.728-.223.242-.514.402-.745.53l-.063.034-1.427.793a1 1 0 1 1-.972-1.748l1.427-.793c.16-.089.242-.135.3-.171l.004-.003v-.006c.005-.068.005-.162.005-.345V14.5a1 1 0 0 1 1-1Zm-9 5a1 1 0 0 1 1 1v.8l.764-.424a1 1 0 0 1 .972 1.748l-1.473.819-.06.033a3.89 3.89 0 0 1-.523.257.996.996 0 0 1-1.36 0 3.89 3.89 0 0 1-.583-.29l-1.473-.819a1 1 0 0 1 .972-1.748L11 20.3v-.8a1 1 0 0 1 1-1Z" clip-rule="evenodd"/>
</svg>
