<svg xmlns="http://www.w3.org/2000/svg" width="24" height="24" viewBox="0 0 24 24">
  <path fill-rule="evenodd" d="M5 8a1 1 0 0 1 1-1h12a1 1 0 1 1 0 2H6a1 1 0 0 1-1-1Z" clip-rule="evenodd" opacity=".5"/>
  <path fill-rule="evenodd" d="M5 3a1 1 0 0 1 1-1h12a1 1 0 1 1 0 2h-4.414C14.542 5.13 15 6.58 15 8c0 1.463-.486 2.959-1.502 4.102C12.465 13.263 10.938 14 9 14h-.478l6.663 6.272a1 1 0 1 1-1.37 1.456l-8.5-8A1 1 0 0 1 6 12h3c1.395 0 2.368-.513 3.003-1.227.65-.732.997-1.736.997-2.773 0-1.037-.347-2.041-.997-2.773C11.368 4.513 10.395 4 9 4H6a1 1 0 0 1-1-1Z" clip-rule="evenodd"/>
</svg>
