<svg xmlns="http://www.w3.org/2000/svg" width="24" height="24" viewBox="0 0 24 24">
  <path d="M12 22c5.523 0 10-4.477 10-10S17.523 2 12 2 2 6.477 2 12s4.477 10 10 10Z" opacity=".2"/>
  <path fill-rule="evenodd" d="M12 3a9 9 0 1 0 0 18 9 9 0 0 0 0-18ZM1 12C1 5.925 5.925 1 12 1s11 4.925 11 11-4.925 11-11 11S1 18.075 1 12Zm6.5-5.5a1 1 0 0 1 1-1h7a1 1 0 1 1 0 2h-1.84c.28.465.47.976.575 1.5H15.5a1 1 0 1 1 0 2h-1.265a4.551 4.551 0 0 1-.972 2.052 4.018 4.018 0 0 1-2.126 1.314l3.496 2.86a1 1 0 1 1-1.266 1.548l-5.5-4.5A1 1 0 0 1 8.5 12.5H10c.822 0 1.375-.312 1.737-.74a2.43 2.43 0 0 0 .429-.76H8.5a1 1 0 1 1 0-2h3.666a2.43 2.43 0 0 0-.43-.76c-.361-.428-.914-.74-1.736-.74H8.5a1 1 0 0 1-1-1Z" clip-rule="evenodd"/>
</svg>
