<svg xmlns="http://www.w3.org/2000/svg" width="24" height="24" fill="currentColor" viewBox="0 0 24 24">
  <path fill-rule="evenodd" d="M6.066 11a7.568 7.568 0 0 0 0 2H13a1 1 0 1 1 0 2H6.624a7.502 7.502 0 0 0 6.876 4.5c1.851 0 3.544-.67 4.853-1.781a1 1 0 1 1 1.294 1.524A9.504 9.504 0 0 1 4.483 15H3a1 1 0 1 1 0-2h1.052a9.609 9.609 0 0 1 0-2H3a1 1 0 1 1 0-2h1.483a9.504 9.504 0 0 1 15.164-4.243 1 1 0 1 1-1.294 1.524A7.466 7.466 0 0 0 13.5 4.5 7.502 7.502 0 0 0 6.624 9H13a1 1 0 1 1 0 2H6.066Z" clip-rule="evenodd"/>
</svg>
