<svg xmlns="http://www.w3.org/2000/svg" width="24" height="24" viewBox="0 0 24 24">
  <path fill-rule="evenodd" d="M5.5 13.5a1 1 0 0 1 1-1H15a1 1 0 1 1 0 2H6.5a1 1 0 0 1-1-1Z" clip-rule="evenodd" opacity=".5"/>
  <path fill-rule="evenodd" d="M8.884 7.299c.001-.95.282-1.553.643-1.945.375-.405.918-.673 1.583-.79 1.39-.243 2.944.23 3.653.904a1 1 0 0 0 1.378-1.45c-1.243-1.18-3.47-1.758-5.377-1.423-.984.172-1.966.6-2.706 1.403-.752.815-1.174 1.928-1.174 3.307v.013c.018 1.39.621 2.417 1.107 3.244l.098.168c.51.874.911 1.637.911 2.77 0 1.84-.76 3.39-1.563 4.508-.398.555-.797.99-1.094 1.284a7.857 7.857 0 0 1-.442.406l-.02.016v.001H5.88v.001A1 1 0 0 0 6.5 21.5h11a1 1 0 1 0 0-2H8.82c.08-.105.161-.214.243-.327C10.01 17.852 11 15.901 11 13.5c0-1.695-.642-2.85-1.183-3.778l-.04-.069c-.529-.905-.88-1.509-.893-2.354Z" clip-rule="evenodd"/>
</svg>
