<svg xmlns="http://www.w3.org/2000/svg" width="24" height="24" viewBox="0 0 24 24">
  <path fill-rule="evenodd" d="M9.5 1a1 1 0 0 1 1 1v2a1 1 0 1 1-2 0V2a1 1 0 0 1 1-1Zm4 0a1 1 0 0 1 1 1v2a1 1 0 1 1-2 0V2a1 1 0 0 1 1-1Zm-4 18a1 1 0 0 1 1 1v2a1 1 0 1 1-2 0v-2a1 1 0 0 1 1-1Zm4 0a1 1 0 0 1 1 1v2a1 1 0 1 1-2 0v-2a1 1 0 0 1 1-1Z" clip-rule="evenodd" opacity=".5"/>
  <path fill-rule="evenodd" d="M4.5 4a1 1 0 0 1 1-1H14a5 5 0 0 1 3.436 8.633A5 5 0 0 1 15 21H5.5a1 1 0 1 1 0-2h1V5h-1a1 1 0 0 1-1-1Zm4 1v6H14a3 3 0 1 0 0-6H8.5Zm0 8H15a3 3 0 1 1 0 6H8.5v-6Z" clip-rule="evenodd"/>
</svg>
