<svg xmlns="http://www.w3.org/2000/svg" width="24" height="24" fill="currentColor" viewBox="0 0 24 24">
  <path fill-rule="evenodd" d="M5 3a1 1 0 0 1 1-1h12a1 1 0 1 1 0 2h-4.414c.732.864 1.172 1.917 1.338 3H18a1 1 0 1 1 0 2h-3.076c-.173 1.126-.642 2.22-1.426 3.102C12.465 13.263 10.938 14 9 14h-.478l6.663 6.272a1 1 0 0 1-1.37 1.456l-8.5-8A1 1 0 0 1 6 12h3c1.395 0 2.368-.513 3.003-1.227A3.973 3.973 0 0 0 12.89 9H6a1 1 0 1 1 0-2h6.89a3.974 3.974 0 0 0-.887-1.773C11.368 4.513 10.395 4 9 4H6a1 1 0 0 1-1-1Z" clip-rule="evenodd"/>
</svg>
