<svg xmlns="http://www.w3.org/2000/svg" width="24" height="24" viewBox="0 0 24 24">
  <path d="M12 22c5.523 0 10-4.477 10-10S17.523 2 12 2 2 6.477 2 12s4.477 10 10 10Z" opacity=".2"/>
  <path fill-rule="evenodd" d="M12 3a9 9 0 1 0 0 18 9 9 0 0 0 0-18ZM1 12C1 5.925 5.925 1 12 1s11 4.925 11 11-4.925 11-11 11S1 18.075 1 12Zm9.895-3.044c.002-.538.158-.838.323-1.017.178-.192.452-.337.826-.403.808-.141 1.695.147 2.06.493a1 1 0 0 0 1.377-1.45c-.898-.853-2.458-1.245-3.783-1.012-.693.121-1.406.427-1.95 1.016-.555.602-.852 1.412-.853 2.379v.013c.013 1.008.388 1.7.663 2.208l.017.033c.055.102.105.195.15.284H9a1 1 0 1 0 0 2h.898c-.152.761-.454 1.466-.774 2.046a8.821 8.821 0 0 1-.813 1.22 4 4 0 0 1-.05.06l-.01.011v.001A1 1 0 0 0 9 18.5h6a1 1 0 1 0 0-2h-4.118c.426-.774.873-1.814 1.045-3H14a1 1 0 1 0 0-2h-2.132c-.133-.496-.345-.887-.517-1.206a2.91 2.91 0 0 1-.016-.03c-.27-.5-.432-.817-.44-1.308Z" clip-rule="evenodd"/>
</svg>
