<svg xmlns="http://www.w3.org/2000/svg" width="24" height="24" viewBox="0 0 24 24">
  <path d="M12 22c5.523 0 10-4.477 10-10S17.523 2 12 2 2 6.477 2 12s4.477 10 10 10Z" opacity=".2"/>
  <path fill-rule="evenodd" d="M12 3a9 9 0 1 0 0 18 9 9 0 0 0 0-18ZM1 12C1 5.925 5.925 1 12 1s11 4.925 11 11-4.925 11-11 11S1 18.075 1 12Zm9-7a1 1 0 0 1 1 1v.5h1V6a1 1 0 1 1 2 0v.51a3.25 3.25 0 0 1 2.318 5.232A3.25 3.25 0 0 1 14.25 17.5H14v.5a1 1 0 1 1-2 0v-.5h-1v.5a1 1 0 1 1-2 0v-.5H8a1 1 0 1 1 0-2h.5v-7H8a1 1 0 0 1 0-2h1V6a1 1 0 0 1 1-1Zm.5 3.5V11h3.25a1.25 1.25 0 1 0 0-2.5H10.5Zm0 4.5h3.75a1.25 1.25 0 1 1 0 2.5H10.5V13Z" clip-rule="evenodd"/>
</svg>
