<svg xmlns="http://www.w3.org/2000/svg" width="24" height="24" fill="currentColor" viewBox="0 0 24 24">
  <path fill-rule="evenodd" d="M12 1a1 1 0 0 1 .747.336l8 9a1 1 0 0 1-.504 1.634l-8 2a.998.998 0 0 1-.486 0l-8-2a1 1 0 0 1-.504-1.634l8-9A1 1 0 0 1 12 1Zm-1 3.63L6.898 9.245 11 8.219V4.63Zm1 5.4L8.123 11l3.877.97 3.877-.97L12 10.03Zm5.102-.785L13 8.219V4.63l4.102 4.615ZM4.634 14.499a1 1 0 0 1 1.09-.473L12 15.474l6.275-1.448a1 1 0 0 1 .958 1.654l-6.5 7a1 1 0 0 1-1.466 0l-6.5-7a1 1 0 0 1-.133-1.18Zm3.816 2.208L12 20.53l3.55-3.823-3.325.767a1.001 1.001 0 0 1-.45 0l-3.325-.767Z" clip-rule="evenodd"/>
</svg>
