<svg xmlns="http://www.w3.org/2000/svg" width="24" height="24" viewBox="0 0 24 24">
  <path d="M12 22c5.523 0 10-4.477 10-10S17.523 2 12 2 2 6.477 2 12s4.477 10 10 10Z" opacity=".2"/>
  <path fill-rule="evenodd" d="M12 3a9 9 0 1 0 0 18 9 9 0 0 0 0-18ZM1 12C1 5.925 5.925 1 12 1s11 4.925 11 11-4.925 11-11 11S1 18.075 1 12Zm11-8a1 1 0 0 1 .764.354l5.5 6.5a1 1 0 0 1-.35 1.556l-5.5 2.5a1 1 0 0 1-.828 0l-5.5-2.5a1 1 0 0 1-.35-1.556l5.5-6.5A1 1 0 0 1 12 4Zm-3.883 7.137L12 12.9l3.883-1.764L12 6.548l-3.883 4.589Zm-2.527 3.95a1 1 0 0 1 1.324-.497L12 16.9l5.086-2.311a1 1 0 0 1 .828 1.82l-5.5 2.5a1 1 0 0 1-.828 0l-5.5-2.5a1 1 0 0 1-.496-1.324Z" clip-rule="evenodd"/>
</svg>
