<svg xmlns="http://www.w3.org/2000/svg" width="24" height="24" viewBox="0 0 24 24">
  <path d="M9.5 10.3c0-.28 0-.42.055-.527a.5.5 0 0 1 .218-.218c.107-.055.247-.055.527-.055h3.4c.28 0 .42 0 .527.055a.5.5 0 0 1 .218.218c.055.107.055.247.055.527v3.4c0 .28 0 .42-.055.527a.5.5 0 0 1-.218.218c-.107.055-.247.055-.527.055h-3.4c-.28 0-.42 0-.527-.055a.5.5 0 0 1-.218-.218C9.5 14.12 9.5 13.98 9.5 13.7v-3.4Zm7.5 7.5c0-.28 0-.42.055-.527a.5.5 0 0 1 .218-.218C17.38 17 17.52 17 17.8 17h3.4c.28 0 .42 0 .527.055a.5.5 0 0 1 .218.218c.055.107.055.247.055.527v3.4c0 .28 0 .42-.055.527a.5.5 0 0 1-.218.218C21.62 22 21.48 22 21.2 22h-3.4c-.28 0-.42 0-.527-.055a.5.5 0 0 1-.218-.218C17 21.62 17 21.48 17 21.2v-3.4ZM2 2.8c0-.28 0-.42.054-.527a.5.5 0 0 1 .219-.219C2.38 2 2.52 2 2.8 2h3.4c.28 0 .42 0 .527.054a.5.5 0 0 1 .218.219C7 2.38 7 2.52 7 2.8v3.4c0 .28 0 .42-.054.527a.5.5 0 0 1-.219.218C6.62 7 6.48 7 6.2 7H2.8c-.28 0-.42 0-.527-.054a.5.5 0 0 1-.219-.219C2 6.62 2 6.48 2 6.2V2.8Z" opacity=".2"/>
  <path fill-rule="evenodd" d="M2.777 1h3.446c.12 0 .262 0 .387.01.145.012.353.042.571.153a1.5 1.5 0 0 1 .656.656c.11.218.141.426.153.571.01.125.01.268.01.387v3.446c0 .12 0 .262-.01.387a1.508 1.508 0 0 1-.153.571 1.5 1.5 0 0 1-.656.656 1.508 1.508 0 0 1-.571.153C6.485 8 6.342 8 6.223 8H2.777c-.12 0-.262 0-.387-.01a1.508 1.508 0 0 1-.571-.153 1.5 1.5 0 0 1-.655-.656 1.508 1.508 0 0 1-.154-.571A4.926 4.926 0 0 1 1 6.223V2.777c0-.12 0-.262.01-.387a1.51 1.51 0 0 1 .153-.571 1.5 1.5 0 0 1 .656-.655c.218-.112.426-.142.571-.154.125-.01.268-.01.387-.01ZM3 3v3h3V3H3Zm16.532 2.524C19.25 5.5 18.877 5.5 18.3 5.5H11a1 1 0 1 1 0-2h7.339c.527 0 .982 0 1.356.03.395.033.789.104 1.167.297a3 3 0 0 1 1.311 1.311c.193.378.264.772.296 1.167.031.375.031.83.031 1.356v1.371c0 .439 0 .817-.021 1.13a3.07 3.07 0 0 1-.207.986 3 3 0 0 1-1.624 1.624 3.07 3.07 0 0 1-.986.207c-.313.021-.691.021-1.13.021H18.5a1 1 0 1 1 0-2c.48 0 .79 0 1.026-.017.228-.015.315-.042.357-.06a1 1 0 0 0 .54-.54c.018-.042.045-.129.06-.357C20.5 9.79 20.5 9.48 20.5 9V7.7c0-.577 0-.949-.024-1.232-.022-.272-.06-.373-.085-.422a1 1 0 0 0-.437-.437c-.05-.025-.15-.063-.422-.085ZM10.277 8.5h3.446c.12 0 .261 0 .387.01.145.012.353.042.571.154a1.5 1.5 0 0 1 .655.655c.112.218.142.426.154.571.01.125.01.268.01.387v3.446c0 .12 0 .261-.01.387a1.507 1.507 0 0 1-.154.571 1.5 1.5 0 0 1-.655.655 1.507 1.507 0 0 1-.571.154c-.125.01-.268.01-.387.01h-3.446c-.12 0-.261 0-.387-.01a1.508 1.508 0 0 1-.571-.154 1.5 1.5 0 0 1-.655-.655 1.507 1.507 0 0 1-.154-.571 4.926 4.926 0 0 1-.01-.387v-3.446c0-.12 0-.261.01-.387.012-.145.042-.353.154-.571a1.5 1.5 0 0 1 .655-.655c.218-.112.426-.142.571-.154.125-.01.268-.01.387-.01Zm.223 2v3h3v-3h-3Zm-5.032.5H5.5a1 1 0 1 1 0 2c-.48 0-.79 0-1.026.017-.228.015-.315.042-.357.06a1 1 0 0 0-.54.54c-.018.042-.045.129-.06.357A16.91 16.91 0 0 0 3.5 15v1.3c0 .577 0 .949.024 1.232.022.272.06.373.085.422a1 1 0 0 0 .437.437c.05.025.15.063.422.085.283.023.655.024 1.232.024H13a1 1 0 1 1 0 2H5.661c-.527 0-.981 0-1.356-.03-.395-.033-.789-.104-1.167-.297a3 3 0 0 1-1.311-1.311c-.193-.378-.264-.772-.296-1.167a17.9 17.9 0 0 1-.031-1.356v-1.371c0-.439 0-.817.021-1.13.023-.33.072-.66.207-.986a3 3 0 0 1 1.624-1.624 3.07 3.07 0 0 1 .986-.207C4.65 11 5.029 11 5.468 11Zm12.309 5h3.446c.12 0 .262 0 .387.01.145.012.353.042.571.153a1.5 1.5 0 0 1 .655.656c.112.218.142.426.154.571.01.125.01.268.01.387v3.446c0 .12 0 .262-.01.387a1.507 1.507 0 0 1-.153.571 1.5 1.5 0 0 1-.656.655 1.507 1.507 0 0 1-.571.154 4.92 4.92 0 0 1-.387.01h-3.446c-.12 0-.262 0-.387-.01a1.508 1.508 0 0 1-.571-.153 1.5 1.5 0 0 1-.655-.656 1.51 1.51 0 0 1-.154-.571c-.01-.125-.01-.268-.01-.387v-3.446c0-.12 0-.262.01-.387a1.51 1.51 0 0 1 .153-.571 1.5 1.5 0 0 1 .656-.655 1.51 1.51 0 0 1 .571-.154c.125-.01.268-.01.387-.01ZM18 18v3h3v-3h-3Z" clip-rule="evenodd"/>
</svg>
