<svg xmlns="http://www.w3.org/2000/svg" width="24" height="24" viewBox="0 0 24 24">
  <path d="M21 5c0 1.657-4.03 3-9 3S3 6.657 3 5v6c0 1.66 4 3 9 3s9-1.34 9-3V5Z" opacity=".2"/>
  <path fill-rule="evenodd" d="M4 5c0 .002 0 .006.003.015a.296.296 0 0 0 .032.066c.043.07.13.174.291.301.33.26.87.539 1.626.79C7.454 6.674 9.592 7 12 7s4.546-.327 6.048-.827c.756-.252 1.296-.53 1.626-.79.162-.128.248-.232.29-.302a.293.293 0 0 0 .033-.066A.052.052 0 0 0 20 5l-.003-.015a.293.293 0 0 0-.032-.066 1.235 1.235 0 0 0-.291-.301c-.33-.26-.87-.539-1.626-.79C16.546 3.326 14.408 3 12 3s-4.546.327-6.048.827c-.756.252-1.296.53-1.626.79a1.236 1.236 0 0 0-.29.302.296.296 0 0 0-.033.066L4 5Zm16 2.527a9.536 9.536 0 0 1-1.32.543C16.925 8.655 14.563 9 12 9c-2.563 0-4.925-.345-6.68-.93A9.536 9.536 0 0 1 4 7.527V11c0 .002 0 .007.003.018a.298.298 0 0 0 .033.067c.042.07.127.173.288.3.328.26.864.537 1.618.789 1.497.5 3.635.826 6.058.826s4.561-.326 6.058-.826c.754-.252 1.29-.53 1.618-.789.16-.127.246-.23.288-.3a.298.298 0 0 0 .033-.067A.061.061 0 0 0 20 11V7.527ZM22 5v6c0 .85-.513 1.502-1.082 1.953-.579.459-1.355.827-2.226 1.118-1.524.509-3.507.835-5.692.912v2.188A3.009 3.009 0 0 1 14.83 19H21a1 1 0 1 1 0 2h-6.17a3.001 3.001 0 0 1-5.66 0H3a1 1 0 1 1 0-2h6.17A3.008 3.008 0 0 1 11 17.17v-2.187c-2.185-.077-4.168-.403-5.692-.912-.87-.29-1.647-.66-2.226-1.118C2.513 12.502 2 11.849 2 11V5c0-.852.519-1.504 1.088-1.953.581-.458 1.36-.826 2.232-1.117C7.075 1.345 9.437 1 12 1c2.563 0 4.925.345 6.68.93.873.29 1.651.66 2.232 1.117C21.482 3.496 22 4.148 22 5ZM12 19a1 1 0 1 0 0 2 1 1 0 0 0 0-2Z" clip-rule="evenodd"/>
</svg>
