<svg xmlns="http://www.w3.org/2000/svg" width="24" height="24" viewBox="0 0 24 24">
  <path fill-rule="evenodd" d="M2.777 1h2.446c.12 0 .262 0 .387.01.145.012.353.042.571.153a1.5 1.5 0 0 1 .656.656c.11.218.141.426.153.571.01.125.01.268.01.387v2.446c0 .12 0 .262-.01.387a1.508 1.508 0 0 1-.153.571 1.5 1.5 0 0 1-.656.656 1.508 1.508 0 0 1-.571.153C5.485 7 5.342 7 5.223 7H2.777c-.12 0-.262 0-.387-.01a1.508 1.508 0 0 1-.571-.153 1.5 1.5 0 0 1-.656-.656 1.508 1.508 0 0 1-.153-.571A4.93 4.93 0 0 1 1 5.223V2.777c0-.12 0-.262.01-.387a1.51 1.51 0 0 1 .153-.571 1.5 1.5 0 0 1 .656-.655c.218-.112.426-.142.571-.154.125-.01.268-.01.387-.01ZM3 3v2h2V3H3Zm7.777 2h2.446c.12 0 .261 0 .387.01.145.012.353.042.571.154a1.5 1.5 0 0 1 .655.655c.112.218.142.426.154.571.01.126.01.268.01.387v2.446c0 .12 0 .262-.01.387a1.508 1.508 0 0 1-.154.571 1.5 1.5 0 0 1-.655.655 1.508 1.508 0 0 1-.571.154c-.125.01-.268.01-.387.01h-2.446c-.12 0-.261 0-.387-.01a1.508 1.508 0 0 1-.571-.154 1.5 1.5 0 0 1-.656-.655 1.508 1.508 0 0 1-.153-.571C9 9.485 9 9.342 9 9.223V6.777c0-.12 0-.261.01-.387a1.51 1.51 0 0 1 .153-.571 1.5 1.5 0 0 1 .656-.655c.218-.112.426-.142.571-.154.125-.01.268-.01.387-.01ZM11 7v2h2V7h-2Zm-7.223 4h2.446c.12 0 .261 0 .387.01.145.012.353.043.571.154a1.5 1.5 0 0 1 .656.655c.11.218.141.426.153.571.01.125.01.268.01.387v2.446c0 .12 0 .261-.01.387a1.507 1.507 0 0 1-.153.571 1.5 1.5 0 0 1-.656.655 1.508 1.508 0 0 1-.571.154c-.126.01-.268.01-.387.01H3.777c-.12 0-.262 0-.387-.01a1.508 1.508 0 0 1-.571-.153 1.5 1.5 0 0 1-.656-.656 1.507 1.507 0 0 1-.153-.571C2 15.485 2 15.342 2 15.223v-2.446c0-.12 0-.261.01-.387a1.51 1.51 0 0 1 .153-.571 1.5 1.5 0 0 1 .656-.655 1.51 1.51 0 0 1 .571-.154c.125-.01.268-.01.387-.01ZM4 13v2h2v-2H4Z" clip-rule="evenodd" opacity=".5"/>
  <path fill-rule="evenodd" d="M18.777 9h2.446c.12 0 .262 0 .387.01.145.012.353.042.571.154a1.5 1.5 0 0 1 .655.655c.112.218.142.426.154.571.01.125.01.268.01.387v10.446c0 .12 0 .262-.01.387a1.507 1.507 0 0 1-.153.571 1.5 1.5 0 0 1-.656.655 1.508 1.508 0 0 1-.571.154c-.125.01-.268.01-.387.01H10.777c-.12 0-.261 0-.387-.01a1.508 1.508 0 0 1-.571-.153 1.5 1.5 0 0 1-.656-.656 1.508 1.508 0 0 1-.153-.571C9 21.485 9 21.342 9 21.223v-2.446c0-.12 0-.262.01-.387a1.51 1.51 0 0 1 .153-.571 1.5 1.5 0 0 1 .656-.655 1.51 1.51 0 0 1 .571-.154c.125-.01.268-.01.387-.01H13v-2.223c0-.12 0-.261.01-.387.012-.145.042-.353.154-.571a1.5 1.5 0 0 1 .655-.655 1.51 1.51 0 0 1 .571-.154c.125-.01.268-.01.387-.01H17v-2.223c0-.12 0-.261.01-.387a1.51 1.51 0 0 1 .153-.571 1.5 1.5 0 0 1 .656-.655c.218-.112.426-.142.571-.154.125-.01.268-.01.387-.01ZM19 11v2.223c0 .12 0 .261-.01.387a1.507 1.507 0 0 1-.153.571 1.5 1.5 0 0 1-.656.655 1.508 1.508 0 0 1-.571.154c-.125.01-.268.01-.387.01H15v2.223c0 .12 0 .262-.01.387a1.507 1.507 0 0 1-.154.571 1.5 1.5 0 0 1-.655.655 1.508 1.508 0 0 1-.571.154c-.125.01-.268.01-.387.01H11v2h10V11h-2Z" clip-rule="evenodd"/>
</svg>
