<svg xmlns="http://www.w3.org/2000/svg" width="24" height="24" viewBox="0 0 24 24">
  <path fill-rule="evenodd" d="M4 5c0 .001 0 .006.003.015a.296.296 0 0 0 .032.066c.043.07.13.174.291.301.33.26.87.539 1.626.79C7.454 6.674 9.592 7 12 7s4.546-.327 6.048-.827c.756-.252 1.296-.53 1.626-.79.162-.128.248-.232.29-.302a.293.293 0 0 0 .033-.066A.052.052 0 0 0 20 5l-.003-.015a.293.293 0 0 0-.032-.066 1.235 1.235 0 0 0-.291-.301c-.33-.26-.87-.539-1.626-.79C16.546 3.326 14.408 3 12 3s-4.546.327-6.048.827c-.756.252-1.296.53-1.626.79a1.236 1.236 0 0 0-.29.302.296.296 0 0 0-.033.066L4 5Zm16 2.527V9a1 1 0 1 0 2 0V5c0-.852-.519-1.504-1.088-1.953-.581-.458-1.36-.826-2.232-1.117C16.925 1.345 14.563 1 12 1c-2.563 0-4.925.345-6.68.93-.873.29-1.651.66-2.232 1.117C2.518 3.496 2 4.148 2 5v14c0 .668.322 1.22.73 1.637.402.411.94.747 1.533 1.023 1.191.553 2.805.952 4.62 1.164a1 1 0 1 0 .233-1.986c-1.692-.198-3.079-.56-4.01-.992-.468-.217-.773-.43-.947-.608a.747.747 0 0 1-.143-.189C3.999 19.015 4 19.001 4 19v-4.468c.398.203.84.383 1.308.539C7.061 15.656 9.423 16 12 16a1 1 0 1 0 0-2c-2.423 0-4.561-.326-6.058-.826-.754-.252-1.29-.53-1.618-.789a1.224 1.224 0 0 1-.288-.3.298.298 0 0 1-.033-.067A.06.06 0 0 1 4 12V7.527a9.59 9.59 0 0 0 1.32.543C7.075 8.655 9.437 9 12 9c2.563 0 4.925-.345 6.68-.93A9.536 9.536 0 0 0 20 7.527ZM20 14a1 1 0 1 0 0 2 1 1 0 0 0 0-2Zm-3 1a3 3 0 1 1 1.707 2.708L16.914 19.5l1.293 1.293a1 1 0 0 1-1.414 1.414L15.5 20.914l-1.793 1.793a1 1 0 0 1-1.414-1.414l5-5A2.988 2.988 0 0 1 17 15Z" clip-rule="evenodd"/>
</svg>
