<svg xmlns="http://www.w3.org/2000/svg" width="24" height="24" viewBox="0 0 24 24">
  <path fill-rule="evenodd" d="M11 5H7a1 1 0 1 1 0-2h10a1 1 0 1 1 0 2h-4v6h4a1 1 0 1 1 0 2h-4v2.2c0 .857 0 1.439.038 1.889.035.438.1.663.18.819a2 2 0 0 0 .874.874c.156.08.38.145.819.18.45.037 1.032.038 1.889.038h.2a1 1 0 1 1 0 2h-.241c-.805 0-1.47 0-2.01-.044-.563-.046-1.08-.145-1.565-.392a4 4 0 0 1-1.748-1.748c-.247-.485-.346-1.002-.392-1.564C11 16.71 11 16.046 11 15.242V5Z" clip-rule="evenodd" opacity=".5"/>
  <path fill-rule="evenodd" d="M5 3a1 1 0 1 0 0 2 1 1 0 0 0 0-2ZM2 4a3 3 0 1 1 6 0 3 3 0 0 1-6 0Zm17-1a1 1 0 1 0 0 2 1 1 0 0 0 0-2Zm-3 1a3 3 0 1 1 6 0 3 3 0 0 1-6 0Zm3 7a1 1 0 1 0 0 2 1 1 0 0 0 0-2Zm-3 1a3 3 0 1 1 6 0 3 3 0 0 1-6 0Zm3 7a1 1 0 1 0 0 2 1 1 0 0 0 0-2Zm-3 1a3 3 0 1 1 6 0 3 3 0 0 1-6 0Z" clip-rule="evenodd"/>
</svg>
