<svg xmlns="http://www.w3.org/2000/svg" width="24" height="24" viewBox="0 0 24 24">
  <path d="M23.358 20.63a.682.682 0 0 1-.139-.026h.013c-2.579-.752-8.61-3.021-10.48-8.3 0 0-.43.408-.683 1.11a.507.507 0 0 1-.48.344.518.518 0 0 1-.405-.23c-.557-.816-1.062-2.55.113-5.942 0 0-.948-.93-1.239-3.646-.075-.689-.493-1.339-.872-1.887C8.908 1.658 8.693.88 9.009.42c0 0 .29-.421.847-.421.177 0 .38.051.607.153 0 0 1.315.51 1.846 1.454.035 0 .135-.005.222-.008l.144-.005c.38.025.759.153 1.1.293.991.445 1.787 1.172 2.494 1.99.448.519.86 1.074 1.262 1.618.653.896 1.03 1.96 1.4 3.006l.028.08.072.203c.475 1.364.883 2.76 1.268 4.145 0 0 2.39 1.3 3.616 3.264.202.319.025.74-.329.803-.417.09-1.062.178-1.934.204 0 0 .834.535 2.124 2.614.227.37-.038.816-.418.816Zm-5.271.505c.057-.045.113-.092.167-.142a20.838 20.838 0 0 1-1.701-.976 17.931 17.931 0 0 1-1.635-1.178c-1.403.33-3.086.518-4.886.518-2.33 0-4.465-.314-6.05-.847-.788-.265-1.49-.6-2.013-1.018a3.376 3.376 0 0 1-.318-.289.395.395 0 0 0-.282-.124.37.37 0 0 0-.369.372v1.905c0 .774.464 1.369.977 1.78.523.417 1.224.753 2.011 1.018 1.583.533 3.717.846 6.044.846 2.328 0 4.461-.313 6.045-.846.786-.265 1.488-.601 2.01-1.019ZM3.999 3.807c.925-.311 2.036-.547 3.261-.69.043.07.087.139.134.205.178.258.304.454.393.63.077.151.093.223.095.232.025.24.056.47.09.69-1.326.121-2.493.356-3.402.661-.683.23-1.17.483-1.469.72a1.122 1.122 0 0 0-.263.274.27.27 0 0 0-.029.06l-.003.015s0 .005.003.013c.003.01.01.03.03.06.038.064.116.158.262.275.298.237.786.49 1.469.72 1.088.365 2.545.63 4.201.72-.348 1.401-.44 2.603-.34 3.627-1.696-.109-3.23-.388-4.443-.796-.787-.265-1.488-.601-2.01-1.019C1.463 9.794 1 9.2 1 8.425V6.603c0-.776.469-1.37.983-1.779.524-.417 1.227-.752 2.016-1.017Zm-.017 9.238c1.32.444 3.023.735 4.901.82.14.334.308.638.496.915l.016.024.017.023c.422.585 1.18 1.14 2.176 1.14.195 0 .387-.021.573-.062.35.505.732.975 1.133 1.412a23.717 23.717 0 0 1-3.262.218c-2.327 0-4.46-.314-6.044-.847-.787-.265-1.488-.6-2.01-1.018C1.463 15.26 1 14.665 1 13.89v-1.905a.37.37 0 0 1 .369-.371c.106 0 .207.047.282.124.1.104.208.2.318.288.524.418 1.225.754 2.013 1.019Z"/>
</svg>
