<svg xmlns="http://www.w3.org/2000/svg" width="24" height="24" viewBox="0 0 24 24">
  <path d="M19 14a2 2 0 1 0 0-4 2 2 0 0 0 0 4ZM5 14a2 2 0 1 0 0-4 2 2 0 0 0 0 4Zm14-8a2 2 0 1 0 0-4 2 2 0 0 0 0 4Zm0 16a2 2 0 1 0 0-4 2 2 0 0 0 0 4Z" opacity=".2"/>
  <path fill-rule="evenodd" d="M19 3a1 1 0 1 0 0 2 1 1 0 0 0 0-2Zm-2.83 0a3.001 3.001 0 1 1 .001 2c-.528.003-.93.01-1.26.038-.438.035-.663.1-.819.18a2 2 0 0 0-.874.874c-.08.156-.145.38-.18.819C13 7.361 13 7.943 13 8.8V11h3.17a3.001 3.001 0 1 1 0 2H13v2.2c0 .857 0 1.439.038 1.889.035.438.1.663.18.819a2 2 0 0 0 .874.874c.156.08.38.145.819.18.33.027.732.035 1.26.037A3.001 3.001 0 0 1 22 20a3 3 0 0 1-5.83 1 19.079 19.079 0 0 1-1.422-.044c-.562-.046-1.079-.145-1.564-.392a4 4 0 0 1-1.748-1.748c-.247-.485-.346-1.002-.392-1.564C11 16.71 11 16.046 11 15.242V13H7.83a3.001 3.001 0 1 1 0-2H11V8.759c0-.805 0-1.47.044-2.01.046-.563.145-1.08.392-1.565a4 4 0 0 1 1.748-1.748c.485-.247 1.002-.346 1.564-.392.404-.033.875-.041 1.423-.043ZM5 11a1 1 0 1 0 0 2 1 1 0 0 0 0-2Zm14 0a1 1 0 1 0 0 2 1 1 0 0 0 0-2Zm0 8a1 1 0 1 0 0 2 1 1 0 0 0 0-2Z" clip-rule="evenodd"/>
</svg>
