<svg xmlns="http://www.w3.org/2000/svg" width="24" height="24" viewBox="0 0 24 24">
  <path d="M5.176 8.91c0-.678.09-1.335.258-1.96-.309-.076-.598-.16-.864-.249-.683-.23-1.17-.482-1.469-.718a1.12 1.12 0 0 1-.263-.274.27.27 0 0 1-.029-.06.06.06 0 0 1-.003-.014s0-.005.003-.014a.27.27 0 0 1 .03-.06 1.12 1.12 0 0 1 .262-.274c.298-.236.786-.49 1.469-.718a13.833 13.833 0 0 1 2.405-.544A7.472 7.472 0 0 1 9.73 2c-2.198.026-4.215.335-5.731.844-.789.264-1.492.6-2.016 1.015C1.469 4.267 1 4.86 1 5.635v1.818c0 .772.464 1.366.977 1.776.523.417 1.224.752 2.011 1.016.424.143.888.27 1.384.379a7.568 7.568 0 0 1-.196-1.713Zm7.45 7.499c-2.785 0-5.213-1.538-6.491-3.816a14.686 14.686 0 0 1-2.153-.53c-.788-.264-1.49-.599-2.013-1.016a3.386 3.386 0 0 1-.318-.288.396.396 0 0 0-.282-.124.37.37 0 0 0-.369.372v1.901c0 .773.464 1.366.977 1.776.523.417 1.224.752 2.011 1.016 1.583.532 3.717.845 6.044.845a24.4 24.4 0 0 0 2.603-.136h-.01Z"/>
  <path d="M18.095 16.502c.038-.03.076-.06.113-.093h.533c.107 0 .213-.002.319-.007.003.02.005.04.005.06v1.901c0 .773-.464 1.366-.978 1.776-.523.417-1.224.752-2.01 1.016-1.584.532-3.717.845-6.045.845-2.327 0-4.46-.313-6.044-.845-.787-.264-1.488-.6-2.01-1.016-.514-.41-.978-1.003-.978-1.776v-1.901a.37.37 0 0 1 .369-.372c.106 0 .207.048.282.125.1.104.208.2.318.287.524.417 1.225.753 2.013 1.017 1.585.532 3.72.845 6.05.845 2.33 0 4.466-.313 6.05-.845.788-.264 1.49-.6 2.013-1.017Z"/>
  <path fill-rule="evenodd" d="M18.741 14.204h-6.115a5.229 5.229 0 0 1-3.464-1.31l-.001-.001a5.306 5.306 0 0 1-1.373-1.903l-.014-.034a5.28 5.28 0 0 1-.407-2.045c0-.553.084-1.086.24-1.586v-.003a5.276 5.276 0 0 1 1.555-2.394 5.24 5.24 0 0 1 3.464-1.31h6.115C21.645 3.617 24 5.987 24 8.91v.034c-.018 2.908-2.366 5.26-5.259 5.26Zm-.414-8.382a4.22 4.22 0 0 1 1 .241c1.286.487 2.182 1.579 2.182 2.848 0 .169-.016.335-.046.497-.215 1.133-1.152 2.062-2.398 2.44a4.215 4.215 0 0 1-1.24.18h-4.284c-1.04 0-1.98-.365-2.65-.952a3.202 3.202 0 0 1-.606-.706 2.744 2.744 0 0 1-.423-1.303v-.009a2.68 2.68 0 0 1 0-.304 2.744 2.744 0 0 1 .452-1.347 3.22 3.22 0 0 1 .577-.661c.67-.587 1.61-.952 2.65-.952h4.284c.17 0 .338.01.502.028Z" clip-rule="evenodd"/>
</svg>
