<svg xmlns="http://www.w3.org/2000/svg" width="24" height="24" viewBox="0 0 24 24">
  <path d="M18.516 2.067a9.69 9.69 0 0 0-.807.168c-.366.09-.437.095-.736.043a9.456 9.456 0 0 0-1.092-.058c-.617 0-.826.02-1.116.096a4.002 4.002 0 0 0-.617.23 5.816 5.816 0 0 0-.394.22c-.129.09-.133.09-.59-.049a15.944 15.944 0 0 0-.773-.22c-.171-.043-.49-.11-.713-.148a11.183 11.183 0 0 0-.902-.095 4.872 4.872 0 0 0-.926.028c-.237.034-.565.1-.736.153-.17.053-.437.163-.593.244a2.685 2.685 0 0 0-.565.411 3.789 3.789 0 0 0-.466.554 3.74 3.74 0 0 0-.322.717c-.076.244-.162.66-.195.956a8.328 8.328 0 0 0-.029 1.027c.02.277.086.813.157 1.195a30.867 30.867 0 0 0 .85 3.393c.123.382.309.898.413 1.146.105.249.3.67.427.932.129.263.328.607.437.765.114.157.3.363.413.463.114.096.295.21.4.254a.66.66 0 0 0 .38.052c.104-.019.275-.081.379-.143.104-.062.337-.282.518-.488.18-.205.598-.673.925-1.032l.599-.66c.223.14.403.216.546.259.142.043.394.076.56.076h.295c0 .354-.038.43-.247.679-.148.167-.342.34-.466.401a5.203 5.203 0 0 1-.712.234c-.275.072-.556.158-.627.196-.076.039-.142.11-.156.163a.223.223 0 0 0 .038.172c.028.043.166.124.294.186.133.067.375.139.546.167.171.024.437.048.594.048.156 0 .394-.028.522-.067.133-.033.347-.11.475-.167a2.51 2.51 0 0 0 .536-.401c.167-.163.3-.277.29-.249a.492.492 0 0 0 .047.191 2.7 2.7 0 0 1 .105.454c.024.172.052.698.066 1.171.015.473.048 1.085.076 1.362.024.277.09.664.143.86.052.196.157.488.232.645.077.167.219.368.342.478.129.115.3.215.432.253.124.029.319.058.437.058.12 0 .38-.034.584-.077.2-.043.513-.138.698-.215.186-.076.442-.23.57-.344.159-.137.304-.333.437-.588.11-.21.242-.559.295-.783.052-.225.1-.473.104-.55.005-.076.024-.21.047-.287.024-.076.062-.348.086-.597.017-.183.053-.497.086-.785l.033-.29c.057-.44.104-.655.166-.74.085-.12.09-.12.722-.101.45.01.769-.01 1.087-.067.247-.043.598-.139.783-.22a3.44 3.44 0 0 0 .66-.392c.18-.133.357-.305.39-.377.057-.115.057-.143-.005-.206-.038-.038-.085-.071-.104-.071a7.48 7.48 0 0 0-.466.076 6.74 6.74 0 0 1-.997.081c-.437.01-.617-.01-.783-.071a1.144 1.144 0 0 1-.319-.191l-.104-.11c.218-.335.427-.665.598-.956.171-.292.423-.75.56-1.027.138-.278.366-.77.5-1.1.137-.33.355-.912.479-1.3.128-.391.299-.993.38-1.337.118-.521.147-.78.17-1.424.02-.64.01-.841-.052-1.075-.057-.21-.142-.368-.327-.588a5.643 5.643 0 0 0-.556-.564 4.929 4.929 0 0 0-.617-.44 7.76 7.76 0 0 0-.712-.334A5.831 5.831 0 0 0 19.528 2a9.42 9.42 0 0 0-1.012.067ZM3.92 4.353c.345-.115.717-.22 1.113-.314a9.19 9.19 0 0 0-.184 1.04c-.02.255-.035.557-.04.848-.114.034-.226.07-.333.106-.665.223-1.14.469-1.43.699a1.091 1.091 0 0 0-.256.266.262.262 0 0 0-.029.059l-.002.014.002.013c.003.01.01.03.029.058.037.062.113.154.256.267.29.23.765.476 1.43.7.19.063.391.123.603.18.093.435.225 1.002.335 1.459.15.59.384 1.395.512 1.824.054.16.117.34.18.518-.81-.135-1.55-.315-2.197-.532-.766-.257-1.448-.583-1.957-.99C1.452 10.17 1 9.593 1 8.84V7.07c0-.754.456-1.331.957-1.728.51-.405 1.195-.731 1.962-.989Z"/>
  <path d="M3.903 13.328c.857.288 1.878.51 3.005.65.169.336.402.751.607 1.039.16.214.447.558.767.837.224.182.587.44.928.58.49.214 1.002.278 1.6.192.191-.032.394-.085.586-.16.01.01.032.01.032.01.373.193.832.311 1.205.376.245.032.618.064.853.064 0 .078.007.146.013.206.004.047.008.089.008.127l.014.145c-1.13.191-2.396.296-3.727.296-2.266 0-4.343-.304-5.885-.822-.766-.257-1.448-.584-1.957-.99-.5-.399-.952-.976-.952-1.728V12.3c0-.2.16-.362.36-.362.103 0 .2.046.273.12.099.102.204.196.31.28.51.407 1.194.733 1.96.99ZM16.29 21.39c.225.052.565.113.884.119a7.551 7.551 0 0 1-1.495.669c-1.542.518-3.619.822-5.885.822-2.266 0-4.343-.304-5.885-.822-.766-.258-1.448-.584-1.957-.99-.5-.399-.952-.976-.952-1.728v-1.85c0-.2.16-.361.36-.361.103 0 .2.046.273.12.099.102.204.195.31.28.51.407 1.194.733 1.96.99 1.543.518 3.623.822 5.891.822 1.484 0 2.888-.13 4.113-.365.05.131.102.258.155.364.202.451.533.902.864 1.192.223.193.671.547 1.364.74Z"/>
</svg>
