<svg xmlns="http://www.w3.org/2000/svg" width="24" height="24" viewBox="0 0 24 24">
  <path d="M7.04 5.28c.352-.47.528-.704.751-.873a2 2 0 0 1 .66-.33C8.72 4 9.013 4 9.6 4h7.6c1.68 0 2.52 0 3.162.327a3 3 0 0 1 1.311 1.311C22 6.28 22 7.12 22 8.8v6.4c0 1.68 0 2.52-.327 3.162a3 3 0 0 1-1.311 1.311C19.72 20 18.88 20 17.2 20H9.6c-.587 0-.88 0-1.15-.077a1.998 1.998 0 0 1-.659-.33c-.223-.169-.399-.404-.751-.873l-4.32-5.76c-.258-.344-.387-.516-.437-.705a1 1 0 0 1 0-.51c.05-.189.179-.36.437-.705l4.32-5.76Z" opacity=".2"/>
  <path fill-rule="evenodd" d="M9.5 3h7.741c.805 0 1.47 0 2.01.044.563.046 1.08.145 1.565.392a4 4 0 0 1 1.748 1.748c.247.485.346 1.002.392 1.564C23 7.29 23 7.954 23 8.758v6.483c0 .805 0 1.47-.044 2.01-.046.563-.145 1.08-.392 1.565a4 4 0 0 1-1.748 1.748c-.485.247-1.002.346-1.564.392-.541.044-1.206.044-2.01.044H9.5c-.487 0-.916.001-1.324-.115a3.002 3.002 0 0 1-.99-.495c-.337-.256-.594-.6-.886-.99l-.06-.08-4.32-5.76a20.045 20.045 0 0 0-.055-.073c-.198-.262-.447-.59-.55-.978a2 2 0 0 1 0-1.018c.103-.387.352-.716.55-.978l.055-.073 4.32-5.76.06-.08c.292-.39.549-.734.887-.99a3 3 0 0 1 .99-.495C8.583 3 9.012 3 9.498 3Zm.1 2c-.645 0-.772.009-.875.038a1 1 0 0 0-.33.165c-.085.065-.168.161-.555.677l-4.32 5.76c-.137.183-.21.28-.256.353L3.259 12l.005.007c.047.073.119.17.256.353l4.32 5.76c.387.516.47.612.556.677a1 1 0 0 0 .33.165c.102.029.23.038.874.038h7.6c.857 0 1.439 0 1.889-.038.438-.035.663-.1.819-.18a2 2 0 0 0 .874-.874c.08-.156.145-.38.18-.819.037-.45.038-1.032.038-1.889V8.8c0-.857 0-1.439-.038-1.889-.035-.438-.1-.663-.18-.819a2 2 0 0 0-.874-.874c-.156-.08-.38-.145-.819-.18C18.639 5 18.057 5 17.2 5H9.6Zm.693 3.293a1 1 0 0 1 1.414 0L14 10.586l2.293-2.293a1 1 0 1 1 1.414 1.414L15.414 12l2.293 2.293a1 1 0 0 1-1.414 1.414L14 13.414l-2.293 2.293a1 1 0 0 1-1.414-1.414L12.586 12l-2.293-2.293a1 1 0 0 1 0-1.414Z" clip-rule="evenodd"/>
</svg>
