<svg xmlns="http://www.w3.org/2000/svg" width="24" height="24" viewBox="0 0 24 24">
  <path d="M12 20.5 8 9h8l-4 11.5ZM10 3H7L2 9h6l2-6Zm4 0h3l5 6h-6l-2-6Z" opacity=".2"/>
  <path fill-rule="evenodd" d="M7.348 2h9.304c.099 0 .303-.002.503.051.17.046.33.121.474.222.17.12.3.278.362.354l.017.02 4.346 5.216c.065.077.143.172.208.262.075.106.171.26.23.463a1.5 1.5 0 0 1 0 .823 1.502 1.502 0 0 1-.23.464c-.065.09-.143.185-.208.262l-8.988 10.786c-.09.108-.195.234-.295.335a1.516 1.516 0 0 1-.556.37 1.5 1.5 0 0 1-1.03 0 1.516 1.516 0 0 1-.556-.37c-.1-.101-.205-.227-.295-.335L1.66 10.153l-.013-.016a4.207 4.207 0 0 1-.208-.262 1.502 1.502 0 0 1-.23-.464 1.5 1.5 0 0 1 0-.822c.059-.204.155-.358.23-.464.064-.09.143-.185.208-.262l.013-.015 4.333-5.2.017-.021c.063-.076.192-.234.362-.354a1.5 1.5 0 0 1 .473-.222c.2-.053.405-.051.503-.051Zm5.931 2h-2.558L9.387 8h5.226l-1.334-4Zm3.442 4-1.334-4h1.145l3.333 4h-3.144Zm-2.128 2L12 17.456 9.407 10h5.186ZM7.28 8l1.334-4H7.468L4.135 8h3.144Zm-3.144 2H7.29l2.26 6.496L4.135 10Zm10.316 6.496L16.711 10h3.154l-5.414 6.496ZM7.601 3.842Zm-.339.159Zm9.476 0Zm-.339-.159Z" clip-rule="evenodd"/>
</svg>
