<svg xmlns="http://www.w3.org/2000/svg" width="24" height="24" fill="none" viewBox="0 0 24 24">
  <path fill="#000" fill-rule="evenodd" d="M4 22a1 1 0 0 1 1-1h14a1 1 0 1 1 0 2H5a1 1 0 0 1-1-1Z" clip-rule="evenodd"/>
  <path fill="#000" d="M12.613 1h-1.226l-2 6h5.226l-2-6Zm2.107 0 2 6h4.68a.5.5 0 0 0 .385-.82l-3.867-4.64A1.5 1.5 0 0 0 16.766 1H14.72Zm6.962 8.836a.5.5 0 0 0-.37-.836h-4.601l-3.23 9.287c-.072.206.19.361.337.2l7.864-8.65Zm-11.499 8.652c.146.16.408.005.337-.2L7.29 9H2.687a.5.5 0 0 0-.37.836l7.865 8.652ZM2.215 6.18a.5.5 0 0 0 .384.82h4.68l2-6H7.234a1.5 1.5 0 0 0-1.152.54L2.215 6.18ZM9.407 9h5.186L12 16.456 9.407 9Z"/>
</svg>
