<svg xmlns="http://www.w3.org/2000/svg" width="24" height="24" viewBox="0 0 24 24">
  <path fill-rule="evenodd" d="M4 22a1 1 0 0 1 1-1h14a1 1 0 1 1 0 2H5a1 1 0 0 1-1-1Z" clip-rule="evenodd" opacity=".5"/>
  <path fill-rule="evenodd" d="M7.348 1h9.304c.099 0 .303-.002.503.052.17.045.33.12.474.221.17.12.3.278.362.354l.017.02 4.328 5.194c.067.08.148.178.215.27.077.11.176.27.234.482a1.5 1.5 0 0 1-.018.848 1.52 1.52 0 0 1-.255.47c-.07.09-.156.184-.227.262l-8.97 9.867c-.087.096-.19.21-.288.3a1.51 1.51 0 0 1-.536.334 1.5 1.5 0 0 1-.982 0 1.51 1.51 0 0 1-.536-.333c-.098-.092-.2-.205-.288-.301l-.017-.018-8.94-9.834-.013-.015a4.675 4.675 0 0 1-.227-.262 1.503 1.503 0 0 1-.255-.47 1.5 1.5 0 0 1-.018-.848c.058-.212.157-.372.235-.481.066-.093.147-.19.214-.271l.014-.016 4.314-5.177.017-.021c.063-.076.192-.234.362-.354a1.5 1.5 0 0 1 .473-.221C7.045.998 7.25.999 7.348 1Zm5.931 2h-2.558L9.387 7h5.226l-1.334-4Zm3.442 4-1.334-4h1.145l3.333 4h-3.144Zm-2.172 2L12 15.691 9.451 9h5.098Zm-7.27-2 1.334-4H7.468L4.135 7h3.144ZM4.261 9h3.05l2.2 5.776L4.261 9Zm10.228 5.776L16.689 9h3.05l-5.25 5.776ZM7.6 2.842Zm-.339.159Zm9.476 0Zm-.339-.159Z" clip-rule="evenodd"/>
</svg>
