<svg xmlns="http://www.w3.org/2000/svg" width="24" height="24" fill="currentColor" viewBox="0 0 24 24">
  <path fill-rule="evenodd" d="M7.347 2h9.305c.098 0 .302-.002.503.051.17.046.33.121.474.222a1.894 1.894 0 0 1 .379.375l4.346 5.215c.064.077.143.172.207.262.076.106.172.26.23.463.077.27.077.555 0 .823a1.502 1.502 0 0 1-.23.464c-.064.09-.143.185-.207.262l-8.988 10.786c-.09.108-.195.234-.295.335a1.516 1.516 0 0 1-.556.37 1.5 1.5 0 0 1-1.03 0 1.515 1.515 0 0 1-.557-.37c-.1-.101-.204-.227-.294-.335l-8.976-10.77-.013-.016c-.064-.077-.143-.172-.207-.262a1.502 1.502 0 0 1-.23-.464 1.5 1.5 0 0 1 0-.822 1.49 1.49 0 0 1 .23-.464c.064-.09.143-.185.207-.262l.013-.015 4.333-5.2.018-.021c.062-.076.191-.234.361-.354a1.5 1.5 0 0 1 .474-.222c.2-.053.405-.052.503-.051Zm5.932 2H10.72L9.387 8h5.225L13.28 4Zm3.441 4-1.333-4h1.144l3.334 4H16.72Zm-2.127 2-2.594 7.456L9.406 10h5.187ZM7.279 8l1.333-4H7.468L4.135 8h3.144Zm-3.144 2h3.154l2.26 6.496L4.134 10Zm10.316 6.496L16.71 10h3.154l-5.414 6.496ZM7.6 3.842Zm-.34.159Zm9.476 0Zm-.338-.159Z" clip-rule="evenodd"/>
</svg>
