<svg xmlns="http://www.w3.org/2000/svg" width="24" height="24" fill="currentColor" viewBox="0 0 24 24">
  <path fill-rule="evenodd" d="M7.348 1h9.305c.098 0 .302-.002.503.052.17.045.33.12.473.221a1.894 1.894 0 0 1 .38.375l4.327 5.193c.067.08.149.178.215.27.078.11.177.27.234.482a1.5 1.5 0 0 1-.018.848 1.52 1.52 0 0 1-.255.47c-.07.09-.156.184-.226.262l-8.97 9.867c-.088.096-.19.21-.29.3a1.511 1.511 0 0 1-.535.334 1.5 1.5 0 0 1-.981 0 1.512 1.512 0 0 1-.536-.333 5.12 5.12 0 0 1-.289-.301l-.017-.018-8.94-9.834-.013-.015a4.68 4.68 0 0 1-.226-.262 1.503 1.503 0 0 1-.255-.47 1.5 1.5 0 0 1-.019-.848c.058-.212.157-.372.235-.481.066-.093.148-.19.215-.271l.013-.016 4.314-5.177.017-.021c.063-.076.192-.234.362-.354a1.5 1.5 0 0 1 .474-.221c.2-.054.404-.053.503-.052Zm5.932 2h-2.56L9.388 7h5.225L13.28 3Zm3.441 4-1.333-4h1.144l3.333 4h-3.144ZM14.55 9 12 15.691 9.451 9h5.098ZM7.28 7l1.334-4H7.469L4.135 7H7.28ZM4.262 9h3.05l2.2 5.776L4.261 9Zm10.228 5.776L16.69 9h3.05l-5.25 5.776ZM7.601 2.842Zm-.338.159Zm9.475 0Zm-.339-.159ZM4 22a1 1 0 0 1 1-1h14a1 1 0 1 1 0 2H5a1 1 0 0 1-1-1Z" clip-rule="evenodd"/>
</svg>
