<svg xmlns="http://www.w3.org/2000/svg" width="24" height="24" viewBox="0 0 24 24">
  <path fill-rule="evenodd" d="M10.316 2.051a1 1 0 0 1 .633 1.265L9.056 8.993 12 17.456l2.944-8.463-1.893-5.677a1 1 0 0 1 1.898-.632l2 6a1 1 0 0 1-.005.645l-4 11.5a1 1 0 0 1-1.889 0l-4-11.5a1 1 0 0 1-.004-.645l2-6a1 1 0 0 1 1.265-.633Z" clip-rule="evenodd" opacity=".5"/>
  <path fill-rule="evenodd" d="M7.348 2h9.304c.099 0 .303-.002.503.051.17.046.33.121.474.222.17.12.3.278.362.354l.017.02 4.346 5.216c.065.077.143.172.208.262.075.106.171.26.23.463a1.5 1.5 0 0 1 0 .823 1.502 1.502 0 0 1-.23.464c-.065.09-.143.185-.208.262l-8.988 10.786c-.09.108-.195.234-.295.335a1.516 1.516 0 0 1-.556.37 1.5 1.5 0 0 1-1.03 0 1.516 1.516 0 0 1-.556-.37c-.1-.101-.205-.227-.295-.335L1.66 10.153l-.013-.016a4.207 4.207 0 0 1-.208-.262 1.502 1.502 0 0 1-.23-.464 1.5 1.5 0 0 1 0-.822c.059-.204.155-.358.23-.464.064-.09.143-.185.208-.262l.013-.015 4.333-5.2.017-.021c.063-.076.192-.234.362-.354a1.5 1.5 0 0 1 .473-.222c.2-.053.405-.051.503-.051Zm.12 2h9.064l3.333 4H4.135l3.333-4Zm-3.333 6L12 19.438 19.865 10H4.135Zm12.603-6Zm-.339-.158Z" clip-rule="evenodd"/>
</svg>
