<svg xmlns="http://www.w3.org/2000/svg" width="24" height="24" viewBox="0 0 24 24">
  <path fill-rule="evenodd" d="M14.934 9a13.569 13.569 0 0 0-.07-.54c-.134-.887-.405-2.082-.96-3.26-.555-1.181-1.416-2.387-2.749-3.22C9.808 1.138 8.07.733 5.876 1.008a1 1 0 0 0-.227 1.928c1.532.575 2.41 2.16 2.887 3.892.223.809.34 1.584.4 2.172H5a1 1 0 0 0-.753 1.659l7 8a1 1 0 0 0 1.506 0l7-8A1 1 0 0 0 19 9h-4.066ZM10 10h1a1 1 0 0 1-1 1H7.204L12 16.481 16.796 11H14a1 1 0 0 1-1-.998v-.013a4.831 4.831 0 0 0-.014-.31 10.89 10.89 0 0 0-.1-.92c-.116-.77-.345-1.762-.79-2.708-.445-.945-1.084-1.802-2.001-2.375a4.66 4.66 0 0 0-1.045-.483c.705.986 1.141 2.116 1.414 3.104A15.53 15.53 0 0 1 11 9.97V10h-1Zm-7 7a1 1 0 0 1 1 1v3h16v-3a1 1 0 1 1 2 0v4a1 1 0 0 1-1 1H3a1 1 0 0 1-1-1v-4a1 1 0 0 1 1-1Z" clip-rule="evenodd"/>
</svg>
