<svg xmlns="http://www.w3.org/2000/svg" width="24" height="24" viewBox="0 0 24 24">
  <path d="M16 15c.932 0 1.398 0 1.765-.152a2 2 0 0 0 1.083-1.083C19 13.398 19 12.932 19 12c0-.932 0-1.398-.152-1.765a2 2 0 0 0-1.083-1.083C17.398 9 16.932 9 16 9H8c-.932 0-1.398 0-1.765.152a2 2 0 0 0-1.083 1.083C5 10.602 5 11.068 5 12c0 .932 0 1.398.152 1.765a2 2 0 0 0 1.083 1.083C6.602 15 7.068 15 8 15h8Z" opacity=".2"/>
  <path fill-rule="evenodd" d="M2 3a1 1 0 0 1 1-1h18a1 1 0 1 1 0 2H3a1 1 0 0 1-1-1Zm5.968 5h8.064c.439 0 .817 0 1.13.021.33.023.66.072.986.207a3 3 0 0 1 1.624 1.624c.135.326.184.656.207.986.021.313.021.691.021 1.13v.064c0 .439 0 .817-.021 1.13-.023.33-.072.66-.207.986a3 3 0 0 1-1.624 1.624 3.073 3.073 0 0 1-.986.207c-.313.021-.691.021-1.13.021H7.968c-.439 0-.817 0-1.13-.021a3.07 3.07 0 0 1-.986-.207 3 3 0 0 1-1.624-1.624 3.069 3.069 0 0 1-.207-.986C4 12.85 4 12.471 4 12.032v-.064c0-.439 0-.817.021-1.13.023-.33.072-.66.207-.986a3 3 0 0 1 1.624-1.624 3.07 3.07 0 0 1 .986-.207C7.15 8 7.529 8 7.968 8Zm-.994 2.017c-.228.015-.315.042-.357.06a1 1 0 0 0-.54.54c-.018.042-.045.129-.06.357C6 11.21 6 11.52 6 12s0 .79.017 1.026c.015.228.042.315.06.357a1 1 0 0 0 .54.54c.042.018.129.045.357.06C7.21 14 7.52 14 8 14h8c.48 0 .79 0 1.026-.017.228-.015.315-.042.357-.06a1 1 0 0 0 .54-.54c.018-.042.045-.129.06-.357C18 12.79 18 12.48 18 12s0-.79-.017-1.026c-.015-.228-.042-.315-.06-.357a1 1 0 0 0-.54-.54c-.042-.018-.129-.045-.357-.06A16.885 16.885 0 0 0 16 10H8c-.48 0-.79 0-1.026.017ZM2 21a1 1 0 0 1 1-1h18a1 1 0 1 1 0 2H3a1 1 0 0 1-1-1Z" clip-rule="evenodd"/>
</svg>
