<svg xmlns="http://www.w3.org/2000/svg" width="24" height="24" viewBox="0 0 24 24">
  <path fill-rule="evenodd" d="M9 5a1 1 0 0 1 1-1h11a1 1 0 1 1 0 2H10a1 1 0 0 1-1-1Zm0 7a1 1 0 0 1 1-1h11a1 1 0 1 1 0 2H10a1 1 0 0 1-1-1Zm0 7a1 1 0 0 1 1-1h11a1 1 0 1 1 0 2H10a1 1 0 0 1-1-1Z" clip-rule="evenodd" opacity=".5"/>
  <path fill-rule="evenodd" d="M4.5 4.5a.5.5 0 1 0 0 1 .5.5 0 0 0 0-1ZM2 5a2.5 2.5 0 1 1 5 0 2.5 2.5 0 0 1-5 0Zm2.5 6.5a.5.5 0 1 0 0 1 .5.5 0 0 0 0-1ZM2 12a2.5 2.5 0 1 1 5 0 2.5 2.5 0 0 1-5 0Zm2.5 6.5a.5.5 0 1 0 0 1 .5.5 0 0 0 0-1ZM2 19a2.5 2.5 0 1 1 5 0 2.5 2.5 0 0 1-5 0Z" clip-rule="evenodd"/>
</svg>
