<svg xmlns="http://www.w3.org/2000/svg" width="24" height="24" viewBox="0 0 24 24">
  <path d="M6 5a1.5 1.5 0 1 1-3 0 1.5 1.5 0 0 1 3 0Zm0 14a1.5 1.5 0 1 1-3 0 1.5 1.5 0 0 1 3 0Zm0-7a1.5 1.5 0 1 1-3 0 1.5 1.5 0 0 1 3 0Z" opacity=".2"/>
  <path fill-rule="evenodd" d="M4.5 4.5a.5.5 0 1 0 0 1 .5.5 0 0 0 0-1ZM2 5a2.5 2.5 0 1 1 5 0 2.5 2.5 0 0 1-5 0Zm7 0a1 1 0 0 1 1-1h11a1 1 0 1 1 0 2H10a1 1 0 0 1-1-1Zm-4.5 6.5a.5.5 0 1 0 0 1 .5.5 0 0 0 0-1ZM2 12a2.5 2.5 0 1 1 5 0 2.5 2.5 0 0 1-5 0Zm7 0a1 1 0 0 1 1-1h11a1 1 0 1 1 0 2H10a1 1 0 0 1-1-1Zm-4.5 6.5a.5.5 0 1 0 0 1 .5.5 0 0 0 0-1ZM2 19a2.5 2.5 0 1 1 5 0 2.5 2.5 0 0 1-5 0Zm7 0a1 1 0 0 1 1-1h11a1 1 0 1 1 0 2H10a1 1 0 0 1-1-1Z" clip-rule="evenodd"/>
</svg>
