<svg xmlns="http://www.w3.org/2000/svg" width="24" height="24" viewBox="0 0 24 24">
  <path fill-rule="evenodd" d="M5.25 7.143a7.002 7.002 0 0 1 13.5 0 5.502 5.502 0 0 1 1.806 9.93 1 1 0 0 1-1.112-1.662 3.5 3.5 0 0 0-1.616-6.396 1 1 0 0 1-.895-.833 5.002 5.002 0 0 0-9.867 0 1 1 0 0 1-.894.833 3.5 3.5 0 0 0-1.616 6.396 1 1 0 0 1-1.112 1.662 5.502 5.502 0 0 1 1.805-9.93Z" clip-rule="evenodd" opacity=".5"/>
  <path fill-rule="evenodd" d="M12 11a1 1 0 0 1 1 1v6.586l2.293-2.293a1 1 0 0 1 1.414 1.414l-4 4a1 1 0 0 1-1.414 0l-4-4a1 1 0 1 1 1.414-1.414L11 18.586V12a1 1 0 0 1 1-1Z" clip-rule="evenodd"/>
</svg>
