<svg xmlns="http://www.w3.org/2000/svg" width="24" height="24" viewBox="0 0 24 24">
  <path fill-rule="evenodd" d="M8.56 3.69c-.168.044-.333.125-.716.325a9 9 0 1 0 8.655.189 1 1 0 0 1 1.002-1.732A10.996 10.996 0 0 1 23 12c0 6.075-4.925 11-11 11S1 18.075 1 12c0-4.244 2.404-7.925 5.919-9.758l.044-.024c.323-.168.682-.356 1.092-.463.46-.12.924-.127 1.482-.051.512.07 1.07.33 1.506.594.435.264.924.638 1.223 1.06.736 1.04.735 2.036.734 3.297v6.931l2.293-2.293a1 1 0 0 1 1.414 1.414l-4 4a1 1 0 0 1-1.414 0l-4-4a1 1 0 1 1 1.414-1.414L11 13.586V6.8c0-1.451-.03-1.81-.367-2.287-.067-.095-.287-.299-.627-.505-.34-.206-.622-.307-.737-.322-.387-.053-.575-.03-.71.005Z" clip-rule="evenodd"/>
</svg>
