<svg xmlns="http://www.w3.org/2000/svg" width="24" height="24" viewBox="0 0 24 24">
  <path fill-rule="evenodd" d="M13.707 1.293a1 1 0 0 1 0 1.414l-11 11a1 1 0 0 1-1.414-1.414l11-11a1 1 0 0 1 1.414 0Zm-.914 9.247.033.011 8.26 2.735c.248.082.494.163.686.247.176.076.525.239.746.597a1.5 1.5 0 0 1 .117 1.342c-.156.391-.471.612-.63.717a8.825 8.825 0 0 1-.633.362l-3.134 1.687-1.687 3.134c-.124.23-.246.457-.362.632-.105.16-.326.475-.717.631a1.5 1.5 0 0 1-1.342-.117c-.358-.221-.521-.57-.597-.746-.084-.192-.165-.438-.247-.685l-2.746-8.294a7.607 7.607 0 0 1-.188-.623c-.042-.182-.107-.523.023-.887a1.5 1.5 0 0 1 .908-.908c.364-.13.705-.065.887-.023.188.044.408.117.623.188Zm-.218 2.035 2.453 7.408 1.478-2.746a.778.778 0 0 0 .008-.015 1.507 1.507 0 0 1 .425-.53c.108-.085.226-.148.283-.178l.015-.008 2.746-1.479-7.408-2.452Z" clip-rule="evenodd"/>
</svg>
