<svg xmlns="http://www.w3.org/2000/svg" width="24" height="24" viewBox="0 0 24 24">
  <path fill-rule="evenodd" d="M11.412 1.191a1 1 0 0 1 1.176 0l9.51 6.91a1 1 0 0 1-1.175 1.618L12 3.236 3.665 9.292l3.184 9.798H9a1 1 0 1 1 0 2H6.122a1 1 0 0 1-.95-.69L1.537 9.218A1 1 0 0 1 1.902 8.1l9.51-6.91Zm1.38 9.35.034.01 8.26 2.735c.248.082.494.163.686.247.176.076.525.239.746.597a1.5 1.5 0 0 1 .117 1.342c-.156.391-.471.612-.63.717a8.825 8.825 0 0 1-.633.362l-3.134 1.687-1.687 3.134c-.124.23-.246.457-.362.632-.105.16-.326.475-.717.631a1.5 1.5 0 0 1-1.342-.117c-.358-.221-.521-.57-.597-.746-.084-.192-.165-.438-.247-.685l-2.735-8.261-.01-.033a7.445 7.445 0 0 1-.189-.623c-.042-.182-.107-.523.023-.887a1.5 1.5 0 0 1 .908-.908c.364-.13.705-.065.887-.023.188.044.408.117.623.188Zm-.217 2.034 2.453 7.408 1.478-2.746a2.84 2.84 0 0 0 .008-.015 1.507 1.507 0 0 1 .425-.53c.108-.085.226-.148.283-.178l.015-.008 2.746-1.479-7.408-2.452Z" clip-rule="evenodd"/>
</svg>
