<svg xmlns="http://www.w3.org/2000/svg" width="24" height="24" viewBox="0 0 24 24">
  <path fill-rule="evenodd" d="M12.698 1.284 12 2l-.698-.716a1 1 0 0 1 1.396 0ZM12 3.412c-.086.087-.18.181-.278.282a84.107 84.107 0 0 0-2.245 2.378 47.274 47.274 0 0 0-2.442 2.893c-.742.97-1.283 1.81-1.527 2.41a7 7 0 1 0 12.983 0c-.243-.6-.784-1.44-1.526-2.41a47.245 47.245 0 0 0-2.442-2.893A84.133 84.133 0 0 0 12 3.412Zm-.698-2.128L12 2c.698-.716.697-.717.698-.716l.005.005.014.014.054.053a57.75 57.75 0 0 1 .935.938 86.197 86.197 0 0 1 2.3 2.435 49.207 49.207 0 0 1 2.547 3.02c.76.993 1.442 2.01 1.792 2.876a9 9 0 1 1-16.69 0c.35-.865 1.032-1.883 1.792-2.876a49.235 49.235 0 0 1 2.548-3.02 86.34 86.34 0 0 1 3.234-3.373l.054-.053.02-.02Z" clip-rule="evenodd"/>
</svg>
