<svg xmlns="http://www.w3.org/2000/svg" width="24" height="24" viewBox="0 0 24 24">
  <path d="M7 15.78c2.2 0 4-1.83 4-4.05 0-1.16-.57-2.26-1.71-3.19-1.14-.93-2-2.31-2.29-3.76a6.585 6.585 0 0 1-2.29 3.76C3.56 9.46 3 10.58 3 11.73c0 2.22 1.8 4.05 4 4.05Z" opacity=".2"/>
  <path fill-rule="evenodd" d="M14.004 1.5a1 1 0 0 1 .977.804c.452 2.26 1.82 4.456 3.644 5.915 2.179 1.743 3.374 3.909 3.375 6.279v.002h-1l1-.004v.002a7.979 7.979 0 0 1-13.616 5.68 1 1 0 1 1 1.412-1.416A5.98 5.98 0 0 0 20 14.504V14.5c0-1.63-.804-3.263-2.625-4.72A12.557 12.557 0 0 1 14 5.55a11.97 11.97 0 0 0 .98-2.846L14 2.5l-.98.196c.195.98.53 1.943.979 2.854a11.99 11.99 0 0 1-.591 1.06 1 1 0 0 1-1.696-1.06 9.97 9.97 0 0 0 1.31-3.254 1 1 0 0 1 .982-.796ZM7 3.78a1 1 0 0 1 .98.804c.243 1.212.973 2.39 1.942 3.181C11.241 8.841 12 10.206 12 11.73c0 2.76-2.235 5.05-5 5.05s-5-2.29-5-5.05c0-1.506.742-2.896 2.085-3.97A5.586 5.586 0 0 0 6.02 4.583 1 1 0 0 1 7 3.78Zm.003 3.645a7.466 7.466 0 0 1-1.668 1.896C4.378 10.086 4 10.936 4 11.73c0 1.68 1.365 3.05 3 3.05s3-1.37 3-3.05c0-.796-.38-1.63-1.342-2.415a7.7 7.7 0 0 1-1.655-1.89Z" clip-rule="evenodd"/>
</svg>
