<svg xmlns="http://www.w3.org/2000/svg" width="24" height="24" viewBox="0 0 24 24">
  <path fill-rule="evenodd" d="M16.293 2.293a3.828 3.828 0 1 1 5.414 5.414L17.414 12l.793.793a1 1 0 0 1-1.414 1.414L16 13.414l-6.293 6.293c-1.42 1.42-3.355 2.231-4.853 2.687a18.084 18.084 0 0 1-2.512.57l-.165.022-.046.005-.013.002h-.006S2.11 22.994 2 22l-.994-.111v-.007l.003-.013.005-.046.023-.165a18.076 18.076 0 0 1 .57-2.512c.455-1.498 1.265-3.432 2.686-4.853L10.586 8l-.793-.793a1 1 0 0 1 1.414-1.414l.793.793 4.293-4.293ZM12 9.414l-6.293 6.293c-1.08 1.08-1.769 2.645-2.188 4.022-.112.37-.203.717-.275 1.027.31-.072.658-.163 1.027-.275 1.377-.42 2.943-1.109 4.022-2.188L14.586 12 12 9.414Zm4 1.172L13.414 8l4.293-4.293a1.828 1.828 0 0 1 2.586 2.586L16 10.586ZM2 22l-.994-.111a1.001 1.001 0 0 0 1.104 1.105L2 22Z" clip-rule="evenodd"/>
</svg>
