<svg xmlns="http://www.w3.org/2000/svg" width="24" height="24" viewBox="0 0 24 24">
  <path d="M12 21.5a7 7 0 0 0 7-7c0-2-1-3.9-3-5.5s-3.5-4-4-6.5C11.5 5 10 7.4 8 9c-2 1.6-3 3.5-3 5.5a7 7 0 0 0 7 7Z" opacity=".2"/>
  <path fill-rule="evenodd" d="M12 1.5a1 1 0 0 1 .98.804c.453 2.26 1.82 4.456 3.645 5.915C18.805 9.963 20 12.13 20 14.5a8 8 0 0 1-16 0c0-2.37 1.196-4.537 3.375-6.28C9.2 6.76 10.567 4.563 11.02 2.303A1 1 0 0 1 12 1.5Zm0 4.053a12.558 12.558 0 0 1-3.375 4.228C6.805 11.237 6 12.87 6 14.5a6 6 0 1 0 12 0c0-1.63-.804-3.263-2.625-4.72A12.558 12.558 0 0 1 12 5.554Z" clip-rule="evenodd"/>
</svg>
