<svg xmlns="http://www.w3.org/2000/svg" width="24" height="24" viewBox="0 0 24 24">
  <path fill-rule="evenodd" d="M7 3.78a1 1 0 0 1 .98.804c.243 1.211.973 2.39 1.942 3.18C11.241 8.842 12 10.207 12 11.73c0 2.76-2.235 5.05-5 5.05s-5-2.29-5-5.05c0-1.506.742-2.897 2.085-3.971A5.586 5.586 0 0 0 6.02 4.584 1 1 0 0 1 7 3.78Zm.003 3.645a7.466 7.466 0 0 1-1.668 1.896C4.378 10.086 4 10.936 4 11.73c0 1.68 1.365 3.05 3 3.05s3-1.37 3-3.05c0-.796-.38-1.631-1.342-2.415a7.7 7.7 0 0 1-1.655-1.89Z" clip-rule="evenodd" opacity=".5"/>
  <path fill-rule="evenodd" d="M14.004 1.5a1 1 0 0 1 .976.804c.452 2.26 1.82 4.456 3.645 5.915 2.179 1.743 3.374 3.91 3.375 6.279a7.98 7.98 0 0 1-13.616 5.68 1 1 0 1 1 1.412-1.416A5.979 5.979 0 0 0 20 14.504V14.5c0-1.63-.804-3.263-2.625-4.72a12.558 12.558 0 0 1-3.377-4.23c-.178.363-.375.717-.59 1.06a1 1 0 1 1-1.696-1.06 9.968 9.968 0 0 0 1.309-3.254 1 1 0 0 1 .983-.796Z" clip-rule="evenodd"/>
</svg>
