<svg xmlns="http://www.w3.org/2000/svg" width="24" height="24" viewBox="0 0 24 24">
  <path fill-rule="evenodd" d="M11.49 1.316a2 2 0 0 1 1.02 0c.386.102.715.35.977.549l.073.055.607.455.232.174.116.087.005.004L22.6 8.7a1 1 0 1 1-1.2 1.6L21 10v7.8a1 1 0 1 1-2 0V8.5l-5.68-4.26-.006-.005c-.755-.565-.917-.664-1.06-.702a1 1 0 0 0-.509 0c-.142.038-.304.137-1.06.703l-.005.004L5 8.5v9.3a1 1 0 1 1-2 0V10l-.4.3a1 1 0 1 1-1.2-1.6l8.08-6.06.12-.09.233-.175.607-.455.073-.055c.262-.198.59-.447.978-.55ZM9.918 3.223l.163.217-.163-.217Zm2.598 4.92a1 1 0 0 1 .342 1.371L10.768 13H14a1 1 0 0 1 .868 1.496l-4 7a1 1 0 0 1-.744.496l-8 1a1 1 0 1 1-.248-1.984l7.504-.938L12.277 15H9a1 1 0 0 1-.857-1.514l3-5a1 1 0 0 1 1.371-.343Zm1.495 12.716a1 1 0 0 1 1.131-.849l7 1a1 1 0 0 1-.282 1.98l-7-1a1 1 0 0 1-.849-1.131Z" clip-rule="evenodd"/>
</svg>
