<svg xmlns="http://www.w3.org/2000/svg" width="24" height="24"  viewBox="0 0 24 24">
  <path fill-rule="evenodd" d="M21.675 17.262a1 1 0 0 1 .063 1.413l-1 1.094C20.028 20.545 19.046 21 18 21c-1.045 0-2.027-.455-2.737-1.23A1.716 1.716 0 0 0 14 19.19c-.455 0-.911.196-1.263.58a1 1 0 0 1-1.474-1.352A3.717 3.717 0 0 1 14 17.19c1.045 0 2.027.454 2.737 1.228l.002.001c.35.384.807.581 1.261.581.455 0 .91-.197 1.262-.58l1-1.095a1 1 0 0 1 1.413-.063ZM15.793 2.793a3.121 3.121 0 1 1 4.414 4.414L7.644 19.77l-.058.059c-.288.288-.541.542-.847.729a3 3 0 0 1-.867.36C5.524 21 5.165 21 4.758 21H3a1 1 0 0 1-1-1v-1.758c0-.407 0-.765.083-1.114a3 3 0 0 1 .36-.867c.186-.306.44-.56.728-.846l.06-.06L15.792 2.794Z" clip-rule="evenodd"/>
</svg>
