<svg xmlns="http://www.w3.org/2000/svg" width="24" height="24" viewBox="0 0 24 24">
  <path fill-rule="evenodd" d="M13.293 5.293a1 1 0 0 1 1.414 0l4 4a1 1 0 0 1-1.414 1.414l-4-4a1 1 0 0 1 0-1.414Z" clip-rule="evenodd" opacity=".5"/>
  <path fill-rule="evenodd" d="M16.293 2.293a3.828 3.828 0 1 1 5.414 5.414L8.501 20.913l-.05.05c-.245.246-.461.462-.718.631-.225.149-.47.267-.727.35-.293.095-.597.128-.941.166l-.07.008-3.385.376a1 1 0 0 1-1.104-1.104l.376-3.385.008-.07c.038-.344.071-.648.166-.94a3 3 0 0 1 .35-.728c.169-.257.385-.473.63-.718l.05-.05L16.294 2.293Zm4 1.414a1.828 1.828 0 0 0-2.586 0L4.501 16.913c-.323.323-.383.39-.426.455a1 1 0 0 0-.116.242c-.024.074-.039.163-.09.616l-.237 2.142 2.142-.238c.453-.05.542-.065.616-.089a.984.984 0 0 0 .242-.117c.066-.043.132-.102.455-.425L20.293 6.293a1.829 1.829 0 0 0 0-2.586Z" clip-rule="evenodd"/>
</svg>
