<svg xmlns="http://www.w3.org/2000/svg" width="24" height="24" viewBox="0 0 24 24">
  <path d="M3 18.326c0-.49 0-.734.055-.964a2 2 0 0 1 .24-.579c.123-.201.296-.374.642-.72L16.5 3.5a2.121 2.121 0 0 1 3 3L6.937 19.063c-.346.346-.519.519-.72.642a2 2 0 0 1-.579.24c-.23.055-.474.055-.963.055H3v-1.674Z" opacity=".2"/>
  <path fill-rule="evenodd" d="M15.793 2.793a3.121 3.121 0 1 1 4.414 4.414L7.644 19.77l-.058.059c-.288.288-.541.542-.847.729a3 3 0 0 1-.867.36C5.524 21 5.165 21 4.758 21H3a1 1 0 0 1-1-1v-1.758c0-.407 0-.765.083-1.114a3 3 0 0 1 .36-.867c.186-.306.44-.56.728-.846l.06-.06L15.792 2.794Zm3 1.414a1.121 1.121 0 0 0-1.586 0L4.644 16.77c-.38.38-.45.459-.497.536a1 1 0 0 0-.12.289c-.02.088-.027.194-.027.73V19h.675c.536 0 .642-.006.73-.028a.998.998 0 0 0 .29-.12c.077-.047.156-.117.535-.496L18.793 5.793a1.121 1.121 0 0 0 0-1.586ZM11 20a1 1 0 0 1 1-1h9a1 1 0 1 1 0 2h-9a1 1 0 0 1-1-1Z" clip-rule="evenodd"/>
</svg>
