<svg xmlns="http://www.w3.org/2000/svg" width="24" height="24" viewBox="0 0 24 24">
  <path fill-rule="evenodd" d="M21.675 17.262a1 1 0 0 1 .063 1.413l-1 1.094C20.028 20.545 19.046 21 18 21c-1.045 0-2.027-.455-2.737-1.23A1.717 1.717 0 0 0 14 19.19c-.455 0-.911.197-1.263.58a1 1 0 1 1-1.474-1.352A3.717 3.717 0 0 1 14 17.19c1.045 0 2.027.454 2.737 1.228l.001.001c.352.384.808.581 1.262.581.454 0 .91-.197 1.262-.58l1-1.095a1 1 0 0 1 1.413-.063Z" clip-rule="evenodd" opacity=".5"/>
  <path fill-rule="evenodd" d="M15.793 2.793a3.121 3.121 0 1 1 4.414 4.414L7.644 19.77l-.058.059c-.288.288-.541.542-.847.729a3 3 0 0 1-.867.36C5.524 21 5.165 21 4.758 21H3a1 1 0 0 1-1-1v-1.758c0-.407 0-.765.083-1.114a3 3 0 0 1 .36-.867c.186-.306.44-.56.728-.846l.06-.06L15.792 2.794Zm3 1.414a1.121 1.121 0 0 0-1.586 0L4.644 16.77c-.38.38-.45.459-.497.536a1 1 0 0 0-.12.289c-.02.088-.027.194-.027.73V19h.675c.536 0 .642-.006.73-.028a.998.998 0 0 0 .29-.12c.077-.047.156-.117.535-.496L18.793 5.793a1.121 1.121 0 0 0 0-1.586Z" clip-rule="evenodd"/>
</svg>
