<?xml version="1.0" standalone="no"?><!DOCTYPE svg PUBLIC "-//W3C//DTD SVG 1.1//EN" "http://www.w3.org/Graphics/SVG/1.1/DTD/svg11.dtd"><svg t="1704879035276" class="icon" viewBox="0 0 1024 1024" version="1.1" xmlns="http://www.w3.org/2000/svg" p-id="10683" xmlns:xlink="http://www.w3.org/1999/xlink" ><path d="M512 0C229.220174 0 0 229.220174 0 512s229.220174 512 512 512 512-229.220174 512-512S794.779826 0 512 0z m-139.085913 411.514435l108.900174-60.950261c16.673391-9.327304 43.698087-9.327304 60.349217 0l108.900174 60.972522c16.673391 9.327304 16.673391 24.464696 0 33.792l-108.900174 60.928c-16.673391 9.327304-43.698087 9.327304-60.349217 0l-108.900174-60.950261c-16.673391-9.327304-16.673391-24.442435 0-33.792z m-15.560348 78.269217a18.565565 18.565565 0 0 1 25.510957-6.032695 18.610087 18.610087 0 0 1 7.769043 22.372173l0.912696 0.534261 101.442782 56.765218c9.950609 5.587478 28.093217 5.587478 38.043826 0l101.420522-56.765218c0.356174-0.178087 0.645565-0.378435 0.934957-0.556521a18.476522 18.476522 0 0 1-0.690087-10.440348 18.342957 18.342957 0 0 1 8.169739-11.664696 18.031304 18.031304 0 0 1 14.002087-2.493217 18.454261 18.454261 0 0 1 11.664696 8.147478c4.941913 7.702261 6.477913 16.65113 4.318608 25.199304-2.470957 9.883826-9.46087 18.298435-20.212869 24.331131l-101.442783 56.765217c-10.24 5.721043-23.440696 8.882087-37.197913 8.882087s-26.957913-3.161043-37.197913-8.904348l-101.420522-56.742956c-10.707478-6.010435-17.697391-14.380522-20.190608-24.264348a31.98887 31.98887 0 0 1 4.162782-25.132522z m313.58887 111.727305c-2.470957 9.906087-9.48313 18.342957-20.235131 24.353391l-101.487304 56.809739c-10.217739 5.721043-23.462957 8.882087-37.220174 8.882087-13.757217 0-26.957913-3.161043-37.220174-8.882087l-101.509565-56.809739c-10.707478-6.010435-17.697391-14.402783-20.21287-24.286609a31.98887 31.98887 0 0 1 4.185044-25.132522 18.632348 18.632348 0 0 1 33.235478 16.36174l0.957217 0.578782 101.487305 56.787478c9.950609 5.587478 28.115478 5.565217 38.088348 0l101.487304-56.809739 0.957217-0.578782a18.654609 18.654609 0 0 1 7.41287-22.127305 18.654609 18.654609 0 0 1 25.733565 5.654261c4.964174 7.724522 6.477913 16.673391 4.34087 25.199305z"  opacity=".2" p-id="10684"></path><path d="M512 178.086957C327.590957 178.086957 178.086957 327.590957 178.086957 512c0 184.409043 149.504 333.913043 333.913043 333.913043s333.913043-149.504 333.913043-333.913043c0-184.409043-149.504-333.913043-333.913043-333.913043z m-139.085913 233.427478l108.900174-60.950261c16.673391-9.327304 43.698087-9.327304 60.349217 0l108.900174 60.972522c16.673391 9.327304 16.673391 24.464696 0 33.792l-108.900174 60.928c-16.673391 9.327304-43.698087 9.327304-60.349217 0l-108.900174-60.950261c-16.673391-9.327304-16.673391-24.442435 0-33.792z m-15.560348 78.269217a18.565565 18.565565 0 0 1 25.510957-6.032695 18.610087 18.610087 0 0 1 7.769043 22.372173l0.912696 0.534261 101.442782 56.765218c9.950609 5.587478 28.093217 5.587478 38.043826 0l101.420522-56.765218c0.356174-0.178087 0.645565-0.378435 0.934957-0.556521a18.476522 18.476522 0 0 1-0.690087-10.440348 18.342957 18.342957 0 0 1 8.169739-11.664696 18.031304 18.031304 0 0 1 14.002087-2.493217 18.454261 18.454261 0 0 1 11.664696 8.147478c4.941913 7.702261 6.477913 16.65113 4.318608 25.199304-2.470957 9.883826-9.46087 18.298435-20.212869 24.331131l-101.442783 56.765217c-10.24 5.721043-23.440696 8.882087-37.197913 8.882087s-26.957913-3.161043-37.197913-8.904348l-101.420522-56.742956c-10.707478-6.010435-17.697391-14.380522-20.190608-24.264348a31.98887 31.98887 0 0 1 4.162782-25.132522z m313.58887 111.727305c-2.470957 9.906087-9.48313 18.342957-20.235131 24.353391l-101.487304 56.809739c-10.217739 5.721043-23.462957 8.882087-37.220174 8.882087-13.757217 0-26.957913-3.161043-37.220174-8.882087l-101.509565-56.809739c-10.707478-6.010435-17.697391-14.402783-20.21287-24.286609a31.98887 31.98887 0 0 1 4.185044-25.132522 18.632348 18.632348 0 0 1 33.235478 16.36174l0.957217 0.578782 101.487305 56.787478c9.950609 5.587478 28.115478 5.565217 38.088348 0l101.487304-56.809739 0.957217-0.578782a18.654609 18.654609 0 0 1 7.41287-22.127305 18.654609 18.654609 0 0 1 25.733565 5.654261c4.964174 7.724522 6.477913 16.673391 4.34087 25.199305z" p-id="10685"></path></svg>