<svg xmlns="http://www.w3.org/2000/svg" width="24" height="24" viewBox="0 0 24 24">
  <path fill-rule="evenodd" d="M16.618 3.34a2 2 0 0 0-1.236 0c-.167.055-.372.167-.707.452-.345.292-.757.704-1.363 1.31L12.415 6 18 11.586l.898-.899c.606-.606 1.017-1.018 1.31-1.362.284-.336.397-.54.451-.707a2 2 0 0 0 0-1.236c-.054-.167-.167-.371-.451-.707-.293-.344-.704-.756-1.31-1.362l-.211-.212c-.606-.605-1.018-1.017-1.363-1.309-.335-.285-.54-.397-.706-.451Zm3.724 8.732c.569-.57 1.039-1.039 1.39-1.453.365-.43.66-.865.83-1.383a3.999 3.999 0 0 0 0-2.472c-.17-.518-.465-.953-.83-1.383-.351-.414-.821-.884-1.39-1.453l-.27-.27c-.57-.57-1.04-1.04-1.453-1.39-.43-.366-.865-.661-1.383-.83a4 4 0 0 0-2.473 0c-.518.169-.953.464-1.383.83-.414.35-.883.82-1.452 1.39l-1.635 1.635-6.636 6.635c-.569.57-1.039 1.039-1.39 1.453-.365.43-.66.865-.829 1.383a4 4 0 0 0 0 2.472c.168.518.464.953.829 1.383.351.414.821.884 1.39 1.453l.698.698.06.059c.287.288.54.542.845.729a3 3 0 0 0 .868.36c.348.083.707.082 1.114.082H21a1 1 0 1 0 0-2h-8.586l7.928-7.928ZM16.585 13 11 7.414l-5.898 5.899c-.606.606-1.017 1.018-1.31 1.362-.284.336-.397.54-.45.707a2 2 0 0 0 0 1.236c.053.167.166.372.45.707.293.344.704.756 1.31 1.362l.668.669c.38.38.459.45.536.497a1 1 0 0 0 .29.12c.088.02.193.027.73.027h1.35c.536 0 .641-.006.73-.028a1 1 0 0 0 .289-.12c.077-.047.156-.117.536-.496L16.585 13Z" clip-rule="evenodd"/>
</svg>
