<svg xmlns="http://www.w3.org/2000/svg" width="24" height="24" viewBox="0 0 24 24">
  <path d="m11 6 1.606-1.606c1.188-1.188 1.782-1.782 2.467-2.005a3 3 0 0 1 1.854 0c.685.223 1.28.817 2.467 2.005l.212.212c1.188 1.188 1.782 1.782 2.004 2.467a3 3 0 0 1 0 1.854c-.222.685-.816 1.28-2.004 2.467L18 13l-7-7Z" opacity=".2"/>
  <path fill-rule="evenodd" d="M16.618 3.34a2 2 0 0 0-1.236 0c-.167.055-.371.167-.707.452-.344.292-.756.704-1.362 1.31L12.414 6 18 11.586l.899-.899c.605-.606 1.017-1.018 1.309-1.362.285-.336.397-.54.451-.707a1.993 1.993 0 0 0 0-1.236c-.054-.167-.166-.371-.451-.707-.292-.344-.704-.756-1.31-1.362l-.211-.212c-.606-.605-1.018-1.017-1.362-1.309-.336-.285-.54-.397-.707-.451Zm3.724 8.732c.57-.57 1.04-1.039 1.39-1.453.366-.43.661-.865.83-1.383a4 4 0 0 0 0-2.472c-.169-.518-.464-.953-.83-1.383-.35-.414-.82-.884-1.39-1.453l-.27-.27c-.57-.57-1.039-1.04-1.453-1.39-.43-.366-.865-.661-1.383-.83a4 4 0 0 0-2.472 0c-.518.169-.953.464-1.383.83-.414.35-.884.82-1.453 1.39l-1.635 1.635-6.635 6.635c-.57.57-1.04 1.039-1.39 1.453-.366.43-.661.865-.83 1.383a4 4 0 0 0 0 2.472c.169.518.464.953.83 1.383.35.414.82.884 1.39 1.453l.698.698.058.059c.288.288.541.542.847.729a3 3 0 0 0 .867.36c.349.083.707.082 1.114.082H21a1 1 0 1 0 0-2h-8.586l7.928-7.928ZM16.586 13 11 7.414l-5.899 5.899c-.606.606-1.017 1.018-1.309 1.362-.285.336-.397.54-.451.707a2 2 0 0 0 0 1.236c.054.167.166.371.451.707.292.344.704.756 1.31 1.362l.668.669c.38.38.458.45.536.497.09.054.187.095.289.12.088.02.194.027.73.027h1.35c.536 0 .642-.006.73-.028a.998.998 0 0 0 .29-.12c.076-.047.156-.117.535-.496L16.586 13Z" clip-rule="evenodd"/>
</svg>
