<svg xmlns="http://www.w3.org/2000/svg" width="24" height="24" viewBox="0 0 24 24">
  <path fill-rule="evenodd" d="M2.293 2.293a1 1 0 0 1 1.414 0l6 6a1 1 0 0 1-1.414 1.414l-6-6a1 1 0 0 1 0-1.414Zm19.414 0a1 1 0 0 1 0 1.414l-6 6a1 1 0 0 1-1.414-1.414l6-6a1 1 0 0 1 1.414 0Zm-12 12a1 1 0 0 1 0 1.414l-6 6a1 1 0 0 1-1.414-1.414l6-6a1 1 0 0 1 1.414 0Zm4.586 0a1 1 0 0 1 1.414 0l6 6a1 1 0 0 1-1.414 1.414l-6-6a1 1 0 0 1 0-1.414Z" clip-rule="evenodd" opacity=".5"/>
  <path fill-rule="evenodd" d="M4 4h5a1 1 0 0 0 0-2H3a1 1 0 0 0-1 1v6a1 1 0 1 0 2 0V4Zm10-1a1 1 0 0 1 1-1h6a1 1 0 0 1 1 1v6a1 1 0 1 1-2 0V4h-5a1 1 0 0 1-1-1ZM3 14a1 1 0 0 1 1 1v5h5a1 1 0 1 1 0 2H3a1 1 0 0 1-1-1v-6a1 1 0 0 1 1-1Zm18 0a1 1 0 0 1 1 1v6a1 1 0 0 1-1 1h-6a1 1 0 1 1 0-2h5v-5a1 1 0 0 1 1-1Z" clip-rule="evenodd"/>
</svg>
