<svg xmlns="http://www.w3.org/2000/svg" width="24" height="24" viewBox="0 0 24 24">
  <path fill-rule="evenodd" d="M2.293 2.293a1 1 0 0 1 1.414 0l5 5a1 1 0 0 1-1.414 1.414l-5-5a1 1 0 0 1 0-1.414Zm19.414 0a1 1 0 0 1 0 1.414l-5 5a1 1 0 1 1-1.414-1.414l5-5a1 1 0 0 1 1.414 0Zm-13 13a1 1 0 0 1 0 1.414l-5 5a1 1 0 0 1-1.414-1.414l5-5a1 1 0 0 1 1.414 0Zm6.586 0a1 1 0 0 1 1.414 0l5 5a1 1 0 0 1-1.414 1.414l-5-5a1 1 0 0 1 0-1.414Z" clip-rule="evenodd" opacity=".5"/>
  <path fill-rule="evenodd" d="M4 4h4a1 1 0 0 0 0-2H3a1 1 0 0 0-1 1v5a1 1 0 0 0 2 0V4Zm11-1a1 1 0 0 1 1-1h5a1 1 0 0 1 1 1v5a1 1 0 1 1-2 0V4h-4a1 1 0 0 1-1-1ZM3 15a1 1 0 0 1 1 1v4h4a1 1 0 1 1 0 2H3a1 1 0 0 1-1-1v-5a1 1 0 0 1 1-1Zm18 0a1 1 0 0 1 1 1v5a1 1 0 0 1-1 1h-5a1 1 0 1 1 0-2h4v-4a1 1 0 0 1 1-1Z" clip-rule="evenodd"/>
</svg>
