<svg xmlns="http://www.w3.org/2000/svg" width="24" height="24" viewBox="0 0 24 24">
  <path fill-rule="evenodd" d="M4 5.414V9a1 1 0 1 1-2 0V3a1 1 0 0 1 1-1h6a1 1 0 0 1 0 2H5.414l4.293 4.293a1 1 0 0 1-1.414 1.414L4 5.414ZM15 4a1 1 0 1 1 0-2h6a1 1 0 0 1 1 1v6a1 1 0 1 1-2 0V5.414l-4.293 4.293a1 1 0 0 1-1.414-1.414L18.586 4H15ZM3 14a1 1 0 0 1 1 1v3.586l4.293-4.293a1 1 0 0 1 1.414 1.414L5.414 20H9a1 1 0 1 1 0 2H3a1 1 0 0 1-1-1v-6a1 1 0 0 1 1-1Zm15.586 6-4.293-4.293a1 1 0 0 1 1.414-1.414L20 18.586V15a1 1 0 1 1 2 0v6a1 1 0 0 1-1 1h-6a1 1 0 1 1 0-2h3.586Z" clip-rule="evenodd"/>
</svg>
