<svg xmlns="http://www.w3.org/2000/svg" width="24" height="24" viewBox="0 0 24 24">
  <path fill-rule="evenodd" d="M4 5.414V8a1 1 0 0 1-2 0V3a1 1 0 0 1 1-1h5a1 1 0 0 1 0 2H5.414l3.293 3.293a1 1 0 0 1-1.414 1.414L4 5.414ZM16 4a1 1 0 1 1 0-2h5a1 1 0 0 1 1 1v5a1 1 0 1 1-2 0V5.414l-3.293 3.293a1 1 0 1 1-1.414-1.414L18.586 4H16ZM3 15a1 1 0 0 1 1 1v2.586l3.293-3.293a1 1 0 0 1 1.414 1.414L5.414 20H8a1 1 0 1 1 0 2H3a1 1 0 0 1-1-1v-5a1 1 0 0 1 1-1Zm15.586 5-3.293-3.293a1 1 0 0 1 1.414-1.414L20 18.586V16a1 1 0 1 1 2 0v5a1 1 0 0 1-1 1h-5a1 1 0 1 1 0-2h2.586Z" clip-rule="evenodd"/>
</svg>
