<svg xmlns="http://www.w3.org/2000/svg" width="24" height="24" viewBox="0 0 24 24">
  <path fill-rule="evenodd" d="M7.759 2H10a1 1 0 1 1 0 2H7.8c-.857 0-1.439 0-1.889.038-.438.035-.663.1-.819.18a2 2 0 0 0-.874.874c-.08.156-.145.38-.18.819C4 6.361 4 6.943 4 7.8V10a1 1 0 1 1-2 0V7.759c0-.805 0-1.47.044-2.01.046-.563.145-1.08.392-1.565a4 4 0 0 1 1.748-1.748c.485-.247 1.002-.346 1.564-.392C6.29 2 6.954 2 7.758 2ZM15 4a1 1 0 1 1 0-2h6a1 1 0 0 1 1 1v6a1 1 0 1 1-2 0V5.414l-4.293 4.293a1 1 0 0 1-1.414-1.414L18.586 4H15ZM3 14a1 1 0 0 1 1 1v3.586l4.293-4.293a1 1 0 0 1 1.414 1.414L5.414 20H9a1 1 0 1 1 0 2H3a1 1 0 0 1-1-1v-6a1 1 0 0 1 1-1Zm18-1a1 1 0 0 1 1 1v2.241c0 .805 0 1.47-.044 2.01-.046.563-.145 1.08-.392 1.565a4 4 0 0 1-1.748 1.748c-.485.247-1.002.346-1.564.392-.541.044-1.206.044-2.01.044H14a1 1 0 1 1 0-2h2.2c.857 0 1.439 0 1.889-.038.438-.035.663-.1.819-.18a2 2 0 0 0 .874-.874c.08-.156.145-.38.18-.819.037-.45.038-1.032.038-1.889V14a1 1 0 0 1 1-1Z" clip-rule="evenodd"/>
</svg>
