<svg xmlns="http://www.w3.org/2000/svg" width="24" height="24" viewBox="0 0 24 24">
  <path fill-rule="evenodd" d="M12 6c-.382 0-.752.028-1.111.082a1 1 0 1 1-.293-1.979A9.586 9.586 0 0 1 12 4c2.862 0 5.195 1.265 6.923 2.707 1.727 1.441 2.91 3.107 3.503 4.046l.024.038c.117.185.27.425.347.762.063.272.063.622 0 .894l-.974-.223.974.223c-.077.337-.23.578-.349.764a18.501 18.501 0 0 1-1.466 2.011 1 1 0 1 1-1.533-1.284 16.52 16.52 0 0 0 1.284-1.757l.082-.13.03-.05V12a10.444 10.444 0 0 0-.11-.178c-.533-.844-1.587-2.32-3.093-3.578C16.138 6.988 14.243 6 12 6Zm-4.449.154a1 1 0 0 1-.266 1.389c-1.997 1.355-3.377 3.26-4.019 4.276a9.032 9.032 0 0 0-.11.18V12l.028.049.081.13c.533.843 1.587 2.32 3.093 3.577C7.862 17.012 9.757 18 12 18c1.81 0 3.39-.642 4.726-1.55a1 1 0 1 1 1.125 1.654C16.272 19.177 14.306 20 12 20c-2.862 0-5.195-1.265-6.923-2.707-1.727-1.441-2.91-3.107-3.503-4.046l-.024-.038a2.321 2.321 0 0 1-.347-.762 2.159 2.159 0 0 1 0-.894l.968.222-.968-.222c.077-.337.23-.578.348-.764l.024-.038c.705-1.116 2.261-3.285 4.588-4.864a1 1 0 0 1 1.388.267Z" clip-rule="evenodd" opacity=".5"/>
  <path fill-rule="evenodd" d="M2.293 2.293a1 1 0 0 1 1.414 0l18 18a1 1 0 0 1-1.414 1.414l-6.261-6.261a4 4 0 0 1-5.478-5.478l-6.261-6.26a1 1 0 0 1 0-1.415Zm7.775 9.189a2 2 0 0 0 2.45 2.45l-2.45-2.45Z" clip-rule="evenodd"/>
</svg>
