<svg xmlns="http://www.w3.org/2000/svg" width="24" height="24" viewBox="0 0 24 24">
  <path fill-rule="evenodd" d="M2.293 2.293a1 1 0 0 1 1.415 0l3.638 3.639c.059.046.112.1.16.16l10.391 10.39c.068.053.13.114.184.185l3.627 3.626a1 1 0 0 1-1.415 1.414l-3.153-3.154C15.695 19.4 13.972 20 12 20c-2.861 0-5.194-1.265-6.923-2.707-1.726-1.441-2.91-3.107-3.502-4.046a12.644 12.644 0 0 0-.024-.038 2.341 2.341 0 0 1-.348-.762 2.159 2.159 0 0 1 0-.894c.077-.337.23-.578.348-.764l.025-.038c.602-.953 1.825-2.676 3.62-4.141L2.293 3.707a1 1 0 0 1 0-1.414Zm4.325 5.74C4.98 9.325 3.834 10.92 3.267 11.818a9.107 9.107 0 0 0-.11.18V12a9.608 9.608 0 0 0 .11.178c.531.844 1.585 2.32 3.092 3.578C7.863 17.012 9.757 18 12 18c1.353 0 2.578-.359 3.667-.919l-1.635-1.635a4 4 0 0 1-5.478-5.478L6.618 8.032Zm3.45 3.449a2 2 0 0 0 2.45 2.45l-2.45-2.45ZM12 6c-.381 0-.752.028-1.11.082a1 1 0 0 1-.293-1.979A9.587 9.587 0 0 1 12 4c2.862 0 5.195 1.265 6.924 2.707 1.726 1.441 2.91 3.107 3.502 4.046l.024.038c.118.185.27.425.348.762.062.272.062.622 0 .894-.077.337-.23.578-.349.764l-.024.039a18.487 18.487 0 0 1-1.442 1.972 1 1 0 1 1-1.533-1.284 16.52 16.52 0 0 0 1.395-1.937V12a1.461 1.461 0 0 0-.03-.049l-.08-.13c-.532-.843-1.587-2.32-3.093-3.577C16.138 6.988 14.244 6 12 6Z" clip-rule="evenodd"/>
</svg>
