<svg xmlns="http://www.w3.org/2000/svg" width="24" height="24" viewBox="0 0 24 24">
  <path fill-rule="evenodd" d="M7.522 4.723c-1.202.97-2.045 2.112-2.47 2.764l-.01.013.01.013c.425.652 1.268 1.794 2.47 2.764C8.722 11.245 10.224 12 12 12c1.776 0 3.278-.755 4.478-1.723 1.202-.97 2.045-2.112 2.47-2.764l.01-.013-.01-.013c-.425-.652-1.268-1.794-2.47-2.764C15.278 3.755 13.776 3 12 3c-1.776 0-3.278.755-4.478 1.723ZM6.266 3.167C7.694 2.014 9.627 1 12 1c2.373 0 4.306 1.014 5.733 2.167 1.425 1.15 2.4 2.477 2.89 3.226l.02.031c.095.144.24.364.313.67.059.25.059.562 0 .812-.073.306-.218.526-.312.67a.282.282 0 0 0-.021.031c-.49.749-1.465 2.077-2.89 3.227C16.306 12.986 14.373 14 12 14c-2.373 0-4.306-1.014-5.734-2.166-1.424-1.15-2.4-2.478-2.889-3.227l-.02-.031a2.037 2.037 0 0 1-.313-.67 1.88 1.88 0 0 1 0-.812c.073-.306.218-.526.312-.67a.282.282 0 0 0 .021-.031c.49-.749 1.465-2.077 2.89-3.226ZM12 6.143c-.826 0-1.438.639-1.438 1.357S11.174 8.857 12 8.857s1.438-.639 1.438-1.357S12.826 6.143 12 6.143ZM8.562 7.5c0-1.886 1.571-3.357 3.438-3.357 1.867 0 3.438 1.471 3.438 3.357 0 1.886-1.571 3.357-3.438 3.357-1.867 0-3.438-1.471-3.438-3.357Zm-4.32 4.53a1 1 0 0 1 .728 1.213L3.28 20h17.44l-1.69-6.758a1 1 0 1 1 1.94-.485l2 8A1 1 0 0 1 22 22H2a1 1 0 0 1-.97-1.242l2-8a1 1 0 0 1 1.213-.728Z" clip-rule="evenodd"/>
</svg>
