<svg xmlns="http://www.w3.org/2000/svg" width="24" height="24" viewBox="0 0 24 24">
  <path d="M9 12a3 3 0 0 0 5.121 2.121L9.88 9.88A2.99 2.99 0 0 0 9 12Z" opacity=".2"/>
  <path fill-rule="evenodd" d="M2.293 2.293a1 1 0 0 1 1.414 0l3.639 3.639c.058.046.112.1.16.16l10.391 10.39c.068.053.13.114.184.185l3.626 3.626a1 1 0 0 1-1.414 1.414l-3.154-3.154C15.694 19.4 13.972 20 12 20c-2.862 0-5.195-1.265-6.923-2.707-1.727-1.441-2.91-3.107-3.503-4.046a15.065 15.065 0 0 0-.024-.038 2.321 2.321 0 0 1-.347-.762 2.159 2.159 0 0 1 0-.894c.077-.337.23-.578.348-.764l.024-.038c.603-.953 1.826-2.676 3.62-4.141L2.293 3.707a1 1 0 0 1 0-1.414Zm4.325 5.74c-1.64 1.293-2.784 2.888-3.352 3.786a9.032 9.032 0 0 0-.11.18V12l.028.049.081.13c.533.843 1.587 2.32 3.093 3.577C7.862 17.012 9.757 18 12 18c1.353 0 2.577-.359 3.667-.919l-1.635-1.635a4 4 0 0 1-5.478-5.478L6.618 8.032Zm3.45 3.449a2 2 0 0 0 2.45 2.45l-2.45-2.45ZM12 6c-.382 0-.752.028-1.111.082a1 1 0 1 1-.293-1.979A9.586 9.586 0 0 1 12 4c2.862 0 5.195 1.265 6.923 2.707 1.727 1.441 2.91 3.107 3.503 4.046l.024.038c.117.185.27.425.347.762.063.272.063.622 0 .894-.077.337-.23.578-.349.764a18.501 18.501 0 0 1-1.466 2.011 1 1 0 1 1-1.533-1.284 16.52 16.52 0 0 0 1.284-1.757l.082-.13.03-.05V12a10.444 10.444 0 0 0-.11-.178c-.533-.844-1.587-2.32-3.093-3.578C16.138 6.988 14.243 6 12 6Z" clip-rule="evenodd"/>
</svg>
