<svg xmlns="http://www.w3.org/2000/svg" width="24" height="24" viewBox="0 0 24 24">
  <path d="M12 23C5.93 23 1 18.07 1 12S5.93 1 12 1s11 4.93 11 11-4.93 11-11 11Zm0-20c-4.96 0-9 4.04-9 9s4.04 9 9 9 9-4.04 9-9-4.04-9-9-9Zm0 14c-2.97 0-4.73-2.3-4.8-2.4-.33-.44-.24-1.07.2-1.4.44-.33 1.07-.24 1.4.2.03.04 1.27 1.6 3.2 1.6 1.93 0 3.19-1.59 3.2-1.6a1.001 1.001 0 0 1 1.6 1.2c-.07.1-1.83 2.4-4.8 2.4Zm3-6.5c-.83 0-1.5-.67-1.5-1.5s.67-1.5 1.5-1.5 1.5.67 1.5 1.5-.67 1.5-1.5 1.5Zm-5-.5H8c-.55 0-1-.45-1-1s.45-1 1-1h2c.55 0 1 .45 1 1s-.45 1-1 1Z"/>
</svg>
