<svg xmlns="http://www.w3.org/2000/svg" width="24" height="24" viewBox="0 0 24 24">
  <path d="M12 23C5.93 23 1 18.07 1 12S5.93 1 12 1s11 4.93 11 11-4.93 11-11 11Zm0-20c-4.96 0-9 4.04-9 9s4.04 9 9 9 9-4.04 9-9-4.04-9-9-9Zm0 14c-2.97 0-4.73-2.3-4.8-2.4-.33-.44-.24-1.07.2-1.4.44-.33 1.07-.24 1.4.2.03.04 1.27 1.6 3.2 1.6 1.93 0 3.19-1.59 3.2-1.6a1.001 1.001 0 0 1 1.6 1.2c-.07.1-1.83 2.4-4.8 2.4Zm3.5-6c-.85 0-1.66-.4-2.26-1.11a1 1 0 1 1 1.53-1.29c.16.19.41.41.74.41.26 0 .52-.14.72-.39a1 1 0 0 1 1.41-.14 1 1 0 0 1 .14 1.41c-.58.72-1.41 1.13-2.28 1.13V11Zm-7 0c-.85 0-1.66-.4-2.26-1.11A1 1 0 1 1 7.77 8.6c.16.19.41.41.74.41.26 0 .52-.14.73-.39a1 1 0 0 1 1.41-.14 1 1 0 0 1 .14 1.41c-.58.72-1.41 1.13-2.27 1.13L8.5 11Z"/>
</svg>
