<svg xmlns="http://www.w3.org/2000/svg" width="24" height="24" viewBox="0 0 24 24">
  <path d="M12 22c5.523 0 10-4.477 10-10S17.523 2 12 2 2 6.477 2 12s4.477 10 10 10Z" opacity=".2"/>
  <path d="M10.775 9.872a1 1 0 0 0-1.55-1.263C8.995 8.89 8.727 9 8.5 9c-.217 0-.479-.1-.736-.406a1 1 0 0 0-1.528 1.292C6.8 10.55 7.587 11 8.5 11c.903 0 1.715-.44 2.275-1.128Zm7 0a1 1 0 1 0-1.55-1.263c-.23.282-.498.391-.725.391-.217 0-.479-.1-.736-.406a1 1 0 0 0-1.528 1.292C13.8 10.55 14.587 11 15.5 11c.903 0 1.715-.44 2.275-1.128ZM7.4 13.2a1 1 0 0 1 1.397.196l.005.006.033.041a4.952 4.952 0 0 0 .815.748c.578.42 1.376.809 2.35.809.975 0 1.772-.389 2.35-.809a4.947 4.947 0 0 0 .815-.748l.034-.041.004-.006A1 1 0 0 1 16.8 14.6L16 14c.8.6.8.601.799.601l-.001.002-.003.004-.007.009-.021.027-.07.086a6.951 6.951 0 0 1-1.171 1.08c-.798.58-2 1.191-3.526 1.191-1.525 0-2.728-.61-3.526-1.191a6.95 6.95 0 0 1-1.17-1.08 3.69 3.69 0 0 1-.07-.086l-.022-.027-.007-.01-.003-.003-.001-.002L7.2 14.6 8 14l-.8.6a1 1 0 0 1 .2-1.4Z"/>
  <path fill-rule="evenodd" d="M12 1C5.925 1 1 5.925 1 12s4.925 11 11 11 11-4.925 11-11S18.075 1 12 1ZM3 12a9 9 0 1 1 18 0 9 9 0 0 1-18 0Z" clip-rule="evenodd"/>
</svg>
