<svg xmlns="http://www.w3.org/2000/svg" width="24" height="24" viewBox="0 0 24 24">
  <path d="M12 22c5.523 0 10-4.477 10-10S17.523 2 12 2 2 6.477 2 12s4.477 10 10 10Z" opacity=".2"/>
  <path d="M8.99 7.5a1.5 1.5 0 1 0 .02 3 1.5 1.5 0 0 0-.02-3Zm6 0a1.5 1.5 0 1 0 .02 3 1.5 1.5 0 0 0-.02-3ZM7.4 13.2a1 1 0 0 1 1.397.196l.005.006a3.667 3.667 0 0 0 .194.219c.147.153.368.362.655.57.577.42 1.374.809 2.349.809.975 0 1.772-.39 2.35-.809a4.953 4.953 0 0 0 .815-.748l.034-.041.004-.006A1 1 0 0 1 16.8 14.6L16 14l.8.6-.001.001-.001.002-.003.004-.007.009-.021.027-.07.086a6.936 6.936 0 0 1-1.17 1.08C14.727 16.389 13.525 17 12 17c-1.525 0-2.728-.61-3.526-1.191a6.942 6.942 0 0 1-1.17-1.08 4.14 4.14 0 0 1-.07-.086l-.022-.027-.007-.01-.003-.003-.001-.002S7.2 14.6 8 14l-.8.6a1 1 0 0 1 .2-1.4Z"/>
  <path fill-rule="evenodd" d="M12 1C5.925 1 1 5.925 1 12s4.925 11 11 11 11-4.925 11-11S18.075 1 12 1ZM3 12a9 9 0 1 1 18 0 9 9 0 0 1-18 0Z" clip-rule="evenodd"/>
</svg>
