<svg xmlns="http://www.w3.org/2000/svg" width="24" height="24" viewBox="0 0 24 24">
  <path fill-rule="evenodd" d="M22 12c0 5.523-4.477 10-10 10S2 17.523 2 12 6.477 2 12 2s10 4.477 10 10Zm-5.5 2c0 1.667-2 3.5-4.5 3.5S7.5 15.667 7.5 14h9Z" clip-rule="evenodd" opacity=".2"/>
  <path fill-rule="evenodd" d="M12 3a9 9 0 1 0 0 18 9 9 0 0 0 0-18ZM1 12C1 5.925 5.925 1 12 1s11 4.925 11 11-4.925 11-11 11S1 18.075 1 12Zm6.5-3a1.5 1.5 0 1 1 3 0 1.5 1.5 0 0 1-3 0Zm6 0a1.5 1.5 0 1 1 3 0 1.5 1.5 0 0 1-3 0Zm-7 5a1 1 0 0 1 1-1h9a1 1 0 0 1 1 1c0 1.225-.716 2.358-1.678 3.148A6.055 6.055 0 0 1 12 18.5a6.056 6.056 0 0 1-3.822-1.352C7.216 16.358 6.5 15.225 6.5 14Zm2.375 1c.145.202.334.407.572.602A4.057 4.057 0 0 0 12 16.5c1.007 0 1.91-.37 2.553-.898.238-.195.427-.4.572-.602h-6.25Z" clip-rule="evenodd"/>
</svg>
