<svg xmlns="http://www.w3.org/2000/svg" width="24" height="24" viewBox="0 0 24 24">
  <path d="M12 22c5.523 0 10-4.477 10-10S17.523 2 12 2 2 6.477 2 12s4.477 10 10 10Z" opacity=".2"/>
  <path fill-rule="evenodd" d="M12 3a9 9 0 1 0 0 18 9 9 0 0 0 0-18ZM1 12C1 5.925 5.925 1 12 1s11 4.925 11 11-4.925 11-11 11S1 18.075 1 12Zm9.632-3.535a1 1 0 0 1 .143 1.406C10.215 10.56 9.403 11 8.5 11c-.913 0-1.701-.449-2.264-1.114a1 1 0 0 1 1.528-1.292C8.02 8.9 8.283 9 8.5 9c.227 0 .495-.11.725-.392a1 1 0 0 1 1.407-.143Zm7 0a1 1 0 0 1 .143 1.406C17.215 10.56 16.403 11 15.5 11c-.913 0-1.701-.449-2.264-1.114a1 1 0 0 1 1.528-1.292c.257.305.519.406.736.406.227 0 .495-.11.725-.392a1 1 0 0 1 1.406-.143ZM8.473 14.19c.798-.58 2-1.191 3.526-1.191 1.525 0 2.728.61 3.526 1.191a6.944 6.944 0 0 1 1.17 1.08c.03.035.053.064.07.086l.022.027.007.01.003.003.001.002S16.8 15.4 16 16l.8-.6a1 1 0 0 1-1.597 1.204l-.005-.006a3.709 3.709 0 0 0-.194-.219 4.953 4.953 0 0 0-.655-.57C13.772 15.389 12.975 15 12 15c-.975 0-1.772.39-2.35.809a4.952 4.952 0 0 0-.815.748l-.034.041-.004.006.001-.002H8.8m0 0-.002.002A1 1 0 0 1 7.2 15.4l.8.6-.8-.6.002-.003.003-.004.007-.009.021-.027.07-.086a6.942 6.942 0 0 1 1.171-1.08" clip-rule="evenodd"/>
</svg>
