<svg xmlns="http://www.w3.org/2000/svg" width="24" height="24" viewBox="0 0 24 24">
  <path fill-rule="evenodd" d="M12 3a9 9 0 1 0 0 18 9 9 0 0 0 0-18ZM1 12C1 5.925 5.925 1 12 1s11 4.925 11 11-4.925 11-11 11S1 18.075 1 12Z" clip-rule="evenodd" opacity=".5"/>
  <path d="M16 17c-.3 0-.6-.14-.8-.4-.03-.04-1.27-1.6-3.2-1.6-1.93 0-3.19 1.59-3.2 1.6a1.001 1.001 0 0 1-1.6-1.2c.07-.1 1.83-2.4 4.8-2.4 2.97 0 4.73 2.3 4.8 2.4A1.003 1.003 0 0 1 16 17Zm-.5-6c-.85 0-1.66-.4-2.26-1.11a1 1 0 1 1 1.53-1.29c.16.19.41.41.74.41.26 0 .52-.14.72-.39.35-.43.98-.49 1.41-.15.43.35.49.98.15 1.41-.58.72-1.41 1.13-2.28 1.13L15.5 11Zm-7 0c-.85 0-1.66-.4-2.26-1.11A1 1 0 1 1 7.77 8.6c.16.19.41.41.74.41.26 0 .52-.14.72-.39.35-.43.98-.49 1.41-.15.43.34.49.98.15 1.41-.58.72-1.41 1.13-2.28 1.13L8.5 11Z"/>
</svg>
