<svg xmlns="http://www.w3.org/2000/svg" width="24" height="24" viewBox="0 0 24 24">
  <path fill-rule="evenodd" d="M2 6a4 4 0 0 1 4-4h12a4 4 0 0 1 4 4v3.632c0 .063-.006.124-.017.184A1 1 0 0 1 21 11h-9v10a1 1 0 0 1-1 1H6a4 4 0 0 1-4-4V6Zm2 5v7a2 2 0 0 0 2 2h4v-9H4Zm6-2H4V6a2 2 0 0 1 2-2h4v5Zm2 0h8V6a2 2 0 0 0-2-2h-6v5Zm4.85 4.2a3.411 3.411 0 0 1 2.3 0l2.187.781a1 1 0 0 1 .663.942v2.502c0 1.54-1.056 2.69-1.86 3.36a9.122 9.122 0 0 1-1.659 1.093l-.034.017-.01.005-.004.002h-.002L18 21l-.43.902h-.003l-.004-.002-.01-.005-.034-.017a8.638 8.638 0 0 1-.5-.276 9.122 9.122 0 0 1-1.16-.817c-.803-.67-1.859-1.82-1.859-3.36v-2.502a1 1 0 0 1 .663-.942l2.187-.781ZM18 21l-.43.902c.271.13.588.13.86 0L18 21Zm0-1.142a7.09 7.09 0 0 0 .86-.609c.697-.581 1.14-1.218 1.14-1.824v-1.798l-1.524-.544a1.413 1.413 0 0 0-.952 0L16 15.627v1.798c0 .606.444 1.243 1.14 1.824.306.255.616.461.86.61Z" clip-rule="evenodd"/>
</svg>
