<svg xmlns="http://www.w3.org/2000/svg" width="24" height="24" viewBox="0 0 24 24">
  <path fill-rule="evenodd" d="M2 2a1 1 0 0 1 1-1h4a5.994 5.994 0 0 1 5 2.682A5.994 5.994 0 0 1 17 1h4a1 1 0 0 1 1 1v2a6 6 0 0 1-6 6h-3v4a1 1 0 1 1-2 0v-4H8a6 6 0 0 1-6-6V2Zm11 6h3a4 4 0 0 0 4-4V3h-3a4 4 0 0 0-4 4v1Zm-2-1a4 4 0 0 0-4-4H4v1a4 4 0 0 0 4 4h3V7Zm-3.642 6a2 2 0 0 0-1.831 1.194L4.733 16h14.534l-.794-1.806A2 2 0 0 0 16.643 13H16.4a1 1 0 1 1 0-2h.242a4 4 0 0 1 3.662 2.389l2.377 5.403C23.553 20.774 22.1 23 19.935 23H4.065c-2.166 0-3.618-2.226-2.746-4.208l2.377-5.403A4 4 0 0 1 7.358 11H7.6a1 1 0 1 1 0 2h-.242ZM13 21h6.935a1 1 0 0 0 .915-1.403l-.707-1.607A.963.963 0 0 1 20 18h-7v3Zm-2-3v3H4.065a1 1 0 0 1-.915-1.403l.707-1.607c.047.007.094.01.143.01h7Z" clip-rule="evenodd"/>
</svg>
