<svg xmlns="http://www.w3.org/2000/svg" width="24" height="24" viewBox="0 0 24 24">
  <path d="M22 16.437c0 1.13 0 1.695-.228 1.972a1 1 0 0 1-.81.363c-.358-.013-.78-.388-1.625-1.14l-4.992-4.436c-.465-.414-.698-.62-.783-.865a1 1 0 0 1 0-.662c.085-.245.318-.451.783-.865l4.992-4.437c.845-.75 1.267-1.126 1.625-1.14a1 1 0 0 1 .81.364c.228.277.228.842.228 1.972v8.874Zm-11 0c0 1.13 0 1.695-.228 1.972a1 1 0 0 1-.81.363c-.358-.013-.78-.388-1.625-1.14l-4.992-4.436c-.465-.414-.698-.62-.783-.865a1 1 0 0 1 0-.662c.085-.245.318-.451.783-.865l4.992-4.437c.845-.75 1.267-1.126 1.626-1.14a1 1 0 0 1 .809.364c.228.277.228.842.228 1.972v8.874Z" opacity=".2"/>
  <path fill-rule="evenodd" d="M9.925 4.228a2 2 0 0 1 1.618.727c.32.387.393.864.424 1.212.033.363.033.824.033 1.35v8.965c0 .527 0 .988-.033 1.35-.03.349-.104.826-.424 1.213a2 2 0 0 1-1.618.727c-.501-.019-.907-.281-1.188-.489-.292-.216-.637-.523-1.03-.873l-5.052-4.49a9.757 9.757 0 0 1-.57-.532 2.033 2.033 0 0 1-.467-.725 2 2 0 0 1 0-1.326c.11-.313.297-.546.468-.725.157-.166.359-.345.57-.533l.025-.022L7.706 5.59c.394-.35.739-.657 1.031-.873.281-.208.687-.47 1.188-.489Zm11 0a2 2 0 0 1 1.619.727c.319.387.392.864.423 1.212.033.363.033.824.033 1.35v8.965c0 .527 0 .988-.033 1.35-.03.349-.104.826-.423 1.213a2 2 0 0 1-1.619.727c-.501-.019-.907-.281-1.188-.489-.292-.216-.637-.523-1.03-.873l-5.052-4.49c-.21-.187-.412-.366-.57-.532a2.033 2.033 0 0 1-.467-.725 2 2 0 0 1 0-1.326c.11-.313.297-.546.468-.725.156-.166.359-.345.57-.533l5.05-4.49c.394-.349.739-.656 1.031-.872.281-.208.687-.47 1.188-.489ZM9.927 6.325c-.211.156-.488.4-.926.79L4.01 11.552c-.246.218-.383.34-.473.436L3.526 12l.01.012c.091.096.228.218.474.436L9 16.886c.438.388.715.633.926.79l.043.03a2.45 2.45 0 0 0 .005-.053c.024-.261.025-.631.025-1.216V7.563c0-.585-.001-.955-.025-1.216a2.433 2.433 0 0 0-.005-.054l-.043.032Zm11 0c-.211.156-.488.4-.926.79l-4.991 4.437a8.698 8.698 0 0 0-.484.448 8.698 8.698 0 0 0 .484.448L20 16.886c.438.388.715.633.926.79l.043.03.006-.053c.023-.261.024-.631.024-1.216V7.563c0-.585-.001-.955-.024-1.216a3.136 3.136 0 0 0-.006-.054 2.46 2.46 0 0 0-.043.032Z" clip-rule="evenodd"/>
</svg>
