<svg xmlns="http://www.w3.org/2000/svg" width="24" height="24" viewBox="0 0 24 24">
  <path fill-rule="evenodd" d="M9.925 4.228a2 2 0 0 1 1.618.727c.32.387.393.864.424 1.212.033.363.033.824.033 1.35v8.965c0 .527 0 .988-.033 1.35-.031.349-.105.826-.424 1.213a2 2 0 0 1-1.618.727c-.502-.019-.907-.281-1.188-.489-.293-.216-.638-.523-1.031-.873l-5.051-4.49a9.725 9.725 0 0 1-.57-.532 2.031 2.031 0 0 1-.467-.726 2 2 0 0 1 0-1.325c.11-.313.297-.546.467-.725a9.725 9.725 0 0 1 .596-.555L7.706 5.59c.393-.35.738-.657 1.031-.873.281-.208.686-.47 1.188-.489Zm11 0a2 2 0 0 1 1.618.727c.32.387.393.864.424 1.212.033.363.033.824.033 1.35v8.965c0 .527 0 .988-.033 1.35-.031.349-.105.826-.424 1.213a2 2 0 0 1-1.618.727c-.502-.019-.907-.281-1.188-.489-.293-.216-.638-.523-1.031-.873l-5.051-4.49a9.68 9.68 0 0 1-.57-.532 2.031 2.031 0 0 1-.467-.726 2 2 0 0 1 0-1.325c.11-.313.297-.546.467-.725.157-.166.36-.345.57-.533l5.051-4.49c.393-.349.739-.656 1.031-.872.281-.208.687-.47 1.188-.489ZM9.926 6.325c-.21.156-.488.4-.925.79L4.01 11.551c-.245.218-.382.34-.473.436l-.01.012.01.012c.091.095.228.218.473.436l4.992 4.438c.437.388.714.633.925.79l.044.03a2.39 2.39 0 0 0 .005-.053c.024-.261.025-.631.025-1.216V7.563c0-.585-.001-.955-.025-1.216a2.436 2.436 0 0 0-.005-.054l-.044.032Zm11 0c-.21.156-.488.4-.925.79l-4.992 4.437a8.783 8.783 0 0 0-.484.448 8.783 8.783 0 0 0 .484.448l4.992 4.438c.437.388.714.633.925.79l.044.03.005-.053c.024-.261.025-.631.025-1.216V7.563c0-.585-.001-.955-.025-1.216a3.136 3.136 0 0 0-.005-.054 2.46 2.46 0 0 0-.044.032Z" clip-rule="evenodd"/>
</svg>
