<svg xmlns="http://www.w3.org/2000/svg" width="24" height="24" viewBox="0 0 24 24">
  <path fill-rule="evenodd" d="M8 15a1 1 0 0 1 1-1h9a1 1 0 1 1 0 2H9a1 1 0 0 1-1-1Z" clip-rule="evenodd" opacity=".5"/>
  <path fill-rule="evenodd" d="M18.363 4.785a5 5 0 0 0-6.726 0 14.04 14.04 0 0 0-.43.422L6.176 10.24a6.16 6.16 0 0 0-.171.174l-.002.002v.004a6.186 6.186 0 0 0-.003.244v5.923l9.293-9.293a1 1 0 1 1 1.414 1.414L7.414 18h5.923c.131 0 .197 0 .244-.002h.004l.002-.003a6.14 6.14 0 0 0 .175-.17l5.03-5.032c.248-.247.346-.346.423-.43a5 5 0 0 0 0-6.726 14.505 14.505 0 0 0-.422-.43 14.327 14.327 0 0 0-.43-.422ZM5.488 19.926c.132.032.258.048.374.057.208.017.454.017.706.017h6.82c.19 0 .43.001.665-.055a2 2 0 0 0 .578-.24c.206-.126.375-.296.509-.43l.036-.037 5.054-5.053c.217-.218.352-.353.465-.477a7 7 0 0 0 0-9.416 14.919 14.919 0 0 0-.465-.477l-.046-.045a14.882 14.882 0 0 0-.476-.465 7 7 0 0 0-9.416 0c-.124.113-.26.248-.477.465L4.762 8.824l-.037.036c-.134.134-.304.303-.43.51a2 2 0 0 0-.24.577 2.794 2.794 0 0 0-.055.665v6.82c0 .252 0 .498.017.706.01.116.025.242.057.374l-2.781 2.78a1 1 0 1 0 1.414 1.415l2.781-2.78Z" clip-rule="evenodd"/>
</svg>
