<svg xmlns="http://www.w3.org/2000/svg" width="24" height="24" viewBox="0 0 24 24">
  <path d="M9 15h9l-3.531 3.531c-.173.173-.26.26-.36.322a.998.998 0 0 1-.29.12c-.115.027-.237.027-.482.027H5l4-4Z" opacity=".2"/>
  <path fill-rule="evenodd" d="M18.363 4.785a5 5 0 0 0-6.726 0 14.04 14.04 0 0 0-.43.422L6.176 10.24a6.16 6.16 0 0 0-.173.176v.004a6.18 6.18 0 0 0-.003.244v5.923l9.293-9.293a1 1 0 1 1 1.414 1.414L11.414 14h6.172l1.207-1.207c.247-.247.346-.346.422-.43a5 5 0 0 0 0-6.726 14.505 14.505 0 0 0-.422-.43 14.327 14.327 0 0 0-.43-.422Zm.344 10.922 1.523-1.522c.217-.218.352-.353.465-.477a7 7 0 0 0 0-9.416 14.919 14.919 0 0 0-.465-.477l-.046-.045a14.873 14.873 0 0 0-.476-.465 7 7 0 0 0-9.416 0c-.124.113-.26.248-.477.465L4.762 8.824l-.037.036c-.134.134-.304.303-.43.51a2 2 0 0 0-.24.577 2.795 2.795 0 0 0-.055.665v6.82c0 .252 0 .498.017.706.01.116.025.242.057.374l-2.781 2.78a1 1 0 1 0 1.414 1.415l2.781-2.78c.132.03.258.047.374.056.208.017.454.017.706.017h6.82c.19 0 .43.001.665-.055.204-.05.399-.13.578-.24.206-.126.375-.296.509-.43l.036-.037 3.531-3.531ZM15.586 16H9.414l-2 2h5.923c.131 0 .197 0 .244-.002h.004l.002-.003a6.14 6.14 0 0 0 .175-.17L15.585 16Z" clip-rule="evenodd"/>
</svg>
