<svg xmlns="http://www.w3.org/2000/svg" width="24" height="24" viewBox="0 0 24 24">
  <path d="M13.885 10.092h6.969c.667 0 1.186-.62 1.111-1.328l-.403-3.77c-.182-1.707-1.534-2.993-3.145-2.993h-4.533c-.617 0-1.118.535-1.118 1.193V8.9c.002.658.502 1.192 1.12 1.192Zm-2.651-1.194V3.193c0-.659-.501-1.193-1.118-1.193H5.583c-1.61 0-2.961 1.287-3.145 2.993l-.403 3.77c-.075.708.443 1.328 1.111 1.328h6.97c.617.002 1.118-.533 1.118-1.193Zm-1.12 2.831H2.715a1.08 1.08 0 0 0-.744.303 1.222 1.222 0 0 0-.367.755L1.02 18.24c-.05.473-.006.952.129 1.405.135.453.358.871.655 1.226a3.08 3.08 0 0 0 2.36 1.128h5.95c.617 0 1.118-.534 1.118-1.193v-7.885c.002-.658-.5-1.193-1.117-1.193Zm11.17 0h-7.399c-.617 0-1.117.535-1.117 1.193v7.885c0 .659.5 1.193 1.117 1.193h5.95a3 3 0 0 0 1.294-.296c.406-.194.77-.478 1.067-.833.297-.355.52-.773.655-1.226.135-.454.18-.932.129-1.405l-.584-5.455c-.064-.6-.542-1.056-1.111-1.056Z"/>
</svg>
