<svg xmlns="http://www.w3.org/2000/svg" width="24" height="24" viewBox="0 0 24 24">
  <path fill-rule="evenodd" d="M8.759 1H14a1 1 0 0 1 .707.293l6 6A1 1 0 0 1 21 8v9.241c0 .805 0 1.47-.044 2.01-.046.563-.145 1.08-.392 1.565a4 4 0 0 1-1.748 1.748c-.485.247-1.002.346-1.564.392-.541.044-1.206.044-2.01.044H8.758c-.805 0-1.47 0-2.01-.044-.563-.046-1.08-.145-1.565-.392a4 4 0 0 1-1.748-1.748c-.247-.485-.346-1.002-.392-1.564C3 18.71 3 18.046 3 17.242V6.758c0-.805 0-1.47.044-2.01.046-.563.145-1.08.392-1.565a4 4 0 0 1 1.748-1.748c.485-.247 1.002-.346 1.564-.392C7.29 1 7.954 1 8.758 1ZM6.91 3.038c-.438.035-.663.1-.819.18a2 2 0 0 0-.874.874c-.08.156-.145.38-.18.819C5 5.361 5 5.943 5 6.8v10.4c0 .857 0 1.439.038 1.889.035.438.1.663.18.819a2 2 0 0 0 .874.874c.156.08.38.145.819.18C7.361 21 7.943 21 8.8 21h6.4c.857 0 1.439 0 1.889-.038.438-.035.663-.1.819-.18a2 2 0 0 0 .874-.874c.08-.156.145-.38.18-.819.037-.45.038-1.032.038-1.889V9h-3.432c-.252 0-.498 0-.706-.017a2.022 2.022 0 0 1-.77-.2 2 2 0 0 1-.874-.875 2.022 2.022 0 0 1-.201-.77C13 6.93 13 6.684 13 6.432V3H8.8c-.857 0-1.439 0-1.889.038ZM15 4.414 17.586 7H15.6a8.194 8.194 0 0 1-.589-.011v-.014A8.205 8.205 0 0 1 15 6.4V4.414Zm-3.003 6.113c1.104-.704 2.57-.76 3.764.205a3.256 3.256 0 0 1 .509 4.61c-.454.569-1.393 1.445-2.153 2.13a76.11 76.11 0 0 1-1.351 1.186l-.089.077-.032.027-.648-.762-.647.762-.032-.027-.09-.077a76.236 76.236 0 0 1-1.35-1.187c-.76-.684-1.7-1.56-2.153-2.129-1.135-1.419-.915-3.428.498-4.602 1.187-.986 2.667-.918 3.774-.213Zm0 7.473-.647.762a1 1 0 0 0 1.295 0L11.997 18Zm0-1.322c.228-.2.498-.438.782-.693.79-.71 1.596-1.475 1.929-1.891.448-.562.38-1.334-.204-1.807-.546-.441-1.26-.359-1.756.204a1 1 0 0 1-1.502 0c-.502-.57-1.226-.643-1.745-.212-.592.491-.654 1.265-.214 1.815.332.416 1.14 1.18 1.929 1.891.283.255.553.494.781.693Z" clip-rule="evenodd"/>
</svg>
