<svg xmlns="http://www.w3.org/2000/svg" width="24" height="24" viewBox="0 0 24 24">
  <path fill-rule="evenodd" d="M8.759 1h6.482c.805 0 1.47 0 2.01.044.563.046 1.08.145 1.565.392a4 4 0 0 1 1.748 1.748c.247.485.346 1.002.392 1.564C21 5.29 21 5.954 21 6.758V10a1 1 0 1 1-2 0V6.8c0-.857 0-1.439-.038-1.889-.035-.438-.1-.663-.18-.819a2 2 0 0 0-.874-.874c-.156-.08-.38-.145-.819-.18C16.639 3 16.057 3 15.2 3H8.8c-.857 0-1.439 0-1.889.038-.438.035-.663.1-.819.18a2 2 0 0 0-.874.874c-.08.156-.145.38-.18.819C5 5.361 5 5.943 5 6.8v10.4c0 .857 0 1.439.038 1.889.035.438.1.663.18.819a2 2 0 0 0 .874.874c.156.08.38.145.819.18C7.361 21 7.943 21 8.8 21h3.7a1 1 0 1 1 0 2H8.759c-.805 0-1.47 0-2.01-.044-.563-.046-1.08-.145-1.565-.392a4 4 0 0 1-1.748-1.748c-.247-.485-.346-1.002-.392-1.564C3 18.71 3 18.046 3 17.242V6.758c0-.805 0-1.47.044-2.01.046-.563.145-1.08.392-1.565a4 4 0 0 1 1.748-1.748c.485-.247 1.002-.346 1.564-.392C7.29 1 7.954 1 8.758 1ZM7 7a1 1 0 0 1 1-1h8a1 1 0 1 1 0 2H8a1 1 0 0 1-1-1Zm0 4a1 1 0 0 1 1-1h6a1 1 0 1 1 0 2H8a1 1 0 0 1-1-1Zm12.15 2.2 2.187.781a1 1 0 0 1 .663.942v2.502c0 1.54-1.056 2.69-1.86 3.36a9.122 9.122 0 0 1-1.659 1.093l-.034.017-.01.005-.004.002h-.002L18 21l-.43.902h-.003l-.004-.002-.01-.005-.034-.017a8.638 8.638 0 0 1-.5-.276 9.122 9.122 0 0 1-1.16-.817c-.803-.67-1.859-1.82-1.859-3.36v-2.502a1 1 0 0 1 .663-.942l2.186-.781a3.413 3.413 0 0 1 2.3 0ZM18 21l-.43.902c.271.13.588.13.86 0L18 21Zm0-1.142a7.09 7.09 0 0 0 .86-.609c.697-.581 1.14-1.218 1.14-1.824v-1.798l-1.524-.544a1.413 1.413 0 0 0-.952 0L16 15.627v1.798c0 .606.444 1.243 1.14 1.824.306.255.616.461.86.61ZM7 15a1 1 0 0 1 1-1h2a1 1 0 1 1 0 2H8a1 1 0 0 1-1-1Z" clip-rule="evenodd"/>
</svg>
