<svg xmlns="http://www.w3.org/2000/svg" width="24" height="24" viewBox="0 0 24 24">
  <path d="M14 18.6c0-.56 0-.84.109-1.054a1 1 0 0 1 .437-.437C14.76 17 15.04 17 15.6 17h3.8c.56 0 .84 0 1.054.109a1 1 0 0 1 .437.437C21 17.76 21 18.04 21 18.6v.8c0 .56 0 .84-.109 1.054a1 1 0 0 1-.437.437C20.24 21 19.96 21 19.4 21h-3.8c-.56 0-.84 0-1.054-.109a1 1 0 0 1-.437-.437C14 20.24 14 19.96 14 19.4v-.8Z" opacity=".2"/>
  <path fill-rule="evenodd" d="M8.759 1h6.482c.805 0 1.47 0 2.01.044.563.046 1.08.145 1.565.392a4 4 0 0 1 1.748 1.748c.247.485.346 1.002.392 1.564C21 5.29 21 5.954 21 6.758V10a1 1 0 1 1-2 0V6.8c0-.857 0-1.439-.038-1.889-.035-.438-.1-.663-.18-.819a2 2 0 0 0-.874-.874c-.156-.08-.38-.145-.819-.18C16.639 3 16.057 3 15.2 3H8.8c-.857 0-1.439 0-1.889.038-.438.035-.663.1-.819.18a2 2 0 0 0-.874.874c-.08.156-.145.38-.18.819C5 5.361 5 5.943 5 6.8v10.4c0 .857 0 1.439.038 1.889.035.438.1.663.18.819a2 2 0 0 0 .874.874c.156.08.38.145.819.18C7.361 21 7.943 21 8.8 21h1.7a1 1 0 1 1 0 2H8.759c-.805 0-1.47 0-2.01-.044-.563-.046-1.08-.145-1.565-.392a4 4 0 0 1-1.748-1.748c-.247-.485-.346-1.002-.392-1.564C3 18.71 3 18.046 3 17.242V6.758c0-.805 0-1.47.044-2.01.046-.563.145-1.08.392-1.565a4 4 0 0 1 1.748-1.748c.485-.247 1.002-.346 1.564-.392C7.29 1 7.954 1 8.758 1Zm5.991 14.25a2.75 2.75 0 1 1 5.5 0v.778c.203.024.43.074.658.19a2 2 0 0 1 .874.874c.138.271.182.541.201.77.017.208.017.454.017.706v.864c0 .252 0 .498-.017.706a2.022 2.022 0 0 1-.201.77 2 2 0 0 1-.874.874 2.022 2.022 0 0 1-.77.201c-.208.017-.454.017-.706.017h-3.864c-.252 0-.498 0-.706-.017a2.022 2.022 0 0 1-.77-.201 2 2 0 0 1-.874-.874 2.022 2.022 0 0 1-.201-.77C13 19.93 13 19.684 13 19.432v-.864c0-.252 0-.498.017-.706a2.03 2.03 0 0 1 .201-.77 2 2 0 0 1 .874-.874 1.93 1.93 0 0 1 .658-.19v-.778ZM15.6 18c-.296 0-.459 0-.575.01l-.014.001v.014c-.01.116-.011.279-.011.575v.8c0 .297 0 .459.01.575l.001.013.014.002c.116.01.278.01.575.01h3.8a8.207 8.207 0 0 0 .589-.012v-.013c.01-.116.011-.279.011-.575v-.8a8.207 8.207 0 0 0-.012-.589h-.013A8.207 8.207 0 0 0 19.4 18h-3.8Zm2.65-2h-1.5v-.75a.75.75 0 0 1 1.5 0V16Z" clip-rule="evenodd"/>
</svg>
