<svg xmlns="http://www.w3.org/2000/svg" width="24" height="24" viewBox="0 0 24 24">
  <path d="M12 18a3.5 3.5 0 1 0 0-7 3.5 3.5 0 0 0 0 7Z" opacity=".2"/>
  <path fill-rule="evenodd" d="M8.759 1H14a1 1 0 0 1 .707.293l6 6A1 1 0 0 1 21 8v9.241c0 .805 0 1.47-.044 2.01-.046.563-.145 1.08-.392 1.565a4 4 0 0 1-1.748 1.748c-.485.247-1.002.346-1.564.392-.541.044-1.206.044-2.01.044H8.758c-.805 0-1.47 0-2.01-.044-.563-.046-1.08-.145-1.565-.392a4 4 0 0 1-1.748-1.748c-.247-.485-.346-1.002-.392-1.564C3 18.71 3 18.046 3 17.242V6.758c0-.805 0-1.47.044-2.01.046-.563.145-1.08.392-1.565a4 4 0 0 1 1.748-1.748c.485-.247 1.002-.346 1.564-.392C7.29 1 7.954 1 8.758 1ZM6.91 3.038c-.438.035-.663.1-.819.18a2 2 0 0 0-.874.874c-.08.156-.145.38-.18.819C5 5.361 5 5.943 5 6.8v10.4c0 .857 0 1.439.038 1.889.035.438.1.663.18.819a2 2 0 0 0 .874.874c.156.08.38.145.819.18C7.361 21 7.943 21 8.8 21h6.4c.857 0 1.439 0 1.889-.038.438-.035.663-.1.819-.18a2 2 0 0 0 .874-.874c.08-.156.145-.38.18-.819.037-.45.038-1.032.038-1.889V9h-3.432c-.252 0-.498 0-.706-.017a2.022 2.022 0 0 1-.77-.2 2 2 0 0 1-.874-.875 2.022 2.022 0 0 1-.201-.77C13 6.93 13 6.684 13 6.432V3H8.8c-.857 0-1.439 0-1.889.038ZM15 4.414 17.586 7H15.6a8.194 8.194 0 0 1-.589-.011v-.014A8.205 8.205 0 0 1 15 6.4V4.414ZM12 12a2.5 2.5 0 1 0 0 5 2.5 2.5 0 0 0 0-5Zm-4.5 2.5a4.5 4.5 0 1 1 8.31 2.396l.897.897a1 1 0 0 1-1.414 1.414l-.897-.897A4.5 4.5 0 0 1 7.5 14.5Z" clip-rule="evenodd"/>
</svg>
