<svg xmlns="http://www.w3.org/2000/svg" width="24" height="24" viewBox="0 0 24 24">
  <path fill-rule="evenodd" d="M13 3.02a12.7 12.7 0 0 0-.988-.02H8.8c-.857 0-1.439 0-1.889.038-.438.035-.663.1-.819.18a2 2 0 0 0-.874.874c-.08.156-.145.38-.18.819C5 5.361 5 5.943 5 6.8v5.188a1 1 0 1 1-2 0v-5.23c0-.804 0-1.469.044-2.01.046-.562.145-1.079.392-1.564a4 4 0 0 1 1.748-1.748c.485-.247 1.002-.346 1.564-.392C7.29 1 7.954 1 8.758 1h3.356c.635 0 1.114 0 1.577.11a3.999 3.999 0 0 1 1.156.48c.406.248.745.588 1.194 1.037l.072.072 3.188 3.188.072.072c.45.449.789.788 1.038 1.194a3.997 3.997 0 0 1 .479 1.156c.048.203.064.528.074.773.012.295.02.657.026 1.023.01.734.01 1.515.01 1.882v.001a1 1 0 1 1-2 0c0-.367 0-1.136-.01-1.854A37.835 37.835 0 0 0 18.958 9h-3.39c-.252 0-.498 0-.706-.017a2.022 2.022 0 0 1-.77-.2 2 2 0 0 1-.874-.875 2.022 2.022 0 0 1-.201-.77C13 6.93 13 6.684 13 6.432V3.02Zm2 1.394V6.4c0 .297 0 .459.01.575l.001.014h.014c.116.01.278.011.575.011h1.986L15 4.414Zm1.684 10.637a1 1 0 0 1 1.265.633l.977 2.932.074.148.074-.148.977-2.932a1 1 0 0 1 1.898.632l-1 3a.998.998 0 0 1-.055.131l-1 2a1 1 0 0 1-1.788 0l-1-2a.998.998 0 0 1-.055-.13l-1-3a1 1 0 0 1 .633-1.266ZM2 18a3 3 0 0 1 3-3h2a1 1 0 1 1 0 2H5a1 1 0 0 0-1 1v1a1 1 0 0 0 1 1h2a1 1 0 1 1 0 2H5a3 3 0 0 1-3-3v-1Zm7-.75A2.25 2.25 0 0 1 11.25 15H14a1 1 0 1 1 0 2h-2.75a.25.25 0 1 0 0 .5h1.5a2.25 2.25 0 0 1 0 4.5H10a1 1 0 1 1 0-2h2.75a.25.25 0 1 0 0-.5h-1.5A2.25 2.25 0 0 1 9 17.25Z" clip-rule="evenodd"/>
</svg>
