<svg xmlns="http://www.w3.org/2000/svg" width="24" height="24" viewBox="0 0 24 24">
  <path d="M14 23H8.8c-1.84 0-2.76 0-3.62-.44a4 4 0 0 1-1.75-1.75c-.44-.85-.44-1.78-.44-3.61V6.8c0-1.84 0-2.76.44-3.62a4 4 0 0 1 1.75-1.75C6.04.99 6.96.99 8.8.99h6.4c1.84 0 2.76 0 3.62.44a4 4 0 0 1 1.75 1.75c.44.86.44 1.78.44 3.62v2.7c0 .55-.45 1-1 1s-1-.45-1-1V6.8c0-1.47 0-2.28-.22-2.71-.19-.38-.5-.68-.87-.87C17.49 3 16.68 3 15.21 3H8.8c-1.47 0-2.28 0-2.71.22-.38.19-.68.5-.87.87C5 4.52 5 5.33 5 6.8v10.4c0 1.47 0 2.28.22 2.71.19.38.5.68.87.88.43.22 1.24.22 2.71.22H14c.55 0 1 .45 1 1s-.45 1-1 1V23Zm4.66-1c-.55 0-1-.45-1-1s.44-1 1-1c.55 0 1 .45 1 1s-.45 1-1 1Zm-.04-3c-.42 0-.81-.26-.95-.68a1 1 0 0 1 .63-1.26c.54-.19 1.56-.76 1.56-1.3 0-.3-.1-.58-.29-.81-.19-.22-.45-.38-.74-.43-.29-.05-.59 0-.84.15s-.45.38-.54.66a1.003 1.003 0 0 1-1.89-.67 3.25 3.25 0 0 1 3.62-2.12c.76.13 1.44.52 1.94 1.11.5.59.76 1.33.76 2.1 0 2.15-2.63 3.09-2.93 3.19a.86.86 0 0 1-.32.05l-.01.01ZM10 16H8c-.55 0-1-.45-1-1s.45-1 1-1h2c.55 0 1 .45 1 1s-.45 1-1 1Zm4-4H8c-.55 0-1-.45-1-1s.45-1 1-1h6c.55 0 1 .45 1 1s-.45 1-1 1Zm2-4H8c-.55 0-1-.45-1-1s.45-1 1-1h8c.55 0 1 .45 1 1s-.45 1-1 1Z"/>
</svg>
