<svg xmlns="http://www.w3.org/2000/svg" width="24" height="24" viewBox="0 0 24 24">
  <path fill-rule="evenodd" d="M14.224 3.055c-.203-.049-.43-.055-1.212-.055H8.5c-.496 0-.647.002-.761.017A2 2 0 0 0 6.017 4.74C6.002 4.853 6 5.004 6 5.5a1 1 0 1 1-2 0v-.069c0-.397 0-.692.034-.953a4 4 0 0 1 3.444-3.444C7.739 1 8.034 1 8.43 1h4.683c.635 0 1.114 0 1.577.11a4 4 0 0 1 1.156.48c.406.248.745.588 1.194 1.037l.072.072L20.3 5.887l.072.072c.45.449.789.788 1.038 1.194a4 4 0 0 1 .479 1.156c.11.463.11.942.11 1.577v7.355c0 .805 0 1.47-.044 2.01-.046.563-.145 1.08-.392 1.565a4 4 0 0 1-1.748 1.748c-.485.247-1.002.346-1.564.392-.541.044-1.206.044-2.01.044H8.43c-.397 0-.692 0-.953-.034a4 4 0 0 1-3.444-3.444C4 19.261 4 18.966 4 18.57v-.07a1 1 0 1 1 2 0c0 .496.002.648.017.761a2 2 0 0 0 1.722 1.722c.114.015.265.017.761.017h7.7c.857 0 1.439 0 1.889-.038.438-.035.663-.1.819-.18a2 2 0 0 0 .874-.874c.08-.156.145-.38.18-.819.037-.45.038-1.032.038-1.889V9.988c0-.781-.006-1.009-.055-1.212a2.01 2.01 0 0 0-.24-.578c-.109-.179-.265-.344-.818-.897l-3.188-3.188c-.553-.553-.718-.709-.897-.818a2.001 2.001 0 0 0-.578-.24ZM5.707 8.793a1 1 0 0 1 0 1.414L3.914 12l1.793 1.793a1 1 0 1 1-1.414 1.414l-2.5-2.5a1 1 0 0 1 0-1.414l2.5-2.5a1 1 0 0 1 1.414 0Zm2.586 0a1 1 0 0 1 1.414 0l2.5 2.5a1 1 0 0 1 0 1.414l-2.5 2.5a1 1 0 0 1-1.414-1.414L10.086 12l-1.793-1.793a1 1 0 0 1 0-1.414Z" clip-rule="evenodd"/>
</svg>
