<svg xmlns="http://www.w3.org/2000/svg" width="24" height="24" viewBox="0 0 24 24">
  <path fill-rule="evenodd" d="M13 3.02a12.7 12.7 0 0 0-.988-.02H8.8c-.857 0-1.439 0-1.889.038-.438.035-.663.1-.819.18a2 2 0 0 0-.874.874c-.08.156-.145.38-.18.819C5 5.361 5 5.943 5 6.8v5.188a1 1 0 1 1-2 0v-5.23c0-.804 0-1.469.044-2.01.046-.562.145-1.079.392-1.564a4 4 0 0 1 1.748-1.748c.485-.247 1.002-.346 1.564-.392C7.29 1 7.954 1 8.758 1h3.356c.635 0 1.114 0 1.577.11a4.002 4.002 0 0 1 1.156.48c.406.248.745.588 1.194 1.037l.072.072 3.188 3.188.072.072c.45.449.789.788 1.037 1.194a3.978 3.978 0 0 1 .48 1.156c.048.203.064.528.074.773.012.295.02.657.026 1.023.01.734.01 1.515.01 1.882v.001a1 1 0 1 1-2 0c0-.367 0-1.136-.01-1.854A37.835 37.835 0 0 0 18.958 9h-3.39c-.252 0-.498 0-.706-.017a2.022 2.022 0 0 1-.77-.2 2 2 0 0 1-.874-.875 2.022 2.022 0 0 1-.201-.77A9.15 9.15 0 0 1 13 6.432V3.02Zm2 1.394V6.4c0 .297 0 .459.01.575l.001.014h.014c.116.01.278.011.575.011h1.986L15 4.414ZM2.375 15.22a1 1 0 0 1 1.406.156L5 16.9l1.22-1.524a1 1 0 1 1 1.56 1.25L6.28 18.5l1.5 1.875a1 1 0 0 1-1.56 1.25L5 20.1l-1.22 1.524a1 1 0 1 1-1.56-1.25l1.5-1.875-1.5-1.875a1 1 0 0 1 .155-1.406ZM10 15a1 1 0 0 1 1 1v4h3a1 1 0 1 1 0 2h-4a1 1 0 0 1-1-1v-5a1 1 0 0 1 1-1Zm6 2.25A2.25 2.25 0 0 1 18.25 15H21a1 1 0 1 1 0 2h-2.75a.25.25 0 1 0 0 .5h1.5a2.25 2.25 0 0 1 0 4.5H17a1 1 0 1 1 0-2h2.75a.25.25 0 0 0 0-.5h-1.5A2.25 2.25 0 0 1 16 17.25Z" clip-rule="evenodd"/>
</svg>
