<svg xmlns="http://www.w3.org/2000/svg" width="24" height="24" viewBox="0 0 24 24">
  <path fill-rule="evenodd" d="M12.012 3c.527 0 .802.003.988.02v3.412c0 .252 0 .498.017.706.019.229.063.499.201.77a2 2 0 0 0 .874.874c.271.138.541.182.77.201.208.017.454.017.706.017h3.39l.008.165c.011.268.019.609.024.969.01.718.01 1.487.01 1.854a1 1 0 1 0 2 0v-.001c0-.367 0-1.148-.01-1.882a39.769 39.769 0 0 0-.026-1.023c-.01-.245-.026-.57-.074-.773a4.005 4.005 0 0 0-.48-1.156c-.248-.406-.587-.745-1.037-1.194l-3.332-3.332c-.449-.45-.788-.789-1.194-1.038a4.006 4.006 0 0 0-1.156-.478C13.228.999 12.75 1 12.114 1H8.759c-.805 0-1.47 0-2.01.044-.563.046-1.08.145-1.565.392a4 4 0 0 0-1.748 1.748c-.247.485-.346 1.002-.392 1.564C3 5.29 3 5.954 3 6.758v5.23a1 1 0 1 0 2 0V6.8c0-.857 0-1.439.038-1.889.035-.438.1-.663.18-.819a2 2 0 0 1 .874-.874c.156-.08.38-.145.819-.18C7.361 3 7.943 3 8.8 3h3.212ZM15 6.4V4.414L17.586 7H15.6c-.296 0-.459 0-.575-.01l-.014-.001v-.014A8.205 8.205 0 0 1 15 6.4Z" clip-rule="evenodd"/>
  <path d="M17.203 16.833a3.832 3.832 0 0 0-1.359.011 1 1 0 1 1-.367-1.966 5.83 5.83 0 0 1 2.061-.017 1 1 0 1 1-.335 1.972Zm2.452-.113a1 1 0 0 1 1.412-.077 7.698 7.698 0 0 1 .653.66l.02.022.02.026.013.015.005.005.002.003L21 18l.78-.625a1 1 0 0 1-1.559 1.253v-.001l-.002-.002-.018-.021a5.682 5.682 0 0 0-.468-.471 1 1 0 0 1-.078-1.413Zm-6.258.045a1 1 0 0 1-.114 1.41 10.1 10.1 0 0 0-.576.532c-.232.232-.463.445-.694.642a1 1 0 1 1-1.296-1.524c.188-.16.38-.337.576-.532.232-.232.463-.445.694-.642a1 1 0 0 1 1.41.114Zm-11.142.568a1 1 0 0 0-.019 1.313l.003.003a4.091 4.091 0 0 0 .182.206c.117.127.285.298.499.49a.996.996 0 0 0 1.094.178.992.992 0 0 0 .48-.464.997.997 0 0 0-.13-1.092l-.003-.004a4.326 4.326 0 0 0-.182-.206 7.673 7.673 0 0 0-.499-.49.998.998 0 0 0-1.425.066Zm7.068 2.622a1 1 0 0 1-.8 1.167 5.833 5.833 0 0 1-2.062.017 1 1 0 1 1 .336-1.972c.42.072.874.08 1.359-.011a1 1 0 0 1 1.167.799Z"/>
</svg>
