<svg xmlns="http://www.w3.org/2000/svg" width="24" height="24" viewBox="0 0 24 24">
  <path fill-rule="evenodd" d="M12.759 1h2.482c.805 0 1.47 0 2.01.044.563.046 1.08.145 1.565.392a4 4 0 0 1 1.748 1.748c.247.485.346 1.002.392 1.564C21 5.29 21 5.954 21 6.758V13h1a1 1 0 0 1 1 1v3.241c0 .805 0 1.47-.044 2.01-.046.563-.145 1.08-.392 1.565a4 4 0 0 1-1.748 1.748c-.485.247-1.002.346-1.564.392-.541.044-1.206.044-2.01.044H6.758c-.805 0-1.47 0-2.01-.044-.563-.046-1.08-.145-1.565-.392a4 4 0 0 1-1.748-1.748c-.247-.485-.346-1.002-.392-1.564C1 18.71 1 18.046 1 17.242V14a1 1 0 0 1 1-1h1V9.759c0-.805 0-1.47.044-2.01.046-.563.145-1.08.392-1.565a4 4 0 0 1 1.748-1.748c.333-.17.631-.32 1.11-.386.229-.031.504-.043.856-.047.062-.284.152-.556.286-.819a4 4 0 0 1 1.748-1.748c.485-.247 1.002-.346 1.564-.392C11.29 1 11.954 1 12.758 1ZM7.002 6.006a3.981 3.981 0 0 0-.438.026c-.12.016-.163.029-.472.186a2 2 0 0 0-.874.874c-.08.156-.145.38-.18.819C5 8.361 5 8.943 5 9.8V13h2V6.759c0-.267 0-.517.002-.753ZM9 13.55c.609.476 1 1.217 1 2.05a.6.6 0 0 0 .6.6h2.8a.6.6 0 0 0 .6-.6 2.6 2.6 0 0 1 2.6-2.6H19V6.8c0-.857 0-1.439-.038-1.889-.035-.438-.1-.663-.18-.819a2 2 0 0 0-.874-.874c-.156-.08-.38-.145-.819-.18C16.639 3 16.057 3 15.2 3h-2.4c-.857 0-1.439 0-1.889.038-.438.035-.662.1-.819.18a2 2 0 0 0-.874.874c-.08.156-.145.38-.18.819C9 5.361 9 5.943 9 6.8v6.75ZM3 15v2.2c0 .857 0 1.439.038 1.889.035.438.1.663.18.819a2 2 0 0 0 .874.874c.156.08.38.145.819.18C5.361 21 5.943 21 6.8 21h10.4c.857 0 1.439 0 1.889-.038.438-.035.663-.1.819-.18a2 2 0 0 0 .874-.874c.08-.156.145-.38.18-.819.037-.45.038-1.032.038-1.889V15h-4.4a.6.6 0 0 0-.6.6 2.6 2.6 0 0 1-2.6 2.6h-2.8A2.6 2.6 0 0 1 8 15.6a.6.6 0 0 0-.6-.6H3Zm8-8a1 1 0 0 1 1-1h4a1 1 0 1 1 0 2h-4a1 1 0 0 1-1-1Zm0 4a1 1 0 0 1 1-1h2a1 1 0 1 1 0 2h-2a1 1 0 0 1-1-1Z" clip-rule="evenodd"/>
</svg>
