<svg xmlns="http://www.w3.org/2000/svg" width="24" height="24" viewBox="0 0 24 24">
  <path fill-rule="evenodd" d="M7 1a1 1 0 0 1 1 1v5a1 1 0 0 1-2 0V2a1 1 0 0 1 1-1Zm5 0a1 1 0 0 1 1 1v5a1 1 0 1 1-2 0V2a1 1 0 0 1 1-1Zm5 0a1 1 0 0 1 1 1v5a1 1 0 1 1-2 0V2a1 1 0 0 1 1-1ZM7 16a1 1 0 0 1 1 1v5a1 1 0 1 1-2 0v-5a1 1 0 0 1 1-1Zm5 0a1 1 0 0 1 1 1v5a1 1 0 1 1-2 0v-5a1 1 0 0 1 1-1Zm5 0a1 1 0 0 1 1 1v5a1 1 0 1 1-2 0v-5a1 1 0 0 1 1-1Z" clip-rule="evenodd" opacity=".5"/>
  <path fill-rule="evenodd" d="M19.089 3.038C18.639 3 18.057 3 17.2 3H6.8c-.857 0-1.439 0-1.889.038-.438.035-.663.1-.819.18a2 2 0 0 0-.874.874c-.08.156-.145.38-.18.819-.024.294-.033.643-.036 1.089h17.996a15.129 15.129 0 0 0-.036-1.089c-.035-.438-.1-.663-.18-.819a2 2 0 0 0-.874-.874c-.156-.08-.38-.145-.819-.18ZM23 6.758c0-.804 0-1.469-.044-2.01-.046-.562-.145-1.079-.392-1.564a4 4 0 0 0-1.748-1.748c-.485-.247-1.002-.346-1.564-.392C18.71 1 18.046 1 17.242 1H6.758c-.805 0-1.47 0-2.01.044-.563.046-1.08.145-1.565.392a4 4 0 0 0-1.748 1.748c-.247.485-.346 1.002-.392 1.564C1 5.29 1 5.954 1 6.758v10.483c0 .805 0 1.47.044 2.01.046.563.145 1.08.392 1.565a4 4 0 0 0 1.748 1.748c.485.247 1.002.346 1.564.392C5.29 23 5.954 23 6.758 23h10.483c.805 0 1.47 0 2.01-.044.563-.046 1.08-.145 1.565-.392a4 4 0 0 0 1.748-1.748c.247-.485.346-1.002.392-1.564.044-.541.044-1.206.044-2.01V6.758ZM21 8h-8v8h8V8Zm-.002 10H3.002c.003.445.012.795.036 1.089.035.438.1.663.18.819a2 2 0 0 0 .874.874c.156.08.38.145.819.18C5.361 21 5.943 21 6.8 21h10.4c.857 0 1.439 0 1.889-.038.438-.035.663-.1.819-.18a2 2 0 0 0 .874-.874c.08-.156.145-.38.18-.819.024-.294.033-.643.036-1.089ZM3 16h8V8H3v8Z" clip-rule="evenodd"/>
</svg>
