<svg xmlns="http://www.w3.org/2000/svg" width="24" height="24" viewBox="0 0 24 24">
  <path fill-rule="evenodd" d="M11.138 1.017c.229.019.499.063.77.201a2 2 0 0 1 .874.874c.138.271.182.541.201.77.004.044.006.09.009.138h4.25c.804 0 1.469 0 2.01.044.562.046 1.079.145 1.564.392a4 4 0 0 1 1.748 1.748c.247.485.346 1.002.392 1.564C23 7.29 23 7.954 23 8.758v8.483c0 .805 0 1.47-.044 2.01-.046.563-.145 1.08-.392 1.565a4 4 0 0 1-1.748 1.748c-.485.247-1.002.346-1.564.392-.541.044-1.206.044-2.01.044h-3.674c-.252 0-.498 0-.706-.017a2.022 2.022 0 0 1-.77-.201 2 2 0 0 1-.874-.874 2.02 2.02 0 0 1-.201-.77 3.993 3.993 0 0 1-.009-.138h-4.25c-.804 0-1.469 0-2.01-.044-.562-.046-1.079-.145-1.564-.392a4 4 0 0 1-1.748-1.748c-.247-.485-.346-1.002-.392-1.564C1 16.71 1 16.046 1 15.242V6.758c0-.805 0-1.47.044-2.01.046-.563.145-1.08.392-1.565a4 4 0 0 1 1.748-1.748c.485-.247 1.002-.346 1.564-.392C5.29 1 5.954 1 6.758 1h3.674c.252 0 .498 0 .706.017ZM8 3v2h3V3H8Zm-3.089.038c.294-.024.643-.033 1.089-.036V5H3.03l.008-.089c.035-.438.1-.663.18-.819a2 2 0 0 1 .874-.874c.156-.08.38-.145.819-.18ZM8 17h3v2H8v-2Zm-2 0v1.998a15.195 15.195 0 0 1-1.089-.036c-.438-.035-.663-.1-.819-.18a2 2 0 0 1-.874-.874c-.08-.156-.145-.38-.18-.819A7.341 7.341 0 0 1 3.03 17H6Zm7 2v2h3v-2h-3Zm5 1.998a15.13 15.13 0 0 0 1.089-.036c.438-.035.663-.1.819-.18a2 2 0 0 0 .874-.874c.08-.156.145-.38.18-.819L20.97 19H18v1.998ZM13 7h3V5h-3v2Zm5-1.998V7h2.97a6.916 6.916 0 0 0-.008-.089c-.035-.438-.1-.663-.18-.819a2 2 0 0 0-.874-.874c-.156-.08-.38-.145-.819-.18A15.16 15.16 0 0 0 18 5.002Z" clip-rule="evenodd"/>
</svg>
