<svg xmlns="http://www.w3.org/2000/svg" width="24" height="24" viewBox="0 0 24 24">
  <path d="M17.2 2c1.68 0 2.52 0 3.162.327a3 3 0 0 1 1.311 1.311C22 4.28 22 5.12 22 6.8V7H2v-.2c0-1.68 0-2.52.327-3.162a3 3 0 0 1 1.311-1.311C4.28 2 5.12 2 6.8 2h10.4Zm0 20c1.68 0 2.52 0 3.162-.327a3 3 0 0 0 1.311-1.311C22 19.72 22 18.88 22 17.2V17H2v.2c0 1.68 0 2.52.327 3.162a3 3 0 0 0 1.311 1.311C4.28 22 5.12 22 6.8 22h10.4Z" opacity=".2"/>
  <path fill-rule="evenodd" d="M18 3.002V6h2.998a15.129 15.129 0 0 0-.036-1.089c-.035-.438-.1-.663-.18-.819a2 2 0 0 0-.874-.874c-.156-.08-.38-.145-.819-.18A15.155 15.155 0 0 0 18 3.002Zm5 3.757c0-.805 0-1.47-.044-2.01-.046-.563-.145-1.08-.392-1.565a4 4 0 0 0-1.748-1.748c-.485-.247-1.002-.346-1.564-.392C18.71 1 18.046 1 17.242 1H6.758c-.805 0-1.47 0-2.01.044-.563.046-1.08.145-1.565.392a4 4 0 0 0-1.748 1.748c-.247.485-.346 1.002-.392 1.564C1 5.29 1 5.954 1 6.758v10.483c0 .805 0 1.47.044 2.01.046.563.145 1.08.392 1.565a4 4 0 0 0 1.748 1.748c.485.247 1.002.346 1.564.392C5.29 23 5.954 23 6.758 23h10.483c.805 0 1.47 0 2.01-.044.563-.046 1.08-.145 1.565-.392a4 4 0 0 0 1.748-1.748c.247-.485.346-1.002.392-1.564.044-.541.044-1.206.044-2.01V6.758ZM21 8h-8v8h8V8Zm-.002 10H18v2.998a15.13 15.13 0 0 0 1.089-.036c.438-.035.663-.1.819-.18a2 2 0 0 0 .874-.874c.08-.156.145-.38.18-.819.024-.294.033-.643.036-1.089ZM16 21v-3h-3v3h3Zm-5 0v-3H8v3h3Zm-5-.002V18H3.002c.003.445.012.795.036 1.089.035.438.1.663.18.819a2 2 0 0 0 .874.874c.156.08.38.145.819.18.294.024.643.033 1.089.036ZM3 16h8V8H3v8Zm.002-10H6V3.002c-.446.003-.795.012-1.089.036-.438.035-.663.1-.819.18a2 2 0 0 0-.874.874c-.08.156-.145.38-.18.819-.024.294-.033.643-.036 1.089ZM8 3v3h3V3H8Zm5 0v3h3V3h-3Z" clip-rule="evenodd"/>
</svg>
