<svg xmlns="http://www.w3.org/2000/svg" width="24" height="24" viewBox="0 0 24 24">
  <path fill-rule="evenodd" d="M7 1a1 1 0 0 1 1 1v4a1 1 0 0 1-2 0V2a1 1 0 0 1 1-1Zm10 2a1 1 0 0 1 1 1v4a1 1 0 1 1-2 0V4a1 1 0 0 1 1-1ZM7 15a1 1 0 0 1 1 1v4a1 1 0 1 1-2 0v-4a1 1 0 0 1 1-1Zm10 2a1 1 0 0 1 1 1v4a1 1 0 1 1-2 0v-4a1 1 0 0 1 1-1Z" clip-rule="evenodd" opacity=".5"/>
  <path fill-rule="evenodd" d="M10.975 3.01A8.187 8.187 0 0 0 10.4 3H6.8c-.857 0-1.439 0-1.889.038-.438.035-.663.1-.819.18a2 2 0 0 0-.874.874c-.08.156-.145.38-.18.819A7.26 7.26 0 0 0 3.03 5H11V3.6c0-.297 0-.459-.01-.575l-.001-.014a1.7 1.7 0 0 0-.014 0ZM12.992 3a4.277 4.277 0 0 0-.009-.138 2.022 2.022 0 0 0-.201-.77 2 2 0 0 0-.874-.874 2.022 2.022 0 0 0-.77-.201C10.93 1 10.684 1 10.432 1H6.759c-.805 0-1.47 0-2.01.044-.563.046-1.08.145-1.565.392a4 4 0 0 0-1.748 1.748c-.247.485-.346 1.002-.392 1.564a16.673 16.673 0 0 0-.043 1.303L1 6.76v8.482a122.547 122.547 0 0 0 .002.825c.004.448.014.842.042 1.186.046.562.145 1.079.392 1.564a4 4 0 0 0 1.748 1.748c.485.247 1.002.346 1.564.392C5.29 21 5.954 21 6.758 21h4.25c.003.048.005.094.009.138.019.229.063.499.201.77a2 2 0 0 0 .874.874c.271.138.541.182.77.201.208.017.454.017.706.017h3.673c.805 0 1.47 0 2.01-.044.563-.046 1.08-.145 1.565-.392a4 4 0 0 0 1.748-1.748c.247-.485.346-1.002.392-1.564a16.657 16.657 0 0 0 .043-1.303L23 17.24V8.76l-.001-.708a.973.973 0 0 0-.001-.117 16.66 16.66 0 0 0-.042-1.186c-.046-.562-.145-1.079-.392-1.564a4 4 0 0 0-1.748-1.748c-.485-.247-1.002-.346-1.564-.392C18.71 3 18.046 3 17.242 3h-4.25ZM11 7H3v8h8V7Zm2 2v8h8V9h-8Zm7.97-2a5.468 5.468 0 0 0-.008-.089c-.035-.438-.1-.663-.18-.819a2 2 0 0 0-.874-.874c-.156-.08-.38-.145-.819-.18C18.639 5 18.057 5 17.2 5H13v2h7.97Zm0 12H13v1.4c0 .297 0 .459.01.575l.001.013.014.002c.116.01.278.01.575.01h3.6c.857 0 1.439 0 1.889-.038.438-.035.663-.1.819-.18a2 2 0 0 0 .874-.874c.08-.156.145-.38.18-.819L20.97 19ZM11 19H6.8c-.857 0-1.439 0-1.889-.038-.438-.035-.663-.1-.819-.18a2 2 0 0 1-.874-.874c-.08-.156-.145-.38-.18-.819A7.341 7.341 0 0 1 3.03 17H11v2Z" clip-rule="evenodd"/>
</svg>
