<svg xmlns="http://www.w3.org/2000/svg" width="24" height="24" viewBox="0 0 24 24">
  <path fill-rule="evenodd" d="M1 7a1 1 0 0 1 1-1h5a1 1 0 0 1 0 2H2a1 1 0 0 1-1-1Zm15 0a1 1 0 0 1 1-1h5a1 1 0 1 1 0 2h-5a1 1 0 0 1-1-1ZM1 12a1 1 0 0 1 1-1h5a1 1 0 1 1 0 2H2a1 1 0 0 1-1-1Zm15 0a1 1 0 0 1 1-1h5a1 1 0 1 1 0 2h-5a1 1 0 0 1-1-1ZM1 17a1 1 0 0 1 1-1h5a1 1 0 1 1 0 2H2a1 1 0 0 1-1-1Zm15 0a1 1 0 0 1 1-1h5a1 1 0 1 1 0 2h-5a1 1 0 0 1-1-1Z" clip-rule="evenodd" opacity=".5"/>
  <path fill-rule="evenodd" d="M6.759 1H17.24c.805 0 1.47 0 2.01.044.563.046 1.08.145 1.565.392a4 4 0 0 1 1.748 1.748c.247.485.346 1.002.392 1.564C23 5.29 23 5.954 23 6.758v10.483c0 .805 0 1.47-.044 2.01-.046.563-.145 1.08-.392 1.565a4 4 0 0 1-1.748 1.748c-.485.247-1.002.346-1.564.392-.541.044-1.206.044-2.01.044H6.758c-.805 0-1.47 0-2.01-.044-.563-.046-1.08-.145-1.565-.392a4 4 0 0 1-1.748-1.748c-.247-.485-.346-1.002-.392-1.564C1 18.71 1 18.046 1 17.242V6.758c0-.805 0-1.47.044-2.01.046-.563.145-1.08.392-1.565a4 4 0 0 1 1.748-1.748c.485-.247 1.002-.346 1.564-.392C5.29 1 5.954 1 6.758 1ZM8 21h8v-8H8v8Zm-2-.002a15.129 15.129 0 0 1-1.089-.036c-.438-.035-.663-.1-.819-.18a2 2 0 0 1-.874-.874c-.08-.156-.145-.38-.18-.819C3 18.639 3 18.057 3 17.2V6.8c0-.857 0-1.439.038-1.889.035-.438.1-.663.18-.819a2 2 0 0 1 .874-.874c.156-.08.38-.145.819-.18.294-.024.643-.033 1.089-.036v17.996ZM8 11h8V3H8v8Zm10-7.998v17.996a15.13 15.13 0 0 0 1.089-.036c.438-.035.663-.1.819-.18a2 2 0 0 0 .874-.874c.08-.156.145-.38.18-.819.037-.45.038-1.032.038-1.889V6.8c0-.857 0-1.439-.038-1.889-.035-.438-.1-.663-.18-.819a2 2 0 0 0-.874-.874c-.156-.08-.38-.145-.819-.18A15.16 15.16 0 0 0 18 3.002Z" clip-rule="evenodd"/>
</svg>
