<svg xmlns="http://www.w3.org/2000/svg" width="24" height="24"  viewBox="0 0 24 24">
  <path fill-rule="evenodd" d="M3.568 2h16.864c.252 0 .498 0 .706.017.229.019.498.063.77.201a2 2 0 0 1 .874.874c.138.271.182.541.201.77.017.208.017.454.017.706v.758c0 .208.002.47-.066.726a1.999 1.999 0 0 1-.283.62 2.8 2.8 0 0 1-.506.525l-.042.037-6.396 5.543a6.254 6.254 0 0 0-.201.178l-.003.003v.004a6.262 6.262 0 0 0-.003.269v5.265c.002.138.005.423-.095.69-.083.224-.22.425-.396.586-.21.19-.477.294-.605.344l-.036.014-3.427 1.37a6.108 6.108 0 0 1-.49.181 1.53 1.53 0 0 1-.756.05 1.5 1.5 0 0 1-.945-.64 1.529 1.529 0 0 1-.236-.721c-.014-.161-.014-.35-.014-.522v-6.617c0-.144 0-.216-.003-.269v-.004l-.003-.003a6.227 6.227 0 0 0-.201-.178L1.897 7.234a16.457 16.457 0 0 0-.042-.037c-.158-.136-.357-.307-.506-.525a2 2 0 0 1-.283-.62A2.799 2.799 0 0 1 1 5.326v-.758c0-.252 0-.498.017-.706a2.03 2.03 0 0 1 .201-.77 2 2 0 0 1 .874-.874 2.03 2.03 0 0 1 .77-.201C3.07 2 3.316 2 3.568 2Z" clip-rule="evenodd"/>
</svg>
