<svg xmlns="http://www.w3.org/2000/svg" width="24" height="24" viewBox="0 0 24 24">
  <path d="M3.386 5.667C2.63 4.822 2.252 4.399 2.237 4.04a1 1 0 0 1 .363-.811C2.877 3 3.444 3 4.579 3h14.843c1.134 0 1.7 0 1.978.229a1 1 0 0 1 .363.81c-.015.36-.393.783-1.15 1.628l-5.705 6.377c-.151.169-.226.253-.28.35a.996.996 0 0 0-.104.27c-.024.108-.024.221-.024.447v5.347c0 .196 0 .294-.032.378a.498.498 0 0 1-.132.196c-.066.06-.157.096-.339.17l-3.4 1.36c-.367.146-.551.22-.699.189a.5.5 0 0 1-.315-.213c-.083-.126-.083-.324-.083-.72v-6.707c0-.226 0-.339-.024-.446a1 1 0 0 0-.104-.272c-.053-.096-.129-.18-.28-.349L3.386 5.667Z" opacity=".2"/>
  <path fill-rule="evenodd" d="M4.533 2h14.934c.528 0 .991 0 1.355.033.349.031.827.105 1.215.425a2 2 0 0 1 .725 1.621c-.02.503-.284.909-.494 1.19-.218.292-.526.637-.879 1.031l-5.736 6.411a6.173 6.173 0 0 0-.15.172v.003a6.015 6.015 0 0 0-.003.225v5.385c.002.138.005.423-.095.69a1.5 1.5 0 0 1-.396.586c-.21.19-.477.294-.605.344l-.036.014-3.427 1.37a6.095 6.095 0 0 1-.49.181 1.53 1.53 0 0 1-.756.05 1.5 1.5 0 0 1-.945-.64 1.529 1.529 0 0 1-.236-.721 6.069 6.069 0 0 1-.014-.522v-6.737c0-.12 0-.181-.002-.225v-.003l-.002-.003a6.064 6.064 0 0 0-.149-.169L2.641 6.334 2.61 6.3a16.7 16.7 0 0 1-.88-1.032c-.209-.28-.473-.686-.493-1.189a2 2 0 0 1 .725-1.621c.388-.32.866-.394 1.215-.425C3.542 2 4.005 2 4.533 2Zm-1.23 2.03.032.044c.158.211.405.489.796.926l5.707 6.378.031.035c.118.13.266.295.376.491a2 2 0 0 1 .207.544c.05.219.049.44.048.616v6.459l3-1.2v-5.259c0-.176-.001-.397.048-.616.042-.19.112-.374.207-.544a2.782 2.782 0 0 1 .407-.526L19.87 5c.391-.437.638-.715.796-.926l.031-.044a2.366 2.366 0 0 0-.053-.005C20.38 4 20.009 4 19.422 4H4.579c-.588 0-.959.001-1.222.025l-.053.005Z" clip-rule="evenodd"/>
</svg>
