<svg xmlns="http://www.w3.org/2000/svg" width="24" height="24" viewBox="0 0 24 24">
  <path fill-rule="evenodd" d="M3.568 2h16.864c.252 0 .498 0 .706.017.229.019.498.063.77.201a2 2 0 0 1 .874.874c.138.271.182.541.201.77.017.208.017.454.017.706v.758c0 .208.002.47-.066.726a1.999 1.999 0 0 1-.283.62 2.8 2.8 0 0 1-.506.525l-.042.037-6.396 5.543a6.254 6.254 0 0 0-.201.178l-.003.003v.004a6.262 6.262 0 0 0-.003.269v5.265c.002.138.005.423-.095.69-.083.224-.22.425-.396.586-.21.19-.477.294-.605.344l-.036.014-3.4 1.36-.027.01a6.108 6.108 0 0 1-.49.181 1.53 1.53 0 0 1-.756.05 1.5 1.5 0 0 1-.945-.64 1.529 1.529 0 0 1-.236-.721c-.014-.161-.014-.35-.014-.522v-6.617a6.291 6.291 0 0 0-.003-.273l-.003-.003a6.243 6.243 0 0 0-.201-.178L1.897 7.234a18.666 18.666 0 0 0-.042-.037c-.158-.136-.357-.307-.506-.525a2 2 0 0 1-.283-.62A2.799 2.799 0 0 1 1 5.326v-.758c0-.252 0-.498.017-.706a2.03 2.03 0 0 1 .201-.77 2 2 0 0 1 .874-.874 2.03 2.03 0 0 1 .77-.201C3.07 2 3.316 2 3.568 2Zm-.557 2.011v.014C3 4.14 3 4.303 3 4.6v.67c0 .143 0 .215.003.268v.004l.003.003c.038.036.092.084.201.178l6.396 5.543.042.037c.158.135.357.307.506.525.13.189.225.399.283.62.068.256.067.518.066.726v6.349l3-1.2v-5.149c0-.208-.002-.47.066-.726.058-.221.154-.431.283-.62a2.8 2.8 0 0 1 .506-.525l.042-.037 6.396-5.543c.109-.094.163-.142.201-.178l.003-.003v-.004C21 5.485 21 5.413 21 5.269V4.6a8.205 8.205 0 0 0-.012-.589h-.013A8.187 8.187 0 0 0 20.4 4H3.6a8.186 8.186 0 0 0-.589.011Z" clip-rule="evenodd"/>
</svg>
