<svg xmlns="http://www.w3.org/2000/svg" width="24" height="24" viewBox="0 0 24 24">
  <path fill-rule="evenodd" d="M6.5 10a5.5 5.5 0 0 1 8.342-4.71 1 1 0 1 1-1.034 1.712A3.5 3.5 0 0 0 8.5 10v2.95a1 1 0 1 1-2 0V10Zm10 .04a1 1 0 0 1 1 1V14a5.5 5.5 0 0 1-8.336 4.713A1 1 0 0 1 10.196 17a3.5 3.5 0 0 0 5.304-3v-2.96a1 1 0 0 1 1-1Z" clip-rule="evenodd" opacity=".5"/>
  <path fill-rule="evenodd" d="M6.877 2.6A9 9 0 0 1 21 10v1.237a1 1 0 0 1-2 0V10A7 7 0 0 0 8.017 4.243a1 1 0 1 1-1.14-1.644ZM4.735 6.497a1 1 0 0 1 .63 1.267A6.99 6.99 0 0 0 5 10v4a7.004 7.004 0 0 0 5.025 6.718 1 1 0 0 1-.563 1.919A9.003 9.003 0 0 1 3 14v-4c0-1.003.164-1.97.469-2.873a1 1 0 0 1 1.266-.629ZM12 9a1 1 0 0 1 1 1v4a1 1 0 1 1-2 0v-4a1 1 0 0 1 1-1Zm7.948 6.361a1 1 0 0 1 .668 1.247 9.02 9.02 0 0 1-5.537 5.851 1 1 0 1 1-.684-1.879 7.02 7.02 0 0 0 4.307-4.55 1 1 0 0 1 1.246-.669Z" clip-rule="evenodd"/>
</svg>
