<svg xmlns="http://www.w3.org/2000/svg" width="24" height="24" viewBox="0 0 24 24">
  <path fill-rule="evenodd" d="M12 3a8.954 8.954 0 0 0-4.573 1.246A1 1 0 1 1 6.41 2.525 10.954 10.954 0 0 1 12 1c6.075 0 11 4.925 11 11v.109a1 1 0 0 1-2-.02V12a9 9 0 0 0-9-9Zm0 4a5 5 0 0 0-4.686 6.75 1 1 0 1 1-1.873.7 7 7 0 0 1 8.997-9.014 1 1 0 0 1-.697 1.875A4.988 4.988 0 0 0 12 7Zm-8.11-.935a1 1 0 0 1 .352 1.369A9.004 9.004 0 0 0 9.75 20.716a1 1 0 0 1-.498 1.937C4.507 21.433 1 17.127 1 12c0-2.036.554-3.945 1.52-5.582a1 1 0 0 1 1.37-.353ZM17.275 8.97a1 1 0 0 1 1.286.589 7 7 0 0 1-8.985 9.01 1 1 0 0 1 .693-1.876 5 5 0 0 0 6.418-6.436 1 1 0 0 1 .588-1.287ZM12 9a1 1 0 0 1 1 1v4a1 1 0 1 1-2 0v-4a1 1 0 0 1 1-1Zm9.2 7.05a1 1 0 0 1 .378 1.363 11.02 11.02 0 0 1-6.829 5.24 1 1 0 1 1-.498-1.936 9.02 9.02 0 0 0 5.586-4.29 1 1 0 0 1 1.363-.377Z" clip-rule="evenodd"/>
</svg>
