<svg xmlns="http://www.w3.org/2000/svg" width="24" height="24" viewBox="0 0 24 24">
  <path fill-rule="evenodd" d="M11.999 9.11a5.108 5.108 0 0 0-5.107 5.109c0 2.393.75 4.607 2.027 6.428a1 1 0 1 1-1.638 1.148 13.159 13.159 0 0 1-2.389-7.576A7.108 7.108 0 0 1 12 7.109a7.108 7.108 0 0 1 7.106 7.11 1 1 0 1 1-2 0A5.108 5.108 0 0 0 12 9.109Z" clip-rule="evenodd"/>
  <path fill-rule="evenodd" d="M11.999 9.11a5.108 5.108 0 0 0-5.106 5.109c0 2.393.75 4.607 2.026 6.428a1 1 0 0 1-1.638 1.148 13.16 13.16 0 0 1-2.388-7.576 7.108 7.108 0 0 1 7.106-7.11 7.108 7.108 0 0 1 7.106 7.11 1 1 0 1 1-2 0A5.108 5.108 0 0 0 12 9.109Z" clip-rule="evenodd"/>
  <path fill-rule="evenodd" d="M12 13.219a1 1 0 0 1 1 1 5.108 5.108 0 0 0 5.107 5.109c.046 0 .078-.002.133-.006l.14-.009a1 1 0 0 1 .111 1.997l-.05.003a4.867 4.867 0 0 1-.334.015 7.108 7.108 0 0 1-7.106-7.11 1 1 0 0 1 1-1Z" clip-rule="evenodd"/>
  <path fill-rule="evenodd" d="M12.001 13.219a1 1 0 0 1 1 1 5.108 5.108 0 0 0 5.106 5.11c.046 0 .078-.003.133-.007l.14-.009a1 1 0 0 1 .112 1.997c-.013 0-.03.002-.051.004-.081.005-.217.014-.334.014a7.108 7.108 0 0 1-7.106-7.11 1 1 0 0 1 1-1Z" clip-rule="evenodd"/>
  <path fill-rule="evenodd" d="M1.842 14.219c0-5.614 4.549-10.164 10.16-10.164 5.61 0 10.16 4.55 10.16 10.164a4.054 4.054 0 1 1-8.108 0 2.054 2.054 0 1 0-4.107 0A8.158 8.158 0 0 0 13.8 21.15a1 1 0 1 1-1.059 1.697 10.158 10.158 0 0 1-4.793-8.63 4.054 4.054 0 1 1 8.107 0 2.054 2.054 0 1 0 4.108 0 8.162 8.162 0 0 0-8.16-8.163 8.162 8.162 0 0 0-8.16 8.164c0 1.053.118 2.08.335 3.071a1 1 0 0 1-1.954.429 16.325 16.325 0 0 1-.381-3.5Z" clip-rule="evenodd"/>
  <path fill-rule="evenodd" d="M1.842 14.219c0-5.614 4.549-10.164 10.16-10.164 5.61 0 10.16 4.55 10.16 10.164a4.054 4.054 0 1 1-8.108 0 2.054 2.054 0 1 0-4.107 0A8.158 8.158 0 0 0 13.8 21.15a1 1 0 0 1-1.059 1.698 10.158 10.158 0 0 1-4.793-8.63 4.054 4.054 0 1 1 8.107 0 2.054 2.054 0 1 0 4.108 0 8.162 8.162 0 0 0-8.16-8.164 8.162 8.162 0 0 0-8.16 8.164c0 1.053.118 2.08.335 3.071a1 1 0 0 1-1.954.429 16.325 16.325 0 0 1-.381-3.5Z" clip-rule="evenodd"/>
  <path fill-rule="evenodd" d="M2.724 5.202A12.327 12.327 0 0 1 12 1c3.7 0 7.013 1.632 9.276 4.202a1 1 0 0 1-1.5 1.322A10.327 10.327 0 0 0 12 3a10.327 10.327 0 0 0-7.775 3.524 1 1 0 1 1-1.501-1.322Z" clip-rule="evenodd"/>
  <path fill-rule="evenodd" d="M2.724 5.202A12.327 12.327 0 0 1 12 1c3.7 0 7.013 1.632 9.276 4.202a1 1 0 0 1-1.5 1.322A10.327 10.327 0 0 0 12 3a10.327 10.327 0 0 0-7.775 3.524 1 1 0 1 1-1.501-1.322Z" clip-rule="evenodd"/>
</svg>
