<svg xmlns="http://www.w3.org/2000/svg" width="24" height="24" viewBox="0 0 24 24">
  <path fill-rule="evenodd" d="M19.975 6.01A8.187 8.187 0 0 0 19.4 6H14v7.4a8.207 8.207 0 0 0 .011.589h.014c.116.01.278.011.575.011h4.8c.297 0 .459 0 .575-.01l.014-.001v-.014c.01-.116.011-.278.011-.575V6.6c0-.297 0-.459-.01-.575l-.001-.014a1.7 1.7 0 0 0-.014 0Zm.163-1.993c.229.019.499.063.77.201a2 2 0 0 1 .874.874c.138.271.182.541.201.77.017.208.017.454.017.706v6.864c0 .252 0 .498-.017.706a2.022 2.022 0 0 1-.201.77 2 2 0 0 1-.874.874 2.022 2.022 0 0 1-.77.201c-.208.017-.454.017-.706.017h-4.864c-.252 0-.498 0-.706-.017a2.022 2.022 0 0 1-.77-.201 2 2 0 0 1-.874-.874 2.02 2.02 0 0 1-.201-.77C12 13.93 12 13.684 12 13.432V5a1 1 0 0 1 1-1h6.432c.252 0 .498 0 .706.017Z" clip-rule="evenodd" opacity=".5"/>
  <path fill-rule="evenodd" d="M5.568 2h5.864c.252 0 .498 0 .706.017.229.019.499.063.77.201a2 2 0 0 1 .874.874c.138.271.182.541.201.77.017.208.017.454.017.706v6.864c0 .252 0 .498-.017.706a2.022 2.022 0 0 1-.201.77 2 2 0 0 1-.874.874 2.022 2.022 0 0 1-.77.201c-.208.017-.454.017-.706.017H5v7a1 1 0 1 1-2 0v-8s0 .001 0 0V4c0-.077.009-.151.025-.223.023-.21.071-.446.193-.685a2 2 0 0 1 .874-.874 2.03 2.03 0 0 1 .77-.201C5.07 2 5.316 2 5.568 2ZM5 12h6.4c.296 0 .459 0 .575-.01l.014-.001v-.014c.01-.116.011-.278.011-.575V4.6c0-.297 0-.459-.01-.575l-.001-.014A8.187 8.187 0 0 0 11.4 4H5.6a8.186 8.186 0 0 0-.589.011v.014C5 4.14 5 4.302 5 4.597V12Z" clip-rule="evenodd"/>
</svg>
