<svg xmlns="http://www.w3.org/2000/svg" width="24" height="24" viewBox="0 0 24 24">
  <path d="M4 15s1-1 4-1 5 2 8 2 4-1 4-1V3s-1 1-4 1-5-2-8-2-4 1-4 1v12Z" opacity=".2"/>
  <path d="M4 23c-.55 0-1-.45-1-1V3c0-.27.11-.52.29-.71C3.51 2.07 4.75 1 8 1c1.69 0 3.05.54 4.37 1.07 1.19.48 2.32.93 3.63.93 2.44 0 3.31-.72 3.32-.73.3-.26.73-.33 1.08-.17.36.16.6.51.6.9v12c0 .27-.11.52-.29.71-.22.22-1.46 1.29-4.71 1.29-1.69 0-3.05-.54-4.37-1.07C10.44 15.45 9.31 15 8 15c-1.63 0-2.56.32-3 .54V22c0 .55-.45 1-1 1Zm4-10c1.69 0 3.05.54 4.37 1.07 1.19.48 2.32.93 3.63.93 1.63 0 2.56-.32 3-.54V4.61c-.72.22-1.7.39-3 .39-1.69 0-3.05-.54-4.37-1.07C10.44 3.45 9.31 3 8 3c-1.63 0-2.56.32-3 .54v9.85c.72-.22 1.7-.39 3-.39Z"/>
</svg>
