<svg xmlns="http://www.w3.org/2000/svg" width="24" height="24" viewBox="0 0 24 24">
  <path d="M16 17c-1.69 0-3.05-.54-4.37-1.07C10.44 15.45 9.31 15 8 15c-2.44 0-3.31.72-3.32.73-.41.35-1.03.33-1.4-.06-.37-.39-.37-1 .01-1.38C3.51 14.07 4.75 13 8 13c1.69 0 3.05.54 4.37 1.07 1.19.48 2.32.93 3.63.93 1.63 0 2.56-.32 3-.54V4.61c-.72.22-1.7.39-3 .39-1.69 0-3.05-.54-4.37-1.07C10.44 3.45 9.31 3 8 3c-2.44 0-3.31.72-3.32.73-.41.35-1.03.33-1.4-.06-.37-.39-.37-1 .01-1.38C3.51 2.07 4.75 1 8 1c1.69 0 3.05.54 4.37 1.07 1.19.48 2.32.93 3.63.93 2.44 0 3.31-.72 3.32-.73.29-.26.73-.33 1.08-.17.36.16.6.51.6.9v12c0 .27-.11.52-.29.71-.22.22-1.46 1.29-4.71 1.29Z" opacity=".5"/>
  <path fill-rule="evenodd" d="M4 2a1 1 0 0 1 1 1v19a1 1 0 1 1-2 0V3a1 1 0 0 1 1-1Z" clip-rule="evenodd"/>
</svg>
