<svg xmlns="http://www.w3.org/2000/svg" width="24" height="24" viewBox="0 0 24 24">
  <path fill-rule="evenodd" d="m19.91 7.402-.043-.021.043.021Zm-.528.098H13.5a1 1 0 1 1 0-2h6.237c.186 0 .388 0 .558.015.178.017.475.06.756.256a1.5 1.5 0 0 1 .624 1.01c.05.338-.044.623-.11.79-.062.159-.152.34-.235.506l-.014.028-1.21 2.42 1.308 2.944.012.028c.073.162.152.34.205.497.057.167.135.446.076.772a1.5 1.5 0 0 1-.634.975 1.53 1.53 0 0 1-.736.244c-.165.015-.36.015-.537.015h-7.731c-.253 0-.5 0-.707-.017a2.022 2.022 0 0 1-.77-.201 2 2 0 0 1-.874-.874 2.022 2.022 0 0 1-.201-.77c-.017-.208-.017-.454-.017-.706V11a1 1 0 1 1 2 0v2.4a8.207 8.207 0 0 0 .011.589h.014c.116.01.278.011.575.011h7.361l-1.221-2.749a1.893 1.893 0 0 1-.17-.51v.001a1.5 1.5 0 0 1 .012-.526 1.898 1.898 0 0 1 .192-.5L19.382 7.5Zm.64 2.835Zm-.009.376Z" clip-rule="evenodd" opacity=".5"/>
  <path fill-rule="evenodd" d="M4.568 1.5h7.364c.252 0 .498 0 .706.017.229.019.499.063.77.201a2 2 0 0 1 .874.874c.138.271.182.541.201.77.017.208.017.454.017.706v5.364c0 .252 0 .498-.017.706a2.022 2.022 0 0 1-.201.77 2 2 0 0 1-.874.874 2.022 2.022 0 0 1-.77.201c-.208.017-.454.017-.706.017H4v9a1 1 0 1 1-2 0V11s0 .001 0 0V3.5c0-.077.009-.151.025-.223.023-.21.071-.446.193-.685a2 2 0 0 1 .874-.874 2.03 2.03 0 0 1 .77-.201c.208-.017.454-.017.706-.017ZM4 10h7.9a8.187 8.187 0 0 0 .589-.011v-.014c.01-.116.011-.278.011-.575V4.1c0-.297 0-.459-.01-.575l-.001-.014A8.187 8.187 0 0 0 11.9 3.5H4.6a8.186 8.186 0 0 0-.589.011v.014C4 3.64 4 3.802 4 4.097V10Z" clip-rule="evenodd"/>
</svg>
