<svg xmlns="http://www.w3.org/2000/svg" width="24" height="24" viewBox="0 0 24 24">
  <path d="M19.59 14H4c-.55 0-1-.45-1-1s.45-1 1-1h15.23l-1.84-3.07c-.12-.2-.22-.36-.27-.6-.05-.21-.05-.44 0-.65.05-.24.15-.41.27-.6l1.84-3.07H4c-.55 0-1-.45-1-1S3.45 2 4 2h15.59c.59 0 1.02 0 1.42.29.34.25.57.65.6 1.07.05.48-.17.85-.48 1.36l-1.96 3.27 1.96 3.27c.31.51.53.88.48 1.37-.04.42-.26.81-.61 1.07-.39.29-.82.29-1.42.29l.01.01Z" opacity=".5"/>
  <path fill-rule="evenodd" d="M4 2a1 1 0 0 1 1 1v18a1 1 0 1 1-2 0V3a1 1 0 0 1 1-1Z" clip-rule="evenodd"/>
</svg>
