<svg xmlns="http://www.w3.org/2000/svg" width="24" height="24" viewBox="0 0 24 24">
  <path d="M4 15s1-1 4-1 5 2 8 2 4-1 4-1V4s-1 1-4 1-5-2-8-2-4 1-4 1v11Z" opacity=".2"/>
  <path fill-rule="evenodd" d="M4 1a1 1 0 0 1 1 1v.397C5.728 2.173 6.708 2 8 2c1.693 0 3.097.561 4.316 1.05l.055.022C13.64 3.579 14.72 4 16 4c1.387 0 2.26-.23 2.754-.428.248-.1.405-.192.488-.248a.936.936 0 0 0 .073-.053A1 1 0 0 1 21 4v11a1 1 0 0 1-.293.707L20 15c.707.707.707.708.706.708l-.001.001-.002.002-.005.005-.01.01-.027.025-.074.064a2.926 2.926 0 0 1-.235.173c-.198.132-.479.29-.856.44-.755.303-1.883.572-3.496.572-1.693 0-3.097-.561-4.316-1.05l-.055-.021C10.36 15.42 9.28 15 8 15c-1.387 0-2.26.23-2.754.428a3.32 3.32 0 0 0-.246.11V22a1 1 0 1 1-2 0V2a1 1 0 0 1 1-1Zm1 3.538v8.859C5.728 13.173 6.708 13 8 13c1.693 0 3.097.562 4.316 1.05l.055.021C13.64 14.58 14.72 15 16 15c1.387 0 2.26-.23 2.754-.428a3.46 3.46 0 0 0 .246-.11V5.603c-.728.224-1.708.397-3 .397-1.693 0-3.097-.561-4.316-1.05l-.055-.022C10.36 4.421 9.28 4 8 4c-1.387 0-2.26.23-2.754.428a3.385 3.385 0 0 0-.246.11Z" clip-rule="evenodd"/>
</svg>
