<svg xmlns="http://www.w3.org/2000/svg" width="24" height="24" viewBox="0 0 24 24">
  <path d="M12.544 15.167h7.596c.448 0 .671 0 .802-.094a.5.5 0 0 0 .205-.348c.019-.16-.09-.356-.307-.747l-1.47-2.645c-.079-.142-.118-.213-.133-.288a.499.499 0 0 1 0-.201c.015-.075.054-.146.133-.288l1.47-2.645c.217-.391.326-.587.307-.747a.5.5 0 0 0-.205-.348c-.13-.094-.354-.094-.802-.094h-6.029v2.622c0 .56 0 .84-.109 1.054a1 1 0 0 1-.437.437c-.214.11-.494.11-1.054.11h-1.566v2.622c0 .56 0 .84.108 1.054a1 1 0 0 0 .438.437c.213.109.493.109 1.053.109Z" opacity=".2"/>
  <path fill-rule="evenodd" d="M4.606 1.5h7.829c.267 0 .525 0 .742.018.238.02.515.065.792.206.387.197.701.512.898.898.142.278.187.554.207.792.017.218.017.475.017.742v1.566h4.987c.207 0 .425 0 .607.017.188.017.5.062.79.27.349.251.576.637.626 1.064.041.354-.071.65-.147.822a7.02 7.02 0 0 1-.28.538l-1.395 2.511 1.395 2.512c.1.18.206.37.28.538.076.172.188.467.147.822-.05.427-.277.813-.626 1.063a1.57 1.57 0 0 1-.79.271c-.182.017-.4.017-.607.017h-7.497c-.267 0-.525 0-.742-.018a2.08 2.08 0 0 1-.792-.206 2.055 2.055 0 0 1-.898-.899 2.079 2.079 0 0 1-.207-.792c-.017-.217-.017-.474-.017-.742v-1.566H5.872L8.2 21.257a1 1 0 1 1-1.94.485l-4.225-16.9-.01-.037a11.053 11.053 0 0 1-.198-.89c-.044-.276-.068-.612.041-.966a2.06 2.06 0 0 1 .899-1.151c.317-.193.65-.25.927-.275.26-.023.575-.023.912-.023Zm-.628 2.869-.001-.006-.002-.007a10.136 10.136 0 0 1-.173-.754 1.23 1.23 0 0 1-.01-.078l.078-.009c.162-.014.386-.015.773-.015h7.76c.311 0 .486 0 .611.011l.06.006.006.06c.01.126.011.3.011.612v5.067c0 .312 0 .486-.01.611a1.093 1.093 0 0 1-.007.06 1.027 1.027 0 0 1-.06.006c-.125.01-.3.011-.612.011h-7.03L3.978 4.37Zm7.947 7.575v1.534c0 .312 0 .486.01.612l.007.06.06.006c.126.01.3.01.612.01h7.167l-1.293-2.326-.017-.03c-.06-.106-.18-.318-.23-.558a1.53 1.53 0 0 1 0-.615c.05-.24.17-.452.23-.559.007-.01.012-.02.017-.03l1.293-2.326h-4.69v1.566c0 .268 0 .525-.017.742-.02.238-.065.515-.207.792a2.056 2.056 0 0 1-.898.898 2.079 2.079 0 0 1-.792.207c-.217.018-.475.018-.742.018h-.51Z" clip-rule="evenodd"/>
</svg>
