<svg xmlns="http://www.w3.org/2000/svg" width="24" height="24" viewBox="0 0 24 24">
  <path d="M4 3h15.587c.462 0 .694 0 .826.097a.5.5 0 0 1 .202.357c.015.163-.104.361-.342.758l-2.026 3.376c-.09.15-.135.225-.152.305a.5.5 0 0 0 0 .214c.017.08.062.155.152.305l2.026 3.376c.238.397.357.595.342.758a.5.5 0 0 1-.202.357c-.132.097-.364.097-.826.097H4V3Z" opacity=".2"/>
  <path d="M4 22c-.55 0-1-.45-1-1V3c0-.55.45-1 1-1h15.59c.59 0 1.02 0 1.42.29.35.26.57.65.61 1.08.05.48-.17.85-.48 1.36L19.18 8l1.96 3.27c.31.51.53.88.48 1.37-.04.42-.26.81-.6 1.07-.4.29-.83.29-1.42.29H5v7c0 .55-.45 1-1 1Zm1-10h14.23l-1.84-3.07c-.12-.19-.22-.36-.27-.6-.05-.21-.05-.44 0-.65.05-.24.15-.4.27-.6L19.24 4H5v8Z"/>
</svg>
