<svg xmlns="http://www.w3.org/2000/svg" width="24" height="24" viewBox="0 0 24 24">
  <path fill-rule="evenodd" d="M19.8 7.722h-5.689a1 1 0 1 1 0-2h6.062c.195 0 .403 0 .578.016.18.017.489.06.775.266a1.5 1.5 0 0 1 .614 1.044c.041.35-.07.64-.143.807-.071.16-.173.343-.267.513l-.016.028-1.416 2.548 1.416 2.548.016.029c.094.17.196.352.267.513.073.166.184.456.143.807a1.5 1.5 0 0 1-.614 1.043c-.286.206-.594.25-.775.267a6.706 6.706 0 0 1-.578.016h-7.66c-.253 0-.499 0-.707-.017a2.022 2.022 0 0 1-.77-.201 2 2 0 0 1-.873-.874 2.022 2.022 0 0 1-.202-.77c-.017-.208-.017-.454-.017-.707v-2.654a1 1 0 0 1 2 0v2.623a8.141 8.141 0 0 0 .012.588l.013.001c.117.01.279.01.575.01H19.8l-1.304-2.347a1.831 1.831 0 0 0-.015-.028 1.913 1.913 0 0 1-.224-.544 1.5 1.5 0 0 1 0-.605c.049-.236.167-.444.223-.544l.016-.028 1.305-2.348Z" clip-rule="evenodd" opacity=".5"/>
  <path fill-rule="evenodd" d="M4.512 1.5h8.031c.253 0 .498 0 .706.017.229.019.499.063.77.201a2 2 0 0 1 .874.874c.138.271.183.541.201.77.017.208.017.454.017.706v5.308c0 .253 0 .499-.017.707a2.02 2.02 0 0 1-.2.77 2 2 0 0 1-.875.873 2.022 2.022 0 0 1-.77.201 8.682 8.682 0 0 1-.706.018H5.892l2.328 9.313a1 1 0 0 1-1.94.485L2.058 4.853a.61.61 0 0 1-.002-.007l-.03-.115a37.51 37.51 0 0 0-.008-.036c-.077-.308-.15-.6-.189-.847a2.045 2.045 0 0 1 .041-.939 2 2 0 0 1 .874-1.12c.31-.188.635-.243.901-.267.25-.022.55-.022.867-.022Zm.88 8.444h7.12a8.189 8.189 0 0 0 .588-.011V9.92c.01-.117.011-.279.011-.576V4.1a8.205 8.205 0 0 0-.011-.589h-.014a8.182 8.182 0 0 0-.575-.011H4.55a9.573 9.573 0 0 0-.748.016l.004.02c.023.15.073.353.162.71l1.425 5.698Z" clip-rule="evenodd"/>
</svg>
