<svg xmlns="http://www.w3.org/2000/svg" width="24" height="24" viewBox="0 0 24 24">
  <path d="M4 22c-.55 0-1-.45-1-1V4c0-.08 0-.16.03-.23.03-.25.08-.46.19-.68.19-.38.49-.68.87-.87C4.52 2 4.95 2 5.6 2h6.8c.65 0 1.08 0 1.51.22.38.19.68.49.87.87.22.43.22.86.22 1.51V6h4.64c.58 0 .99 0 1.38.28.34.25.57.63.62 1.05.06.47-.14.83-.42 1.33L19.92 11l1.29 2.33c.28.51.48.87.42 1.35-.04.41-.27.79-.61 1.04-.4.29-.81.29-1.39.29h-7.04c-.65 0-1.08 0-1.51-.22-.38-.19-.68-.49-.87-.87-.22-.43-.22-.86-.22-1.51v-1.4H5v9c0 .55-.45 1-1 1V22Zm8-10v1.4c0 .28 0 .57.02.65.01-.05.3-.05.58-.05h6.7l-1.18-2.13c-.11-.2-.2-.36-.24-.58-.04-.19-.04-.39 0-.59.04-.22.13-.38.23-.56L19.3 8H15v1.4c0 .65 0 1.08-.22 1.51-.2.38-.5.68-.87.87-.43.22-.86.22-1.51.22H12Zm-7-2h7.4c.28 0 .57 0 .65-.02-.05-.01-.05-.3-.05-.58V4.6c0-.28 0-.57-.02-.65-.01.05-.3.05-.58.05H5.6c-.24 0-.48 0-.6.01V10Z"/>
</svg>
