<svg xmlns="http://www.w3.org/2000/svg" width="24" height="24" viewBox="0 0 24 24">
  <path fill-rule="evenodd" d="M13.398 1.083a1 1 0 0 1 .594 1.041l-.6 4.798a1 1 0 1 1-1.984-.248l.177-1.414-.244.293a1 1 0 0 1-1.536-1.28l2.427-2.913a1 1 0 0 1 1.166-.277ZM18.865 11l-1.083 1.3a1 1 0 0 0 1.537 1.28l1.356-1.628.023-.027c.154-.185.31-.373.424-.538.108-.155.304-.462.31-.864a1.5 1.5 0 0 0-.557-1.19l-.628.778.628-.778c-.313-.253-.674-.298-.863-.315C19.812 9 19.57 9 19.328 9H15.65a1 1 0 0 0 0 2h3.215Z" clip-rule="evenodd" opacity=".5"/>
  <path fill-rule="evenodd" d="M2.293 2.293a1 1 0 0 1 1.414 0L8.7 7.286l.016.016 7.984 7.984.016.016 4.991 4.99a1 1 0 0 1-1.414 1.415l-4.226-4.226-4.299 5.16a1 1 0 0 1-1.76-.765l.86-6.876H4.671c-.24 0-.485 0-.684-.018-.189-.017-.55-.062-.863-.315a1.5 1.5 0 0 1-.557-1.19c.006-.402.202-.709.31-.864.114-.165.27-.353.424-.538l.023-.027L6.647 8.06 2.293 3.707a1 1 0 0 1 0-1.414ZM8.067 9.48 5.135 13h6.45L8.068 9.481Zm4.894 4.894-.546 4.364 2.232-2.678-1.686-1.686Z" clip-rule="evenodd"/>
</svg>
