<svg xmlns="http://www.w3.org/2000/svg" width="24" height="24" viewBox="0 0 24 24">
  <path fill-rule="evenodd" d="M11.49 1.316a2 2 0 0 1 1.02 0c.386.102.715.35.977.549l.073.055.607.455.232.174.116.087.005.004L22.6 8.7a1 1 0 1 1-1.2 1.6L21 10v2.8a1 1 0 1 1-2 0V8.5l-5.68-4.26-.006-.005c-.755-.565-.917-.664-1.06-.702a1 1 0 0 0-.509 0c-.142.038-.304.137-1.06.703l-.005.004L5 8.5v4.3a1 1 0 1 1-2 0V10l-.4.3a1 1 0 1 1-1.2-1.6l8.08-6.06a91.607 91.607 0 0 0 .353-.265l.607-.455.073-.055c.262-.198.59-.447.978-.55ZM9.918 3.223l.163.217-.163-.217Zm.65 7.777h2.864c.252 0 .498 0 .706.017.229.019.499.063.77.201a2 2 0 0 1 .874.874c.138.271.182.541.201.77.017.208.017.454.017.706v.032a1 1 0 1 1-2 0c0-.296 0-.459-.01-.575l-.001-.014h-.014A8.207 8.207 0 0 0 13.4 13h-2.8c-.296 0-.459 0-.575.01l-.014.001v.014c-.01.116-.011.278-.011.575a1 1 0 1 1-2 0v-.032c0-.252 0-.498.017-.706a2.03 2.03 0 0 1 .201-.77 2 2 0 0 1 .874-.874 2.03 2.03 0 0 1 .77-.201c.208-.017.454-.017.706-.017Zm-4.922 7.323c-.947-.43-2.185-.43-3.132 0a1 1 0 0 1-.828-1.82c1.473-.67 3.315-.67 4.788 0 .947.43 2.185.43 3.132 0 1.473-.67 3.315-.67 4.788 0 .947.43 2.185.43 3.132 0 1.473-.67 3.315-.67 4.788 0a1 1 0 0 1-.828 1.82c-.947-.43-2.185-.43-3.132 0-1.473.67-3.315.67-4.788 0-.947-.43-2.185-.43-3.132 0-1.473.67-3.315.67-4.788 0Zm7.92 3.5c-.947-.43-2.185-.43-3.132 0-1.473.67-3.315.67-4.788 0a1 1 0 0 1 .828-1.82c.947.43 2.185.43 3.132 0 1.473-.67 3.315-.67 4.788 0 .947.43 2.185.43 3.132 0a1 1 0 0 1 .828 1.82c-1.473.67-3.315.67-4.788 0Z" clip-rule="evenodd"/>
</svg>
