<svg xmlns="http://www.w3.org/2000/svg" width="24" height="24" viewBox="0 0 24 24">
  <path fill-rule="evenodd" d="M10.09 4.055C9.97 4.013 9.813 4 9.022 4H5.2c-.577 0-.949 0-1.232.024-.272.022-.373.06-.422.085a1 1 0 0 0-.437.437c-.025.05-.063.15-.085.422C3.004 5.217 3 5.535 3 6h8.382l-.392-.784c-.353-.707-.435-.841-.526-.93a1 1 0 0 0-.374-.231ZM13.618 6l-.84-1.678a57.167 57.167 0 0 1-.055-.112c-.264-.53-.497-.998-.86-1.353a3 3 0 0 0-1.12-.693c-.48-.166-1.003-.165-1.596-.164H5.162c-.528 0-.982 0-1.357.03-.395.033-.789.104-1.167.297a3 3 0 0 0-1.311 1.311c-.193.378-.264.772-.296 1.167C1 5.18 1 5.635 1 6.16v10.08c0 .805 0 1.47.044 2.01.046.563.145 1.08.392 1.565a4 4 0 0 0 1.748 1.748c.485.247 1.002.346 1.564.392C5.29 22 5.954 22 6.758 22h10.483c.805 0 1.47 0 2.01-.044.563-.046 1.08-.145 1.565-.392a4 4 0 0 0 1.748-1.748c.247-.485.346-1.002.392-1.564.044-.541.044-1.206.044-2.01v-4.483c0-.805 0-1.47-.044-2.01-.046-.563-.145-1.08-.392-1.565a4 4 0 0 0-1.748-1.748c-.485-.247-1.002-.346-1.564-.392C18.71 6 18.046 6 17.242 6h-3.624Zm-.638 2h4.22c.857 0 1.439 0 1.889.038.438.035.663.1.819.18a2 2 0 0 1 .874.874c.08.156.145.38.18.819.037.45.038 1.032.038 1.889v4.4c0 .857 0 1.439-.038 1.889-.035.438-.1.663-.18.819a2 2 0 0 1-.874.874c-.156.08-.38.145-.819.18-.45.037-1.032.038-1.889.038H6.8c-.857 0-1.439 0-1.889-.038-.438-.035-.663-.1-.819-.18a2 2 0 0 1-.874-.874c-.08-.156-.145-.38-.18-.82C3 17.639 3 17.058 3 16.2V8h9.98Zm-3.73 3.75a2.75 2.75 0 1 1 5.5 0v.778c.203.024.43.074.658.19a2 2 0 0 1 .874.874c.138.271.182.541.201.77.017.208.017.454.017.706v.864c0 .252 0 .498-.017.706a2.023 2.023 0 0 1-.201.77 2 2 0 0 1-.874.874 2.022 2.022 0 0 1-.77.201c-.208.017-.454.017-.706.017h-3.864c-.252 0-.498 0-.706-.017a2.022 2.022 0 0 1-.77-.201 2 2 0 0 1-.874-.874 2.022 2.022 0 0 1-.201-.77c-.017-.208-.017-.454-.017-.706v-.864c0-.252 0-.498.017-.706a2.03 2.03 0 0 1 .201-.77 2 2 0 0 1 .874-.874c.228-.116.456-.166.658-.19v-.778Zm2 .75h1.5v-.75a.75.75 0 0 0-1.5 0v.75Zm-1.15 2c-.297 0-.459 0-.575.01l-.014.001v.014c-.01.116-.011.278-.011.575v.8a8.189 8.189 0 0 0 .011.588l.014.002c.116.01.278.01.575.01h3.8a8.207 8.207 0 0 0 .589-.012v-.013c.01-.116.011-.279.011-.575v-.8c0-.297 0-.459-.01-.575l-.001-.014h-.014a8.143 8.143 0 0 0-.575-.011h-3.8Z" clip-rule="evenodd"/>
</svg>
