<svg xmlns="http://www.w3.org/2000/svg" width="24" height="24" viewBox="0 0 24 24">
  <path d="M9.022 3H5.2c-1.12 0-1.68 0-2.108.218a2 2 0 0 0-.874.874C2 4.52 2 5.08 2 6.2V7h11l-1.116-2.231c-.32-.642-.481-.963-.72-1.198a2 2 0 0 0-.748-.462C10.1 3 9.74 3 9.022 3Z" opacity=".2"/>
  <path fill-rule="evenodd" d="M10.09 4.055C9.97 4.013 9.813 4 9.022 4H5.2c-.577 0-.949 0-1.232.024-.272.022-.373.06-.422.085a1 1 0 0 0-.437.437c-.025.05-.063.15-.085.422C3.004 5.217 3 5.535 3 6h8.382l-.392-.784c-.353-.707-.435-.841-.526-.93a1 1 0 0 0-.374-.231ZM13.618 6l-.84-1.678a57.167 57.167 0 0 1-.055-.112c-.264-.53-.497-.998-.86-1.353a3 3 0 0 0-1.12-.693c-.48-.166-1.003-.165-1.596-.164H5.162c-.528 0-.982 0-1.357.03-.395.033-.789.104-1.167.297a3 3 0 0 0-1.311 1.311c-.193.378-.264.772-.296 1.167C1 5.18 1 5.635 1 6.16v10.08c0 .805 0 1.47.044 2.01.046.563.145 1.08.392 1.565a4 4 0 0 0 1.748 1.748c.485.247 1.002.346 1.564.392C5.29 22 5.954 22 6.758 22h10.483c.805 0 1.47 0 2.01-.044.563-.046 1.08-.145 1.565-.392a4 4 0 0 0 1.748-1.748c.247-.485.346-1.002.392-1.564.044-.541.044-1.206.044-2.01v-4.483c0-.805 0-1.47-.044-2.01-.046-.563-.145-1.08-.392-1.565a4 4 0 0 0-1.748-1.748c-.485-.247-1.002-.346-1.564-.392C18.71 6 18.046 6 17.242 6h-3.624Zm-.638 2h4.22c.857 0 1.439 0 1.889.038.438.035.663.1.819.18a2 2 0 0 1 .874.874c.08.156.145.38.18.819.037.45.038 1.032.038 1.889v4.4c0 .857 0 1.439-.038 1.889-.035.438-.1.663-.18.819a2 2 0 0 1-.874.874c-.156.08-.38.145-.819.18-.45.037-1.032.038-1.889.038H6.8c-.857 0-1.439 0-1.889-.038-.438-.035-.663-.1-.819-.18a2 2 0 0 1-.874-.874c-.08-.156-.145-.38-.18-.82C3 17.639 3 17.058 3 16.2V8h9.98Zm.17 1.7 2.186.781a1 1 0 0 1 .664.942v2.502c0 1.54-1.056 2.69-1.86 3.36a9.114 9.114 0 0 1-1.659 1.093l-.034.016-.01.006-.004.001-.002.001L12 17.5l-.43.902h-.003l-.004-.002-.01-.006-.034-.016a8.741 8.741 0 0 1-.5-.276 9.117 9.117 0 0 1-1.16-.817C9.056 16.615 8 15.465 8 13.925v-2.502a1 1 0 0 1 .663-.942L10.85 9.7a3.413 3.413 0 0 1 2.3 0ZM12 17.5l-.43.902c.271.13.588.13.86 0L12 17.5Zm0-1.142c.244-.148.554-.354.86-.609.697-.581 1.14-1.218 1.14-1.824v-1.798l-1.524-.544a1.413 1.413 0 0 0-.952 0L10 12.127v1.798c0 .606.444 1.243 1.14 1.824.306.255.616.461.86.61Z" clip-rule="evenodd"/>
</svg>
