<svg xmlns="http://www.w3.org/2000/svg" width="24" height="24" viewBox="0 0 24 24">
  <path d="M22.75 5h-9.94a.248.248 0 0 1-.176-.073l-2.56-2.56A1.242 1.242 0 0 0 9.188 2H2.25A1.251 1.251 0 0 0 1 3.25v16.5A1.252 1.252 0 0 0 2.25 21h20.5A1.252 1.252 0 0 0 24 19.75V6.25A1.252 1.252 0 0 0 22.75 5Zm-6.466 8.785c-.597.795-1.671 1.756-3.484 3.115a.5.5 0 0 1-.6 0c-1.813-1.36-2.887-2.32-3.484-3.115C8.118 12.99 8 12.38 8 11.654A2.657 2.657 0 0 1 10.654 9c.69 0 1.351.268 1.846.748A2.646 2.646 0 0 1 14.346 9 2.657 2.657 0 0 1 17 11.654c0 .727-.12 1.338-.716 2.13Z"/>
</svg>
