<svg xmlns="http://www.w3.org/2000/svg" width="24" height="24" viewBox="0 0 24 24">
  <path d="M24 6.25v13.5A1.252 1.252 0 0 1 22.75 21H2.25A1.252 1.252 0 0 1 1 19.75V3.25A1.251 1.251 0 0 1 2.25 2h6.94a1.242 1.242 0 0 1 .883.366l2.56 2.56a.248.248 0 0 0 .178.074h9.939A1.252 1.252 0 0 1 24 6.25Zm-7.344 5.77a.5.5 0 0 0-.403-.341l-2.284-.332-1.02-2.068a.5.5 0 0 0-.897 0l-1.02 2.068-2.284.332a.5.5 0 0 0-.277.852l1.652 1.61-.391 2.273a.5.5 0 0 0 .726.527L12.5 15.87l2.042 1.073a.5.5 0 0 0 .725-.526l-.39-2.274 1.651-1.61a.5.5 0 0 0 .128-.513Z"/>
</svg>
