<svg xmlns="http://www.w3.org/2000/svg" width="24" height="24" viewBox="0 0 24 24">
  <path fill-rule="evenodd" d="M10.09 4.055C9.97 4.013 9.813 4 9.022 4H5.2c-.577 0-.949 0-1.232.024-.272.022-.373.06-.422.085a1 1 0 0 0-.437.437c-.025.05-.063.15-.085.422C3 5.25 3 5.623 3 6.2V7a1 1 0 1 1-2 0v-.839c0-.527 0-.981.03-1.356.033-.395.104-.789.297-1.167a3 3 0 0 1 1.311-1.311c.378-.193.772-.264 1.167-.296C4.18 2 4.635 2 5.161 2h3.986c.593 0 1.115-.002 1.595.164a3 3 0 0 1 1.121.693c.363.355.596.822.86 1.353l.056.112 1.115 2.23a1 1 0 1 1-1.788.895l-1.116-2.23c-.353-.708-.435-.842-.526-.931a1 1 0 0 0-.374-.231Z" clip-rule="evenodd" opacity=".5"/>
  <path fill-rule="evenodd" d="M19.089 8.038C18.639 8 18.057 8 17.2 8H3v8.2c0 .857 0 1.439.038 1.889.035.438.1.663.18.819a2 2 0 0 0 .874.874c.156.08.38.145.819.18C5.361 20 5.943 20 6.8 20h10.4c.857 0 1.439 0 1.889-.038.438-.035.663-.1.819-.18a2 2 0 0 0 .874-.874c.08-.156.145-.38.18-.819.037-.45.038-1.032.038-1.889v-4.4c0-.857 0-1.439-.038-1.889-.035-.438-.1-.663-.18-.819a2 2 0 0 0-.874-.874c-.156-.08-.38-.145-.819-.18Zm.163-1.994c.562.046 1.079.145 1.564.392a4 4 0 0 1 1.748 1.748c.247.485.346 1.002.392 1.564.044.541.044 1.206.044 2.01v4.483c0 .805 0 1.47-.044 2.01-.046.563-.145 1.08-.392 1.565a4 4 0 0 1-1.748 1.748c-.485.247-1.002.346-1.564.392-.541.044-1.206.044-2.01.044H6.758c-.805 0-1.47 0-2.01-.044-.563-.046-1.08-.145-1.565-.392a4 4 0 0 1-1.748-1.748c-.247-.485-.346-1.002-.392-1.564C1 17.71 1 17.046 1 16.242V7a1 1 0 0 1 1-1h15.241c.805 0 1.47 0 2.01.044ZM9.25 11.75a2.75 2.75 0 1 1 5.5 0v.778c.203.024.43.074.658.19a2 2 0 0 1 .874.874c.138.271.182.541.201.77.017.208.017.454.017.706v.864c0 .252 0 .498-.017.706a2.022 2.022 0 0 1-.201.77 2 2 0 0 1-.874.874 2.022 2.022 0 0 1-.77.201c-.208.017-.454.017-.706.017h-3.864c-.252 0-.498 0-.706-.017a2.022 2.022 0 0 1-.77-.201 2 2 0 0 1-.874-.874 2.022 2.022 0 0 1-.201-.77c-.017-.208-.017-.454-.017-.706v-.864c0-.252 0-.498.017-.706a2.03 2.03 0 0 1 .201-.77 2 2 0 0 1 .874-.874c.228-.116.456-.166.658-.19v-.778Zm2 .75h1.5v-.75a.75.75 0 0 0-1.5 0v.75Zm-1.15 2c-.297 0-.459 0-.575.01l-.014.001v.014c-.01.116-.011.278-.011.575v.8a8.194 8.194 0 0 0 .011.589h.014c.116.01.278.011.575.011h3.8c.296 0 .459 0 .575-.01l.014-.001v-.014c.01-.116.011-.279.011-.575v-.8c0-.296 0-.459-.01-.575l-.001-.014h-.014a8.207 8.207 0 0 0-.575-.011h-3.8Z" clip-rule="evenodd"/>
</svg>
