<svg xmlns="http://www.w3.org/2000/svg" width="24" height="24" viewBox="0 0 24 24">
  <path fill-rule="evenodd" d="M4.293 14.793a1 1 0 0 1 1.414 0L11 20.086V15.5a1 1 0 1 1 2 0v7a1 1 0 0 1-1.707.707l-7-7a1 1 0 0 1 0-1.414Z" clip-rule="evenodd" opacity=".5"/>
  <path fill-rule="evenodd" d="M4.076 1.117A1 1 0 0 1 5 .5h14a1 1 0 0 1 1 1v7a1 1 0 0 1-1 1h-4.586l5.293 5.293A1 1 0 0 1 19 16.5H5a1 1 0 0 1-1-1v-7a1 1 0 0 1 1-1h4.586L4.293 2.207a1 1 0 0 1-.217-1.09ZM12.414 7.5H18v-5H7.414l5 5Zm-.828 2H6v5h10.586l-5-5Z" clip-rule="evenodd"/>
</svg>
