<svg xmlns="http://www.w3.org/2000/svg" width="24" height="24" viewBox="0 0 24 24">
  <path fill-rule="evenodd" d="M11.597 1.185a2 2 0 0 1 .806 0c.307.063.582.217.8.34l.06.032 7.4 4.112.063.034c.23.128.522.288.745.53.193.21.339.458.428.728.103.313.102.644.101.908v.072a1 1 0 0 1-1.774.633L13 12.588v4.87a1 1 0 1 1-2 0v-4.87L4 8.7v7.36c0 .182 0 .276.005.344v.006l.005.003c.057.036.139.082.299.171l.02.012 5.178 3.043a1 1 0 1 1-1.014 1.724l-5.166-3.036-.053-.03c-.23-.127-.522-.287-.745-.53a2 2 0 0 1-.428-.727c-.103-.313-.102-.645-.101-.908V7.869c-.001-.264-.002-.595.101-.908a2 2 0 0 1 .428-.728c.223-.242.514-.402.745-.53l.063-.034 7.4-4.112.06-.033c.218-.122.493-.276.8-.34ZM5.06 7l6.65-3.694a6.574 6.574 0 0 1 .29-.157 6.574 6.574 0 0 1 .291.157L18.941 7 12 10.856 5.06 7ZM20 14a1 1 0 1 0 0 2 1 1 0 0 0 0-2Zm-3 1a3 3 0 1 1 1.707 2.708L16.914 19.5l1.293 1.293a1 1 0 0 1-1.414 1.414L15.5 20.914l-1.793 1.793a1 1 0 0 1-1.414-1.414l5-5A2.988 2.988 0 0 1 17 15Z" clip-rule="evenodd"/>
</svg>
