<svg xmlns="http://www.w3.org/2000/svg" width="24" height="24" viewBox="0 0 24 24">
  <path d="M13.551 5H10.45c-2.625 0-3.937 0-4.968.497A5 5 0 0 0 3.32 7.511c-.57.992-.663 2.3-.85 4.919l-.246 3.444a2.918 2.918 0 0 0 5.152 2.076l.375-.45c.343-.412.515-.618.71-.784a3 3 0 0 1 1.436-.672c.252-.044.52-.044 1.057-.044h2.095c.536 0 .803 0 1.056.044a3 3 0 0 1 1.436.672c.195.166.367.372.71.784l.375.45a2.918 2.918 0 0 0 5.152-2.075l-.246-3.445c-.187-2.618-.28-3.927-.85-4.92a5 5 0 0 0-2.162-2.013C17.489 5 16.176 5 13.55 5Z" opacity=".2"/>
  <path fill-rule="evenodd" d="M10.407 4h3.186c1.277 0 2.294 0 3.119.065.846.067 1.57.207 2.241.532a6 6 0 0 1 2.595 2.416c.371.647.563 1.359.69 2.198.124.818.196 1.832.287 3.106l.25 3.486a3.918 3.918 0 0 1-6.918 2.787l-.375-.45c-.366-.438-.475-.565-.59-.663a2 2 0 0 0-.957-.448c-.15-.026-.317-.029-.888-.029h-2.094c-.571 0-.739.003-.887.03a2 2 0 0 0-.958.447c-.115.098-.224.225-.59.663l-.375.45a3.918 3.918 0 0 1-6.917-2.787l.249-3.486c.09-1.274.163-2.288.287-3.106.127-.84.319-1.551.69-2.198a6 6 0 0 1 2.595-2.416c.672-.325 1.395-.465 2.241-.532C8.113 4 9.13 4 10.407 4Zm-2.96 2.06c-.725.056-1.173.165-1.53.338a4 4 0 0 0-1.73 1.61c-.198.345-.339.784-.447 1.502-.111.73-.179 1.666-.273 2.991l-.246 3.445a1.918 1.918 0 0 0 3.386 1.364l.375-.45.048-.058c.296-.356.52-.624.782-.847a4 4 0 0 1 1.914-.897c.339-.058.688-.058 1.152-.058h2.244c.464 0 .813 0 1.152.058a4 4 0 0 1 1.914.897c.262.223.486.491.782.847l.048.058.375.45a1.917 1.917 0 0 0 3.386-1.364l-.246-3.445c-.094-1.325-.162-2.26-.273-2.99-.108-.719-.249-1.158-.447-1.503a4 4 0 0 0-1.73-1.61c-.357-.173-.805-.282-1.53-.339C15.818 6.001 14.88 6 13.552 6H10.45c-1.328 0-2.266 0-3.003.06ZM8 8a1 1 0 0 1 1 1v1h1a1 1 0 1 1 0 2H9v1a1 1 0 1 1-2 0v-1H6a1 1 0 1 1 0-2h1V9a1 1 0 0 1 1-1Zm9 2a1 1 0 0 1 1-1h.01a1 1 0 1 1 0 2H18a1 1 0 0 1-1-1Zm-3 2a1 1 0 0 1 1-1h.01a1 1 0 1 1 0 2H15a1 1 0 0 1-1-1Z" clip-rule="evenodd"/>
</svg>
