<svg xmlns="http://www.w3.org/2000/svg" width="24" height="24" fill="currentColor" viewBox="0 0 24 24">
  <path fill-rule="evenodd" d="M7.5 3a1.5 1.5 0 0 0 0 3h3.154a8.208 8.208 0 0 0-.468-1.018C9.557 3.838 8.694 3 7.5 3ZM11 8v5H3v-2.8c0-.577 0-.949.024-1.232.022-.272.06-.373.085-.422a1 1 0 0 1 .437-.437c.05-.025.15-.063.422-.085C4.25 8 4.623 8 5.2 8H11ZM4.34 6.005A3.5 3.5 0 0 1 7.5 1c2.306 0 3.693 1.662 4.439 3.018l.061.113.061-.113C12.807 2.662 14.194 1 16.5 1a3.5 3.5 0 0 1 3.16 5.005c.193.005.372.012.535.026.395.032.789.103 1.167.296a3 3 0 0 1 1.311 1.311c.193.378.264.772.296 1.167.031.375.031.83.031 1.356v8.678c0 .527 0 .982-.03 1.356-.033.395-.104.789-.297 1.167a3 3 0 0 1-1.311 1.311c-.378.193-.772.264-1.167.296-.375.031-.83.031-1.356.031H5.16c-.527 0-.981 0-1.356-.03-.395-.033-.789-.104-1.167-.297a3 3 0 0 1-1.311-1.311c-.193-.378-.264-.772-.296-1.167C1 19.82 1 19.365 1 18.838v-8.677c0-.527 0-.981.03-1.356.033-.395.104-.789.297-1.167a3 3 0 0 1 1.311-1.311c.378-.193.772-.264 1.167-.296.163-.014.342-.021.535-.026ZM3 15v3.8c0 .577 0 .949.024 1.232.022.272.06.372.085.422a1 1 0 0 0 .437.437c.05.025.15.063.422.085C4.25 21 4.623 21 5.2 21H11v-6H3Zm10 0v6h5.8c.577 0 .949 0 1.232-.024.272-.022.372-.06.422-.085a1 1 0 0 0 .437-.437c.025-.05.063-.15.085-.422C21 19.75 21 19.377 21 18.8V15h-8Zm8-2v-2.8c0-.577 0-.949-.024-1.232-.022-.272-.06-.373-.085-.422a1 1 0 0 0-.437-.437c-.05-.025-.15-.063-.422-.085C19.75 8 19.377 8 18.8 8H13v5h8Zm-7.654-7c.122-.32.277-.67.468-1.018C14.443 3.838 15.306 3 16.5 3a1.5 1.5 0 0 1 0 3h-3.154Z" clip-rule="evenodd"/>
</svg>
