<svg xmlns="http://www.w3.org/2000/svg" width="24" height="24" viewBox="0 0 24 24">
  <path fill-rule="evenodd" d="M8.464 3c-.25 0-.493.1-.675.286A1.019 1.019 0 0 0 7.5 4c0 .271.106.527.289.714A.947.947 0 0 0 8.464 5h2.17a6.117 6.117 0 0 0-.25-.525C9.898 3.575 9.274 3 8.464 3ZM11 7v15a1 1 0 1 0 2 0V7h2.536c.792 0 1.548-.32 2.102-.885A3.018 3.018 0 0 0 18.5 4c0-.79-.308-1.551-.862-2.115A2.946 2.946 0 0 0 15.536 1C13.74 1 12.627 2.218 12 3.272 11.373 2.218 10.259 1 8.464 1c-.792 0-1.548.32-2.102.885A3.019 3.019 0 0 0 5.5 4c0 .79.308 1.551.862 2.115.554.564 1.31.885 2.102.885H11Zm2.366-2h2.17c.25 0 .493-.1.675-.286A1.02 1.02 0 0 0 16.5 4a1.02 1.02 0 0 0-.289-.714.947.947 0 0 0-.675-.286c-.81 0-1.434.576-1.92 1.475a6.117 6.117 0 0 0-.25.525Z" clip-rule="evenodd" opacity=".5"/>
  <path fill-rule="evenodd" d="M3.568 5h16.864c.252 0 .498 0 .706.017.229.019.499.063.77.201a2 2 0 0 1 .874.874c.138.271.182.541.201.77.017.208.017.454.017.706v1.864c0 .252 0 .498-.017.706a2.022 2.022 0 0 1-.201.77 2 2 0 0 1-.874.874 2.022 2.022 0 0 1-.77.201c-.044.004-.09.006-.138.009v6.847c0 .527 0 .982-.03 1.356-.033.395-.104.789-.297 1.167a3 3 0 0 1-1.311 1.311c-.378.193-.772.264-1.167.296-.375.031-.83.031-1.356.031H7.16c-.527 0-.981 0-1.356-.03-.395-.033-.789-.104-1.167-.297a3 3 0 0 1-1.311-1.311c-.193-.378-.264-.772-.296-1.167C3 19.82 3 19.365 3 18.838v-6.846a4.277 4.277 0 0 1-.138-.009 2.022 2.022 0 0 1-.77-.201 2 2 0 0 1-.874-.874 2.022 2.022 0 0 1-.201-.77C1 9.93 1 9.684 1 9.432V7.568c0-.252 0-.498.017-.706a2.03 2.03 0 0 1 .201-.77 2 2 0 0 1 .874-.874 2.03 2.03 0 0 1 .77-.201C3.07 5 3.316 5 3.568 5ZM5 12v6.8c0 .577 0 .949.024 1.232.022.272.06.372.085.422a1 1 0 0 0 .437.437c.05.025.15.063.422.085C6.25 21 6.623 21 7.2 21h9.6c.577 0 .949 0 1.232-.024.272-.022.373-.06.422-.085a1 1 0 0 0 .437-.437c.025-.05.063-.15.085-.422C19 19.75 19 19.377 19 18.8V12H5Zm-1.4-2a8.186 8.186 0 0 1-.589-.011v-.014A8.186 8.186 0 0 1 3 9.4V7.6a8.186 8.186 0 0 1 .011-.589h.014C3.14 7 3.303 7 3.6 7h16.8a8.187 8.187 0 0 1 .588.011l.002.014c.01.116.01.278.01.575v1.8c0 .297 0 .459-.01.575l-.001.014h-.014c-.116.01-.279.011-.575.011H3.6Z" clip-rule="evenodd"/>
</svg>
