<svg xmlns="http://www.w3.org/2000/svg" width="24" height="24" viewBox="0 0 24 24">
  <path d="M18 11a3 3 0 1 0 0-6 3 3 0 0 0 0 6Zm0 10a3 3 0 1 0 0-6 3 3 0 0 0 0 6Z" opacity=".2"/>
  <path fill-rule="evenodd" d="M3 2a1 1 0 0 1 1 1v4h10.126A4.002 4.002 0 0 1 22 8a4 4 0 0 1-7.874 1H4v4.2c0 .857 0 1.439.038 1.889.035.438.1.663.18.819a2 2 0 0 0 .874.874c.156.08.38.145.819.18C6.361 17 6.943 17 7.8 17h6.326A4.002 4.002 0 0 1 22 18a4 4 0 0 1-7.874 1H7.759c-.805 0-1.47 0-2.01-.044-.563-.046-1.08-.145-1.565-.392a4 4 0 0 1-1.748-1.748c-.247-.485-.346-1.002-.392-1.564C2 14.71 2 14.046 2 13.242V3a1 1 0 0 1 1-1Zm15 4a2 2 0 1 0 0 4 2 2 0 0 0 0-4Zm0 10a2 2 0 1 0 0 4 2 2 0 0 0 0-4Z" clip-rule="evenodd"/>
</svg>
