<svg xmlns="http://www.w3.org/2000/svg" width="24" height="24" viewBox="0 0 24 24">
  <path d="M8.828 12.172a4 4 0 1 1-5.656 5.656 4 4 0 0 1 5.656-5.656Zm12 0a4 4 0 1 1-5.656 5.656 4 4 0 0 1 5.656-5.656Z" opacity=".2"/>
  <path fill-rule="evenodd" d="M5.96 4H6a1 1 0 1 1 0 2c-.285 0-.372 0-.44.006a2 2 0 0 0-1.814 1.642 6.791 6.791 0 0 0-.05.437l-.262 2.622a5.002 5.002 0 0 1 7.225 2.475 5.018 5.018 0 0 1 2.682 0 5.002 5.002 0 0 1 7.225-2.475l-.262-2.622a6.772 6.772 0 0 0-.05-.437 2 2 0 0 0-1.815-1.642A6.782 6.782 0 0 0 18 6a1 1 0 1 1 0-2h.04c.228 0 .399 0 .554.012a4 4 0 0 1 3.629 3.284c.027.153.044.323.067.55l.62 6.21a5.031 5.031 0 0 1 .09.96 5 5 0 0 1-9.997.156 3.016 3.016 0 0 0-2.006 0 5 5 0 1 1-9.908-1.115l.617-6.171.004-.04c.023-.227.04-.397.067-.55a4 4 0 0 1 3.63-3.284C5.56 4 5.731 4 5.96 4ZM3 15.046a3 3 0 1 0 .069-.689l-.069.69Zm17.93-.689.07.69a3 3 0 1 1-.069-.689Z" clip-rule="evenodd"/>
</svg>
