<svg xmlns="http://www.w3.org/2000/svg" width="24" height="24" viewBox="0 0 24 24">
  <path d="M22 16a.99.99 0 0 1-.99-.9l-.7-7.02c-.03-.25-.03-.35-.05-.44-.16-.9-.91-1.57-1.81-1.64h-.44c-.55 0-1-.45-1-1s.45-1 1-1c.31 0 .46 0 .59.01a3.996 3.996 0 0 1 3.69 3.79l.71 7.09a1 1 0 0 1-.9 1.09H22V16ZM2 16h-.1c-.55-.06-.95-.54-.9-1.09l.71-7.02c.03-.33.05-.47.07-.59.32-1.8 1.81-3.15 3.63-3.29C5.54 4 5.7 4 6 4c.55 0 1 .45 1 1s-.45 1-1 1h-.44c-.91.07-1.65.75-1.81 1.64-.02.09-.02.18-.04.36L3 15.09c-.05.52-.49.9-.99.9L2 16Z" opacity=".5"/>
  <path d="M18 20a4.994 4.994 0 0 1-5-4.82c-.65-.23-1.36-.23-2.01 0a4.954 4.954 0 0 1-1.46 3.36c-.94.94-2.2 1.46-3.54 1.46-1.34 0-2.59-.52-3.54-1.46C1.52 17.59 1 16.34 1 15c0-1.34.52-2.59 1.46-3.54C3.4 10.51 4.66 10 6 10c1.34 0 2.59.52 3.54 1.46.5.5.88 1.08 1.13 1.72.88-.24 1.8-.24 2.68 0 .25-.64.63-1.22 1.13-1.72.94-.94 2.2-1.46 3.54-1.46 1.34 0 2.59.52 3.54 1.46.94.94 1.46 2.2 1.46 3.54 0 1.34-.52 2.59-1.46 3.54-.94.94-2.2 1.46-3.54 1.46H18Zm0-8c-.8 0-1.55.31-2.12.88-.57.57-.88 1.32-.88 2.12s.31 1.55.88 2.12c1.13 1.13 3.11 1.13 4.24 0 .57-.57.88-1.32.88-2.12s-.31-1.55-.88-2.12C19.55 12.31 18.8 12 18 12ZM6 12c-.8 0-1.55.31-2.12.88C3.31 13.45 3 14.2 3 15s.31 1.55.88 2.12c1.13 1.13 3.11 1.13 4.24 0C8.69 16.55 9 15.8 9 15s-.31-1.55-.88-2.12C7.55 12.31 6.8 12 6 12Z"/>
</svg>
