<svg xmlns="http://www.w3.org/2000/svg" width="24" height="24" viewBox="0 0 24 24">
  <path d="M6 17c-1.34 0-2.59-.52-3.54-1.46-1.95-1.96-1.95-5.13 0-7.08a5.003 5.003 0 0 1 7.07 0c.5.5.88 1.09 1.12 1.72.88-.24 1.81-.24 2.68 0 .24-.63.62-1.21 1.12-1.72a5.003 5.003 0 0 1 7.07 0 5.003 5.003 0 0 1 0 7.07 5.003 5.003 0 0 1-7.07 0 4.974 4.974 0 0 1-1.46-3.36c-.65-.23-1.36-.23-2.01 0a4.974 4.974 0 0 1-1.46 3.36 5 5 0 0 1-3.54 1.46L6 17Zm0-8c-.77 0-1.54.29-2.12.88a3 3 0 0 0 0 4.24c1.13 1.13 3.11 1.13 4.24 0A3 3 0 0 0 6 9Zm12 0c-.77 0-1.54.29-2.12.88a3 3 0 0 0 0 4.24 3 3 0 0 0 4.24 0A3 3 0 0 0 18 9Z"/>
</svg>
