<svg xmlns="http://www.w3.org/2000/svg" width="24" height="24" viewBox="0 0 24 24">
  <path d="M8.828 9.172a4 4 0 1 1-5.657 5.656 4 4 0 0 1 5.657-5.656Zm12 0a4 4 0 1 1-5.656 5.656 4 4 0 0 1 5.656-5.656Z" opacity=".2"/>
  <path fill-rule="evenodd" d="M6 17c-1.34 0-2.59-.52-3.54-1.46C1.52 14.6 1 13.34 1 12c0-1.34.52-2.59 1.46-3.54C3.4 7.51 4.66 7 6 7a4.994 4.994 0 0 1 4.66 3.174 5.035 5.035 0 0 1 2.681 0A5.043 5.043 0 0 1 14.46 8.46C15.4 7.51 16.66 7 18 7c1.34 0 2.59.52 3.54 1.46.94.94 1.46 2.2 1.46 3.54 0 1.34-.52 2.59-1.46 3.54-.94.94-2.2 1.46-3.54 1.46-1.34 0-2.59-.52-3.54-1.46a4.972 4.972 0 0 1-1.457-3.367 3.03 3.03 0 0 0-2.006 0A4.992 4.992 0 0 1 9.54 15.54C8.6 16.48 7.34 17 6 17Zm0-8c-.8 0-1.55.31-2.12.88C3.31 10.45 3 11.2 3 12s.31 1.55.88 2.12c1.13 1.13 3.11 1.13 4.24 0C8.69 13.55 9 12.8 9 12s-.31-1.55-.88-2.12C7.55 9.31 6.8 9 6 9Zm12 0c-.8 0-1.55.31-2.12.88-.57.57-.88 1.32-.88 2.12s.31 1.55.88 2.12c1.13 1.13 3.11 1.13 4.24 0 .57-.57.88-1.32.88-2.12s-.31-1.55-.88-2.12C19.55 9.31 18.8 9 18 9Z" clip-rule="evenodd"/>
</svg>
