<svg xmlns="http://www.w3.org/2000/svg" width="24" height="24" viewBox="0 0 24 24">
  <path d="M14 12.53c-.17 0-.34-.04-.5-.13-.93-.53-2.07-.53-3 0-.48.28-1.09.11-1.37-.37s-.11-1.09.37-1.37c1.54-.89 3.46-.89 5 0 .48.28.64.89.37 1.37-.19.32-.52.5-.87.5Z" opacity=".5"/>
  <path fill-rule="evenodd" d="M2.46 15.54C3.41 16.48 4.66 17 6 17c1.34 0 2.6-.52 3.54-1.46.94-.95 1.46-2.2 1.46-3.54 0-1.34-.52-2.6-1.46-3.54C8.59 7.52 7.34 7 6 7c-1.34 0-2.6.51-3.54 1.46S1 10.66 1 12c0 1.34.52 2.6 1.46 3.54Zm1.42-5.66C4.45 9.31 5.2 9 6 9s1.55.31 2.12.88c.57.57.88 1.32.88 2.12s-.31 1.55-.88 2.12c-1.13 1.13-3.11 1.13-4.24 0C3.31 13.55 3 12.8 3 12s.31-1.55.88-2.12Zm10.58 5.66c.95.94 2.2 1.46 3.54 1.46 1.34 0 2.6-.52 3.54-1.46.94-.95 1.46-2.2 1.46-3.54 0-1.34-.52-2.6-1.46-3.54C20.59 7.52 19.34 7 18 7c-1.34 0-2.6.51-3.54 1.46S13 10.66 13 12c0 1.34.52 2.6 1.46 3.54Zm1.42-5.66C16.45 9.31 17.2 9 18 9s1.55.31 2.12.88c.57.57.88 1.32.88 2.12s-.31 1.55-.88 2.12c-1.13 1.13-3.11 1.13-4.24 0-.57-.57-.88-1.32-.88-2.12s.31-1.55.88-2.12Z" clip-rule="evenodd"/>
</svg>
