<svg xmlns="http://www.w3.org/2000/svg" width="24" height="24" viewBox="0 0 24 24">
  <path d="M14.572 18c.156 0 .235 0 .306-.022a.5.5 0 0 0 .172-.092c.057-.047.1-.112.188-.242l1.229-1.844c.183-.275.274-.412.283-.546a.5.5 0 0 0-.098-.33c-.08-.108-.233-.173-.536-.303L13.5 13.5l-.842-.28c-.233-.078-.35-.117-.458-.106a.5.5 0 0 0-.26.108c-.085.069-.14.178-.25.399l-.542 1.083c-.054.109-.082.164-.095.221a.5.5 0 0 0-.011.156c.005.06.024.117.063.233l.713 2.139c.065.197.098.295.159.368a.5.5 0 0 0 .2.144c.089.035.192.035.4.035h1.995ZM14.27 2.945c.016-.239.024-.359-.017-.463a.524.524 0 0 0-.18-.228c-.092-.064-.202-.082-.421-.118A9.995 9.995 0 0 0 3.408 6.88c-.115.193-.173.29-.184.403a.524.524 0 0 0 .06.287c.055.1.154.17.352.311l3.728 2.664c.223.159.335.239.452.257a.5.5 0 0 0 .3-.046c.106-.053.189-.163.353-.382l.906-1.208c.047-.063.07-.094.097-.12a.5.5 0 0 1 .08-.064c.032-.02.068-.036.138-.068l3.869-1.719c.16-.071.24-.107.301-.162a.5.5 0 0 0 .123-.177c.032-.076.038-.164.05-.339l.238-3.573Z" opacity=".2"/>
  <path d="M12 23C5.93 23 1 18.07 1 12c0-1.76.41-3.42 1.15-4.89.02-.05.05-.1.08-.16C4.06 3.42 7.75 1 12 1c.86 0 1.69.1 2.49.28.04 0 .08.02.11.03C19.41 2.48 23 6.83 23 12c0 6.07-4.93 11-11 11ZM3.51 9.02C3.18 9.95 3 10.96 3 12c0 4.96 4.04 9 9 9s9-4.04 9-9c0-3.83-2.4-7.1-5.77-8.4l-.2 2.99c-.02.23-.03.43-.12.65-.08.2-.21.38-.37.53-.18.17-.36.25-.57.34l-3.83 1.7-.87 1.17c-.21.28-.39.52-.71.68-.28.14-.59.19-.91.14-.35-.05-.59-.23-.87-.43L3.5 9.03l.01-.01Zm.89-1.83 3.39 2.42.79-1.05c.1-.13.15-.19.2-.24.05-.05.13-.12.23-.18.07-.05.14-.08.28-.15l3.76-1.67.22-3.24c-.41-.06-.83-.09-1.26-.09-3.2 0-6.01 1.68-7.61 4.19v.01ZM14.58 19h-2c-.27 0-.5 0-.77-.11-.23-.09-.44-.24-.6-.43-.18-.21-.25-.43-.34-.69l-.71-2.14c-.05-.16-.1-.29-.11-.47-.01-.16 0-.32.03-.47.04-.17.1-.29.17-.44l.54-1.08c.14-.28.26-.53.52-.73.23-.18.5-.29.79-.32.32-.03.57.05.87.15l.85.29s.05.02.08.03l2.62 1.12c.39.17.7.3.94.62.21.29.32.64.3.99-.03.41-.21.69-.45 1.04l-1.23 1.84c-.12.17-.21.32-.39.46-.15.12-.32.22-.51.27-.22.07-.4.07-.6.07Zm-1.85-2h1.74l1.04-1.55-2.36-1.01-.64-.21-.44.87.65 1.91.01-.01Z"/>
</svg>
