<svg xmlns="http://www.w3.org/2000/svg" width="24" height="24" viewBox="0 0 24 24">
  <path d="M12 23C5.93 23 1 18.07 1 12c0-1.76.41-3.42 1.15-4.89.02-.05.05-.1.08-.16C4.06 3.42 7.75 1 12 1c.86 0 1.69.1 2.49.28.04 0 .08.02.11.03C19.41 2.48 23 6.83 23 12c0 6.07-4.93 11-11 11ZM3.51 9.02C3.18 9.95 3 10.96 3 12c0 4.96 4.04 9 9 9s9-4.04 9-9c0-3.83-2.4-7.1-5.77-8.4l-.2 2.99c-.02.23-.03.43-.12.65-.08.2-.21.38-.37.53-.18.17-.36.25-.57.34l-3.83 1.7-.87 1.17c-.21.28-.39.52-.71.68-.28.14-.59.19-.91.14-.35-.05-.59-.23-.87-.43L3.5 9.03l.01-.01Zm.89-1.83 3.39 2.42.79-1.05c.1-.13.15-.19.2-.24.05-.05.13-.12.23-.18.07-.05.14-.08.28-.15l3.76-1.67.22-3.24c-.41-.06-.83-.09-1.26-.09-3.2 0-6.01 1.68-7.61 4.19v.01ZM14.58 19h-2c-.27 0-.5 0-.77-.11-.23-.09-.44-.24-.6-.43-.18-.21-.25-.43-.34-.69l-.71-2.14c-.05-.16-.1-.29-.11-.47-.01-.16 0-.32.03-.47.04-.17.1-.29.17-.44l.54-1.08c.14-.28.26-.53.52-.73.23-.18.5-.29.79-.32.32-.03.57.05.87.15l.85.29s.05.02.08.03l2.62 1.12c.39.17.7.3.94.62.21.29.32.64.3.99-.03.41-.21.69-.45 1.04l-1.23 1.84c-.12.17-.21.32-.39.46-.15.12-.32.22-.51.27-.22.07-.4.07-.6.07Zm-1.85-2h1.74l1.04-1.55-2.36-1.01-.64-.21-.44.87.65 1.91.01-.01Z"/>
</svg>
