<svg xmlns="http://www.w3.org/2000/svg" width="24" height="24" viewBox="0 0 24 24">
  <path fill-rule="evenodd" d="M3.003 11.781A9.004 9.004 0 0 0 9.5 20.648v-.963a1.5 1.5 0 0 1 .361-.976l.76.65.02.019m-.02-.018-.76-.651 2.092-2.441-2.33-1.332a1.501 1.501 0 0 1-.56-.559l.87-.496-.87.496-1.702-2.984-4.358.388m-1.934-1.019C1.023 11.168 1 11.582 1 12c0 5.515 4.059 10.082 9.352 10.877.538.081 1.088.123 1.648.123 6.075 0 11-4.925 11-11 0-1.749-.409-3.404-1.137-4.874A4.74 4.74 0 0 0 22 6a5 5 0 0 0-6.998-4.585A11.007 11.007 0 0 0 12 1C6.354 1 1.701 5.254 1.072 10.732a.97.97 0 0 0-.003.03Zm2.215-1.014a9.004 9.004 0 0 1 9.678-6.697A4.978 4.978 0 0 0 12 6c0 1.422.647 2.636 1.458 3.689.674.876 1.538 1.731 2.37 2.557l.465.461a1 1 0 0 0 1.414 0l.464-.461c.833-.826 1.697-1.681 2.371-2.557.04-.051.078-.102.116-.154A9 9 0 0 1 11.5 20.986V19.87l2.366-2.76a1.5 1.5 0 0 0-.395-2.278l-2.738-1.565-1.794-3.144a1.5 1.5 0 0 0-1.436-.75l-4.219.375ZM17 3a3 3 0 0 0-3 3c0 .788.353 1.573 1.042 2.468.536.695 1.208 1.377 1.958 2.122.75-.745 1.422-1.427 1.958-2.122C19.647 7.573 20 6.788 20 6a3 3 0 0 0-3-3Zm-1.25 2.75a1.25 1.25 0 1 1 2.5 0 1.25 1.25 0 0 1-2.5 0Z" clip-rule="evenodd"/>
</svg>
