<svg xmlns="http://www.w3.org/2000/svg" width="24" height="24" viewBox="0 0 24 24">
  <path fill-rule="evenodd" d="M7.444 2.007a1 1 0 0 1 1.393.244l3.19 4.54a1.5 1.5 0 0 1 .068 1.62l-1.826 3.126.014 3.153a1.5 1.5 0 0 1-1.776 1.48l-3.572-.668-1.748 1.01a1 1 0 0 1-1-1.733l1.908-1.101a1.5 1.5 0 0 1 1.026-.176l3.16.591-.012-2.684a1.5 1.5 0 0 1 .205-.763l1.732-2.967L7.201 3.4a1 1 0 0 1 .243-1.394Zm12.458 2.42a1 1 0 0 1-.469 1.334c-1.274.611-1.953 1.225-2.299 1.738-.331.492-.39.94-.332 1.337.062.422.268.834.532 1.18.276.361.54.553.613.59.801.4 1.803.63 2.649.757a14.17 14.17 0 0 0 1.323.134l.074.003h.017l-.023 1-.024 1a1 1 0 0 0 .047-2m-.023 1-.024 1h-.012l-.028-.002-.098-.004a16.113 16.113 0 0 1-1.525-.154c-.929-.138-2.17-.407-3.247-.945-.427-.214-.913-.647-1.308-1.165-.408-.534-.797-1.256-.922-2.101-.128-.87.031-1.825.653-2.747.607-.902 1.616-1.716 3.091-2.424a1 1 0 0 1 1.335.468" clip-rule="evenodd" opacity=".5"/>
  <path fill-rule="evenodd" d="M12 3a9 9 0 1 0 .45 17.989 1 1 0 0 1 .1 1.997A11.12 11.12 0 0 1 12 23C5.925 23 1 18.075 1 12S5.925 1 12 1s11 4.925 11 11c0 .184-.005.367-.014.55a1 1 0 1 1-1.997-.1A9 9 0 0 0 12 3Zm.884 9.884a1 1 0 0 1 1.062-.228l8.348 3.167a1 1 0 0 1 .017 1.863l-3.304 1.321-1.32 3.304a1 1 0 0 1-1.864-.017l-3.167-8.348a1 1 0 0 1 .228-1.062Zm2.43 2.43 1.468 3.87.527-1.318a1 1 0 0 1 .557-.557l1.319-.527-3.87-1.468Z" clip-rule="evenodd"/>
</svg>
