<svg xmlns="http://www.w3.org/2000/svg" width="24" height="24" viewBox="0 0 24 24">
  <path fill-rule="evenodd" d="M12 1a1 1 0 0 1 .738.326A16.3 16.3 0 0 1 17 12.02a16.3 16.3 0 0 1-4.262 10.653 1 1 0 0 1-1.476 0A16.3 16.3 0 0 1 7 11.98a16.3 16.3 0 0 1 4.262-10.653A1 1 0 0 1 12 1ZM9 12a14.3 14.3 0 0 0 3 8.45A14.3 14.3 0 0 0 15 12a14.3 14.3 0 0 0-3-8.45A14.3 14.3 0 0 0 9 12Z" clip-rule="evenodd" opacity=".5"/>
  <path fill-rule="evenodd" d="M3.055 11h17.89a9.001 9.001 0 0 0-17.89 0Zm17.89 2H3.055a9.001 9.001 0 0 0 17.89 0ZM1 12C1 5.925 5.925 1 12 1s11 4.925 11 11-4.925 11-11 11S1 18.075 1 12Z" clip-rule="evenodd"/>
</svg>
