<svg xmlns="http://www.w3.org/2000/svg" width="24" height="24" viewBox="0 0 24 24">
  <path d="m2.687 15.645 1.908-1.101a.5.5 0 0 1 .342-.059l3.754.703a.5.5 0 0 0 .592-.494l-.014-3.29a.5.5 0 0 1 .068-.254l1.895-3.244a.5.5 0 0 0-.023-.54l-3.19-4.54c-.345.15-.685.321-1.019.514C2.66 5.846.908 11.117 2.687 15.645ZM17.5 11.5c1.877.938 4.487 1 4.487 1A9.97 9.97 0 0 0 19 4.86C13.5 7.5 16.5 11 17.5 11.5Zm-.742 10.44-3.168-8.35 8.349 3.167-3.702 1.48-1.48 3.702Z" opacity=".2"/>
  <path fill-rule="evenodd" d="M7.69 4.097A8.998 8.998 0 0 0 3 12c0 .744.09 1.467.26 2.16l.835-.482a1.5 1.5 0 0 1 1.026-.176l3.16.591-.012-2.684a1.5 1.5 0 0 1 .205-.763l.863.504.024.014m-.024-.014-.863-.504 1.732-2.967L7.69 4.097M3.966 16.061a9 9 0 0 0 8.485 4.928 1 1 0 0 1 .098 1.997A11.12 11.12 0 0 1 12 23C5.925 23 1 18.075 1 12S5.925 1 12 1a10.964 10.964 0 0 1 7.71 3.154 10.967 10.967 0 0 1 3.276 8.395 1 1 0 0 1-1.022.95l.024-.999-.024 1h-.013l-.028-.002a12.589 12.589 0 0 1-.447-.026 16.113 16.113 0 0 1-1.176-.131c-.929-.139-2.17-.408-3.247-.946-.427-.214-.913-.647-1.308-1.165-.408-.534-.797-1.256-.922-2.101-.128-.87.031-1.825.653-2.747.406-.604.993-1.169 1.78-1.689A8.96 8.96 0 0 0 12 3a9.01 9.01 0 0 0-2.408.326l2.435 3.466a1.5 1.5 0 0 1 .068 1.619l-1.826 3.126.014 3.153a1.5 1.5 0 0 1-1.776 1.48l-3.572-.668-.969.56Zm14.827-9.966c-.871.498-1.376.985-1.659 1.404-.331.492-.39.94-.332 1.337.062.422.268.834.532 1.18.276.361.54.553.613.59.801.4 1.803.63 2.649.757.135.02.264.037.385.052a8.962 8.962 0 0 0-2.188-5.32Zm-5.91 6.789a1 1 0 0 1 1.063-.228l8.348 3.167a1 1 0 0 1 .017 1.863l-3.304 1.321-1.32 3.304a1 1 0 0 1-1.864-.017l-3.167-8.348a1 1 0 0 1 .228-1.062Zm2.431 2.43 1.468 3.87.527-1.318a1 1 0 0 1 .557-.557l1.319-.527-3.87-1.468Z" clip-rule="evenodd"/>
</svg>
