<svg xmlns="http://www.w3.org/2000/svg" width="24" height="24" viewBox="0 0 24 24">
  <path fill-rule="evenodd" d="m7.361 11.393-5.208.464a1 1 0 1 1-.178-1.992l5.528-.493a1.5 1.5 0 0 1 1.436.751l1.794 3.144 2.738 1.565a1.5 1.5 0 0 1 .395 2.278L11.5 19.87v2.018a1 1 0 0 1-2 0v-2.203a1.5 1.5 0 0 1 .361-.976l.76.65.018.017m-.018-.016-.76-.651 2.092-2.441-2.33-1.332a1.5 1.5 0 0 1-.56-.559l.87-.496-.87.496-1.702-2.984" clip-rule="evenodd" opacity=".5"/>
  <path fill-rule="evenodd" d="M12 3a9 9 0 1 0 9 9c0-.855-.12-1.682-.341-2.465l-.117.154c-.674.876-1.538 1.731-2.37 2.557l-.465.461a1 1 0 0 1-1.414 0l-.464-.461c-.833-.826-1.697-1.681-2.371-2.557C12.647 8.636 12 7.422 12 6c0-1.103.357-2.122.962-2.95A9.114 9.114 0 0 0 12 3Zm3.002-1.585A11.007 11.007 0 0 0 12 1C5.925 1 1 5.925 1 12s4.925 11 11 11 11-4.925 11-11c0-1.749-.409-3.404-1.137-4.874A4.74 4.74 0 0 0 22 6a5 5 0 0 0-6.998-4.585ZM17 3a3 3 0 0 0-3 3c0 .788.353 1.573 1.042 2.468.536.695 1.208 1.377 1.958 2.122.75-.745 1.422-1.427 1.958-2.122C19.647 7.573 20 6.788 20 6a3 3 0 0 0-3-3Zm-1.25 2.75a1.25 1.25 0 1 1 2.5 0 1.25 1.25 0 0 1-2.5 0Z" clip-rule="evenodd"/>
</svg>
