<svg xmlns="http://www.w3.org/2000/svg" width="24" height="24" viewBox="0 0 24 24">
  <path d="M10.202 22.811c-2.92 0-5.85-1.01-8.19-3.06-.25-.22-.49-.42-.62-.77-.11-.3-.13-.65-.03-.96.11-.36.33-.58.58-.83l1.61-1.61a8.498 8.498 0 0 1-1.83-5.26c-.01-4.69 3.8-8.5 8.49-8.5s8.5 3.81 8.5 8.5c0 4.69-3.81 8.5-8.5 8.5-1.98 0-3.81-.68-5.26-1.83l-1.43 1.42c4.14 3.42 10.28 3.15 14.11-.67a10.44 10.44 0 0 0 3.08-7.42c0-2.8-1.09-5.44-3.08-7.43a.996.996 0 1 1 1.41-1.41 12.42 12.42 0 0 1 3.66 8.84c0 3.34-1.3 6.48-3.66 8.84a12.49 12.49 0 0 1-8.85 3.65h.01Zm.01-18.99c-3.58 0-6.5 2.92-6.5 6.5s2.92 6.5 6.5 6.5 6.5-2.92 6.5-6.5-2.92-6.5-6.5-6.5Z"/>
</svg>
