<svg xmlns="http://www.w3.org/2000/svg" width="24" height="24" viewBox="0 0 24 24">
  <path fill-rule="evenodd" d="M12.832 1.445a1 1 0 0 1-.277 1.387c-1.259.84-2.134 2.194-2.706 3.853-.053.155-.103.311-.15.47A23.945 23.945 0 0 1 12.02 7c1.919.04 4.03.299 5.945.958 1.914.66 3.705 1.746 4.866 3.487a1 1 0 1 1-1.664 1.11c-.84-1.259-2.194-2.134-3.853-2.706C15.664 9.281 13.783 9.04 12 9c-.91.02-1.847.093-2.765.235A21.166 21.166 0 0 0 9 12c.039 1.783.28 3.664.85 5.315.57 1.659 1.446 3.014 2.705 3.853a1 1 0 1 1-1.11 1.664c-1.741-1.16-2.827-2.952-3.487-4.866-.66-1.915-.918-4.026-.958-5.945v-.042c.016-.739.063-1.507.154-2.28-.158.047-.314.097-.469.15-1.659.572-3.014 1.447-3.853 2.706a1 1 0 0 1-1.664-1.11c1.16-1.741 2.952-2.827 4.866-3.487.488-.168.988-.31 1.495-.429.12-.507.261-1.007.43-1.495.659-1.914 1.745-3.705 3.486-4.866a1 1 0 0 1 1.387.277Z" clip-rule="evenodd" opacity=".5"/>
  <path fill-rule="evenodd" d="M3.005 11.69c.847 1.128 2.131 1.927 3.68 2.46 1.651.57 3.532.811 5.315.85a21.16 21.16 0 0 0 2.765-.235c.143-.92.215-1.857.235-2.765-.039-1.783-.28-3.664-.85-5.315-.533-1.549-1.332-2.833-2.46-3.68a9 9 0 0 0-8.685 8.685Zm11.78-8.25c.532.8.943 1.683 1.256 2.594.66 1.915.919 4.026.959 5.945v.042a23.963 23.963 0 0 1-.154 2.28c1.743-.523 3.213-1.364 4.149-2.611a9.005 9.005 0 0 0-6.21-8.25Zm5.776 11.346c-1.227.814-2.652 1.347-4.09 1.685-.338 1.438-.87 2.863-1.685 4.09a9.022 9.022 0 0 0 5.775-5.775Zm-8.871 6.209c1.247-.936 2.088-2.406 2.612-4.15a23.963 23.963 0 0 1-2.323.155c-1.92-.04-4.03-.299-5.945-.959a11.384 11.384 0 0 1-2.595-1.255 9.005 9.005 0 0 0 8.251 6.209ZM1 12C1 5.925 5.925 1 12 1s11 4.925 11 11-4.925 11-11 11S1 18.075 1 12Z" clip-rule="evenodd"/>
</svg>
