<svg xmlns="http://www.w3.org/2000/svg" width="24" height="24" viewBox="0 0 24 24">
  <path fill-rule="evenodd" d="M17.51 2.075a1 1 0 0 1 1.415 0c4.1 4.1 4.1 10.75 0 14.85A10.453 10.453 0 0 1 13 19.893V21h4a1 1 0 1 1 0 2H7a1 1 0 1 1 0-2h4v-1.012a10.46 10.46 0 0 1-6.184-2.39l-1.448 1.448a1 1 0 1 1-1.414-1.414l2.12-2.121s.001 0 0 0l.002-.001 1.818-1.818a7 7 0 1 1 1.414 1.414l-1.07 1.07A8.501 8.501 0 0 0 17.51 3.49a1 1 0 0 1 0-1.415ZM11.5 4.5a5 5 0 1 0 0 10 5 5 0 0 0 0-10Z" clip-rule="evenodd"/>
</svg>
