<svg xmlns="http://www.w3.org/2000/svg" width="24" height="24" viewBox="0 0 24 24">
  <path fill-rule="evenodd" d="M3.223 10a9.029 9.029 0 0 0 0 4h3.94A16.3 16.3 0 0 1 7 11.98 16.3 16.3 0 0 1 7.162 10H3.223Zm.713-2h3.643a16.302 16.302 0 0 1 2.147-4.71A9.02 9.02 0 0 0 3.936 8ZM12 3.55A14.3 14.3 0 0 0 9.664 8h4.672A14.3 14.3 0 0 0 12 3.55ZM14.814 10H9.186c-.108.658-.17 1.326-.186 2 .015.674.078 1.342.186 2h5.628c.108-.658.17-1.326.186-2a14.287 14.287 0 0 0-.186-2Zm2.024 4A16.31 16.31 0 0 0 17 11.98a16.31 16.31 0 0 0-.162-1.98h3.939a9.033 9.033 0 0 1 0 4h-3.94Zm-2.502 2H9.664A14.3 14.3 0 0 0 12 20.45 14.3 14.3 0 0 0 14.336 16Zm-4.61 4.71A16.303 16.303 0 0 1 7.579 16H3.936a9.02 9.02 0 0 0 5.79 4.71Zm4.548 0A16.303 16.303 0 0 0 16.421 16h3.643a9.02 9.02 0 0 1-5.79 4.71ZM20.064 8h-3.643a16.302 16.302 0 0 0-2.147-4.71A9.02 9.02 0 0 1 20.064 8ZM1 12C1 5.925 5.925 1 12 1s11 4.925 11 11-4.925 11-11 11S1 18.075 1 12Z" clip-rule="evenodd"/>
</svg>
