<svg xmlns="http://www.w3.org/2000/svg" width="24" height="24" viewBox="0 0 24 24">
  <path d="M14.57 19h-2c-.27 0-.5 0-.77-.1-.23-.09-.44-.24-.6-.43-.19-.22-.26-.44-.34-.7l-.71-2.14c-.05-.16-.1-.29-.11-.47-.01-.15 0-.31.03-.46.04-.18.1-.3.18-.45l.54-1.08c.14-.29.26-.53.52-.73.22-.18.49-.29.78-.32.32-.04.58.05.87.15l.85.28s.05.02.08.03l2.62 1.12c.39.17.7.3.94.63.21.28.31.63.29.98-.03.41-.21.68-.44 1.04l-1.23 1.85c-.11.17-.21.32-.38.46-.15.12-.33.22-.52.28-.21.06-.39.06-.6.06Zm-1.85-2h1.75l1.04-1.55-2.36-1.01-.64-.21-.43.87.65 1.91-.01-.01Zm-4.83-5.19c-.08 0-.16 0-.23-.02-.35-.06-.6-.23-.88-.43L2.5 8.3c-.45-.32-.55-.95-.23-1.4.32-.45.95-.55 1.39-.23l4.13 2.95.79-1.05c.1-.13.15-.19.2-.24.05-.05.13-.12.23-.18.08-.05.14-.08.29-.15l3.75-1.67.28-4.13c.04-.55.53-.98 1.06-.93.55.04.97.51.93 1.06l-.28 4.25c-.02.23-.03.43-.12.65-.09.21-.21.39-.37.53-.18.16-.36.24-.56.34l-3.83 1.7-.87 1.16c-.21.28-.39.52-.71.68-.21.1-.43.16-.67.16l-.02.01Z" opacity=".5"/>
  <path fill-rule="evenodd" d="M12 3a9 9 0 1 0 0 18 9 9 0 0 0 0-18ZM1 12C1 5.925 5.925 1 12 1s11 4.925 11 11-4.925 11-11 11S1 18.075 1 12Z" clip-rule="evenodd"/>
</svg>
