<svg xmlns="http://www.w3.org/2000/svg" width="24" height="24" viewBox="0 0 24 24">
  <path fill-rule="evenodd" d="M3.927 8.018A8.963 8.963 0 0 0 3 12a9.003 9.003 0 0 0 7.354 8.85l4.24-7.35a1 1 0 1 1 1.732 1l-3.739 6.481A9 9 0 0 0 20.488 9H12a1 1 0 1 1 0-2h7.485A8.992 8.992 0 0 0 12 3a8.98 8.98 0 0 0-6.842 3.152L9.406 13.5a1 1 0 1 1-1.732 1.002L3.927 8.018ZM3.095 5.54A10.95 10.95 0 0 0 1 12c0 5.636 4.238 10.281 9.7 10.924A11.133 11.133 0 0 0 12 23c6.075 0 11-4.925 11-11a10.965 10.965 0 0 0-.941-4.458A11.002 11.002 0 0 0 12 1C8.404 1 5.21 2.726 3.204 5.394a.994.994 0 0 0-.11.147Z" clip-rule="evenodd" opacity=".5"/>
  <path fill-rule="evenodd" d="M12 9a3 3 0 1 0 0 6 3 3 0 0 0 0-6Zm-5 3a5 5 0 1 1 10 0 5 5 0 0 1-10 0Z" clip-rule="evenodd"/>
</svg>
