<svg xmlns="http://www.w3.org/2000/svg" width="24" height="24" viewBox="0 0 24 24">
  <path fill-rule="evenodd" d="M22 12c0 5.523-4.477 10-10 10S2 17.523 2 12 6.477 2 12 2s10 4.477 10 10Zm-6 0a4 4 0 1 1-8 0 4 4 0 0 1 8 0Z" clip-rule="evenodd" opacity=".2"/>
  <path fill-rule="evenodd" d="M3.927 8.018A8.963 8.963 0 0 0 3 12a9.003 9.003 0 0 0 7.354 8.85l2.241-3.885a5 5 0 0 1-5.028-2.65l-3.64-6.297ZM3.095 5.54A10.95 10.95 0 0 0 1 12c0 5.636 4.238 10.281 9.7 10.924A11.133 11.133 0 0 0 12 23c6.075 0 11-4.925 11-11a10.965 10.965 0 0 0-.941-4.458A11.002 11.002 0 0 0 12 1C8.404 1 5.21 2.726 3.204 5.394a.994.994 0 0 0-.11.147Zm2.063.611 2.244 3.881A5.001 5.001 0 0 1 12 7h7.485A8.992 8.992 0 0 0 12 3a8.98 8.98 0 0 0-6.842 3.152ZM20.488 9H16c.628.836 1 1.874 1 3 0 .983-.284 1.9-.774 2.674l-3.638 6.307A9 9 0 0 0 20.488 9Zm-5.851 4.433a3 3 0 1 0-5.31-.07l.079.136a.924.924 0 0 1 .036.07 2.998 2.998 0 0 0 5.077.06l.075-.129a.992.992 0 0 1 .043-.067Z" clip-rule="evenodd"/>
</svg>
