<svg xmlns="http://www.w3.org/2000/svg" width="24" height="24" viewBox="0 0 24 24">
  <path fill-rule="evenodd" d="M11.803 4.52Zm.197.098L19.764 8.5l-.192.096a1.063 1.063 0 0 0-.037.019L17 9.882l-4.553-2.276a1 1 0 1 0-.894 1.788L14.763 11 12 12.382 4.465 8.615a.985.985 0 0 0-.037-.02L4.236 8.5 12 4.618Zm-9 5.5-1.447-.724a1 1 0 0 1 0-1.788l9.642-4.822.026-.013c.093-.047.286-.146.502-.186a1.5 1.5 0 0 1 .554 0 1.902 1.902 0 0 1 .528.2l9.642 4.82a1 1 0 0 1 0 1.79L21 10.117v6.267c.001.286.003.645-.116.978a2 2 0 0 1-.489.762c-.253.246-.58.395-.84.513a24.84 24.84 0 0 0-.072.032l-6.4 2.933-.05.024c-.19.088-.43.198-.69.244a2 2 0 0 1-.685 0c-.261-.046-.5-.156-.69-.244l-.051-.023-6.4-2.934.416-.909-.416.91-.072-.033c-.26-.118-.587-.267-.84-.513a2 2 0 0 1-.489-.762c-.119-.333-.117-.692-.116-.978v-6.267Zm2 1v5.189a6.8 6.8 0 0 0 .006.381l.005.003c.066.035.159.078.339.161l6.4 2.933c.131.06.197.09.246.11l.004.002.004-.002c.049-.02.115-.05.246-.11l6.4-2.933c.18-.083.273-.126.339-.16l.005-.004v-.006c.006-.075.006-.177.006-.375v-5.189l-1 .5V14.5a1 1 0 1 1-2 0v-1.882l-3.195 1.598-.026.013c-.093.047-.286.146-.502.186a1.5 1.5 0 0 1-.554 0 1.885 1.885 0 0 1-.502-.186l-.026-.013L5 11.117Zm6.803 1.362Zm.394 0Zm0-7.96Z" clip-rule="evenodd"/>
</svg>
