<svg xmlns="http://www.w3.org/2000/svg" width="24" height="24" viewBox="0 0 24 24">
  <path fill-rule="evenodd" d="M4 8.5a1 1 0 0 1 1 1v6.807c0 .198 0 .3.005.375v.006l.006.003c.066.035.159.078.339.161l6.4 2.933a6.322 6.322 0 0 0 .25.111l.004-.001c.049-.02.115-.05.246-.11l6.4-2.933c.18-.083.273-.126.339-.16l.005-.004v-.006c.006-.075.006-.177.006-.375V9.5a1 1 0 1 1 2 0v6.885c.001.286.003.645-.116.978a2 2 0 0 1-.489.762c-.253.246-.58.395-.84.513-.025.01-.049.022-.072.032l-6.4 2.933-.05.024c-.19.088-.43.198-.69.244l-.154-.884.153.884a2 2 0 0 1-.684 0l.17-.986-.17.985c-.261-.045-.5-.155-.69-.243a13.697 13.697 0 0 0-.051-.023l-6.4-2.934.416-.909-.416.91-.072-.033c-.26-.118-.587-.267-.84-.513a2 2 0 0 1-.489-.762c-.119-.333-.117-.692-.116-.978V9.5a1 1 0 0 1 1-1Z" clip-rule="evenodd" opacity=".5"/>
  <path fill-rule="evenodd" d="M11.803 4.52Zm.197.098L19.764 8.5 17 9.882l-4.553-2.276a1 1 0 1 0-.894 1.788L14.763 11 12 12.382 4.236 8.5 12 4.618Zm-.197 7.862Zm.394 0Zm3.803.138-3.195 1.598-.026.013c-.093.047-.286.146-.502.186a1.5 1.5 0 0 1-.554 0 1.885 1.885 0 0 1-.502-.186l-.026-.013-9.642-4.822a1 1 0 0 1 0-1.788l9.642-4.822.026-.013c.093-.047.286-.146.502-.186a1.5 1.5 0 0 1 .554 0 1.902 1.902 0 0 1 .528.2l9.642 4.82a1 1 0 0 1 0 1.79L18 11.617V14.5a1 1 0 1 1-2 0v-1.882ZM12.197 4.52Z" clip-rule="evenodd"/>
</svg>
