<svg xmlns="http://www.w3.org/2000/svg" width="24" height="24" viewBox="0 0 24 24">
  <path fill-rule="evenodd" d="M11.803 4.52Zm.197.098L19.764 8.5l-1.192.596a1.002 1.002 0 0 0-.037.019L12 12.382 5.465 9.115a.993.993 0 0 0-.037-.02L4.236 8.5 12 4.618Zm-8 6L1.553 9.394a1 1 0 0 1 0-1.788l9.642-4.822.026-.013c.093-.047.286-.146.502-.186a1.5 1.5 0 0 1 .554 0 1.902 1.902 0 0 1 .528.2l9.642 4.82a1 1 0 0 1 0 1.79L20 10.617v5.47c.001.276.003.623-.11.947a2 2 0 0 1-.461.747l-.715-.7.715.7c-.24.245-.551.4-.798.522l-.068.034-5.4 2.7a9.517 9.517 0 0 0-.055.027c-.203.102-.458.23-.74.284a2.001 2.001 0 0 1-.737 0c-.281-.053-.536-.182-.739-.284a9.517 9.517 0 0 0-.055-.027l-5.4-2.7-.068-.034c-.247-.123-.558-.277-.798-.522a2 2 0 0 1-.462-.747c-.112-.324-.11-.671-.11-.947L4 16.01v-5.393Zm2 1v4.393c0 .192 0 .29.005.361v.007l.006.003c.061.036.15.08.32.166l-.412.825.413-.825 5.4 2.7a6.371 6.371 0 0 0 .268.13 6.371 6.371 0 0 0 .268-.13l5.4-2.7c.172-.086.26-.13.321-.166l.006-.003v-.007c.005-.07.005-.17.005-.36v-4.394l-5.195 2.598-.026.013c-.093.047-.286.146-.502.186a1.5 1.5 0 0 1-.554 0 1.885 1.885 0 0 1-.502-.186l-.026-.013L6 11.617Zm5.803.862Zm.394 0Zm0-7.96Z" clip-rule="evenodd"/>
</svg>
