<svg xmlns="http://www.w3.org/2000/svg" width="24" height="24" viewBox="0 0 24 24">
  <path d="M12 16a4 4 0 1 0 0-8 4 4 0 0 0 0 8Z" opacity=".2"/>
  <path fill-rule="evenodd" d="M6.161 2H8a1 1 0 1 1 0 2H6.2c-.577 0-.949 0-1.232.024-.272.022-.373.06-.422.085a1 1 0 0 0-.437.437c-.025.05-.063.15-.085.422C4 5.25 4 5.623 4 6.2V8a1 1 0 1 1-2 0V6.161c0-.527 0-.981.03-1.356.033-.395.104-.789.297-1.167a3 3 0 0 1 1.311-1.311c.378-.193.772-.264 1.167-.296C5.18 2 5.635 2 6.161 2Zm12.871 2.024C18.75 4 18.377 4 17.8 4H16a1 1 0 1 1 0-2h1.838c.528 0 .982 0 1.357.03.395.033.789.104 1.167.297a3 3 0 0 1 1.311 1.311c.193.378.264.772.296 1.167.031.375.031.83.031 1.356V8a1 1 0 1 1-2 0V6.2c0-.577 0-.949-.024-1.232-.022-.272-.06-.373-.085-.422a1 1 0 0 0-.437-.437c-.05-.025-.15-.063-.422-.085ZM12 9a3 3 0 1 0 0 6 3 3 0 0 0 0-6Zm-5 3a5 5 0 1 1 10 0 5 5 0 0 1-10 0Zm-4 3a1 1 0 0 1 1 1v1.8c0 .577 0 .949.024 1.232.022.272.06.372.085.422a1 1 0 0 0 .437.437c.05.025.15.063.422.085C5.25 20 5.623 20 6.2 20H8a1 1 0 1 1 0 2H6.161c-.527 0-.981 0-1.356-.03-.395-.033-.789-.104-1.167-.297a3 3 0 0 1-1.311-1.311c-.193-.378-.264-.772-.296-1.167A17.9 17.9 0 0 1 2 17.838V16a1 1 0 0 1 1-1Zm18 0a1 1 0 0 1 1 1v1.839c0 .527 0 .982-.03 1.356-.033.395-.104.789-.297 1.167a3 3 0 0 1-1.311 1.311c-.378.193-.772.264-1.167.296-.375.031-.83.031-1.356.031H16a1 1 0 1 1 0-2h1.8c.577 0 .949 0 1.232-.024.272-.022.372-.06.422-.085a1 1 0 0 0 .437-.437c.025-.05.063-.15.085-.422C20 18.75 20 18.377 20 17.8V16a1 1 0 0 1 1-1Z" clip-rule="evenodd"/>
</svg>
