<svg xmlns="http://www.w3.org/2000/svg" width="24" height="24" viewBox="0 0 24 24">
  <path d="M8.4 3H4.6c-.56 0-.84 0-1.054.109a1 1 0 0 0-.437.437C3 3.76 3 4.04 3 4.6v3.8c0 .56 0 .84.109 1.054a1 1 0 0 0 .437.437C3.76 10 4.04 10 4.6 10h3.8c.56 0 .84 0 1.054-.109a1 1 0 0 0 .437-.437C10 9.24 10 8.96 10 8.4V4.6c0-.56 0-.84-.109-1.054a1 1 0 0 0-.437-.437C9.24 3 8.96 3 8.4 3Zm11 0h-3.8c-.56 0-.84 0-1.054.109a1 1 0 0 0-.437.437C14 3.76 14 4.04 14 4.6v3.8c0 .56 0 .84.109 1.054a1 1 0 0 0 .437.437C14.76 10 15.04 10 15.6 10h3.8c.56 0 .84 0 1.054-.109a1 1 0 0 0 .437-.437C21 9.24 21 8.96 21 8.4V4.6c0-.56 0-.84-.109-1.054a1 1 0 0 0-.437-.437C20.24 3 19.96 3 19.4 3Zm0 11h-3.8c-.56 0-.84 0-1.054.109a1 1 0 0 0-.437.437C14 14.76 14 15.04 14 15.6v3.8c0 .56 0 .84.109 1.054a1 1 0 0 0 .437.437C14.76 21 15.04 21 15.6 21h3.8c.56 0 .84 0 1.054-.109a1 1 0 0 0 .437-.437C21 20.24 21 19.96 21 19.4v-3.8c0-.56 0-.84-.109-1.054a1 1 0 0 0-.437-.437C20.24 14 19.96 14 19.4 14Zm-11 0H4.6c-.56 0-.84 0-1.054.109a1 1 0 0 0-.437.437C3 14.76 3 15.04 3 15.6v3.8c0 .56 0 .84.109 1.054a1 1 0 0 0 .437.437C3.76 21 4.04 21 4.6 21h3.8c.56 0 .84 0 1.054-.109a1 1 0 0 0 .437-.437C10 20.24 10 19.96 10 19.4v-3.8c0-.56 0-.84-.109-1.054a1 1 0 0 0-.437-.437C9.24 14 8.96 14 8.4 14Z" opacity=".2"/>
  <path fill-rule="evenodd" d="M4.568 2h3.864c.252 0 .498 0 .706.017.229.019.499.063.77.201a2 2 0 0 1 .874.874c.138.271.182.541.201.77.017.208.017.454.017.706v3.864c0 .252 0 .498-.017.706a2.022 2.022 0 0 1-.201.77 2 2 0 0 1-.874.874 2.022 2.022 0 0 1-.77.201C8.93 11 8.684 11 8.432 11H4.568c-.252 0-.498 0-.706-.017a2.022 2.022 0 0 1-.77-.201 2 2 0 0 1-.874-.874 2.022 2.022 0 0 1-.201-.77C2 8.93 2 8.684 2 8.432V4.568c0-.252 0-.498.017-.706a2.03 2.03 0 0 1 .201-.77 2 2 0 0 1 .874-.874 2.03 2.03 0 0 1 .77-.201C4.07 2 4.316 2 4.568 2Zm-.557 2.011v.014C4 4.14 4 4.303 4 4.6v3.8a8.185 8.185 0 0 0 .011.589h.014C4.14 9 4.303 9 4.6 9h3.8a8.183 8.183 0 0 0 .589-.011v-.014C9 8.86 9 8.697 9 8.4V4.6a8.184 8.184 0 0 0-.011-.589h-.014A8.192 8.192 0 0 0 8.4 4H4.6a8.192 8.192 0 0 0-.589.011ZM15.568 2h3.864c.252 0 .498 0 .706.017.229.019.499.063.77.201a2 2 0 0 1 .874.874c.138.271.182.541.201.77.017.208.017.454.017.706v3.864c0 .252 0 .498-.017.706a2.022 2.022 0 0 1-.201.77 2 2 0 0 1-.874.874 2.022 2.022 0 0 1-.77.201c-.208.017-.454.017-.706.017h-3.864c-.252 0-.498 0-.706-.017a2.022 2.022 0 0 1-.77-.201 2 2 0 0 1-.874-.874 2.022 2.022 0 0 1-.201-.77C13 8.93 13 8.684 13 8.432V4.568c0-.252 0-.498.017-.706a2.03 2.03 0 0 1 .201-.77 2 2 0 0 1 .874-.874 2.03 2.03 0 0 1 .77-.201C15.07 2 15.316 2 15.568 2Zm-.556 2.011-.002.014C15 4.14 15 4.303 15 4.6v3.8a8.205 8.205 0 0 0 .011.589h.014c.116.01.278.011.575.011h3.8c.297 0 .459 0 .575-.01l.014-.001v-.014C20 8.86 20 8.697 20 8.4V4.6a8.205 8.205 0 0 0-.012-.589h-.013A8.194 8.194 0 0 0 19.4 4h-3.8a8.194 8.194 0 0 0-.588.011ZM4.567 13h3.864c.252 0 .498 0 .706.017.229.019.499.063.77.201a2 2 0 0 1 .874.874c.138.271.182.541.201.77.017.208.017.454.017.706v3.864c0 .252 0 .498-.017.706a2.022 2.022 0 0 1-.201.77 2 2 0 0 1-.874.874 2.022 2.022 0 0 1-.77.201C8.93 22 8.684 22 8.432 22H4.568c-.252 0-.498 0-.706-.017a2.022 2.022 0 0 1-.77-.201 2 2 0 0 1-.874-.874 2.022 2.022 0 0 1-.201-.77C2 19.93 2 19.684 2 19.432v-3.864c0-.252 0-.498.017-.706a2.03 2.03 0 0 1 .201-.77 2 2 0 0 1 .874-.874 2.03 2.03 0 0 1 .77-.201C4.07 13 4.316 13 4.568 13Zm-.557 2.011v.014C4 15.14 4 15.303 4 15.6v3.8a8.187 8.187 0 0 0 .011.588l.014.002c.116.01.278.01.575.01h3.8a8.205 8.205 0 0 0 .589-.012v-.013C9 19.86 9 19.696 9 19.4v-3.8a8.185 8.185 0 0 0-.011-.589h-.014A8.205 8.205 0 0 0 8.4 15H4.6c-.297 0-.459 0-.575.01l-.014.001ZM15.568 13h3.864c.252 0 .498 0 .706.017.229.019.499.063.77.201a2 2 0 0 1 .874.874c.138.271.182.541.201.77.017.208.017.454.017.706v3.864c0 .252 0 .498-.017.706a2.022 2.022 0 0 1-.201.77 2 2 0 0 1-.874.874 2.022 2.022 0 0 1-.77.201c-.208.017-.454.017-.706.017h-3.864c-.252 0-.498 0-.706-.017a2.022 2.022 0 0 1-.77-.201 2 2 0 0 1-.874-.874 2.022 2.022 0 0 1-.201-.77C13 19.93 13 19.684 13 19.432v-3.864c0-.252 0-.498.017-.706a2.03 2.03 0 0 1 .201-.77 2 2 0 0 1 .874-.874 2.03 2.03 0 0 1 .77-.201c.208-.017.454-.017.706-.017Zm-.556 2.011-.002.014c-.01.116-.01.278-.01.575v3.8a8.207 8.207 0 0 0 .011.588l.014.002c.116.01.278.01.575.01h3.8a8.207 8.207 0 0 0 .589-.012v-.013c.01-.116.011-.279.011-.575v-3.8a8.207 8.207 0 0 0-.012-.589h-.013A8.207 8.207 0 0 0 19.4 15h-3.8c-.296 0-.459 0-.575.01l-.014.001Z" clip-rule="evenodd"/>
</svg>
