<svg xmlns="http://www.w3.org/2000/svg" width="24" height="24" viewBox="0 0 24 24">
  <path fill-rule="evenodd" d="M4.568 2h3.864c.252 0 .498 0 .706.017.229.019.499.063.77.201a2 2 0 0 1 .874.874c.138.271.182.541.201.77.017.208.017.454.017.706v3.864c0 .252 0 .498-.017.706a2.022 2.022 0 0 1-.201.77 2 2 0 0 1-.874.874 2.022 2.022 0 0 1-.77.201C8.93 11 8.684 11 8.432 11H4.568c-.252 0-.498 0-.706-.017a2.022 2.022 0 0 1-.77-.201 2 2 0 0 1-.874-.874 2.022 2.022 0 0 1-.201-.77C2 8.93 2 8.684 2 8.432V4.568c0-.252 0-.498.017-.706a2.03 2.03 0 0 1 .201-.77 2 2 0 0 1 .874-.874 2.03 2.03 0 0 1 .77-.201C4.07 2 4.316 2 4.568 2Zm-.557 2.011v.014C4 4.14 4 4.303 4 4.6v3.8a8.185 8.185 0 0 0 .011.589h.014C4.14 9 4.303 9 4.6 9h3.8a8.183 8.183 0 0 0 .589-.011v-.014C9 8.86 9 8.697 9 8.4V4.6a8.184 8.184 0 0 0-.011-.589h-.014A8.192 8.192 0 0 0 8.4 4H4.6a8.192 8.192 0 0 0-.589.011ZM14 5a1 1 0 1 1 0-2h7a1 1 0 1 1 0 2h-7Zm-1 4a1 1 0 0 1 1-1h7a1 1 0 1 1 0 2h-7a1 1 0 0 1-1-1Zm-8.432 4h3.864c.252 0 .498 0 .706.017.229.019.499.063.77.201a2 2 0 0 1 .874.874c.138.271.182.541.201.77.017.208.017.454.017.706v3.864c0 .252 0 .498-.017.706a2.022 2.022 0 0 1-.201.77 2 2 0 0 1-.874.874 2.022 2.022 0 0 1-.77.201C8.93 22 8.684 22 8.432 22H4.568c-.252 0-.498 0-.706-.017a2.022 2.022 0 0 1-.77-.201 2 2 0 0 1-.874-.874 2.022 2.022 0 0 1-.201-.77C2 19.93 2 19.684 2 19.432v-3.864c0-.252 0-.498.017-.706a2.03 2.03 0 0 1 .201-.77 2 2 0 0 1 .874-.874 2.03 2.03 0 0 1 .77-.201C4.07 13 4.316 13 4.568 13Zm-.557 2.011v.014C4 15.14 4 15.303 4 15.6v3.8a8.187 8.187 0 0 0 .011.588l.014.002c.116.01.278.01.575.01h3.8a8.205 8.205 0 0 0 .589-.012v-.013C9 19.86 9 19.696 9 19.4v-3.8a8.185 8.185 0 0 0-.011-.589h-.014A8.205 8.205 0 0 0 8.4 15H4.6c-.297 0-.459 0-.575.01l-.014.001ZM13 15a1 1 0 0 1 1-1h7a1 1 0 1 1 0 2h-7a1 1 0 0 1-1-1Zm0 5a1 1 0 0 1 1-1h7a1 1 0 1 1 0 2h-7a1 1 0 0 1-1-1Z" clip-rule="evenodd"/>
</svg>
