<svg xmlns="http://www.w3.org/2000/svg" width="24" height="24" viewBox="0 0 24 24">
  <path d="M6.8 3h-.6c-1.12 0-1.68 0-2.108.218a2 2 0 0 0-.874.874C3 4.52 3 5.08 3 6.2v11.6c0 1.12 0 1.68.218 2.108a2 2 0 0 0 .874.874C4.52 21 5.08 21 6.2 21h.6c1.12 0 1.68 0 2.108-.218a2 2 0 0 0 .874-.874C10 19.48 10 18.92 10 17.8V6.2c0-1.12 0-1.68-.218-2.108a2 2 0 0 0-.874-.874C8.48 3 7.92 3 6.8 3Z" opacity=".2"/>
  <path fill-rule="evenodd" d="M6.161 2h.678c.527 0 .981 0 1.356.03.395.033.789.104 1.167.297a3 3 0 0 1 1.311 1.311c.193.378.264.772.296 1.167.031.375.031.83.031 1.356v11.677c0 .528 0 .982-.03 1.357-.033.395-.104.789-.297 1.167a3 3 0 0 1-1.311 1.311c-.378.193-.772.264-1.167.296C7.82 22 7.365 22 6.839 22H6.16c-.527 0-.981 0-1.356-.03-.395-.033-.789-.104-1.167-.297a3 3 0 0 1-1.311-1.311c-.193-.378-.264-.772-.296-1.167A17.9 17.9 0 0 1 2 17.838V6.162c0-.527 0-.981.03-1.356.033-.395.104-.789.297-1.167a3 3 0 0 1 1.311-1.311c.378-.193.772-.264 1.167-.296C5.18 2 5.635 2 6.161 2ZM4.968 4.024c-.272.022-.373.06-.422.085a1 1 0 0 0-.437.437c-.025.05-.063.15-.085.422C4 5.25 4 5.623 4 6.2v11.6c0 .577 0 .949.024 1.232.022.272.06.372.085.422a1 1 0 0 0 .437.437c.05.025.15.063.422.085C5.25 20 5.623 20 6.2 20h.6c.577 0 .949 0 1.232-.024.272-.022.373-.06.422-.085a1 1 0 0 0 .437-.437c.025-.05.063-.15.085-.422C9 18.75 9 18.377 9 17.8V6.2c0-.577 0-.949-.024-1.232-.022-.272-.06-.373-.085-.422a1 1 0 0 0-.437-.437c-.05-.025-.15-.063-.422-.085C7.75 4 7.377 4 6.8 4h-.6c-.577 0-.949 0-1.232.024ZM17.162 2h.677c.527 0 .982 0 1.356.03.395.033.789.104 1.167.297a3 3 0 0 1 1.311 1.311c.193.378.264.772.296 1.167.031.375.031.83.031 1.356V17.84c0 .527 0 .982-.03 1.356-.033.395-.104.789-.297 1.167a3 3 0 0 1-1.311 1.311c-.378.193-.772.264-1.167.296-.375.031-.83.031-1.356.031h-.678c-.527 0-.982 0-1.356-.03-.395-.033-.789-.104-1.167-.297a3 3 0 0 1-1.311-1.311c-.193-.378-.264-.772-.296-1.167C13 18.82 13 18.365 13 17.838V6.162c0-.527 0-.981.03-1.356.033-.395.104-.789.297-1.167a3 3 0 0 1 1.311-1.311c.378-.193.772-.264 1.167-.296C16.18 2 16.635 2 17.162 2Zm-1.194 2.024c-.272.022-.373.06-.422.085a1 1 0 0 0-.437.437c-.025.05-.063.15-.085.422C15 5.25 15 5.623 15 6.2v11.6c0 .577 0 .949.024 1.232.022.272.06.372.085.422a1 1 0 0 0 .437.437c.05.025.15.063.422.085.283.023.655.024 1.232.024h.6c.577 0 .949 0 1.232-.024.272-.022.372-.06.422-.085a1 1 0 0 0 .437-.437c.025-.05.063-.15.085-.422C20 18.75 20 18.377 20 17.8V6.2c0-.577 0-.949-.024-1.232-.022-.272-.06-.373-.085-.422a1 1 0 0 0-.437-.437c-.05-.025-.15-.063-.422-.085C18.75 4 18.377 4 17.8 4h-.6c-.577 0-.949 0-1.232.024Z" clip-rule="evenodd"/>
</svg>
