<svg xmlns="http://www.w3.org/2000/svg" width="24" height="24" viewBox="0 0 24 24">
  <path fill-rule="evenodd" d="M2 3a1 1 0 0 1 1-1h.01a1 1 0 0 1 0 2H3a1 1 0 0 1-1-1Zm4.5 0a1 1 0 0 1 1-1h.01a1 1 0 0 1 0 2H7.5a1 1 0 0 1-1-1ZM11 3a1 1 0 0 1 1-1h.01a1 1 0 1 1 0 2H12a1 1 0 0 1-1-1Zm4.5 0a1 1 0 0 1 1-1h.01a1 1 0 1 1 0 2h-.01a1 1 0 0 1-1-1ZM20 3a1 1 0 0 1 1-1h.01a1 1 0 1 1 0 2H21a1 1 0 0 1-1-1ZM2 7.5a1 1 0 0 1 1-1h.01a1 1 0 0 1 0 2H3a1 1 0 0 1-1-1Zm9 0a1 1 0 0 1 1-1h.01a1 1 0 1 1 0 2H12a1 1 0 0 1-1-1Zm9 0a1 1 0 0 1 1-1h.01a1 1 0 1 1 0 2H21a1 1 0 0 1-1-1ZM2 12a1 1 0 0 1 1-1h18a1 1 0 1 1 0 2H3a1 1 0 0 1-1-1Zm0 4.5a1 1 0 0 1 1-1h.01a1 1 0 1 1 0 2H3a1 1 0 0 1-1-1Zm9 0a1 1 0 0 1 1-1h.01a1 1 0 1 1 0 2H12a1 1 0 0 1-1-1Zm9 0a1 1 0 0 1 1-1h.01a1 1 0 1 1 0 2H21a1 1 0 0 1-1-1ZM2 21a1 1 0 0 1 1-1h.01a1 1 0 1 1 0 2H3a1 1 0 0 1-1-1Zm4.5 0a1 1 0 0 1 1-1h.01a1 1 0 1 1 0 2H7.5a1 1 0 0 1-1-1Zm4.5 0a1 1 0 0 1 1-1h.01a1 1 0 1 1 0 2H12a1 1 0 0 1-1-1Zm4.5 0a1 1 0 0 1 1-1h.01a1 1 0 1 1 0 2h-.01a1 1 0 0 1-1-1Zm4.5 0a1 1 0 0 1 1-1h.01a1 1 0 1 1 0 2H21a1 1 0 0 1-1-1Z" clip-rule="evenodd"/>
</svg>
