<svg xmlns="http://www.w3.org/2000/svg" width="24" height="24" viewBox="0 0 24 24">
  <path d="M15.456 4.51v.896h4.304V3.998h-1.664c.656-.512 1.488-1.216 1.488-2.112 0-.96-.752-1.68-2.048-1.68-.928 0-1.6.4-2.256 1.072l.896.912c.336-.384.688-.608 1.056-.608.464 0 .688.224.688.672 0 .727-1.045 1.376-2.412 2.224l-.052.032ZM5.52 6.366v7.84h2.352v-5.04c.624-.672 1.2-1.008 1.728-1.008.88 0 1.264.496 1.264 1.904v4.144H13.2v-5.04c.64-.672 1.2-1.008 1.728-1.008.848 0 1.264.496 1.264 1.904v4.144h2.352V9.742c0-2.24-.88-3.568-2.8-3.568-1.168 0-2.016.672-2.848 1.552-.416-1.008-1.2-1.552-2.496-1.552-1.136 0-1.984.624-2.736 1.376h-.048l-.192-1.184H5.52ZM1 21a1 1 0 0 1 1-1h20a1 1 0 1 1 0 2H2a1 1 0 0 1-1-1Zm4-5.5a1 1 0 1 0 0 2h14a1 1 0 1 0 0-2H5Z"/>
</svg>
