<svg xmlns="http://www.w3.org/2000/svg" width="24" height="24" viewBox="0 0 24 24">
  <path d="M15.034 4H8.967c-1.077 0-1.616 0-2.09.164a3 3 0 0 0-1.122.693c-.36.352-.6.833-1.082 1.796l-2.166 4.333c-.19.378-.284.567-.35.765a2.998 2.998 0 0 0-.072.249h19.83a2.987 2.987 0 0 0-.072-.248c-.066-.199-.16-.388-.35-.766l-2.166-4.333c-.482-.963-.723-1.444-1.082-1.796a3 3 0 0 0-1.12-.693C16.648 4 16.11 4 15.033 4Z" opacity=".2"/>
  <path fill-rule="evenodd" d="M8.814 3h6.372c.928 0 1.627-.001 2.264.219a4 4 0 0 1 1.495.923c.481.472.794 1.098 1.208 1.928l.068.136 2.167 4.333.026.052c.164.328.288.576.377.842a4 4 0 0 1 .17.72c.04.278.04.555.039.922v2.166c0 .805 0 1.47-.044 2.01-.046.563-.145 1.08-.392 1.565a4 4 0 0 1-1.748 1.748c-.485.247-1.002.346-1.564.392-.541.044-1.206.044-2.01.044H6.758c-.805 0-1.47 0-2.01-.044-.563-.046-1.08-.145-1.565-.392a4 4 0 0 1-1.748-1.748c-.247-.485-.346-1.002-.392-1.564C1 16.71 1 16.046 1 15.242v-2.167c0-.367 0-.644.039-.921a4 4 0 0 1 .17-.721c.09-.266.213-.514.377-.842l.026-.052.895.447.006.003m-.006-.003-.895-.447L3.78 6.206l.068-.136c.414-.83.727-1.456 1.208-1.928A4 4 0 0 1 6.55 3.22C7.187 3 7.886 3 8.814 3m-5.196 8 1.95-3.9c.514-1.027.676-1.322.887-1.529a2 2 0 0 1 .747-.462C7.482 5.013 7.817 5 8.967 5h6.066c1.15 0 1.486.013 1.765.11a2 2 0 0 1 .747.461c.211.207.373.502.887 1.53L20.382 11H3.618ZM3 13v2.2c0 .857 0 1.439.038 1.889.035.438.1.663.18.819a2 2 0 0 0 .874.874c.156.08.38.145.82.18C5.361 19 5.942 19 6.8 19h10.4c.857 0 1.439 0 1.889-.038.438-.035.663-.1.819-.18a2 2 0 0 0 .874-.874c.08-.156.145-.38.18-.819.037-.45.038-1.032.038-1.889V13H3Zm7 4H6a1 1 0 1 1 0-2h4a1 1 0 1 1 0 2Z" clip-rule="evenodd"/>
</svg>
