<svg xmlns="http://www.w3.org/2000/svg" width="24" height="24" viewBox="0 0 24 24">
  <path fill-rule="evenodd" d="M8.814 3h6.372c.928 0 1.627-.001 2.264.219.56.193 1.071.508 1.495.923.481.472.794 1.098 1.208 1.928l.068.136 2.167 4.333.026.052c.164.328.288.576.377.842.037.109.069.22.096.33a1 1 0 1 1-1.944.473 1.984 1.984 0 0 0-.047-.166c-.04-.117-.096-.234-.297-.636L18.432 7.1c-.514-1.028-.676-1.323-.887-1.53l.7-.714-.7.714a2 2 0 0 0-.747-.462c-.28-.096-.615-.109-1.765-.109H8.967c-1.15 0-1.486.013-1.765.11a2 2 0 0 0-.747.461c-.211.207-.373.502-.887 1.53L3.4 11.434c-.2.402-.257.52-.297.636-.018.055-.034.11-.047.166a1 1 0 0 1-1.944-.472 3.99 3.99 0 0 1 .096-.331c.09-.266.213-.514.377-.842l.026-.052.883.442-.883-.442L3.78 6.206l.068-.136c.414-.83.727-1.456 1.208-1.928A4 4 0 0 1 6.55 3.22C7.187 3 7.886 3 8.814 3Z" clip-rule="evenodd" opacity=".5"/>
  <path fill-rule="evenodd" d="M1.113 11.764A1 1 0 0 1 2.085 11h19.83a1 1 0 0 1 .972.764c.031.128.056.259.074.39.04.277.04.554.039.921v2.166c0 .805 0 1.47-.044 2.01-.046.563-.145 1.08-.392 1.565a4 4 0 0 1-1.748 1.748c-.485.247-1.002.346-1.564.392-.541.044-1.206.044-2.01.044H6.758c-.805 0-1.47 0-2.01-.044-.563-.046-1.08-.145-1.565-.392a4 4 0 0 1-1.748-1.748c-.247-.485-.346-1.002-.392-1.564C1 16.71 1 16.046 1 15.242v-2.167c0-.367 0-.644.039-.921.018-.131.043-.262.074-.39ZM3 13v2.2c0 .857 0 1.439.038 1.889.035.438.1.663.18.819a2 2 0 0 0 .874.874c.156.08.38.145.82.18C5.361 19 5.942 19 6.8 19h10.4c.857 0 1.439 0 1.889-.038.438-.035.663-.1.819-.18a2 2 0 0 0 .874-.874c.08-.156.145-.38.18-.819.037-.45.038-1.032.038-1.889V13H3Zm2 3a1 1 0 0 1 1-1h4a1 1 0 1 1 0 2H6a1 1 0 0 1-1-1Z" clip-rule="evenodd"/>
</svg>
