<svg xmlns="http://www.w3.org/2000/svg" width="24" height="24" viewBox="0 0 24 24">
  <path fill-rule="evenodd" d="M2 12C2 6.477 6.477 2 12 2s10 4.477 10 10v6a1 1 0 1 1-2 0v-6a8 8 0 1 0-16 0v6a1 1 0 1 1-2 0v-6Z" clip-rule="evenodd" opacity=".5"/>
  <path fill-rule="evenodd" d="M2 16.5a3.5 3.5 0 1 1 7 0v2a3.5 3.5 0 1 1-7 0v-2ZM5.5 15A1.5 1.5 0 0 0 4 16.5v2a1.5 1.5 0 0 0 3 0v-2A1.5 1.5 0 0 0 5.5 15Zm9.5 1.5a3.5 3.5 0 1 1 7 0v2a3.5 3.5 0 1 1-7 0v-2Zm3.5-1.5a1.5 1.5 0 0 0-1.5 1.5v2a1.5 1.5 0 0 0 3 0v-2a1.5 1.5 0 0 0-1.5-1.5Z" clip-rule="evenodd"/>
</svg>
