<svg xmlns="http://www.w3.org/2000/svg" width="24" height="24" viewBox="0 0 24 24">
  <path fill-rule="evenodd" d="M11.993 5.136c-2-2.338-5.333-2.966-7.838-.826s-2.858 5.719-.89 8.25c1.635 2.105 6.585 6.544 8.207 7.98.182.162.272.242.378.274a.504.504 0 0 0 .286 0c.106-.032.197-.112.378-.273 1.623-1.437 6.573-5.876 8.208-7.98 1.967-2.532 1.658-6.133-.89-8.251-2.549-2.118-5.84-1.512-7.839.826Z" clip-rule="evenodd" opacity=".2"/>
  <path fill-rule="evenodd" d="M11.993 3.717c-2.34-2.045-5.8-2.463-8.488-.167-2.907 2.483-3.329 6.666-1.03 9.624.872 1.123 2.575 2.81 4.212 4.354a185.115 185.115 0 0 0 4.122 3.762l.016.013c.076.068.172.153.263.221.11.083.267.185.476.248.28.083.579.083.858 0 .21-.063.367-.165.476-.247.092-.07.187-.154.264-.222l.015-.014c.815-.721 2.467-2.198 4.123-3.76 1.636-1.545 3.34-3.232 4.212-4.355 2.29-2.947 1.932-7.162-1.041-9.633-2.717-2.258-6.141-1.87-8.478.176Zm-.76 2.069C9.528 3.792 6.818 3.35 4.804 5.07c-2.103 1.797-2.386 4.772-.75 6.877.763.982 2.353 2.567 4.006 4.127a182.335 182.335 0 0 0 3.933 3.592c.847-.751 2.39-2.136 3.934-3.592 1.653-1.56 3.242-3.145 4.006-4.127 1.644-2.117 1.382-5.104-.74-6.868-2.068-1.718-4.742-1.278-6.44.707a1 1 0 0 1-1.52 0Z" clip-rule="evenodd"/>
</svg>
