<svg xmlns="http://www.w3.org/2000/svg" width="24" height="24" viewBox="0 0 24 24">
  <path fill-rule="evenodd" d="M11.997 9.068c-1-1.169-2.667-1.483-3.92-.413-1.252 1.07-1.429 2.86-.445 4.125.63.81 2.244 2.314 3.322 3.29.359.325.538.487.753.552.184.056.395.056.58 0 .214-.065.393-.227.752-.552 1.079-.976 2.692-2.48 3.322-3.29.984-1.265.829-3.066-.445-4.125-1.274-1.059-2.92-.756-3.92.413Z" clip-rule="evenodd" opacity=".2"/>
  <path fill-rule="evenodd" d="M11.597 1.185a2 2 0 0 1 .806 0c.307.063.582.217.8.34l.06.033 7.4 4.11c.02.012.041.024.063.035.23.128.522.288.745.53.193.21.339.458.428.728.103.313.102.644.101.908v8.262c.001.264.002.595-.101.908-.09.27-.235.519-.428.728-.223.242-.514.402-.745.53l-.063.034-7.4 4.111-.06.034c-.218.122-.493.276-.8.339a1.99 1.99 0 0 1-.806 0c-.307-.063-.582-.217-.8-.34l-.06-.033-7.4-4.11a.938.938 0 0 0-.063-.035c-.23-.128-.522-.288-.745-.53a2 2 0 0 1-.428-.728c-.103-.313-.102-.645-.101-.908V7.869c-.001-.264-.002-.595.101-.908a2 2 0 0 1 .428-.728c.223-.242.514-.402.745-.53l.063-.034 7.4-4.111.06-.034c.218-.122.493-.276.8-.34ZM12 3.149a6.574 6.574 0 0 0-.291.157l-7.4 4.11c-.16.09-.242.136-.3.172l-.004.003v.006A6.64 6.64 0 0 0 4 7.941v8.117a6.641 6.641 0 0 0 .005.35l.005.004c.057.036.139.082.299.171l7.4 4.111c.151.084.229.127.286.155l.005.002.005-.002a6.62 6.62 0 0 0 .286-.155l7.4-4.111c.16-.089.242-.135.3-.171l.004-.003v-.006c.005-.068.005-.162.005-.345V7.941a6.616 6.616 0 0 0-.005-.35 6.677 6.677 0 0 0-.304-.174l-7.4-4.111A6.574 6.574 0 0 0 12 3.149Zm-.004 4.574c-1.316-.932-3.129-1.058-4.568.172-1.655 1.413-1.9 3.807-.585 5.499.695.895 2.385 2.463 3.44 3.418l.022.02c.16.145.322.29.471.405.17.13.376.262.64.342.374.113.787.113 1.16 0a1.98 1.98 0 0 0 .641-.342c.15-.114.31-.26.47-.405l.023-.02c1.055-.955 2.745-2.523 3.44-3.418 1.307-1.681 1.105-4.095-.595-5.508-1.45-1.205-3.245-1.095-4.559-.163Zm-.76 1.995c-.705-.825-1.748-.953-2.51-.303-.85.727-.957 1.912-.304 2.752.564.726 2.1 2.164 3.203 3.162.191.173.291.262.367.32l.005.004.004-.003c.076-.059.176-.148.367-.321 1.102-.998 2.64-2.436 3.204-3.162.66-.851.553-2.038-.295-2.743-.793-.659-1.823-.522-2.52.294a1 1 0 0 1-1.52 0Z" clip-rule="evenodd"/>
</svg>
