<svg xmlns="http://www.w3.org/2000/svg" width="24" height="24" viewBox="0 0 24 24">
  <path fill-rule="evenodd" d="M11.997 9.068c-1-1.169-2.667-1.483-3.92-.413-1.252 1.07-1.429 2.86-.445 4.125.63.81 2.244 2.314 3.322 3.29.359.325.538.487.753.552.184.056.395.056.58 0 .214-.065.393-.227.752-.552 1.079-.976 2.692-2.48 3.322-3.29.984-1.265.829-3.066-.445-4.125-1.274-1.059-2.92-.756-3.92.413Z" clip-rule="evenodd" opacity=".2"/>
  <path fill-rule="evenodd" d="M12 3a9 9 0 1 0 0 18 9 9 0 0 0 0-18ZM1 12C1 5.925 5.925 1 12 1s11 4.925 11 11-4.925 11-11 11S1 18.075 1 12Zm10.996-4.277c-1.316-.932-3.129-1.058-4.568.172-1.655 1.413-1.9 3.807-.585 5.499.695.895 2.385 2.463 3.44 3.418l.022.02c.16.145.322.29.471.405.17.13.376.262.64.342.374.113.787.113 1.16 0a1.98 1.98 0 0 0 .641-.342c.15-.114.31-.26.47-.405l.023-.02c1.055-.955 2.745-2.523 3.44-3.418 1.307-1.681 1.105-4.095-.595-5.508-1.45-1.205-3.245-1.095-4.559-.163Zm-.76 1.995c-.705-.825-1.748-.953-2.51-.303-.85.727-.957 1.912-.304 2.752.564.726 2.1 2.164 3.203 3.162.191.173.291.262.367.32l.005.004.004-.003c.076-.059.176-.148.367-.321 1.102-.998 2.64-2.436 3.203-3.162a1.957 1.957 0 0 0-.294-2.743c-.793-.659-1.823-.522-2.52.294a1 1 0 0 1-1.52 0Z" clip-rule="evenodd"/>
</svg>
