<svg xmlns="http://www.w3.org/2000/svg" width="24" height="24" viewBox="0 0 24 24">
  <path d="M16.111 3C19.633 3 22 6.353 22 9.48 22 15.814 12.178 21 12 21c-.178 0-10-5.186-10-11.52C2 6.352 4.367 3 7.889 3 9.91 3 11.233 4.024 12 4.924 12.767 4.024 14.089 3 16.111 3Z" opacity=".2"/>
  <path fill-rule="evenodd" d="M7.889 4C5.076 4 3 6.734 3 9.48c0 1.321.513 2.64 1.368 3.915.854 1.273 2.013 2.447 3.21 3.456a28.536 28.536 0 0 0 3.31 2.39 22.257 22.257 0 0 0 1.112.647 28.537 28.537 0 0 0 4.422-3.037c1.197-1.009 2.356-2.183 3.21-3.456C20.487 12.121 21 10.801 21 9.48 21 6.734 18.924 4 16.111 4c-1.641 0-2.708.818-3.35 1.572a1 1 0 0 1-1.522 0C10.596 4.818 9.53 4 7.889 4ZM1 9.48C1 5.971 3.658 2 7.889 2c1.827 0 3.177.71 4.111 1.51A6.183 6.183 0 0 1 16.111 2C20.342 2 23 5.971 23 9.48c0 1.845-.715 3.55-1.707 5.03-.993 1.48-2.3 2.79-3.582 3.87a30.511 30.511 0 0 1-3.547 2.561c-.49.303-.904.54-1.208.704-.151.081-.28.147-.379.195a3.157 3.157 0 0 1-.24.103c-.02.007-.052.017-.091.027h-.001c-.025.006-.121.03-.245.03s-.22-.024-.245-.03a1.098 1.098 0 0 1-.187-.063 3.157 3.157 0 0 1-.145-.067 9.961 9.961 0 0 1-.379-.195 23.822 23.822 0 0 1-1.208-.704A30.516 30.516 0 0 1 6.29 18.38c-1.282-1.08-2.59-2.39-3.583-3.87C1.715 13.03 1 11.324 1 9.48Z" clip-rule="evenodd"/>
</svg>
