<svg xmlns="http://www.w3.org/2000/svg" width="24" height="24" viewBox="0 0 24 24">
  <path fill-rule="evenodd" d="M8.298 3.178C9.681 1.273 12.136.36 14.595 1.493c2.76 1.271 3.888 4.4 2.75 7.1-.215.51-.55 1.15-.928 1.823a1 1 0 1 1-1.743-.981c.37-.656.658-1.216.828-1.618.73-1.731.011-3.7-1.743-4.508-1.69-.777-3.404-.02-4.198 1.643a1 1 0 0 1-1.468.393c-1.529-1.049-3.416-.839-4.449.665-1.1 1.602-.75 3.661.736 4.787.796.603 2.444 1.538 4.077 2.41a1 1 0 1 1-.942 1.764c-1.606-.857-3.399-1.865-4.343-2.58C.825 10.613.297 7.351 1.996 4.878c1.536-2.236 4.15-2.658 6.302-1.7Z" clip-rule="evenodd" opacity=".5"/>
  <path fill-rule="evenodd" d="M16.992 10.546c-.845-2.2-2.991-3.75-5.659-3.255-2.949.547-4.883 3.228-4.48 6.145.144 1.043.597 2.715 1.061 4.279a136.46 136.46 0 0 0 1.27 4.014c.032.098.073.219.117.325.054.126.139.294.29.453.2.212.46.362.744.43.213.05.4.04.537.023a4.485 4.485 0 0 0 .36-.064c.877-.18 2.48-.519 4.09-.904 1.588-.38 3.262-.823 4.238-1.22 2.713-1.105 4.129-4.115 3.076-6.965-.938-2.54-3.32-3.631-5.644-3.261Zm-1.678 1.387c-.34-1.823-1.822-3.009-3.616-2.676-1.91.355-3.119 2.059-2.864 3.905.12.87.527 2.4.997 3.983.432 1.453.897 2.884 1.184 3.753.897-.185 2.369-.498 3.843-.851 1.605-.384 3.134-.796 3.948-1.128 1.74-.708 2.623-2.608 1.954-4.42-.644-1.744-2.392-2.42-4.13-1.806a1 1 0 0 1-1.316-.76Z" clip-rule="evenodd"/>
</svg>
