<svg xmlns="http://www.w3.org/2000/svg" width="24" height="24" viewBox="0 0 24 24">
  <path fill-rule="evenodd" d="M8.298 3.178C9.681 1.273 12.136.36 14.595 1.493c2.76 1.27 3.888 4.4 2.75 7.1-.16.38-.385.83-.646 1.312.11.206.208.42.293.64 2.325-.37 4.706.721 5.644 3.262 1.053 2.85-.363 5.86-3.076 6.965-.976.397-2.65.84-4.237 1.22a136.6 136.6 0 0 1-4.091.904l-.02.004c-.101.02-.226.046-.34.06a1.5 1.5 0 0 1-.537-.023 1.506 1.506 0 0 1-.745-.43 1.498 1.498 0 0 1-.289-.454 4.44 4.44 0 0 1-.117-.324 53.993 53.993 0 0 1-2.074-6.976c-1.494-.805-3.072-1.706-3.938-2.362C.825 10.613.297 7.351 1.996 4.878c1.536-2.236 4.15-2.658 6.302-1.7Zm.67 10.722a10.325 10.325 0 0 1-.134-.738c-.255-1.847.954-3.55 2.864-3.905 1.234-.229 2.32.26 2.989 1.18a.99.99 0 0 0 .08.116c.262.395.45.862.547 1.38a1 1 0 0 0 1.316.76c1.738-.614 3.486.062 4.13 1.806.67 1.812-.214 3.712-1.954 4.42-.814.332-2.343.744-3.948 1.128-1.474.352-2.946.666-3.843.851-.287-.869-.752-2.3-1.184-3.753-.356-1.2-.677-2.37-.863-3.245Zm6.344-5.667c-1.046-.824-2.424-1.23-3.979-.942-2.563.475-4.359 2.562-4.521 5.015-1.015-.571-1.908-1.112-2.432-1.51-1.486-1.125-1.836-3.184-.736-4.786 1.033-1.504 2.92-1.714 4.449-.665a1 1 0 0 0 1.468-.393c.794-1.662 2.509-2.42 4.198-1.643 1.754.809 2.473 2.776 1.743 4.508a8.8 8.8 0 0 1-.19.416Z" clip-rule="evenodd"/>
</svg>
