<svg xmlns="http://www.w3.org/2000/svg" width="24" height="24" viewBox="0 0 24 24">
  <path fill-rule="evenodd" d="M8.472 1h7.056c.19 0 .43-.001.665.055a2 2 0 0 1 .578.24c.206.126.375.296.509.43l.036.037 4.922 4.922.037.036c.134.134.304.303.43.51.11.178.19.373.24.577a2.8 2.8 0 0 1 .055.665v7.056c0 .19.001.43-.055.665a2 2 0 0 1-.24.578 2.795 2.795 0 0 1-.43.509l-.037.036-4.922 4.922-.036.037a2.795 2.795 0 0 1-.51.43 2 2 0 0 1-.577.24 2.795 2.795 0 0 1-.665.055H8.472c-.19 0-.43.001-.665-.055a2.02 2.02 0 0 1-.578-.24c-.206-.126-.375-.296-.509-.43l-.036-.037-4.922-4.922-.037-.036a2.795 2.795 0 0 1-.43-.51 2 2 0 0 1-.24-.577C1 15.957 1 15.718 1 15.528V8.472c0-.19-.001-.43.055-.665a2 2 0 0 1 .24-.578c.126-.206.296-.375.43-.509l.037-.036 4.922-4.922.036-.037c.134-.134.303-.304.51-.43a2 2 0 0 1 .577-.24C8.043 1 8.282 1 8.472 1Zm-.197 2.003-.002.002a6.2 6.2 0 0 0-.175.17L3.176 8.099a6.2 6.2 0 0 0-.171.175l-.002.002v.004A6.184 6.184 0 0 0 3 8.523v6.954a6.18 6.18 0 0 0 .005.25c.032.035.078.082.17.175l4.923 4.922a6.15 6.15 0 0 0 .177.173h.004c.047.003.113.003.244.003h6.954c.131 0 .197 0 .244-.002h.004l.002-.003a6.14 6.14 0 0 0 .175-.17l4.922-4.923a6.14 6.14 0 0 0 .173-.177v-.004c.003-.047.003-.113.003-.244V8.523c0-.131 0-.197-.002-.244v-.004l-.003-.002a6.13 6.13 0 0 0-.17-.175l-4.923-4.922a6.19 6.19 0 0 0-.18-.174A6.18 6.18 0 0 0 15.476 3H8.523a6.184 6.184 0 0 0-.248.003Z" clip-rule="evenodd" opacity=".5"/>
  <path fill-rule="evenodd" d="M11.996 7.723c-1.316-.932-3.129-1.058-4.568.172-1.655 1.413-1.9 3.807-.586 5.499.696.895 2.386 2.463 3.441 3.418l.022.02c.16.145.322.29.471.405.17.13.376.262.64.342.374.113.787.113 1.16 0a1.98 1.98 0 0 0 .641-.342c.15-.114.31-.26.47-.405l.023-.02c1.055-.955 2.745-2.523 3.44-3.418 1.307-1.681 1.105-4.095-.595-5.508-1.45-1.205-3.245-1.095-4.559-.163Zm-.76 1.995c-.705-.825-1.748-.953-2.51-.303-.85.727-.957 1.912-.304 2.752.564.726 2.1 2.164 3.203 3.162.191.173.291.262.367.32l.005.004.004-.003c.076-.059.176-.148.367-.321 1.102-.998 2.64-2.436 3.203-3.162a1.957 1.957 0 0 0-.294-2.743c-.793-.659-1.823-.522-2.52.294a1 1 0 0 1-1.52 0Z" clip-rule="evenodd"/>
</svg>
