<svg xmlns="http://www.w3.org/2000/svg" width="24" height="24" viewBox="0 0 24 24">
  <path d="M11.223 2.432c.284-.158.425-.237.575-.268a1 1 0 0 1 .403 0c.15.031.292.11.576.268l7.4 4.11c.3.167.45.25.558.369a1 1 0 0 1 .215.364c.05.152.05.324.05.666v8.118c0 .342 0 .514-.05.666a1 1 0 0 1-.215.364c-.109.119-.258.202-.558.368l-7.4 4.111c-.284.158-.425.237-.575.268-.133.027-.27.027-.403 0-.15-.031-.292-.11-.576-.268l-7.4-4.11c-.3-.167-.45-.25-.558-.369a1 1 0 0 1-.215-.364C3 16.573 3 16.401 3 16.06V7.94c0-.342 0-.513.05-.666a1 1 0 0 1 .215-.364c.109-.119.258-.202.558-.368l7.4-4.111Z" opacity=".2"/>
  <path fill-rule="evenodd" d="M11.597 1.185a2 2 0 0 1 .806 0c.307.063.582.217.8.34l.06.033 7.4 4.11c.02.012.041.024.063.035.23.128.522.288.745.53.193.21.339.458.428.728.103.313.102.644.101.908v8.262c.001.264.002.595-.101.908-.09.27-.235.519-.428.728-.223.242-.514.402-.745.53l-.063.034-7.4 4.111-.06.034c-.218.122-.493.276-.8.339a1.99 1.99 0 0 1-.806 0c-.307-.063-.582-.217-.8-.34l-.06-.033-7.4-4.11a.938.938 0 0 0-.063-.035c-.23-.128-.522-.288-.745-.53a2 2 0 0 1-.428-.728c-.103-.313-.102-.645-.101-.908V7.869c-.001-.264-.002-.595.101-.908a2 2 0 0 1 .428-.728c.223-.242.514-.402.745-.53l.063-.034 7.4-4.111.06-.034c.218-.122.493-.276.8-.34ZM12 3.149a6.574 6.574 0 0 0-.291.157l-7.4 4.11c-.16.09-.242.136-.3.172l-.004.003v.006A6.64 6.64 0 0 0 4 7.941v8.117a6.641 6.641 0 0 0 .005.35l.005.004c.057.036.139.082.299.171l7.4 4.111c.151.084.229.127.286.155l.005.002.005-.002a6.62 6.62 0 0 0 .286-.155l7.4-4.111c.16-.089.242-.135.3-.171l.004-.003v-.006c.005-.068.005-.162.005-.345V7.941a6.616 6.616 0 0 0-.005-.35 6.677 6.677 0 0 0-.304-.174l-7.4-4.111A6.574 6.574 0 0 0 12 3.149Zm.258 4.875a2 2 0 0 0-2.225 1.308 1 1 0 0 1-1.886-.664 4 4 0 0 1 7.773 1.333c0 1.53-1.135 2.54-1.945 3.081a8.046 8.046 0 0 1-1.686.848l-.035.013-.011.003-.004.002h-.002L11.92 13l.316.949a1 1 0 0 1-.633-1.897h-.001.001l.016-.006.074-.027a6.051 6.051 0 0 0 1.172-.6c.69-.46 1.055-.95 1.055-1.419v-.002a2 2 0 0 0-1.662-1.974ZM11 17a1 1 0 0 1 1-1h.01a1 1 0 1 1 0 2H12a1 1 0 0 1-1-1Z" clip-rule="evenodd"/>
</svg>
