<svg xmlns="http://www.w3.org/2000/svg" width="24" height="24" viewBox="0 0 24 24">
  <path fill-rule="evenodd" d="M11.597 1.185a2 2 0 0 1 .806 0c.307.063.582.217.8.34l.06.033 7.4 4.11.063.036c.23.127.522.287.745.53.193.208.339.457.428.727.103.313.102.644.101.908v8.262c.001.264.002.595-.101.908a2 2 0 0 1-.428.728c-.223.242-.514.402-.745.53l-.063.034-7.4 4.111-.06.034c-.218.122-.493.276-.8.34-.266.054-.54.054-.806 0-.307-.064-.582-.218-.8-.34l-.06-.034-7.4-4.11a.938.938 0 0 0-.063-.035c-.23-.128-.522-.288-.745-.53a2 2 0 0 1-.428-.728c-.103-.313-.102-.644-.101-.908V7.869c-.001-.264-.002-.595.101-.908a2 2 0 0 1 .428-.728c.223-.242.514-.402.745-.53l.063-.034 7.4-4.111.06-.034c.218-.122.493-.276.8-.339ZM12 3.149a6.574 6.574 0 0 0-.291.157l-7.4 4.111c-.16.089-.242.135-.3.171l-.004.003v.006A6.64 6.64 0 0 0 4 7.941v8.118c0 .183 0 .276.005.344v.006l.005.003c.057.036.139.082.299.171l7.4 4.111c.151.084.229.127.286.155l.005.002.005-.002c.057-.028.135-.07.286-.155l7.4-4.11c.16-.09.242-.136.3-.172l.004-.003v-.006c.005-.068.005-.161.005-.344V7.94a6.616 6.616 0 0 0-.005-.35 6.677 6.677 0 0 0-.304-.174l-7.4-4.111A6.574 6.574 0 0 0 12 3.149Zm.258 4.875a2 2 0 0 0-2.225 1.308 1 1 0 0 1-1.886-.664 4 4 0 0 1 7.773 1.333c0 1.53-1.135 2.54-1.945 3.081a8.054 8.054 0 0 1-1.686.848l-.035.013-.011.003-.004.002h-.002L11.92 13l.316.949a1 1 0 0 1-.633-1.897h-.001.001l.016-.006a4.244 4.244 0 0 0 .364-.147 6.06 6.06 0 0 0 .882-.481c.69-.46 1.055-.949 1.055-1.418v-.001a2 2 0 0 0-1.662-1.975ZM11 17a1 1 0 0 1 1-1h.01a1 1 0 1 1 0 2H12a1 1 0 0 1-1-1Z" clip-rule="evenodd"/>
</svg>
