<svg xmlns="http://www.w3.org/2000/svg" width="24" height="24" viewBox="0 0 24 24">
  <path fill-rule="evenodd" d="M7.869 2h8.261c.264-.001.596-.002.909.101a2 2 0 0 1 .727.428c.243.223.403.514.53.745l.035.063 4.111 7.4.033.06c.123.218.276.493.34.8.054.266.054.54 0 .806-.064.307-.217.582-.34.8l-.033.06-4.111 7.4-.035.063c-.127.23-.287.522-.53.745a1.99 1.99 0 0 1-.727.428c-.313.103-.645.102-.909.101H7.87c-.264.001-.596.002-.908-.101a1.999 1.999 0 0 1-.728-.428c-.243-.223-.403-.514-.53-.745l-.035-.063-4.11-7.4-.034-.06c-.122-.218-.276-.493-.34-.8a2 2 0 0 1 0-.806c.064-.307.218-.582.34-.8l.033-.06 4.111-7.4.035-.063c.127-.23.287-.522.53-.745a2 2 0 0 1 .728-.428c.312-.103.644-.102.908-.101ZM7.59 4.005a6.625 6.625 0 0 0-.174.304l-4.112 7.4A6.59 6.59 0 0 0 3.15 12a6.59 6.59 0 0 0 .157.291l4.11 7.4a6.656 6.656 0 0 0 .175.304h.006c.067.005.161.005.344.005h8.117a6.615 6.615 0 0 0 .35-.005l.003-.005c.037-.057.083-.139.172-.299l4.11-7.4a6.62 6.62 0 0 0 .155-.286l.003-.005-.003-.005a6.62 6.62 0 0 0-.154-.286l-4.111-7.4a6.575 6.575 0 0 0-.172-.3l-.003-.004h-.005A6.64 6.64 0 0 0 16.058 4H7.941c-.183 0-.277 0-.344.005H7.59Z" clip-rule="evenodd"/>
</svg>
