<svg xmlns="http://www.w3.org/2000/svg" width="24" height="24" viewBox="0 0 24 24">
  <path d="M21.568 11.223c.158.284.237.425.268.575a.998.998 0 0 1 0 .403c-.031.15-.11.292-.268.576l-4.11 7.4c-.167.3-.25.45-.369.558a.999.999 0 0 1-.364.215c-.152.05-.324.05-.666.05H7.942c-.343 0-.514 0-.667-.05a1 1 0 0 1-.364-.215c-.119-.109-.202-.258-.368-.558l-4.111-7.4c-.158-.284-.237-.425-.267-.575a1 1 0 0 1 0-.403c.03-.15.11-.292.267-.576l4.11-7.4c.167-.3.25-.45.369-.558a1 1 0 0 1 .364-.215C7.428 3 7.599 3 7.942 3h8.117c.342 0 .514 0 .666.05.136.045.26.118.364.215.119.109.202.258.368.558l4.111 7.4Z" opacity=".2"/>
  <path fill-rule="evenodd" d="M7.87 2h8.26c.264-.001.595-.002.908.101a2 2 0 0 1 .728.428c.242.223.402.514.53.745l.034.063 4.111 7.4.034.06c.122.218.276.493.339.8.055.266.055.54 0 .806-.063.307-.217.582-.34.8l-.033.06-4.11 7.4a.938.938 0 0 0-.035.063c-.128.23-.288.522-.53.745-.21.193-.458.339-.728.428-.313.103-.644.102-.908.101H7.869c-.264.001-.595.002-.908-.101a1.999 1.999 0 0 1-.728-.428c-.242-.223-.402-.514-.53-.745a14.865 14.865 0 0 0-.034-.063l-4.111-7.4-.034-.06c-.122-.218-.276-.493-.34-.8a2 2 0 0 1 .001-.806c.063-.307.217-.582.34-.8l.033-.06 4.11-7.4a.938.938 0 0 0 .035-.063c.128-.23.288-.522.53-.745a2 2 0 0 1 .728-.428c.313-.103.644-.102.908-.101Zm-.28 2.005a6.636 6.636 0 0 0-.174.304l-4.111 7.4a6.574 6.574 0 0 0-.157.291 6.574 6.574 0 0 0 .157.291l4.11 7.4a6.677 6.677 0 0 0 .175.304h.006c.068.005.161.005.344.005h8.117a6.618 6.618 0 0 0 .35-.005l.004-.005c.036-.057.082-.139.171-.299l4.111-7.4a6.62 6.62 0 0 0 .155-.286L20.85 12l-.002-.005a6.62 6.62 0 0 0-.155-.286l-4.111-7.4a6.58 6.58 0 0 0-.171-.3l-.003-.004h-.006A6.641 6.641 0 0 0 16.058 4H7.941a6.64 6.64 0 0 0-.35.005Z" clip-rule="evenodd"/>
</svg>
