<svg xmlns="http://www.w3.org/2000/svg" width="24" height="24" fill="none" viewBox="0 0 24 24">
  <path stroke="#2970FF" stroke-linecap="round" stroke-linejoin="round" stroke-width="2" d="M21.568 11.223c.158.284.237.425.267.575a.977.977 0 0 1 0 .403c-.03.15-.11.292-.267.576l-4.11 7.4c-.167.3-.25.45-.369.558a1 1 0 0 1-.364.215c-.152.05-.324.05-.667.05H7.941c-.342 0-.514 0-.666-.05a1 1 0 0 1-.364-.215c-.119-.109-.202-.258-.368-.558l-4.111-7.4c-.158-.284-.237-.425-.268-.575a1 1 0 0 1 0-.403c.031-.15.11-.292.268-.576l4.11-7.4c.167-.3.25-.45.369-.558a1 1 0 0 1 .364-.215C7.427 3 7.599 3 7.94 3h8.117c.343 0 .515 0 .667.05a1 1 0 0 1 .364.215c.119.109.202.258.368.558l4.111 7.4Z"/>
</svg>
