<svg xmlns="http://www.w3.org/2000/svg" width="24" height="24" viewBox="0 0 24 24">
  <path d="M12.982 2.764c-.351-.273-.527-.41-.72-.462a1 1 0 0 0-.523 0c-.194.052-.37.189-.721.462L4.235 8.039c-.453.353-.68.53-.843.75a2 2 0 0 0-.318.65C3 9.704 3 9.991 3 10.565V17.8c0 1.12 0 1.68.218 2.108a2 2 0 0 0 .874.874C4.52 21 5.08 21 6.2 21h2c.28 0 .42 0 .527-.055a.5.5 0 0 0 .218-.218C9 20.62 9 20.48 9 20.2v-6.6c0-.56 0-.84.109-1.054a1 1 0 0 1 .437-.437C9.76 12 10.04 12 10.6 12h2.8c.56 0 .84 0 1.054.109a1 1 0 0 1 .437.437C15 12.76 15 13.04 15 13.6v6.6c0 .28 0 .42.055.527a.5.5 0 0 0 .218.218c.107.055.247.055.527.055h2c1.12 0 1.68 0 2.108-.218a2 2 0 0 0 .874-.874C21 19.48 21 18.92 21 17.8v-7.235c0-.574 0-.861-.074-1.126a2.002 2.002 0 0 0-.318-.65c-.163-.22-.39-.397-.843-.75l-6.783-5.275Z" opacity=".2"/>
  <path fill-rule="evenodd" d="M11.477 1.336a2 2 0 0 1 1.046 0c.397.108.732.37.999.58l.074.059L20.38 7.25l.077.06c.377.292.709.55.956.884a3 3 0 0 1 .477.976c.112.4.112.82.111 1.297v7.372c0 .527 0 .982-.03 1.356-.033.395-.104.789-.297 1.167a3 3 0 0 1-1.311 1.311c-.378.193-.772.264-1.167.296-.375.031-.83.031-1.356.031h-2.063c-.12 0-.261 0-.387-.01a1.508 1.508 0 0 1-.571-.153 1.5 1.5 0 0 1-.655-.656 1.51 1.51 0 0 1-.154-.571c-.01-.125-.01-.268-.01-.387V13.6c0-.296 0-.459-.01-.575l-.001-.014h-.014A8.207 8.207 0 0 0 13.4 13h-2.8a8.202 8.202 0 0 0-.588.011l-.002.014c-.01.116-.01.278-.01.575v6.623c0 .12 0 .262-.01.387a1.507 1.507 0 0 1-.153.571 1.5 1.5 0 0 1-.656.655 1.508 1.508 0 0 1-.571.154c-.125.01-.268.01-.387.01H6.161c-.527 0-.981 0-1.356-.03-.395-.033-.789-.104-1.167-.297a3 3 0 0 1-1.311-1.311c-.193-.378-.264-.772-.296-1.167C2 18.82 2 18.365 2 17.839v-7.372c0-.477-.001-.897.111-1.297a3 3 0 0 1 .477-.976c.247-.334.58-.592.956-.884l.077-.06 6.783-5.275.074-.059c.267-.21.602-.472 1-.58Zm.516 1.946c-.075.05-.174.126-.361.271L4.849 8.83c-.498.387-.59.47-.653.555a1 1 0 0 0-.159.325c-.028.1-.037.225-.037.856V17.8c0 .577 0 .949.024 1.232.022.272.06.373.085.422a1 1 0 0 0 .437.437c.05.025.15.063.422.085C5.25 20 5.623 20 6.2 20H8v-6.432c0-.252 0-.498.017-.706.019-.229.063-.498.201-.77a2 2 0 0 1 .874-.874 2.02 2.02 0 0 1 .77-.201c.208-.017.454-.017.706-.017h2.864c.252 0 .498 0 .706.017.229.019.499.063.77.201a2 2 0 0 1 .874.874c.138.271.182.541.201.77.017.208.017.454.017.706V20h1.8c.577 0 .949 0 1.232-.024.272-.022.373-.06.422-.085a1 1 0 0 0 .437-.437c.025-.05.063-.15.085-.422C20 18.75 20 18.377 20 17.8v-7.235c0-.63-.009-.755-.037-.856a1.001 1.001 0 0 0-.159-.325c-.063-.085-.155-.168-.653-.555l-6.783-5.276a7.241 7.241 0 0 0-.36-.271L12 3.277l-.007.005Z" clip-rule="evenodd"/>
</svg>
