<svg xmlns="http://www.w3.org/2000/svg" width="24" height="24" viewBox="0 0 24 24">
  <path fill-rule="evenodd" d="M12 11a2 2 0 1 0 0 4 2 2 0 0 0 0-4Zm-4 2a4 4 0 1 1 8 0 4 4 0 0 1-8 0Z" clip-rule="evenodd" opacity=".5"/>
  <path fill-rule="evenodd" d="M11.477 1.336a2 2 0 0 1 1.046 0c.397.108.732.37.999.58l.074.059L20.38 7.25l.077.06c.377.292.709.55.956.884a3 3 0 0 1 .477.976c.112.4.112.82.111 1.297v7.372c0 .527 0 .982-.03 1.356-.033.395-.104.789-.297 1.167a3 3 0 0 1-1.311 1.311c-.378.193-.772.264-1.167.296-.375.031-.83.031-1.356.031H6.16c-.527 0-.981 0-1.356-.03-.395-.033-.789-.104-1.167-.297a3 3 0 0 1-1.311-1.311c-.193-.378-.264-.772-.296-1.167C2 18.82 2 18.365 2 17.839v-7.372c0-.477-.001-.897.111-1.297a3 3 0 0 1 .477-.976c.247-.334.58-.592.956-.884l.077-.06 6.783-5.275.074-.059c.267-.21.602-.472 1-.58Zm.516 1.946c-.075.05-.174.126-.361.271L4.849 8.83c-.498.387-.59.47-.653.555a1 1 0 0 0-.159.325c-.028.1-.037.225-.037.856V17.8c0 .577 0 .949.024 1.232.022.272.06.373.085.422a1 1 0 0 0 .437.437c.05.025.15.063.422.085C5.25 20 5.623 20 6.2 20h11.6c.577 0 .949 0 1.232-.024.272-.022.373-.06.422-.085a1 1 0 0 0 .437-.437c.025-.05.063-.15.085-.422C20 18.75 20 18.377 20 17.8v-7.235c0-.63-.009-.755-.037-.856a1.001 1.001 0 0 0-.159-.325c-.063-.085-.155-.168-.653-.555l-6.783-5.276a7.241 7.241 0 0 0-.36-.271L12 3.277l-.007.005Z" clip-rule="evenodd"/>
</svg>
