<svg xmlns="http://www.w3.org/2000/svg" width="24" height="24" viewBox="0 0 24 24">
  <path d="M9 21v-9h6v9" opacity=".2"/>
  <path fill-rule="evenodd" d="M11.49 1.316a2 2 0 0 1 1.02 0c.386.102.715.35.977.549l.073.055.607.455.232.174.118.089.003.002L20.6 7.2l2 1.5a1 1 0 1 1-1.2 1.6L21 10v7.839c0 .527 0 .982-.03 1.356-.033.395-.104.789-.297 1.167a3 3 0 0 1-1.311 1.311c-.378.193-.772.264-1.167.296-.375.031-.83.031-1.356.031H7.16c-.527 0-.981 0-1.356-.03-.395-.033-.789-.104-1.167-.297a3 3 0 0 1-1.311-1.311c-.193-.378-.264-.772-.296-1.167A17.9 17.9 0 0 1 3 17.838V10l-.4.3a1 1 0 1 1-1.2-1.6l8.08-6.06.005-.004.116-.087.232-.174.607-.455.073-.055c.262-.198.59-.447.978-.55ZM5 8.5v9.3c0 .577 0 .949.024 1.232.022.272.06.372.085.422a1 1 0 0 0 .437.437c.05.025.15.063.422.085C6.25 20 6.623 20 7.2 20H8v-6.432c0-.252 0-.498.017-.706a2.03 2.03 0 0 1 .201-.77 2 2 0 0 1 .874-.874 2.03 2.03 0 0 1 .77-.201c.208-.017.454-.017.706-.017h2.864c.252 0 .498 0 .706.017.229.019.499.063.77.201a2 2 0 0 1 .874.874c.138.271.182.541.201.77.017.208.017.454.017.706V20h.8c.577 0 .949 0 1.232-.024.272-.022.372-.06.422-.085a1 1 0 0 0 .437-.437c.025-.05.063-.15.085-.422C19 18.75 19 18.377 19 17.8V8.5l-5.68-4.26c-.76-.57-.922-.67-1.065-.707a1 1 0 0 0-.51 0c-.143.038-.305.137-1.065.707L5 8.5ZM14 20v-6.4c0-.296 0-.459-.01-.575l-.001-.014h-.014A8.207 8.207 0 0 0 13.4 13h-2.8c-.296 0-.459 0-.575.01l-.014.001v.014c-.01.116-.011.278-.011.575V20h4Z" clip-rule="evenodd"/>
</svg>
