<svg xmlns="http://www.w3.org/2000/svg" width="24" height="24" viewBox="0 0 24 24">
  <path d="M19.4 19.5c.56 0 .84 0 1.054-.109a1 1 0 0 0 .437-.437C21 18.74 21 18.46 21 17.9v-1.8c0-.56 0-.84-.109-1.054a1 1 0 0 0-.437-.437c-.214-.109-.494-.109-1.054-.109H3v5h16.4Z" opacity=".2"/>
  <path fill-rule="evenodd" d="M3 1a1 1 0 0 1 1 1v1.5h7.432c.252 0 .498 0 .706.017.229.019.499.063.77.201a2 2 0 0 1 .874.874c.138.271.182.541.201.77.017.208.017.454.017.706V8.5h1.432c.252 0 .498 0 .706.017.229.019.499.063.77.201a2 2 0 0 1 .874.874c.138.271.182.541.201.77.017.208.017.454.017.706V13.5h1.432c.252 0 .498 0 .706.017.229.019.499.063.77.201a2 2 0 0 1 .874.874c.138.271.182.541.201.77.017.208.017.454.017.706v1.864c0 .252 0 .498-.017.706a2.022 2.022 0 0 1-.201.77 2 2 0 0 1-.874.874 2.022 2.022 0 0 1-.77.201c-.208.017-.454.017-.706.017H4V22a1 1 0 1 1-2 0V9.5s0 .001 0 0V2a1 1 0 0 1 1-1Zm1 4.5v3h8V6.1c0-.297 0-.459-.01-.575l-.001-.014h-.014A8.194 8.194 0 0 0 11.4 5.5H4Zm0 5v3h12v-2.4c0-.296 0-.459-.01-.575l-.001-.014h-.014a8.207 8.207 0 0 0-.575-.011H4Zm0 5v3h15.4a8.207 8.207 0 0 0 .589-.012v-.013c.01-.116.011-.279.011-.575v-1.8a8.207 8.207 0 0 0-.012-.589h-.013a8.207 8.207 0 0 0-.575-.011H4Z" clip-rule="evenodd"/>
</svg>
