<svg xmlns="http://www.w3.org/2000/svg" width="24" height="24" viewBox="0 0 24 24">
  <path fill-rule="evenodd" d="M11.975 5.51a8.194 8.194 0 0 0-.575-.01H3a1 1 0 1 1 0-2h8.432c.252 0 .498 0 .706.017.229.019.499.063.77.201l-.454.891m-.479.901.014.001h-.014Zm.014.001v.014c.01.116.011.278.011.575v2.4H3a1 1 0 0 0 0 2h12.4c.296 0 .459 0 .575.01l.014.001v.014c.01.116.011.278.011.575v3.4a1 1 0 1 0 2 0v-3.432c0-.252 0-.498-.017-.706a2.022 2.022 0 0 0-.201-.77 2 2 0 0 0-.874-.874 2.022 2.022 0 0 0-.77-.201c-.208-.017-.454-.017-.706-.017H14V6.068c0-.252 0-.498-.017-.706a2.022 2.022 0 0 0-.201-.77 2 2 0 0 0-.874-.874" clip-rule="evenodd" opacity=".5"/>
  <path fill-rule="evenodd" d="M3 1a1 1 0 0 1 1 1v11.5h15.432c.252 0 .498 0 .706.017.229.019.499.063.77.201a2 2 0 0 1 .874.874c.138.271.182.541.201.77.017.208.017.454.017.706v1.864c0 .252 0 .498-.017.706a2.022 2.022 0 0 1-.201.77 2 2 0 0 1-.874.874 2.022 2.022 0 0 1-.77.201c-.208.017-.454.017-.706.017H4V22a1 1 0 1 1-2 0V2a1 1 0 0 1 1-1Zm1 17.5h15.4a8.207 8.207 0 0 0 .589-.012v-.013c.01-.116.011-.279.011-.575v-1.8a8.207 8.207 0 0 0-.012-.589h-.013a8.207 8.207 0 0 0-.575-.011H4v3Z" clip-rule="evenodd"/>
</svg>
