<svg xmlns="http://www.w3.org/2000/svg" width="24" height="24" viewBox="0 0 24 24">
  <path d="M19.4 14.5c.56 0 .84 0 1.054-.109a1 1 0 0 0 .437-.437C21 13.74 21 13.46 21 12.9v-1.8c0-.56 0-.84-.109-1.054a1 1 0 0 0-.437-.437C20.24 9.5 19.96 9.5 19.4 9.5H3v5h16.4Z" opacity=".2"/>
  <path d="M3 23c-.55 0-1-.45-1-1V2c0-.55.45-1 1-1s1 .45 1 1v1.5h11.4c.65 0 1.08 0 1.51.22.38.19.68.49.87.87.22.43.22.86.22 1.51v2.4h1.4c.65 0 1.08 0 1.51.22.38.2.68.5.88.87.22.43.22.86.22 1.51v1.8c0 .65 0 1.08-.22 1.51-.2.38-.5.68-.88.88-.43.22-.86.22-1.51.22H14v2.4c0 .65 0 1.08-.22 1.51-.19.38-.5.68-.88.87-.43.22-.86.22-1.51.22H4v1.5c0 .55-.45 1-1 1V23Zm1-4.5h7.4c.28 0 .57 0 .65-.02-.05-.01-.05-.3-.05-.58v-2.4H4v3Zm0-5h15.4c.28 0 .57 0 .65-.02-.05-.01-.05-.3-.05-.58v-1.8c0-.28 0-.57-.02-.65-.01.05-.3.05-.58.05H4v3Zm0-5h12V6.1c0-.28 0-.57-.02-.65-.01.05-.3.05-.58.05H4v3Z"/>
</svg>
