<svg xmlns="http://www.w3.org/2000/svg" width="24" height="24" viewBox="0 0 24 24">
  <path fill-rule="evenodd" d="M17 8.5a1 1 0 0 1 1 1v3.432c0 .252 0 .498-.017.706a2.022 2.022 0 0 1-.201.77 2 2 0 0 1-.874.874 2.022 2.022 0 0 1-.77.201c-.208.017-.454.017-.706.017H14v2.432c0 .252 0 .498-.017.706a2.022 2.022 0 0 1-.201.77 2 2 0 0 1-.874.874 2.022 2.022 0 0 1-.77.201c-.208.017-.454.017-.706.017H3a1 1 0 1 1 0-2h8.4c.296 0 .459 0 .575-.01l.014-.001v-.014c.01-.116.011-.279.011-.575v-2.4H3a1 1 0 1 1 0-2h12.4c.296 0 .459 0 .575-.01l.014-.001v-.014c.01-.116.011-.278.011-.575V9.5a1 1 0 0 1 1-1Z" clip-rule="evenodd" opacity=".5"/>
  <path fill-rule="evenodd" d="M3 1a1 1 0 0 1 1 1v1.5h15.432c.252 0 .498 0 .706.017.229.019.499.063.77.201a2 2 0 0 1 .874.874c.138.271.182.541.201.77.017.208.017.454.017.706v1.864c0 .252 0 .498-.017.706a2.022 2.022 0 0 1-.201.77 2 2 0 0 1-.874.874 2.022 2.022 0 0 1-.77.201c-.208.017-.454.017-.706.017H4V22a1 1 0 1 1-2 0V9.5s0 .001 0 0V2a1 1 0 0 1 1-1Zm1 7.5h15.4a8.194 8.194 0 0 0 .589-.011v-.014C20 8.36 20 8.197 20 7.9V6.1a8.205 8.205 0 0 0-.012-.589h-.013A8.194 8.194 0 0 0 19.4 5.5H4v3Z" clip-rule="evenodd"/>
</svg>
