<svg xmlns="http://www.w3.org/2000/svg" width="24" height="24" viewBox="0 0 24 24">
  <path fill-rule="evenodd" d="M15.975 5.51a8.194 8.194 0 0 0-.575-.01H3a1 1 0 1 1 0-2h12.432c.252 0 .498 0 .706.017.229.019.499.063.77.201a2 2 0 0 1 .874.874c.138.271.182.541.201.77.017.208.017.454.017.706V9.5a1 1 0 1 1-2 0V6.1c0-.297 0-.459-.01-.575l-.001-.014h-.014ZM13 13.5a1 1 0 0 1 1 1v3.432c0 .252 0 .498-.017.706a2.022 2.022 0 0 1-.201.77 2 2 0 0 1-.874.874 2.022 2.022 0 0 1-.77.201c-.208.017-.454.017-.706.017H3a1 1 0 1 1 0-2h8.4c.296 0 .459 0 .575-.01l.014-.001v-.014c.01-.116.011-.279.011-.575v-3.4a1 1 0 0 1 1-1Z" clip-rule="evenodd" opacity=".5"/>
  <path fill-rule="evenodd" d="M3 1a1 1 0 0 1 1 1v6.5h15.432c.252 0 .498 0 .706.017.229.019.499.063.77.201a2 2 0 0 1 .874.874c.138.271.182.541.201.77.017.208.017.454.017.706v1.864c0 .252 0 .498-.017.706a2.022 2.022 0 0 1-.201.77 2 2 0 0 1-.874.874 2.022 2.022 0 0 1-.77.201c-.208.017-.454.017-.706.017H4V22a1 1 0 1 1-2 0V2a1 1 0 0 1 1-1Zm1 12.5h15.4a8.207 8.207 0 0 0 .589-.011v-.014c.01-.116.011-.278.011-.575v-1.8a8.207 8.207 0 0 0-.012-.589h-.013a8.207 8.207 0 0 0-.575-.011H4v3Z" clip-rule="evenodd"/>
</svg>
