<svg xmlns="http://www.w3.org/2000/svg" width="24" height="24" viewBox="0 0 24 24">
  <path d="M17.4 23H6.6c-.65 0-1.08 0-1.51-.22-.38-.19-.68-.49-.87-.87C4 21.48 4 21.05 4 20.4v-2.07c0-.53 0-.85.08-1.2.07-.31.19-.6.36-.87.18-.3.41-.53.78-.9l2.94-2.94c.2-.2.4-.4.44-.47-.04.04-.25-.18-.44-.37L5.23 8.64c-.38-.38-.6-.6-.79-.91a3.02 3.02 0 0 1-.36-.87C4 6.52 4 6.2 4 5.66V3.6c0-.65 0-1.08.22-1.51.19-.38.49-.68.87-.87C5.52 1 5.95 1 6.6 1h10.8c.65 0 1.08 0 1.51.22.38.19.68.49.87.87.22.43.22.86.22 1.51v2.07c0 .53 0 .85-.08 1.2-.08.31-.2.61-.36.87-.18.3-.41.53-.79.9l-2.93 2.93c-.2.2-.4.4-.45.47.05-.04.25.18.45.37l2.93 2.93c.38.38.6.6.79.91.16.26.28.55.36.86.08.35.08.67.08 1.2v2.07c0 .65 0 1.08-.22 1.51-.2.38-.5.68-.88.88-.43.22-.86.22-1.51.22l.01.01ZM6.6 3c-.28 0-.57 0-.65.02.05.01.05.3.05.58v2.07c0 .38 0 .61.03.73.02.1.06.2.12.29.06.1.23.27.5.54l2.93 2.93c.46.46.76.76.91 1.22.13.41.13.83 0 1.24-.15.46-.45.76-.91 1.22l-2.93 2.93c-.27.27-.44.44-.5.54-.06.09-.1.19-.12.29-.03.12-.03.35-.03.73v2.07c0 .28 0 .57.02.65.01-.05.3-.05.58-.05h10.8c.28 0 .57 0 .65-.02-.05-.01-.05-.3-.05-.58v-2.07c0-.38 0-.62-.03-.73-.02-.1-.06-.2-.12-.28-.06-.11-.23-.27-.5-.54l-2.93-2.93c-.46-.46-.76-.76-.91-1.22-.13-.4-.13-.83 0-1.24.15-.46.45-.76.91-1.22l2.93-2.93c.29-.29.44-.44.5-.54.06-.09.1-.19.12-.29.03-.11.03-.34.03-.73V3.6c0-.28 0-.57-.02-.65-.01.05-.3.05-.58.05H6.6ZM15 19.5H9c-.55 0-1-.45-1-1s.45-1 1-1h6c.55 0 1 .45 1 1s-.45 1-1 1Z"/>
</svg>
