<svg xmlns="http://www.w3.org/2000/svg" width="24" height="24" viewBox="0 0 24 24">
  <path fill-rule="evenodd" d="M4 2.837C4 1.823 4.823 1 5.837 1h12.326C19.177 1 20 1.823 20 2.837a11.05 11.05 0 0 1-3.236 7.813l-1.22 1.22a7.448 7.448 0 0 0-.128.13 7.448 7.448 0 0 0 .129.13l1.219 1.22A11.05 11.05 0 0 1 20 21.163 1.837 1.837 0 0 1 18.163 23H5.837A1.837 1.837 0 0 1 4 21.163a11.05 11.05 0 0 1 3.236-7.813l1.22-1.22.707.707-.708-.707c.065-.064.1-.099.124-.125L8.584 12l-.005-.005a7.58 7.58 0 0 0-.124-.125l-1.219-1.22A11.05 11.05 0 0 1 4 2.837ZM6.001 3a9.05 9.05 0 0 0 2.65 6.236l1.219 1.22.026.026c.092.091.204.203.293.323l-.775.578.775-.578a2 2 0 0 1 0 2.39l-.775-.578.775.578a3.04 3.04 0 0 1-.293.323l-.026.026-1.22 1.22A9.05 9.05 0 0 0 6.001 21h11.997a9.05 9.05 0 0 0-2.649-6.236l-1.219-1.22-.026-.026a3.039 3.039 0 0 1-.293-.323 2 2 0 0 1 0-2.39c.089-.12.2-.232.293-.323l.026-.026 1.22-1.22A9.05 9.05 0 0 0 17.998 3H6Z" clip-rule="evenodd"/>
</svg>
