<svg xmlns="http://www.w3.org/2000/svg" width="24" height="24" viewBox="0 0 24 24">
  <path d="M17.4 2H6.6c-.56 0-.84 0-1.054.109a1 1 0 0 0-.437.437C5 2.76 5 3.04 5 3.6v2.075c0 .489 0 .733.055.963a2 2 0 0 0 .24.579c.123.201.296.374.642.72L8.87 10.87c.396.396.594.594.668.822a1 1 0 0 1 0 .618c-.074.228-.272.426-.668.822l-2.932 2.932c-.346.346-.519.519-.642.72-.11.18-.19.374-.24.578-.055.23-.055.475-.055.965V20.4c0 .56 0 .84.109 1.054a1 1 0 0 0 .437.437C5.76 22 6.04 22 6.6 22h10.8c.56 0 .84 0 1.054-.109a1 1 0 0 0 .437-.437C19 21.24 19 20.96 19 20.4v-2.074c0-.49 0-.734-.055-.965a2.02 2.02 0 0 0-.24-.578c-.123-.201-.296-.374-.642-.72L15.13 13.13c-.396-.396-.594-.594-.668-.822a1 1 0 0 1 0-.618c.074-.228.272-.426.668-.822l2.932-2.932c.346-.346.519-.519.642-.72.11-.18.19-.374.24-.579.055-.23.055-.474.055-.963V3.6c0-.56 0-.84-.109-1.054a1 1 0 0 0-.437-.437C18.24 2 17.96 2 17.4 2Z" opacity=".2"/>
  <path d="M9 19.5h6c.55 0 1-.45 1-1s-.45-1-1-1H9c-.55 0-1 .45-1 1s.45 1 1 1Z"/>
  <path fill-rule="evenodd" d="M6.6 23h10.8l.01-.01c.65 0 1.08 0 1.51-.22.38-.19.69-.49.88-.87.22-.43.22-.86.22-1.51v-2.07c0-.54 0-.86-.08-1.2-.07-.31-.19-.6-.36-.87-.19-.3-.41-.52-.79-.9l-2.93-2.93c-.19-.2-.41-.4-.44-.38.04-.07.24-.27.44-.47l2.93-2.93c.38-.38.6-.61.79-.91.17-.27.29-.57.36-.87.08-.35.08-.67.08-1.2V3.59c0-.65 0-1.08-.22-1.51-.2-.38-.5-.69-.88-.88-.43-.22-.86-.22-1.51-.22H6.61c-.65 0-1.08 0-1.51.22-.38.2-.69.5-.88.88C4 2.51 4 2.94 4 3.59v2.07c0 .53 0 .86.08 1.2.07.31.19.6.36.87.19.3.41.52.79.9l2.93 2.93c.18.19.4.4.44.38-.04.07-.25.28-.44.47l-2.93 2.93c-.38.38-.6.61-.79.91-.17.27-.29.56-.36.87-.08.35-.08.67-.08 1.2v2.07c0 .65 0 1.08.22 1.51.19.38.49.69.87.88.43.22.86.22 1.51.22ZM5.95 3.02C6.03 3 6.32 3 6.6 3h10.8c.28 0 .57 0 .58-.05.02.08.02.37.02.65v2.07c0 .38 0 .61-.03.73-.03.1-.07.2-.12.29-.07.1-.23.27-.5.54l-2.93 2.93c-.46.46-.76.76-.91 1.22-.13.41-.13.84 0 1.24.15.46.45.76.91 1.22l2.93 2.93.188.193c.162.165.267.273.312.347.05.09.09.19.12.29.03.11.03.35.03.73v2.07c0 .28 0 .56.05.58-.08.02-.37.02-.65.02H6.6c-.28 0-.57 0-.58.05C6 20.97 6 20.68 6 20.4v-2.07c0-.38 0-.62.03-.73.03-.1.07-.2.12-.29.07-.1.23-.27.5-.54l2.93-2.93c.46-.46.76-.76.91-1.22.13-.41.13-.84 0-1.24-.15-.46-.45-.76-.91-1.22L6.65 7.23l-.188-.193c-.162-.165-.267-.273-.312-.347a.813.813 0 0 1-.12-.29C6 6.29 6 6.05 6 5.67V3.6c0-.28 0-.57-.05-.58Z" clip-rule="evenodd"/>
</svg>
