<svg xmlns="http://www.w3.org/2000/svg" width="24" height="24" viewBox="0 0 24 24">
  <path d="M15 19.5H9c-.55 0-1-.45-1-1s.45-1 1-1h6c.55 0 1 .45 1 1s-.45 1-1 1Z" opacity=".5"/>
  <path d="M17.4 23H6.6c-.65 0-1.08 0-1.51-.22-.38-.19-.68-.5-.87-.88C4 21.47 4 21.04 4 20.39v-2.07c0-.53 0-.85.08-1.2.07-.31.19-.6.36-.87.19-.3.41-.53.79-.91l2.93-2.93c.19-.19.4-.4.44-.47-.04.02-.26-.19-.44-.38L5.23 8.63c-.38-.38-.6-.6-.79-.9-.17-.27-.29-.56-.36-.87C4 6.52 4 6.19 4 5.66V3.59c0-.65 0-1.08.22-1.51.19-.38.5-.68.88-.88.43-.22.86-.22 1.51-.22h10.8c.65 0 1.08 0 1.51.22.38.19.68.5.88.88.22.43.22.86.22 1.51v2.07c0 .53 0 .85-.08 1.2-.07.3-.19.6-.36.87-.19.3-.41.53-.79.91l-2.93 2.93c-.2.2-.4.4-.44.47.03-.02.25.18.44.38l2.93 2.93c.38.38.6.6.79.9.17.27.29.56.36.87.08.34.08.66.08 1.2v2.07c0 .65 0 1.08-.22 1.51-.19.38-.5.68-.88.87-.43.22-.86.22-1.51.22l-.01.01ZM6.6 3c-.28 0-.57 0-.65.02.05.01.05.3.05.58v2.07c0 .38 0 .62.03.73.02.1.06.2.12.29.06.1.23.26.5.54l2.93 2.93c.46.46.76.76.91 1.22.13.4.13.83 0 1.24-.15.46-.45.76-.91 1.22l-2.93 2.93c-.27.27-.43.44-.5.54-.05.09-.09.19-.12.29-.03.11-.03.35-.03.73v2.07c0 .28 0 .57.02.65.01-.05.3-.05.58-.05h10.8c.28 0 .57 0 .65-.02-.05-.02-.05-.3-.05-.58v-2.07c0-.38 0-.62-.03-.73-.03-.1-.07-.2-.12-.29-.06-.1-.23-.26-.5-.54l-2.93-2.93c-.46-.46-.76-.76-.91-1.22-.13-.4-.13-.83 0-1.24.15-.46.45-.76.91-1.22l2.93-2.93c.27-.27.43-.44.5-.54.05-.09.09-.19.12-.29.03-.12.03-.35.03-.73V3.6c0-.28 0-.57-.02-.65-.01.05-.3.05-.58.05H6.6Z"/>
</svg>
