<svg xmlns="http://www.w3.org/2000/svg" width="24" height="24" viewBox="0 0 24 24">
  <path fill-rule="evenodd" d="M6 1a1 1 0 0 1 1 1v2.752c0 .88.008 1.137.069 1.362a2 2 0 0 0 .295.632c.135.19.327.361 1.003.925L12 10.698l3.633-3.027c.676-.564.868-.734 1.003-.925.134-.192.235-.405.295-.632.061-.225.069-.482.069-1.362V2a1 1 0 1 1 2 0v2.867c0 .714 0 1.254-.137 1.767a4 4 0 0 1-.592 1.263c-.306.435-.72.78-1.27 1.237l-.088.073L13.562 12l3.351 2.793.089.073c.549.457.963.803 1.27 1.237a4 4 0 0 1 .59 1.263c.139.513.138 1.053.138 1.767V22a1 1 0 1 1-2 0v-2.752c0-.88-.008-1.137-.069-1.363l.966-.26-.966.26c-.06-.226-.16-.44-.295-.63-.135-.192-.327-.362-1.003-.926L12 13.302l-3.633 3.027c-.676.564-.868.734-1.003.925a2 2 0 0 0-.295.631c-.061.226-.069.483-.069 1.363V22a1 1 0 1 1-2 0v-2.867c0-.714 0-1.254.137-1.767a4 4 0 0 1 .592-1.263c.306-.435.72-.78 1.27-1.237l.088-.073L10.438 12 7.087 9.207l-.089-.073c-.549-.457-.963-.802-1.27-1.237a4 4 0 0 1-.59-1.263C4.998 6.121 5 5.581 5 4.867V2a1 1 0 0 1 1-1Z" clip-rule="evenodd" opacity=".5"/>
  <path fill-rule="evenodd" d="M3 2a1 1 0 0 1 1-1h16a1 1 0 1 1 0 2H4a1 1 0 0 1-1-1Zm0 20a1 1 0 0 1 1-1h16a1 1 0 1 1 0 2H4a1 1 0 0 1-1-1Z" clip-rule="evenodd"/>
</svg>
