<svg xmlns="http://www.w3.org/2000/svg" width="24" height="24" viewBox="0 0 24 24">
  <path d="M6 19.248V22h12v-2.752c0-.826 0-1.24-.103-1.622a3 3 0 0 0-.444-.947c-.228-.325-.545-.59-1.18-1.118L12 12l-4.273 3.56c-.635.53-.952.794-1.18 1.119a3 3 0 0 0-.444.947C6 18.009 6 18.422 6 19.248Z" opacity=".2"/>
  <path fill-rule="evenodd" d="M3 2a1 1 0 0 1 1-1h16a1 1 0 1 1 0 2h-1v1.867c0 .714 0 1.254-.137 1.767a4 4 0 0 1-.592 1.263c-.306.435-.72.78-1.27 1.237l-.088.073L13.562 12l3.351 2.793.089.073c.549.457.963.803 1.27 1.237a4 4 0 0 1 .59 1.263c.139.513.138 1.053.138 1.767V21h1a1 1 0 1 1 0 2H4a1 1 0 1 1 0-2h1v-1.867c0-.714 0-1.254.137-1.767a4 4 0 0 1 .592-1.263c.306-.435.72-.78 1.27-1.237l.088-.073L10.438 12 7.087 9.207l-.089-.073c-.549-.457-.963-.802-1.27-1.237a4 4 0 0 1-.59-1.263C4.998 6.121 5 5.581 5 4.867V3H4a1 1 0 0 1-1-1Zm4 1v1.752c0 .88.008 1.137.069 1.362a2 2 0 0 0 .295.632c.135.19.327.361 1.003.925L12 10.698l3.633-3.027c.676-.564.868-.734 1.003-.925.134-.192.235-.405.295-.632.061-.225.069-.482.069-1.362V3H7Zm5 10.302-3.633 3.027c-.676.564-.868.734-1.003.925a2 2 0 0 0-.295.631c-.061.226-.069.483-.069 1.363V21h10v-1.752c0-.88-.008-1.137-.069-1.363-.06-.226-.16-.44-.295-.63-.135-.192-.327-.362-1.003-.926L12 13.302Z" clip-rule="evenodd"/>
</svg>
