<svg xmlns="http://www.w3.org/2000/svg" width="24" height="24" viewBox="0 0 24 24">
  <path fill-rule="evenodd" d="M3.651 11.139a1 1 0 0 1 1.378-.32c1.194.744 3.79 1.348 6.971 1.348 3.182 0 5.777-.604 6.971-1.348a1 1 0 0 1 1.058 1.698c-1.669 1.04-4.717 1.65-8.029 1.65-3.312 0-6.36-.61-8.029-1.65a1 1 0 0 1-.32-1.378Zm1.413 4.938a1 1 0 0 1 1.29-.582c1.32.499 3.336.838 5.646.838s4.326-.34 5.647-.838a1 1 0 1 1 .706 1.871c-1.611.609-3.884.967-6.353.967-2.47 0-4.742-.358-6.353-.967a1 1 0 0 1-.583-1.289Zm1.466 4.18a1 1 0 0 1 1.213-.727c1.162.291 2.637.47 4.257.47 1.62 0 3.095-.179 4.257-.47a1 1 0 0 1 .486 1.94c-1.345.337-2.987.53-4.743.53-1.756 0-3.398-.193-4.743-.53a1 1 0 0 1-.727-1.213Z" clip-rule="evenodd" opacity=".5"/>
  <path fill-rule="evenodd" d="m4 6 .003.015a.296.296 0 0 0 .032.066c.043.07.13.174.291.301.33.26.87.539 1.626.79C7.454 7.674 9.592 8 12 8s4.546-.327 6.048-.827c.756-.252 1.296-.53 1.626-.79.162-.128.248-.232.29-.302a.293.293 0 0 0 .033-.066L20 6l-.003-.015a.293.293 0 0 0-.032-.066 1.235 1.235 0 0 0-.291-.301c-.33-.26-.87-.539-1.626-.79C16.546 4.326 14.408 4 12 4s-4.546.327-6.048.827c-.756.252-1.296.53-1.626.79a1.236 1.236 0 0 0-.29.302.296.296 0 0 0-.033.066L4 6Zm1.32-3.07C7.075 2.345 9.437 2 12 2c2.563 0 4.925.345 6.68.93.873.29 1.651.66 2.232 1.117C21.482 4.496 22 5.148 22 6c0 .852-.519 1.504-1.088 1.953-.581.458-1.36.826-2.232 1.117-1.755.585-4.117.93-6.68.93-2.563 0-4.925-.345-6.68-.93-.873-.29-1.651-.66-2.232-1.117C2.518 7.504 2 6.852 2 6c0-.852.519-1.504 1.088-1.953.581-.458 1.36-.826 2.232-1.117Z" clip-rule="evenodd"/>
</svg>
