<svg xmlns="http://www.w3.org/2000/svg" width="24" height="24" viewBox="0 0 24 24">
  <path fill-rule="evenodd" d="M2 4a1 1 0 0 1 1-1h18a1 1 0 1 1 0 2H3a1 1 0 0 1-1-1Zm2.568 3h4.864c.252 0 .498 0 .706.017.229.019.499.063.77.201a2 2 0 0 1 .874.874c.138.271.182.541.201.77.017.208.017.454.017.706v4.864c0 .252 0 .498-.017.706a2.022 2.022 0 0 1-.201.77 2 2 0 0 1-.874.874 2.022 2.022 0 0 1-.77.201C9.93 17 9.684 17 9.432 17H4.568c-.252 0-.498 0-.706-.017a2.022 2.022 0 0 1-.77-.201 2 2 0 0 1-.874-.874 2.022 2.022 0 0 1-.201-.77C2 14.93 2 14.684 2 14.432V9.568c0-.252 0-.498.017-.706a2.03 2.03 0 0 1 .201-.77 2 2 0 0 1 .874-.874 2.03 2.03 0 0 1 .77-.201C4.07 7 4.316 7 4.568 7Zm-.557 2.011v.014C4 9.14 4 9.303 4 9.6v4.8a8.187 8.187 0 0 0 .011.589h.014c.116.01.278.011.575.011h4.8c.297 0 .459 0 .575-.01l.014-.001v-.014c.01-.116.011-.278.011-.575V9.6a8.186 8.186 0 0 0-.011-.589h-.014A8.192 8.192 0 0 0 9.4 9H4.6a8.192 8.192 0 0 0-.589.011ZM14 9.25a1 1 0 0 1 1-1h6a1 1 0 1 1 0 2h-6a1 1 0 0 1-1-1Zm0 5.5a1 1 0 0 1 1-1h6a1 1 0 1 1 0 2h-6a1 1 0 0 1-1-1ZM2 20a1 1 0 0 1 1-1h18a1 1 0 1 1 0 2H3a1 1 0 0 1-1-1Z" clip-rule="evenodd"/>
</svg>
