<svg xmlns="http://www.w3.org/2000/svg" width="24" height="24" viewBox="0 0 24 24">
  <path fill-rule="evenodd" d="M2 4a1 1 0 0 1 1-1h18a1 1 0 1 1 0 2H3a1 1 0 0 1-1-1Zm12.568 3h4.864c.252 0 .498 0 .706.017.229.019.499.063.77.201a2 2 0 0 1 .874.874c.138.271.182.541.201.77.017.208.017.454.017.706v4.864c0 .252 0 .498-.017.706a2.022 2.022 0 0 1-.201.77 2 2 0 0 1-.874.874 2.022 2.022 0 0 1-.77.201c-.208.017-.454.017-.706.017h-4.864c-.252 0-.498 0-.706-.017a2.022 2.022 0 0 1-.77-.201 2 2 0 0 1-.874-.874 2.022 2.022 0 0 1-.201-.77C12 14.93 12 14.684 12 14.432V9.568c0-.252 0-.498.017-.706a2.03 2.03 0 0 1 .201-.77 2 2 0 0 1 .874-.874 2.03 2.03 0 0 1 .77-.201C14.07 7 14.316 7 14.568 7Zm-.557 2.011v.014C14 9.14 14 9.303 14 9.6v4.8c0 .296 0 .459.01.575l.001.014h.014c.116.01.278.011.575.011h4.8a8.207 8.207 0 0 0 .589-.011v-.014c.01-.116.011-.278.011-.575V9.6a8.205 8.205 0 0 0-.012-.589h-.013A8.194 8.194 0 0 0 19.4 9h-4.8a8.194 8.194 0 0 0-.589.011ZM2 9.25a1 1 0 0 1 1-1h6a1 1 0 0 1 0 2H3a1 1 0 0 1-1-1Zm0 5.5a1 1 0 0 1 1-1h6a1 1 0 1 1 0 2H3a1 1 0 0 1-1-1ZM2 20a1 1 0 0 1 1-1h18a1 1 0 1 1 0 2H3a1 1 0 0 1-1-1Z" clip-rule="evenodd"/>
</svg>
