<svg xmlns="http://www.w3.org/2000/svg" width="24" height="24"  viewBox="0 0 24 24">
  <path fill-rule="evenodd" d="M5.5 8.5a3 3 0 1 1 6 0 3 3 0 0 1-6 0Z" clip-rule="evenodd"/>
  <path fill-rule="evenodd" d="M12 1C5.925 1 1 5.925 1 12s4.925 11 11 11 11-4.925 11-11S18.075 1 12 1ZM3 12a9 9 0 1 1 17.881 1.467l-3.065-3.065a9.147 9.147 0 0 0-.511-.488 2.02 2.02 0 0 0-.687-.402 2 2 0 0 0-1.236 0 2.02 2.02 0 0 0-.686.402c-.16.135-.333.31-.512.488L5.936 18.65A8.977 8.977 0 0 1 3 12Z" clip-rule="evenodd"/>
</svg>
