<svg xmlns="http://www.w3.org/2000/svg" width="24" height="24" viewBox="0 0 24 24">
  <path fill-rule="evenodd" d="M8 8a1 1 0 1 0 0 2 1 1 0 0 0 0-2ZM5 9a3 3 0 1 1 6 0 3 3 0 0 1-6 0Z" clip-rule="evenodd" opacity=".5"/>
  <path fill-rule="evenodd" d="M6.759 2H17.24c.805 0 1.47 0 2.01.044.563.046 1.08.145 1.565.392a4 4 0 0 1 1.748 1.748c.247.485.346 1.002.392 1.564C23 6.29 23 6.954 23 7.758v8.484c0 .805 0 1.47-.044 2.01-.046.563-.145 1.08-.392 1.565a4 4 0 0 1-1.748 1.748c-.485.247-1.002.346-1.564.392-.541.044-1.206.044-2.01.044H6.758c-.805 0-1.47 0-2.01-.044-.563-.046-1.08-.145-1.565-.392a4 4 0 0 1-1.748-1.748c-.247-.485-.346-1.002-.392-1.564C1 17.71 1 17.046 1 16.242V7.758c0-.805 0-1.47.044-2.01.046-.563.145-1.08.392-1.565a4 4 0 0 1 1.748-1.748c.485-.247 1.002-.346 1.564-.392C5.29 2 5.954 2 6.758 2ZM21 12.586V7.8c0-.857 0-1.439-.038-1.889-.035-.438-.1-.663-.18-.819a2 2 0 0 0-.874-.874c-.156-.08-.38-.145-.819-.18C18.639 4 18.057 4 17.2 4H6.8c-.857 0-1.439 0-1.889.038-.438.035-.663.1-.819.18a2 2 0 0 0-.874.874c-.08.156-.145.38-.18.819C3 6.361 3 6.943 3 7.8v8.4c0 .857 0 1.439.038 1.889.035.438.1.663.18.819a2 2 0 0 0 .691.768l6.275-6.274c.179-.179.352-.353.511-.488.175-.148.397-.308.687-.402a2 2 0 0 1 1.236 0c.29.094.512.254.687.402.159.135.332.31.51.488l.185.184 2.184-2.184a9.18 9.18 0 0 1 .511-.488c.175-.148.397-.308.687-.402a2 2 0 0 1 1.236 0c.29.094.512.254.687.402.159.135.332.31.51.488L21 12.586ZM15.414 15l4.677 4.676a2 2 0 0 0 .691-.768c.08-.156.145-.38.18-.819.037-.45.038-1.032.038-1.889v-.786l-2.576-2.575a8.173 8.173 0 0 0-.414-.4L18 12.43l-.01.009a7.64 7.64 0 0 0-.414.4L15.414 15Zm2.172 5-5.162-5.162a8.173 8.173 0 0 0-.414-.4L12 14.43l-.01.009a7.64 7.64 0 0 0-.414.4l-5.162 5.16L6.8 20h10.786Z" clip-rule="evenodd"/>
</svg>
