<svg xmlns="http://www.w3.org/2000/svg" width="24" height="24" viewBox="0 0 24 24">
  <path d="M10 13.5a4 4 0 1 0 0-8 4 4 0 0 0 0 8Zm8 8.5c0-.93 0-1.394-.077-1.78a4 4 0 0 0-3.143-3.143C14.394 17 13.93 17 13 17H6a4.002 4.002 0 0 0-3.854 2.926A3.001 3.001 0 0 0 5 22h13Z" opacity=".2"/>
  <path fill-rule="evenodd" d="M6.759 1H12a1 1 0 1 1 0 2H6.8c-.857 0-1.439 0-1.889.038-.438.035-.663.1-.819.18a2 2 0 0 0-.874.874c-.08.156-.145.38-.18.819C3 5.361 3 5.943 3 6.8V17c.835-.628 1.874-1 3-1h7.116c.817 0 1.374 0 1.86.096a5 5 0 0 1 3.928 3.928c.055.28.079.583.089.946l.096-.008c.438-.035.663-.1.819-.18a2 2 0 0 0 .874-.874c.08-.156.145-.38.18-.819.037-.45.038-1.032.038-1.889V12a1 1 0 1 1 2 0v5.241c0 .805 0 1.47-.044 2.01-.046.563-.145 1.08-.392 1.565a4 4 0 0 1-1.748 1.748c-.485.247-1.002.346-1.564.392a16.664 16.664 0 0 1-1.304.043l-.707.001H6.76c-.805 0-1.47 0-2.01-.044-.563-.046-1.08-.145-1.565-.392a4 4 0 0 1-1.748-1.748 3.153 3.153 0 0 1-.182-.437 1 1 0 0 1-.107-.395 5.674 5.674 0 0 1-.103-.732C1 18.71 1 18.046 1 17.242V6.758c0-.805 0-1.47.044-2.01.046-.563.145-1.08.392-1.565a4 4 0 0 1 1.748-1.748c.485-.247 1.002-.346 1.564-.392C5.29 1 5.954 1 6.758 1Zm10.233 20a3.447 3.447 0 0 0-.05-.585 3 3 0 0 0-2.357-2.357C14.32 18.005 13.977 18 13 18H6a3.002 3.002 0 0 0-2.79 1.893l.008.015a2 2 0 0 0 .874.874c.156.08.38.145.819.18C5.361 21 5.943 21 6.8 21h10.192Zm1.3-19.707a1 1 0 0 1 1.415 0l3 3a1 1 0 0 1 0 1.414l-3 3a1 1 0 1 1-1.414-1.414L19.586 6H16a1 1 0 1 1 0-2h3.586l-1.293-1.293a1 1 0 0 1 0-1.414ZM10 6.5a3 3 0 1 0 0 6 3 3 0 0 0 0-6Zm-5 3a5 5 0 1 1 10 0 5 5 0 0 1-10 0Z" clip-rule="evenodd"/>
</svg>
