<svg xmlns="http://www.w3.org/2000/svg" width="24" height="24" viewBox="0 0 24 24">
  <path fill-rule="evenodd" d="M15.793 1.793a1 1 0 0 1 1.414 0L19 3.586l1.793-1.793a1 1 0 1 1 1.414 1.414L20.414 5l1.793 1.793a1 1 0 0 1-1.414 1.414L19 6.414l-1.793 1.793a1 1 0 1 1-1.414-1.414L17.586 5l-1.793-1.793a1 1 0 0 1 0-1.414Z" clip-rule="evenodd" opacity=".5"/>
  <path fill-rule="evenodd" d="M7.759 2H12.5a1 1 0 1 1 0 2H7.8c-.857 0-1.439 0-1.889.038-.438.035-.663.1-.819.18a2 2 0 0 0-.874.874c-.08.156-.145.38-.18.819C4 6.361 4 6.943 4 7.8v8.4c0 .857 0 1.439.038 1.889.035.438.1.663.18.819a2 2 0 0 0 .801.835 2.2 2.2 0 0 1 .24-.304 9.86 9.86 0 0 1 .571-.545l8.508-7.735c.161-.146.32-.291.466-.405a2.01 2.01 0 0 1 .62-.342c.36-.118.747-.13 1.114-.036.261.067.47.188.64.304.152.104.32.238.49.374l2.82 2.256.065.051c.314.251.59.472.807.748a3 3 0 0 1 .56 1.167c.08.341.08.695.08 1.097v.765c0 .795 0 1.386-.136 1.897a3.996 3.996 0 0 1-2.829 2.829c-.511.137-1.102.136-1.897.136H7.03c-.255 0-.504 0-.712-.014a11.537 11.537 0 0 1-.57-.03c-.563-.046-1.08-.145-1.565-.392a4 4 0 0 1-1.748-1.748c-.247-.485-.346-1.002-.392-1.564C2 17.71 2 17.046 2 16.242V7.758c0-.805 0-1.47.044-2.01.046-.563.145-1.08.392-1.565a4 4 0 0 1 1.748-1.748c.485-.247 1.002-.346 1.564-.392C6.29 2 6.954 2 7.758 2Zm11.83 17.214a2 2 0 0 0 .25-.427c.058-.137.107-.333.133-.711.027-.388.028-.886.028-1.62 0-.532-.006-.637-.026-.723a.999.999 0 0 0-.187-.39c-.055-.069-.133-.14-.549-.472l-2.797-2.238a7.528 7.528 0 0 0-.4-.307l-.007.006a7.55 7.55 0 0 0-.371.326L7.587 20h8.869c.734 0 1.232 0 1.62-.028.378-.026.574-.075.71-.133a1.998 1.998 0 0 0 .804-.625ZM8.5 7.5a1 1 0 1 0 0 2 1 1 0 0 0 0-2Zm-3 1a3 3 0 1 1 6 0 3 3 0 0 1-6 0Z" clip-rule="evenodd"/>
</svg>
