<svg xmlns="http://www.w3.org/2000/svg" width="24" height="24" viewBox="0 0 24 24">
  <path fill-rule="evenodd" d="M8.5 7.5a1 1 0 1 0 0 2 1 1 0 0 0 0-2Zm-3 1a3 3 0 1 1 6 0 3 3 0 0 1-6 0Z" clip-rule="evenodd" opacity=".5"/>
  <path fill-rule="evenodd" d="M7.759 2h8.482c.805 0 1.47 0 2.01.044.563.046 1.08.145 1.565.392a4 4 0 0 1 1.748 1.748c.247.485.346 1.002.392 1.564C22 6.29 22 6.954 22 7.758v8.484c0 .805 0 1.47-.044 2.01-.046.563-.145 1.08-.392 1.565a4 4 0 0 1-1.748 1.748c-.485.247-1.002.346-1.564.392-.541.044-1.206.044-2.01.044H7.758c-.805 0-1.47 0-2.01-.044-.563-.046-1.08-.145-1.565-.392a4 4 0 0 1-1.748-1.748c-.247-.485-.346-1.002-.392-1.564C2 17.71 2 17.046 2 16.242V7.758c0-.805 0-1.47.044-2.01.046-.563.145-1.08.392-1.565a4 4 0 0 1 1.748-1.748c.485-.247 1.002-.346 1.564-.392C6.29 2 6.954 2 7.758 2ZM20 12.586V7.8c0-.857 0-1.439-.038-1.889-.035-.438-.1-.663-.18-.819a2 2 0 0 0-.874-.874c-.156-.08-.38-.145-.819-.18C17.639 4 17.057 4 16.2 4H7.8c-.857 0-1.439 0-1.889.038-.438.035-.663.1-.819.18a2 2 0 0 0-.874.874c-.08.156-.145.38-.18.819C4 6.361 4 6.943 4 7.8v8.4c0 .857 0 1.439.038 1.889.035.438.1.663.18.819a2 2 0 0 0 .739.798c.058-.087.116-.158.158-.209.138-.164.326-.352.517-.544l8.552-8.551c.179-.179.352-.353.511-.488.175-.148.397-.308.687-.402a2 2 0 0 1 1.236 0c.29.094.512.254.687.402.159.135.332.31.51.488L20 12.586ZM7.414 20H16.2c.857 0 1.439 0 1.889-.038.438-.035.663-.1.819-.18a2 2 0 0 0 .874-.874c.08-.156.145-.38.18-.819.037-.45.038-1.032.038-1.889v-.786l-3.576-3.575a8.173 8.173 0 0 0-.414-.4L16 11.43l-.01.009a7.64 7.64 0 0 0-.414.4l-8.162 8.16Z" clip-rule="evenodd"/>
</svg>
