<svg xmlns="http://www.w3.org/2000/svg" width="24" height="24" viewBox="0 0 24 24">
  <path fill-rule="evenodd" d="M18 4a2 2 0 1 0 0 4 2 2 0 0 0 0-4Zm-4 2a4 4 0 1 1 8 0 4 4 0 0 1-8 0Z" clip-rule="evenodd" opacity=".5"/>
  <path fill-rule="evenodd" d="M9.247 7.904a2 2 0 0 1 1.506 0c.364.148.615.404.798.623.175.209.363.48.564.772l2.794 4.035a10.1 10.1 0 0 1 .517-.73c.183-.227.437-.495.808-.649a2 2 0 0 1 1.532 0c.371.154.625.422.808.649.175.217.364.5.567.805l3.057 4.585c.248.373.472.708.626.993.155.285.331.676.304 1.132a2 2 0 0 1-.79 1.476c-.364.276-.788.346-1.11.376-.323.03-.726.029-1.174.029H4.01c-.457 0-.867 0-1.194-.03-.326-.03-.755-.1-1.122-.381a2 2 0 0 1-.783-1.494c-.022-.462.164-.856.325-1.14.162-.286.395-.623.655-1l5.971-8.624.023-.032c.201-.292.39-.563.564-.772.183-.22.434-.475.798-.623Zm4.842 7.76a.948.948 0 0 0 .027.038L17.09 20H4.054c-.515 0-.831-.001-1.056-.021a2.568 2.568 0 0 1-.04-.005l.02-.036c.11-.196.29-.456.582-.88l5.947-8.589A10.493 10.493 0 0 1 10 9.79l.016.02c.11.13.245.326.477.66l3.596 5.195ZM19.524 20l-3.39-4.897.367-.551c.233-.35.37-.555.482-.693l.017-.02.017.02c.111.138.249.343.482.693l3.01 4.515a13.127 13.127 0 0 1 .575.908A13.19 13.19 0 0 1 20.01 20h-.486Z" clip-rule="evenodd"/>
</svg>
