<svg xmlns="http://www.w3.org/2000/svg" width="24" height="24" viewBox="0 0 24 24">
  <path d="M8.5 10.5a2 2 0 1 0 0-4 2 2 0 0 0 0 4Zm12.905 4.905A10.004 10.004 0 0 1 12 22a9.956 9.956 0 0 1-6-2l8.869-8.869c.396-.396.594-.594.822-.668a1 1 0 0 1 .618 0c.228.074.426.272.822.668l4.274 4.274Z" opacity=".2"/>
  <path fill-rule="evenodd" d="M12 3a9 9 0 0 0-6.064 15.65l8.248-8.248c.179-.179.352-.353.511-.488.175-.148.397-.308.687-.402a2 2 0 0 1 1.236 0c.29.094.512.254.687.402.159.135.332.31.51.488l3.066 3.065A9 9 0 0 0 12 3Zm8.231 12.645-3.807-3.806a8.173 8.173 0 0 0-.414-.4L16 11.43l-.01.009a7.64 7.64 0 0 0-.414.4l-8 8A8.96 8.96 0 0 0 12 21c3.673 0 6.832-2.2 8.231-5.355ZM5.41 20.808A10.951 10.951 0 0 0 12 23c6.075 0 11-4.925 11-11S18.075 1 12 1 1 5.925 1 12a10.983 10.983 0 0 0 4.41 8.808ZM8.5 7.5a1 1 0 1 0 0 2 1 1 0 0 0 0-2Zm-3 1a3 3 0 1 1 6 0 3 3 0 0 1-6 0Z" clip-rule="evenodd"/>
</svg>
