<svg xmlns="http://www.w3.org/2000/svg" width="24" height="24" viewBox="0 0 24 24">
  <path fill-rule="evenodd" d="M8.814 3h6.372c.928 0 1.627-.001 2.264.219a4 4 0 0 1 1.495.923l-.7.715.7-.715c.481.472.794 1.098 1.208 1.928l.068.136 2.167 4.333.026.052c.164.328.288.576.377.842a4 4 0 0 1 .17.72c.04.278.04.555.039.922V15.2a1 1 0 1 1-2 0v-2.067c0-.45-.002-.58-.02-.702a2.002 2.002 0 0 0-.084-.36c-.04-.117-.096-.235-.297-.637L18.432 7.1c-.514-1.028-.676-1.323-.887-1.53l.643-.656-.643.656a2 2 0 0 0-.747-.462C16.52 5.013 16.183 5 15.034 5H8.966c-1.15 0-1.486.013-1.765.11a2 2 0 0 0-.747.461l-.68-.693.68.693c-.211.207-.373.502-.887 1.53L3.4 11.434c-.2.402-.257.52-.297.636a2.047 2.047 0 0 0-.085.36c-.017.123-.019.254-.019.703V15.2a1 1 0 1 1-2 0v-2.125c0-.367 0-.644.039-.921l.99.138-.99-.138a4 4 0 0 1 .17-.721l.648.218-.648-.218c.09-.266.213-.514.377-.842l.026-.052L3.78 6.206l.068-.136c.414-.83.727-1.456 1.208-1.928l.7.715-.7-.715A4 4 0 0 1 6.55 3.22C7.187 3 7.886 3 8.814 3Z" clip-rule="evenodd" opacity=".5"/>
  <path fill-rule="evenodd" d="M3.568 11h2.314c1.064 0 2.037.601 2.512 1.553a.809.809 0 0 0 .724.447h5.764a.81.81 0 0 0 .724-.447A2.809 2.809 0 0 1 18.118 11h2.314c.252 0 .498 0 .706.017.229.019.499.063.77.201a2 2 0 0 1 .874.874c.138.271.182.541.201.77.017.208.017.454.017.706v1.673c0 .805 0 1.47-.044 2.01-.046.563-.145 1.08-.392 1.565a4 4 0 0 1-1.748 1.748c-.485.247-1.002.346-1.564.392-.541.044-1.206.044-2.01.044H6.758c-.805 0-1.47 0-2.01-.044-.563-.046-1.08-.145-1.565-.392a4 4 0 0 1-1.748-1.748c-.247-.485-.346-1.002-.392-1.564C1 16.71 1 16.046 1 15.242v-1.674c0-.252 0-.498.017-.706a2.03 2.03 0 0 1 .201-.77 2 2 0 0 1 .874-.874 2.02 2.02 0 0 1 .77-.201C3.07 11 3.316 11 3.568 11Zm-.557 2.011v.014C3 13.14 3 13.303 3 13.6v1.6c0 .857 0 1.439.038 1.889.035.438.1.663.18.819a2 2 0 0 0 .874.874c.156.08.38.145.819.18C5.361 19 5.943 19 6.8 19h10.4c.857 0 1.439 0 1.889-.038.438-.035.663-.1.819-.18a2 2 0 0 0 .874-.874c.08-.156.145-.38.18-.819.037-.45.038-1.032.038-1.889v-1.6a8.207 8.207 0 0 0-.012-.588l-.013-.002A8.207 8.207 0 0 0 20.4 13h-2.282a.81.81 0 0 0-.724.447A2.809 2.809 0 0 1 14.882 15H9.118a2.809 2.809 0 0 1-2.512-1.553.809.809 0 0 0-.724-.447H3.6a8.205 8.205 0 0 0-.589.011Z" clip-rule="evenodd"/>
</svg>
