<svg xmlns="http://www.w3.org/2000/svg" width="24" height="24" viewBox="0 0 24 24">
  <path fill-rule="evenodd" d="M1 12a1 1 0 0 1 1-1h3.882c1.064 0 2.037.601 2.512 1.553a.809.809 0 0 0 .724.447h5.764a.81.81 0 0 0 .724-.447A2.809 2.809 0 0 1 18.118 11H22a1 1 0 1 1 0 2h-3.882a.81.81 0 0 0-.724.447A2.809 2.809 0 0 1 14.882 15H9.118a2.809 2.809 0 0 1-2.512-1.553.809.809 0 0 0-.724-.447H2a1 1 0 0 1-1-1Z" clip-rule="evenodd" opacity=".5"/>
  <path fill-rule="evenodd" d="M6.759 3H17.24c.805 0 1.47 0 2.01.044.563.046 1.08.145 1.565.392a4 4 0 0 1 1.748 1.748c.247.485.346 1.002.392 1.564C23 7.29 23 7.954 23 8.758v6.483c0 .805 0 1.47-.044 2.01-.046.563-.145 1.08-.392 1.565a4 4 0 0 1-1.748 1.748c-.485.247-1.002.346-1.564.392-.541.044-1.206.044-2.01.044H6.758c-.805 0-1.47 0-2.01-.044-.563-.046-1.08-.145-1.565-.392a4 4 0 0 1-1.748-1.748c-.247-.485-.346-1.002-.392-1.564C1 16.71 1 16.046 1 15.242V8.758c0-.805 0-1.47.044-2.01.046-.563.145-1.08.392-1.565a4 4 0 0 1 1.748-1.748c.485-.247 1.002-.346 1.564-.392C5.29 3 5.954 3 6.758 3ZM4.91 5.038c-.438.035-.663.1-.819.18a2 2 0 0 0-.874.874c-.08.156-.145.38-.18.819C3 7.361 3 7.943 3 8.8v6.4c0 .857 0 1.439.038 1.889.035.438.1.663.18.819a2 2 0 0 0 .874.874c.156.08.38.145.819.18C5.361 19 5.943 19 6.8 19h10.4c.857 0 1.439 0 1.889-.038.438-.035.663-.1.819-.18a2 2 0 0 0 .874-.874c.08-.156.145-.38.18-.819.037-.45.038-1.032.038-1.889V8.8c0-.857 0-1.439-.038-1.889-.035-.438-.1-.663-.18-.819a2 2 0 0 0-.874-.874c-.156-.08-.38-.145-.819-.18C18.639 5 18.057 5 17.2 5H6.8c-.857 0-1.439 0-1.889.038Z" clip-rule="evenodd"/>
</svg>
