<svg xmlns="http://www.w3.org/2000/svg" width="24" height="24" viewBox="0 0 24 24">
  <path fill-rule="evenodd" d="M14 9a1 1 0 0 1 1-1h.01a1 1 0 1 1 0 2H15a1 1 0 0 1-1-1Z" clip-rule="evenodd" opacity=".5"/>
  <path fill-rule="evenodd" d="M8 9a7 7 0 1 1 6.06 6.937 14.37 14.37 0 0 0-.514-.063l-.01.01a8.902 8.902 0 0 0-.25.244l-5.11 5.11-.036.037a2.794 2.794 0 0 1-.51.43c-.178.11-.373.19-.577.24a2.795 2.795 0 0 1-.665.055h-1.82c-.252 0-.498 0-.706-.017a2.022 2.022 0 0 1-.77-.201 2 2 0 0 1-.874-.874 2.022 2.022 0 0 1-.201-.77C2 19.93 2 19.684 2 19.432v-1.82c0-.19-.001-.43.055-.665a2 2 0 0 1 .24-.578c.126-.206.296-.375.43-.509l.037-.036 5.11-5.11c.126-.126.196-.197.245-.25l.009-.01-.004-.045c-.01-.103-.029-.244-.06-.469A7.056 7.056 0 0 1 8 9Zm7-5a5 5 0 0 0-4.955 5.674l.002.018c.027.201.051.38.065.524.014.14.027.328 0 .521a1.85 1.85 0 0 1-.234.693c-.14.248-.359.466-.54.646l-.052.052-5.11 5.11a6.19 6.19 0 0 0-.174.18 6.18 6.18 0 0 0-.002.245V19.4a8.194 8.194 0 0 0 .011.588l.014.002c.116.01.278.01.575.01h1.737c.131 0 .197 0 .244-.002h.004l.002-.003a6.13 6.13 0 0 0 .175-.17l5.11-5.111.052-.053c.18-.18.398-.4.646-.539a1.84 1.84 0 0 1 .693-.234c.193-.027.382-.014.52 0 .145.014.324.038.525.065l.018.002A5 5 0 1 0 15 4Z" clip-rule="evenodd"/>
</svg>
