<svg xmlns="http://www.w3.org/2000/svg" width="24" height="24" viewBox="0 0 24 24">
  <path d="M21 9a6 6 0 0 1-6.807 5.946c-.434-.058-.651-.087-.789-.068a.852.852 0 0 0-.346.117c-.121.068-.24.187-.479.426L11 17H9v2H7v2H4.6c-.56 0-.84 0-1.054-.109a1 1 0 0 1-.437-.437C3 20.24 3 19.96 3 19.4v-1.737c0-.245 0-.367.028-.482a1 1 0 0 1 .12-.29c.061-.1.148-.187.32-.36l5.111-5.11c.239-.239.358-.358.426-.48a.853.853 0 0 0 .117-.345c.02-.138-.01-.355-.068-.789A6 6 0 1 1 21 9Z" opacity=".2"/>
  <path fill-rule="evenodd" d="M8 9a7 7 0 1 1 6.06 6.937 14.37 14.37 0 0 0-.514-.063l-.01.01a8.902 8.902 0 0 0-.25.244l-1.579 1.58A1 1 0 0 1 11 18h-1v1a1 1 0 0 1-1 1H8v1a1 1 0 0 1-1 1H4.568c-.252 0-.498 0-.706-.017a2.022 2.022 0 0 1-.77-.201 2 2 0 0 1-.874-.874 2.022 2.022 0 0 1-.201-.77C2 19.93 2 19.684 2 19.432v-1.82c0-.19-.001-.43.055-.665a2 2 0 0 1 .24-.578c.126-.206.296-.375.43-.509l.037-.036 5.11-5.11c.126-.126.196-.197.245-.25l.009-.01-.004-.045c-.01-.103-.029-.244-.06-.469A7.056 7.056 0 0 1 8 9Zm0 9v-1a1 1 0 0 1 1-1h1.586l1.286-1.286.052-.053c.18-.18.398-.4.646-.539a1.84 1.84 0 0 1 .693-.234c.193-.027.382-.014.52 0 .145.014.324.038.525.065l.018.002a5 5 0 1 0-4.281-4.281l.002.018c.027.201.051.38.065.524.014.14.027.328 0 .521a1.85 1.85 0 0 1-.234.693c-.14.248-.359.466-.54.646l-.052.052-5.11 5.11a6.19 6.19 0 0 0-.174.18 6.18 6.18 0 0 0-.002.245V19.4a8.194 8.194 0 0 0 .011.588l.014.002c.116.01.278.01.575.01H6v-1a1 1 0 0 1 1-1h1Zm6-11a1 1 0 0 1 1-1c.766 0 1.536.293 2.121.879A2.99 2.99 0 0 1 18 8.999 1 1 0 0 1 16 9a.994.994 0 0 0-.293-.707A.994.994 0 0 0 15 8a1 1 0 0 1-1-1Z" clip-rule="evenodd"/>
</svg>
