<svg xmlns="http://www.w3.org/2000/svg" width="24" height="24" viewBox="0 0 24 24">
  <path d="M6.162 3h11.677c.527 0 .982 0 1.356.03.395.033.789.104 1.167.297a3 3 0 0 1 1.311 1.311c.193.378.264.772.297 1.167.03.375.03.83.03 1.356V13.4c0 .56 0 .84-.109 1.054a1 1 0 0 1-.437.437C21.24 15 20.96 15 20.4 15H3.6c-.56 0-.84 0-1.054-.109a1 1 0 0 1-.437-.437C2 14.24 2 13.96 2 13.4V7.161c0-.527 0-.981.03-1.356.033-.395.104-.789.297-1.167a3 3 0 0 1 1.311-1.311c.379-.193.772-.264 1.167-.296C5.18 3 5.635 3 6.162 3ZM2.416 17c-.478 0-.717 0-.949.134-.17.098-.372.338-.44.523-.091.252-.06.427 0 .778.022.12.047.235.075.341a3 3 0 0 0 2.122 2.122c.385.103.823.103 1.331.102h14.89c.508 0 .946.001 1.332-.102a3 3 0 0 0 2.121-2.122c.029-.106.053-.22.074-.34.062-.352.092-.528 0-.78a1.182 1.182 0 0 0-.44-.522c-.231-.134-.47-.134-.95-.134H2.417Z"/>
</svg>
