<svg xmlns="http://www.w3.org/2000/svg" width="24" height="24" viewBox="0 0 24 24">
  <path fill-rule="evenodd" d="M6.161 3H17.84c.527 0 .981 0 1.356.03.395.033.789.104 1.167.297a3 3 0 0 1 1.311 1.311c.193.378.264.772.296 1.167.031.375.031.83.031 1.356v8.107a2 2 0 0 1 .932 1.214c.07.261.069.549.068.784v.179c0 .508.001.946-.102 1.331a3 3 0 0 1-2.122 2.122c-.385.103-.823.103-1.33.102H4.554c-.508 0-.946.001-1.331-.102a3 3 0 0 1-2.122-2.122C1 18.391 1 17.953 1 17.447a105.51 105.51 0 0 0 0-.18c0-.235-.002-.523.068-.784A2 2 0 0 1 2 15.268V7.16c0-.527 0-.981.03-1.356.033-.395.104-.789.297-1.167a3 3 0 0 1 1.311-1.311c.378-.193.772-.264 1.167-.296C5.18 3 5.635 3 6.16 3ZM3.004 17.004h.01a8.05 8.05 0 0 1 .32-.004h17.333c.164 0 .253 0 .319.003h.01v.011c.004.066.004.155.004.32 0 .684-.009.83-.034.925a1 1 0 0 1-.707.707c-.095.025-.241.034-.926.034H4.667c-.685 0-.83-.009-.926-.034a1 1 0 0 1-.707-.707C3.01 18.164 3 18.018 3 17.333a8.074 8.074 0 0 1 .004-.33ZM20 15H4V7.2c0-.577 0-.949.024-1.232.022-.272.06-.373.085-.422a1 1 0 0 1 .437-.437c.05-.025.15-.063.422-.085C5.25 5 5.623 5 6.2 5h11.6c.576 0 .949 0 1.232.024.272.022.372.06.422.085a1 1 0 0 1 .437.437c.025.05.063.15.085.422C20 6.25 20 6.623 20 7.2V15Z" clip-rule="evenodd"/>
</svg>
