<svg xmlns="http://www.w3.org/2000/svg" width="24" height="24" viewBox="0 0 24 24">
  <path d="M6.161 3h11.677c.528 0 .982 0 1.357.03.395.033.788.104 1.167.297a3 3 0 0 1 1.31 1.311c.194.378.265.772.297 1.167.03.375.03.83.03 1.356V13.4c0 .56 0 .84-.108 1.054a1 1 0 0 1-.437.437C21.24 15 20.96 15 20.4 15h-4.788c-.19 0-.43-.001-.665.055a2 2 0 0 0-.578.24c-.206.126-.375.296-.509.43a.944.944 0 0 1-.669.273H10.81a.944.944 0 0 1-.67-.273 2.773 2.773 0 0 0-.508-.43 1.999 1.999 0 0 0-.578-.24A2.79 2.79 0 0 0 8.388 15H3.6c-.56 0-.84 0-1.054-.109a1 1 0 0 1-.437-.437c-.11-.214-.11-.494-.11-1.054V7.16c0-.527 0-.981.031-1.356.033-.395.104-.789.297-1.167a3 3 0 0 1 1.31-1.311c.38-.193.773-.264 1.168-.296C5.179 3 5.635 3 6.16 3ZM2.534 17c-.542 0-.813 0-1.043.13a1.12 1.12 0 0 0-.44.511c-.095.247-.062.461.002.89.013.09.03.173.049.245a3 3 0 0 0 2.121 2.122C3.61 21 4.047 21 4.555 21h14.89c.508 0 .946.001 1.331-.102a3 3 0 0 0 2.122-2.122c.019-.072.035-.155.048-.244.064-.43.096-.646.001-.892a1.12 1.12 0 0 0-.44-.51c-.23-.13-.501-.13-1.044-.129l-5.667.004a.924.924 0 0 0-.656.27c-.134.134-.303.304-.51.43a2 2 0 0 1-.577.24c-.236.056-.475.055-.665.055h-2.776c-.19 0-.43.001-.665-.055a2.02 2.02 0 0 1-.578-.24c-.206-.126-.375-.296-.509-.43a.943.943 0 0 0-.669-.273L2.534 17Z"/>
</svg>
