<svg xmlns="http://www.w3.org/2000/svg" width="24" height="24" viewBox="0 0 24 24">
  <path fill-rule="evenodd" d="M6.161 3H17.84c.527 0 .982 0 1.356.03.395.033.789.104 1.167.297a3 3 0 0 1 1.311 1.311c.193.378.264.772.296 1.167.031.375.031.83.031 1.356V16a1 1 0 1 1-2 0V7.2c0-.577 0-.949-.024-1.232-.022-.272-.06-.373-.085-.422a1 1 0 0 0-.437-.437c-.05-.025-.15-.063-.422-.085C18.75 5 18.377 5 17.8 5H6.2c-.577 0-.949 0-1.232.024-.272.022-.373.06-.422.085a1 1 0 0 0-.437.437c-.025.05-.063.15-.085.422C4 6.25 4 6.623 4 7.2V16a1 1 0 1 1-2 0V7.161c0-.527 0-.981.03-1.356.033-.395.104-.789.297-1.167a3 3 0 0 1 1.311-1.311c.378-.193.772-.264 1.167-.296C5.18 3 5.635 3 6.161 3Z" clip-rule="evenodd" opacity=".5"/>
  <path fill-rule="evenodd" d="M3.266 15h17.468c.235 0 .523-.002.784.068a2 2 0 0 1 1.414 1.414c.07.261.069.549.068.784v.179c0 .508.001.946-.102 1.331a3 3 0 0 1-2.122 2.122c-.385.103-.823.103-1.33.102H4.554c-.508 0-.946.001-1.331-.102a3 3 0 0 1-2.122-2.122C1 18.391 1 17.953 1 17.447a105.549 105.549 0 0 0 0-.18c0-.235-.002-.523.068-.784a2 2 0 0 1 1.414-1.414c.261-.07.549-.069.784-.068Zm-.262 2.004v.01a8.074 8.074 0 0 0-.004.32c0 .684.009.83.034.925a1 1 0 0 0 .707.707c.095.025.241.034.926.034h14.666c.685 0 .83-.009.926-.034a1 1 0 0 0 .707-.707c.025-.095.034-.241.034-.926 0-.164 0-.253-.003-.319v-.01h-.011a8.055 8.055 0 0 0-.32-.004H3.334c-.164 0-.253 0-.319.003h-.01Z" clip-rule="evenodd"/>
</svg>
