<svg xmlns="http://www.w3.org/2000/svg" width="24" height="24" viewBox="0 0 24 24">
  <path fill-rule="evenodd" d="M11.803 3.02Zm.197.098L19.764 7l-3.202 1.601a.923.923 0 0 0-.02.01L12 10.882 7.458 8.611a.954.954 0 0 0-.02-.01L4.236 7 12 3.118ZM4.764 9.5 1.553 7.894a1 1 0 0 1 0-1.788l9.642-4.822.026-.013c.093-.047.286-.146.502-.186a1.5 1.5 0 0 1 .554 0 1.902 1.902 0 0 1 .528.2l9.642 4.82a1 1 0 0 1 0 1.79L19.237 9.5l3.21 1.606a1 1 0 0 1 0 1.788l-3.21 1.606 3.21 1.606a1 1 0 0 1 0 1.788l-9.642 4.822-.026.012a1.86 1.86 0 0 1-.502.187 1.5 1.5 0 0 1-.554 0 1.885 1.885 0 0 1-.502-.186l-.026-.014-9.642-4.82a1 1 0 0 1 0-1.79l3.21-1.605-3.21-1.606a1 1 0 0 1 0-1.788L4.763 9.5ZM7 10.618 4.236 12l3.202 1.601a.747.747 0 0 1 .02.01L12 15.882l4.542-2.271a.701.701 0 0 1 .02-.01L19.764 12 17 10.618l-4.195 2.098-.026.013c-.093.047-.286.146-.502.186a1.5 1.5 0 0 1-.554 0 1.885 1.885 0 0 1-.502-.186l-.026-.013L7 10.617Zm10 5-4.195 2.097-.026.014c-.093.047-.286.146-.502.186a1.5 1.5 0 0 1-.554 0 1.885 1.885 0 0 1-.502-.186l-.026-.014L7 15.618 4.236 17 12 20.882 19.764 17 17 15.618Zm-5.197.362Zm.394 0Zm-.394-5Zm.394 0Zm0-7.96Z" clip-rule="evenodd"/>
</svg>
