<svg xmlns="http://www.w3.org/2000/svg" width="24" height="24" viewBox="0 0 24 24">
  <path fill-rule="evenodd" d="M7.894 9.053a1 1 0 0 1-.447 1.341L4.237 12l3.201 1.601.02.01L12 15.882l4.542-2.271.02-.01L19.764 12l-3.211-1.606a1 1 0 1 1 .894-1.788l5 2.5a1 1 0 0 1 0 1.788l-3.21 1.606 3.21 1.606a1 1 0 0 1 0 1.788l-9.642 4.822-.026.012a1.86 1.86 0 0 1-.502.187 1.5 1.5 0 0 1-.554 0 1.885 1.885 0 0 1-.502-.186l-.026-.014-9.642-4.82a1 1 0 0 1 0-1.79l3.21-1.605-3.21-1.606a1 1 0 0 1 0-1.788l5-2.5a1 1 0 0 1 1.341.447ZM7 15.618 4.236 17 12 20.882 19.764 17 17 15.618l-4.195 2.097-.026.014c-.093.047-.286.146-.502.186a1.5 1.5 0 0 1-.554 0 1.885 1.885 0 0 1-.502-.186l-.026-.014L7 15.618Zm4.803 5.362Zm.394 0Z" clip-rule="evenodd" opacity=".5"/>
  <path fill-rule="evenodd" d="M11.803 3.02Zm.197.098L19.764 7 12 10.882 4.236 7 12 3.118Zm-.197 7.862Zm.394 0Zm0-7.96Zm-.474-1.935a1.5 1.5 0 0 1 .554 0 1.902 1.902 0 0 1 .528.2l9.642 4.82a1 1 0 0 1 0 1.79l-9.642 4.82-.026.014c-.093.047-.286.146-.502.186a1.5 1.5 0 0 1-.554 0 1.885 1.885 0 0 1-.502-.186l-.026-.013-9.642-4.822a1 1 0 0 1 0-1.788l9.642-4.822.026-.013c.093-.047.286-.146.502-.186Z" clip-rule="evenodd"/>
</svg>
