<svg xmlns="http://www.w3.org/2000/svg" width="24" height="24" viewBox="0 0 24 24">
  <path d="M12.358 14.321a1.087 1.087 0 0 1-.266.111.501.501 0 0 1-.184 0 1.093 1.093 0 0 1-.266-.11l-4.284-2.143a1.066 1.066 0 0 0-.266-.111.501.501 0 0 0-.184 0 1.093 1.093 0 0 0-.266.11L2 14.5l9.642 4.821c.131.066.197.098.266.111.06.012.123.012.184 0 .069-.012.135-.045.266-.11L22 14.5l-4.642-2.321a1.087 1.087 0 0 0-.266-.111.501.501 0 0 0-.184 0 1.087 1.087 0 0 0-.266.11l-4.284 2.143Z" opacity=".2"/>
  <path fill-rule="evenodd" d="M11.803 5.52Zm.197.098L19.764 9.5l-3.202 1.601a.701.701 0 0 0-.02.01L12 13.382l-4.542-2.271a.75.75 0 0 0-.02-.01L4.236 9.5 12 5.618ZM4.764 12l-3.211-1.606a1 1 0 0 1 0-1.788l9.642-4.822.026-.013c.093-.047.286-.146.502-.186a1.5 1.5 0 0 1 .554 0 1.902 1.902 0 0 1 .528.2l9.642 4.82a1 1 0 0 1 0 1.79L19.237 12l3.21 1.606a1 1 0 0 1 0 1.788l-9.642 4.821-.026.014c-.093.047-.286.146-.502.186a1.5 1.5 0 0 1-.554 0 1.885 1.885 0 0 1-.502-.186l-.026-.014-9.642-4.82a1 1 0 0 1 0-1.79L4.763 12ZM7 13.118 4.236 14.5 12 18.382l7.764-3.882L17 13.118l-4.195 2.098-.026.013c-.093.047-.286.146-.502.186a1.5 1.5 0 0 1-.554 0 1.885 1.885 0 0 1-.502-.186l-.026-.013L7 13.117Zm4.803 5.362Zm.394 0Zm-.394-5Zm.394 0Zm0-7.96Z" clip-rule="evenodd"/>
</svg>
