<svg xmlns="http://www.w3.org/2000/svg" width="24" height="24" viewBox="0 0 24 24">
  <path d="M12.358 4.679a1.066 1.066 0 0 0-.266-.111.5.5 0 0 0-.184 0 1.066 1.066 0 0 0-.266.111L2 9.5l9.642 4.821c.131.066.197.099.266.111.06.012.123.012.184 0 .069-.012.135-.045.266-.11L22 9.5l-9.642-4.82Z" opacity=".2"/>
  <path fill-rule="evenodd" d="M11.803 5.52Zm.197.098L19.764 9.5 12 13.382 4.236 9.5 12 5.618Zm-.197 7.862Zm.394 0Zm0-7.96Zm-.474-1.935a1.5 1.5 0 0 1 .554 0 1.902 1.902 0 0 1 .528.2l9.642 4.82a1 1 0 0 1 0 1.79l-9.642 4.82-.026.014c-.093.047-.286.146-.502.186a1.5 1.5 0 0 1-.554 0 1.885 1.885 0 0 1-.502-.186l-.026-.013-9.642-4.822a1 1 0 0 1 0-1.788l9.642-4.822.026-.013c.093-.047.286-.146.502-.186ZM1.106 14.053a1 1 0 0 1 1.341-.447L12 18.382l9.553-4.776a1 1 0 1 1 .894 1.788l-9.642 4.821-.026.014c-.093.047-.286.146-.502.186a1.5 1.5 0 0 1-.554 0 1.885 1.885 0 0 1-.502-.186l-.026-.014-9.642-4.82a1 1 0 0 1-.447-1.342Zm10.697 4.427Zm.394 0Z" clip-rule="evenodd"/>
</svg>
