<svg xmlns="http://www.w3.org/2000/svg" width="24" height="24" viewBox="0 0 24 24">
  <g clip-path="url(#a)">
    <path fill-rule="evenodd" d="M8.634 3.158c1.873 2.373 3.5 2.904 4.556 2.946.611.024 1.11-.11 1.453-.249a2.934 2.934 0 0 0 .467-.238l.004-.003a5.867 5.867 0 0 0-2.083-2.016 5.633 5.633 0 0 0-3.012-.738 4.005 4.005 0 0 0-1.385.298Zm7.289 4.302a5.15 5.15 0 0 1-.531.25c-.548.221-1.33.43-2.282.392-1.957-.078-4.343-1.184-6.72-4.617a1 1 0 0 1 .115-1.277C7.356 1.358 8.622.925 9.922.862a7.632 7.632 0 0 1 4.097.996c2.717 1.542 4.72 4.837 4.189 10.157a1 1 0 0 1-1.99-.2c.174-1.747.04-3.184-.295-4.355ZM8.878 8.575a1 1 0 0 1-.5 1.322c-1.6.723-2.778 1.557-3.625 2.434.138.084.303.194.483.335a5.51 5.51 0 0 1 1.48 1.78c.91 1.734 1.146 4.353-.64 8.128a1 1 0 0 1-1.162.538c-1.162-.311-2.17-1.191-2.874-2.286A7.632 7.632 0 0 1 .854 16.78c-.023-3.124 1.829-6.507 6.702-8.706a1 1 0 0 1 1.322.5Zm-5.32 5.379a5.867 5.867 0 0 0-.704 2.812 5.633 5.633 0 0 0 .867 2.978c.293.455.622.804.951 1.05 1.118-2.809.765-4.483.273-5.419a3.51 3.51 0 0 0-.941-1.134 2.923 2.923 0 0 0-.44-.285l-.005-.002Zm18.408-.535a1 1 0 0 1 1.047.738c.312 1.162.054 2.475-.542 3.632a7.631 7.631 0 0 1-2.911 3.05c-2.694 1.581-6.55 1.67-10.89-1.451a1 1 0 0 1 1.167-1.624c1.426 1.025 2.738 1.628 3.92 1.922a5.02 5.02 0 0 1 .049-.585 5.507 5.507 0 0 1 .8-2.171c1.047-1.657 3.198-3.17 7.36-3.511Zm-6.206 6.49a5.866 5.866 0 0 0 2.787-.795 5.633 5.633 0 0 0 2.146-2.24c.247-.481.385-.941.433-1.349-2.99.436-4.264 1.58-4.828 2.473a3.509 3.509 0 0 0-.512 1.383 2.922 2.922 0 0 0-.027.523v.005Z" clip-rule="evenodd"/>
  </g>
  <defs>
    <clipPath id="a">
      <path d="M0 0h24v24H0z"/>
    </clipPath>
  </defs>
</svg>
