<svg xmlns="http://www.w3.org/2000/svg" width="24" height="24" viewBox="0 0 24 24">
  <path fill-rule="evenodd" d="M2 4a1 1 0 0 1 1-1h18a1 1 0 1 1 0 2H3a1 1 0 0 1-1-1Zm9 5.25a1 1 0 0 1 1-1h9a1 1 0 1 1 0 2h-9a1 1 0 0 1-1-1Zm0 5.5a1 1 0 0 1 1-1h9a1 1 0 1 1 0 2h-9a1 1 0 0 1-1-1ZM2 20a1 1 0 0 1 1-1h18a1 1 0 1 1 0 2H3a1 1 0 0 1-1-1Z" clip-rule="evenodd" opacity=".5"/>
  <path fill-rule="evenodd" d="m4.852 7.739.028.021 3.867 2.9.022.017c.125.093.266.199.379.3.124.112.307.298.417.58a1.5 1.5 0 0 1 0 1.087c-.11.28-.293.467-.417.579a5.669 5.669 0 0 1-.379.3l-.022.017-3.867 2.9-.028.02a7.273 7.273 0 0 1-.532.378c-.16.099-.463.27-.851.262a1.5 1.5 0 0 1-1.15-.575c-.24-.306-.285-.651-.302-.838A7.662 7.662 0 0 1 2 15.035v-5.87c0-.227 0-.46.017-.652.017-.187.063-.532.302-.838a1.5 1.5 0 0 1 1.15-.575c.388-.008.691.163.85.262.165.1.352.24.533.377ZM4 9.6v5l3.333-2.5L4 9.6Z" clip-rule="evenodd"/>
</svg>
