<svg xmlns="http://www.w3.org/2000/svg" width="24" height="24" viewBox="0 0 24 24">
  <path d="M3 15c0 .515 0 .773.106.908a.5.5 0 0 0 .384.192c.172.004.378-.15.79-.46l3.867-2.9c.29-.217.434-.326.486-.459a.5.5 0 0 0 0-.362c-.052-.133-.197-.242-.486-.459L4.28 8.56c-.412-.309-.618-.463-.79-.46a.5.5 0 0 0-.384.192C3 8.428 3 8.685 3 9.2V15Z" opacity=".2"/>
  <path fill-rule="evenodd" d="M2 4a1 1 0 0 1 1-1h18a1 1 0 1 1 0 2H3a1 1 0 0 1-1-1Zm2.852 3.739.028.021 3.867 2.9.022.017c.125.093.266.199.379.3.124.112.307.299.417.58a1.5 1.5 0 0 1 0 1.087c-.11.28-.293.467-.417.579a5.663 5.663 0 0 1-.379.3l-.022.017-3.867 2.9-.028.021a7.56 7.56 0 0 1-.532.377c-.16.099-.463.27-.851.262a1.5 1.5 0 0 1-1.15-.575c-.24-.306-.285-.651-.302-.838C2 15.495 2 15.262 2 15.035v-5.87c0-.227 0-.46.017-.652.017-.187.063-.532.302-.838a1.5 1.5 0 0 1 1.15-.575c.388-.008.691.163.85.262.165.1.352.241.533.377ZM4 9.6v5l3.333-2.5L4 9.6Zm7-.35a1 1 0 0 1 1-1h9a1 1 0 1 1 0 2h-9a1 1 0 0 1-1-1Zm0 5.5a1 1 0 0 1 1-1h9a1 1 0 1 1 0 2h-9a1 1 0 0 1-1-1ZM2 20a1 1 0 0 1 1-1h18a1 1 0 1 1 0 2H3a1 1 0 0 1-1-1Z" clip-rule="evenodd"/>
</svg>
