<svg xmlns="http://www.w3.org/2000/svg" width="24" height="24" viewBox="0 0 24 24">
  <path fill-rule="evenodd" d="M5.707 14.293a1 1 0 0 1 0 1.414L4.414 17h15.172l-1.293-1.293a1 1 0 0 1 1.414-1.414l3 3a1 1 0 0 1 0 1.414l-3 3a1 1 0 0 1-1.414-1.414L19.586 19H4.414l1.293 1.293a1 1 0 1 1-1.414 1.414l-3-3a1 1 0 0 1 0-1.414l3-3a1 1 0 0 1 1.414 0Z" clip-rule="evenodd" opacity=".5"/>
  <path fill-rule="evenodd" d="M6 3a1 1 0 0 1 1-1h10a1 1 0 1 1 0 2h-4v10a1 1 0 1 1-2 0V4H7a1 1 0 0 1-1-1Z" clip-rule="evenodd"/>
</svg>
