<svg xmlns="http://www.w3.org/2000/svg" width="24" height="24" viewBox="0 0 24 24">
  <path fill-rule="evenodd" d="M4.968 6.382A8.962 8.962 0 0 0 3 12c0 2.125.736 4.078 1.968 5.618l2.141-2.141A5.973 5.973 0 0 1 6 12c0-1.296.41-2.496 1.11-3.477l-2.142-2.14Zm1.414-1.414L8.523 7.11A5.973 5.973 0 0 1 12 6c1.296 0 2.496.41 3.476 1.11l2.142-2.142A8.962 8.962 0 0 0 12 3a8.962 8.962 0 0 0-5.618 1.968Zm13.392-.75A10.965 10.965 0 0 0 12 1C5.925 1 1 5.925 1 12a10.97 10.97 0 0 0 3.217 7.774l.005.004.004.005A10.966 10.966 0 0 0 12 23c6.075 0 11-4.925 11-11 0-3.035-1.23-5.784-3.218-7.774l-.004-.004-.004-.005Zm-.742 2.164L16.89 8.523A5.97 5.97 0 0 1 18 12c0 1.296-.41 2.496-1.11 3.476l2.142 2.142A8.962 8.962 0 0 0 21 12a8.962 8.962 0 0 0-1.968-5.618Zm-1.414 12.65-2.141-2.141A5.972 5.972 0 0 1 12 18a5.973 5.973 0 0 1-3.477-1.11l-2.14 2.142A8.962 8.962 0 0 0 12 21a8.962 8.962 0 0 0 5.618-1.968ZM12 8a4 4 0 1 0 0 8 4 4 0 0 0 0-8Z" clip-rule="evenodd"/>
</svg>
