<svg xmlns="http://www.w3.org/2000/svg" width="24" height="24" viewBox="0 0 24 24">
  <path fill-rule="evenodd" d="M19.778 4.222a1 1 0 0 1 0 1.414l-3.535 3.536a1 1 0 1 1-1.415-1.415l3.536-3.535a1 1 0 0 1 1.414 0Zm-15.556 0a1 1 0 0 1 1.414 0l3.536 3.535a1 1 0 1 1-1.415 1.415L4.222 5.636a1 1 0 0 1 0-1.414Zm10.606 10.606a1 1 0 0 1 1.415 0l3.535 3.536a1 1 0 0 1-1.414 1.414l-3.536-3.535a1 1 0 0 1 0-1.415Zm-5.656 0a1 1 0 0 1 0 1.415l-3.536 3.535a1 1 0 0 1-1.414-1.414l3.535-3.536a1 1 0 0 1 1.415 0Z" clip-rule="evenodd" opacity=".5"/>
  <path fill-rule="evenodd" d="M12 3a9 9 0 1 0 0 18 9 9 0 0 0 0-18ZM1 12C1 5.925 5.925 1 12 1s11 4.925 11 11-4.925 11-11 11S1 18.075 1 12Zm11-4a4 4 0 1 0 0 8 4 4 0 0 0 0-8Zm-6 4a6 6 0 1 1 12 0 6 6 0 0 1-12 0Z" clip-rule="evenodd"/>
</svg>
