<svg xmlns="http://www.w3.org/2000/svg" width="24" height="24" viewBox="0 0 24 24">
  <path fill-rule="evenodd" d="M4.968 6.382A8.962 8.962 0 0 0 3 12c0 2.125.736 4.078 1.968 5.618l2.86-2.86A4.977 4.977 0 0 1 7 12c0-1.02.305-1.967.828-2.757l-2.86-2.86Zm1.414-1.414 2.86 2.86A4.977 4.977 0 0 1 12 7c1.018 0 1.966.304 2.756.827l2.86-2.86A8.962 8.962 0 0 0 12 3a8.962 8.962 0 0 0-5.618 1.968Zm12.649 1.413-2.86 2.86c.524.79.829 1.74.829 2.759a4.97 4.97 0 0 1-.83 2.759l2.86 2.86A8.962 8.962 0 0 0 21 12a8.96 8.96 0 0 0-1.97-5.62Zm-1.415 12.652-2.86-2.86A4.977 4.977 0 0 1 12 17a4.977 4.977 0 0 1-2.757-.828l-2.86 2.86A8.962 8.962 0 0 0 12 21a8.962 8.962 0 0 0 5.616-1.967Zm-13.39.75A10.965 10.965 0 0 0 12 23c6.075 0 11-4.925 11-11S18.075 1 12 1 1 5.925 1 12c0 3.035 1.23 5.784 3.218 7.774l.004.004.004.005ZM12 9a3 3 0 1 0 0 6 3 3 0 0 0 0-6Z" clip-rule="evenodd"/>
</svg>
