<svg xmlns="http://www.w3.org/2000/svg" width="24" height="24" viewBox="0 0 24 24">
  <path fill-rule="evenodd" d="M4.222 4.222a1 1 0 0 1 1.414 0l4.207 4.207A1 1 0 0 1 8.43 9.843L4.222 5.636a1 1 0 0 1 0-1.414Zm15.553 0a1 1 0 0 1 0 1.414l-4.24 4.24a1 1 0 0 1-1.413-1.414l4.24-4.24a1 1 0 0 1 1.414 0Zm-9.9 9.903a1 1 0 0 1 0 1.414l-4.239 4.24a1 1 0 0 1-1.414-1.415l4.239-4.24a1 1 0 0 1 1.414 0Zm4.279.032a1 1 0 0 1 1.414 0l4.208 4.207a1 1 0 1 1-1.415 1.414l-4.207-4.207a1 1 0 0 1 0-1.414Z" clip-rule="evenodd" opacity=".5"/>
  <path fill-rule="evenodd" d="M12 3a9 9 0 1 0 0 18 9 9 0 0 0 0-18ZM1 12C1 5.925 5.925 1 12 1s11 4.925 11 11-4.925 11-11 11S1 18.075 1 12Zm11-3a3 3 0 1 0 0 6 3 3 0 0 0 0-6Zm-5 3a5 5 0 1 1 10 0 5 5 0 0 1-10 0Z" clip-rule="evenodd"/>
</svg>
