<svg xmlns="http://www.w3.org/2000/svg" width="24" height="24" viewBox="0 0 24 24">
  <path d="M9 16.5h6V22H9v-5.5Z" opacity=".2"/>
  <path fill-rule="evenodd" d="M12 3a6.5 6.5 0 0 0-6.5 6.5c0 2.61 1.534 4.957 3.717 6h5.566c2.183-1.043 3.717-3.39 3.717-6A6.5 6.5 0 0 0 12 3Zm2 14.5h-4V19c0 .48 0 .79.017 1.026.015.228.042.315.06.357a1 1 0 0 0 .54.54c.042.018.129.045.357.06C11.21 21 11.52 21 12 21s.79 0 1.026-.017c.228-.015.315-.042.357-.06a1 1 0 0 0 .54-.54c.018-.042.045-.129.06-.357C14 19.79 14 19.48 14 19v-1.5Zm-6-.376c-2.69-1.451-4.5-4.39-4.5-7.624a8.5 8.5 0 0 1 17 0c0 3.233-1.81 6.173-4.5 7.624v1.908c0 .439 0 .817-.021 1.13-.023.33-.072.66-.207.986a3 3 0 0 1-1.624 1.624 3.073 3.073 0 0 1-.986.207c-.313.021-.691.021-1.13.021h-.064c-.439 0-.817 0-1.13-.021a3.072 3.072 0 0 1-.986-.207 3 3 0 0 1-1.624-1.624 3.069 3.069 0 0 1-.207-.986C8 19.85 8 19.471 8 19.032v-1.908Z" clip-rule="evenodd"/>
</svg>
