<svg xmlns="http://www.w3.org/2000/svg" width="24" height="24" fill="currentColor" viewBox="0 0 24 24">
  <path fill-rule="evenodd" d="M8.459 1h5.79a1 1 0 0 1 .937 1.351L13.443 7h5.71c.265 0 .526 0 .737.019.19.017.577.061.9.335.365.307.56.77.53 1.245-.028.423-.265.732-.384.881-.133.165-.315.353-.498.543L8.22 22.694a1 1 0 0 1-1.677-.981L9.156 13H4.261c-.186 0-.388 0-.558-.015a1.536 1.536 0 0 1-.755-.256 1.5 1.5 0 0 1-.624-1.01c-.05-.338.044-.623.11-.79.061-.159.152-.34.235-.506l.014-.028 4.2-8.4.015-.031c.056-.114.171-.35.36-.536a1.5 1.5 0 0 1 .56-.346A1.92 1.92 0 0 1 8.46 1Zm.159 2-4 8h5.881a1 1 0 0 1 .958 1.287l-1.815 6.05L18.646 9h-6.647a1 1 0 0 1-.936-1.351L12.806 3H8.619Z" clip-rule="evenodd"/>
</svg>
