<svg xmlns="http://www.w3.org/2000/svg" width="24" height="24" viewBox="0 0 24 24">
  <path d="M15.5 16.874a6 6 0 1 0-7 0V18.8c0 1.12 0 1.68.218 2.108a2 2 0 0 0 .874.874C10.02 22 10.58 22 11.7 22h.6c1.12 0 1.68 0 2.108-.218a2 2 0 0 0 .874-.874c.218-.428.218-.988.218-2.108v-1.926Z" opacity=".2"/>
  <path fill-rule="evenodd" d="M12 1a1 1 0 0 1 1 1v1a1 1 0 1 1-2 0V2a1 1 0 0 1 1-1ZM4.193 4.193a1 1 0 0 1 1.414 0l.6.6a1 1 0 0 1-1.414 1.414l-.6-.6a1 1 0 0 1 0-1.414Zm15.614 0a1 1 0 0 1 0 1.414l-.6.6a1 1 0 1 1-1.414-1.414l.6-.6a1 1 0 0 1 1.414 0ZM5 12a7 7 0 1 1 11.5 5.362v1.477c0 .527 0 .982-.03 1.356-.033.395-.104.789-.297 1.167a3 3 0 0 1-1.311 1.311c-.378.193-.772.264-1.167.296-.375.031-.83.031-1.356.031h-.678c-.527 0-.981 0-1.356-.03-.395-.033-.789-.104-1.167-.297a3 3 0 0 1-1.311-1.311c-.193-.378-.264-.772-.296-1.167a17.9 17.9 0 0 1-.031-1.357v-1.476A6.987 6.987 0 0 1 5 12Zm7-5a5 5 0 0 0-2.916 9.062 1 1 0 0 1 .416.812V18.8c0 .577 0 .949.024 1.232.022.272.06.372.085.422a1 1 0 0 0 .437.437c.05.025.15.063.422.085.283.023.655.024 1.232.024h.6c.577 0 .949 0 1.232-.024.272-.022.373-.06.422-.085a1 1 0 0 0 .437-.437c.025-.05.063-.15.085-.422.023-.283.024-.655.024-1.232v-1.926a1 1 0 0 1 .416-.812A5 5 0 0 0 12 7ZM1 12a1 1 0 0 1 1-1h1a1 1 0 1 1 0 2H2a1 1 0 0 1-1-1Zm19 0a1 1 0 0 1 1-1h1a1 1 0 1 1 0 2h-1a1 1 0 0 1-1-1ZM9 13.5a1 1 0 0 1 1-1h4a1 1 0 1 1 0 2h-1v4a1 1 0 1 1-2 0v-4h-1a1 1 0 0 1-1-1Z" clip-rule="evenodd"/>
</svg>
