<svg xmlns="http://www.w3.org/2000/svg" width="24" height="24" viewBox="0 0 24 24">
  <path fill-rule="evenodd" d="M9 15.5a1 1 0 0 1 1 1V19c0 .48 0 .79.017 1.026.015.228.042.315.06.357a1 1 0 0 0 .54.54c.042.018.129.045.357.06C11.21 21 11.52 21 12 21s.79 0 1.026-.017c.228-.015.315-.042.357-.06a1 1 0 0 0 .54-.54c.018-.042.045-.129.06-.357C14 19.79 14 19.48 14 19v-2.5a1 1 0 1 1 2 0v2.532c0 .439 0 .817-.021 1.13-.023.33-.072.66-.207.986a3 3 0 0 1-1.624 1.624 3.073 3.073 0 0 1-.986.207c-.313.021-.691.021-1.13.021h-.064c-.439 0-.817 0-1.13-.021a3.072 3.072 0 0 1-.986-.207 3 3 0 0 1-1.624-1.624 3.07 3.07 0 0 1-.207-.986C8 19.85 8 19.471 8 19.032V16.5a1 1 0 0 1 1-1Z" clip-rule="evenodd" opacity=".5"/>
  <path fill-rule="evenodd" d="M12 3a6.5 6.5 0 0 0-6.5 6.5c0 2.61 1.534 4.957 3.717 6h5.566c2.183-1.043 3.717-3.39 3.717-6A6.5 6.5 0 0 0 12 3ZM3.5 9.5a8.5 8.5 0 0 1 17 0c0 3.468-2.082 6.598-5.1 7.916a1.001 1.001 0 0 1-.4.084H9a1 1 0 0 1-.4-.084C5.582 16.098 3.5 12.968 3.5 9.5Z" clip-rule="evenodd"/>
</svg>
