<svg xmlns="http://www.w3.org/2000/svg" width="24" height="24" viewBox="0 0 24 24">
  <path d="M13 2a1 1 0 1 0-2 0v1a1 1 0 1 0 2 0V2ZM2 11a1 1 0 1 0 0 2h1a1 1 0 1 0 0-2H2Zm2.193-6.807a1 1 0 0 1 1.414 0l.6.6a1 1 0 0 1-1.414 1.414l-.6-.6a1 1 0 0 1 0-1.414Zm15.614 1.414a1 1 0 0 0-1.414-1.414l-.6.6a1 1 0 1 0 1.414 1.414l.6-.6ZM20 12a1 1 0 0 1 1-1h1a1 1 0 1 1 0 2h-1a1 1 0 0 1-1-1Z"/>
  <path fill-rule="evenodd" d="M12 5a7 7 0 0 0-4.5 12.362v1.477c0 .527 0 .982.03 1.356.033.395.104.789.297 1.167a3 3 0 0 0 1.311 1.311c.378.193.772.264 1.167.296.375.031.83.031 1.356.031h.678c.527 0 .981 0 1.356-.03.395-.033.789-.104 1.167-.297a3 3 0 0 0 1.311-1.311c.193-.378.264-.772.296-1.167.031-.375.031-.83.031-1.356v-1.477A7 7 0 0 0 12 5Zm-3 8.5a1 1 0 0 1 1-1h4a1 1 0 1 1 0 2h-1v4a1 1 0 1 1-2 0v-4h-1a1 1 0 0 1-1-1Z" clip-rule="evenodd"/>
</svg>
