<svg xmlns="http://www.w3.org/2000/svg" width="24" height="24" viewBox="0 0 24 24">
  <path d="M14.25 2H8.494c-.179 0-.269 0-.348.027a.5.5 0 0 0-.187.116c-.06.058-.1.139-.18.3l-4.2 8.4c-.192.383-.288.574-.265.73a.5.5 0 0 0 .208.337c.13.09.344.09.772.09H10.5l-3 10L19.693 9.355c.412-.426.617-.64.63-.822a.5.5 0 0 0-.177-.415C20.006 8 19.71 8 19.117 8H12l2.25-6Z" opacity=".2"/>
  <path fill-rule="evenodd" d="M8.46 1h5.79a1 1 0 0 1 .936 1.351L13.443 7h5.711c.264 0 .525 0 .736.019.19.017.577.061.901.335.364.307.56.77.529 1.245-.028.423-.264.732-.384.881a9.007 9.007 0 0 1-.497.543L8.219 22.694a1 1 0 0 1-1.677-.981L9.156 13H4.263c-.186 0-.388 0-.558-.015a1.536 1.536 0 0 1-.756-.256 1.5 1.5 0 0 1-.624-1.01c-.05-.338.045-.623.11-.79.062-.159.152-.34.235-.506l.014-.028 4.2-8.4.016-.031a1.92 1.92 0 0 1 .36-.536 1.5 1.5 0 0 1 .56-.346A1.92 1.92 0 0 1 8.46 1Zm.158 2-4 8H10.5a1 1 0 0 1 .958 1.287l-1.815 6.05L18.647 9H12a1 1 0 0 1-.936-1.351L12.807 3H8.618Z" clip-rule="evenodd"/>
</svg>
