<svg xmlns="http://www.w3.org/2000/svg" width="24" height="24" viewBox="0 0 24 24">
  <path fill-rule="evenodd" d="M10 16.659a1 1 0 0 1 1 1V20a1 1 0 1 0 2 0v-2.341a1 1 0 1 1 2 0V20a3 3 0 0 1-6 0v-2.341a1 1 0 0 1 1-1ZM12 1a1 1 0 0 1 1 1v1a1 1 0 1 1-2 0V2a1 1 0 0 1 1-1ZM4.193 4.193a1 1 0 0 1 1.414 0l.6.6a1 1 0 0 1-1.414 1.414l-.6-.6a1 1 0 0 1 0-1.414Zm15.614 0a1 1 0 0 1 0 1.414l-.6.6a1 1 0 1 1-1.414-1.414l.6-.6a1 1 0 0 1 1.414 0ZM1 12a1 1 0 0 1 1-1h1a1 1 0 1 1 0 2H2a1 1 0 0 1-1-1Zm19 0a1 1 0 0 1 1-1h1a1 1 0 1 1 0 2h-1a1 1 0 0 1-1-1Z" clip-rule="evenodd" opacity=".5"/>
  <path fill-rule="evenodd" d="M12 7a5 5 0 1 0 0 10 5 5 0 0 0 0-10Zm-7 5a7 7 0 1 1 14 0 7 7 0 0 1-14 0Z" clip-rule="evenodd"/>
</svg>
