<svg xmlns="http://www.w3.org/2000/svg" width="24" height="24" viewBox="0 0 24 24">
  <path d="M21 22H4.6c-.65 0-1.08 0-1.51-.22-.38-.19-.68-.49-.87-.87C2 20.48 2 20.05 2 19.4V3c0-.55.45-1 1-1s1 .45 1 1v16.4c0 .28 0 .57.02.65.01-.05.3-.05.58-.05H21c.55 0 1 .45 1 1s-.45 1-1 1ZM7 16c-.25 0-.49-.09-.68-.27-.4-.38-.42-1.01-.05-1.41l3.92-4.18c.19-.2.36-.38.63-.51.24-.11.5-.15.76-.13.3.03.51.14.76.27l3.12 1.62 3.82-4.07c.38-.4 1.01-.42 1.41-.05.4.38.42 1.01.05 1.41l-3.92 4.18c-.19.21-.36.38-.63.5-.24.11-.5.15-.76.13-.3-.03-.51-.14-.75-.27l-3.13-1.62-3.82 4.07c-.2.21-.46.32-.73.32V16Z"/>
</svg>
