<svg xmlns="http://www.w3.org/2000/svg" width="24" height="24" viewBox="0 0 24 24">
  <path fill-rule="evenodd" d="M2.186 8.419a1 1 0 0 1 1.395-.233l6.31 4.508 3.102-3.102a1.5 1.5 0 0 1 1.933-.16l6.655 4.754a1 1 0 1 1-1.162 1.628l-6.31-4.508-3.102 3.102a1.5 1.5 0 0 1-1.933.16L2.42 9.814a1 1 0 0 1-.233-1.395Z" clip-rule="evenodd" opacity=".5"/>
  <path fill-rule="evenodd" d="M2 6a4 4 0 0 1 4-4h12a4 4 0 0 1 4 4v12a4 4 0 0 1-4 4H6a4 4 0 0 1-4-4V6Zm4-2a2 2 0 0 0-2 2v12a2 2 0 0 0 2 2h12a2 2 0 0 0 2-2V6a2 2 0 0 0-2-2H6Z" clip-rule="evenodd"/>
</svg>
