<svg xmlns="http://www.w3.org/2000/svg" width="24" height="24" viewBox="0 0 24 24">
  <path fill-rule="evenodd" d="M7.759 2h8.482c.805 0 1.47 0 2.01.044.563.046 1.08.145 1.565.392a4 4 0 0 1 1.748 1.748c.247.485.346 1.002.392 1.564C22 6.29 22 6.954 22 7.758v8.484c0 .804 0 1.469-.044 2.01-.046.562-.145 1.079-.392 1.564a4 4 0 0 1-1.748 1.748c-.485.247-1.002.346-1.564.392-.541.044-1.206.044-2.01.044H7.758c-.805 0-1.47 0-2.01-.044-.563-.046-1.08-.145-1.565-.392a4 4 0 0 1-1.748-1.748c-.247-.485-.346-1.002-.392-1.564C2 17.71 2 17.046 2 16.242v-1.229a.94.94 0 0 1 0-.025v-7.23c0-.804 0-1.469.044-2.01.046-.562.145-1.079.392-1.564a4 4 0 0 1 1.748-1.748c.485-.247 1.002-.346 1.564-.392C6.29 2 6.954 2 7.758 2ZM4 15.515v.685c0 .857 0 1.439.038 1.889.035.438.1.663.18.819a2 2 0 0 0 .874.874c.156.08.38.145.82.18C6.361 20 6.942 20 7.8 20h8.4c.857 0 1.439 0 1.889-.038.438-.035.663-.1.819-.18a2 2 0 0 0 .874-.874c.08-.156.145-.38.18-.819.037-.45.038-1.032.038-1.889v-5.257l-4.867 3.477-.017.012c-.083.059-.184.132-.28.19a1.503 1.503 0 0 1-.486.196 1.5 1.5 0 0 1-.83-.07 1.504 1.504 0 0 1-.447-.272 4.623 4.623 0 0 1-.245-.234l-.014-.014-2.922-2.922L4 15.515Zm16-7.03V7.8c0-.857 0-1.439-.038-1.889-.035-.438-.1-.663-.18-.819a2 2 0 0 0-.874-.874c-.156-.08-.38-.145-.819-.18C17.639 4 17.057 4 16.2 4H7.8c-.857 0-1.439 0-1.889.038-.438.035-.663.1-.819.18a2 2 0 0 0-.874.874c-.08.156-.145.38-.18.819C4 6.361 4 6.943 4 7.8v5.257L8.867 9.58l.017-.012c.083-.059.184-.132.28-.19.113-.068.276-.153.486-.195a1.5 1.5 0 0 1 .83.068c.2.077.347.188.447.274.085.072.173.16.245.233l.014.014 2.922 2.922L20 8.485Z" clip-rule="evenodd"/>
</svg>
