<svg xmlns="http://www.w3.org/2000/svg" width="24" height="24" viewBox="0 0 24 24">
  <path fill-rule="evenodd" d="M2 3a1 1 0 0 1 1-1h18a1 1 0 1 1 0 2H3a1 1 0 0 1-1-1Zm9.337 2.863a1.5 1.5 0 0 1 1.326 0c.367.18.56.498.655.663.1.177.203.404.306.63l.015.032 4.271 9.398a1 1 0 0 1-1.82.828L14.538 14H9.462L7.91 17.414a1 1 0 0 1-1.82-.828l4.271-9.398.015-.032c.103-.226.206-.453.306-.63.094-.165.288-.482.655-.663ZM10.371 12h3.258L12 8.417 10.371 12ZM2 21a1 1 0 0 1 1-1h18a1 1 0 1 1 0 2H3a1 1 0 0 1-1-1Z" clip-rule="evenodd"/>
</svg>
