<svg xmlns="http://www.w3.org/2000/svg" width="24" height="24" viewBox="0 0 24 24">
  <path d="M21 22H4.6c-.65 0-1.08 0-1.51-.22-.38-.19-.68-.49-.87-.87C2 20.48 2 20.05 2 19.4V3c0-.55.45-1 1-1s1 .45 1 1v16.4c0 .28 0 .57.02.65.01-.05.3-.05.58-.05H21c.55 0 1 .45 1 1s-.45 1-1 1Zm0-6h-4c-.55 0-1-.45-1-1s.45-1 1-1h1.59L15 10.41l-1.73 1.73c-.26.26-.47.47-.81.58-.3.1-.62.1-.92 0-.34-.11-.56-.33-.81-.57L6.29 7.71A.996.996 0 1 1 7.7 6.3l4.29 4.29 1.73-1.73c.25-.25.46-.47.81-.58.31-.1.62-.1.92 0 .35.11.55.32.81.58l3.73 3.73V11c0-.55.45-1 1-1s1 .45 1 1v4.02c0 .13-.03.25-.07.36-.05.12-.12.23-.22.33s-.21.17-.32.22c-.11.05-.23.07-.36.08H21V16Z"/>
</svg>
