<svg xmlns="http://www.w3.org/2000/svg" width="24" height="24"  viewBox="0 0 24 24">
  <path d="M17.838 2H6.162c-.527 0-.981 0-1.356.03-.395.033-.789.104-1.167.297a3 3 0 0 0-1.311 1.311 2.57 2.57 0 0 0-.217.614c-.025.113-.038.17-.031.245.005.06.027.138.055.191a.941.941 0 0 0 .187.218L8 10.586l1.744-1.744c.084-.084.184-.185.28-.266.111-.094.28-.22.513-.295a1.5 1.5 0 0 1 .926 0c.233.075.402.2.513.295.096.081.196.182.28.266L16 12.586V11a1 1 0 1 1 2 0v4a1 1 0 0 1-1 1h-4a1 1 0 1 1 0-2h1.586L11 10.414l-1.744 1.744c-.084.084-.184.185-.28.266a1.51 1.51 0 0 1-.512.296 1.5 1.5 0 0 1-.928 0 1.51 1.51 0 0 1-.512-.296c-.096-.081-.196-.182-.28-.266L3.366 8.78c-.429-.428-.643-.643-.827-.657a.5.5 0 0 0-.42.174C2 8.437 2 8.74 2 9.346v8.492c0 .528 0 .982.03 1.357.033.395.104.789.297 1.167a3 3 0 0 0 1.311 1.311c.378.193.772.264 1.167.296.375.031.83.031 1.356.031H17.84c.527 0 .982 0 1.356-.03.395-.033.789-.104 1.167-.297a3 3 0 0 0 1.311-1.311c.193-.378.264-.772.296-1.167.031-.375.031-.83.031-1.356V6.16c0-.527 0-.981-.03-1.356-.033-.395-.104-.789-.297-1.167a3 3 0 0 0-1.311-1.311c-.378-.193-.772-.264-1.167-.296A17.9 17.9 0 0 0 17.838 2Z"/>
</svg>
