<svg xmlns="http://www.w3.org/2000/svg" width="24" height="24" viewBox="0 0 24 24">
  <path fill-rule="evenodd" d="M12 3a9 9 0 1 0 0 18 9 9 0 0 0 0-18ZM1 12C1 5.925 5.925 1 12 1s11 4.925 11 11-4.925 11-11 11S1 18.075 1 12Zm4.293-2.707a1 1 0 0 1 1.414 0L10 12.586l2.727-2.727.017-.017c.084-.084.184-.185.28-.266.111-.094.28-.22.513-.295a1.5 1.5 0 0 1 .926 0c.233.075.402.2.513.295.096.081.196.182.28.266l.017.017 3.434 3.434a1 1 0 0 1-1.414 1.414L14 11.414l-2.727 2.727-.017.017a4.912 4.912 0 0 1-.28.266 1.52 1.52 0 0 1-.513.296 1.5 1.5 0 0 1-.927 0 1.51 1.51 0 0 1-.512-.296c-.096-.081-.196-.182-.28-.266l-.017-.017-3.434-3.434a1 1 0 0 1 0-1.414Z" clip-rule="evenodd"/>
</svg>
