<svg xmlns="http://www.w3.org/2000/svg" width="24" height="24" viewBox="0 0 24 24">
  <path d="M21 22H4.6c-.65 0-1.08 0-1.51-.22-.38-.19-.68-.5-.87-.88C2 20.47 2 20.04 2 19.39V3c0-.55.45-1 1-1s1 .45 1 1v16.4c0 .28 0 .57.02.65.01-.05.3-.05.58-.05H21c.55 0 1 .45 1 1s-.45 1-1 1Z" opacity=".5"/>
  <path fill-rule="evenodd" d="M20.684 7.27a1 1 0 0 1 .046 1.414l-3.92 4.182c-.007.01-.017.02-.028.031-.102.112-.315.345-.597.474a1.5 1.5 0 0 1-.759.13c-.31-.028-.587-.177-.72-.248a6.401 6.401 0 0 0-.038-.02l-3.123-1.621-3.815 4.072a1 1 0 1 1-1.46-1.368l3.92-4.182c.007-.01.017-.02.028-.031.102-.112.315-.345.597-.474a1.5 1.5 0 0 1 .759-.13c.31.028.587.177.72.248l.038.02 3.123 1.621 3.815-4.072a1 1 0 0 1 1.414-.046Z" clip-rule="evenodd"/>
</svg>
