<svg xmlns="http://www.w3.org/2000/svg" width="24" height="24" viewBox="0 0 24 24">
  <path fill-rule="evenodd" d="M2 3a1 1 0 0 1 1-1h18a1 1 0 1 1 0 2H3a1 1 0 0 1-1-1Zm0 18a1 1 0 0 1 1-1h18a1 1 0 1 1 0 2H3a1 1 0 0 1-1-1Z" clip-rule="evenodd" opacity=".5"/>
  <path fill-rule="evenodd" d="M11.337 5.863a1.5 1.5 0 0 1 1.326 0c.367.18.56.498.655.663a8.358 8.358 0 0 1 .32.662l4.272 9.398a1 1 0 0 1-1.82.828L14.538 14H9.462L7.91 17.414a1 1 0 0 1-1.82-.828l4.271-9.398.015-.032a8.36 8.36 0 0 1 .306-.63c.094-.165.288-.482.655-.663ZM10.371 12h3.258L12 8.417 10.371 12Z" clip-rule="evenodd"/>
</svg>
