<svg xmlns="http://www.w3.org/2000/svg" width="24" height="24" viewBox="0 0 24 24">
  <path d="M21 22H4.6c-.65 0-1.08 0-1.51-.22-.38-.19-.68-.5-.87-.88C2 20.47 2 20.04 2 19.39V3c0-.55.45-1 1-1s1 .45 1 1v16.4c0 .28 0 .57.02.65.01-.05.3-.05.58-.05H21c.55 0 1 .45 1 1s-.45 1-1 1Z" opacity=".5"/>
  <path fill-rule="evenodd" d="M6.293 6.293a1 1 0 0 1 1.414 0L12 10.586l1.727-1.727.017-.017c.084-.084.184-.185.28-.266.111-.094.28-.22.513-.295a1.5 1.5 0 0 1 .926 0c.233.075.402.2.513.295.096.081.196.182.28.266l.017.017L20 12.586V11a1 1 0 1 1 2 0v4a1 1 0 0 1-1 1h-4a1 1 0 1 1 0-2h1.586L15 10.414l-1.727 1.727-.017.017c-.084.084-.184.185-.28.266a1.52 1.52 0 0 1-.513.296 1.5 1.5 0 0 1-.926 0 1.508 1.508 0 0 1-.513-.296 4.912 4.912 0 0 1-.28-.266l-.017-.017-4.434-4.434a1 1 0 0 1 0-1.414Z" clip-rule="evenodd"/>
</svg>
