<svg xmlns="http://www.w3.org/2000/svg" width="24" height="24" viewBox="0 0 24 24">
  <path d="M14.345 10.246 21 15v3a3 3 0 0 1-3 3H6a3 3 0 0 1-3-3V9l6.655 4.754a.5.5 0 0 0 .645-.053l3.4-3.402a.5.5 0 0 1 .645-.053Z" opacity=".2"/>
  <path fill-rule="evenodd" d="M2 6a4 4 0 0 1 4-4h12a4 4 0 0 1 4 4v12a4 4 0 0 1-4 4H6a4 4 0 0 1-4-4V6Zm2 4.943V18a2 2 0 0 0 2 2h12a2 2 0 0 0 2-2v-2.485l-5.892-4.209-3.101 3.102a1.5 1.5 0 0 1-1.933.16L4 10.943Zm16 2.114V6a2 2 0 0 0-2-2H6a2 2 0 0 0-2 2v2.485l5.892 4.209 3.101-3.102a1.5 1.5 0 0 1 1.933-.16L20 13.057Z" clip-rule="evenodd"/>
</svg>
