<svg xmlns="http://www.w3.org/2000/svg" width="24" height="24" viewBox="0 0 24 24">
  <path d="M21 22H4.6c-.65 0-1.08 0-1.51-.22-.38-.19-.68-.49-.87-.87C2 20.48 2 20.05 2 19.4V3c0-.55.45-1 1-1s1 .45 1 1v16.4c0 .28 0 .57.02.65.01-.05.3-.05.58-.05H21c.55 0 1 .45 1 1s-.45 1-1 1ZM7 16c-.26 0-.51-.1-.71-.29a.996.996 0 0 1 0-1.41l4.43-4.43c.25-.25.46-.47.81-.58.3-.1.62-.1.93 0 .34.11.54.32.8.58l1.73 1.73 3.59-3.59h-1.59c-.55 0-1-.45-1-1s.45-1 1-1h4.02c.12 0 .24.03.35.07.12.05.24.12.33.22.1.1.17.21.22.33.04.11.07.23.07.35V11c0 .55-.45 1-1 1s-1-.45-1-1V9.41l-3.73 3.73c-.26.26-.47.47-.81.58-.3.1-.62.1-.92 0-.34-.11-.56-.33-.81-.57l-1.73-1.73-4.29 4.29c-.2.2-.45.29-.71.29H7Z"/>
</svg>
