<svg xmlns="http://www.w3.org/2000/svg" width="24" height="24" viewBox="0 0 24 24">
  <path d="M21 22H4.6c-.65 0-1.08 0-1.51-.22-.38-.19-.68-.49-.87-.87C2 20.48 2 20.05 2 19.4V3c0-.55.45-1 1-1s1 .45 1 1v16.4c0 .28 0 .57.02.65.01-.05.3-.05.58-.05H21c.55 0 1 .45 1 1s-.45 1-1 1Zm-1-6c-.27 0-.53-.11-.73-.32l-3.82-4.07-3.12 1.62c-.25.13-.46.24-.75.27-.27.02-.53-.02-.77-.13-.27-.12-.43-.3-.63-.5L6.26 8.69a.988.988 0 0 1 .05-1.41.988.988 0 0 1 1.41.05l3.82 4.07 3.12-1.62c.25-.13.46-.24.76-.27.26-.02.52.02.76.13.27.12.44.3.63.5l3.92 4.18c.38.4.36 1.04-.05 1.41-.19.18-.44.27-.68.27Z"/>
</svg>
