<svg xmlns="http://www.w3.org/2000/svg" width="24" height="24" viewBox="0 0 24 24">
  <path fill-rule="evenodd" d="M9 1a1 1 0 0 1 1 1v2a1 1 0 0 1-2 0V2a1 1 0 0 1 1-1Zm4.414 2.515a5 5 0 0 1 7.071 7.07l-2.121 2.122a1 1 0 0 1-1.414-1.414l2.12-2.123a3 3 0 1 0-4.243-4.242l-2.12 2.121a1 1 0 1 1-1.415-1.414l2.121-2.121ZM2.793 2.793a1 1 0 0 1 1.414 0l1.414 1.414a1 1 0 0 1-1.414 1.414L2.793 4.207a1 1 0 0 1 0-1.414Zm13.414 5a1 1 0 0 1 0 1.414l-7 7a1 1 0 0 1-1.414-1.414l7-7a1 1 0 0 1 1.414 0ZM1 9a1 1 0 0 1 1-1h2a1 1 0 0 1 0 2H2a1 1 0 0 1-1-1Zm6.05 2.293a1 1 0 0 1 0 1.414l-2.12 2.121a3 3 0 0 0 4.243 4.243l2.12-2.121a1 1 0 1 1 1.415 1.414l-2.121 2.121a5 5 0 0 1-7.071-7.07l2.121-2.122a1 1 0 0 1 1.414 0ZM19 15a1 1 0 0 1 1-1h2a1 1 0 1 1 0 2h-2a1 1 0 0 1-1-1Zm-.621 3.379a1 1 0 0 1 1.414 0l1.414 1.414a1 1 0 1 1-1.414 1.414l-1.414-1.414a1 1 0 0 1 0-1.414ZM15 19a1 1 0 0 1 1 1v2a1 1 0 1 1-2 0v-2a1 1 0 0 1 1-1Z" clip-rule="evenodd"/>
</svg>
