<svg xmlns="http://www.w3.org/2000/svg" width="24" height="24" viewBox="0 0 24 24">
  <path fill-rule="evenodd" d="M12 3.515A6 6 0 1 1 20.486 12l-1.415 1.414A1 1 0 0 1 17.657 12l1.415-1.414a4 4 0 0 0-5.657-5.657L12 6.343a1 1 0 0 1-1.415-1.414L12 3.515Zm4.208 4.278a1 1 0 0 1 0 1.414l-7 7a1 1 0 1 1-1.415-1.414l7-7a1 1 0 0 1 1.415 0Zm-9.864 2.793a1 1 0 0 1 0 1.414l-1.415 1.414a4 4 0 1 0 5.657 5.657l1.415-1.414a1 1 0 0 1 1.414 1.414L12 20.485A6 6 0 1 1 3.514 12l1.414-1.414a1 1 0 0 1 1.415 0Z" clip-rule="evenodd"/>
</svg>
