<svg xmlns="http://www.w3.org/2000/svg" width="24" height="24" viewBox="0 0 24 24">
  <path d="M12 22c5.523 0 10-4.477 10-10S17.523 2 12 2 2 6.477 2 12s4.477 10 10 10Z" opacity=".2"/>
  <path fill-rule="evenodd" d="M7.439 4.239a9.017 9.017 0 0 0-1.803 1.397 8.961 8.961 0 0 0-2.566 5.242A5.776 5.776 0 0 1 4.24 9.83a5.778 5.778 0 0 1 6.632.114l.909.66.66-.908a3.778 3.778 0 0 0 .071-4.337 3.772 3.772 0 0 0-5.01-1.152l-.063.033Zm5.684-1.17a5.778 5.778 0 0 1 1.05 1.17 5.778 5.778 0 0 1-.114 6.632l-.66.909.906.659a3.778 3.778 0 0 0 4.337.073 3.77 3.77 0 0 0 1.126-5.06 9.016 9.016 0 0 0-1.405-1.816 8.961 8.961 0 0 0-5.24-2.566Zm7.806 10.055a5.778 5.778 0 0 1-1.169 1.047 5.778 5.778 0 0 1-6.632-.114l-.906-.66-.659.906a3.778 3.778 0 0 0-.073 4.338 3.774 3.774 0 0 0 5.055 1.129c.65-.38 1.261-.85 1.818-1.407a8.96 8.96 0 0 0 2.566-5.24ZM10.881 20.93a5.774 5.774 0 0 1-1.05-1.17 5.778 5.778 0 0 1 .115-6.633l.658-.906-.908-.66a3.778 3.778 0 0 0-4.337-.073A3.773 3.773 0 0 0 4.206 16.5a9.017 9.017 0 0 0 1.43 1.863 8.961 8.961 0 0 0 5.245 2.567ZM4.22 4.222c4.297-4.296 11.26-4.296 15.557 0 4.296 4.296 4.296 11.26 0 15.556-4.296 4.296-11.26 4.296-15.556 0-4.296-4.296-4.296-11.26 0-15.556Z" clip-rule="evenodd"/>
</svg>
