<svg xmlns="http://www.w3.org/2000/svg" width="24" height="24" viewBox="0 0 24 24">
  <path fill-rule="evenodd" d="M14.127 4.177A5.772 5.772 0 0 0 6.5 2.475a1 1 0 0 0 1.002 1.73 3.773 3.773 0 0 1 5.047 1.203 3.778 3.778 0 0 1-.107 4.287l-.66.909-.909-.66A5.778 5.778 0 0 0 4.21 9.85a5.773 5.773 0 0 0-1.736 7.65 1 1 0 0 0 1.732-1 3.773 3.773 0 0 1 5.49-4.939l.908.66-.658.906a5.778 5.778 0 0 0-.092 6.664 5.773 5.773 0 0 0 7.648 1.734 1 1 0 1 0-1-1.732 3.773 3.773 0 0 1-4.939-5.49l.659-.905.906.659a5.778 5.778 0 0 0 6.664.092 5.77 5.77 0 0 0 1.734-7.65 1 1 0 0 0-1.731 1.002 3.77 3.77 0 0 1-1.178 5.028 3.778 3.778 0 0 1-4.313-.09l-.906-.66.66-.908a5.778 5.778 0 0 0 .115-6.632 1.018 1.018 0 0 0-.046-.062Z" clip-rule="evenodd" opacity=".5"/>
  <path fill-rule="evenodd" d="M18.363 5.636a8.999 8.999 0 0 0-12.727 0 8.999 8.999 0 0 0 0 12.727 9 9 0 0 0 12.727 0 9 9 0 0 0 0-12.727ZM4.222 4.222c4.296-4.296 11.26-4.296 15.556 0 4.296 4.296 4.296 11.26 0 15.556-4.296 4.296-11.26 4.296-15.556 0-4.296-4.296-4.296-11.26 0-15.556Z" clip-rule="evenodd"/>
</svg>
