<svg xmlns="http://www.w3.org/2000/svg" width="24" height="24" viewBox="0 0 24 24">
  <path fill-rule="evenodd" d="M4.214 4.293a1 1 0 0 1 1.415 0L8.457 7.12a1 1 0 1 1-1.414 1.414L4.214 5.707a1 1 0 0 1 0-1.414Zm15.572 0a1 1 0 0 1 0 1.414l-2.829 2.828a1 1 0 1 1-1.414-1.414l2.828-2.828a1 1 0 0 1 1.415 0Zm-11.33 11.25a1 1 0 0 1 0 1.414L5.63 19.785a1 1 0 1 1-1.415-1.414l2.829-2.828a1 1 0 0 1 1.414 0Zm7.086 0a1 1 0 0 1 1.414 0l2.828 2.828a1 1 0 1 1-1.414 1.415l-2.828-2.829a1 1 0 0 1 0-1.414Z" clip-rule="evenodd" opacity=".5"/>
  <path fill-rule="evenodd" d="M12 1a1 1 0 0 1 1 1v4a1 1 0 1 1-2 0V2a1 1 0 0 1 1-1ZM1 12a1 1 0 0 1 1-1h4a1 1 0 1 1 0 2H2a1 1 0 0 1-1-1Zm16 0a1 1 0 0 1 1-1h4a1 1 0 1 1 0 2h-4a1 1 0 0 1-1-1Zm-5 5a1 1 0 0 1 1 1v4a1 1 0 1 1-2 0v-4a1 1 0 0 1 1-1Z" clip-rule="evenodd"/>
</svg>
