<svg xmlns="http://www.w3.org/2000/svg" width="24" height="24" viewBox="0 0 24 24">
  <path fill-rule="evenodd" d="M7.759 2h8.482c.805 0 1.47 0 2.01.044.563.046 1.08.145 1.565.392a4 4 0 0 1 1.748 1.748c.247.485.346 1.002.392 1.564C22 6.29 22 6.954 22 7.758v8.483c0 .805 0 1.47-.044 2.01-.046.563-.145 1.08-.392 1.565a4 4 0 0 1-1.748 1.748c-.485.247-1.002.346-1.564.392-.541.044-1.206.044-2.01.044H7.758c-.805 0-1.47 0-2.01-.044-.563-.046-1.08-.145-1.565-.392a4 4 0 0 1-1.748-1.748c-.247-.485-.346-1.002-.392-1.564C2 17.71 2 17.046 2 16.242V7.758c0-.805 0-1.47.044-2.01.046-.563.145-1.08.392-1.565a4 4 0 0 1 1.748-1.748c.485-.247 1.002-.346 1.564-.392C6.29 2 6.954 2 7.758 2ZM5.91 4.038c-.438.035-.663.1-.819.18a2 2 0 0 0-.874.874c-.08.156-.145.38-.18.819C4 6.361 4 6.943 4 7.8v8.4c0 .857 0 1.439.038 1.889.035.438.1.663.18.819a2 2 0 0 0 .874.874c.156.08.38.145.819.18C6.361 20 6.943 20 7.8 20h8.4c.857 0 1.439 0 1.889-.038.438-.035.663-.1.819-.18a2 2 0 0 0 .874-.874c.08-.156.145-.38.18-.819.037-.45.038-1.032.038-1.889V7.8c0-.857 0-1.439-.038-1.889-.035-.438-.1-.663-.18-.819a2 2 0 0 0-.874-.874c-.156-.08-.38-.145-.819-.18C17.639 4 17.057 4 16.2 4H7.8c-.857 0-1.439 0-1.889.038Z" clip-rule="evenodd" opacity=".5"/>
  <path fill-rule="evenodd" d="M8 10a4 4 0 1 1 6.704 2.948l.894 2.683.009.027c.051.154.108.325.144.477.04.165.085.43.01.73a1.5 1.5 0 0 1-.648.9 1.525 1.525 0 0 1-.696.221 5.83 5.83 0 0 1-.498.014h-3.838c-.162 0-.343 0-.498-.014a1.525 1.525 0 0 1-.696-.221 1.5 1.5 0 0 1-.648-.9c-.075-.3-.03-.565.01-.73.036-.152.093-.324.144-.477l.01-.027.893-2.683-.02-.02A3.992 3.992 0 0 1 8 10Zm4-2a2 2 0 0 0-1.362 3.465l.013.012c.095.088.19.176.263.25a1.483 1.483 0 0 1 .414.702 1.481 1.481 0 0 1-.016.78 5.526 5.526 0 0 1-.09.286l-.005.016-.83 2.489h3.226l-.83-2.49-.006-.015c-.03-.092-.064-.195-.09-.286a1.534 1.534 0 0 1-.015-.78 1.483 1.483 0 0 1 .414-.701c.074-.075.168-.163.263-.251l.013-.012A2 2 0 0 0 12 8Z" clip-rule="evenodd"/>
</svg>
