<svg xmlns="http://www.w3.org/2000/svg" width="24" height="24"  viewBox="0 0 24 24">
  <path fill-rule="evenodd" d="M12 2a6 6 0 0 0-6 6v2.027a9.76 9.76 0 0 0-.252.017c-.562.046-1.079.145-1.564.392a4 4 0 0 0-1.748 1.748c-.247.485-.346 1.002-.392 1.564C2 14.29 2 14.954 2 15.758v.483c0 .805 0 1.47.044 2.01.046.563.145 1.08.392 1.565a4 4 0 0 0 1.748 1.748c.485.247 1.002.346 1.564.392C6.29 22 6.954 22 7.758 22h8.483c.805 0 1.47 0 2.01-.044.563-.046 1.08-.145 1.565-.392a4 4 0 0 0 1.748-1.748c.247-.485.346-1.002.392-1.564.044-.541.044-1.206.044-2.01v-.483c0-.805 0-1.47-.044-2.01-.046-.563-.145-1.08-.392-1.565a4 4 0 0 0-1.748-1.748c-.485-.247-1.002-.346-1.564-.392C17.71 10 17.046 10 16.242 10H8V8a4 4 0 0 1 7.92-.801 1 1 0 1 0 1.96-.398A6.002 6.002 0 0 0 12 2Z" clip-rule="evenodd"/>
</svg>
