<svg xmlns="http://www.w3.org/2000/svg" width="24" height="24" viewBox="0 0 24 24">
  <path d="M21 16.2V7.8c0-1.68 0-2.52-.327-3.162a3 3 0 0 0-1.311-1.311C18.72 3 17.88 3 16.2 3H10c-.93 0-1.395 0-1.776.102a3 3 0 0 0-2.122 2.122C6 5.605 6 6.07 6 7v9.2c0 1.68 0 2.52.327 3.162a3 3 0 0 0 1.311 1.311C8.28 21 9.12 21 10.8 21h5.4c1.68 0 2.52 0 3.162-.327a3 3 0 0 0 1.311-1.311C21 18.72 21 17.88 21 16.2Z" opacity=".2"/>
  <path fill-rule="evenodd" d="M9.862 2h6.379c.805 0 1.47 0 2.01.044.563.046 1.08.145 1.565.392a4 4 0 0 1 1.748 1.748c.247.485.346 1.002.392 1.564C22 6.29 22 6.954 22 7.758v8.483c0 .805 0 1.47-.044 2.01-.046.563-.145 1.08-.392 1.565a4 4 0 0 1-1.748 1.748c-.485.247-1.002.346-1.564.392-.541.044-1.206.044-2.01.044h-6.38c-.795 0-1.386 0-1.897-.136a4 4 0 0 1-2.829-2.829C5 18.524 5 17.933 5 17.138V17a1 1 0 1 1 2 0c0 .994.009 1.295.068 1.518a2 2 0 0 0 1.414 1.414c.223.06.524.068 1.518.068h6.2c.857 0 1.439 0 1.889-.038.438-.035.663-.1.819-.18a2 2 0 0 0 .874-.874c.08-.156.145-.38.18-.82.037-.45.038-1.031.038-1.888V7.8c0-.857 0-1.439-.038-1.889-.035-.438-.1-.663-.18-.819a2 2 0 0 0-.874-.874c-.156-.08-.38-.145-.819-.18C17.639 4 17.057 4 16.2 4H10c-.994 0-1.295.009-1.518.068a2 2 0 0 0-1.414 1.414C7.008 5.705 7 6.006 7 7a1 1 0 1 1-2 0v-.138c0-.795 0-1.386.136-1.897a4 4 0 0 1 2.829-2.829C8.476 2 9.067 2 9.862 2Zm1.43 5.293a1 1 0 0 1 1.415 0l4 4a1 1 0 0 1 0 1.414l-4 4a1 1 0 0 1-1.414-1.414L13.586 13H3a1 1 0 1 1 0-2h10.586l-2.293-2.293a1 1 0 0 1 0-1.414Z" clip-rule="evenodd"/>
</svg>
