<svg xmlns="http://www.w3.org/2000/svg" width="24" height="24" viewBox="0 0 24 24">
  <path d="M21 16.517V7.483c0-1.894 0-2.84-.383-3.524a3 3 0 0 0-1.509-1.32c-.728-.29-1.666-.165-3.542.086l-5.4.72c-1.476.196-2.214.295-2.77.646a3 3 0 0 0-1.121 1.28C6 5.97 6 6.715 6 8.204v7.595c0 1.489 0 2.233.275 2.83a3 3 0 0 0 1.121 1.28c.556.352 1.294.45 2.77.647l5.4.72c1.876.25 2.814.376 3.542.086a3 3 0 0 0 1.509-1.32c.383-.684.383-1.63.383-3.524Z" opacity=".2"/>
  <path fill-rule="evenodd" d="M17.815 3.478c-.508.024-1.162.11-2.117.238l-6.592.879c-.372.05-.484.066-.571.086A2 2 0 0 0 7.01 6.422C7.001 6.512 7 6.625 7 7a1 1 0 0 1-2 0v-.051c0-.302 0-.526.02-.73a4 4 0 0 1 3.05-3.483c.2-.048.422-.077.72-.117l.052-.007 6.635-.884c.901-.12 1.64-.22 2.244-.248.622-.029 1.203.01 1.757.23a4 4 0 0 1 2.011 1.76c.292.52.406 1.09.46 1.712C22 5.784 22 6.529 22 7.438v9.124c0 .909 0 1.654-.052 2.256-.053.621-.167 1.191-.459 1.712a4 4 0 0 1-2.011 1.76c-.554.22-1.135.259-1.757.23-.604-.029-1.343-.127-2.244-.247l-6.635-.885-.052-.007c-.298-.04-.52-.07-.72-.117a4 4 0 0 1-3.05-3.482c-.02-.205-.02-.43-.02-.73V17a1 1 0 1 1 2 0c0 .375.001.488.01.578a2 2 0 0 0 1.525 1.74c.087.021.2.038.57.087l6.593.88c.955.127 1.61.213 2.117.237.497.023.75-.021.924-.09a2 2 0 0 0 1.005-.88c.092-.164.17-.409.212-.905.043-.506.044-1.165.044-2.13V7.482c0-.964 0-1.623-.044-2.13-.043-.495-.12-.74-.212-.904a2 2 0 0 0-1.005-.88c-.174-.069-.427-.113-.924-.09Zm-6.522 3.815a1 1 0 0 1 1.414 0l4 4a1 1 0 0 1 0 1.414l-4 4a1 1 0 0 1-1.414-1.414L13.586 13H3a1 1 0 1 1 0-2h10.586l-2.293-2.293a1 1 0 0 1 0-1.414Z" clip-rule="evenodd"/>
</svg>
