<svg xmlns="http://www.w3.org/2000/svg" width="24" height="24" viewBox="0 0 24 24">
  <path d="M10.667 21C5.88 21 2 16.97 2 12s3.88-9 8.667-9c1.578 0 3.058.438 4.333 1.204v15.592A8.384 8.384 0 0 1 10.667 21Z" opacity=".2"/>
  <path fill-rule="evenodd" d="M1 12C1 6.513 5.293 2 10.667 2a9.38 9.38 0 0 1 4.848 1.347 1 1 0 1 1-1.03 1.714A7.383 7.383 0 0 0 10.667 4C6.467 4 3 7.546 3 12c0 4.454 3.468 8 7.667 8 1.39 0 2.693-.385 3.818-1.061a1 1 0 1 1 1.03 1.714A9.383 9.383 0 0 1 10.667 22C5.293 22 1 17.487 1 12Zm16.293-4.707a1 1 0 0 1 1.414 0l4 4a1 1 0 0 1 0 1.414l-4 4a1 1 0 0 1-1.414-1.414L19.586 13H9a1 1 0 1 1 0-2h10.586l-2.293-2.293a1 1 0 0 1 0-1.414Z" clip-rule="evenodd"/>
</svg>
