<svg xmlns="http://www.w3.org/2000/svg" width="24" height="24" viewBox="0 0 24 24">
  <path fill-rule="evenodd" d="M11.862 2a309.695 309.695 0 0 0 .276 0c.795 0 1.386 0 1.897.136a4 4 0 0 1 2.829 2.829c.082.307.115.643.128 1.035h.25c.804 0 1.469 0 2.01.044.562.046 1.079.145 1.564.392a4 4 0 0 1 1.748 1.748c.247.485.346 1.002.392 1.564.044.541.044 1.206.044 2.01v4.483c0 .805 0 1.47-.044 2.01-.046.563-.145 1.08-.392 1.565a4 4 0 0 1-1.748 1.748c-.485.247-1.002.346-1.564.392-.541.044-1.206.044-2.01.044H6.758c-.805 0-1.47 0-2.01-.044-.563-.046-1.08-.145-1.565-.392a4 4 0 0 1-1.748-1.748c-.247-.485-.346-1.002-.392-1.564C1 17.71 1 17.046 1 16.242v-4.483c0-.805 0-1.47.044-2.01.046-.563.145-1.08.392-1.565a4 4 0 0 1 1.748-1.748c.485-.247 1.002-.346 1.564-.392C5.29 6 5.954 6 6.758 6h.25c.013-.392.046-.728.128-1.035a4 4 0 0 1 2.829-2.829C10.476 2 11.067 2 11.862 2ZM6.8 8c-.857 0-1.439 0-1.889.038-.438.035-.663.1-.819.18a2 2 0 0 0-.874.874c-.08.156-.145.38-.18.819C3 10.361 3 10.943 3 11.8v4.4c0 .857 0 1.439.038 1.889.035.438.1.663.18.819a2 2 0 0 0 .874.874c.156.08.38.145.819.18C5.361 20 5.943 20 6.8 20h10.4c.857 0 1.439 0 1.889-.038.438-.035.663-.1.819-.18a2 2 0 0 0 .874-.874c.08-.156.145-.38.18-.82.037-.45.038-1.031.038-1.888v-4.4c0-.857 0-1.439-.038-1.889-.035-.438-.1-.663-.18-.819a2 2 0 0 0-.874-.874c-.156-.08-.38-.145-.819-.18C18.639 8 18.057 8 17.2 8H6.8Zm8.19-2H9.01c.01-.258.026-.399.058-.518a2 2 0 0 1 1.414-1.414C10.705 4.008 11.006 4 12 4s1.295.009 1.518.068a2 2 0 0 1 1.414 1.414c.032.12.049.26.058.518Zm-2.213 6.5h4.946c.12 0 .262 0 .387.01.145.012.353.042.571.154a1.5 1.5 0 0 1 .655.655c.112.218.142.426.154.571.01.125.01.268.01.387v2.446c0 .12 0 .262-.01.387a1.508 1.508 0 0 1-.153.571 1.5 1.5 0 0 1-.656.655 1.508 1.508 0 0 1-.571.154c-.125.01-.268.01-.387.01h-4.946c-.12 0-.261 0-.387-.01a1.508 1.508 0 0 1-.571-.153 1.5 1.5 0 0 1-.655-.656 1.508 1.508 0 0 1-.154-.571 4.923 4.923 0 0 1-.01-.387v-2.446c0-.12 0-.261.01-.387.012-.145.042-.353.154-.571a1.5 1.5 0 0 1 .655-.655c.218-.112.426-.142.571-.154.125-.01.268-.01.387-.01Zm.223 2v2h4.5v-2H13Z" clip-rule="evenodd"/>
</svg>
