<svg xmlns="http://www.w3.org/2000/svg" width="24" height="24" viewBox="0 0 24 24">
  <path fill-rule="evenodd" d="M15.01 1a1 1 0 0 1 1 1v1.5a1 1 0 0 1-2 0V2a1 1 0 0 1 1-1ZM9.243 3.293a1 1 0 0 1 1.414 0l1.06 1.06a1 1 0 0 1-1.414 1.415l-1.06-1.06a1 1 0 0 1 0-1.415Zm11.475 0a1 1 0 0 1 0 1.414l-1.061 1.06a1 1 0 1 1-1.414-1.413l1.06-1.061a1 1 0 0 1 1.415 0ZM19.51 9a1 1 0 0 1 1-1h1.5a1 1 0 0 1 0 2h-1.5a1 1 0 0 1-1-1Zm-1.267 3.293a1 1 0 0 1 1.414 0l1.06 1.06a1 1 0 0 1-1.414 1.415l-1.06-1.06a1 1 0 0 1 0-1.415Z" clip-rule="evenodd" opacity=".5"/>
  <path fill-rule="evenodd" d="M12.882 7.012a2 2 0 0 1 1.236 0c.29.094.512.254.687.402.159.135.332.31.51.488l.783.782c.179.178.353.352.488.511.148.175.308.397.402.687a2 2 0 0 1 0 1.236c-.094.29-.254.512-.402.687-.135.159-.31.332-.488.51l-2.39 2.392h-.002l-6.89 6.891a8.568 8.568 0 0 1-.512.488 2.022 2.022 0 0 1-.686.402 2 2 0 0 1-1.236 0 2.022 2.022 0 0 1-.686-.402c-.16-.135-.333-.31-.512-.488l-.76-.76-.022-.022a9.171 9.171 0 0 1-.488-.511 2.023 2.023 0 0 1-.402-.687 2 2 0 0 1 0-1.236c.094-.29.254-.512.402-.687.135-.159.31-.332.488-.511l6.89-6.89.001-.002 2.391-2.39c.179-.179.352-.353.511-.488.175-.148.397-.308.687-.402ZM10 12.414l-6.162 6.162A8.232 8.232 0 0 0 3.43 19a8.143 8.143 0 0 0 .408.424l.738.737c.21.21.325.324.414.4l.01.009.01-.009c.09-.076.205-.19.414-.4L11.586 14 10 12.414Zm3 .172L11.414 11l1.662-1.662a8.176 8.176 0 0 1 .424-.408 8.176 8.176 0 0 1 .424.408l.738.738c.21.21.323.325.4.414l.008.01-.009.01a8.14 8.14 0 0 1-.4.414L13 12.586Z" clip-rule="evenodd"/>
</svg>
