<svg xmlns="http://www.w3.org/2000/svg" width="24" height="24" viewBox="0 0 24 24">
  <path d="M3.131 20.131c-.396-.396-.594-.594-.668-.822a1 1 0 0 1 0-.618c.074-.228.272-.426.668-.822L10 11l3 3-6.869 6.869c-.396.396-.594.594-.822.668a1 1 0 0 1-.618 0c-.228-.074-.426-.272-.822-.668l-.738-.738Z" opacity=".2"/>
  <path fill-rule="evenodd" d="M15.01 1a1 1 0 0 1 1 1v1.5a1 1 0 1 1-2 0V2a1 1 0 0 1 1-1ZM9.243 3.293a1 1 0 0 1 1.414 0l1.06 1.06a1 1 0 1 1-1.414 1.415l-1.06-1.06a1 1 0 0 1 0-1.415Zm11.474 0a1 1 0 0 1 0 1.414l-1.06 1.06a1 1 0 1 1-1.414-1.413l1.06-1.061a1 1 0 0 1 1.414 0Zm-7.835 3.72a2 2 0 0 1 1.236 0c.29.093.512.253.687.401.159.135.332.31.51.488l.783.782c.179.179.353.352.488.512.148.174.308.396.402.686a2 2 0 0 1 0 1.236c-.094.29-.254.512-.402.687-.135.159-.31.332-.488.51l-2.39 2.391v.001h-.002l-6.89 6.891a9.19 9.19 0 0 1-.512.488 2.022 2.022 0 0 1-.686.402 2 2 0 0 1-1.236 0 2.022 2.022 0 0 1-.687-.402 9.187 9.187 0 0 1-.511-.488l-.023-.022-.737-.738-.022-.022a9.168 9.168 0 0 1-.488-.511 2.022 2.022 0 0 1-.402-.687 2 2 0 0 1 0-1.236c.094-.29.254-.512.402-.687.135-.159.31-.332.488-.51l6.89-6.892 2.392-2.391c.179-.179.352-.353.511-.488.175-.148.397-.308.687-.402ZM10 12.413l-6.162 6.162A8.176 8.176 0 0 0 3.43 19a8.176 8.176 0 0 0 .408.424l.738.737c.21.21.325.324.414.4l.01.009.01-.009c.09-.076.205-.19.414-.4L11.586 14 10 12.414Zm3 .172L11.414 11l1.662-1.662c.21-.21.325-.323.414-.4l.01-.008.01.009c.09.076.205.19.414.4l.738.737c.21.21.323.325.4.414l.008.01-.009.01a7.64 7.64 0 0 1-.4.414L13 12.586ZM19.51 9a1 1 0 0 1 1-1h1.5a1 1 0 1 1 0 2h-1.5a1 1 0 0 1-1-1Zm-1.267 3.293a1 1 0 0 1 1.414 0l1.06 1.06a1 1 0 1 1-1.414 1.415l-1.06-1.06a1 1 0 0 1 0-1.415Z" clip-rule="evenodd"/>
</svg>
