<svg xmlns="http://www.w3.org/2000/svg" width="24" height="24" viewBox="0 0 24 24">
  <path fill-rule="evenodd" d="M15 1a1 1 0 0 1 1 1v2a1 1 0 1 1-2 0V2a1 1 0 0 1 1-1Zm-4.707 3.293a1 1 0 0 1 1.414 0l1.2 1.2a1 1 0 0 1-1.414 1.414l-1.2-1.2a1 1 0 0 1 0-1.414Zm9.414 0a1 1 0 0 1 0 1.414l-1.2 1.2a1 1 0 1 1-1.414-1.414l1.2-1.2a1 1 0 0 1 1.414 0ZM7 9a1 1 0 0 1 1-1h2a1 1 0 1 1 0 2H8a1 1 0 0 1-1-1Zm12 0a1 1 0 0 1 1-1h2a1 1 0 1 1 0 2h-2a1 1 0 0 1-1-1Zm-1.907 2.093a1 1 0 0 1 1.414 0l1.2 1.2a1 1 0 0 1-1.414 1.414l-1.2-1.2a1 1 0 0 1 0-1.414Zm-4.386.2a1 1 0 0 1 0 1.414l-9 9a1 1 0 0 1-1.414-1.414l9-9a1 1 0 0 1 1.414 0ZM15 13a1 1 0 0 1 1 1v2a1 1 0 1 1-2 0v-2a1 1 0 0 1 1-1Z" clip-rule="evenodd"/>
</svg>
