<svg xmlns="http://www.w3.org/2000/svg" width="24" height="24" viewBox="0 0 24 24">
  <path fill-rule="evenodd" d="M11.315.965a3 3 0 0 1 1.37 0c.516.12.973.42 1.494.759l.11.071 7.528 4.893.056.037c.206.132.465.3.662.535a2 2 0 0 1 .377.695c.09.294.089.602.088.847v7.439c0 .805 0 1.47-.044 2.01-.046.563-.145 1.08-.392 1.565a4 4 0 0 1-1.748 1.748c-.485.247-1.002.346-1.564.392-.541.044-1.206.044-2.01.044H6.758c-.805 0-1.47 0-2.01-.044-.563-.046-1.08-.145-1.565-.392a4 4 0 0 1-1.748-1.748c-.247-.485-.346-1.002-.392-1.564C1 17.71 1 17.046 1 16.242V8.801c-.001-.245-.002-.553.088-.847a2 2 0 0 1 .377-.695c.197-.236.456-.403.662-.535l.056-.037 7.528-4.893.11-.071c.52-.34.978-.638 1.494-.76Zm.914 1.947a1 1 0 0 0-.457 0c-.13.03-.276.108-.971.56L3.273 8.365a6.5 6.5 0 0 0-.265.177l-.004.003v.005A6.492 6.492 0 0 0 3 8.868V16.2c0 .383 0 .712.004.998l5.469-4.94a1 1 0 0 1 1.34 1.484L3.561 19.39c.153.159.332.292.531.393.156.08.38.145.82.18C5.361 20 5.942 20 6.8 20h10.4c.857 0 1.439 0 1.889-.038.438-.035.663-.1.819-.18a1.96 1.96 0 0 0 .53-.393l-6.251-5.647a1 1 0 0 1 1.34-1.484l5.47 4.94A85.7 85.7 0 0 0 21 16.2V8.868a6.569 6.569 0 0 0-.004-.323l-.004-.003a6.55 6.55 0 0 0-.265-.177l-7.528-4.893c-.695-.452-.841-.53-.97-.56Z" clip-rule="evenodd" opacity=".5"/>
  <path d="M12 15.23c-.23 0-.46-.03-.69-.08-.51-.12-.92-.39-1.6-.83l-7.22-4.7c-.45-.3-.78-.51-.95-.93-.15-.36-.15-.79 0-1.16.17-.42.5-.63.94-.92l7.23-4.7c.68-.44 1.09-.71 1.6-.83.45-.11.92-.11 1.37 0 .51.12.92.39 1.6.83L21.5 6.6c.45.29.77.5.95.93.15.37.15.79 0 1.16-.18.43-.5.64-.96.93l-7.22 4.69c-.68.44-1.09.71-1.6.83-.22.05-.46.08-.69.08l.02.01ZM3.83 8.11l6.97 4.53c.48.31.8.52.97.56.15.04.31.04.46 0 .17-.04.49-.25.97-.56l6.97-4.53-6.97-4.53c-.48-.31-.8-.52-.97-.56a.897.897 0 0 0-.46 0c-.17.04-.49.25-.97.56L3.83 8.11Z"/>
</svg>
