<svg xmlns="http://www.w3.org/2000/svg" width="24" height="24" viewBox="0 0 24 24">
  <path d="M10.256 13.366 2 8l8.256-5.366c.631-.41.947-.616 1.287-.696a2 2 0 0 1 .914 0c.34.08.656.285 1.287.696L22 8l-8.256 5.366c-.631.41-.947.616-1.287.696-.3.07-.613.07-.914 0-.34-.08-.656-.285-1.287-.696Z" opacity=".2"/>
  <path fill-rule="evenodd" d="M11.315.965a3 3 0 0 1 1.37 0c.516.12.973.419 1.494.759l.11.071 7.25 4.712.052.035.226.146.056.036c.206.133.464.3.662.536a2 2 0 0 1 .377.695c.09.294.089.602.088.847v7.439c0 .805 0 1.47-.044 2.01-.046.563-.145 1.08-.392 1.565a4 4 0 0 1-1.748 1.748c-.485.247-1.002.346-1.564.392-.541.044-1.206.044-2.01.044H6.758c-.805 0-1.47 0-2.01-.044-.563-.046-1.08-.145-1.565-.392a4 4 0 0 1-1.748-1.748c-.247-.485-.346-1.002-.392-1.564C1 17.71 1 17.046 1 16.242V8.801c-.001-.245-.002-.553.088-.847a2 2 0 0 1 .377-.695c.197-.236.456-.403.662-.536l.056-.036.226-.146.052-.035.026-.016L9.71 1.795l.11-.071c.52-.34.978-.638 1.494-.76ZM10.8 3.472 3.835 8l6.966 4.528c.695.452.841.53.97.56a1 1 0 0 0 .457 0c.13-.03.276-.108.971-.56L20.165 8 13.2 3.472c-.695-.452-.841-.53-.97-.56a1 1 0 0 0-.457 0c-.13.03-.276.108-.971.56ZM21 9.842l-6.711 4.363-.11.071c-.52.34-.978.638-1.494.76-.45.105-.92.105-1.37 0-.516-.122-.973-.42-1.494-.76l-.11-.071L3 9.843V16.2c0 .857 0 1.439.038 1.889.035.438.1.663.18.819a2 2 0 0 0 .874.874c.156.08.38.145.819.18C5.361 20 5.943 20 6.8 20h10.4c.857 0 1.439 0 1.889-.038.438-.035.663-.1.819-.18a2 2 0 0 0 .874-.874c.08-.157.145-.38.18-.82.037-.45.038-1.032.038-1.888V9.843Z" clip-rule="evenodd"/>
</svg>
