<svg xmlns="http://www.w3.org/2000/svg" width="24" height="24" viewBox="0 0 24 24">
  <path d="M8.969 11c-.36 0-.54 0-.714-.031a2.003 2.003 0 0 1-.45-.136c-.162-.07-.312-.17-.611-.37L2 7a3 3 0 0 1 3-3h14a3 3 0 0 1 3 3l-5.194 3.463c-.3.2-.45.3-.611.37a2.003 2.003 0 0 1-.45.136c-.174.031-.354.031-.714.031H8.97Z" opacity=".2"/>
  <path fill-rule="evenodd" d="M6.759 3H17.24c.805 0 1.47 0 2.01.044.563.046 1.08.145 1.565.392a4 4 0 0 1 1.748 1.748c.239.468.339.966.387 1.505a.999.999 0 0 1 .03.5c.02.451.02.971.02 1.571v6.482c0 .805 0 1.47-.044 2.01-.046.563-.145 1.08-.392 1.565a4 4 0 0 1-1.748 1.748c-.485.247-1.002.346-1.564.392-.541.044-1.206.044-2.01.044H6.758c-.805 0-1.47 0-2.01-.044-.563-.046-1.08-.145-1.565-.392a4 4 0 0 1-1.748-1.748c-.247-.485-.346-1.002-.392-1.564C1 16.71 1 16.046 1 15.242V8.758c0-.599 0-1.12.018-1.57a.999.999 0 0 1 .031-.5c.048-.539.148-1.037.387-1.505a4 4 0 0 1 1.748-1.748c.485-.247 1.002-.346 1.564-.392C5.29 3 5.954 3 6.758 3ZM3 8.869V15.2c0 .857 0 1.439.038 1.889.035.438.1.663.18.819a2 2 0 0 0 .874.874c.156.08.38.145.819.18C5.361 19 5.943 19 6.8 19h10.4c.857 0 1.439 0 1.889-.038.438-.035.663-.1.819-.18a2 2 0 0 0 .874-.874c.08-.156.145-.38.18-.819.037-.45.038-1.032.038-1.889V8.869l-3.64 2.426-.05.033c-.25.167-.47.314-.715.421a2.994 2.994 0 0 1-.674.204c-.264.047-.529.047-.829.047H8.908c-.3 0-.565 0-.829-.047a2.994 2.994 0 0 1-.674-.204c-.245-.107-.465-.254-.715-.42l-.05-.034L3 8.869Zm17.915-2.347L16.252 9.63c-.329.218-.395.258-.457.285a.998.998 0 0 1-.225.068c-.067.012-.144.016-.539.016H8.97c-.395 0-.472-.004-.539-.016a1 1 0 0 1-.225-.068c-.062-.027-.128-.067-.456-.285L3.085 6.52c.036-.198.081-.328.133-.429a2 2 0 0 1 .874-.874c.156-.08.38-.145.819-.18C5.361 5 5.943 5 6.8 5h10.4c.857 0 1.439 0 1.889.038.438.035.663.1.819.18a2 2 0 0 1 .874.874 1.5 1.5 0 0 1 .133.43Z" clip-rule="evenodd"/>
</svg>
