<svg xmlns="http://www.w3.org/2000/svg" width="24" height="24" viewBox="0 0 24 24">
  <path fill-rule="evenodd" d="M11.315.965a3 3 0 0 1 1.37 0c.516.12.973.42 1.494.759l.11.071 6.226 4.047.066.043 1.236.803.056.037c.206.132.465.3.662.535a2 2 0 0 1 .377.695c.09.294.089.602.088.847v7.439c0 .805 0 1.47-.044 2.01-.046.563-.145 1.08-.392 1.565a4 4 0 0 1-1.748 1.748c-.485.247-1.002.346-1.564.392-.541.044-1.206.044-2.01.044H6.758c-.805 0-1.47 0-2.01-.044-.563-.046-1.08-.145-1.565-.392a4 4 0 0 1-1.748-1.748c-.247-.485-.346-1.002-.392-1.564C1 17.71 1 17.046 1 16.242V8.801c-.001-.245-.002-.553.088-.847a2 2 0 0 1 .377-.695c.197-.236.456-.403.662-.535l.056-.037 1.235-.803.067-.043.034-.022L9.71 1.795l.11-.071c.52-.34.978-.638 1.494-.76ZM10.8 3.472 4.609 7.497A11.038 11.038 0 0 0 3.872 8l.022.018c.143.112.355.251.715.485l6.192 4.025c.695.452.841.53.97.56a1 1 0 0 0 .457 0c.13-.03.276-.108.971-.56l6.192-4.025A11.05 11.05 0 0 0 20.128 8a10.82 10.82 0 0 0-.726-.496l-.01-.007-6.193-4.025c-.695-.452-.841-.53-.97-.56a1 1 0 0 0-.457 0c-.13.03-.276.108-.971.56ZM21 9.838c-.15.102-.314.209-.485.32l-4.252 2.764 4.733 4.276A85.7 85.7 0 0 0 21 16.2V9.838Zm-.561 9.551-5.911-5.34-.239.156-.11.071c-.52.34-.978.638-1.493.76-.451.105-.92.105-1.371 0-.516-.122-.973-.42-1.494-.76a29.6 29.6 0 0 0-.11-.071l-.239-.155-5.91 5.34c.152.158.331.29.53.392.156.08.38.145.82.18C5.361 20 5.942 20 6.8 20h10.4c.857 0 1.439 0 1.889-.038.438-.035.663-.1.819-.18a1.96 1.96 0 0 0 .53-.393ZM3.004 17.198l4.733-4.276-4.252-2.764A26.184 26.184 0 0 1 3 9.838V16.2c0 .383 0 .712.004.998Z" clip-rule="evenodd"/>
</svg>
