<svg xmlns="http://www.w3.org/2000/svg" width="24" height="24" viewBox="0 0 24 24">
  <path d="M13.835 12.715c-.661.463-.992.695-1.351.784a2 2 0 0 1-.968 0c-.36-.09-.69-.32-1.351-.784L2 7a3 3 0 0 1 3-3h14a3 3 0 0 1 3 3l-8.165 5.715Z" opacity=".2"/>
  <path fill-rule="evenodd" d="M6.759 3H17.24c.805 0 1.47 0 2.01.044.563.046 1.08.145 1.565.392a4 4 0 0 1 1.748 1.748c.239.468.339.966.387 1.505a.99.99 0 0 1 .03.5c.019.45.019.971.019 1.57v6.482c0 .805 0 1.47-.044 2.01-.046.563-.145 1.08-.392 1.565a4 4 0 0 1-1.748 1.748c-.485.247-1.002.346-1.564.392-.541.044-1.206.044-2.01.044H6.758c-.805 0-1.47 0-2.01-.044-.563-.046-1.08-.145-1.565-.392a4 4 0 0 1-1.748-1.748c-.247-.485-.346-1.002-.392-1.564C1 16.71 1 16.046 1 15.242V8.758c0-.599 0-1.12.018-1.57a1 1 0 0 1 .031-.5c.048-.54.148-1.037.387-1.505a4 4 0 0 1 1.748-1.748c.485-.247 1.002-.346 1.564-.392C5.29 3 5.954 3 6.758 3ZM3 8.92v6.28c0 .383 0 .712.004.998l4.537-4.099L3 8.921Zm6.698 2.248-6.615-4.63c.035-.208.082-.342.135-.446a2 2 0 0 1 .874-.874c.156-.08.38-.145.819-.18C5.361 5 5.943 5 6.8 5h10.4c.857 0 1.439 0 1.889.038.438.035.663.1.819.18a2 2 0 0 1 .874.874c.053.104.1.238.135.445l-6.615 4.631a.88.88 0 0 0-.035.024l-1.005.704c-.73.51-.884.599-1.02.633a1 1 0 0 1-.484 0c-.136-.034-.29-.123-1.02-.633l-1.005-.704a1.03 1.03 0 0 0-.035-.024Zm-.476 2.108-5.66 5.113a2 2 0 0 0 .53.393c.156.08.38.145.819.18C5.361 19 5.943 19 6.8 19h10.4c.857 0 1.439 0 1.889-.038.438-.035.663-.1.819-.18a1.96 1.96 0 0 0 .53-.393l-5.66-5.113-.37.259a42.26 42.26 0 0 0-.115.08c-.544.383-1.023.719-1.567.855a3 3 0 0 1-1.452 0c-.544-.136-1.022-.472-1.567-.854a42.326 42.326 0 0 0-.116-.081l-.369-.259Zm7.237-1.177 4.537 4.099C21 15.91 21 15.583 21 15.2V8.92l-4.541 3.18Z" clip-rule="evenodd"/>
</svg>
