<svg xmlns="http://www.w3.org/2000/svg" width="24" height="24" viewBox="0 0 24 24">
  <path fill-rule="evenodd" d="M6.759 3H17.24c.805 0 1.47 0 2.01.044.563.046 1.08.145 1.565.392a4 4 0 0 1 1.748 1.748c.247.485.346 1.002.392 1.564C23 7.29 23 7.954 23 8.758v6.483c0 .805 0 1.47-.044 2.01-.046.563-.145 1.08-.392 1.565a4 4 0 0 1-1.748 1.748c-.485.247-1.002.346-1.564.392-.541.044-1.206.044-2.01.044H6.758c-.805 0-1.47 0-2.01-.044-.563-.046-1.08-.145-1.565-.392a4 4 0 0 1-1.748-1.748c-.247-.485-.346-1.002-.392-1.564C1 16.71 1 16.046 1 15.242V8.758c0-.805 0-1.47.044-2.01.046-.563.145-1.08.392-1.565a4 4 0 0 1 1.748-1.748c.485-.247 1.002-.346 1.564-.392C5.29 3 5.954 3 6.758 3ZM4.91 5.038c-.438.035-.663.1-.819.18a2 2 0 0 0-.874.874c-.08.156-.145.38-.18.819C3 7.361 3 7.943 3 8.8v6.4c0 .857 0 1.439.038 1.889.035.438.1.663.18.819a2 2 0 0 0 .874.874c.156.08.38.145.819.18C5.361 19 5.943 19 6.8 19h10.4c.857 0 1.439 0 1.889-.038.438-.035.663-.1.819-.18a2 2 0 0 0 .874-.874c.08-.156.145-.38.18-.819.037-.45.038-1.032.038-1.889V8.8c0-.857 0-1.439-.038-1.889-.035-.438-.1-.663-.18-.819a2 2 0 0 0-.874-.874c-.156-.08-.38-.145-.819-.18C18.639 5 18.057 5 17.2 5H6.8c-.857 0-1.439 0-1.889.038Z" clip-rule="evenodd" opacity=".5"/>
  <path fill-rule="evenodd" d="M1 7a4 4 0 0 1 4-4h14a4 4 0 0 1 4 4 1 1 0 0 1-.445.832l-5.194 3.463-.05.033c-.25.167-.471.314-.716.421a2.994 2.994 0 0 1-.674.204c-.264.047-.529.047-.829.047H8.908c-.3 0-.565 0-.829-.047a2.994 2.994 0 0 1-.674-.204c-.245-.107-.465-.254-.715-.42l-.05-.034-5.195-3.463A1 1 0 0 1 1 7Zm2.062-.494L7.749 9.63c.328.218.394.258.456.285a1 1 0 0 0 .225.068c.067.012.144.016.539.016h6.062c.395 0 .472-.004.539-.016a.999.999 0 0 0 .224-.068c.063-.027.13-.067.457-.285l4.688-3.125A2 2 0 0 0 19 5H5a2 2 0 0 0-1.938 1.506Z" clip-rule="evenodd"/>
</svg>
