<svg xmlns="http://www.w3.org/2000/svg" width="24" height="24" viewBox="0 0 24 24">
  <path d="M10.256 13.366 2 8l8.256-5.367c.631-.41.947-.615 1.287-.695a2 2 0 0 1 .914 0c.34.08.656.285 1.287.695L22 8l-8.256 5.366c-.631.41-.947.616-1.287.696-.3.07-.613.07-.914 0-.34-.08-.656-.285-1.287-.696Z" opacity=".2"/>
  <path fill-rule="evenodd" d="M11.315.965a3 3 0 0 1 1.37 0c.516.12.973.42 1.494.759l.11.071 6.226 4.047.066.043 1.236.803.056.037c.206.132.464.3.662.535a2 2 0 0 1 .377.695c.09.294.089.602.088.847v7.439c0 .805 0 1.47-.044 2.01-.046.563-.145 1.08-.392 1.565a4 4 0 0 1-1.748 1.748c-.485.247-1.002.346-1.564.392-.541.044-1.206.044-2.01.044H6.758c-.805 0-1.47 0-2.01-.044-.563-.046-1.08-.145-1.565-.392a4 4 0 0 1-1.748-1.748c-.247-.485-.346-1.002-.392-1.564C1 17.71 1 17.046 1 16.242V8.801c-.001-.245-.002-.553.088-.847a2 2 0 0 1 .377-.695c.197-.236.456-.403.662-.535l.056-.037 1.235-.803.067-.043.034-.022L9.71 1.795l.11-.071c.52-.34.978-.638 1.494-.76ZM10.8 3.472 4.609 7.497A11.042 11.042 0 0 0 3.872 8l.022.018c.143.112.355.251.715.485l6.192 4.025c.695.452.841.53.97.56a1 1 0 0 0 .457 0c.13-.03.276-.108.971-.56l6.192-4.025A11.031 11.031 0 0 0 20.128 8a10.82 10.82 0 0 0-.726-.496l-.01-.007-6.193-4.025c-.695-.452-.841-.53-.97-.56a1 1 0 0 0-.457 0c-.13.03-.276.108-.971.56ZM21 9.838c-.15.102-.314.209-.485.32l-4.252 2.764 4.733 4.276C21 16.91 21 16.583 21 16.2V9.838Zm-.561 9.551-5.912-5.34-.238.156-.11.071c-.52.34-.978.638-1.494.76a3 3 0 0 1-1.37 0c-.516-.122-.973-.42-1.494-.76a31.377 31.377 0 0 0-.11-.071l-.239-.155-5.91 5.34a2 2 0 0 0 .53.392c.156.08.38.145.819.18C5.361 20 5.943 20 6.8 20h10.4c.857 0 1.439 0 1.889-.038.438-.035.663-.1.819-.18a1.96 1.96 0 0 0 .53-.393ZM3.004 17.198l4.733-4.276-4.252-2.764A27.745 27.745 0 0 1 3 9.838V16.2c0 .383 0 .712.004.998Z" clip-rule="evenodd"/>
</svg>
