<svg xmlns="http://www.w3.org/2000/svg" width="24" height="24" viewBox="0 0 24 24">
  <path fill-rule="evenodd" d="M9 1a1 1 0 0 1 1 1v16a1 1 0 1 1-2 0V2a1 1 0 0 1 1-1Zm7 4a1 1 0 0 1 1 1v16a1 1 0 1 1-2 0V6a1 1 0 0 1 1-1Z" clip-rule="evenodd" opacity=".5"/>
  <path fill-rule="evenodd" d="M22.472 1.118A1 1 0 0 1 23 2v16a1 1 0 0 1-.445.832l-6 4a1 1 0 0 1-1.051.036L9 19.152l-6.504 3.716A1 1 0 0 1 1 22V6a1 1 0 0 1 .504-.868l7-4a1 1 0 0 1 .992 0l6.463 3.693 5.486-3.657a1 1 0 0 1 1.027-.05ZM3 6.58v13.697l5.504-3.145a1 1 0 0 1 .992 0l6.463 3.693L21 17.465V3.869l-4.445 2.963a1 1 0 0 1-1.051.036L9 3.152 3 6.58Z" clip-rule="evenodd"/>
</svg>
