<svg xmlns="http://www.w3.org/2000/svg" width="24" height="24" viewBox="0 0 24 24">
  <path d="M5.748 2.044c.165-.013.247-.02.344-.009.274.031.558.202.713.43.055.08.094.17.172.351l3.748 8.746-7.539 4.159c-.39.215-.585.323-.745.304a.5.5 0 0 1-.347-.205C2 15.69 2 15.466 2 15.02V7.76c0-.805 0-1.47.044-2.01.046-.563.145-1.08.392-1.565a4 4 0 0 1 1.748-1.748c.486-.247 1.002-.346 1.564-.392Zm-2.705 16.04c-.336.186-.504.278-.636.462a1.23 1.23 0 0 0-.186.555c-.007.226.044.34.145.568a4 4 0 0 0 1.818 1.895c.486.247 1.002.346 1.564.392C6.29 22 6.954 22 7.758 22h6.227c.405 0 .607 0 .734-.085a.5.5 0 0 0 .212-.322c.029-.15-.051-.336-.21-.708l-3.205-7.476-8.473 4.675Zm15.209 3.872c-.165.013-.247.02-.344.009a1.051 1.051 0 0 1-.713-.43c-.055-.08-.093-.17-.17-.351L9.28 3.115c-.16-.372-.239-.558-.21-.708a.5.5 0 0 1 .212-.322C9.408 2 9.61 2 10.016 2h6.225c.806 0 1.47 0 2.011.044.562.046 1.079.145 1.564.392a4 4 0 0 1 1.748 1.748c.247.485.346 1.002.392 1.564C22 6.29 22 6.954 22 7.758v8.483c0 .805 0 1.47-.044 2.01-.046.563-.145 1.08-.392 1.565a4 4 0 0 1-1.748 1.748c-.485.247-1.002.346-1.564.392Z"/>
</svg>
