<svg xmlns="http://www.w3.org/2000/svg" width="24" height="24" viewBox="0 0 24 24">
  <path d="M3 7.8c0-1.68 0-2.52.327-3.162a3 3 0 0 1 1.311-1.311C5.28 3 6.12 3 7.8 3H8l8 18H7.8c-1.68 0-2.52 0-3.162-.327a3 3 0 0 1-1.311-1.311C3 18.72 3 17.88 3 16.2V7.8Z" opacity=".2"/>
  <path fill-rule="evenodd" d="M8.022 2h-.263c-.805 0-1.47 0-2.01.044-.563.046-1.08.145-1.565.392a4 4 0 0 0-1.748 1.748c-.247.485-.346 1.002-.392 1.564C2 6.29 2 6.954 2 7.758v8.483a122.034 122.034 0 0 0 .002.828c.004.447.014.84.042 1.183.046.562.145 1.079.392 1.564a4 4 0 0 0 1.748 1.748c.485.247 1.002.346 1.564.392C6.29 22 6.954 22 7.758 22h8.483c.805 0 1.47 0 2.01-.044.563-.046 1.08-.145 1.565-.392a4 4 0 0 0 1.748-1.748c.247-.485.346-1.002.392-1.564.044-.541.044-1.206.044-2.01V7.758c0-.805 0-1.47-.044-2.01-.046-.563-.145-1.08-.392-1.565a4 4 0 0 0-1.748-1.748c-.485-.247-1.002-.346-1.564-.392C17.71 2 17.046 2 16.242 2h-8.22Zm8.628 18a19.299 19.299 0 0 0 1.439-.038c.438-.035.663-.1.819-.18a2 2 0 0 0 .874-.874c.08-.156.145-.38.18-.819.037-.45.038-1.032.038-1.889V7.8c0-.857 0-1.439-.038-1.889-.035-.438-.1-.663-.18-.819a2 2 0 0 0-.874-.874c-.156-.08-.38-.145-.819-.18C17.639 4 17.057 4 16.2 4H9.539l3.37 7.585a.906.906 0 0 1 .01.02L16.649 20Zm-2.189 0-2.93-6.595-7.52 4.177c.006.188.014.355.027.507.035.438.1.663.18.819a2 2 0 0 0 .874.874c.156.08.38.145.819.18C6.361 20 6.943 20 7.8 20h6.661ZM4 15.3V7.8c0-.857 0-1.439.038-1.889.035-.438.1-.663.18-.819a2 2 0 0 1 .874-.874c.156-.08.38-.145.819-.18.367-.03.82-.036 1.44-.038l3.364 7.57L4 15.3Z" clip-rule="evenodd"/>
</svg>
