<svg xmlns="http://www.w3.org/2000/svg" width="24" height="24" viewBox="0 0 24 24">
  <path d="m9 18 7 4V6L9 2v16Z" opacity=".2"/>
  <path fill-rule="evenodd" d="M22.472 1.118A1 1 0 0 1 23 2v16a1 1 0 0 1-.445.832l-6 4a1 1 0 0 1-1.051.036L9 19.152l-6.504 3.716A1 1 0 0 1 1 22V6a1 1 0 0 1 .504-.868l7-4a1 1 0 0 1 .992 0l6.463 3.693 5.486-3.657a1 1 0 0 1 1.027-.05ZM15 6.58l-5-2.857V17.42l5 2.857V6.58Zm2 13.551 4-2.666V3.869l-4 2.666v13.596ZM8 17.42V3.723L3 6.58v13.697l5-2.857Z" clip-rule="evenodd"/>
</svg>
