<svg xmlns="http://www.w3.org/2000/svg" width="24" height="24" viewBox="0 0 24 24">
  <path fill-rule="evenodd" d="M4.5 3a1.5 1.5 0 1 0 0 3 1.5 1.5 0 0 0 0-3ZM1 4.5A3.5 3.5 0 0 1 7.965 4h8.07A3.5 3.5 0 1 1 20 7.965v8.07A3.501 3.501 0 1 1 16.035 20h-8.07A3.5 3.5 0 1 1 4 16.035v-8.07A3.5 3.5 0 0 1 1 4.5Zm5 3.163v2.923L10.586 6H7.663A3.514 3.514 0 0 1 6 7.663ZM13.414 6 6 13.414v2.923c.056.026.11.054.165.084L16.421 6.165A3.515 3.515 0 0 1 16.337 6h-2.923Zm4.42 1.58L7.58 17.834c.03.054.058.11.084.165h2.923L18 10.586V7.663a3.472 3.472 0 0 1-.165-.084ZM18 13.413 13.414 18h2.923A3.515 3.515 0 0 1 18 16.337v-2.923ZM19.5 3a1.5 1.5 0 1 0 0 3 1.5 1.5 0 0 0 0-3Zm-15 15a1.5 1.5 0 1 0 0 3 1.5 1.5 0 0 0 0-3Zm15 0a1.5 1.5 0 1 0 0 3 1.5 1.5 0 0 0 0-3Z" clip-rule="evenodd"/>
</svg>
