<svg xmlns="http://www.w3.org/2000/svg" width="24" height="24" viewBox="0 0 24 24">
  <path fill-rule="evenodd" d="M18.732 2.134a3 3 0 0 0-4.098 1.098l-5.5 9.526a1 1 0 0 0-.1.76l.732 2.731a1 1 0 0 0 1.225.707l2.732-.732a1 1 0 0 0 .607-.466l5.5-9.526a3 3 0 0 0-1.098-4.098Zm-2.366 2.098a1 1 0 0 1 1.732 1L12.805 14.4l-1.366.366-.366-1.366 5.293-9.168Z" clip-rule="evenodd"/>
  <path d="M5 11a1 1 0 0 0-.949.684l-3 9A1 1 0 0 0 2 22h20a1 1 0 0 0 .949-1.316l-3-9A1 1 0 0 0 19 11h-.5a1 1 0 0 0-.23 1.973L20.613 20H3.387l2.334-7H7.5a1 1 0 1 0 0-2H5Z"/>
</svg>
