<svg xmlns="http://www.w3.org/2000/svg" width="24" height="24" viewBox="0 0 24 24">
  <path fill-rule="evenodd" d="M12 3a5 5 0 0 0-5 5c0 1.622.881 2.876 2.159 4.206.305.318.622.63.949.951l.036.036c.335.33.681.67 1.011 1.018.29.306.577.626.845.964.268-.338.555-.659.845-.964.33-.348.676-.688 1.011-1.018l.036-.036c.327-.321.644-.633.95-.95C16.118 10.874 17 9.621 17 8a5 5 0 0 0-5-5ZM5 8a7 7 0 0 1 14 0c0 2.442-1.369 4.188-2.716 5.591-.326.34-.661.67-.983.986l-.042.041c-.338.333-.66.65-.963.97-.61.643-1.093 1.241-1.402 1.86a1 1 0 0 1-1.788 0c-.31-.619-.792-1.218-1.402-1.86-.302-.32-.625-.637-.963-.97l-.042-.042a48.696 48.696 0 0 1-.983-.985C6.37 12.188 5 10.441 5 8Zm5 0a2 2 0 1 1 4 0 2 2 0 0 1-4 0Zm-5.757 4.03a1 1 0 0 1 .727 1.213L3.28 20h17.44l-1.69-6.758a1 1 0 1 1 1.94-.485l2 8A1 1 0 0 1 22 22H2a1 1 0 0 1-.97-1.242l2-8a1 1 0 0 1 1.213-.728Z" clip-rule="evenodd"/>
</svg>
