<svg xmlns="http://www.w3.org/2000/svg" width="24" height="24" viewBox="0 0 24 24">
  <path d="M12 15a3 3 0 1 0 0-6 3 3 0 0 0 0 6Z" opacity=".2"/>
  <path fill-rule="evenodd" d="M12 1a1 1 0 0 1 1 1v1.055A9.004 9.004 0 0 1 20.945 11H22a1 1 0 1 1 0 2h-1.055A9.004 9.004 0 0 1 13 20.945V22a1 1 0 1 1-2 0v-1.055A9.004 9.004 0 0 1 3.055 13H2a1 1 0 1 1 0-2h1.055A9.004 9.004 0 0 1 11 3.055V2a1 1 0 0 1 1-1Zm0 4a7 7 0 1 0 0 14 7 7 0 0 0 0-14Zm0 5a2 2 0 1 0 0 4 2 2 0 0 0 0-4Zm-4 2a4 4 0 1 1 8 0 4 4 0 0 1-8 0Z" clip-rule="evenodd"/>
</svg>
