<svg xmlns="http://www.w3.org/2000/svg" width="24" height="24" viewBox="0 0 24 24">
  <path d="M12 17c1.5-3 6-4.936 6-9A6 6 0 0 0 6 8c0 4.064 4.5 6 6 9Z" opacity=".2"/>
  <path fill-rule="evenodd" d="M12 3a5 5 0 0 0-5 5c0 1.622.881 2.876 2.159 4.206.305.318.622.63.949.951l.036.036c.335.33.681.67 1.011 1.018.29.306.577.626.845.964.268-.338.555-.659.845-.964.33-.348.676-.688 1.011-1.018l.036-.036c.327-.321.644-.633.95-.95C16.118 10.874 17 9.621 17 8a5 5 0 0 0-5-5ZM5 8a7 7 0 0 1 14 0c0 2.442-1.369 4.188-2.716 5.591-.326.34-.661.67-.983.986l-.042.041c-.338.333-.66.65-.963.97-.61.643-1.093 1.241-1.402 1.86a1 1 0 0 1-1.788 0c-.31-.619-.792-1.218-1.402-1.86-.302-.32-.625-.637-.963-.97l-.042-.042a48.696 48.696 0 0 1-.983-.985C6.37 12.188 5 10.441 5 8Zm5 0a2 2 0 1 1 4 0 2 2 0 0 1-4 0Zm-4.085 5.883a1 1 0 0 1-.511 1.318c-.849.375-1.475.797-1.874 1.216-.396.415-.53.78-.53 1.083 0 .604.592 1.484 2.34 2.27C6.991 20.514 9.345 21 12 21c2.653 0 5.008-.486 6.66-1.23 1.748-.786 2.34-1.666 2.34-2.27 0-.304-.134-.668-.53-1.083-.4-.42-1.025-.841-1.874-1.216a1 1 0 0 1 .808-1.83c1.003.443 1.877.998 2.514 1.666C22.56 15.711 23 16.545 23 17.5c0 1.881-1.646 3.251-3.519 4.094C17.515 22.479 14.87 23 12 23s-5.515-.521-7.481-1.406C2.646 20.75 1 19.38 1 17.5c0-.955.44-1.79 1.082-2.463.637-.668 1.511-1.223 2.514-1.666a1 1 0 0 1 1.319.512Z" clip-rule="evenodd"/>
</svg>
