<svg xmlns="http://www.w3.org/2000/svg" width="24" height="24" viewBox="0 0 24 24">
  <path d="M12 9a3 3 0 1 0 0-6 3 3 0 0 0 0 6Z" opacity=".2"/>
  <path fill-rule="evenodd" d="M12 4a2 2 0 1 0 0 4 2 2 0 0 0 0-4ZM8 6a4 4 0 1 1 5 3.874V17a1 1 0 1 1-2 0V9.874A4.002 4.002 0 0 1 8 6Zm.981 7.181a1 1 0 0 1-.788 1.175c-1.682.33-3.044.862-3.958 1.479C3.298 16.466 3 17.06 3 17.5c0 .604.592 1.484 2.34 2.27C6.991 20.514 9.345 21 12 21c2.653 0 5.008-.486 6.66-1.23 1.748-.786 2.34-1.666 2.34-2.27 0-.44-.298-1.034-1.235-1.665-.914-.617-2.276-1.149-3.958-1.48a1 1 0 0 1 .386-1.962c1.85.364 3.488.972 4.69 1.784C22.065 14.973 23 16.095 23 17.5c0 1.881-1.646 3.251-3.519 4.094C17.515 22.479 14.87 23 12 23s-5.515-.521-7.481-1.406C2.646 20.75 1 19.38 1 17.5c0-1.405.936-2.527 2.116-3.323 1.203-.812 2.84-1.42 4.691-1.784a1 1 0 0 1 1.174.788Z" clip-rule="evenodd"/>
</svg>
