<svg xmlns="http://www.w3.org/2000/svg" width="24" height="24" viewBox="0 0 24 24">
  <path d="M12 12.5a3 3 0 1 0 0-6 3 3 0 0 0 0 6Z" opacity=".2"/>
  <path fill-rule="evenodd" d="M12 3a7 7 0 0 0-7 7c0 2.3 1.256 4.053 2.971 5.84.41.427.836.845 1.271 1.273l.05.048c.447.44.904.891 1.34 1.35.48.506.949 1.038 1.368 1.604.419-.566.888-1.098 1.368-1.604.436-.459.893-.91 1.34-1.35l.05-.048c.435-.428.86-.846 1.27-1.274C17.745 14.053 19 12.3 19 10a7 7 0 0 0-7-7Zm-9 7a9 9 0 0 1 18 0c0 3.12-1.744 5.366-3.529 7.224-.43.449-.875.886-1.304 1.308l-.056.055c-.45.443-.884.87-1.292 1.3-.82.866-1.49 1.692-1.925 2.56a1 1 0 0 1-1.788 0c-.434-.868-1.104-1.694-1.925-2.56-.408-.43-.842-.857-1.292-1.3l-.056-.055a59.65 59.65 0 0 1-1.304-1.308C4.744 15.366 3 13.12 3 10Zm9-2.5a2 2 0 1 0 0 4 2 2 0 0 0 0-4Zm-4 2a4 4 0 1 1 8 0 4 4 0 0 1-8 0Z" clip-rule="evenodd"/>
</svg>
