<svg xmlns="http://www.w3.org/2000/svg" width="24" height="24" viewBox="0 0 24 24">
  <path fill-rule="evenodd" d="M12 3a7 7 0 0 0-7 7c0 2.74 1.44 4.232 3.268 5.766.191.16.39.323.593.489 1.083.885 2.288 1.871 3.139 3.177.85-1.306 2.056-2.292 3.139-3.177.203-.166.402-.329.593-.49C17.561 14.233 19 12.74 19 10a7 7 0 0 0-7-7Zm-9 7a9 9 0 0 1 18 0c0 3.678-2.06 5.686-3.982 7.298l-.597.496c-1.72 1.424-3.068 2.54-3.44 4.402a1 1 0 0 1-1.962 0c-.372-1.863-1.72-2.978-3.44-4.402-.194-.16-.394-.326-.597-.496C5.061 15.686 3 13.678 3 10Zm9-2a2 2 0 1 0 0 4 2 2 0 0 0 0-4Zm-4 2a4 4 0 1 1 8 0 4 4 0 0 1-8 0Z" clip-rule="evenodd"/>
</svg>
