<svg xmlns="http://www.w3.org/2000/svg" width="24" height="24" viewBox="0 0 24 24">
  <path fill-rule="evenodd" d="m15.808 19.227 4.702 2.645a1 1 0 0 0 .98-1.744l-4.7-2.644A12.952 12.952 0 0 0 18 12c0-1.96-.434-3.818-1.21-5.484l4.7-2.644a1 1 0 0 0-.98-1.744l-4.702 2.645a13.062 13.062 0 0 0-2.141-2.463 1 1 0 1 0-1.334 1.49 11.04 11.04 0 0 1 1.725 1.957L7.433 9.484a3.5 3.5 0 1 0 0 5.032l6.625 3.727a11.07 11.07 0 0 1-1.725 1.956 1 1 0 1 0 1.334 1.49 13.065 13.065 0 0 0 2.14-2.462ZM8.5 12c0-.266-.03-.524-.086-.773L15.041 7.5A10.96 10.96 0 0 1 16 12a10.96 10.96 0 0 1-.96 4.5l-6.626-3.727c.056-.249.086-.507.086-.773ZM5 10.5a1.5 1.5 0 1 0 0 3 1.5 1.5 0 0 0 0-3Z" clip-rule="evenodd"/>
</svg>
