<svg xmlns="http://www.w3.org/2000/svg" width="24" height="24" viewBox="0 0 24 24">
  <path d="M13.833 7.3c0-.28 0-.42-.054-.527a.5.5 0 0 0-.219-.218c-.107-.055-.247-.055-.527-.055h-2.066c-.28 0-.42 0-.527.054a.5.5 0 0 0-.219.219c-.054.107-.054.247-.054.527v2.067c0 .28 0 .42-.055.527a.5.5 0 0 1-.218.218c-.107.055-.247.055-.527.055H7.3c-.28 0-.42 0-.527.054a.5.5 0 0 0-.218.219c-.055.107-.055.247-.055.527v2.066c0 .28 0 .42.054.527a.5.5 0 0 0 .219.219c.107.054.247.054.527.054h2.067c.28 0 .42 0 .527.055a.5.5 0 0 1 .218.218c.055.107.055.247.055.527V16.7c0 .28 0 .42.054.527a.5.5 0 0 0 .219.218c.107.055.247.055.527.055h2.066c.28 0 .42 0 .527-.055a.5.5 0 0 0 .219-.218c.054-.107.054-.247.054-.527v-2.067c0-.28 0-.42.055-.527a.501.501 0 0 1 .218-.218c.107-.055.247-.055.527-.055H16.7c.28 0 .42 0 .527-.054a.5.5 0 0 0 .218-.219c.055-.107.055-.247.055-.527v-2.066c0-.28 0-.42-.055-.527a.5.5 0 0 0-.218-.219c-.107-.054-.247-.054-.527-.054h-2.067c-.28 0-.42 0-.527-.055a.501.501 0 0 1-.218-.218c-.055-.107-.055-.247-.055-.527V7.3Z" opacity=".2"/>
  <path fill-rule="evenodd" d="M7.759 2h8.482c.805 0 1.47 0 2.01.044.563.046 1.08.145 1.565.392a4 4 0 0 1 1.748 1.748c.247.485.346 1.002.392 1.564C22 6.29 22 6.954 22 7.758v8.483c0 .805 0 1.47-.044 2.01-.046.563-.145 1.08-.392 1.565a4 4 0 0 1-1.748 1.748c-.485.247-1.002.346-1.564.392-.541.044-1.206.044-2.01.044H7.758c-.805 0-1.47 0-2.01-.044-.563-.046-1.08-.145-1.565-.392a4 4 0 0 1-1.748-1.748c-.247-.485-.346-1.002-.392-1.564C2 17.71 2 17.046 2 16.242V7.758c0-.805 0-1.47.044-2.01.046-.563.145-1.08.392-1.565a4 4 0 0 1 1.748-1.748c.485-.247 1.002-.346 1.564-.392C6.29 2 6.954 2 7.758 2ZM5.91 4.038c-.438.035-.663.1-.819.18a2 2 0 0 0-.874.874c-.08.156-.145.38-.18.819C4 6.361 4 6.943 4 7.8v8.4c0 .857 0 1.439.038 1.889.035.438.1.663.18.819a2 2 0 0 0 .874.874c.156.08.38.145.819.18C6.361 20 6.943 20 7.8 20h8.4c.857 0 1.439 0 1.889-.038.438-.035.663-.1.819-.18a2 2 0 0 0 .874-.874c.08-.156.145-.38.18-.819.037-.45.038-1.032.038-1.889V7.8c0-.857 0-1.439-.038-1.889-.035-.438-.1-.663-.18-.819a2 2 0 0 0-.874-.874c-.156-.08-.38-.145-.819-.18C17.639 4 17.057 4 16.2 4H7.8c-.857 0-1.439 0-1.889.038ZM10.944 5.5h2.113c.119 0 .26 0 .386.01.145.012.353.042.571.153a1.5 1.5 0 0 1 .656.656c.11.218.141.426.153.571.01.125.01.268.01.387v1.89h1.89c.12 0 .262 0 .387.01.145.012.353.042.571.153a1.5 1.5 0 0 1 .655.656c.112.218.142.426.154.57.01.126.01.268.01.388v2.113c0 .119 0 .26-.01.386a1.507 1.507 0 0 1-.153.571 1.5 1.5 0 0 1-.656.656 1.508 1.508 0 0 1-.571.153c-.125.01-.268.01-.387.01h-1.89v1.89c0 .12 0 .262-.01.387a1.508 1.508 0 0 1-.153.571 1.5 1.5 0 0 1-.656.655 1.507 1.507 0 0 1-.57.154c-.126.01-.268.01-.388.01h-2.113c-.119 0-.26 0-.386-.01a1.507 1.507 0 0 1-.571-.153 1.5 1.5 0 0 1-.656-.656 1.508 1.508 0 0 1-.153-.571c-.01-.125-.01-.268-.01-.387v-1.89h-1.89c-.12 0-.262 0-.387-.01a1.508 1.508 0 0 1-.571-.153 1.5 1.5 0 0 1-.656-.656 1.508 1.508 0 0 1-.153-.57c-.01-.126-.01-.268-.01-.388v-2.113c0-.119 0-.26.01-.386a1.51 1.51 0 0 1 .153-.571 1.5 1.5 0 0 1 .656-.656 1.53 1.53 0 0 1 .571-.153c.125-.01.268-.01.387-.01h1.89v-1.89c0-.12 0-.262.01-.387a1.51 1.51 0 0 1 .153-.571 1.5 1.5 0 0 1 .656-.656 1.53 1.53 0 0 1 .57-.153c.126-.01.268-.01.388-.01Zm.223 2v1.89c0 .119 0 .261-.01.386a1.508 1.508 0 0 1-.154.572 1.5 1.5 0 0 1-.655.655 1.508 1.508 0 0 1-.572.153c-.125.01-.267.01-.386.01H7.5v1.667h1.89c.119 0 .261 0 .386.01.146.012.354.043.572.154a1.5 1.5 0 0 1 .655.655c.111.218.142.426.153.572.01.125.01.267.01.386v1.89h1.667v-1.89c0-.119 0-.261.01-.386.012-.146.043-.354.154-.572a1.5 1.5 0 0 1 .655-.655c.218-.111.426-.142.572-.153.125-.01.267-.01.386-.01h1.89v-1.667h-1.89c-.119 0-.261 0-.386-.01a1.508 1.508 0 0 1-.572-.154 1.5 1.5 0 0 1-.655-.655 1.508 1.508 0 0 1-.153-.572c-.01-.125-.01-.267-.01-.386V7.5h-1.667Z" clip-rule="evenodd"/>
</svg>
