<svg xmlns="http://www.w3.org/2000/svg" width="24" height="24" viewBox="0 0 24 24">
  <path fill-rule="evenodd" d="M12 3a9 9 0 1 0 0 18 9 9 0 0 0 0-18ZM1 12C1 5.925 5.925 1 12 1s11 4.925 11 11-4.925 11-11 11S1 18.075 1 12Z" clip-rule="evenodd" opacity=".5"/>
  <path fill-rule="evenodd" d="M10.944 5.5h2.113c.119 0 .26 0 .386.01.145.012.353.042.571.154a1.5 1.5 0 0 1 .656.655c.11.218.141.426.153.571.01.126.01.268.01.387v1.89h1.89c.12 0 .262 0 .387.01.145.012.353.042.571.153a1.5 1.5 0 0 1 .655.656c.112.218.142.426.154.57.01.126.01.268.01.388v2.113c0 .119 0 .26-.01.386a1.507 1.507 0 0 1-.153.571 1.5 1.5 0 0 1-.656.656 1.509 1.509 0 0 1-.571.153c-.125.01-.268.01-.387.01h-1.89v1.89c0 .12 0 .262-.01.387a1.509 1.509 0 0 1-.153.571 1.5 1.5 0 0 1-.656.655 1.507 1.507 0 0 1-.57.154c-.126.01-.268.01-.388.01h-2.112c-.12 0-.262 0-.387-.01a1.507 1.507 0 0 1-.571-.153 1.5 1.5 0 0 1-.656-.656 1.507 1.507 0 0 1-.153-.571c-.01-.125-.01-.268-.01-.387v-1.89h-1.89c-.12 0-.261 0-.387-.01a1.509 1.509 0 0 1-.571-.153 1.5 1.5 0 0 1-.655-.656 1.507 1.507 0 0 1-.154-.57 4.928 4.928 0 0 1-.01-.388v-2.113c0-.119 0-.26.01-.386.012-.145.042-.353.154-.571a1.5 1.5 0 0 1 .655-.656 1.53 1.53 0 0 1 .571-.153c.126-.01.268-.01.387-.01h1.89v-1.89c0-.12 0-.261.01-.387a1.51 1.51 0 0 1 .153-.571 1.5 1.5 0 0 1 .656-.655c.218-.112.426-.142.57-.154.126-.01.268-.01.388-.01Zm.223 2v1.89c0 .119 0 .261-.01.387a1.508 1.508 0 0 1-.154.57 1.5 1.5 0 0 1-.655.656 1.508 1.508 0 0 1-.571.153c-.126.01-.268.01-.387.01H7.5v1.667h1.89c.119 0 .261 0 .387.01.145.012.353.043.57.154a1.5 1.5 0 0 1 .656.655c.111.218.142.426.153.572.01.125.01.267.01.386v1.89h1.667v-1.89c0-.119 0-.261.01-.386.012-.146.043-.354.154-.572a1.5 1.5 0 0 1 .655-.655c.218-.111.426-.142.572-.153.125-.01.267-.01.386-.01h1.89v-1.667h-1.89c-.119 0-.261 0-.386-.01a1.507 1.507 0 0 1-.572-.154 1.5 1.5 0 0 1-.655-.655 1.508 1.508 0 0 1-.153-.571c-.01-.126-.01-.268-.01-.387V7.5h-1.667Z" clip-rule="evenodd"/>
</svg>
