<svg xmlns="http://www.w3.org/2000/svg" width="24" height="24" viewBox="0 0 24 24">
  <path fill-rule="evenodd" d="M10.568 2h2.864c.252 0 .498 0 .706.017.229.019.499.063.77.201a2 2 0 0 1 .874.874c.138.271.182.541.201.77.017.208.017.454.017.706V7.4a8.205 8.205 0 0 0 .012.589h.013c.116.01.279.011.575.011h2.832c.252 0 .498 0 .706.017.229.019.499.063.77.201a2 2 0 0 1 .874.874c.138.271.182.541.201.77.017.208.017.454.017.706v2.864c0 .252 0 .498-.017.706a2.022 2.022 0 0 1-.201.77 2 2 0 0 1-.874.874 2.022 2.022 0 0 1-.77.201c-.208.017-.454.017-.706.017H16.6a8.207 8.207 0 0 0-.588.012l-.002.013c-.01.116-.01.279-.01.575v2.832c0 .252 0 .498-.017.706a2.022 2.022 0 0 1-.201.77 2 2 0 0 1-.874.874 2.022 2.022 0 0 1-.77.201c-.208.017-.454.017-.706.017h-2.864c-.252 0-.498 0-.706-.017a2.022 2.022 0 0 1-.77-.201 2 2 0 0 1-.874-.874 2.022 2.022 0 0 1-.201-.77C8 19.93 8 19.684 8 19.432V16.6a8.185 8.185 0 0 0-.011-.588l-.014-.002A8.205 8.205 0 0 0 7.4 16H4.568c-.252 0-.498 0-.706-.017a2.022 2.022 0 0 1-.77-.201 2 2 0 0 1-.874-.874 2.022 2.022 0 0 1-.201-.77C2 13.93 2 13.684 2 13.432v-2.864c0-.252 0-.498.017-.706a2.03 2.03 0 0 1 .201-.77 2 2 0 0 1 .874-.874 2.03 2.03 0 0 1 .77-.201C4.07 8 4.316 8 4.568 8H7.4a8.186 8.186 0 0 0 .589-.011v-.014C8 7.86 8 7.697 8 7.4V4.568c0-.252 0-.498.017-.706a2.03 2.03 0 0 1 .201-.77 2 2 0 0 1 .874-.874 2.03 2.03 0 0 1 .77-.201C10.07 2 10.316 2 10.568 2Zm-.556 2.011-.002.014C10 4.14 10 4.303 10 4.6v2.832c0 .252 0 .498-.017.706a2.022 2.022 0 0 1-.201.77 2 2 0 0 1-.874.874 2.022 2.022 0 0 1-.77.201C7.93 10 7.684 10 7.432 10H4.6a8.205 8.205 0 0 0-.589.011v.014C4 10.14 4 10.303 4 10.6v2.8a8.187 8.187 0 0 0 .011.589h.014c.116.01.278.011.575.011h2.832c.252 0 .498 0 .706.017.229.019.499.063.77.201a2 2 0 0 1 .874.874c.138.271.182.541.201.77.017.208.017.454.017.706V19.4a8.207 8.207 0 0 0 .011.588l.014.002c.116.01.278.01.575.01h2.8a8.207 8.207 0 0 0 .589-.012v-.013c.01-.116.011-.279.011-.575v-2.832c0-.252 0-.498.017-.706a2.03 2.03 0 0 1 .201-.77 2 2 0 0 1 .874-.874 2.03 2.03 0 0 1 .77-.201c.208-.017.454-.017.706-.017H19.4a8.207 8.207 0 0 0 .589-.011v-.014c.01-.116.011-.278.011-.575v-2.8a8.207 8.207 0 0 0-.012-.588l-.013-.002A8.207 8.207 0 0 0 19.4 10h-2.832c-.252 0-.498 0-.706-.017a2.022 2.022 0 0 1-.77-.201 2 2 0 0 1-.874-.874 2.022 2.022 0 0 1-.201-.77C14 7.93 14 7.684 14 7.432V4.6c0-.297 0-.459-.01-.575l-.001-.014A8.187 8.187 0 0 0 13.4 4h-2.8a8.187 8.187 0 0 0-.588.011Z" clip-rule="evenodd"/>
</svg>
