<svg xmlns="http://www.w3.org/2000/svg" width="24" height="24" viewBox="0 0 24 24">
  <path d="M13.833 7.3c0-.28 0-.42-.054-.527a.5.5 0 0 0-.219-.218c-.107-.055-.247-.055-.527-.055h-2.066c-.28 0-.42 0-.527.054a.5.5 0 0 0-.219.219c-.054.107-.054.247-.054.527v2.067c0 .28 0 .42-.055.527a.5.5 0 0 1-.218.218c-.107.055-.247.055-.527.055H7.3c-.28 0-.42 0-.527.054a.5.5 0 0 0-.218.219c-.055.107-.055.247-.055.527v2.066c0 .28 0 .42.054.527a.5.5 0 0 0 .219.219c.107.054.247.054.527.054h2.067c.28 0 .42 0 .527.055a.5.5 0 0 1 .218.218c.055.107.055.247.055.527V16.7c0 .28 0 .42.054.527a.5.5 0 0 0 .219.218c.107.055.247.055.527.055h2.066c.28 0 .42 0 .527-.055a.5.5 0 0 0 .219-.218c.054-.107.054-.247.054-.527v-2.067c0-.28 0-.42.055-.527a.501.501 0 0 1 .218-.218c.107-.055.247-.055.527-.055H16.7c.28 0 .42 0 .527-.054a.5.5 0 0 0 .218-.219c.055-.107.055-.247.055-.527v-2.066c0-.28 0-.42-.055-.527a.5.5 0 0 0-.218-.219c-.107-.054-.247-.054-.527-.054h-2.067c-.28 0-.42 0-.527-.055a.501.501 0 0 1-.218-.218c-.055-.107-.055-.247-.055-.527V7.3Z" opacity=".2"/>
  <path fill-rule="evenodd" d="M12 3a9 9 0 1 0 0 18 9 9 0 0 0 0-18ZM1 12C1 5.925 5.925 1 12 1s11 4.925 11 11-4.925 11-11 11S1 18.075 1 12Zm9.944-6.5h2.113c.119 0 .26 0 .386.01.145.012.353.042.571.153a1.5 1.5 0 0 1 .656.656c.11.218.141.426.153.571.01.125.01.268.01.387v1.89h1.89c.12 0 .262 0 .387.01.145.012.353.042.571.153a1.5 1.5 0 0 1 .655.656c.112.218.142.426.154.57.01.126.01.268.01.388v2.113c0 .119 0 .26-.01.386a1.507 1.507 0 0 1-.153.571 1.5 1.5 0 0 1-.656.656 1.508 1.508 0 0 1-.571.153c-.125.01-.268.01-.387.01h-1.89v1.89c0 .12 0 .262-.01.387a1.508 1.508 0 0 1-.153.571 1.5 1.5 0 0 1-.656.655 1.507 1.507 0 0 1-.57.154c-.126.01-.268.01-.388.01h-2.113c-.119 0-.26 0-.386-.01a1.507 1.507 0 0 1-.571-.153 1.5 1.5 0 0 1-.656-.656 1.508 1.508 0 0 1-.153-.571c-.01-.125-.01-.268-.01-.387v-1.89h-1.89c-.12 0-.262 0-.387-.01a1.508 1.508 0 0 1-.571-.153 1.5 1.5 0 0 1-.656-.656 1.508 1.508 0 0 1-.153-.57c-.01-.126-.01-.268-.01-.388v-2.113c0-.119 0-.26.01-.386a1.51 1.51 0 0 1 .153-.571 1.5 1.5 0 0 1 .656-.656 1.53 1.53 0 0 1 .571-.153c.125-.01.268-.01.387-.01h1.89v-1.89c0-.12 0-.262.01-.387a1.51 1.51 0 0 1 .153-.571 1.5 1.5 0 0 1 .656-.656 1.53 1.53 0 0 1 .57-.153c.126-.01.268-.01.388-.01Zm.223 2v1.89c0 .119 0 .261-.01.386a1.508 1.508 0 0 1-.154.572 1.5 1.5 0 0 1-.655.655 1.508 1.508 0 0 1-.572.153c-.125.01-.267.01-.386.01H7.5v1.667h1.89c.119 0 .261 0 .386.01.146.012.354.043.572.154a1.5 1.5 0 0 1 .655.655c.111.218.142.426.153.572.01.125.01.267.01.386v1.89h1.667v-1.89c0-.119 0-.261.01-.386.012-.146.043-.354.154-.572a1.5 1.5 0 0 1 .655-.655c.218-.111.426-.142.572-.153.125-.01.267-.01.386-.01h1.89v-1.667h-1.89c-.119 0-.261 0-.386-.01a1.508 1.508 0 0 1-.572-.154 1.5 1.5 0 0 1-.655-.655 1.508 1.508 0 0 1-.153-.572c-.01-.125-.01-.267-.01-.386V7.5h-1.667Z" clip-rule="evenodd"/>
</svg>
