<svg xmlns="http://www.w3.org/2000/svg" width="24" height="24" viewBox="0 0 24 24">
  <path fill-rule="evenodd" d="M12.703 2.944a1 1 0 0 1-.904 1.088 7.5 7.5 0 0 0-6.383 9.938c.08.239.176.519.196.772.019.232.002.427-.055.652-.063.245-.19.479-.293.668l-.03.054-1.455 2.695 4.745-.49.033-.004c.119-.013.266-.028.411-.023.132.005.244.02.373.05.141.033.295.092.425.142l.039.015a7.5 7.5 0 0 0 10.164-6.31 1 1 0 1 1 1.991.182C21.52 17.21 17.453 21 12.5 21a9.48 9.48 0 0 1-3.414-.632 9.85 9.85 0 0 0-.183-.07l-.012-.004a6.835 6.835 0 0 0-.161.016l-5.156.533a7.311 7.311 0 0 1-.624.047c-.186.002-.52-.008-.842-.204a1.5 1.5 0 0 1-.7-1.048c-.059-.372.06-.685.133-.856.073-.172.18-.37.282-.559l1.652-3.057a7.55 7.55 0 0 0 .14-.265A9.49 9.49 0 0 1 3 11.5c-.001-4.949 3.782-9.012 8.614-9.46a1 1 0 0 1 1.088.904Z" clip-rule="evenodd" opacity=".5"/>
  <path fill-rule="evenodd" d="M19.414 4.586a2 2 0 1 0-2.828 2.828 2 2 0 0 0 2.828-2.828Zm-4.242-1.414a4 4 0 1 1 5.656 5.656 4 4 0 0 1-5.656-5.656Z" clip-rule="evenodd"/>
</svg>
