<svg xmlns="http://www.w3.org/2000/svg" width="24" height="24" viewBox="0 0 24 24">
  <path d="M3 7.8c0-1.68 0-2.52.327-3.162a3 3 0 0 1 1.311-1.311C5.28 3 6.12 3 7.8 3h8.4c1.68 0 2.52 0 3.162.327a3 3 0 0 1 1.311 1.311C21 5.28 21 6.12 21 7.8v5.4c0 1.68 0 2.52-.327 3.162a3 3 0 0 1-1.311 1.311C18.72 18 17.88 18 16.2 18H9.684c-.624 0-.936 0-1.235.061a2.997 2.997 0 0 0-.762.267c-.27.14-.514.334-1.002.724L4.3 20.96c-.416.333-.624.5-.8.5a.5.5 0 0 1-.39-.188C3 21.135 3 20.868 3 20.336V7.8Z" opacity=".2"/>
  <path fill-rule="evenodd" d="M7.759 2h8.482c.805 0 1.47 0 2.01.044.563.046 1.08.145 1.565.392a4 4 0 0 1 1.748 1.748c.247.485.346 1.002.392 1.564C22 6.29 22 6.954 22 7.758v5.483c0 .805 0 1.47-.044 2.01-.046.563-.145 1.08-.392 1.565a4 4 0 0 1-1.748 1.748c-.485.247-1.002.346-1.564.392-.541.044-1.206.044-2.01.044H9.683c-.664 0-.858.005-1.034.04a2.002 2.002 0 0 0-.508.179c-.16.082-.313.199-.832.614l-2.413 1.93c-.184.147-.371.297-.536.406-.157.104-.462.29-.86.29a1.5 1.5 0 0 1-1.173-.564c-.248-.31-.293-.665-.31-.852A7.945 7.945 0 0 1 2 20.37V7.759c0-.805 0-1.47.044-2.01.046-.563.145-1.08.392-1.565a4 4 0 0 1 1.748-1.748c.485-.247 1.002-.346 1.564-.392C6.29 2 6.954 2 7.758 2ZM5.91 4.038c-.438.035-.663.1-.819.18a2 2 0 0 0-.874.874c-.08.156-.145.38-.18.819C4 6.361 4 6.943 4 7.8v12.12l2.06-1.649.068-.054c.422-.338.741-.593 1.105-.78a4 4 0 0 1 1.015-.355c.4-.082.809-.082 1.35-.082H16.2c.857 0 1.439 0 1.889-.038.438-.035.663-.1.819-.18a2 2 0 0 0 .874-.874c.08-.156.145-.38.18-.819.037-.45.038-1.032.038-1.889V7.8c0-.857 0-1.439-.038-1.889-.035-.438-.1-.663-.18-.819a2 2 0 0 0-.874-.874c-.156-.08-.38-.145-.819-.18C17.639 4 17.057 4 16.2 4H7.8c-.857 0-1.439 0-1.889.038Z" clip-rule="evenodd"/>
</svg>
