<svg xmlns="http://www.w3.org/2000/svg" width="24" height="24" viewBox="0 0 24 24">
  <path fill-rule="evenodd" d="M3 11.5a9.5 9.5 0 1 1 6.085 8.868 9.885 9.885 0 0 0-.182-.07l-.013-.004a6.863 6.863 0 0 0-.161.016l-5.121.53a7.31 7.31 0 0 1-.658.051c-.186.001-.521-.01-.842-.205a1.5 1.5 0 0 1-.7-1.048c-.059-.372.06-.685.132-.856.074-.172.18-.37.283-.559l1.652-3.057c.071-.133.11-.204.135-.257l.004-.008A9.49 9.49 0 0 1 3 11.5ZM12.5 4a7.5 7.5 0 0 0-7.11 9.897l.025.073c.082.239.177.519.197.772.018.232.002.427-.056.652-.062.245-.19.479-.292.668l-.03.054-1.455 2.695 4.744-.49.033-.004c.12-.013.267-.028.412-.023.132.005.243.02.372.05.142.033.296.092.425.142l.04.015A7.5 7.5 0 1 0 12.5 4Zm.332 4.518a1.248 1.248 0 0 0-1.389.816 1 1 0 0 1-1.887-.664 3.248 3.248 0 0 1 6.313 1.083c0 1.28-.947 2.102-1.57 2.517a6.281 6.281 0 0 1-1.318.663l-.029.01-.01.004h-.003l-.001.001L12.62 12l.317.949a1 1 0 0 1-.633-1.897h-.002l.009-.003.05-.019a4.287 4.287 0 0 0 .829-.425c.502-.334.679-.635.679-.853V9.75a1.248 1.248 0 0 0-1.037-1.232ZM11.649 15a1 1 0 0 1 1-1h.01a1 1 0 1 1 0 2h-.01a1 1 0 0 1-1-1Z" clip-rule="evenodd"/>
</svg>
