<svg xmlns="http://www.w3.org/2000/svg" width="24" height="24" viewBox="0 0 24 24">
  <path fill-rule="evenodd" d="M3 11.5a9.5 9.5 0 1 1 6.085 8.868 9.885 9.885 0 0 0-.182-.07l-.013-.004a6.863 6.863 0 0 0-.161.016l-5.121.53a7.31 7.31 0 0 1-.658.051c-.186.001-.521-.01-.842-.205a1.5 1.5 0 0 1-.7-1.048c-.059-.372.06-.685.132-.856.074-.172.18-.37.283-.559l1.652-3.057c.071-.133.11-.204.135-.257l.004-.008A9.49 9.49 0 0 1 3 11.5ZM12.5 4a7.5 7.5 0 0 0-7.11 9.897l.025.073c.082.239.177.519.197.772.018.232.002.427-.056.652-.062.245-.19.479-.292.668l-.03.054-1.455 2.695 4.744-.49.033-.004c.12-.013.267-.028.412-.023.132.005.243.02.372.05.142.033.296.092.425.142l.04.015A7.5 7.5 0 1 0 12.5 4Zm-.004 3.624c-1.212-.818-2.858-.915-4.172.194-1.533 1.294-1.765 3.494-.541 5.05.614.78 2.066 2.116 3.011 2.964l.022.02c.159.142.319.285.468.398.168.128.374.258.636.337a2.02 2.02 0 0 0 1.153 0 1.99 1.99 0 0 0 .636-.337c.15-.113.31-.257.468-.399l.022-.02c.945-.847 2.397-2.183 3.011-2.964a3.604 3.604 0 0 0-.552-5.058c-1.321-1.085-2.952-1.002-4.162-.185Zm-.755 1.98c-.604-.698-1.487-.797-2.127-.258-.721.61-.807 1.59-.26 2.285.483.613 1.784 1.823 2.775 2.711.19.17.288.258.364.315l.003.003.004-.003c.076-.057.174-.145.364-.315.99-.888 2.292-2.098 2.775-2.711a1.606 1.606 0 0 0-.25-2.276c-.669-.55-1.54-.44-2.136.249a1 1 0 0 1-1.512 0Z" clip-rule="evenodd"/>
</svg>
