<svg xmlns="http://www.w3.org/2000/svg" width="24" height="24" viewBox="0 0 24 24">
  <path fill-rule="evenodd" d="M3 11.5a9.5 9.5 0 1 1 6.085 8.868 9.885 9.885 0 0 0-.182-.07l-.013-.004a6.863 6.863 0 0 0-.161.016l-5.121.53a7.31 7.31 0 0 1-.658.051c-.186.001-.521-.01-.842-.205a1.5 1.5 0 0 1-.7-1.048c-.059-.372.06-.685.132-.856.074-.172.18-.37.283-.559l1.652-3.057c.071-.133.11-.204.135-.257l.004-.008A9.49 9.49 0 0 1 3 11.5ZM12.5 4a7.5 7.5 0 0 0-7.11 9.897l.025.073c.082.239.177.519.197.772.018.232.002.427-.056.652-.062.245-.19.479-.292.668l-.03.054-1.455 2.695 4.744-.49.033-.004c.12-.013.267-.028.412-.023.132.005.243.02.372.05.142.033.296.092.425.142l.04.015A7.5 7.5 0 1 0 12.5 4ZM8.25 9a1.5 1.5 0 1 1 3 0 1.5 1.5 0 0 1-3 0Zm5.5 0a1.5 1.5 0 1 1 3 0 1.5 1.5 0 0 1-3 0Zm-4 4.34ZM9 14c-.753.659-.753.659-.752.66l.001.001.003.004.008.008.02.022.066.07A6.047 6.047 0 0 0 9.4 15.6c.713.444 1.77.9 3.099.9a5.844 5.844 0 0 0 3.099-.901 6.044 6.044 0 0 0 1.055-.835c.027-.028.049-.05.065-.069l.02-.022.008-.008.003-.004.001-.001s.001-.002-.751-.66l.752.659a1 1 0 0 0-1.5-1.323l-.002.002a2.741 2.741 0 0 1-.157.151c-.121.11-.308.26-.552.412a3.844 3.844 0 0 1-2.041.599 3.845 3.845 0 0 1-2.042-.599 4.044 4.044 0 0 1-.683-.536l-.026-.027-.002-.002a1 1 0 0 0-1.5 1.323L9 14Zm.75-.66v-.002l-.003-.002m5.505 0-.002.002-.001.001-.001.001.004-.004Z" clip-rule="evenodd"/>
</svg>
