<svg xmlns="http://www.w3.org/2000/svg" width="24" height="24" viewBox="0 0 24 24">
  <path fill-rule="evenodd" d="M11.997 7.7c-.9-1.04-2.4-1.319-3.527-.368-1.128.952-1.286 2.542-.401 3.667.548.697 1.925 1.97 2.893 2.838.356.319.533.478.747.542.183.055.393.055.576 0 .213-.064.391-.223.747-.542.968-.868 2.345-2.14 2.893-2.838a2.606 2.606 0 0 0-.4-3.667c-1.147-.941-2.628-.672-3.528.367Z" clip-rule="evenodd" opacity=".2"/>
  <path fill-rule="evenodd" d="M7.759 2h8.482c.805 0 1.47 0 2.01.044.563.046 1.08.145 1.565.392a4 4 0 0 1 1.748 1.748c.247.485.346 1.002.392 1.564C22 6.29 22 6.954 22 7.758v5.483c0 .805 0 1.47-.044 2.01-.046.563-.145 1.08-.392 1.565a4 4 0 0 1-1.748 1.748c-.485.247-1.002.346-1.564.392-.541.044-1.206.044-2.01.044h-2.558c-.664 0-.858.005-1.034.04a2.002 2.002 0 0 0-.508.179c-.16.082-.313.199-.832.614l-2.413 1.93c-.184.147-.371.297-.536.406-.157.104-.462.29-.86.29a1.5 1.5 0 0 1-1.173-.564c-.248-.31-.293-.665-.31-.852C6 20.846 6 20.605 6 20.37v-1.38a4.542 4.542 0 0 1-1.035-.127 4 4 0 0 1-2.829-2.829C2 15.524 2 14.933 2 14.138V7.759c0-.805 0-1.47.044-2.01.046-.563.145-1.08.392-1.565a4 4 0 0 1 1.748-1.748c.485-.247 1.002-.346 1.564-.392C6.29 2 6.954 2 7.758 2ZM5.91 4.038c-.438.035-.663.1-.819.18a2 2 0 0 0-.874.874c-.08.156-.145.38-.18.819C4 6.361 4 6.943 4 7.8V14c0 .994.009 1.295.068 1.518a2 2 0 0 0 1.414 1.414c.223.06.524.068 1.518.068a1 1 0 0 1 1 1v1.92l2.06-1.649.068-.054c.422-.338.741-.593 1.104-.78a4 4 0 0 1 1.016-.355c.4-.082.809-.082 1.35-.082H16.2c.857 0 1.439 0 1.889-.038.438-.035.663-.1.819-.18a2 2 0 0 0 .874-.874c.08-.156.145-.38.18-.819.037-.45.038-1.032.038-1.889V7.8c0-.857 0-1.439-.038-1.889-.035-.438-.1-.663-.18-.819a2 2 0 0 0-.874-.874c-.156-.08-.38-.145-.819-.18C17.639 4 17.057 4 16.2 4H7.8c-.857 0-1.439 0-1.889.038Zm6.085 2.336c-1.212-.818-2.858-.915-4.171.194-1.533 1.294-1.766 3.494-.542 5.05.614.78 2.066 2.116 3.011 2.964l.022.02c.16.142.32.285.468.398.169.128.374.258.636.337a2.02 2.02 0 0 0 1.153 0c.263-.079.468-.209.637-.337a8.08 8.08 0 0 0 .467-.399l.022-.02c.946-.847 2.398-2.183 3.012-2.964a3.606 3.606 0 0 0-.552-5.058c-1.322-1.085-2.953-1.002-4.163-.185Zm-.755 1.98c-.604-.698-1.487-.797-2.126-.258-.722.61-.807 1.59-.26 2.285.483.613 1.784 1.823 2.774 2.711a6.938 6.938 0 0 0 .368.318 6.937 6.937 0 0 0 .367-.318c.991-.888 2.292-2.098 2.775-2.711a1.606 1.606 0 0 0-.25-2.276c-.668-.55-1.54-.44-2.136.249a1 1 0 0 1-1.512 0Z" clip-rule="evenodd"/>
</svg>
