<svg xmlns="http://www.w3.org/2000/svg" width="24" height="24" viewBox="0 0 24 24">
  <path d="M21 12a9 9 0 0 1-12.385 8.342c-.2-.081-.3-.122-.38-.14a.909.909 0 0 0-.219-.024 2.31 2.31 0 0 0-.353.045l-3.558.593c-.373.062-.56.093-.694.035a.5.5 0 0 1-.262-.262c-.058-.135-.027-.321.035-.694l.593-3.558c.03-.18.045-.27.045-.353a.907.907 0 0 0-.024-.219c-.018-.08-.059-.18-.14-.38A9 9 0 1 1 21 12Z" opacity=".2"/>
  <path fill-rule="evenodd" d="M2 12C2 6.477 6.477 2 12 2s10 4.477 10 10-4.477 10-10 10a9.973 9.973 0 0 1-3.76-.732 9.877 9.877 0 0 0-.23-.088 7.086 7.086 0 0 0-.183.03l-3.558.592-.029.005c-.16.027-.34.057-.496.069-.17.012-.44.017-.727-.106a1.5 1.5 0 0 1-.787-.787 1.525 1.525 0 0 1-.106-.727c.012-.156.042-.336.069-.496l.005-.03.593-3.557a7.06 7.06 0 0 0 .03-.188A9.975 9.975 0 0 1 2 12Zm10-8a8 8 0 0 0-7.415 11.008l.018.045c.061.15.134.327.17.494.035.15.05.282.05.437 0 .17-.03.34-.053.48l-.006.038-.547 3.281 3.281-.547.039-.006c.138-.023.31-.052.48-.052.154 0 .286.014.436.048a3.252 3.252 0 0 1 .539.19A8 8 0 1 0 12 4ZM7 9.5a1 1 0 0 1 1-1h4a1 1 0 1 1 0 2H8a1 1 0 0 1-1-1ZM7 13a1 1 0 0 1 1-1h7a1 1 0 1 1 0 2H8a1 1 0 0 1-1-1Z" clip-rule="evenodd"/>
</svg>
