<svg xmlns="http://www.w3.org/2000/svg" width="24" height="24" viewBox="0 0 24 24">
  <path d="M21 11.5a8.5 8.5 0 0 1-11.555 7.934c-.173-.066-.26-.1-.329-.116a.901.901 0 0 0-.186-.024 2.313 2.313 0 0 0-.303.021l-5.121.53c-.489.05-.733.075-.877-.013a.5.5 0 0 1-.233-.35c-.026-.166.09-.382.324-.814l1.635-3.027c.135-.25.202-.374.233-.494a.899.899 0 0 0 .028-.326c-.01-.123-.064-.283-.173-.604A8.5 8.5 0 1 1 21 11.5Z" opacity=".2"/>
  <path fill-rule="evenodd" d="M3 11.5a9.5 9.5 0 1 1 6.086 8.868 9.85 9.85 0 0 0-.183-.07l-.012-.004a6.868 6.868 0 0 0-.161.016l-5.122.53-.034.003a7.311 7.311 0 0 1-.624.047c-.186.002-.52-.008-.842-.204a1.5 1.5 0 0 1-.7-1.048c-.059-.372.06-.685.133-.856.073-.172.18-.37.282-.559l1.652-3.057c.072-.133.11-.204.136-.257l.003-.008A9.49 9.49 0 0 1 3 11.5ZM12.5 4a7.5 7.5 0 0 0-7.109 9.897l.025.073c.08.239.176.519.196.772.019.232.002.427-.055.652-.063.245-.19.479-.293.668l-.03.054-1.455 2.695 4.745-.49.033-.004c.119-.013.266-.028.411-.023.132.005.244.02.373.05.141.033.295.092.425.142l.039.015A7.5 7.5 0 1 0 12.5 4ZM8.25 9a1.5 1.5 0 1 1 3 0 1.5 1.5 0 0 1-3 0Zm5.5 0a1.5 1.5 0 1 1 3 0 1.5 1.5 0 0 1-3 0Zm-3.998 4.34ZM9 14c-.753.659-.752.659-.752.66l.002.001.003.004.007.008.02.022.066.07a6.047 6.047 0 0 0 1.055.835c.714.444 1.77.9 3.099.9a5.844 5.844 0 0 0 3.1-.901 6.044 6.044 0 0 0 1.054-.835c.027-.028.049-.05.065-.069l.021-.022.007-.008.003-.004.002-.001s0-.002-.752-.66l.753.659a1 1 0 0 0-1.501-1.323l-.001.002-.026.027c-.026.026-.07.07-.13.124-.123.11-.31.26-.554.412a3.844 3.844 0 0 1-2.041.599 3.844 3.844 0 0 1-2.041-.599 4.045 4.045 0 0 1-.684-.536l-.025-.027-.002-.002a1 1 0 0 0-1.5 1.323L9 14Zm.75-.66v-.002l-.002-.002m5.504 0-.001.002-.002.001v.001l.003-.004Z" clip-rule="evenodd"/>
</svg>
