<svg xmlns="http://www.w3.org/2000/svg" width="24" height="24" viewBox="0 0 24 24">
  <path d="M20.121 3.879A3 3 0 1 1 15.88 8.12a3 3 0 0 1 4.24-4.24Z" opacity=".2"/>
  <path fill-rule="evenodd" d="M19.414 4.586a2 2 0 1 0-2.828 2.828 2 2 0 0 0 2.828-2.828Zm-4.242-1.414a4 4 0 1 1 5.656 5.656 4 4 0 0 1-5.656-5.656ZM7.759 3H11a1 1 0 1 1 0 2H7.8c-.857 0-1.439 0-1.889.038-.438.035-.663.1-.819.18a2 2 0 0 0-.874.874c-.08.156-.145.38-.18.819C4 7.361 4 7.943 4 8.8V14c0 .994.009 1.295.068 1.518a2 2 0 0 0 1.414 1.414c.223.06.524.068 1.518.068a1 1 0 0 1 1 1v1.92l2.06-1.649.068-.054c.422-.338.741-.593 1.104-.78a4 4 0 0 1 1.016-.355c.4-.082.809-.082 1.35-.082H15.2c.857 0 1.439 0 1.889-.038.438-.035.663-.1.819-.18a2 2 0 0 0 .874-.874c.08-.156.145-.38.18-.819.037-.45.038-1.032.038-1.889V13a1 1 0 1 1 2 0v.241c0 .805 0 1.47-.044 2.01-.046.563-.145 1.08-.392 1.565a4 4 0 0 1-1.748 1.748c-.485.247-1.002.346-1.564.392-.541.044-1.206.044-2.01.044h-1.558c-.664 0-.858.005-1.034.04a2.002 2.002 0 0 0-.508.179c-.16.082-.313.199-.832.614l-2.413 1.93c-.184.147-.371.297-.536.406-.157.104-.462.29-.86.29a1.5 1.5 0 0 1-1.173-.564c-.248-.31-.293-.665-.31-.852A7.94 7.94 0 0 1 6 20.37v-1.38a4.542 4.542 0 0 1-1.035-.127 4 4 0 0 1-2.829-2.829C2 15.524 2 14.933 2 14.138V8.759c0-.805 0-1.47.044-2.01.046-.563.145-1.08.392-1.565a4 4 0 0 1 1.748-1.748c.485-.247 1.002-.346 1.564-.392C6.29 3 6.954 3 7.758 3Z" clip-rule="evenodd"/>
</svg>
