<svg xmlns="http://www.w3.org/2000/svg" width="24" height="24" viewBox="0 0 24 24">
  <path fill-rule="evenodd" d="M2 12C2 6.477 6.477 2 12 2s10 4.477 10 10-4.477 10-10 10a9.973 9.973 0 0 1-3.76-.732 9.877 9.877 0 0 0-.23-.088 7.086 7.086 0 0 0-.183.03l-3.558.592-.029.005c-.16.027-.34.057-.496.069-.17.012-.44.017-.727-.106a1.5 1.5 0 0 1-.787-.787 1.525 1.525 0 0 1-.106-.727c.012-.156.042-.336.069-.496l.005-.03.593-3.557a7.06 7.06 0 0 0 .03-.188A9.975 9.975 0 0 1 2 12Zm10-8a8 8 0 0 0-7.415 11.008l.018.045c.061.15.134.327.17.494.035.15.05.282.05.437 0 .17-.03.34-.053.48l-.006.038-.547 3.281 3.281-.547.039-.006c.138-.023.31-.052.48-.052.154 0 .286.014.436.048a3.252 3.252 0 0 1 .539.19A8 8 0 1 0 12 4Zm-6 8a1.5 1.5 0 1 1 3 0 1.5 1.5 0 0 1-3 0Zm4.5 0a1.5 1.5 0 1 1 3 0 1.5 1.5 0 0 1-3 0Zm4.5 0a1.5 1.5 0 1 1 3 0 1.5 1.5 0 0 1-3 0Z" clip-rule="evenodd"/>
</svg>
