<svg xmlns="http://www.w3.org/2000/svg" width="24" height="24" viewBox="0 0 24 24">
  <path d="M3 7.8c0-1.68 0-2.52.327-3.162a3 3 0 0 1 1.311-1.311C5.28 3 6.12 3 7.8 3h8.4c1.68 0 2.52 0 3.162.327a3 3 0 0 1 1.311 1.311C21 5.28 21 6.12 21 7.8v5.4c0 1.68 0 2.52-.327 3.162a3 3 0 0 1-1.311 1.311C18.72 18 17.88 18 16.2 18h-2.516c-.624 0-.936 0-1.235.061a2.997 2.997 0 0 0-.761.267c-.272.14-.516.334-1.003.724L8.3 20.96c-.416.333-.624.5-.8.5a.5.5 0 0 1-.39-.188C7 21.135 7 20.868 7 20.336V18c-.93 0-1.395 0-1.776-.102a3 3 0 0 1-2.122-2.121C3 15.395 3 14.93 3 14V7.8Z" opacity=".2"/>
  <path fill-rule="evenodd" d="M7.759 2h8.482c.805 0 1.47 0 2.01.044.563.046 1.08.145 1.565.392a4 4 0 0 1 1.748 1.748c.247.485.346 1.002.392 1.564C22 6.29 22 6.954 22 7.758v5.483c0 .805 0 1.47-.044 2.01-.046.563-.145 1.08-.392 1.565a4 4 0 0 1-1.748 1.748c-.485.247-1.002.346-1.564.392-.541.044-1.206.044-2.01.044h-2.558c-.664 0-.858.005-1.034.04a2.002 2.002 0 0 0-.508.179c-.16.082-.313.199-.832.614l-2.413 1.93c-.184.147-.371.297-.536.406-.157.104-.462.29-.86.29a1.5 1.5 0 0 1-1.173-.564c-.248-.31-.293-.665-.31-.852A7.94 7.94 0 0 1 6 20.37v-1.38a4.542 4.542 0 0 1-1.035-.127 4 4 0 0 1-2.829-2.829C2 15.524 2 14.933 2 14.138V7.759c0-.805 0-1.47.044-2.01.046-.563.145-1.08.392-1.565a4 4 0 0 1 1.748-1.748c.485-.247 1.002-.346 1.564-.392C6.29 2 6.954 2 7.758 2ZM5.91 4.038c-.438.035-.663.1-.819.18a2 2 0 0 0-.874.874c-.08.156-.145.38-.18.819C4 6.361 4 6.943 4 7.8V14c0 .994.009 1.295.068 1.518a2 2 0 0 0 1.414 1.414c.223.06.524.068 1.518.068a1 1 0 0 1 1 1v1.92l2.06-1.649.068-.054c.422-.338.741-.593 1.104-.78a4 4 0 0 1 1.016-.355c.4-.082.809-.082 1.35-.082H16.2c.857 0 1.439 0 1.889-.038.438-.035.663-.1.819-.18a2 2 0 0 0 .874-.874c.08-.156.145-.38.18-.819.037-.45.038-1.032.038-1.889V7.8c0-.857 0-1.439-.038-1.889-.035-.438-.1-.663-.18-.819a2 2 0 0 0-.874-.874c-.156-.08-.38-.145-.819-.18C17.639 4 17.057 4 16.2 4H7.8c-.857 0-1.439 0-1.889.038ZM7.75 7.5a1.5 1.5 0 1 1 3 0 1.5 1.5 0 0 1-3 0Zm5.5 0a1.5 1.5 0 1 1 3 0 1.5 1.5 0 0 1-3 0Zm1.502 4.336-.002.002.002-.002ZM8.5 12.5l-.753.659a1 1 0 0 1 1.501-1.323m.002.002-.002-.002.002.002Z" clip-rule="evenodd"/>
</svg>
