<svg xmlns="http://www.w3.org/2000/svg" width="24" height="24" viewBox="0 0 24 24">
  <path fill-rule="evenodd" d="M3 11.5a9.5 9.5 0 1 1 6.086 8.868 9.85 9.85 0 0 0-.183-.07l-.012-.004a6.868 6.868 0 0 0-.161.016l-5.122.53-.034.003a7.311 7.311 0 0 1-.624.047c-.186.002-.52-.008-.842-.204a1.5 1.5 0 0 1-.7-1.048c-.059-.372.06-.685.133-.856.073-.172.18-.37.282-.559l1.652-3.057c.072-.133.11-.204.136-.257l.003-.008A9.49 9.49 0 0 1 3 11.5ZM12.5 4a7.5 7.5 0 0 0-7.109 9.897l.025.073c.08.239.176.519.196.772.019.232.002.427-.055.652-.063.245-.19.479-.293.668l-.03.054-1.455 2.695 4.745-.49.033-.004c.119-.013.266-.028.411-.023.132.005.244.02.373.05.141.033.295.092.425.142l.039.015A7.5 7.5 0 1 0 12.5 4Z" clip-rule="evenodd" opacity=".5"/>
  <path fill-rule="evenodd" d="M16.707 8.293a1 1 0 0 1 0 1.414l-4.5 4.5a1 1 0 0 1-1.414 0l-2-2a1 1 0 1 1 1.414-1.414l1.293 1.293 3.793-3.793a1 1 0 0 1 1.414 0Z" clip-rule="evenodd"/>
</svg>
