<svg xmlns="http://www.w3.org/2000/svg" width="24" height="24" viewBox="0 0 24 24">
  <path d="M13 16.5c0 3.038-2.403 5.5-5.368 5.5a5.246 5.246 0 0 1-1.75-.299c-.208-.073-.312-.11-.382-.124a.843.843 0 0 0-.189-.019c-.071 0-.153.01-.316.033L2 22l.611-2.762c.04-.18.06-.271.065-.351a.852.852 0 0 0-.01-.213 3.496 3.496 0 0 0-.126-.427 5.617 5.617 0 0 1-.277-1.747c0-3.038 2.404-5.5 5.369-5.5S13 13.462 13 16.5Z" opacity=".2"/>
  <path fill-rule="evenodd" d="M5 10c0-4.977 4.06-9 9.053-9 4.993 0 9.052 4.023 9.052 9a8.935 8.935 0 0 1-.585 3.19 10.4 10.4 0 0 0-.078.208v.004l.02.164.406 3.298c.019.152.04.325.045.475.006.166-.002.425-.125.695a1.5 1.5 0 0 1-.772.754 1.52 1.52 0 0 1-.698.11 6 6 0 0 1-.474-.057l-.027-.004-3.186-.467c-.088-.013-.135-.02-.169-.023h-.004a9.083 9.083 0 0 1-3.94.638C12.563 21.332 10.3 23 7.631 23a6.246 6.246 0 0 1-2.083-.356 14.53 14.53 0 0 0-.224-.078l-.022-.007h-.005l-.168.023-2.995.409a1 1 0 0 1-1.111-1.207l.611-2.762a7.714 7.714 0 0 0 .041-.192 6.617 6.617 0 0 1-.413-2.33c0-2.626 1.533-4.909 3.755-5.93A9.067 9.067 0 0 1 5 10Zm2 .031c.208-.02.418-.031.632-.031C11.172 10 14 12.933 14 16.5c0 .168-.006.335-.019.5h.072a7.083 7.083 0 0 0 2.532-.465c.141-.053.308-.115.46-.148.14-.029.258-.041.4-.042.156-.001.314.022.44.041l.037.006 2.925.428-.37-3.01-.005-.034c-.015-.123-.034-.276-.03-.426a1.9 1.9 0 0 1 .046-.386 3.324 3.324 0 0 1 .163-.486A6.944 6.944 0 0 0 21.105 10c0-3.86-3.151-7-7.052-7C10.15 3 7 6.14 7 10v.031Zm4.86 7.602c.092-.361.14-.74.14-1.133 0-2.508-1.979-4.5-4.368-4.5-2.39 0-4.369 1.992-4.369 4.5a4.617 4.617 0 0 0 .245 1.49c.056.172.12.366.146.529.024.153.03.27.02.426a3.03 3.03 0 0 1-.078.47l-.008.04-.301 1.36 1.572-.215.036-.005c.124-.017.277-.038.423-.037.139.001.242.012.378.039.144.028.317.09.47.144l.05.017A4.22 4.22 0 0 0 7.632 21c2 0 3.71-1.394 4.216-3.319a.96.96 0 0 1 .013-.048Z" clip-rule="evenodd"/>
</svg>
