<svg xmlns="http://www.w3.org/2000/svg" width="24" height="24" viewBox="0 0 24 24">
  <path d="M22 14.2c0-1.12 0-1.68-.218-2.108a2 2 0 0 0-.874-.874C20.48 11 19.92 11 18.8 11h-5.6c-1.12 0-1.68 0-2.108.218a2 2 0 0 0-.874.874C10 12.52 10 13.08 10 14.2v2.514c0 1.12 0 1.68.218 2.108a2 2 0 0 0 .874.874c.428.218.988.218 2.108.218h1.797c.373 0 .559 0 .739.033.16.03.314.079.462.145.167.076.32.182.626.395L19 22v-2.086c.932 0 1.398 0 1.765-.152a2 2 0 0 0 1.083-1.082c.152-.368.152-.834.152-1.766V14.2Z" opacity=".2"/>
  <path fill-rule="evenodd" d="M6.759 1h7.482c.805 0 1.47 0 2.01.044.563.046 1.08.145 1.565.392a4 4 0 0 1 1.748 1.748c.247.485.346 1.002.392 1.564C20 5.29 20 5.954 20 6.758v3.26c.067.003.132.007.195.013.395.032.789.103 1.167.296a3 3 0 0 1 1.311 1.311c.193.378.264.772.296 1.167.031.375.031.83.031 1.356v2.785c0 .439 0 .817-.021 1.13-.023.33-.072.66-.207.986a3 3 0 0 1-1.624 1.624 3.07 3.07 0 0 1-.986.207 6.784 6.784 0 0 1-.162.009V22a1 1 0 0 1-1.57.821l-2.177-1.513c-.335-.233-.403-.276-.467-.305a.996.996 0 0 0-.232-.072c-.069-.013-.149-.017-.557-.017H13.16c-.527 0-.981 0-1.356-.03-.395-.033-.789-.104-1.167-.297a3 3 0 0 1-1.311-1.31c-.193-.38-.264-.772-.296-1.168a10.222 10.222 0 0 1-.028-.676l-1.393 1.41c-.192.194-.38.384-.544.524-.146.124-.456.374-.886.41a1.5 1.5 0 0 1-1.263-.518c-.281-.328-.326-.724-.343-.915-.019-.215-.018-.483-.018-.755V16.01a.278.278 0 0 0-.136-.053 4 4 0 0 1-3.378-3.378C1 12.29 1 11.963 1 11.52V6.76c0-.805 0-1.47.044-2.01.046-.563.145-1.08.392-1.565a4 4 0 0 1 1.748-1.748c.485-.247 1.002-.346 1.564-.392C5.29 1 5.954 1 6.758 1ZM11 15v1.714c0 .577 0 .95.024 1.233.022.271.06.372.085.421a1 1 0 0 0 .437.437c.05.026.15.063.422.085.283.023.655.024 1.232.024h1.86c.31 0 .585 0 .857.05a3 3 0 0 1 .694.218c.252.114.477.27.732.448l.051.036.606.42v-.172a1 1 0 0 1 1-1c.48 0 .79 0 1.026-.016.228-.016.315-.043.357-.06a1 1 0 0 0 .54-.541c.018-.042.045-.128.06-.357.017-.237.017-.546.017-1.026V14.2c0-.577 0-.949-.024-1.232-.022-.272-.06-.373-.085-.422a1 1 0 0 0-.437-.437c-.05-.025-.15-.063-.422-.085C19.75 12 19.377 12 18.8 12h-5.6c-.577 0-.949 0-1.232.024-.272.022-.373.06-.422.085a1 1 0 0 0-.437.437c-.025.05-.063.15-.085.422C11 13.25 11 13.623 11 14.2v.8Zm-2-.41-2.444 2.474v-1.072c0-1.178-.958-1.883-1.846-2.013a2 2 0 0 1-1.689-1.69c-.018-.125-.021-.293-.021-.845V6.8c0-.857 0-1.439.038-1.889.035-.438.1-.663.18-.819a2 2 0 0 1 .874-.874c.156-.08.38-.145.819-.18C5.361 3 5.943 3 6.8 3h7.4c.857 0 1.439 0 1.889.038.438.035.663.1.819.18a2 2 0 0 1 .874.874c.08.156.145.38.18.819C18 5.361 18 5.943 18 6.8V10h-4.838c-.528 0-.982 0-1.357.03-.395.033-.789.104-1.167.297a3 3 0 0 0-1.311 1.311c-.193.378-.264.772-.296 1.167C9 13.18 9 13.635 9 14.162v.427Z" clip-rule="evenodd"/>
</svg>
