<svg xmlns="http://www.w3.org/2000/svg" width="24" height="24" viewBox="0 0 24 24">
  <path fill-rule="evenodd" d="M7.759 2h8.482c.805 0 1.47 0 2.01.044.563.046 1.08.145 1.565.392a4 4 0 0 1 1.748 1.748c.247.485.346 1.002.392 1.564C22 6.29 22 6.954 22 7.758v5.483c0 .805 0 1.47-.044 2.01-.046.563-.145 1.08-.392 1.565a4 4 0 0 1-1.748 1.748c-.485.247-1.002.346-1.564.392-.541.044-1.206.044-2.01.044h-2.558c-.664 0-.858.005-1.034.04a2.003 2.003 0 0 0-.508.179c-.16.082-.313.199-.832.614l-2.413 1.93c-.184.147-.371.297-.536.406-.157.104-.462.29-.86.29a1.5 1.5 0 0 1-1.173-.564c-.248-.31-.293-.665-.31-.852A7.94 7.94 0 0 1 6 20.37v-1.38a4.542 4.542 0 0 1-1.035-.127 4 4 0 0 1-2.829-2.829C2 15.524 2 14.933 2 14.138V7.759c0-.805 0-1.47.044-2.01.046-.563.145-1.08.392-1.565a4 4 0 0 1 1.748-1.748c.485-.247 1.002-.346 1.564-.392C6.29 2 6.954 2 7.758 2ZM5.91 4.038c-.438.035-.663.1-.819.18a2 2 0 0 0-.874.874c-.08.156-.145.38-.18.819C4 6.361 4 6.943 4 7.8V14c0 .994.009 1.295.068 1.518a2 2 0 0 0 1.414 1.414c.223.06.524.068 1.518.068a1 1 0 0 1 1 1v1.92l2.06-1.649.068-.054c.422-.338.74-.593 1.104-.78a4.001 4.001 0 0 1 1.016-.355c.4-.082.809-.082 1.35-.082H16.2c.857 0 1.439 0 1.889-.038.438-.035.663-.1.819-.18a2 2 0 0 0 .874-.874c.08-.156.145-.38.18-.819.037-.45.038-1.032.038-1.889V7.8c0-.857 0-1.439-.038-1.889-.035-.438-.1-.663-.18-.819a2 2 0 0 0-.874-.874c-.156-.08-.38-.145-.82-.18C17.639 4 17.058 4 16.2 4H7.8c-.857 0-1.439 0-1.889.038Zm6.42 3.48a1.248 1.248 0 0 0-1.388.816 1 1 0 0 1-1.886-.664 3.248 3.248 0 0 1 6.312 1.083c0 1.28-.947 2.102-1.57 2.517a6.282 6.282 0 0 1-1.318.663l-.028.01-.01.004h-.003l-.002.001L12.12 11l.316.949a1 1 0 0 1-.633-1.897l.007-.003.05-.019a4.292 4.292 0 0 0 .829-.425c.502-.334.68-.635.68-.853V8.75a1.248 1.248 0 0 0-1.038-1.232ZM11.15 14a1 1 0 0 1 1-1h.01a1 1 0 1 1 0 2h-.01a1 1 0 0 1-1-1Z" clip-rule="evenodd"/>
</svg>
