<svg xmlns="http://www.w3.org/2000/svg" width="24" height="24" viewBox="0 0 24 24">
  <path fill-rule="evenodd" d="M5 10c0-4.977 4.06-9 9.053-9 4.993 0 9.052 4.023 9.052 9a8.935 8.935 0 0 1-.585 3.19 10.4 10.4 0 0 0-.078.208v.004l.02.164.402 3.27.004.028c.019.152.04.325.045.475.006.166-.002.425-.125.695a1.5 1.5 0 0 1-.772.754 1.52 1.52 0 0 1-.698.11 5.611 5.611 0 0 1-.474-.057l-.027-.004-3.186-.467.145-.99-.145.99c-.088-.013-.134-.02-.169-.023h-.004a9.084 9.084 0 0 1-3.405.654 9.17 9.17 0 0 1-1.38-.105 1 1 0 0 1 .3-1.977 7.167 7.167 0 0 0 3.612-.384c.141-.053.308-.115.46-.148.14-.029.258-.041.4-.042.156-.001.314.022.44.041l.037.006 2.925.428-.37-3.01-.005-.034c-.015-.123-.034-.276-.03-.426a1.92 1.92 0 0 1 .046-.386 3.296 3.296 0 0 1 .163-.486A6.944 6.944 0 0 0 21.105 10c0-3.86-3.151-7-7.052-7C10.15 3 7 6.14 7 10c0 .366.028.725.083 1.075a1 1 0 0 1-1.977.307A9.01 9.01 0 0 1 5 10Z" clip-rule="evenodd" opacity=".5"/>
  <path fill-rule="evenodd" d="M1.263 16.5c0-3.567 2.829-6.5 6.369-6.5C11.172 10 14 12.933 14 16.5S11.171 23 7.632 23a6.246 6.246 0 0 1-2.083-.356 14.578 14.578 0 0 0-.224-.078l-.022-.007a7.815 7.815 0 0 0-.173.023l-2.995.409a1 1 0 0 1-1.111-1.207l.611-2.762a7.73 7.73 0 0 0 .041-.192 6.617 6.617 0 0 1-.413-2.33ZM7.632 12c-2.39 0-4.369 1.992-4.369 4.5 0 .504.08.987.227 1.436l.018.055c.056.17.12.365.146.528.024.153.03.27.02.426a3.03 3.03 0 0 1-.078.47l-.008.04-.301 1.36 1.572-.215.036-.005c.124-.017.277-.038.423-.037.139.001.242.012.378.039a3.697 3.697 0 0 1 .52.161A4.22 4.22 0 0 0 7.632 21C10.022 21 12 19.008 12 16.5S10.021 12 7.632 12Z" clip-rule="evenodd"/>
</svg>
