<svg xmlns="http://www.w3.org/2000/svg" width="24" height="24" fill="none" viewBox="0 0 24 24">
  <path stroke="#2970FF" stroke-linecap="round" stroke-linejoin="round" stroke-width="2" d="M21 11.5a8.5 8.5 0 0 1-11.555 7.934c-.173-.066-.26-.1-.329-.116a.9.9 0 0 0-.186-.024 2.248 2.248 0 0 0-.303.021l-5.121.53c-.489.05-.733.075-.877-.013a.5.5 0 0 1-.233-.35c-.027-.166.09-.382.323-.814l1.636-3.027c.135-.25.202-.374.233-.494a.899.899 0 0 0 .027-.326c-.01-.123-.063-.283-.172-.604A8.5 8.5 0 1 1 21 11.5Z"/>
</svg>
