<svg xmlns="http://www.w3.org/2000/svg" width="24" height="24" viewBox="0 0 24 24">
  <path fill-rule="evenodd" d="M3 11.5a9.5 9.5 0 1 1 6.086 8.868 9.85 9.85 0 0 0-.183-.07l-.012-.004a6.868 6.868 0 0 0-.161.016l-5.122.53-.034.003a7.311 7.311 0 0 1-.624.047c-.186.002-.52-.008-.842-.204a1.5 1.5 0 0 1-.7-1.048c-.059-.372.06-.685.133-.856.073-.172.18-.37.282-.559l1.652-3.057c.072-.133.11-.204.136-.257l.003-.008A9.49 9.49 0 0 1 3 11.5ZM12.5 4a7.5 7.5 0 0 0-7.109 9.897l.025.073c.08.239.176.519.196.772.019.232.002.427-.055.652-.063.245-.19.479-.293.668l-.03.054-1.455 2.695 4.745-.49.033-.004c.119-.013.266-.028.411-.023.132.005.244.02.373.05.141.033.295.092.425.142l.039.015A7.5 7.5 0 1 0 12.5 4Z" clip-rule="evenodd" opacity=".5"/>
  <path fill-rule="evenodd" d="M12.496 7.624c-1.212-.818-2.858-.915-4.171.194-1.533 1.294-1.766 3.494-.542 5.05.614.78 2.066 2.116 3.011 2.964l.022.02c.16.141.32.285.468.398.169.128.374.258.636.337.371.111.782.111 1.153 0 .263-.08.468-.209.637-.337a8.08 8.08 0 0 0 .467-.399l.022-.02c.946-.847 2.398-2.183 3.012-2.964a3.606 3.606 0 0 0-.552-5.058c-1.322-1.085-2.953-1.002-4.163-.185Zm-.755 1.98c-.604-.698-1.487-.797-2.126-.258-.722.61-.807 1.59-.26 2.285.483.613 1.784 1.823 2.774 2.711.19.17.289.258.364.315l.004.003.004-.003c.075-.057.174-.145.363-.315.991-.888 2.292-2.098 2.775-2.711a1.606 1.606 0 0 0-.25-2.276c-.668-.55-1.54-.44-2.136.249a1 1 0 0 1-1.512 0Z" clip-rule="evenodd"/>
</svg>
