<svg xmlns="http://www.w3.org/2000/svg" width="24" height="24" viewBox="0 0 24 24">
  <path fill-rule="evenodd" d="M19.414 4.586a2 2 0 1 0-2.829 2.828 2 2 0 0 0 2.829-2.828ZM15.17 3.172a4 4 0 1 1 5.657 5.656 4 4 0 0 1-5.657-5.656Zm-2.468-.228a1 1 0 0 1-.904 1.088 7.501 7.501 0 0 0-6.384 9.938c.082.239.177.519.197.772.018.232.002.427-.056.652-.062.245-.19.479-.292.668l-.03.054-1.455 2.695 4.744-.49.034-.004a2.89 2.89 0 0 1 .41-.023c.133.005.244.02.373.05.142.033.296.092.425.142l.04.015a7.5 7.5 0 0 0 10.164-6.31 1 1 0 1 1 1.991.182C21.519 17.21 17.452 21 12.5 21a9.48 9.48 0 0 1-3.415-.632 9.828 9.828 0 0 0-.182-.07l-.013-.004a6.84 6.84 0 0 0-.161.016l-5.155.533a7.311 7.311 0 0 1-.624.047c-.186.002-.521-.008-.842-.204a1.5 1.5 0 0 1-.7-1.048c-.059-.372.06-.685.132-.856.074-.172.18-.37.283-.559l1.652-3.057c.071-.133.11-.204.135-.257l.004-.008A9.49 9.49 0 0 1 3 11.5c0-4.949 3.782-9.012 8.615-9.46a1 1 0 0 1 1.088.904Z" clip-rule="evenodd"/>
</svg>
