<svg xmlns="http://www.w3.org/2000/svg" width="24" height="24" viewBox="0 0 24 24">
  <path d="M9 12a3 3 0 0 0 5.123 2.12L9 9v3Z" opacity=".2"/>
  <path fill-rule="evenodd" d="M1.293 1.293a1 1 0 0 1 1.414 0l12.122 12.12a.577.577 0 0 1 .042.044l2.02 2.02A5.972 5.972 0 0 0 18 12v-2a1 1 0 1 1 2 0v2a7.965 7.965 0 0 1-1.68 4.906l4.387 4.387a1 1 0 0 1-1.414 1.414l-4.387-4.387A7.96 7.96 0 0 1 13 19.938V21h3a1 1 0 1 1 0 2H8a1 1 0 1 1 0-2h3v-1.062A8.001 8.001 0 0 1 4 12v-2a1 1 0 0 1 2 0v2a6 6 0 0 0 9.476 4.89l-1.444-1.444A4 4 0 0 1 8 12V9.414L1.293 2.707a1 1 0 0 1 0-1.414ZM10 11.414V12a2 2 0 0 0 2.518 1.932L10 11.414ZM8.417 3.221A4 4 0 0 1 16 5v4.4a1 1 0 1 1-2 0V5a2 2 0 0 0-3.792-.889 1 1 0 0 1-1.791-.89Z" clip-rule="evenodd"/>
</svg>
