<svg xmlns="http://www.w3.org/2000/svg" width="24" height="24" viewBox="0 0 24 24">
  <path d="M8 13a4 4 0 0 0 7.281 2.288L8 8v5Z" opacity=".2"/>
  <path fill-rule="evenodd" d="M1.293 1.293a1 1 0 0 1 1.414 0l16.07 16.07.002.002c.048.04.091.083.13.13l3.798 3.798a1 1 0 0 1-1.414 1.414l-3.14-3.14A9 9 0 0 1 3 13v-.999a1 1 0 1 1 2.001 0v1a7 7 0 0 0 11.738 5.153l-1.416-1.416A5 5 0 0 1 7 13V8.413L1.293 2.707a1 1 0 0 1 0-1.414ZM9 10.416V13a3 3 0 0 0 4.901 2.321L9 10.416Zm-.162-7.29A5 5 0 0 1 17 7v3.401a1 1 0 1 1-2 0V7a3 3 0 0 0-4.896-2.325 1 1 0 0 1-1.266-1.548Z" clip-rule="evenodd"/>
</svg>
