<svg xmlns="http://www.w3.org/2000/svg" width="24" height="24" viewBox="0 0 24 24">
  <path fill-rule="evenodd" d="M13 7a7.04 7.04 0 0 0-1.75.22 1 1 0 1 1-.5-1.936 9 9 0 0 1 5.624 17.062 1 1 0 0 1-.75-1.855A7.002 7.002 0 0 0 13 7Z" clip-rule="evenodd" opacity=".5"/>
  <path fill-rule="evenodd" d="M3 5.5a4.5 4.5 0 1 1 9 0v7.264c.475.425.813.999.942 1.65.059.294.058.621.058 1.002v.168c0 .38 0 .708-.058 1.001a3 3 0 0 1-2.357 2.357c-.293.059-.62.058-1.001.058H5.416c-.38 0-.708 0-1.001-.058a3 3 0 0 1-2.357-2.357c-.059-.293-.058-.62-.058-1.001v-.168c0-.38 0-.708.058-1.001A3 3 0 0 1 3 12.764V5.5ZM5.5 12H5V5.5a2.5 2.5 0 1 1 5 0V12H5.5Zm0 2c-.513 0-.623.005-.695.02a1 1 0 0 0-.786.785c-.014.072-.019.182-.019.695 0 .513.005.623.02.695a1 1 0 0 0 .785.786c.072.014.182.019.695.019h4c.513 0 .623-.005.695-.02a1 1 0 0 0 .786-.785c.014-.072.019-.182.019-.695 0-.513-.005-.623-.02-.695a1 1 0 0 0-.785-.786c-.072-.014-.182-.019-.695-.019h-4ZM2 22a1 1 0 0 1 1-1h9a1 1 0 1 1 0 2H3a1 1 0 0 1-1-1Z" clip-rule="evenodd"/>
</svg>
