<svg xmlns="http://www.w3.org/2000/svg" width="24" height="24" viewBox="0 0 24 24">
  <path fill-rule="evenodd" d="M10.32 1.058a1 1 0 0 1 1.116.316l2.292 2.855 3.417-.81a1 1 0 0 1 1.185.674L20.798 12H22a1 1 0 1 1 0 2h-.323l-1.748 4.371A1 1 0 0 1 19 19h-.17a3 3 0 1 1-5.659 0h-2.342a3 3 0 1 1-5.659 0H5a1 1 0 0 1-.928-.629L2.323 14H2a1 1 0 1 1 0-2h1.074l1.218-8.233a1 1 0 0 1 .654-.796l5.375-1.913ZM4.478 14h15.046l-1.2 3H5.677l-1.2-3Zm14.226-2H5.096l1.086-7.346 4.14-1.473 2.242 2.793a1 1 0 0 0 1.01.347L16.7 5.58 18.703 12ZM8 19a1 1 0 1 0 0 2 1 1 0 0 0 0-2Zm8 0a1 1 0 1 0 0 2 1 1 0 0 0 0-2ZM8.257 6.793a1 1 0 0 1 1.286-.108l2.112 1.5a1 1 0 1 1-1.158 1.63l-1.423-1.01-.903.902a1 1 0 0 1-1.414-1.414l1.5-1.5Zm6.06 2.707a1.25 1.25 0 1 1 2.5 0 1.25 1.25 0 0 1-2.5 0Z" clip-rule="evenodd"/>
</svg>
