<svg xmlns="http://www.w3.org/2000/svg" width="24" height="24" viewBox="0 0 24 24">
  <path fill-rule="evenodd" d="M21.707 2.293a1 1 0 0 1 0 1.414l-7 7a1 1 0 0 1-1.414-1.414l7-7a1 1 0 0 1 1.414 0Zm-11 11a1 1 0 0 1 0 1.414l-7 7a1 1 0 0 1-1.414-1.414l7-7a1 1 0 0 1 1.414 0Z" clip-rule="evenodd" opacity=".5"/>
  <path fill-rule="evenodd" d="M14 3a1 1 0 0 1 1 1v5h5a1 1 0 1 1 0 2h-6a1 1 0 0 1-1-1V4a1 1 0 0 1 1-1ZM3 14a1 1 0 0 1 1-1h6a1 1 0 0 1 1 1v6a1 1 0 1 1-2 0v-5H4a1 1 0 0 1-1-1Z" clip-rule="evenodd"/>
</svg>
