<svg xmlns="http://www.w3.org/2000/svg" width="24" height="24" viewBox="0 0 24 24">
  <path d="M2 19c0-.932 0-1.398.152-1.765a2 2 0 0 1 1.083-1.083C3.602 16 4.068 16 5 16h14c.932 0 1.398 0 1.765.152a2 2 0 0 1 1.083 1.083C22 17.602 22 18.068 22 19c0 .932 0 1.398-.152 1.765a2 2 0 0 1-1.083 1.083C20.398 22 19.932 22 19 22H5c-.932 0-1.398 0-1.765-.152a2 2 0 0 1-1.083-1.083C2 20.398 2 19.932 2 19Z" opacity=".2"/>
  <path fill-rule="evenodd" d="M5.636 1.222a1 1 0 0 1 0 1.414A9 9 0 0 0 5.29 15H11V9a1 1 0 1 1 2 0v6h5.709a9 9 0 0 0-.345-12.364 1 1 0 1 1 1.414-1.414c3.804 3.803 4.24 9.699 1.308 13.982l.062.024a3 3 0 0 1 1.624 1.624c.135.326.184.656.207.986.021.313.021.691.021 1.13v.064c0 .439 0 .817-.021 1.13-.023.33-.072.66-.207.986a3 3 0 0 1-1.624 1.624 3.072 3.072 0 0 1-.986.207c-.313.021-.691.021-1.13.021H4.968c-.439 0-.817 0-1.13-.021a3.072 3.072 0 0 1-.986-.207 3 3 0 0 1-1.624-1.624 3.068 3.068 0 0 1-.207-.986C1 19.85 1 19.471 1 19.032v-.064c0-.439 0-.817.021-1.13.023-.33.072-.66.207-.986a3 3 0 0 1 1.686-1.648C-.018 10.92.418 5.025 4.222 1.222a1 1 0 0 1 1.414 0ZM5 17c-.48 0-.79 0-1.026.017-.228.015-.315.042-.357.06a1 1 0 0 0-.54.54c-.018.042-.045.129-.06.357C3 18.21 3 18.52 3 19s0 .79.017 1.026c.015.228.042.315.06.357a1 1 0 0 0 .54.54c.042.018.129.045.357.06C4.21 21 4.52 21 5 21h14c.48 0 .79 0 1.026-.017.228-.015.315-.042.357-.06a1 1 0 0 0 .54-.54c.018-.042.045-.129.06-.357C21 19.79 21 19.48 21 19s0-.79-.017-1.026c-.015-.228-.042-.315-.06-.357a1 1 0 0 0-.54-.54c-.042-.018-.129-.045-.357-.06A16.887 16.887 0 0 0 19 17H5ZM8.464 4.05a1 1 0 0 1 0 1.414 5 5 0 0 0 0 7.072A1 1 0 1 1 7.05 13.95a7 7 0 0 1 0-9.9 1 1 0 0 1 1.414 0Zm7.072 0a1 1 0 0 1 1.414 0 7 7 0 0 1 0 9.9 1 1 0 0 1-1.414-1.414 5 5 0 0 0 0-7.072 1 1 0 0 1 0-1.414Z" clip-rule="evenodd"/>
</svg>
