<svg xmlns="http://www.w3.org/2000/svg" width="24" height="24" viewBox="0 0 24 24">
  <path fill-rule="evenodd" d="M5.636 1.222a1 1 0 0 1 0 1.414A9 9 0 0 0 5.572 15.3a1 1 0 1 1-1.428 1.4C-.074 12.398-.048 5.492 4.222 1.222a1 1 0 0 1 1.414 0Zm12.728 0a1 1 0 0 1 1.414 0c4.27 4.27 4.296 11.176.078 15.478a1 1 0 1 1-1.428-1.4 9 9 0 0 0-.064-12.664 1 1 0 0 1 0-1.414Zm-9.9 2.828a1 1 0 0 1 0 1.414 5 5 0 0 0 0 7.072A1 1 0 1 1 7.05 13.95a7 7 0 0 1 0-9.9 1 1 0 0 1 1.414 0Zm7.072 0a1 1 0 0 1 1.414 0 7 7 0 0 1 0 9.9 1 1 0 0 1-1.414-1.414 5 5 0 0 0 0-7.072 1 1 0 0 1 0-1.414Z" clip-rule="evenodd" opacity=".5"/>
  <path fill-rule="evenodd" d="M12 8a1 1 0 0 1 1 1v6h6.032c.439 0 .817 0 1.13.021.33.023.66.072.986.207a3 3 0 0 1 1.624 1.624c.135.326.184.656.207.986.021.313.021.691.021 1.13v.064c0 .439 0 .817-.021 1.13-.023.33-.072.66-.207.986a3 3 0 0 1-1.624 1.624 3.073 3.073 0 0 1-.986.207c-.313.021-.691.021-1.13.021H4.968c-.439 0-.817 0-1.13-.021a3.072 3.072 0 0 1-.986-.207 3 3 0 0 1-1.624-1.624 3.07 3.07 0 0 1-.207-.986C1 19.85 1 19.471 1 19.032v-.064c0-.439 0-.817.021-1.13.023-.33.072-.66.207-.986a3 3 0 0 1 1.624-1.624c.326-.135.656-.184.986-.207C4.15 15 4.529 15 4.968 15H11V9a1 1 0 0 1 1-1Zm-7 9c-.48 0-.79 0-1.026.017-.228.015-.315.042-.357.06a1 1 0 0 0-.54.54c-.018.042-.045.129-.06.357C3 18.21 3 18.52 3 19s0 .79.017 1.026c.015.228.042.315.06.357a1 1 0 0 0 .54.54c.042.018.129.045.357.06C4.21 21 4.52 21 5 21h14c.48 0 .79 0 1.026-.017.228-.015.315-.042.357-.06a1 1 0 0 0 .54-.54c.018-.042.045-.129.06-.357C21 19.79 21 19.48 21 19s0-.79-.017-1.026c-.015-.228-.042-.315-.06-.357a1 1 0 0 0-.54-.54c-.042-.018-.129-.045-.357-.06A16.885 16.885 0 0 0 19 17H5Z" clip-rule="evenodd"/>
</svg>
