<svg xmlns="http://www.w3.org/2000/svg" width="24" height="24" viewBox="0 0 24 24">
  <path d="M2 18.2c0-1.12 0-1.68.218-2.108a2 2 0 0 1 .874-.874C3.52 15 4.08 15 5.2 15h13.6c1.12 0 1.68 0 2.108.218a2 2 0 0 1 .874.874C22 16.52 22 17.08 22 18.2v.6c0 1.12 0 1.68-.218 2.108a2 2 0 0 1-.874.874C20.48 22 19.92 22 18.8 22H5.2c-1.12 0-1.68 0-2.108-.218a2 2 0 0 1-.874-.874C2 20.48 2 19.92 2 18.8v-.6Z" opacity=".2"/>
  <path fill-rule="evenodd" d="M5.103 1.691A1 1 0 0 1 5.2 3.102a9 9 0 0 0-1.893 8.239 1 1 0 1 1-1.932.518 11 11 0 0 1 2.316-10.07 1 1 0 0 1 1.41-.098Zm13.79 0a1 1 0 0 1 1.412.099 11 11 0 0 1 2.316 10.069 1 1 0 0 1-1.932-.518 9 9 0 0 0-1.894-8.239 1 1 0 0 1 .099-1.41ZM16.092 4.5a1 1 0 0 1 1.405.164 7.002 7.002 0 0 1 1.265 6.153 1 1 0 0 1-1.932-.517 5.002 5.002 0 0 0-.902-4.395 1 1 0 0 1 .164-1.405Zm-8.182 0a1 1 0 0 1 .164 1.405 5.002 5.002 0 0 0-.902 4.395 1 1 0 0 1-1.932.518 7.002 7.002 0 0 1 1.265-6.154A1 1 0 0 1 7.91 4.5ZM12 8a1 1 0 0 1 1 1v5h5.838c.528 0 .982 0 1.357.03.395.033.789.104 1.167.297a3 3 0 0 1 1.311 1.311c.193.378.264.772.296 1.167.031.375.031.83.031 1.356v.678c0 .527 0 .982-.03 1.356-.033.395-.104.789-.297 1.167a3 3 0 0 1-1.311 1.311c-.378.193-.772.264-1.167.296-.375.031-.83.031-1.356.031H5.16c-.527 0-.981 0-1.356-.03-.395-.033-.789-.104-1.167-.297a3 3 0 0 1-1.311-1.311c-.193-.378-.264-.772-.296-1.167C1 19.82 1 19.365 1 18.838v-.677c0-.527 0-.982.03-1.356.033-.395.104-.789.297-1.167a3 3 0 0 1 1.311-1.311c.378-.193.772-.264 1.167-.296C4.18 14 4.635 14 5.161 14H11V9a1 1 0 0 1 1-1Zm-6.8 8c-.577 0-.949 0-1.232.024-.272.022-.373.06-.422.085a1 1 0 0 0-.437.437c-.025.05-.063.15-.085.422C3 17.25 3 17.623 3 18.2v.6c0 .577 0 .949.024 1.232.022.272.06.372.085.422a1 1 0 0 0 .437.437c.05.025.15.063.422.085C4.25 21 4.623 21 5.2 21h13.6c.577 0 .949 0 1.232-.024.272-.022.373-.06.422-.085a1 1 0 0 0 .437-.437c.025-.05.063-.15.085-.422C21 19.75 21 19.377 21 18.8v-.6c0-.577 0-.949-.024-1.232-.022-.272-.06-.372-.085-.422a1 1 0 0 0-.437-.437c-.05-.025-.15-.063-.422-.085C19.75 16 19.377 16 18.8 16H5.2Zm-.7 2.5a1 1 0 0 1 1-1h4a1 1 0 1 1 0 2h-4a1 1 0 0 1-1-1Z" clip-rule="evenodd"/>
</svg>
