<svg xmlns="http://www.w3.org/2000/svg" width="24" height="24" viewBox="0 0 24 24">
  <path fill-rule="evenodd" d="M9 16a1 1 0 0 1 1 1v3h4v-3a1 1 0 1 1 2 0v4a1 1 0 0 1-1 1H9a1 1 0 0 1-1-1v-4a1 1 0 0 1 1-1Z" clip-rule="evenodd" opacity=".5"/>
  <path fill-rule="evenodd" d="M5.161 2H18.84c.527 0 .982 0 1.356.03.395.033.789.104 1.167.297a3 3 0 0 1 1.311 1.311c.193.378.264.772.296 1.167.031.375.031.83.031 1.356v7.678c0 .527 0 .981-.03 1.356-.033.395-.104.789-.297 1.167a3 3 0 0 1-1.311 1.311c-.378.193-.772.264-1.167.296-.375.031-.83.031-1.357.031H5.162c-.527 0-.981 0-1.356-.03-.395-.033-.789-.104-1.167-.297a3 3 0 0 1-1.311-1.311c-.193-.378-.264-.772-.296-1.167C1 14.82 1 14.365 1 13.838V6.162c0-.527 0-.981.03-1.356.033-.395.104-.789.297-1.167a3 3 0 0 1 1.311-1.311c.378-.193.772-.264 1.167-.296C4.18 2 4.635 2 5.161 2ZM3.968 4.024c-.272.022-.373.06-.422.085a1 1 0 0 0-.437.437c-.025.05-.063.15-.085.422C3 5.25 3 5.623 3 6.2v7.6c0 .577 0 .949.024 1.232.022.272.06.373.085.422a1 1 0 0 0 .437.437c.05.025.15.063.422.085C4.25 16 4.623 16 5.2 16h13.6c.577 0 .949 0 1.232-.024.272-.022.372-.06.422-.085a1 1 0 0 0 .437-.437c.025-.05.063-.15.085-.422C21 14.75 21 14.377 21 13.8V6.2c0-.577 0-.949-.024-1.232-.022-.272-.06-.373-.085-.422a1 1 0 0 0-.437-.437c-.05-.025-.15-.063-.422-.085C19.75 4 19.377 4 18.8 4H5.2c-.577 0-.949 0-1.232.024Z" clip-rule="evenodd"/>
</svg>
