<svg xmlns="http://www.w3.org/2000/svg" width="24" height="24" viewBox="0 0 24 24">
  <path d="M2 7.8c0-1.68 0-2.52.327-3.162a3 3 0 0 1 1.311-1.311C4.28 3 5.12 3 6.8 3h10.4c1.68 0 2.52 0 3.162.327a3 3 0 0 1 1.311 1.311C22 5.28 22 6.12 22 7.8v4.4c0 1.68 0 2.52-.327 3.162a3 3 0 0 1-1.311 1.311C19.72 17 18.88 17 17.2 17H6.8c-1.68 0-2.52 0-3.162-.327a3 3 0 0 1-1.311-1.311C2 14.72 2 13.88 2 12.2V7.8Z" opacity=".2"/>
  <path fill-rule="evenodd" d="M6.759 2H17.24c.805 0 1.47 0 2.01.044.563.046 1.08.145 1.565.392a4 4 0 0 1 1.748 1.748c.247.485.346 1.002.392 1.564C23 6.29 23 6.954 23 7.758v4.483c0 .805 0 1.47-.044 2.01-.046.563-.145 1.08-.392 1.565a4 4 0 0 1-1.748 1.748c-.485.247-1.002.346-1.564.392-.541.044-1.206.044-2.01.044H13v2h3a1 1 0 1 1 0 2H8a1 1 0 1 1 0-2h3v-2H6.759c-.805 0-1.47 0-2.01-.044-.563-.046-1.08-.145-1.565-.392a4 4 0 0 1-1.748-1.748c-.247-.485-.346-1.002-.392-1.564C1 13.71 1 13.046 1 12.242V7.758c0-.805 0-1.47.044-2.01.046-.563.145-1.08.392-1.565a4 4 0 0 1 1.748-1.748c.485-.247 1.002-.346 1.564-.392C5.29 2 5.954 2 6.758 2ZM17.2 16c.857 0 1.439 0 1.889-.038.438-.035.663-.1.819-.18a2 2 0 0 0 .874-.874c.08-.156.145-.38.18-.819.037-.45.038-1.032.038-1.889V7.8c0-.857 0-1.439-.038-1.889-.035-.438-.1-.663-.18-.819a2 2 0 0 0-.874-.874c-.156-.08-.38-.145-.819-.18C18.639 4 18.057 4 17.2 4H6.8c-.857 0-1.439 0-1.889.038-.438.035-.663.1-.819.18a2 2 0 0 0-.874.874c-.08.156-.145.38-.18.819C3 6.361 3 6.943 3 7.8v4.4c0 .857 0 1.439.038 1.889.035.438.1.663.18.819a2 2 0 0 0 .874.874c.156.08.38.145.819.18C5.361 16 5.943 16 6.8 16h10.4Z" clip-rule="evenodd"/>
</svg>
