<svg xmlns="http://www.w3.org/2000/svg" width="24" height="24" viewBox="0 0 24 24">
  <path d="M15 21v-4H9v4h6Z" opacity=".2"/>
  <path fill-rule="evenodd" d="M5.161 2H18.84c.527 0 .982 0 1.356.03.395.033.789.104 1.167.297a3 3 0 0 1 1.311 1.311c.193.378.264.772.296 1.167.031.375.031.83.031 1.356v7.678c0 .527 0 .981-.03 1.356-.033.395-.104.789-.297 1.167a3 3 0 0 1-1.311 1.311c-.378.193-.772.264-1.167.296-.375.031-.83.031-1.357.031H16v3a1 1 0 0 1-1 1H9a1 1 0 0 1-1-1v-3H5.161c-.527 0-.981 0-1.356-.03-.395-.033-.789-.104-1.167-.297a3 3 0 0 1-1.311-1.311c-.193-.378-.264-.772-.296-1.167C1 14.82 1 14.365 1 13.838V6.162c0-.527 0-.981.03-1.356.033-.395.104-.789.297-1.167a3 3 0 0 1 1.311-1.311c.378-.193.772-.264 1.167-.296C4.18 2 4.635 2 5.161 2ZM10 18v2h4v-2h-4Zm-4.8-2c-.577 0-.949 0-1.232-.024-.272-.022-.373-.06-.422-.085a1 1 0 0 1-.437-.437c-.025-.05-.063-.15-.085-.422C3 14.75 3 14.377 3 13.8V6.2c0-.577 0-.949.024-1.232.022-.272.06-.373.085-.422a1 1 0 0 1 .437-.437c.05-.025.15-.063.422-.085C4.25 4 4.623 4 5.2 4h13.6c.577 0 .949 0 1.232.024.272.022.372.06.422.085a1 1 0 0 1 .437.437c.025.05.063.15.085.422C21 5.25 21 5.623 21 6.2v7.6c0 .577 0 .949-.024 1.232-.022.272-.06.373-.085.422a1 1 0 0 1-.437.437c-.05.025-.15.063-.422.085C19.75 16 19.377 16 18.8 16H5.2Z" clip-rule="evenodd"/>
</svg>
