<svg xmlns="http://www.w3.org/2000/svg" width="24" height="24" viewBox="0 0 24 24">
  <path fill-rule="evenodd" d="M18 1a1 1 0 0 1 .894.553l.618 1.235c.283.565.369.728.473.864a2 2 0 0 0 .363.363c.136.104.299.19.864.473l1.235.618a1 1 0 0 1 0 1.788l-1.235.618c-.565.283-.728.369-.864.473a2 2 0 0 0-.363.363c-.104.136-.19.299-.473.864l-.618 1.235a1 1 0 0 1-1.788 0l-.618-1.235c-.283-.565-.369-.728-.473-.864a2 2 0 0 0-.363-.363c-.136-.104-.299-.19-.864-.473l-1.235-.618a1 1 0 0 1 0-1.788l1.235-.618c.565-.283.728-.369.864-.473a2 2 0 0 0 .363-.363c.104-.136.19-.299.473-.864l.618-1.235A1 1 0 0 1 18 1Zm0 3.228a4.42 4.42 0 0 1-.401.645 4 4 0 0 1-.726.726 4.423 4.423 0 0 1-.645.401c.242.128.451.252.645.401a4 4 0 0 1 .726.726c.149.194.273.403.401.645a4.42 4.42 0 0 1 .401-.645 4 4 0 0 1 .726-.726c.194-.149.403-.273.645-.401a4.423 4.423 0 0 1-.645-.401 4 4 0 0 1-.726-.726A4.42 4.42 0 0 1 18 4.228Z" clip-rule="evenodd" opacity=".5"/>
  <path fill-rule="evenodd" d="M11.565 2.698a1 1 0 0 1-.458 1.17 6.617 6.617 0 1 0 9.025 9.025 1 1 0 0 1 1.863.59C21.49 18.824 16.994 23 11.521 23 5.712 23 1 18.29 1 12.479 1 7.006 5.177 2.51 10.517 2.004a1 1 0 0 1 1.048.694ZM6.918 5.306a8.521 8.521 0 1 0 11.775 11.776A8.617 8.617 0 0 1 6.919 5.306Z" clip-rule="evenodd"/>
</svg>
