<svg xmlns="http://www.w3.org/2000/svg" width="24" height="24" viewBox="0 0 24 24">
  <path d="M16.38 20.992A9.96 9.96 0 0 1 12 22C6.477 22 2 17.523 2 12S6.477 2 12 2a9.96 9.96 0 0 1 4.38 1.008 9 9 0 1 0 0 17.984Z" opacity=".2"/>
  <path fill-rule="evenodd" d="M1 12C1 5.925 5.925 1 12 1c1.726 0 3.363.398 4.819 1.11a1 1 0 0 1-.48 1.897 8 8 0 1 0 0 15.986 1 1 0 0 1 .48 1.898A10.96 10.96 0 0 1 12 23C5.925 23 1 18.075 1 12Zm10.62-8.992a9 9 0 0 0 0 17.984A10 10 0 0 1 6 12a10 10 0 0 1 5.62-8.992ZM19.4 5.2a1 1 0 0 1 1.401.198 11.006 11.006 0 0 1-.002 13.204 1 1 0 0 1-1.598-1.202 9.006 9.006 0 0 0 .001-10.8 1 1 0 0 1 .199-1.4Z" clip-rule="evenodd"/>
</svg>
