<svg xmlns="http://www.w3.org/2000/svg" width="24" height="24" viewBox="0 0 24 24">
  <path d="M22 15.844a10.424 10.424 0 0 1-4.306.925c-5.779 0-10.463-4.684-10.463-10.462 0-1.536.33-2.994.925-4.307A10.464 10.464 0 0 0 2 11.538C2 17.316 6.684 22 12.462 22c4.243 0 7.896-2.526 9.538-6.156Z" opacity=".2"/>
  <path fill-rule="evenodd" d="M8.863 1.293a1 1 0 0 1 .204 1.12 9.425 9.425 0 0 0-.836 3.894 9.462 9.462 0 0 0 9.463 9.462c1.39 0 2.707-.3 3.894-.836a1 1 0 0 1 1.323 1.323A11.464 11.464 0 0 1 12.462 23C6.132 23 1 17.868 1 11.538c0-4.65 2.769-8.652 6.744-10.45a1 1 0 0 1 1.119.205ZM6.413 4.26A9.462 9.462 0 1 0 19.74 17.587a11.5 11.5 0 0 1-2.046.182c-6.33 0-11.462-5.132-11.462-11.462 0-.698.063-1.382.182-2.046Z" clip-rule="evenodd"/>
</svg>
