<svg xmlns="http://www.w3.org/2000/svg" width="24" height="24" viewBox="0 0 24 24">
  <path d="m18 2 .618 1.236c.265.53.398.796.575 1.026.158.204.34.387.545.545.23.177.495.31 1.026.575L22 6l-1.236.618c-.53.265-.796.398-1.026.575-.204.158-.387.34-.545.545-.177.23-.31.495-.575 1.026L18 10l-.618-1.236c-.265-.53-.398-.796-.575-1.026a2.996 2.996 0 0 0-.545-.545c-.23-.177-.495-.31-1.026-.575L14 6l1.236-.618c.53-.265.796-.398 1.026-.575.204-.158.387-.34.545-.545.177-.23.31-.495.575-1.026L18 2Z" opacity=".2"/>
  <path fill-rule="evenodd" d="M18 1a1 1 0 0 1 .894.553l.618 1.235c.283.565.369.728.473.864a2 2 0 0 0 .363.363c.136.104.299.19.864.473l1.235.618a1 1 0 0 1 0 1.788l-1.235.618c-.565.283-.728.369-.864.473a2 2 0 0 0-.363.363c-.104.136-.19.299-.473.864l-.618 1.235a1 1 0 0 1-1.788 0l-.618-1.235c-.283-.565-.369-.728-.473-.864a2 2 0 0 0-.363-.363c-.136-.104-.299-.19-.864-.473l-1.235-.618a1 1 0 0 1 0-1.788l1.235-.618c.565-.283.728-.369.864-.473a2 2 0 0 0 .363-.363c.104-.136.19-.299.473-.864l.618-1.235A1 1 0 0 1 18 1Zm0 3.228a4.42 4.42 0 0 1-.401.645 4 4 0 0 1-.726.726 4.423 4.423 0 0 1-.645.401c.242.128.451.252.645.401a4 4 0 0 1 .726.726c.149.194.273.403.401.645a4.42 4.42 0 0 1 .401-.645 4 4 0 0 1 .726-.726c.194-.149.403-.273.645-.401a4.423 4.423 0 0 1-.645-.401 4 4 0 0 1-.726-.726A4.42 4.42 0 0 1 18 4.228Zm-6.435-1.53a1 1 0 0 1-.458 1.17 6.617 6.617 0 1 0 9.025 9.025 1 1 0 0 1 1.863.59C21.49 18.824 16.994 23 11.521 23 5.712 23 1 18.29 1 12.479 1 7.006 5.177 2.51 10.517 2.004a1 1 0 0 1 1.048.694ZM6.918 5.306a8.521 8.521 0 1 0 11.775 11.776A8.617 8.617 0 0 1 6.919 5.306Z" clip-rule="evenodd"/>
</svg>
