<svg xmlns="http://www.w3.org/2000/svg" width="24" height="24" viewBox="0 0 24 24">
  <path d="M3.313 17.305c1.732-.16 3.428-.619 5.217-.747 4.733-.337 5.568 2.3 10.062 1.68 1.118-.15 3.88-.594 3.731-2.397-.927-2.92-1.023-3.635-2.476-6.51-.397-.784-1.272-2.269-1.827-2.613-.69-.43-1.829.787-2.265 1.425-.126.184-.164.261.01.56.52.967 1.913 3.7.719 3.497-.39-.067-.383-.48-.705-1.297a41.467 41.467 0 0 0-.81-1.952c-.77-1.722-2.56-5.365-4.21-6.546-1.34-.956-2.487-.058-3.424 1.023-2.293 2.65-4.168 7.021-5.654 10.64-.657 1.603-.312 3.28 1.632 3.237Zm-1.987 4.601c1.55.457 2.678-.9 5.599-1.252 5.444-.656 7.73 2.434 11.654 2.344a5.247 5.247 0 0 0 2.728-.826c.592-.386 1.472-1.221 1.662-2.044.137-.643-.193-1.203-.73-1.196-.438.008-.694.321-.904.555-2.596 2.923-6.065.507-8.96-.37-3.056-.925-6.883-.757-9.906.493-.428.177-.958.369-1.225.713-.406.528-.254 1.228.082 1.583Z"/>
</svg>
