<svg xmlns="http://www.w3.org/2000/svg" width="24" height="24" viewBox="0 0 24 24">
  <path fill-rule="evenodd" d="M12 1a1 1 0 0 1 1 1v9h9a1 1 0 1 1 0 2h-9v9a1 1 0 1 1-2 0v-9H2a1 1 0 1 1 0-2h9V2a1 1 0 0 1 1-1Z" clip-rule="evenodd" opacity=".5"/>
  <path fill-rule="evenodd" d="M11.293 1.293a1 1 0 0 1 1.414 0l3 3a1 1 0 0 1-1.414 1.414L12 3.414 9.707 5.707a1 1 0 0 1-1.414-1.414l3-3Zm-5.586 7a1 1 0 0 1 0 1.414L3.414 12l2.293 2.293a1 1 0 1 1-1.414 1.414l-3-3a1 1 0 0 1 0-1.414l3-3a1 1 0 0 1 1.414 0Zm12.586 0a1 1 0 0 1 1.414 0l3 3a1 1 0 0 1 0 1.414l-3 3a1 1 0 0 1-1.414-1.414L20.586 12l-2.293-2.293a1 1 0 0 1 0-1.414Zm-10 10a1 1 0 0 1 1.414 0L12 20.586l2.293-2.293a1 1 0 0 1 1.414 1.414l-3 3a1 1 0 0 1-1.414 0l-3-3a1 1 0 0 1 0-1.414Z" clip-rule="evenodd"/>
</svg>
