<svg xmlns="http://www.w3.org/2000/svg" width="24" height="24" viewBox="0 0 24 24">
  <path d="M11.5 21a3 3 0 1 0 0-6 3 3 0 0 0 0 6Z" opacity=".2"/>
  <path fill-rule="evenodd" d="m17.226 3.245 3.721 1.86a1 1 0 1 1-.894 1.79l-3.685-1.843a11.537 11.537 0 0 0-.846-.4l-.004.031c-.017.19-.018.458-.018.906V18a4 4 0 1 1-2-3.465V5.548c0-.393 0-.754.027-1.047.027-.301.093-.684.334-1.03a2 2 0 0 1 1.347-.831c.416-.062.788.05 1.07.16.274.108.596.27.948.445ZM13.5 18a2 2 0 1 0-4 0 2 2 0 0 0 4 0Zm-7-15a1 1 0 0 1 1 1v2h2a1 1 0 1 1 0 2h-2v2a1 1 0 1 1-2 0V8h-2a1 1 0 1 1 0-2h2V4a1 1 0 0 1 1-1Z" clip-rule="evenodd"/>
</svg>
