<svg xmlns="http://www.w3.org/2000/svg" width="24" height="24" viewBox="0 0 24 24">
  <path fill-rule="evenodd" d="m14.726 3.245.037.018 3.684 1.843a1 1 0 1 1-.894 1.788l-3.685-1.842a11.528 11.528 0 0 0-.847-.4l-.003.031c-.017.19-.018.458-.018.906V18a1 1 0 1 1-2 0V5.548c0-.393 0-.754.027-1.047.027-.301.093-.684.334-1.03a2 2 0 0 1 1.347-.831l.146.989-.146-.99c.416-.061.788.052 1.07.162.274.107.596.268.948.444Z" clip-rule="evenodd" opacity=".5"/>
  <path fill-rule="evenodd" d="M9 16a2 2 0 1 0 0 4 2 2 0 0 0 0-4Zm-4 2a4 4 0 1 1 8 0 4 4 0 0 1-8 0Z" clip-rule="evenodd"/>
</svg>
