<svg xmlns="http://www.w3.org/2000/svg" width="24" height="24" viewBox="0 0 24 24">
  <path fill-rule="evenodd" d="M19.968 4.199c-.138.01-.329.042-.667.098l-8.8 1.467a7.552 7.552 0 0 0-.482.088l-.01.003v.01a7.57 7.57 0 0 0-.009.49V18a1 1 0 1 1-2 0V6.327c0-.216 0-.43.014-.613a2.01 2.01 0 0 1 .161-.685 2 2 0 0 1 .718-.847 2.01 2.01 0 0 1 .649-.272c.178-.044.39-.079.603-.115l.028-.004 8.834-1.473a10 10 0 0 1 .804-.113 2.04 2.04 0 0 1 .885.1 2 2 0 0 1 1.039.88c.17.298.223.604.245.858.02.235.02.516.02.81V16a1 1 0 1 1-2 0V4.889c0-.343 0-.536-.013-.674 0-.006 0-.012-.002-.017h-.017Z" clip-rule="evenodd" opacity=".5"/>
  <path fill-rule="evenodd" d="M18 14a2 2 0 1 0 0 4 2 2 0 0 0 0-4Zm-4 2a4 4 0 1 1 8 0 4 4 0 0 1-8 0Zm-8 0a2 2 0 1 0 0 4 2 2 0 0 0 0-4Zm-4 2a4 4 0 1 1 8 0 4 4 0 0 1-8 0Z" clip-rule="evenodd"/>
</svg>
