<svg xmlns="http://www.w3.org/2000/svg" width="24" height="24" viewBox="0 0 24 24">
  <path d="M6 21a3 3 0 1 0 0-6 3 3 0 0 0 0 6Zm12-2a3 3 0 1 0 0-6 3 3 0 0 0 0 6Z" opacity=".2"/>
  <path fill-rule="evenodd" d="M19.968 4.199c-.138.01-.329.042-.667.098l-8.8 1.467a7.537 7.537 0 0 0-.482.088l-.01.003v.01a7.57 7.57 0 0 0-.009.49V18a4 4 0 1 1-2-3.465V6.327c0-.216 0-.43.014-.613a2.01 2.01 0 0 1 .161-.686 2 2 0 0 1 .718-.846 2.01 2.01 0 0 1 .649-.272c.178-.044.39-.08.603-.115l8.862-1.477a10 10 0 0 1 .804-.113 2.04 2.04 0 0 1 .885.1 2 2 0 0 1 1.039.88c.17.298.223.604.245.858.02.235.02.516.02.81V16a4 4 0 1 1-2-3.465V4.89c0-.343 0-.536-.013-.674 0-.006 0-.012-.002-.017h-.017ZM20 16a2 2 0 1 0-4 0 2 2 0 0 0 4 0ZM8 18a2 2 0 1 0-4 0 2 2 0 0 0 4 0Z" clip-rule="evenodd"/>
</svg>
