<svg xmlns="http://www.w3.org/2000/svg" width="24" height="24" viewBox="0 0 24 24">
  <path fill-rule="evenodd" d="M1.293 1.293a1 1 0 0 1 1.414 0l20 20a1 1 0 0 1-1.414 1.414l-.421-.42a1.5 1.5 0 0 1-.56.322c-.424.133-.817.008-.999-.054a9.807 9.807 0 0 1-.726-.299l-6.591-2.9-6.591 2.9a9.786 9.786 0 0 1-.727.299c-.182.062-.575.187-.998.054a1.5 1.5 0 0 1-.98-.979c-.134-.423-.009-.816.053-.998.071-.21.183-.465.298-.727L7.758 9.172 1.293 2.707a1 1 0 0 1 0-1.414Zm7.983 9.397-4.172 9.513 6.167-2.713.023-.01c.085-.038.26-.117.454-.15.164-.027.331-.027.495 0 .194.033.37.112.454.15l.024.01 5.991 2.636-9.436-9.436Zm2.05-8.787a1.5 1.5 0 0 1 1.34 0c.373.186.566.514.658.681.1.183.203.417.305.651l.015.034 3.172 7.233a1 1 0 1 1-1.831.803l-2.99-6.815-.608 1.387a1 1 0 1 1-1.832-.803l.792-1.805.015-.034c.103-.234.205-.468.306-.65.091-.168.284-.496.658-.682Z" clip-rule="evenodd"/>
</svg>
