<svg xmlns="http://www.w3.org/2000/svg" width="24" height="24" viewBox="0 0 24 24">
  <path fill-rule="evenodd" d="M20.24 3.76 11.7 7.093a1 1 0 1 1-.727-1.864l8.997-3.51c.24-.094.477-.187.677-.245.183-.053.551-.149.947-.016.447.149.798.5.948.947.132.396.036.764-.017.947-.058.2-.151.438-.244.677l-3.523 9.026a1 1 0 1 1-1.863-.727L20.24 3.76ZM8.55 7.25a1 1 0 0 1-.568 1.295L4.255 9.998l6.28 2.442.023.01c.087.033.267.101.427.215a1.5 1.5 0 0 1 .35.35c.114.16.182.34.215.427l.01.024 2.442 6.28 1.453-3.724a1 1 0 1 1 1.863.727l-1.654 4.237c-.104.267-.204.525-.303.724-.085.173-.275.54-.669.744a1.5 1.5 0 0 1-1.384-.001c-.394-.205-.583-.572-.668-.744-.098-.2-.199-.458-.303-.725l-2.61-6.712-6.71-2.61a9.553 9.553 0 0 1-.726-.302c-.172-.085-.539-.274-.744-.668a1.5 1.5 0 0 1 0-1.384c.204-.394.57-.584.743-.669.199-.098.457-.2.724-.303l.036-.014L7.254 6.68a1 1 0 0 1 1.296.568Zm1.357 7.094Z" clip-rule="evenodd" opacity=".5"/>
  <path fill-rule="evenodd" d="M2.293 2.293a1 1 0 0 1 1.414 0l18 18a1 1 0 0 1-1.414 1.414l-18-18a1 1 0 0 1 0-1.414Z" clip-rule="evenodd"/>
</svg>
