<svg xmlns="http://www.w3.org/2000/svg" width="24" height="24" viewBox="0 0 24 24">
  <path d="M5.036 21.326c-.584.257-.877.385-1.056.329a.5.5 0 0 1-.327-.326c-.056-.18.072-.472.329-1.057l7.28-16.602c.232-.528.348-.792.51-.872a.5.5 0 0 1 .447 0c.162.08.278.344.51.872l7.28 16.602c.257.585.385.877.329 1.057a.5.5 0 0 1-.327.326c-.18.056-.472-.072-1.056-.33l-6.637-2.92a1.072 1.072 0 0 0-.24-.088.503.503 0 0 0-.165 0c-.062.01-.121.036-.24.088l-6.637 2.92Z" opacity=".2"/>
  <path fill-rule="evenodd" d="M11.326 1.903a1.5 1.5 0 0 1 1.34 0c.373.186.566.514.658.681.1.183.203.417.305.651l.015.034 7.297 16.636c.115.262.226.516.297.727.062.182.187.575.053.998a1.5 1.5 0 0 1-.98.979c-.422.133-.816.008-.997-.054a9.78 9.78 0 0 1-.727-.299l-6.591-2.9-6.591 2.9a9.787 9.787 0 0 1-.727.299c-.182.062-.575.187-.998.054a1.5 1.5 0 0 1-.98-.979c-.134-.423-.009-.816.053-.998.071-.21.183-.465.298-.727l7.296-16.636.015-.034c.103-.234.205-.468.306-.65.091-.168.284-.496.658-.682Zm.847 17.376Zm-.177-14.79L5.104 20.204l6.167-2.713.023-.01c.085-.038.26-.117.454-.15.164-.027.331-.027.495 0 .194.033.37.112.454.15.01.003.017.007.024.01l6.167 2.713L11.996 4.49Z" clip-rule="evenodd"/>
</svg>
