<svg xmlns="http://www.w3.org/2000/svg" width="24" height="24" viewBox="0 0 24 24">
  <path d="m10.628 13.828 2.628 6.758c.231.595.347.893.514.98a.5.5 0 0 0 .461 0c.167-.086.283-.384.516-.98l1.64-4.2-8.769-8.774-4.205 1.641c-.595.233-.893.349-.98.516a.5.5 0 0 0 .001.461c.087.167.385.283.98.514l6.758 2.628c.12.047.181.07.232.107a.501.501 0 0 1 .117.117c.036.05.06.111.107.232Z" opacity=".2"/>
  <path fill-rule="evenodd" d="M20.24 3.76 11.7 7.093a1 1 0 1 1-.727-1.864l8.997-3.51c.24-.094.477-.187.677-.245.183-.053.551-.149.947-.016.447.149.798.5.948.947.132.396.036.764-.017.947-.058.2-.151.438-.244.677l-3.523 9.026a1 1 0 1 1-1.863-.727L20.24 3.76ZM2.293 2.293a1 1 0 0 1 1.414 0L8.26 6.845a.993.993 0 0 1 .128.127l8.68 8.68.052.052 4.588 4.589a1 1 0 0 1-1.414 1.414l-3.532-3.532-1.097 2.81c-.104.268-.204.526-.303.726-.085.172-.275.538-.669.743a1.5 1.5 0 0 1-1.384-.001c-.394-.205-.583-.572-.668-.744-.098-.2-.199-.458-.303-.725l-2.61-6.712-6.71-2.61a9.553 9.553 0 0 1-.726-.302c-.172-.085-.539-.274-.744-.668a1.5 1.5 0 0 1 0-1.384c.204-.394.57-.584.743-.669.199-.098.457-.2.724-.303l.036-.014 2.775-1.083-3.532-3.532a1 1 0 0 1 0-1.414Zm5.076 6.49L4.255 9.998l6.28 2.442.023.01c.087.033.267.101.427.215a1.5 1.5 0 0 1 .35.35c.114.16.182.34.215.427l.01.024 2.442 6.28 1.215-3.115-7.848-7.848Zm2.538 5.56Z" clip-rule="evenodd"/>
</svg>
