<svg xmlns="http://www.w3.org/2000/svg" width="24" height="24" viewBox="0 0 24 24">
  <path fill-rule="evenodd" d="M20.24 3.76 4.253 10l6.28 2.442.024.009c.087.033.266.101.426.215a1.5 1.5 0 0 1 .35.35 1.9 1.9 0 0 1 .226.451L14 19.746 20.24 3.76Zm.407-2.286c.183-.053.552-.149.948-.016.447.15.798.5.947.947.132.396.037.764-.017.948-.058.2-.15.437-.244.676l-6.617 16.957a9.765 9.765 0 0 1-.304.725c-.085.172-.274.538-.668.743a1.5 1.5 0 0 1-1.385-.001c-.393-.205-.582-.572-.667-.744-.099-.2-.2-.458-.303-.725l-2.61-6.711-6.676-2.596-.035-.014c-.267-.104-.526-.204-.725-.303-.173-.085-.54-.274-.744-.668a1.5 1.5 0 0 1-.001-1.384c.204-.394.57-.583.743-.669.2-.098.458-.2.725-.303l.035-.014 16.922-6.604c.239-.093.477-.186.676-.244Z" clip-rule="evenodd"/>
</svg>
