<svg xmlns="http://www.w3.org/2000/svg" width="24" height="24" fill="none" viewBox="0 0 24 24">
  <path stroke="#2970FF" stroke-linecap="round" stroke-linejoin="round" stroke-width="2" d="M5.036 21.326c-.584.257-.877.385-1.056.329a.5.5 0 0 1-.326-.326c-.057-.18.071-.472.328-1.057L11.263 3.67c.232-.528.347-.792.51-.872a.5.5 0 0 1 .446 0c.162.08.278.344.51.872l7.28 16.602c.257.585.386.877.329 1.057a.5.5 0 0 1-.327.326c-.18.056-.471-.072-1.056-.33l-6.637-2.92a1.07 1.07 0 0 0-.24-.088.503.503 0 0 0-.165 0c-.062.01-.12.036-.24.088l-6.637 2.92Z"/>
</svg>
