<svg xmlns="http://www.w3.org/2000/svg" width="24" height="24" viewBox="0 0 24 24">
  <path fill-rule="evenodd" d="M11.326 1.903a1.5 1.5 0 0 1 1.34 0c.373.186.566.514.658.681.1.182.203.416.306.651l.014.034 7.297 16.636c.115.262.227.516.298.727.061.182.186.575.053.998a1.5 1.5 0 0 1-.98.979c-.423.133-.816.007-.998-.055-.21-.071-.465-.183-.727-.298l-6.591-2.9-6.591 2.9c-.262.115-.516.227-.727.299-.182.061-.575.187-.998.053a1.5 1.5 0 0 1-.98-.978c-.133-.423-.008-.816.053-.998.072-.211.183-.465.298-.727l7.297-16.636.014-.034c.103-.235.206-.469.306-.65.092-.168.285-.496.658-.682Zm.847 17.376Zm-.177-14.79L5.104 20.203l6.167-2.713.023-.01a1.87 1.87 0 0 1 .454-.15c.164-.027.332-.027.496 0 .193.033.369.111.454.15l.023.01 6.167 2.713L11.996 4.49Z" clip-rule="evenodd"/>
</svg>
