<svg xmlns="http://www.w3.org/2000/svg" width="24" height="24" viewBox="0 0 24 24">
  <path fill-rule="evenodd" d="M20.24 3.76 11.7 7.094a1 1 0 0 1-.726-1.863l8.997-3.512c.239-.093.477-.186.676-.244.183-.053.552-.149.948-.016.447.15.798.5.947.947.132.396.037.764-.017.948-.058.2-.15.437-.244.676l-3.522 9.026a1 1 0 1 1-1.863-.727l3.343-8.567ZM2.291 2.294a1 1 0 0 1 1.415 0l4.551 4.552a.994.994 0 0 1 .128.128l8.68 8.68c.018.016.035.034.052.051l4.589 4.59a1 1 0 1 1-1.415 1.413l-3.531-3.532-1.097 2.81a9.765 9.765 0 0 1-.304.726c-.085.172-.274.538-.668.743a1.5 1.5 0 0 1-1.385-.001c-.393-.205-.582-.572-.667-.744-.099-.2-.2-.458-.303-.725l-2.61-6.711-6.711-2.61c-.267-.104-.526-.204-.725-.303-.173-.085-.54-.274-.744-.668a1.5 1.5 0 0 1-.001-1.384c.204-.394.57-.583.743-.669.2-.098.458-.2.725-.303l.035-.014L5.823 7.24 2.291 3.708a1 1 0 0 1 0-1.414Zm5.076 6.49L4.254 10l6.28 2.442.024.009c.087.033.266.101.426.215a1.5 1.5 0 0 1 .35.35 1.9 1.9 0 0 1 .226.451L14 19.746l1.215-3.115-7.848-7.848Zm2.539 5.56Z" clip-rule="evenodd"/>
</svg>
