<svg xmlns="http://www.w3.org/2000/svg" width="24" height="24" viewBox="0 0 24 24">
  <path d="M3.414 10.744c-.595-.231-.893-.347-.98-.514a.5.5 0 0 1 0-.461c.086-.167.384-.283.98-.516L20.3 2.663c.537-.21.806-.314.977-.257a.5.5 0 0 1 .316.316c.057.171-.047.44-.257.977l-6.59 16.888c-.233.595-.349.893-.516.98a.5.5 0 0 1-.461-.001c-.167-.087-.283-.384-.514-.98l-2.628-6.758c-.047-.12-.07-.181-.107-.232a.5.5 0 0 0-.117-.117 1.074 1.074 0 0 0-.232-.106l-6.758-2.629Z" opacity=".2"/>
  <path fill-rule="evenodd" d="M20.24 3.76 4.255 9.998l6.28 2.442.023.01c.087.033.267.101.427.215a1.5 1.5 0 0 1 .35.35c.114.16.182.34.215.427l.01.024 2.442 6.28L20.24 3.76Zm.408-2.286c.183-.053.551-.149.947-.016.447.149.798.5.948.947.132.396.036.764-.017.947-.058.2-.151.438-.244.677l-6.618 16.957a9.787 9.787 0 0 1-.303.724c-.085.173-.275.54-.669.744a1.5 1.5 0 0 1-1.384-.001c-.394-.205-.583-.572-.668-.744-.098-.2-.199-.458-.303-.725l-2.61-6.712-6.676-2.596-.035-.013a10.104 10.104 0 0 1-.725-.303c-.172-.085-.539-.274-.744-.668a1.5 1.5 0 0 1 0-1.384c.204-.394.57-.584.743-.669.199-.098.457-.2.724-.303l.036-.014 16.92-6.604c.24-.093.477-.186.677-.244Z" clip-rule="evenodd"/>
</svg>
