<svg xmlns="http://www.w3.org/2000/svg" width="24" height="24" viewBox="0 0 24 24">
  <path d="M19.92 22.67c-.39 0-.79-.18-1.37-.43l-6.56-2.88-6.56 2.88c-.76.34-1.22.54-1.76.37a1.5 1.5 0 0 1-.98-.98c-.17-.54.03-1 .37-1.76L8.03 8.55c.22-.51.81-.74 1.32-.51.51.22.74.81.51 1.32L5.1 20.21l6.17-2.71c.16-.07.29-.13.48-.16.17-.03.33-.03.49 0 .19.03.33.09.48.16l6.17 2.71c-.22-.5.01-1.09.52-1.31.51-.22 1.1 0 1.32.51l.2.47c.33.76.54 1.22.37 1.76-.15.47-.52.83-.98.98-.13.04-.26.06-.39.06l-.01-.01ZM15.9 11.9a1 1 0 0 1-.92-.6l-2.99-6.82-.61 1.39c-.22.5-.81.74-1.32.51a.989.989 0 0 1-.51-1.32l.79-1.81c.3-.68.5-1.12.98-1.37.42-.21.92-.21 1.34 0 .49.24.68.69.98 1.37l3.17 7.23c.22.51 0 1.1-.51 1.32-.13.06-.27.08-.4.08v.02Z" opacity=".5"/>
  <path fill-rule="evenodd" d="M1.293 1.293a1 1 0 0 1 1.414 0l20 20a1 1 0 0 1-1.414 1.414l-20-20a1 1 0 0 1 0-1.414Z" clip-rule="evenodd"/>
</svg>
