<svg xmlns="http://www.w3.org/2000/svg" width="24" height="24" fill="none" viewBox="0 0 24 24">
  <path stroke="#2970FF" stroke-linecap="round" stroke-linejoin="round" stroke-width="2" d="M3.414 10.744c-.595-.231-.893-.347-.98-.514a.5.5 0 0 1 0-.461c.086-.167.384-.283.98-.516L20.3 2.663c.537-.21.806-.314.977-.257a.5.5 0 0 1 .316.316c.057.171-.047.44-.257.977l-6.59 16.888c-.233.595-.349.893-.516.98a.5.5 0 0 1-.461-.001c-.167-.087-.283-.384-.514-.98l-2.628-6.758c-.047-.12-.07-.181-.107-.232a.5.5 0 0 0-.117-.117 1.074 1.074 0 0 0-.232-.106l-6.758-2.629Z"/>
</svg>
