<svg xmlns="http://www.w3.org/2000/svg" width="24" height="24" viewBox="0 0 24 24">
  <path d="M20.121 3.879A3 3 0 1 1 15.88 8.12a3 3 0 0 1 4.24-4.24Z" opacity=".2"/>
  <path fill-rule="evenodd" d="M19.414 4.586a2 2 0 1 0-2.828 2.828 2 2 0 0 0 2.828-2.828Zm-4.242-1.414a4 4 0 1 1 5.656 5.656 4 4 0 0 1-5.656-5.656ZM7.759 3H11a1 1 0 1 1 0 2H7.8c-.857 0-1.439 0-1.889.038-.438.035-.663.1-.819.18a2 2 0 0 0-.874.874c-.08.156-.145.38-.18.819C4 7.361 4 7.943 4 8.8v7.4c0 .857 0 1.439.038 1.889.035.438.1.663.18.819a2 2 0 0 0 .874.874c.156.08.38.145.819.18C6.361 20 6.943 20 7.8 20h7.4c.857 0 1.439 0 1.889-.038.438-.035.663-.1.819-.18a2 2 0 0 0 .874-.874c.08-.156.145-.38.18-.819.037-.45.038-1.032.038-1.889V13a1 1 0 1 1 2 0v3.241c0 .805 0 1.47-.044 2.01-.046.563-.145 1.08-.392 1.565a4 4 0 0 1-1.748 1.748c-.485.247-1.002.346-1.564.392-.541.044-1.206.044-2.01.044H7.758c-.805 0-1.47 0-2.01-.044-.563-.046-1.08-.145-1.565-.392a4 4 0 0 1-1.748-1.748c-.247-.485-.346-1.002-.392-1.564C2 17.71 2 17.046 2 16.242V8.758c0-.805 0-1.47.044-2.01.046-.563.145-1.08.392-1.565a4 4 0 0 1 1.748-1.748c.485-.247 1.002-.346 1.564-.392C6.29 3 6.954 3 7.758 3Z" clip-rule="evenodd"/>
</svg>
