<svg xmlns="http://www.w3.org/2000/svg" width="24" height="24" viewBox="0 0 24 24">
  <path d="M7.391 2.469c.173-.173.26-.26.36-.322a1 1 0 0 1 .29-.12C8.156 2 8.278 2 8.523 2h6.954c.245 0 .367 0 .482.028a1 1 0 0 1 .29.12c.1.061.187.148.36.32l4.922 4.923c.173.173.26.26.322.36.054.09.095.188.12.29.027.115.027.237.027.482v6.954c0 .245 0 .367-.028.482a.998.998 0 0 1-.12.29c-.061.1-.148.187-.32.36l-4.923 4.922c-.173.173-.26.26-.36.322a.998.998 0 0 1-.29.12c-.115.027-.237.027-.482.027H8.523c-.245 0-.367 0-.482-.028a.998.998 0 0 1-.29-.12c-.1-.061-.187-.148-.36-.32L2.47 16.608c-.173-.173-.26-.26-.322-.36a1 1 0 0 1-.12-.29C2 15.844 2 15.722 2 15.477V8.523c0-.245 0-.367.028-.482a1 1 0 0 1 .12-.29c.061-.1.148-.187.32-.36L7.392 2.47Z" opacity=".2"/>
  <path fill-rule="evenodd" d="M8.472 1h7.056c.19 0 .43-.001.665.055.204.05.399.13.578.24.206.126.375.296.509.43l.036.037 4.922 4.922.037.036c.134.134.304.303.43.51.11.178.19.373.24.577a2.8 2.8 0 0 1 .055.665v7.056c0 .19.001.43-.055.665a2.02 2.02 0 0 1-.24.578 2.795 2.795 0 0 1-.43.509l-.037.036-4.922 4.922-.036.037a2.795 2.795 0 0 1-.51.43c-.178.11-.373.19-.577.24a2.796 2.796 0 0 1-.665.055H8.472c-.19 0-.43.001-.665-.055a2.02 2.02 0 0 1-.578-.24 2.795 2.795 0 0 1-.509-.43l-.036-.037-4.922-4.922-.037-.036a2.795 2.795 0 0 1-.43-.51 2.002 2.002 0 0 1-.24-.577A2.795 2.795 0 0 1 1 15.528V8.472c0-.19-.001-.43.055-.665a2 2 0 0 1 .24-.578 2.795 2.795 0 0 1 .467-.545l4.922-4.922.036-.037c.134-.134.303-.304.51-.43a2 2 0 0 1 .577-.24C8.043 1 8.282 1 8.472 1Zm-.197 2.003-.002.002a6.167 6.167 0 0 0-.175.17L3.176 8.099a6.167 6.167 0 0 0-.171.175l-.002.002v.004A6.184 6.184 0 0 0 3 8.523v6.954c0 .131 0 .197.002.244v.004l.003.002c.032.035.078.082.17.175l4.923 4.922a6.13 6.13 0 0 0 .177.173h.004c.047.003.113.003.244.003h6.954c.131 0 .197 0 .244-.002h.004l.002-.003a6.14 6.14 0 0 0 .175-.17l4.922-4.923a6.14 6.14 0 0 0 .171-.175l.002-.002v-.004c.003-.047.003-.113.003-.244V8.523c0-.131 0-.197-.002-.244v-.004a6.13 6.13 0 0 0-.173-.177l-4.923-4.922a6.16 6.16 0 0 0-.175-.171l-.002-.002h-.004A6.18 6.18 0 0 0 15.477 3H8.523c-.131 0-.197 0-.244.002h-.004Z" clip-rule="evenodd"/>
</svg>
