<svg xmlns="http://www.w3.org/2000/svg" width="24" height="24" viewBox="0 0 24 24">
  <path d="m12 12 9-5v9.059c0 .342 0 .514-.05.666a1 1 0 0 1-.215.364c-.109.119-.258.202-.558.368l-7.4 4.111c-.284.158-.425.237-.575.267a.998.998 0 0 1-.403 0c-.15-.03-.292-.11-.576-.267l-7.4-4.11c-.3-.167-.45-.25-.558-.369a1 1 0 0 1-.215-.364C3 16.573 3 16.401 3 16.06V7l9 5Z" opacity=".2"/>
  <path fill-rule="evenodd" d="M11.597 1.185a2 2 0 0 1 .806 0c.307.063.582.217.8.34l.06.032 7.4 4.112.063.034c.23.128.522.288.745.53.193.21.339.458.428.728.103.313.102.644.101.908v8.262c.001.264.002.595-.101.908-.09.27-.235.518-.428.728-.223.242-.514.402-.745.53l-.063.034-7.4 4.111-.06.034c-.218.122-.493.276-.8.339a1.99 1.99 0 0 1-.806 0c-.307-.063-.582-.217-.8-.34l-.06-.033-7.4-4.11a.938.938 0 0 0-.063-.035c-.23-.128-.522-.288-.745-.53a2 2 0 0 1-.428-.728c-.103-.313-.102-.645-.101-.908V7.869c-.001-.264-.002-.595.101-.908a2 2 0 0 1 .428-.728c.223-.242.514-.402.745-.53l.063-.034 3.664-2.036.025-.014 3.711-2.062.06-.033c.218-.122.493-.276.8-.34ZM7.5 5.644 5.06 7 12 10.856 14.44 9.5 7.5 5.644Zm9 2.712L9.56 4.5l2.149-1.194A6.574 6.574 0 0 1 12 3.149a6.574 6.574 0 0 1 .291.157L18.941 7 16.5 8.356Zm.468 2.028a.96.96 0 0 0 .036-.02L20 8.699v7.36a6.62 6.62 0 0 1-.005.35l-.005.003a6.711 6.711 0 0 1-.299.171L13 20.301v-7.713l3.968-2.204ZM11 12.588 4 8.7v7.36a6.644 6.644 0 0 0 .005.35l.005.003c.057.036.139.082.299.171L11 20.3v-7.712Z" clip-rule="evenodd"/>
</svg>
