<svg xmlns="http://www.w3.org/2000/svg" width="24" height="24" viewBox="0 0 24 24">
  <path d="M11.612 2.216c.142-.08.212-.119.287-.134a.5.5 0 0 1 .202 0c.075.015.146.055.288.134L19.74 6.3c.411.229.617.343.685.493a.5.5 0 0 1 0 .413c-.068.15-.274.265-.685.493l-7.74 4.3-7.742-4.3c-.411-.228-.616-.342-.685-.493a.5.5 0 0 1 0-.413c.069-.15.274-.264.685-.493l7.353-4.084Z" opacity=".2"/>
  <path fill-rule="evenodd" d="M11.597 1.185a2 2 0 0 1 .806 0c.307.063.582.217.8.34l.06.033-.478.86.478-.86 7.4 4.11c.02.012.041.024.063.035.23.128.522.288.745.53l-.315.29.315-.29c.193.21.339.458.428.728.103.313.102.644.101.908V12.5a1 1 0 1 1-2 0V8.7l-2.997 1.665-.033.018L13 12.588v7.856a1 1 0 0 1 .486 1.875l-.223.123-.06.034c-.218.122-.493.276-.8.339a1.99 1.99 0 0 1-.806 0c-.307-.063-.582-.217-.8-.34a8.957 8.957 0 0 0-.06-.033l-7.4-4.11a.938.938 0 0 0-.063-.035c-.23-.128-.522-.288-.745-.53a2 2 0 0 1-.428-.728c-.103-.313-.102-.645-.101-.908V7.869c-.001-.264-.002-.595.101-.908a2 2 0 0 1 .428-.728c.223-.242.514-.402.745-.53l.063-.034L7 3.634a1 1 0 0 1 .029-.016l3.71-2.06.059-.034c.218-.122.493-.276.8-.34ZM7.5 5.644 5.06 7 12 10.856 14.44 9.5 7.5 5.644Zm9 2.712L9.56 4.5l2.149-1.194A6.586 6.586 0 0 1 12 3.149a6.574 6.574 0 0 1 .291.157L18.941 7 16.5 8.356ZM11 12.588 4 8.7v7.358a6.641 6.641 0 0 0 .005.35l.005.004c.057.036.139.082.299.171l-.486.874.486-.874L11 20.301v-7.713Zm4.793 2.705a1 1 0 0 1 1.414 0L19 17.086l1.793-1.793a1 1 0 0 1 1.414 1.414L20.414 18.5l1.793 1.793a1 1 0 0 1-1.414 1.414L19 19.914l-1.793 1.793a1 1 0 0 1-1.414-1.414l1.793-1.793-1.793-1.793a1 1 0 0 1 0-1.414Z" clip-rule="evenodd"/>
</svg>
