<svg xmlns="http://www.w3.org/2000/svg" width="24" height="24" viewBox="0 0 24 24">
  <path fill-rule="evenodd" d="M6.626 4.014a1 1 0 0 1 1.36-.388l9 5a1 1 0 1 1-.972 1.748l-9-5a1 1 0 0 1-.388-1.36Z" clip-rule="evenodd" opacity=".5"/>
  <path fill-rule="evenodd" d="M11.597 1.185a2 2 0 0 1 .806 0c.307.063.582.217.8.34l.06.033 7.4 4.11c.02.012.041.024.063.035.23.128.522.288.745.53.193.21.339.458.428.728.103.313.102.644.101.908v8.262c.001.264.002.595-.101.908-.09.27-.235.518-.428.728-.223.242-.514.402-.745.53l-.063.034-7.4 4.111-.06.034c-.218.122-.493.276-.8.339a1.99 1.99 0 0 1-.806 0c-.307-.063-.582-.217-.8-.34a8.957 8.957 0 0 0-.06-.033l-7.4-4.11a.938.938 0 0 0-.063-.035c-.23-.128-.522-.288-.745-.53a2 2 0 0 1-.428-.728c-.103-.313-.102-.645-.101-.908V7.869c-.001-.264-.002-.595.101-.908a2 2 0 0 1 .428-.728c.223-.242.514-.402.745-.53l.063-.034 7.4-4.111.06-.034c.218-.122.493-.276.8-.34ZM12 3.149a6.574 6.574 0 0 0-.291.157L5.059 7 12 10.856 18.94 7l-6.649-3.694A6.574 6.574 0 0 0 12 3.149Zm8 5.55v7.36a6.618 6.618 0 0 1-.005.35l-.005.003a6.608 6.608 0 0 1-.299.171L13 20.301v-7.713L20 8.7Zm-9 3.89-7-3.89v7.36c0 .182 0 .276.005.344v.006l.005.003c.057.036.139.082.299.171L11 20.301v-7.713Z" clip-rule="evenodd"/>
</svg>
