<svg xmlns="http://www.w3.org/2000/svg" width="24" height="24" viewBox="0 0 24 24">
  <path fill-rule="evenodd" d="M11.597 1.185a2 2 0 0 1 .806 0c.307.063.582.217.8.34l.06.033-.478.86.478-.86 7.4 4.11.063.036c.23.127.522.287.745.53l-.315.289.315-.29c.193.21.339.458.428.728.103.313.102.644.101.908V12.5a1 1 0 1 1-2 0V8.7l-2.997 1.665-.033.018L13 12.588v7.713l.514-.286a1 1 0 0 1 .972 1.748l-1.223.68-.06.033c-.218.122-.493.276-.8.339a1.99 1.99 0 0 1-.806 0c-.307-.063-.582-.217-.8-.34a8.957 8.957 0 0 0-.06-.033l-7.4-4.11a.938.938 0 0 0-.063-.035c-.23-.128-.522-.288-.745-.53a2 2 0 0 1-.428-.728c-.103-.313-.102-.644-.101-.908V7.869c-.001-.264-.002-.595.101-.908a2 2 0 0 1 .428-.728c.223-.242.514-.402.745-.53l.063-.034L7 3.634a1 1 0 0 1 .029-.016l3.71-2.06.059-.034c.218-.122.493-.276.8-.339ZM7.5 5.644 5.06 7 12 10.856 14.44 9.5 7.5 5.644Zm9 2.712L9.56 4.5l2.149-1.194A6.574 6.574 0 0 1 12 3.149l.005.002c.057.028.135.07.286.155L18.941 7 16.5 8.356ZM11 12.588 4 8.7v7.359c0 .182 0 .276.005.344v.006l.005.003c.057.036.139.082.299.171l-.486.874.486-.874L11 20.301v-7.713ZM19 14a1 1 0 0 1 1 1v2h2a1 1 0 1 1 0 2h-2v2a1 1 0 1 1-2 0v-2h-2a1 1 0 1 1 0-2h2v-2a1 1 0 0 1 1-1Z" clip-rule="evenodd"/>
</svg>
