<svg xmlns="http://www.w3.org/2000/svg" width="24" height="24" viewBox="0 0 24 24">
  <path fill-rule="evenodd" d="M2 13a1 1 0 0 1 1-1h17a1 1 0 1 1 0 2H3a1 1 0 0 1-1-1Z" clip-rule="evenodd" opacity=".5"/>
  <path fill-rule="evenodd" d="M9.793 1.293a1 1 0 0 1 1.414 0l1 1 8.891 8.891c.179.179.353.352.488.511.148.175.308.397.402.687a2 2 0 0 1 0 1.236c-.094.29-.254.512-.402.687a9.18 9.18 0 0 1-.488.51l-5.526 5.527c-.57.57-1.039 1.04-1.453 1.39-.43.366-.865.661-1.383.83a4 4 0 0 1-2.472 0c-.518-.169-.953-.464-1.383-.83-.414-.35-.884-.82-1.453-1.39l-3.27-3.27c-.57-.57-1.04-1.039-1.39-1.453-.366-.43-.661-.865-.83-1.383a4 4 0 0 1 0-2.472c.169-.518.464-.953.83-1.383.35-.414.82-.884 1.39-1.453L10.086 3l-.293-.293a1 1 0 0 1 0-1.414ZM11.5 4.414l-5.899 5.899c-.605.606-1.017 1.018-1.309 1.362-.285.336-.397.54-.451.707a2 2 0 0 0 0 1.236c.054.167.166.371.451.707.292.344.704.756 1.31 1.362l3.211 3.212c.606.605 1.018 1.017 1.362 1.309.336.285.54.397.707.452a2 2 0 0 0 1.236 0c.167-.055.371-.167.707-.452.344-.292.756-.703 1.362-1.31l5.475-5.474c.21-.21.323-.325.4-.414l.008-.01-.009-.01a8.173 8.173 0 0 0-.4-.414L11.5 4.414Z" clip-rule="evenodd"/>
</svg>
