<svg xmlns="http://www.w3.org/2000/svg" width="24" height="24" viewBox="0 0 24 24">
  <g opacity=".2">
    <path d="M22 16a2 2 0 1 1-4 0c0-1.105 2-3 2-3s2 1.895 2 3Zm-10.737.737 4.606-4.606c.396-.396.594-.594.668-.822a.998.998 0 0 0 .049-.309H1.828a2 2 0 0 0 .098.618c.149.457.545.853 1.337 1.645l3.474 3.474c.792.792 1.188 1.188 1.645 1.337a2 2 0 0 0 1.236 0c.457-.149.853-.545 1.645-1.337Z"/>
    <path stroke="gray" stroke-linecap="round" stroke-linejoin="round" stroke-width="2" d="M22 16a2 2 0 1 1-4 0c0-1.105 2-3 2-3s2 1.895 2 3Zm-10.737.737 4.606-4.606c.396-.396.594-.594.668-.822a.998.998 0 0 0 .049-.309H1.828a2 2 0 0 0 .098.618c.149.457.545.853 1.337 1.645l3.474 3.474c.792.792 1.188 1.188 1.645 1.337a2 2 0 0 0 1.236 0c.457-.149.853-.545 1.645-1.337Z"/>
  </g>
  <path fill-rule="evenodd" d="M7.293 1.293a1 1 0 0 1 1.414 0l7.891 7.891c.179.179.353.352.488.512.148.174.308.396.402.686a2 2 0 0 1 0 1.236c-.094.29-.254.512-.402.687a9.18 9.18 0 0 1-.488.51l-4.655 4.657c-.373.372-.695.694-.981.937-.303.257-.631.485-1.035.616a3 3 0 0 1-1.854 0c-.404-.131-.732-.36-1.035-.616a17.882 17.882 0 0 1-.98-.937l-3.53-3.53a17.888 17.888 0 0 1-.937-.98c-.257-.303-.485-.631-.616-1.035a3 3 0 0 1 0-1.854c.131-.404.36-.732.616-1.035a17.9 17.9 0 0 1 .937-.98L7.586 3l-.293-.293a1 1 0 0 1 0-1.414ZM9 4.414l-5.03 5.03c-.223.223-.403.403-.55.556h11.166L9.293 4.707 9 4.414ZM14.586 12l-4.03 4.03c-.408.408-.672.67-.889.854-.207.177-.305.221-.358.239a1 1 0 0 1-.618 0c-.053-.018-.15-.062-.358-.239-.217-.183-.481-.446-.889-.854L3.97 12.556A43.887 43.887 0 0 1 3.42 12h11.166Zm6.102.274L20 13l-.688-.726a1 1 0 0 1 1.376 0ZM20 14.452c-.074.085-.15.174-.226.267a6.187 6.187 0 0 0-.59.837c-.074.13-.123.24-.153.326-.029.082-.03.119-.031.119A1 1 0 1 0 21 16c0 .007 0-.029-.03-.118a2.076 2.076 0 0 0-.154-.326 6.187 6.187 0 0 0-.59-.837 10.633 10.633 0 0 0-.226-.267Zm-.688-2.178L20 13l.688-.726.003.003.006.006.02.02a11.02 11.02 0 0 1 .316.317c.2.208.47.5.741.833.27.33.558.72.785 1.122.211.375.441.886.441 1.425a3 3 0 1 1-6 0c0-.54.23-1.05.441-1.425.227-.403.516-.793.785-1.122a14.089 14.089 0 0 1 1.057-1.15l.02-.02.006-.006.003-.003ZM2 21h12a1 1 0 1 1 0 2H2a1 1 0 1 1 0-2Z" clip-rule="evenodd"/>
</svg>
