<svg xmlns="http://www.w3.org/2000/svg" width="24" height="24"  viewBox="0 0 24 24">
  <path fill-rule="evenodd" d="M8.707 1.293a1 1 0 0 0-1.414 1.414L7.586 3 2.528 8.057c-.372.373-.694.695-.937.981-.257.303-.485.631-.616 1.035a3 3 0 0 0 0 1.854c.131.404.359.732.616 1.035.243.286.565.608.937.98l3.53 3.53c.372.372.694.694.98.937.303.257.631.485 1.035.616a3 3 0 0 0 1.854 0c.404-.131.732-.36 1.035-.616.286-.243.608-.565.98-.937l4.656-4.656a9.18 9.18 0 0 0 .488-.511c.148-.175.308-.397.402-.687.13-.402.13-.834 0-1.236a2.021 2.021 0 0 0-.402-.686 9.19 9.19 0 0 0-.488-.512l-7.89-7.891ZM9 4.414l-5.03 5.03c-.223.223-.403.403-.55.556h11.166L9 4.414Z" clip-rule="evenodd"/>
  <path d="M20 12a1 1 0 0 1 .694.28 9.079 9.079 0 0 1 .34.34c.2.208.468.5.74.833.27.329.558.719.785 1.122.211.375.441.886.441 1.425a3 3 0 0 1-6 0c0-.54.23-1.05.441-1.425.227-.403.516-.793.785-1.122a14.08 14.08 0 0 1 1.08-1.173A.995.995 0 0 1 20 12ZM2 21a1 1 0 1 0 0 2h12a1 1 0 1 0 0-2H2Z"/>
</svg>
