<svg xmlns="http://www.w3.org/2000/svg" width="24" height="24" viewBox="0 0 24 24">
  <path fill-rule="evenodd" d="M9.792 1.293a1 1 0 0 1 1.415 0l1 1 8.89 8.891c.18.179.353.352.488.511.149.175.308.397.402.687.131.402.131.834 0 1.236-.094.29-.253.512-.402.687-.135.159-.309.332-.487.51l-5.526 5.527c-.57.57-1.04 1.04-1.453 1.39-.43.366-.865.661-1.383.83a4 4 0 0 1-2.473 0c-.518-.169-.953-.464-1.383-.83-.414-.35-.883-.82-1.453-1.39l-3.27-3.27c-.569-.57-1.039-1.039-1.39-1.453-.365-.43-.66-.865-.829-1.383a4 4 0 0 1 0-2.472c.168-.518.464-.953.829-1.383.351-.414.821-.884 1.39-1.453L10.085 3l-.293-.293a1 1 0 0 1 0-1.414ZM11.5 4.414l-5.898 5.899c-.606.606-1.017 1.018-1.31 1.362A4.086 4.086 0 0 0 4.04 12h15.046L11.5 4.414ZM19.085 14l-4.899 4.899c-.605.605-1.017 1.017-1.362 1.309-.335.285-.54.397-.706.452a2 2 0 0 1-1.236 0c-.167-.055-.372-.167-.707-.452-.344-.292-.757-.703-1.362-1.31L5.6 15.688c-.606-.606-1.017-1.018-1.31-1.362A4.086 4.086 0 0 1 4.04 14h15.046Z" clip-rule="evenodd"/>
</svg>
