<svg xmlns="http://www.w3.org/2000/svg" width="24" height="24" viewBox="0 0 24 24">
  <path d="m14.894 19.606 5.475-5.475c.396-.396.594-.594.668-.822a1 1 0 0 0 .049-.309H2.743a3 3 0 0 0 .146.927c.223.685.817 1.28 2.005 2.467l3.212 3.212c1.188 1.188 1.782 1.782 2.467 2.004a3 3 0 0 0 1.854 0c.685-.222 1.279-.816 2.467-2.004Z" opacity=".2"/>
  <path fill-rule="evenodd" d="M9.793 1.293a1 1 0 0 1 1.414 0l1 1 8.891 8.891c.179.179.353.352.488.511.148.175.308.397.402.687a2 2 0 0 1 0 1.236c-.094.29-.254.512-.402.687a9.14 9.14 0 0 1-.488.51l-5.526 5.527c-.57.57-1.039 1.04-1.453 1.39-.43.366-.865.661-1.383.83a4 4 0 0 1-2.472 0c-.518-.169-.953-.464-1.383-.83-.414-.35-.884-.82-1.453-1.39l-3.27-3.27c-.57-.57-1.04-1.039-1.39-1.453-.366-.43-.661-.865-.83-1.383a4 4 0 0 1 0-2.472c.169-.518.464-.953.83-1.383.35-.414.82-.884 1.39-1.453L10.086 3l-.293-.293a1 1 0 0 1 0-1.414ZM11.5 4.414l-5.899 5.899c-.606.606-1.017 1.018-1.309 1.362A4.086 4.086 0 0 0 4.04 12h15.046L11.5 4.414ZM19.086 14l-4.899 4.899c-.606.605-1.018 1.017-1.362 1.309-.336.285-.54.397-.707.452a2 2 0 0 1-1.236 0c-.167-.055-.371-.167-.707-.452-.344-.292-.756-.703-1.362-1.31l-3.212-3.211c-.606-.606-1.017-1.018-1.309-1.362A4.086 4.086 0 0 1 4.04 14h15.046Z" clip-rule="evenodd"/>
</svg>
