<svg xmlns="http://www.w3.org/2000/svg" width="24" height="24" viewBox="0 0 24 24">
  <path fill-rule="evenodd" d="M7.293 1.293a1 1 0 0 1 1.414 0l7.891 7.891c.178.179.352.352.488.512.148.174.308.396.402.686a2 2 0 0 1 0 1.236c-.095.29-.254.512-.402.687a9.18 9.18 0 0 1-.488.51l-4.656 4.657c-.373.372-.694.694-.98.937-.303.257-.631.485-1.035.616a3 3 0 0 1-1.854 0c-.404-.131-.733-.36-1.035-.616a17.879 17.879 0 0 1-.98-.937l-3.53-3.53a17.892 17.892 0 0 1-.937-.98c-.257-.303-.485-.631-.616-1.035a3 3 0 0 1 0-1.854c.131-.404.359-.732.616-1.035.243-.286.564-.608.937-.98L7.585 3l-.292-.293a1 1 0 0 1 0-1.414ZM9 4.414l-5.03 5.03c-.223.223-.403.403-.55.556h11.165L9.293 4.707 9 4.414ZM14.585 12l-4.03 4.03c-.407.408-.671.67-.888.854-.208.177-.306.221-.358.239a1 1 0 0 1-.618 0c-.053-.018-.151-.062-.359-.239-.216-.183-.48-.446-.888-.854L3.97 12.556A44.024 44.024 0 0 1 3.42 12h11.165Zm6.103.274L20 13l-.688-.726a1 1 0 0 1 1.376 0ZM20 14.452c-.074.085-.15.174-.226.267a6.187 6.187 0 0 0-.59.837c-.074.13-.124.24-.154.326-.028.082-.03.119-.03.119A1 1 0 1 0 21 16c0 .007 0-.029-.03-.118a2.076 2.076 0 0 0-.154-.326 6.187 6.187 0 0 0-.59-.837 10.633 10.633 0 0 0-.226-.267Zm-.688-2.178L20 13l.688-.726.003.003.006.006.02.02a11.02 11.02 0 0 1 .316.317c.2.208.47.5.741.833.269.33.558.72.785 1.122.211.375.44.886.44 1.425a3 3 0 1 1-6 0c0-.54.23-1.05.442-1.425.226-.403.515-.793.784-1.122a14.053 14.053 0 0 1 1.057-1.15l.02-.02.007-.006.003-.003ZM2 21h12a1 1 0 1 1 0 2H2a1 1 0 1 1 0-2Z" clip-rule="evenodd"/>
</svg>
