<svg xmlns="http://www.w3.org/2000/svg" width="24" height="24" viewBox="0 0 24 24">
  <path fill-rule="evenodd" d="M2 10h14a1 1 0 1 1 0 2H2a1 1 0 1 1 0-2Zm18.688 2.274L20 13l-.688-.726a1 1 0 0 1 1.376 0ZM20 14.452c-.074.085-.15.174-.226.267a6.187 6.187 0 0 0-.59.837c-.074.13-.123.24-.153.326-.029.082-.03.119-.031.119A1 1 0 1 0 21 16s-.002-.036-.03-.118a2.076 2.076 0 0 0-.154-.326 6.187 6.187 0 0 0-.59-.837 10.633 10.633 0 0 0-.226-.267Zm-.688-2.178L20 13l.688-.726.003.003.006.006.02.02a11.02 11.02 0 0 1 .316.317c.2.208.47.5.741.833.27.33.558.72.785 1.122.211.375.441.886.441 1.425a3 3 0 1 1-6 0c0-.54.23-1.05.441-1.425.227-.403.516-.793.785-1.122a14.053 14.053 0 0 1 1.057-1.15l.02-.02.006-.006.003-.003Z" clip-rule="evenodd" opacity=".5"/>
  <path fill-rule="evenodd" d="M7.293 1.293a1 1 0 0 1 1.414 0l7.891 7.891c.179.179.353.352.488.512.148.174.308.396.402.686a2 2 0 0 1 0 1.236c-.094.29-.254.512-.402.687a9.18 9.18 0 0 1-.488.51l-4.655 4.657c-.373.372-.695.694-.981.937-.303.257-.631.485-1.035.616a3 3 0 0 1-1.854 0c-.404-.131-.732-.36-1.035-.616a17.882 17.882 0 0 1-.98-.937l-3.53-3.53a17.888 17.888 0 0 1-.937-.98c-.257-.303-.485-.631-.616-1.035a3 3 0 0 1 0-1.854c.131-.404.36-.732.616-1.035a17.9 17.9 0 0 1 .937-.98L7.586 3l-.293-.293a1 1 0 0 1 0-1.414ZM9 4.414l-5.03 5.03c-.408.408-.67.672-.855.889-.176.207-.22.305-.238.358a1 1 0 0 0 0 .618c.018.053.062.15.239.358.183.217.446.48.854.889l3.474 3.474c.408.408.672.67.889.854.207.177.305.221.358.239a1 1 0 0 0 .618 0c.053-.018.15-.062.358-.239.217-.183.481-.446.889-.854l4.606-4.606c.21-.21.323-.325.4-.414l.008-.01-.009-.01a8.173 8.173 0 0 0-.4-.414L9.293 4.707 9 4.414ZM2 21h12a1 1 0 1 1 0 2H2a1 1 0 1 1 0-2Z" clip-rule="evenodd"/>
</svg>
