<svg xmlns="http://www.w3.org/2000/svg" width="24" height="24" viewBox="0 0 24 24">
  <path d="M2 12c0 5.523 4.477 10 10 10a3 3 0 0 0 3-3v-.5c0-.464 0-.697.026-.892a3 3 0 0 1 2.582-2.582c.195-.026.428-.026.892-.026h.5a3 3 0 0 0 3-3c0-5.523-4.477-10-10-10S2 6.477 2 12Z" opacity=".2"/>
  <path fill-rule="evenodd" d="M12 3a9 9 0 0 0 0 18 2 2 0 0 0 2-2v-.569c0-.397 0-.692.034-.953a4 4 0 0 1 3.444-3.444c.261-.034.556-.034.953-.034H19a2 2 0 0 0 2-2 9 9 0 0 0-9-9ZM1 12C1 5.925 5.925 1 12 1s11 4.925 11 11a4 4 0 0 1-4 4h-.5c-.496 0-.648.002-.761.017a2 2 0 0 0-1.722 1.722c-.015.113-.017.265-.017.761v.5a4 4 0 0 1-4 4C5.925 23 1 18.075 1 12Zm7-5a2 2 0 1 1 4 0 2 2 0 0 1-4 0Zm6 1a2 2 0 1 1 4 0 2 2 0 0 1-4 0Zm-9 4a2 2 0 1 1 4 0 2 2 0 0 1-4 0Z" clip-rule="evenodd"/>
</svg>
