<svg xmlns="http://www.w3.org/2000/svg" width="24" height="24" viewBox="0 0 24 24">
  <path fill-rule="evenodd" d="M12 6a1 1 0 0 1 1-1h8a1 1 0 1 1 0 2h-8a1 1 0 0 1-1-1Zm0 4a1 1 0 0 1 1-1h8a1 1 0 1 1 0 2h-8a1 1 0 0 1-1-1Zm0 4a1 1 0 0 1 1-1h8a1 1 0 1 1 0 2h-8a1 1 0 0 1-1-1Zm0 4a1 1 0 0 1 1-1h8a1 1 0 1 1 0 2h-8a1 1 0 0 1-1-1Z" clip-rule="evenodd" opacity=".5"/>
  <path fill-rule="evenodd" d="M6 3a1 1 0 0 1 .707.293l3 3a1 1 0 0 1-1.414 1.414L7 6.414v11.172l1.293-1.293a1 1 0 0 1 1.414 1.414l-3 3a1 1 0 0 1-1.414 0l-3-3a1 1 0 1 1 1.414-1.414L5 17.586V6.414L3.707 7.707a1 1 0 0 1-1.414-1.414l3-3A1 1 0 0 1 6 3Z" clip-rule="evenodd"/>
</svg>
