<svg xmlns="http://www.w3.org/2000/svg" width="24" height="24"  viewBox="0 0 24 24">
  <path d="M.98 4.52C.72 3.632.59 3.19.69 3.005a.5.5 0 0 1 .434-.257c.21-.002.536.325 1.19.979l6.754 6.754A2.002 2.002 0 0 0 11 13a2 2 0 1 0-.518-3.932L3.728 2.313c-.654-.653-.98-.98-.979-1.19A.5.5 0 0 1 3.006.69c.184-.1.627.03 1.514.29l11.299 3.326c.276.066.624.148.92.34a2 2 0 0 1 .624.65c.18.303.25.654.304.933l1.041 5.206c.304-.045.616-.02.911.077.29.094.512.253.687.402.159.135.333.309.511.487l.783.783c.178.178.352.352.487.511.148.175.308.397.402.687a2 2 0 0 1 0 1.236c-.094.29-.254.511-.402.686-.135.16-.31.333-.487.512l-4.783 4.782c-.178.178-.352.352-.511.487a2.023 2.023 0 0 1-.687.403 2 2 0 0 1-1.236 0 2.021 2.021 0 0 1-.686-.403c-.16-.135-.333-.309-.512-.487l-.782-.782c-.178-.179-.352-.353-.488-.512a2.021 2.021 0 0 1-.402-.686 2 2 0 0 1-.076-.911L6.23 17.666c-.279-.055-.63-.124-.932-.304a2.001 2.001 0 0 1-.65-.625c-.192-.295-.275-.643-.34-.92L.98 4.52Z"/>
</svg>
