<svg xmlns="http://www.w3.org/2000/svg" width="24" height="24" viewBox="0 0 24 24">
  <path fill-rule="evenodd" d="M14.382 1.512a2 2 0 0 1 1.236 0c.29.094.512.254.687.402.159.135.332.31.51.488l.023.022 4.76 4.76c.179.178.353.352.488.511.148.175.308.397.402.687a2 2 0 0 1 0 1.236c-.094.29-.254.512-.402.687a9.18 9.18 0 0 1-.488.51l-.782.783a8.884 8.884 0 0 1-.511.488 2.022 2.022 0 0 1-.687.402 2 2 0 0 1-1.236 0 2.023 2.023 0 0 1-.687-.402c-.159-.135-.332-.31-.51-.488l-4.76-4.76-.023-.022a9.187 9.187 0 0 1-.488-.512 2.022 2.022 0 0 1-.402-.686 2 2 0 0 1 0-1.236c.094-.29.254-.512.402-.687a9.19 9.19 0 0 1 .488-.51l.022-.024.738-.737.022-.022c.179-.179.352-.353.511-.488.175-.148.397-.308.687-.402ZM15 3.43a8.176 8.176 0 0 0-.424.408l-.738.738c-.21.21-.323.325-.4.414L13.43 5l.009.01c.076.09.19.205.4.414l4.737 4.737c.21.21.325.324.414.4l.01.009.01-.009c.09-.076.205-.19.414-.4l.738-.737c.21-.21.323-.325.4-.414L20.57 9l-.009-.01a8.177 8.177 0 0 0-.4-.414l-4.737-4.738A8.176 8.176 0 0 0 15 3.43Z" clip-rule="evenodd" opacity=".5"/>
  <path fill-rule="evenodd" d="M12.804 5.02a1 1 0 0 1 .903.273l5 5a1 1 0 0 1 .274.903l-1.3 6.498-.015.077c-.055.279-.124.63-.304.932-.156.262-.37.484-.625.65-.295.193-.643.275-.92.34l-.075.019-13.507 3.26a1 1 0 0 1-1.207-1.207L4.288 8.26l.018-.077c.066-.276.148-.624.34-.919a2 2 0 0 1 .65-.625c.303-.18.654-.25.933-.304l.077-.015 6.498-1.3Zm-.133 2.066L6.698 8.28c-.194.039-.294.06-.365.078l-.006.002-.002.006a6.79 6.79 0 0 0-.093.362L3.806 18.78l4.486-4.487a3 3 0 1 1 1.414 1.414L5.22 20.195l10.052-2.426c.192-.047.291-.071.362-.093l.006-.002.002-.006c.019-.071.039-.171.078-.365l1.194-5.973-4.243-4.243Zm-2.366 6.633a1 1 0 1 0-.025-.025l.013.013.012.012Z" clip-rule="evenodd"/>
</svg>
