<svg xmlns="http://www.w3.org/2000/svg" width="24" height="24" viewBox="0 0 24 24">
  <path fill-rule="evenodd" d="M1.293 1.293a1 1 0 0 1 .942-.265l13.506 3.26.077.018c.276.066.624.148.919.341a2 2 0 0 1 .625.65c.18.302.25.653.304.932l.015.077 1.026 5.13a2 2 0 0 1 .911.076c.29.094.512.254.687.402.159.135.332.31.51.488l.783.782c.179.179.353.352.488.511.148.175.308.397.402.687a2 2 0 0 1 0 1.236c-.094.29-.254.512-.402.687-.135.159-.31.332-.488.511l-4.782 4.782a9.18 9.18 0 0 1-.511.488 2.022 2.022 0 0 1-.687.402 2 2 0 0 1-1.236 0 2.02 2.02 0 0 1-.687-.402 9.215 9.215 0 0 1-.511-.488l-.782-.782a8.884 8.884 0 0 1-.488-.511 2.021 2.021 0 0 1-.402-.687 2 2 0 0 1-.076-.911l-5.13-1.026-.077-.015c-.279-.055-.63-.123-.932-.304a2.001 2.001 0 0 1-.65-.625c-.193-.295-.275-.643-.34-.92a23.168 23.168 0 0 0-.019-.075L1.028 2.235a1 1 0 0 1 .265-.942ZM12.67 16.915l4.244-4.244-1.195-5.973a6.8 6.8 0 0 0-.08-.371l-.006-.002a6.809 6.809 0 0 0-.362-.093L5.22 3.806l4.487 4.486a3 3 0 1 1-1.414 1.414L3.805 5.22l2.426 10.052c.047.192.071.291.093.362l.002.006.006.002c.071.019.171.04.365.078l5.973 1.194Zm-2.39-6.61a1 1 0 1 0 .025-.025l-.013.013a.482.482 0 0 1-.012.012Zm8.709 3.134a7.64 7.64 0 0 0-.414.4l-4.738 4.737a8.14 8.14 0 0 0-.4.414l-.008.01.009.01c.076.09.19.205.4.414l.737.738c.21.21.325.323.414.4l.01.008.01-.009c.09-.076.205-.19.414-.4l4.738-4.737c.21-.21.323-.325.4-.414l.008-.01-.009-.01a8.14 8.14 0 0 0-.4-.414l-.737-.738a8.173 8.173 0 0 0-.414-.4L19 13.43l-.01.009Z" clip-rule="evenodd"/>
</svg>
