<svg xmlns="http://www.w3.org/2000/svg" width="24" height="24" viewBox="0 0 24 24">
  <path d="M20.131 10.869c-.396.396-.594.594-.822.668a1 1 0 0 1-.618 0c-.228-.074-.426-.272-.822-.668L13.13 6.13c-.396-.396-.594-.594-.668-.822a1 1 0 0 1 0-.618c.074-.228.272-.426.668-.822l.738-.738c.396-.396.594-.594.822-.668a1 1 0 0 1 .618 0c.228.074.426.272.822.668l4.74 4.74c.396.396.594.594.668.822a1 1 0 0 1 0 .618c-.074.228-.272.426-.668.822l-.738.738ZM13 13a2 2 0 1 0-4 0 2 2 0 0 0 4 0Z" opacity=".2"/>
  <path fill-rule="evenodd" d="M14.382 1.512a2 2 0 0 1 1.236 0c.29.094.512.254.687.402.159.135.332.31.511.488l4.782 4.782c.179.179.353.352.488.512.148.174.308.396.402.686a2 2 0 0 1 0 1.236c-.094.29-.254.512-.402.687a9.18 9.18 0 0 1-.488.51l-.782.783a9.18 9.18 0 0 1-.511.488 2.021 2.021 0 0 1-.687.402 2 2 0 0 1-.911.076l-1.026 5.13-.015.077c-.055.279-.123.63-.304.932-.156.262-.37.484-.625.65-.295.192-.643.275-.92.34l-.075.019-13.507 3.26a1 1 0 0 1-1.207-1.207l3.26-13.507.018-.076c.066-.276.148-.624.341-.919a2 2 0 0 1 .65-.625c.302-.18.653-.25.932-.304l.077-.015 5.13-1.026a2 2 0 0 1 .076-.911c.094-.29.254-.512.402-.686a9.15 9.15 0 0 1 .488-.512l.76-.76.022-.022c.179-.179.352-.353.511-.488.175-.148.397-.308.687-.402Zm-1.71 5.574L6.697 8.28a6.79 6.79 0 0 0-.365.078l-.006.002-.002.006c-.022.07-.046.17-.093.362L3.806 18.78l4.486-4.487a3 3 0 1 1 1.414 1.414L5.22 20.195l10.052-2.426c.192-.047.291-.071.362-.093l.006-.002.002-.006c.019-.072.04-.171.078-.365l1.194-5.973-4.243-4.243Zm-2.367 6.633a1 1 0 1 0-.025-.025l.013.013a.482.482 0 0 1 .012.012ZM15 3.43l-.01.009a7.64 7.64 0 0 0-.414.4l-.738.737c-.21.21-.323.325-.4.414L13.43 5l.009.01c.076.09.19.205.4.414l4.737 4.737c.21.21.325.324.414.4l.01.009.01-.009c.09-.076.205-.19.414-.4l.738-.737c.21-.21.323-.325.4-.414L20.57 9l-.009-.01a8.177 8.177 0 0 0-.4-.414l-4.737-4.738a8.232 8.232 0 0 0-.414-.4L15 3.43Z" clip-rule="evenodd"/>
</svg>
