<svg xmlns="http://www.w3.org/2000/svg" width="24" height="24" viewBox="0 0 24 24">
  <path fill-rule="evenodd" d="M5 1a1 1 0 0 1 1 1v2h2a1 1 0 0 1 0 2H6v2a1 1 0 0 1-2 0V6H2a1 1 0 0 1 0-2h2V2a1 1 0 0 1 1-1Zm11.382 1.512a2 2 0 0 1 1.236 0c.29.094.512.254.687.402.159.135.332.31.51.488l3.783 3.782c.179.179.353.352.488.512.148.174.308.396.402.686a2 2 0 0 1 0 1.236c-.094.29-.254.512-.402.687a9.18 9.18 0 0 1-.488.51l-.782.783a9.18 9.18 0 0 1-.511.488 2.022 2.022 0 0 1-.687.402 2 2 0 0 1-1.02.057L18.2 17.44l-.018.064c-.067.236-.15.532-.318.79a1.998 1.998 0 0 1-.553.564c-.254.173-.549.262-.783.334l-.063.019-12.17 3.745a1 1 0 0 1-1.25-1.25l3.744-12.17.02-.064c.07-.234.16-.53.333-.783a2 2 0 0 1 .564-.553c.258-.168.554-.251.79-.318L8.56 7.8l4.895-1.399a2 2 0 0 1 .057-1.019c.094-.29.254-.512.402-.686a9.19 9.19 0 0 1 .488-.512l.782-.782c.179-.179.352-.353.511-.488.175-.148.397-.308.687-.402Zm-1.673 5.611-5.6 1.6a6.488 6.488 0 0 0-.31.093 6.506 6.506 0 0 0-.1.308l-2.56 8.322 3.153-3.153a3 3 0 1 1 1.414 1.414L7.554 19.86l8.322-2.56a5.9 5.9 0 0 0 .303-.098l.005-.002.002-.005c.02-.058.044-.141.09-.304l1.6-5.6-3.167-3.168Zm-3.403 6.597a1 1 0 1 0-.026-.027l.013.014.013.013ZM16.99 4.44a7.64 7.64 0 0 0-.414.4l-.738.737c-.21.21-.323.325-.4.414L15.43 6l.009.01c.076.09.19.205.4.414l3.737 3.737c.21.21.325.324.414.4l.01.009.01-.009c.09-.076.205-.19.414-.4l.738-.737c.21-.21.323-.325.4-.414L21.57 9l-.009-.01a8.177 8.177 0 0 0-.4-.414l-3.737-3.738a8.176 8.176 0 0 0-.414-.4L17 4.43l-.01.009Z" clip-rule="evenodd"/>
</svg>
