<svg xmlns="http://www.w3.org/2000/svg" width="24" height="24" viewBox="0 0 24 24">
  <path d="M13.131 20.131c-.396-.396-.594-.594-.668-.822a1 1 0 0 1 0-.618c.074-.228.272-.426.668-.822l4.738-4.737c.396-.397.593-.595.822-.669a1 1 0 0 1 .618 0c.228.074.426.272.822.669l.738.737c.396.396.593.594.668.822a1 1 0 0 1 0 .618c-.075.228-.272.426-.668.822L16.13 20.87c-.396.396-.594.594-.822.668a1 1 0 0 1-.618 0c-.229-.074-.427-.272-.823-.668l-.737-.738ZM11 13a2 2 0 1 0 0-4 2 2 0 0 0 0 4Z" opacity=".2"/>
  <path fill-rule="evenodd" d="M1.293 1.293a1 1 0 0 1 .942-.265l13.507 3.26.075.018c.277.066.625.148.92.34.255.167.469.39.625.65.18.303.25.654.304.933l.015.077 1.026 5.13a2 2 0 0 1 .911.076c.29.094.512.254.687.402.159.135.332.31.511.488l.782.782c.179.179.353.352.488.511.148.175.308.397.402.687a2 2 0 0 1 0 1.236c-.094.29-.254.512-.402.687a9.18 9.18 0 0 1-.488.51l-4.782 4.783a9.18 9.18 0 0 1-.511.488 2.021 2.021 0 0 1-.687.402 2 2 0 0 1-1.236 0 2.022 2.022 0 0 1-.687-.402 9.18 9.18 0 0 1-.51-.488l-.783-.782a9.14 9.14 0 0 1-.488-.511 2.022 2.022 0 0 1-.402-.687 2 2 0 0 1-.076-.911l-5.13-1.026-.077-.015c-.279-.055-.63-.124-.932-.304a1.999 1.999 0 0 1-.65-.625c-.193-.295-.275-.643-.34-.92l-.019-.075-3.26-13.507a1 1 0 0 1 .265-.942ZM12.67 16.915l4.244-4.244-1.195-5.973a6.834 6.834 0 0 0-.078-.365l-.002-.006-.006-.002a6.782 6.782 0 0 0-.362-.093L5.22 3.806l4.487 4.486a3 3 0 1 1-1.414 1.414L3.805 5.22l2.426 10.052c.047.192.071.291.093.362l.002.006.006.002c.071.019.171.04.365.078l5.973 1.194Zm-2.39-6.61a1 1 0 1 0 .013-.012l-.013.012Zm8.709 3.134a8.14 8.14 0 0 0-.414.4l-4.738 4.737c-.21.21-.323.325-.4.414l-.008.01.009.01c.076.09.19.205.4.414l.737.738c.21.21.325.323.414.4l.01.008.01-.009c.09-.076.205-.19.414-.4l4.738-4.737c.21-.21.323-.325.4-.414l.008-.01-.009-.01a8.173 8.173 0 0 0-.4-.414l-.737-.738a8.23 8.23 0 0 0-.414-.4L19 13.43l-.01.009Z" clip-rule="evenodd"/>
</svg>
