<svg xmlns="http://www.w3.org/2000/svg" width="24" height="24" viewBox="0 0 24 24">
  <path fill-rule="evenodd" d="M1 5a1 1 0 0 1 1-1h6a1 1 0 0 1 0 2H2a1 1 0 0 1-1-1Z" clip-rule="evenodd" opacity=".5"/>
  <path d="M4 22.59c-.08 0-.17 0-.24-.03a.904.904 0 0 1-.27-.11.896.896 0 0 1-.19-.15.75.75 0 0 1-.15-.2 1.024 1.024 0 0 1-.14-.51c0-.08 0-.16.03-.24 0-.02.01-.05.02-.07L6.8 9.13c.11-.34.18-.6.35-.84.15-.22.34-.41.56-.55.26-.17.49-.23.85-.34l4.9-1.4c-.07-.34-.05-.68.06-1.02.15-.46.45-.77.92-1.22l.74-.74c.46-.46.76-.76 1.22-.91.4-.13.83-.13 1.24 0 .45.15.76.45 1.21.91l3.74 3.74c.46.46.76.76.91 1.22.13.41.13.83 0 1.24-.15.46-.45.76-.91 1.22l-.74.74c-.46.46-.77.76-1.22.91-.34.11-.69.13-1.02.06l-1.4 4.9c-.1.36-.17.6-.33.85-.15.23-.34.42-.55.57-.25.17-.5.25-.85.35L4.33 22.56s-.05.01-.07.02c-.08.02-.16.03-.24.03L4 22.59Zm6.71-6.3-3.15 3.15 8.32-2.56c.16-.05.26-.07.33-.11 0-.04.02-.14.07-.3l1.6-5.6-3.17-3.17-5.6 1.6c-.16.05-.26.07-.34.1 0 .04-.02.14-.07.3l-2.56 8.32 3.15-3.15A2.94 2.94 0 0 1 9 13.58c0-1.65 1.35-3 3-3s3 1.35 3 3-1.35 3-3 3c-.46 0-.9-.11-1.29-.29Zm1.29-3.7c-.55 0-1 .45-1 1s.45 1 1 1 1-.45 1-1-.45-1-1-1Zm3.72-6.7.12.12 3.74 3.74c.2.2.4.4.47.44-.03-.04.18-.25.37-.44l.74-.74c.2-.2.4-.4.45-.47-.04.01-.25-.18-.44-.38l-3.74-3.74c-.2-.2-.4-.4-.47-.45.03.04-.18.25-.38.45l-.74.74c-.19.19-.4.4-.45.47.04-.02.15.09.28.21l.04.04.01.01Z"/>
</svg>
