<svg xmlns="http://www.w3.org/2000/svg" width="24" height="24" viewBox="0 0 24 24">
  <path d="M4 22.59c-.08 0-.16 0-.24-.03a.904.904 0 0 1-.27-.11 1.33 1.33 0 0 1-.19-.14c-.06-.06-.11-.13-.16-.2A1.024 1.024 0 0 1 3 21.6c0-.08.01-.16.03-.24 0-.03.01-.05.02-.07L6.79 9.12c.11-.36.18-.6.35-.84.15-.23.34-.41.57-.56.25-.16.49-.23.85-.33l4.9-1.4c-.07-.34-.05-.69.06-1.02.15-.46.45-.76.91-1.22l.74-.74c.46-.46.76-.76 1.22-.91.4-.13.83-.13 1.24 0 .46.15.76.45 1.21.91l3.74 3.74-.71.71.71-.7c.46.46.76.76.91 1.21.13.4.13.83 0 1.24-.15.46-.45.76-.91 1.22l-.74.74c-.46.46-.77.77-1.22.91-.33.11-.68.12-1.02.06l-1.4 4.89c-.1.36-.17.61-.34.86-.14.22-.33.41-.55.56-.25.17-.5.25-.85.35L4.31 22.54s-.05.02-.08.02c-.08.02-.12.06-.24.03H4Zm6.71-6.29-3.15 3.15 8.32-2.56c.16-.05.26-.07.33-.11 0-.04.02-.13.06-.28l1.6-5.62-3.17-3.17-5.6 1.6c-.16.05-.26.07-.34.1 0 .04-.02.14-.07.29l-2.56 8.33 3.15-3.15a2.94 2.94 0 0 1-.29-1.29c0-1.65 1.35-3 3-3s3 1.35 3 3-1.35 3-3 3c-.46 0-.9-.11-1.29-.29h.01ZM12 12.59c-.55 0-1 .45-1 1s.45 1 1 1 1-.45 1-1-.45-1-1-1Zm3.73-6.69s.07.07.11.1l3.74 3.74c.19.19.4.4.47.44-.02-.04.18-.24.37-.44l.75-.74c.2-.2.4-.4.44-.47-.03.02-.24-.17-.44-.37l.7-.71-.71.71-3.74-3.74c-.2-.2-.4-.4-.47-.44.02.04-.18.25-.38.44l-.74.74c-.2.2-.4.4-.44.47.03-.02.14.08.28.21l.06.06ZM8 5.58H2c-.55 0-1-.45-1-1s.45-.99 1-.99h6c.55 0 1 .45 1 1s-.45 1-1 1v-.01Z"/>
</svg>
