<svg xmlns="http://www.w3.org/2000/svg" width="24" height="24" viewBox="0 0 24 24">
  <path d="M21.131 10.869c-.396.396-.594.594-.822.668a1 1 0 0 1-.618 0c-.228-.074-.426-.272-.822-.668L15.13 7.13c-.396-.396-.594-.594-.668-.822a1 1 0 0 1 0-.618c.074-.228.272-.426.668-.822l.738-.738c.396-.396.594-.594.822-.668a1 1 0 0 1 .618 0c.228.074.426.272.822.668l3.74 3.74c.396.396.594.594.668.822a1 1 0 0 1 0 .618c-.074.228-.272.426-.668.823l-.738.737ZM14 14a2 2 0 1 0-4 0 2 2 0 0 0 4 0Z" opacity=".2"/>
  <path fill-rule="evenodd" d="M17.618 2.512a2 2 0 0 0-1.236 0c-.29.094-.512.254-.687.402-.159.135-.332.31-.51.488l-.783.782a9.15 9.15 0 0 0-.488.512 2.022 2.022 0 0 0-.402.686 2 2 0 0 0-.057 1.02L8.56 7.8l-.064.018c-.236.067-.532.15-.79.318a2 2 0 0 0-.564.553c-.173.254-.262.549-.334.783l-.019.063-3.745 12.17a1 1 0 0 0 1.25 1.25l12.17-3.744.064-.02c.235-.07.53-.16.783-.333a2 2 0 0 0 .553-.564c.168-.258.251-.554.318-.79l.018-.064 1.399-4.895a2 2 0 0 0 1.02-.057c.289-.094.51-.254.686-.402a9.18 9.18 0 0 0 .51-.488l.783-.782a9.18 9.18 0 0 0 .488-.511c.148-.175.308-.397.402-.687a2 2 0 0 0 0-1.236 2.022 2.022 0 0 0-.402-.686c-.135-.16-.31-.333-.488-.512l-3.782-3.782a8.884 8.884 0 0 0-.511-.488 2.021 2.021 0 0 0-.687-.402ZM9.11 9.723l5.6-1.6 3.168 3.168-1.6 5.6c-.047.163-.07.246-.091.305l-.002.004-.005.002c-.058.022-.14.048-.302.097L7.553 19.86l3.153-3.152a3 3 0 1 0-1.414-1.414L6.14 18.445l2.56-8.322a5.9 5.9 0 0 1 .098-.303l.002-.005.004-.002c.06-.02.142-.044.305-.09ZM12 15a.997.997 0 0 1-.694-.28l-.013-.013-.013-.013A1 1 0 1 1 12 15Zm4.576-10.162c.21-.21.325-.323.414-.4L17 4.43l.01.009c.09.076.205.19.414.4l3.738 3.737c.21.21.323.325.4.414l.008.01-.009.01a7.64 7.64 0 0 1-.4.414l-.737.738a8.23 8.23 0 0 1-.414.4l-.01.008-.01-.009a8.14 8.14 0 0 1-.414-.4l-3.738-3.737a8.177 8.177 0 0 1-.4-.414L15.43 6l.009-.01c.076-.09.19-.205.4-.414l.737-.738Z" clip-rule="evenodd"/>
  <path d="M2 4a1 1 0 0 0 0 2h6a1 1 0 0 0 0-2H2Z"/>
</svg>
