<svg xmlns="http://www.w3.org/2000/svg" width="24" height="24" viewBox="0 0 24 24">
  <path fill-rule="evenodd" d="M12 21a1 1 0 0 1 1-1h8a1 1 0 1 1 0 2h-8a1 1 0 0 1-1-1Z" clip-rule="evenodd" opacity=".5"/>
  <path d="M2 22.33a1.004 1.004 0 0 1-.99-1.19h.01a.75.75 0 0 1 .05-.16l2.06-5.35s.03-.09.05-.13l.03-.07c.17-.43.25-.63.35-.81.11-.2.23-.39.37-.56.13-.17.29-.33.6-.64l11.26-11.3a3.833 3.833 0 0 1 5.41 0c.72.72 1.12 1.68 1.12 2.71s-.4 1.98-1.12 2.71L9.92 18.82c-.31.31-.47.47-.64.6-.18.14-.36.26-.56.37-.19.1-.38.18-.75.32l-.1.04-.15.06-5.35 2.06s-.05.02-.07.02c-.09.03-.19.04-.28.04H2Zm2.88-5.71-1.14 2.96 2.96-1.14-1.82-1.82Zm1.03-1.79.16.16 2.27 2.27.16.16.01-.01L19.79 6.13c.35-.35.54-.8.54-1.29s-.19-.95-.54-1.29a1.84 1.84 0 0 0-2.59 0L5.93 14.81l-.01.01-.01.01Z"/>
</svg>
