<svg xmlns="http://www.w3.org/2000/svg" width="24" height="24" viewBox="0 0 24 24">
  <path fill-rule="evenodd" d="M4.335 14.665a1.5 1.5 0 0 1 1.137-.24c.325.061.558.234.693.347.128.106.265.244.39.37l.023.021 2.259 2.26.021.021c.126.126.264.264.37.39.113.136.286.369.348.694a1.5 1.5 0 0 1-.241 1.137 1.531 1.531 0 0 1-.6.492 6.211 6.211 0 0 1-.525.218l-5.351 2.058a1 1 0 0 1-1.292-1.292l2.058-5.351.01-.029c.065-.166.134-.347.208-.496.078-.158.22-.41.492-.6Zm1.046 2.13-1.14 2.964 2.964-1.14-1.824-1.824Zm.26-.655.001-.001Z" clip-rule="evenodd" opacity=".5"/>
  <path fill-rule="evenodd" d="M16.293 2.293a3.828 3.828 0 1 1 5.414 5.414l-11.28 11.28-.037.037c-.233.233-.41.41-.609.565a3.999 3.999 0 0 1-.56.364 6.61 6.61 0 0 1-.764.327l-.049.019-5.549 2.134a1 1 0 0 1-1.292-1.292l2.134-5.55.019-.048c.118-.308.208-.541.327-.764.106-.196.228-.384.364-.56.155-.2.332-.376.565-.61l.037-.036 11.28-11.28Zm4 1.414a1.828 1.828 0 0 0-2.586 0l-11.28 11.28c-.285.286-.367.37-.436.458a2.066 2.066 0 0 0-.182.28c-.052.098-.096.207-.241.585L4.24 19.759l3.45-1.327c.377-.145.486-.189.584-.241.098-.053.192-.114.28-.182.088-.069.172-.15.458-.436l11.28-11.28a1.829 1.829 0 0 0 0-2.586Z" clip-rule="evenodd"/>
</svg>
