<svg xmlns="http://www.w3.org/2000/svg" width="24" height="24" viewBox="0 0 24 24">
  <path d="M6.68 20.724c.305-.084.458-.125.6-.19.127-.056.247-.126.36-.207.125-.092.237-.204.46-.428L18.435 9.566c.198-.198.297-.297.334-.411a.499.499 0 0 0 0-.31c-.037-.114-.136-.213-.334-.41l-2.868-2.87c-.198-.197-.297-.296-.412-.333a.5.5 0 0 0-.309 0c-.114.037-.213.136-.41.334L4.1 15.899c-.224.224-.336.336-.428.462a2.001 2.001 0 0 0-.208.358c-.064.143-.105.296-.189.6L2 22l4.68-1.276Z" opacity=".2"/>
  <path fill-rule="evenodd" d="M17.293 1.293a1 1 0 0 1 1.414 0l4 4a1 1 0 0 1-1.414 1.414l-4-4a1 1 0 0 1 0-1.414ZM14.537 4.28a1.5 1.5 0 0 1 .926 0c.233.075.402.2.513.295.096.081.196.182.28.266l.017.017 2.885 2.885c.084.084.185.184.266.28.094.111.22.28.296.512a1.5 1.5 0 0 1 0 .928 1.508 1.508 0 0 1-.296.512c-.081.096-.182.196-.266.28l-10.35 10.35-.038.038a4.665 4.665 0 0 1-.542.49 2.997 2.997 0 0 1-.538.313 4.65 4.65 0 0 1-.695.227l-.052.014-4.68 1.277a1 1 0 0 1-1.228-1.228l1.277-4.68.014-.052c.069-.255.13-.48.227-.695.085-.19.19-.37.312-.538.14-.19.304-.356.491-.542l.038-.038L13.727 4.859l.016-.017c.085-.084.185-.185.281-.266.111-.094.28-.22.513-.295ZM15 6.414 4.808 16.606c-.245.245-.291.295-.326.344a1 1 0 0 0-.104.18c-.025.054-.046.119-.137.453l-.816 2.992 2.992-.816c.334-.091.4-.112.454-.137.063-.028.123-.063.18-.104.048-.035.098-.08.343-.326L17.586 9 15 6.414Z" clip-rule="evenodd"/>
</svg>
