<svg xmlns="http://www.w3.org/2000/svg" width="24" height="24" viewBox="0 0 24 24">
  <path fill-rule="evenodd" d="M17.293 1.293a1 1 0 0 1 1.414 0l4 4a1 1 0 0 1-1.414 1.414l-4-4a1 1 0 0 1 0-1.414Z" clip-rule="evenodd" opacity=".5"/>
  <path fill-rule="evenodd" d="M14.537 4.28a1.5 1.5 0 0 1 .926 0c.233.076.402.202.513.296.096.081.196.182.28.266l.017.017 2.885 2.885c.084.084.185.184.266.28.094.111.22.28.296.512a1.5 1.5 0 0 1 0 .928 1.51 1.51 0 0 1-.296.512c-.081.096-.182.196-.266.28l-10.35 10.35-.038.038a4.657 4.657 0 0 1-.542.49 2.998 2.998 0 0 1-.538.313 4.65 4.65 0 0 1-.695.227l-.052.014-4.68 1.277a1 1 0 0 1-1.228-1.228l1.277-4.68.014-.052c.069-.255.13-.48.227-.695a3 3 0 0 1 .312-.538c.14-.19.304-.356.491-.542l.038-.038L13.727 4.859l.017-.017c.084-.084.184-.185.28-.266.111-.094.28-.22.513-.295ZM15 6.415 4.808 16.606c-.245.245-.291.295-.326.344a.996.996 0 0 0-.104.18c-.025.054-.046.119-.137.453l-.816 2.992 2.992-.816c.334-.091.4-.112.454-.137.063-.028.123-.063.18-.104.048-.035.098-.081.343-.326L17.586 9 15 6.414Z" clip-rule="evenodd"/>
</svg>
