<svg xmlns="http://www.w3.org/2000/svg" width="24" height="24" viewBox="0 0 24 24">
  <path d="M2 22.33c-.17 0-.35-.05-.5-.13a.742.742 0 0 1-.2-.16h-.01a.968.968 0 0 1-.26-.46c-.05-.19-.03-.4.04-.59l2.13-5.55c.16-.42.24-.62.35-.81.11-.2.23-.39.37-.56.13-.16.27-.32.57-.61l11.3-11.34a3.833 3.833 0 0 1 5.41 0 3.833 3.833 0 0 1 0 5.41L9.92 18.81c-.31.31-.47.47-.64.6-.18.14-.37.26-.56.37-.19.1-.4.19-.81.35l-.09.03s-.04.02-.06.02l-5.4 2.08c-.09.03-.18.06-.28.06H2v.01Zm2.88-5.71-1.14 2.96 2.96-1.14-1.82-1.82Zm1.03-1.79.16.16 2.26 2.26.16.16.01-.01L19.79 6.12c.71-.71.71-1.87 0-2.59-.71-.72-1.87-.71-2.59 0L5.93 14.81l-.01.01-.01.01Z"/>
</svg>
