<svg xmlns="http://www.w3.org/2000/svg" width="24" height="24" viewBox="0 0 24 24">
  <path fill-rule="evenodd" d="M11.503 1.548a2 2 0 0 1 .994 0c.378.097.701.334.959.522l.071.053 8.119 5.892.072.052c.26.186.585.42.795.75a2 2 0 0 1 .307.947c.025.39-.1.771-.201 1.075l-.028.084-3.1 9.531-.027.085c-.098.304-.22.685-.469.986a2 2 0 0 1-.805.585c-.363.143-.763.142-1.083.14H6.893c-.319.002-.72.003-1.083-.14a1.999 1.999 0 0 1-.804-.585c-.25-.3-.372-.682-.47-.986l-.026-.085-3.1-9.53a23.584 23.584 0 0 0-.028-.085c-.1-.304-.226-.685-.202-1.075a2 2 0 0 1 .308-.947c.21-.33.535-.564.795-.75l.072-.052 8.118-5.892.072-.053c.257-.188.58-.425.958-.522Zm.49 1.95a7.09 7.09 0 0 0-.345.243L3.529 9.633a7.083 7.083 0 0 0-.345.26l.002.007c.02.082.056.193.125.405l3.1 9.53a7.12 7.12 0 0 0 .14.408h.008c.084.006.2.007.423.007h10.037a7.103 7.103 0 0 0 .43-.007l.003-.007c.032-.078.068-.189.137-.4l3.1-9.531c.07-.212.105-.323.125-.405l.002-.008a7.107 7.107 0 0 0-.345-.259l-8.118-5.892a7.09 7.09 0 0 0-.346-.243L12 3.494l-.006.004Z" clip-rule="evenodd"/>
</svg>
