<svg xmlns="http://www.w3.org/2000/svg" width="24" height="24" viewBox="0 0 24 24">
  <path d="M11.06 2.932c.338-.245.507-.368.692-.415a1 1 0 0 1 .496 0c.185.047.354.17.692.415l8.118 5.892c.339.246.508.368.61.53a1 1 0 0 1 .154.473c.012.19-.052.39-.182.787l-3.1 9.53c-.13.398-.194.597-.316.744a1 1 0 0 1-.402.292c-.177.07-.386.07-.804.07H6.982c-.418 0-.627 0-.804-.07a1 1 0 0 1-.402-.292c-.122-.147-.187-.346-.316-.743l-3.1-9.531c-.13-.398-.194-.597-.182-.787a1 1 0 0 1 .154-.473c.102-.162.271-.284.61-.53l8.118-5.892Z" opacity=".2"/>
  <path fill-rule="evenodd" d="M11.503 1.548a2 2 0 0 1 .994 0c.378.097.701.334.959.522l.071.053 8.119 5.892.072.052c.26.186.585.42.794.75a2 2 0 0 1 .308.947c.025.39-.101.771-.201 1.075l-.028.084-3.1 9.531c-.01.028-.018.056-.027.085-.098.304-.22.685-.47.986a2 2 0 0 1-.804.585c-.363.143-.764.142-1.083.14H6.893c-.32.002-.72.003-1.083-.14a2 2 0 0 1-.805-.585c-.249-.3-.371-.682-.469-.986l-.027-.085-3.1-9.53a23.584 23.584 0 0 0-.028-.085c-.1-.304-.226-.685-.201-1.075a2 2 0 0 1 .308-.947c.21-.33.535-.564.794-.75l.072-.052 8.119-5.892.071-.053c.258-.188.58-.425.959-.522Zm.49 1.95a7.096 7.096 0 0 0-.345.243L3.529 9.633a7.088 7.088 0 0 0-.345.26l.002.007c.02.082.056.193.125.405l3.1 9.53a7.12 7.12 0 0 0 .14.408h.008c.084.006.2.007.423.007h10.036a7.103 7.103 0 0 0 .431-.007l.003-.007a7.84 7.84 0 0 0 .137-.4l3.1-9.531c.069-.212.105-.323.125-.405l.002-.008a7.107 7.107 0 0 0-.345-.259l-8.119-5.892a7.096 7.096 0 0 0-.345-.243L12 3.494l-.007.004Z" clip-rule="evenodd"/>
</svg>
