<svg xmlns="http://www.w3.org/2000/svg" width="24" height="24" viewBox="0 0 24 24">
  <path d="m10 3.556 6 1.333V12h-6V3.556ZM3 18.01c0 1.365 0 2.047.281 2.52a2 2 0 0 0 1.093.877c.523.171 1.189.024 2.52-.272l3.106-.69V12H3v6.01Zm15.494.547L16 19.11V12h5v3.46c0 .898-.002 1.35-.162 1.725a2 2 0 0 1-.669.833c-.334.24-.78.34-1.675.539Z" opacity=".2"/>
  <path fill-rule="evenodd" d="m7.069 1.88 11.675 2.594c.419.093.785.175 1.086.265.32.096.632.221.924.431a3 3 0 0 1 1.003 1.25c.141.331.195.662.22.996.023.313.023.688.023 1.118v6.932c0 .43 0 .805-.023 1.118a3.025 3.025 0 0 1-.22.995c-.215.5-.562.933-1.003 1.25a3.01 3.01 0 0 1-.924.432c-.301.09-.667.172-1.086.265L7.069 22.12c-.63.14-1.165.26-1.608.317-.46.061-.93.074-1.4-.08a3 3 0 0 1-1.639-1.316c-.253-.424-.342-.887-.383-1.349C2 19.248 2 18.699 2 18.054V5.946c0-.645 0-1.194.039-1.638.04-.462.13-.925.383-1.349a3 3 0 0 1 1.64-1.315c.469-.155.94-.142 1.4-.081.442.058.977.177 1.607.317ZM4 13v5.01c0 .701 0 1.16.031 1.507.03.338.08.453.11.501a1 1 0 0 0 .546.439c.054.017.177.042.513-.002.345-.046.794-.145 1.477-.297L9 19.642V13H4Zm5-2H4V5.99c0-.701 0-1.16.031-1.507.03-.338.08-.453.11-.501a1 1 0 0 1 .546-.439c.054-.017.177-.042.513.002.345.046.794.145 1.477.297L9 4.358V11Zm2 2v6.198l4-.89V13h-4Zm4-2h-4V4.802l4 .89V11Zm2 2v4.864l1.277-.283c.461-.103.755-.169.977-.235.21-.064.289-.109.33-.139a1 1 0 0 0 .335-.417c.02-.047.047-.134.063-.352.017-.232.018-.532.018-1.005V13h-3Zm3-2h-3V6.136l1.277.283c.461.103.755.169.977.235.21.064.289.109.33.139a1 1 0 0 1 .335.417c.02.047.047.134.063.353.017.23.018.531.018 1.004V11Z" clip-rule="evenodd"/>
</svg>
