<svg xmlns="http://www.w3.org/2000/svg" width="24" height="24" viewBox="0 0 24 24">
  <path d="M3 4.6c0-.56 0-.84.109-1.054a1 1 0 0 1 .437-.437C3.76 3 4.04 3 4.6 3h.8c.56 0 .84 0 1.054.109a1 1 0 0 1 .437.437C7 3.76 7 4.04 7 4.6v.8c0 .56 0 .84-.109 1.054a1 1 0 0 1-.437.437C6.24 7 5.96 7 5.4 7h-.8c-.56 0-.84 0-1.054-.109a1 1 0 0 1-.437-.437C3 6.24 3 5.96 3 5.4v-.8Zm0 14c0-.56 0-.84.109-1.054a1 1 0 0 1 .437-.437C3.76 17 4.04 17 4.6 17h.8c.56 0 .84 0 1.054.109a1 1 0 0 1 .437.437C7 17.76 7 18.04 7 18.6v.8c0 .56 0 .84-.109 1.054a1 1 0 0 1-.437.437C6.24 21 5.96 21 5.4 21h-.8c-.56 0-.84 0-1.054-.109a1 1 0 0 1-.437-.437C3 20.24 3 19.96 3 19.4v-.8Zm14-12c0-.56 0-.84.109-1.054a1 1 0 0 1 .437-.437C17.76 5 18.04 5 18.6 5h.8c.56 0 .84 0 1.054.109a1 1 0 0 1 .437.437C21 5.76 21 6.04 21 6.6v.8c0 .56 0 .84-.109 1.054a1 1 0 0 1-.437.437C20.24 9 19.96 9 19.4 9h-.8c-.56 0-.84 0-1.054-.109a1 1 0 0 1-.437-.437C17 8.24 17 7.96 17 7.4v-.8Zm0 10c0-.56 0-.84.109-1.054a1 1 0 0 1 .437-.437C17.76 15 18.04 15 18.6 15h.8c.56 0 .84 0 1.054.109a1 1 0 0 1 .437.437C21 15.76 21 16.04 21 16.6v.8c0 .56 0 .84-.109 1.054a1 1 0 0 1-.437.437C20.24 19 19.96 19 19.4 19h-.8c-.56 0-.84 0-1.054-.109a1 1 0 0 1-.437-.437C17 18.24 17 17.96 17 17.4v-.8Z" opacity=".2"/>
  <path fill-rule="evenodd" d="M4.568 2h.864c.252 0 .498 0 .706.017.229.019.499.063.77.201a2 2 0 0 1 .874.874c.138.271.182.541.201.77.014.166.016.357.017.556l8.056 1.151c.03-.153.08-.314.162-.477a2 2 0 0 1 .874-.874 2.03 2.03 0 0 1 .77-.201C18.07 4 18.316 4 18.568 4h.864c.252 0 .498 0 .706.017.229.019.499.063.77.201a2 2 0 0 1 .874.874c.138.271.182.541.201.77.017.208.017.454.017.706v.864c0 .252 0 .498-.017.706a2.022 2.022 0 0 1-.201.77 2 2 0 0 1-.874.874 2.022 2.022 0 0 1-.77.201c-.044.004-.09.007-.138.009v4.016c.048.003.094.005.138.009.229.019.499.063.77.201a2 2 0 0 1 .874.874c.138.271.182.541.201.77.017.208.017.454.017.706v.864c0 .252 0 .498-.017.706a2.022 2.022 0 0 1-.201.77 2 2 0 0 1-.874.874 2.022 2.022 0 0 1-.77.201c-.208.017-.454.017-.706.017h-.864c-.252 0-.498 0-.706-.017a2.022 2.022 0 0 1-.77-.201 2 2 0 0 1-.874-.874 1.815 1.815 0 0 1-.162-.477L8 19.58c0 .2-.003.39-.017.557a2.022 2.022 0 0 1-.201.77 2 2 0 0 1-.874.874 2.022 2.022 0 0 1-.77.201 8.682 8.682 0 0 1-.706.018h-.864c-.252 0-.498 0-.706-.017a2.022 2.022 0 0 1-.77-.201 2 2 0 0 1-.874-.874 2.022 2.022 0 0 1-.201-.77C2 19.93 2 19.684 2 19.432v-.864c0-.252 0-.498.017-.706a2.03 2.03 0 0 1 .201-.77 2 2 0 0 1 .874-.874 2.03 2.03 0 0 1 .77-.201c.044-.004.09-.006.138-.009V7.992a4.059 4.059 0 0 1-.138-.009 2.022 2.022 0 0 1-.77-.201 2 2 0 0 1-.874-.874 2.022 2.022 0 0 1-.201-.77C2 5.93 2 5.684 2 5.432v-.864c0-.252 0-.498.017-.706a2.03 2.03 0 0 1 .201-.77 2 2 0 0 1 .874-.874 2.03 2.03 0 0 1 .77-.201C4.07 2 4.316 2 4.568 2ZM6 7.992v8.016c.048.003.094.005.138.009.229.019.499.063.77.201a2 2 0 0 1 .874.874c.083.163.132.325.162.477L16 16.42c0-.2.003-.39.017-.557a2.03 2.03 0 0 1 .201-.77 2 2 0 0 1 .874-.874 2.03 2.03 0 0 1 .77-.201c.044-.004.09-.006.138-.009V9.992a4.047 4.047 0 0 1-.138-.009 2.022 2.022 0 0 1-.77-.201 2 2 0 0 1-.874-.874 2.022 2.022 0 0 1-.201-.77A7.336 7.336 0 0 1 16 7.582L7.944 6.43c-.03.153-.08.314-.162.477a2 2 0 0 1-.874.874 2.022 2.022 0 0 1-.77.201c-.044.004-.09.007-.138.009ZM6 5.27v.13a8.184 8.184 0 0 1-.011.589h-.014C5.86 6 5.697 6 5.4 6h-.8a8.192 8.192 0 0 1-.589-.011v-.014A8.186 8.186 0 0 1 4 5.4v-.8a8.185 8.185 0 0 1 .011-.589h.014C4.14 4 4.303 4 4.6 4h.8a8.192 8.192 0 0 1 .589.011v.014C6 4.14 6 4.303 6 4.6v.671Zm12 1.458V7.4a8.205 8.205 0 0 0 .012.589h.013c.116.01.279.011.575.011h.8a8.194 8.194 0 0 0 .589-.011v-.014C20 7.86 20 7.697 20 7.4v-.8a8.205 8.205 0 0 0-.012-.589h-.013A8.194 8.194 0 0 0 19.4 6h-.8a8.194 8.194 0 0 0-.588.011l-.002.014C18 6.14 18 6.303 18 6.6v.129ZM18.6 16c-.297 0-.459 0-.575.01l-.013.001-.002.014c-.01.116-.01.279-.01.575v.8a8.207 8.207 0 0 0 .012.589h.013c.116.01.279.011.575.011h.8a8.207 8.207 0 0 0 .589-.012v-.013c.01-.116.011-.279.011-.575v-.8a8.207 8.207 0 0 0-.012-.589h-.013A8.207 8.207 0 0 0 19.4 16h-.8ZM6 18.697V18.6a8.185 8.185 0 0 0-.011-.589h-.014A8.205 8.205 0 0 0 5.4 18h-.8c-.297 0-.459 0-.575.01l-.014.001v.014C4 18.14 4 18.304 4 18.6v.8a8.187 8.187 0 0 0 .011.588l.014.002c.116.01.278.01.575.01h.8a8.205 8.205 0 0 0 .589-.012v-.013C6 19.86 6 19.696 6 19.4v-.703Z" clip-rule="evenodd"/>
</svg>
