<svg xmlns="http://www.w3.org/2000/svg" width="24" height="24" viewBox="0 0 24 24">
  <path fill-rule="evenodd" d="M6.01 5.144a1 1 0 0 1 1.131-.848l10 1.428a1 1 0 1 1-.282 1.98l-10-1.428a1 1 0 0 1-.849-1.132ZM5 6a1 1 0 0 1 1 1v10a1 1 0 1 1-2 0V7a1 1 0 0 1 1-1Zm14 2a1 1 0 0 1 1 1v6a1 1 0 1 1-2 0V9a1 1 0 0 1 1-1Zm-1.01 9.144a1 1 0 0 1-.849 1.132l-10 1.428a1 1 0 0 1-.282-1.98l10-1.428a1 1 0 0 1 1.13.848Z" clip-rule="evenodd" opacity=".5"/>
  <path fill-rule="evenodd" d="M4.568 2h.864c.252 0 .498 0 .706.017.229.019.499.063.77.201a2 2 0 0 1 .874.874c.138.271.182.541.201.77C8 4.07 8 4.316 8 4.568v.864c0 .252 0 .498-.017.706a2.021 2.021 0 0 1-.201.77 2 2 0 0 1-.874.874 2.022 2.022 0 0 1-.77.201C5.93 8 5.684 8 5.432 8h-.864c-.252 0-.498 0-.706-.017a2.022 2.022 0 0 1-.77-.201 2 2 0 0 1-.874-.874 2.022 2.022 0 0 1-.201-.77A9.184 9.184 0 0 1 2 5.432v-.864c0-.252 0-.498.017-.706a2.03 2.03 0 0 1 .201-.77 2 2 0 0 1 .874-.874 2.03 2.03 0 0 1 .77-.201C4.07 2 4.316 2 4.568 2Zm-.557 2.011v.014C4 4.14 4 4.303 4 4.6v.8a8.192 8.192 0 0 0 .011.589h.014C4.14 6 4.303 6 4.6 6h.8a8.183 8.183 0 0 0 .589-.011v-.014C6 5.86 6 5.697 6 5.4v-.8a8.184 8.184 0 0 0-.011-.589h-.014A8.185 8.185 0 0 0 5.4 4h-.8a8.186 8.186 0 0 0-.589.011ZM18.568 4h.864c.252 0 .498 0 .706.017.229.019.499.063.77.201a2 2 0 0 1 .874.874c.138.271.182.541.201.77.017.208.017.454.017.706v.864c0 .252 0 .498-.017.706a2.022 2.022 0 0 1-.201.77 2 2 0 0 1-.874.874 2.022 2.022 0 0 1-.77.201c-.208.017-.454.017-.706.017h-.864c-.252 0-.498 0-.706-.017a2.022 2.022 0 0 1-.77-.201 2 2 0 0 1-.874-.874 2.022 2.022 0 0 1-.201-.77C16 7.93 16 7.684 16 7.432v-.864c0-.252 0-.498.017-.706a2.03 2.03 0 0 1 .201-.77 2 2 0 0 1 .874-.874 2.03 2.03 0 0 1 .77-.201C18.07 4 18.316 4 18.568 4Zm-.557 2.011v.014C18 6.14 18 6.303 18 6.6v.8c0 .297 0 .459.01.575l.001.014h.014c.116.01.279.011.575.011h.8a8.185 8.185 0 0 0 .589-.011v-.014C20 7.86 20 7.697 20 7.4v-.8a8.205 8.205 0 0 0-.012-.589h-.013A8.187 8.187 0 0 0 19.4 6h-.8a8.187 8.187 0 0 0-.589.011ZM18.568 14h.864c.252 0 .498 0 .706.017.229.019.499.063.77.201a2 2 0 0 1 .874.874c.138.271.182.541.201.77.017.208.017.454.017.706v.864c0 .252 0 .498-.017.706a2.022 2.022 0 0 1-.201.77 2 2 0 0 1-.874.874 2.022 2.022 0 0 1-.77.201c-.208.017-.454.017-.706.017h-.864c-.252 0-.498 0-.706-.017a2.022 2.022 0 0 1-.77-.201 2 2 0 0 1-.874-.874 2.022 2.022 0 0 1-.201-.77C16 17.93 16 17.684 16 17.432v-.864c0-.252 0-.498.017-.706a2.03 2.03 0 0 1 .201-.77 2 2 0 0 1 .874-.874 2.03 2.03 0 0 1 .77-.201c.208-.017.454-.017.706-.017Zm-.557 2.012v.013c-.01.116-.011.279-.011.575v.8c0 .297 0 .459.01.575l.001.014h.014c.116.01.279.011.575.011h.8a8.207 8.207 0 0 0 .589-.012v-.013c.01-.116.011-.279.011-.575v-.8a8.207 8.207 0 0 0-.012-.588l-.013-.002A8.207 8.207 0 0 0 19.4 16h-.8a8.207 8.207 0 0 0-.589.012ZM4.568 16h.864c.252 0 .498 0 .706.017.229.019.499.063.77.201a2 2 0 0 1 .874.874c.138.271.182.541.201.77.017.208.017.454.017.706v.864c0 .252 0 .498-.017.706a2.022 2.022 0 0 1-.201.77 2 2 0 0 1-.874.874 2.022 2.022 0 0 1-.77.201C5.93 22 5.684 22 5.432 22h-.864c-.252 0-.498 0-.706-.017a2.022 2.022 0 0 1-.77-.201 2 2 0 0 1-.874-.874 2.022 2.022 0 0 1-.201-.77A9.182 9.182 0 0 1 2 19.432v-.864c0-.252 0-.498.017-.706a2.03 2.03 0 0 1 .201-.77 2 2 0 0 1 .874-.874 2.03 2.03 0 0 1 .77-.201C4.07 16 4.316 16 4.568 16Zm-.557 2.012v.013C4 18.14 4 18.304 4 18.6v.8a8.194 8.194 0 0 0 .011.588l.014.002c.116.01.278.01.575.01h.8a8.205 8.205 0 0 0 .589-.012v-.013C6 19.86 6 19.696 6 19.4v-.8a8.185 8.185 0 0 0-.011-.588l-.014-.002A8.205 8.205 0 0 0 5.4 18h-.8a8.205 8.205 0 0 0-.589.012Z" clip-rule="evenodd"/>
</svg>
