<svg xmlns="http://www.w3.org/2000/svg" width="24" height="24" viewBox="0 0 24 24">
  <path d="M7.38 9.853a14.602 14.602 0 0 0 2.847 4.01 14.601 14.601 0 0 0 4.01 2.846c.125.06.187.09.266.113.28.082.624.023.862-.147.067-.048.124-.105.238-.22.35-.349.525-.524.7-.638a2 2 0 0 1 2.18 0c.177.114.351.29.701.639l.195.195c.531.531.797.797.941 1.082a2 2 0 0 1 0 1.806c-.144.285-.41.55-.941 1.082l-.158.158c-.53.53-.794.794-1.154.997a3.39 3.39 0 0 1-1.479.384c-.412-.001-.695-.081-1.26-.242a19.039 19.039 0 0 1-8.283-4.873A19.038 19.038 0 0 1 2.172 8.76c-.16-.564-.24-.846-.242-1.26a3.377 3.377 0 0 1 .385-1.478c.202-.36.467-.624.996-1.154l.158-.158c.531-.53.797-.796 1.081-.94a2 2 0 0 1 1.806 0c.285.144.55.41 1.082.941l.195.195c.35.35.525.525.639.7a2 2 0 0 1 0 2.18c-.114.176-.29.351-.639.7a2.02 2.02 0 0 0-.219.24c-.17.237-.229.58-.147.861.023.08.053.141.113.266Z" opacity=".2"/>
  <path fill-rule="evenodd" d="M17 2a1 1 0 0 1 1 1v3h3a1 1 0 1 1 0 2h-3v3a1 1 0 1 1-2 0V8h-3a1 1 0 1 1 0-2h3V3a1 1 0 0 1 1-1ZM5.905 4.662a1 1 0 0 0-.902 0c-.107.054-.24.17-.827.756l-.158.158c-.56.56-.71.722-.832.937-.14.25-.257.7-.256.986 0 .254.038.407.204.99a18.038 18.038 0 0 0 4.618 7.849 18.038 18.038 0 0 0 7.85 4.618c.582.166.735.203.99.204.285 0 .736-.116.985-.256.215-.121.377-.272.937-.832l.158-.158c.587-.587.702-.72.756-.827a1 1 0 0 0 0-.902c-.054-.107-.17-.24-.756-.827l-.195-.195c-.386-.386-.473-.465-.538-.507a1 1 0 0 0-1.09 0c-.066.042-.153.121-.539.507l-.023.023c-.09.09-.203.205-.34.302l-.582-.813.582.813a2.045 2.045 0 0 1-1.724.294 2.49 2.49 0 0 1-.395-.16l-.024-.011a15.603 15.603 0 0 1-4.284-3.04 15.603 15.603 0 0 1-3.04-4.285l-.012-.024a2.487 2.487 0 0 1-.16-.395l.96-.28-.96.28a2.045 2.045 0 0 1 .294-1.724c.097-.136.212-.25.302-.34l.023-.023c.386-.386.465-.473.507-.538a1 1 0 0 0 0-1.09c-.042-.066-.121-.153-.507-.539l-.195-.195c-.587-.587-.72-.702-.827-.756ZM4.1 2.878a3 3 0 0 1 2.708 0c.433.218.808.595 1.243 1.03l.095.096.195.195.063.063c.287.286.534.533.707.8l-.838.544.838-.545a3 3 0 0 1 0 3.27c-.173.267-.42.514-.707.8a74.3 74.3 0 0 0-.17.172.098.098 0 0 0-.002.011 2.146 2.146 0 0 0 .05.106 13.603 13.603 0 0 0 2.652 3.736 13.606 13.606 0 0 0 3.736 2.652l-.433.901.433-.901.076.036.03.014h.006l.005-.002c.022-.02.051-.05.109-.107l.063-.063c.286-.287.533-.534.8-.707a3 3 0 0 1 3.27 0c.266.173.513.42.799.707l.063.063.195.195.096.095c.435.435.812.81 1.03 1.243a3 3 0 0 1 0 2.708c-.218.433-.595.808-1.03 1.243l-.096.095-.158.158-.068.068c-.465.466-.822.823-1.304 1.094-.55.308-1.34.514-1.97.512-.552-.002-.955-.116-1.474-.264l-.056-.015a20.04 20.04 0 0 1-8.718-5.129 20.039 20.039 0 0 1-5.144-8.774C1.046 8.459.932 8.057.93 7.505a4.365 4.365 0 0 1 .513-1.971c.27-.482.628-.84 1.093-1.304l.068-.068.158-.158.095-.096c.435-.435.81-.812 1.243-1.03l.443.876-.443-.876Z" clip-rule="evenodd"/>
</svg>
