<svg xmlns="http://www.w3.org/2000/svg" width="24" height="24" viewBox="0 0 24 24">
  <path fill-rule="evenodd" d="M12 4a8.97 8.97 0 0 0-6.427 2.7 1 1 0 1 1-1.428-1.4A10.97 10.97 0 0 1 12 2a10.97 10.97 0 0 1 7.856 3.3 1 1 0 0 1-1.429 1.4A8.97 8.97 0 0 0 12 4Zm0 4c-1.48 0-2.81.642-3.727 1.667a1 1 0 1 1-1.49-1.334A6.985 6.985 0 0 1 12 6c2.073 0 3.937.903 5.217 2.333a1 1 0 0 1-1.49 1.334A4.985 4.985 0 0 0 12 8Z" clip-rule="evenodd" opacity=".5"/>
  <path d="M19.5 22h-.25c-.28 0-.43 0-.55-.01a3.004 3.004 0 0 1-2.69-2.69c-.01-.12-.01-.26-.01-.55l-.03-.07c-2.55-.9-5.41-.89-7.96 0-.03.35-.03.49-.04.61a3.005 3.005 0 0 1-2.69 2.7c-.12.01-.26.01-.55.01h-.25c-.51 0-.79 0-1.08-.06a2.977 2.977 0 0 1-2.36-2.36c-.06-.29-.06-.57-.06-1.08v-.2c0-.5 0-.81.07-1.17.16-.83.72-1.8 1.38-2.34.29-.24.49-.35.8-.52 5.32-2.97 12.19-2.97 17.51 0 .29.16.51.28.8.52.66.55 1.22 1.51 1.38 2.35.07.36.07.67.07 1.17v.2c0 .51 0 .79-.06 1.08a2.99 2.99 0 0 1-2.36 2.36c-.29.06-.57.06-1.08.06l.01-.01Zm-2.86-5.21c.08.03.12.04.18.07.65.29 1.13.96 1.18 1.68v.57c.05.47.42.85.9.9h.6c.36 0 .59 0 .69-.02.4-.08.71-.39.79-.79.02-.1.02-.33.02-.69v-.2c0-.46 0-.63-.03-.8-.07-.38-.39-.93-.69-1.17-.14-.12-.22-.16-.5-.31-4.73-2.64-10.84-2.64-15.57 0-.28.16-.36.2-.5.32-.29.24-.62.79-.69 1.17-.03.17-.03.34-.03.8v.2c0 .36 0 .59.02.69.08.4.39.71.79.79.1.02.33.02.69.02h.6c.47-.05.85-.42.9-.9v-.57c.06-.71.53-1.39 1.19-1.68.03-.01.14-.06.17-.07 2.99-1.05 6.31-1.05 9.29 0v-.01Z"/>
</svg>
