<svg xmlns="http://www.w3.org/2000/svg" width="24" height="24"  viewBox="0 0 24 24">
  <path d="M21.707 3.707a1 1 0 0 0-1.414-1.414l-18 18a1 1 0 1 0 1.414 1.414L8.016 17.4a20.268 20.268 0 0 0 8.096 4.497c.52.148.922.262 1.474.264a4.367 4.367 0 0 0 1.97-.512c.96-.54 2.162-1.68 2.657-2.658a3 3 0 0 0 0-2.708c-.423-.836-1.401-1.794-2.184-2.303a3 3 0 0 0-3.27 0c-.267.173-.514.42-.8.707a1.67 1.67 0 0 0-.037.039c-.073.078-.132.14-.252.083a13.56 13.56 0 0 1-3.051-2.012l9.088-9.089ZM10.012 9.745a13.51 13.51 0 0 1-.73-1.325c-.057-.118.01-.182.088-.256l.035-.033c.286-.286.533-.533.706-.8a3 3 0 0 0 0-3.27c-.509-.782-1.467-1.76-2.303-2.183a3 3 0 0 0-2.708 0c-.985.498-2.126 1.71-2.657 2.656a4.365 4.365 0 0 0-.513 1.97c.002.553.116.955.264 1.474a20.31 20.31 0 0 0 3.144 6.44l4.674-4.673Z"/>
</svg>
