<svg xmlns="http://www.w3.org/2000/svg" width="24" height="24" viewBox="0 0 24 24">
  <path d="M19.5 22h-.25c-.28 0-.43 0-.55-.01a3.004 3.004 0 0 1-2.69-2.69c-.01-.12-.01-.26-.01-.55-2.61-1.04-5.44-.97-7.99-.07-.03.36-.03.5-.04.62a3.004 3.004 0 0 1-2.69 2.69c-.12.01-.26.01-.55.01h-.25c-.51 0-.79 0-1.08-.06a2.977 2.977 0 0 1-2.36-2.36c-.06-.29-.06-.57-.06-1.08v-.2c0-.5 0-.81.07-1.17.16-.84.72-1.8 1.38-2.34.28-.23.48-.35.79-.52 5.34-2.98 12.2-2.97 17.52 0 .31.17.52.29.8.52.65.54 1.22 1.51 1.38 2.34.07.36.07.67.07 1.17v.2c0 .51 0 .79-.06 1.07a3.014 3.014 0 0 1-2.36 2.37c-.29.06-.57.06-1.08.06h.01ZM12 16c1.59 0 3.15.26 4.64.79.08.03.12.04.18.07.65.29 1.13.96 1.18 1.68v.57c.05.47.42.85.9.9h.6c.36 0 .59 0 .69-.02.4-.08.71-.39.79-.79.02-.09.02-.33.02-.69v-.2c0-.46 0-.63-.03-.8-.07-.38-.39-.93-.69-1.17a2.65 2.65 0 0 0-.49-.31c-4.74-2.64-10.84-2.64-15.57 0-.29.16-.36.2-.49.31-.3.25-.62.79-.69 1.17-.03.17-.03.34-.03.8v.2c0 .36 0 .59.02.69.08.4.39.71.79.79.1.02.33.02.69.02h.6c.47-.05.85-.42.9-.9v-.58c.05-.7.53-1.38 1.19-1.66.06-.03.1-.04.18-.07 1.49-.52 3.05-.79 4.64-.79L12 16Zm4.47-6c-.27 0-.55-.11-.75-.33A5.019 5.019 0 0 0 11.99 8c-1.42 0-2.78.61-3.73 1.67a.998.998 0 1 1-1.49-1.33 7.026 7.026 0 0 1 5.22-2.33c1.99 0 3.89.85 5.22 2.33.37.41.33 1.04-.08 1.41-.19.17-.43.25-.67.25h.01Zm2.67-3c-.26 0-.52-.1-.71-.3A8.945 8.945 0 0 0 12 4c-2.44 0-4.72.96-6.43 2.7a.996.996 0 1 1-1.42-1.4C6.23 3.17 9.02 2 12 2c2.98 0 5.77 1.17 7.85 3.3.39.39.38 1.03-.01 1.41-.2.19-.45.29-.7.29Z"/>
</svg>
