<svg xmlns="http://www.w3.org/2000/svg" width="24" height="24" viewBox="0 0 24 24">
  <path fill-rule="evenodd" d="M6.905 3.662a1 1 0 0 0-.903 0c-.106.054-.24.17-.826.756l-.158.158c-.56.56-.711.722-.832.937-.14.25-.257.7-.256.986 0 .254.038.407.203.99a17.996 17.996 0 0 0 2.183 4.833 1 1 0 0 1-1.681 1.083 19.997 19.997 0 0 1-2.442-5.427c-.147-.519-.262-.921-.263-1.473a4.365 4.365 0 0 1 .512-1.971c.271-.482.628-.84 1.094-1.304l.068-.068.157-.158.096-.096c.434-.435.81-.812 1.243-1.03a3 3 0 0 1 2.708 0c.432.218.808.595 1.242 1.03l.096.096.195.195.063.063c.287.286.534.533.707.8a3 3 0 0 1 0 3.27c-.173.266-.42.513-.707.799l-.063.063a6.331 6.331 0 0 0-.108.109.093.093 0 0 0-.001.011 2.084 2.084 0 0 0 .05.106c.112.235.232.467.359.695a1 1 0 1 1-1.75.969 15.5 15.5 0 0 1-.412-.798l-.012-.024a2.412 2.412 0 0 1-.16-.395 2.045 2.045 0 0 1 .294-1.724c.098-.136.212-.25.302-.34l.024-.023c.385-.386.464-.473.507-.538a1 1 0 0 0 0-1.09c-.043-.066-.122-.153-.507-.539l-.195-.195c-.587-.587-.72-.702-.827-.756Zm14.802-1.37a1 1 0 0 1 0 1.415l-9.089 9.089a13.562 13.562 0 0 0 3.127 2.048l.03.014h.006l.006-.002.109-.107.063-.063c.286-.287.532-.534.799-.707a3 3 0 0 1 3.27 0c.267.173.513.42.8.707l.063.063.194.195.096.095c.436.435.812.81 1.031 1.243a3 3 0 0 1 0 2.708c-.219.433-.595.808-1.03 1.243l-.097.095-.157.158-.068.068c-.465.466-.822.823-1.304 1.094-.55.308-1.34.514-1.971.512-.552-.002-.954-.116-1.473-.264l-.057-.015a20.018 20.018 0 0 1-8.04-4.482l-4.308 4.308a1 1 0 0 1-1.414-1.414l18-18a1 1 0 0 1 1.414 0ZM11.2 14.213l-1.77 1.771a18.016 18.016 0 0 0 7.17 3.973c.583.166.736.203.99.204.286 0 .736-.116.985-.256.215-.121.377-.272.938-.832l.157-.158c.587-.587.703-.72.756-.827a1 1 0 0 0 0-.902c-.053-.107-.169-.24-.756-.827l-.195-.195c-.385-.386-.472-.465-.538-.507a1 1 0 0 0-1.09 0c-.066.042-.152.121-.538.507a2.704 2.704 0 0 1-.363.325 2.045 2.045 0 0 1-1.724.294 2.49 2.49 0 0 1-.396-.16l-.023-.011a15.564 15.564 0 0 1-3.603-2.398Z" clip-rule="evenodd"/>
</svg>
