<svg xmlns="http://www.w3.org/2000/svg" width="24" height="24" viewBox="0 0 24 24">
  <path fill-rule="evenodd" d="M6.905 3.662a1 1 0 0 0-.902 0c-.107.054-.24.17-.827.756l-.158.158c-.56.56-.71.722-.832.937-.14.25-.257.7-.256.986 0 .254.038.407.204.99a17.996 17.996 0 0 0 2.183 4.833 1 1 0 1 1-1.682 1.083 19.997 19.997 0 0 1-2.425-5.37l-.016-.057c-.148-.519-.262-.921-.264-1.473a4.365 4.365 0 0 1 .513-1.971l.871.49-.871-.49c.27-.482.628-.84 1.093-1.304l.068-.068.158-.158.095-.096c.435-.435.81-.812 1.243-1.03l.444.878-.444-.878a3 3 0 0 1 2.708 0c.433.218.808.595 1.243 1.03l.095.096-.684.685.684-.685.195.195.063.063c.287.286.534.533.707.8l-.838.544.838-.545a3 3 0 0 1 0 3.27c-.173.267-.42.514-.707.8l-.063.063a6.331 6.331 0 0 0-.107.109.102.102 0 0 0-.002.011 2.084 2.084 0 0 0 .05.106c.113.235.232.467.359.695a1 1 0 0 1-1.75.969 15.5 15.5 0 0 1-.412-.798l.902-.433-.902.433a21.723 21.723 0 0 0-.011-.024 2.412 2.412 0 0 1-.16-.395 2.045 2.045 0 0 1 .294-1.724 2.713 2.713 0 0 1 .325-.363c.386-.386.465-.473.507-.538a1 1 0 0 0 0-1.09c-.042-.066-.121-.153-.507-.539l-.195-.195c-.587-.587-.72-.702-.827-.756Z" clip-rule="evenodd" opacity=".5"/>
  <path fill-rule="evenodd" d="M21.707 2.293a1 1 0 0 1 0 1.414l-9.088 9.089a13.562 13.562 0 0 0 3.127 2.048l.03.014h.006l.005-.002c.022-.02.051-.05.109-.107l.063-.063c.286-.287.533-.534.8-.707a3 3 0 0 1 3.27 0c.266.173.513.42.799.707l.063.063.195.195.096.095c.435.435.812.81 1.03 1.243a3 3 0 0 1 0 2.708c-.218.433-.595.808-1.03 1.243a85.19 85.19 0 0 0-.096.095l-.158.158-.068.068c-.465.466-.822.823-1.304 1.094-.55.308-1.34.514-1.97.512-.552-.002-.955-.116-1.474-.264l-.056-.015a20.019 20.019 0 0 1-8.04-4.482l-4.309 4.308a1 1 0 0 1-1.414-1.414l18-18a1 1 0 0 1 1.414 0Zm-10.506 11.92-1.77 1.77a18.015 18.015 0 0 0 7.17 3.973c.583.166.736.203.99.204.286 0 .737-.116.986-.256.215-.121.377-.272.937-.832l.158-.158c.587-.587.702-.72.756-.827a1 1 0 0 0 0-.902c-.054-.107-.17-.24-.756-.827l-.195-.195c-.386-.386-.473-.465-.538-.507a1 1 0 0 0-1.09 0c-.066.042-.153.121-.539.507l-.023.023c-.09.09-.203.205-.34.302a2.045 2.045 0 0 1-1.724.294 2.493 2.493 0 0 1-.395-.16l-.024-.011a15.566 15.566 0 0 1-3.603-2.398Z" clip-rule="evenodd"/>
</svg>
