<svg xmlns="http://www.w3.org/2000/svg" width="24" height="24" fill="none" viewBox="0 0 24 24">
  <path stroke="#2970FF" stroke-linecap="round" stroke-linejoin="round" stroke-width="2" d="M8.38 8.853a14.6 14.6 0 0 0 2.847 4.01 14.602 14.602 0 0 0 4.01 2.846c.124.06.187.09.266.113.28.082.624.023.862-.147.067-.048.124-.105.238-.22.35-.349.524-.524.7-.638a2 2 0 0 1 2.18 0c.176.114.351.29.7.639l.196.195c.531.531.797.797.941 1.082a2 2 0 0 1 0 1.806c-.144.285-.41.55-.941 1.082l-.158.158c-.53.53-.794.794-1.154.997a3.39 3.39 0 0 1-1.479.384c-.413-.001-.695-.081-1.26-.242a19.039 19.039 0 0 1-8.283-4.873A19.038 19.038 0 0 1 3.172 7.76c-.16-.564-.24-.846-.242-1.26a3.377 3.377 0 0 1 .384-1.478c.203-.36.468-.624.997-1.154l.158-.158c.531-.53.797-.796 1.081-.94a2 2 0 0 1 1.806 0c.285.144.55.41 1.082.941l.195.195c.35.35.525.525.639.7a2 2 0 0 1 0 2.18c-.114.176-.29.351-.639.7a2.02 2.02 0 0 0-.22.24c-.17.237-.228.58-.146.861.023.08.053.141.113.266Z"/>
</svg>
