<svg xmlns="http://www.w3.org/2000/svg" width="24" height="24" viewBox="0 0 24 24">
  <path fill-rule="evenodd" d="M20.293 2.293a1 1 0 1 1 1.414 1.414L17.414 8H20a1 1 0 1 1 0 2h-5a1 1 0 0 1-1-1V4a1 1 0 1 1 2 0v2.586l4.293-4.293ZM5.905 4.663a1 1 0 0 0-.903 0c-.106.053-.24.168-.826.755l-.158.158c-.56.56-.711.722-.832.937-.14.25-.257.7-.256.986 0 .254.038.407.203.99a18.038 18.038 0 0 0 4.619 7.849 18.038 18.038 0 0 0 7.85 4.618c.582.166.735.203.989.204.286 0 .736-.116.985-.256.215-.121.377-.272.938-.832l.157-.158c.587-.587.703-.72.756-.827a1 1 0 0 0 0-.902c-.053-.107-.169-.24-.756-.827l-.195-.195c-.385-.386-.472-.465-.538-.507a1 1 0 0 0-1.09 0c-.066.042-.152.121-.538.507a2.704 2.704 0 0 1-.363.325l-.583-.813.583.813a2.045 2.045 0 0 1-1.724.294 2.49 2.49 0 0 1-.396-.16l-.023-.011a15.602 15.602 0 0 1-4.284-3.04 15.603 15.603 0 0 1-3.041-4.285l-.012-.024a2.488 2.488 0 0 1-.16-.395l.96-.28-.96.28a2.045 2.045 0 0 1 .294-1.724c.098-.136.212-.25.302-.34l.024-.023c.385-.386.464-.473.507-.538a1 1 0 0 0 0-1.09c-.043-.066-.122-.153-.507-.539l-.195-.195c-.587-.587-.72-.702-.827-.756ZM4.1 2.877a3 3 0 0 1 2.708 0c.432.218.808.595 1.242 1.03l.096.096.195.195.063.063c.287.286.534.533.707.8l-.839.544.839-.545a3 3 0 0 1 0 3.27c-.173.267-.42.514-.707.8a74.3 74.3 0 0 0-.17.172.09.09 0 0 0-.002.011 2.146 2.146 0 0 0 .05.106 13.603 13.603 0 0 0 2.652 3.736 13.606 13.606 0 0 0 3.735 2.652l-.433.901.433-.901.076.036.03.014h.006l.006-.002.109-.107.063-.063c.286-.287.532-.534.799-.707a3 3 0 0 1 3.27 0c.267.173.513.42.8.707l.063.063.194.195.096.095c.436.435.812.81 1.031 1.243a3 3 0 0 1 0 2.708c-.219.433-.595.808-1.03 1.243l-.097.095-.157.158-.068.068c-.465.466-.822.823-1.304 1.094-.55.308-1.34.514-1.971.512-.552-.002-.954-.116-1.473-.264l-.057-.015a20.04 20.04 0 0 1-8.717-5.129 20.039 20.039 0 0 1-5.145-8.774c-.147-.518-.262-.92-.263-1.472a4.365 4.365 0 0 1 .512-1.971c.271-.482.628-.84 1.094-1.304l.068-.068.157-.158.096-.096c.434-.435.81-.812 1.243-1.03l.443.876-.443-.876Z" clip-rule="evenodd"/>
</svg>
