<svg xmlns="http://www.w3.org/2000/svg" width="24" height="24" viewBox="0 0 24 24">
  <path fill-rule="evenodd" d="M3 11.894a9.315 9.315 0 0 0 0 .196 9 9 0 0 0 4.722 7.828l2.926-7.24-7.551-1.996a9 9 0 0 0-.096 1.212Zm.606-3.146 8.65 2.285a1 1 0 0 1 .671 1.342L9.576 20.67A9 9 0 1 0 12 3a9.003 9.003 0 0 0-8.394 5.748Zm.78 11.192A10.962 10.962 0 0 1 1 11.87C1.07 5.856 5.969 1 12 1c6.075 0 11 4.925 11 11s-4.925 11-11 11a10.963 10.963 0 0 1-7.613-3.06Z" clip-rule="evenodd" opacity=".5"/>
  <path fill-rule="evenodd" d="M11.094 3.046a9 9 0 0 0-7.475 5.673l7.395 1.981.08-7.654Zm-5.745.192a11 11 0 0 1 6.766-2.237 1 1 0 0 1 .99 1.01l-.105 10a1 1 0 0 1-1.259.955l-9.66-2.588a1 1 0 0 1-.706-1.225 11 11 0 0 1 3.974-5.915Z" clip-rule="evenodd"/>
</svg>
