<svg xmlns="http://www.w3.org/2000/svg" width="24" height="24" viewBox="0 0 24 24">
  <path fill-rule="evenodd" d="M12 3a9 9 0 1 0 4.45 16.825l-5.259-7.237A1 1 0 0 1 12 11h8.945A9 9 0 0 0 12 3Zm8.944 10h-6.981l4.103 5.648a9.04 9.04 0 0 0 .44-.43A8.997 8.997 0 0 0 20.945 13Zm-1.073 6.684A10.964 10.964 0 0 0 23 12c0-6.075-4.925-11-11-11S1 5.925 1 12s4.925 11 11 11a10.963 10.963 0 0 0 7.87-3.316Z" clip-rule="evenodd" opacity=".5"/>
  <path fill-rule="evenodd" d="M11 2a1 1 0 0 1 1-1 11 11 0 0 1 11 11 1 1 0 0 1-1 1H12a1 1 0 0 1-1-1V2Zm2 1.056V11h7.944A9 9 0 0 0 13 3.056Z" clip-rule="evenodd"/>
</svg>
