<svg xmlns="http://www.w3.org/2000/svg" width="24" height="24" viewBox="0 0 24 24">
  <path d="M2.34 9.412A10 10 0 0 1 12.106 2L12 12 2.34 9.412Z" opacity=".2"/>
  <path fill-rule="evenodd" d="M11.094 3.046a9 9 0 0 0-7.475 5.673l7.395 1.981.08-7.654ZM12.017 1C18.084 1.01 23 5.93 23 12c0 6.075-4.925 11-11 11a10.966 10.966 0 0 1-7.965-3.414A10.962 10.962 0 0 1 1 11.871a10.962 10.962 0 0 1 3.39-7.815A10.963 10.963 0 0 1 11.978 1h.04ZM3 12.09a9.31 9.31 0 0 1 0-.196 9 9 0 0 1 .097-1.212l7.55 1.995-2.925 7.241A9 9 0 0 1 3 12.09Zm6.576 8.58a9 9 0 1 0 3.518-17.604L13 12.01a1 1 0 0 1-.073.365L9.576 20.67Z" clip-rule="evenodd"/>
</svg>
