<svg xmlns="http://www.w3.org/2000/svg" width="24" height="24" viewBox="0 0 24 24">
  <path d="M21.2 12c.278 0 .417 0 .528-.06a.524.524 0 0 0 .22-.238c.05-.116.04-.244.02-.501a10 10 0 0 0-9.169-9.169c-.257-.02-.385-.03-.5.02a.525.525 0 0 0-.239.22c-.06.111-.06.25-.06.528v8.4c0 .28 0 .42.055.527a.5.5 0 0 0 .218.218c.107.055.247.055.527.055h8.4Z" opacity=".2"/>
  <path fill-rule="evenodd" d="M12.83 1.03c.019.003.035.004.05.005a11 11 0 0 1 10.085 10.086c0 .014.003.03.004.049.017.182.054.571-.106.935-.132.3-.371.56-.66.715-.22.119-.431.155-.587.168-.13.012-.275.012-.392.012h-8.447c-.12 0-.261 0-.387-.01a1.507 1.507 0 0 1-.571-.154 1.5 1.5 0 0 1-.655-.655 1.507 1.507 0 0 1-.154-.571 4.924 4.924 0 0 1-.01-.387V2.776c0-.117 0-.263.011-.392a1.48 1.48 0 0 1 .884-1.247c.364-.16.753-.123.935-.106ZM13 3.057V11h7.944A8.997 8.997 0 0 0 13 3.056ZM8.917 2.43A1 1 0 0 1 8.4 3.747 9 9 0 1 0 20.289 15.5a1 1 0 0 1 1.842.778A11 11 0 1 1 7.6 1.913a1 1 0 0 1 1.317.517Z" clip-rule="evenodd"/>
</svg>
