<svg xmlns="http://www.w3.org/2000/svg" width="24" height="24" viewBox="0 0 24 24">
  <path fill-rule="evenodd" d="m12.83 1.03.05.005a11 11 0 0 1 10.085 10.086l.005.049c.017.182.054.571-.107.935-.132.3-.371.559-.66.715-.22.119-.43.154-.586.168-.13.012-.276.012-.393.012h-8.447c-.119 0-.261 0-.386-.01a1.508 1.508 0 0 1-.572-.154 1.5 1.5 0 0 1-.655-.655 1.508 1.508 0 0 1-.153-.571c-.01-.125-.01-.268-.01-.387V2.776c0-.117 0-.263.01-.392.015-.156.05-.367.17-.587.155-.289.414-.528.714-.66.364-.16.753-.123.936-.106ZM13 3.057V11h7.945A9.001 9.001 0 0 0 13 3.056ZM8.917 2.43A1 1 0 0 1 8.4 3.747 9 9 0 1 0 20.29 15.5a1 1 0 0 1 1.841.778A11 11 0 1 1 7.601 1.913a1 1 0 0 1 1.316.517Z" clip-rule="evenodd"/>
</svg>
