<svg xmlns="http://www.w3.org/2000/svg" width="24" height="24"  viewBox="0 0 24 24">
  <path d="M7.625 20.158c-.222.55-.333.825-.557.992a1.09 1.09 0 0 1-.686.194c-.28-.025-.487-.178-.902-.484A10.984 10.984 0 0 1 1 11.915c.004-.517.006-.775.154-1.013.117-.19.351-.37.566-.433.269-.08.555-.004 1.128.147l6.923 1.83c.303.08.454.12.548.21a.5.5 0 0 1 .149.297c.016.13-.043.275-.16.565l-2.683 6.64Zm5.471-17.352c.006-.592.01-.888.158-1.126.117-.19.352-.368.566-.43.269-.08.518-.013 1.015.119C19.537 2.619 23 6.905 23 12c0 6.075-4.925 11-11 11-.497 0-.986-.033-1.465-.097-.511-.068-.766-.102-.984-.278a1.092 1.092 0 0 1-.36-.616c-.045-.277.066-.551.288-1.1l3.448-8.534a1 1 0 0 0 .073-.38l.096-9.189ZM9.387 1.312c.5-.122.751-.183 1.018-.098.213.068.444.25.558.443.143.24.14.537.133 1.129l-.072 6.883c-.003.351-.005.527-.08.646a.5.5 0 0 1-.283.216c-.135.039-.304-.007-.644-.098l-6.65-1.781c-.571-.154-.857-.23-1.051-.433a1.092 1.092 0 0 1-.276-.657c-.01-.28.117-.505.37-.953a11.02 11.02 0 0 1 6.977-5.297Z"/>
</svg>
