<svg xmlns="http://www.w3.org/2000/svg" width="24" height="24" viewBox="0 0 24 24">
  <path fill-rule="evenodd" d="m14.851 1.04.047.005A9 9 0 0 1 22.956 9.1l.005.048c.021.18.065.567-.092.937-.129.304-.37.57-.66.73-.22.12-.432.157-.59.172a4.43 4.43 0 0 1-.394.012h-6.447c-.12 0-.261 0-.387-.01a1.508 1.508 0 0 1-.571-.154 1.5 1.5 0 0 1-.655-.655 1.508 1.508 0 0 1-.154-.571C13 9.485 13 9.342 13 9.223V2.776c0-.117 0-.263.012-.394.015-.158.052-.37.172-.59a1.53 1.53 0 0 1 .73-.66c.37-.157.757-.113.937-.092ZM15 3.072V9h5.928A7 7 0 0 0 15 3.072Zm-6 4A7 7 0 1 0 16.928 15h-6.151c-.12 0-.261 0-.387-.01a1.508 1.508 0 0 1-.571-.154 1.5 1.5 0 0 1-.656-.655 1.508 1.508 0 0 1-.153-.571 4.927 4.927 0 0 1-.01-.387V7.072Zm.149-2.032c.18-.021.567-.065.937.092.304.129.57.37.73.66.12.22.157.432.172.59.012.131.012.277.012.394V13h6.224c.117 0 .263 0 .394.012.158.014.37.052.59.172.29.16.531.426.66.73.157.37.113.757.092.937A9 9 0 1 1 9.15 5.04Z" clip-rule="evenodd"/>
</svg>
