<svg xmlns="http://www.w3.org/2000/svg" width="24" height="24" viewBox="0 0 24 24">
  <path fill-rule="evenodd" d="M8.917 2.43A1 1 0 0 1 8.4 3.747 9 9 0 1 0 20.289 15.5a1 1 0 0 1 1.842.778A11 11 0 1 1 7.6 1.913a1 1 0 0 1 1.317.517Z" clip-rule="evenodd" opacity=".5"/>
  <path fill-rule="evenodd" d="M12.83 1.03c.019.003.035.004.05.005a11 11 0 0 1 10.085 10.086c0 .014.003.03.004.049.017.182.054.571-.106.935-.132.3-.371.559-.66.715-.22.119-.431.154-.587.168-.13.012-.275.012-.392.012h-8.447c-.12 0-.261 0-.387-.01a1.508 1.508 0 0 1-.571-.154 1.5 1.5 0 0 1-.655-.655 1.508 1.508 0 0 1-.154-.571 4.922 4.922 0 0 1-.01-.387V2.776c0-.117 0-.263.011-.392.015-.156.05-.367.17-.587.155-.289.414-.528.714-.66.364-.16.753-.123.935-.106ZM13 3.057V11h7.944A9 9 0 0 0 13 3.056Z" clip-rule="evenodd"/>
</svg>
