<svg xmlns="http://www.w3.org/2000/svg" width="24" height="24" fill="currentColor" viewBox="0 0 24 24">
  <path d="M16.2 22h-1.9c-.35 0-.66 0-.98-.16-.28-.15-.51-.37-.66-.66-.16-.32-.16-.62-.16-.98V20h-1v.2c0 .35 0 .66-.16.98-.14.28-.37.51-.66.66-.32.16-.62.16-.98.16H7.8c-.35 0-.66 0-.98-.16-.28-.15-.51-.37-.66-.66C6 20.86 6 20.56 6 20.2v-2.3A6.99 6.99 0 0 1 4.07 14H4c-1.65 0-3-1.35-3-3 0-1.07.57-2.06 1.5-2.6.48-.28 1.09-.11 1.37.36.28.48.11 1.09-.37 1.37A1.004 1.004 0 0 0 4 12h.07a6.97 6.97 0 0 1 2.99-4.78C7.02 6.98 7 6.74 7 6.5 7 4.02 9.02 2 11.5 2c2.26 0 4.13 1.67 4.45 3.84l1.75-.51c.45-.13.8-.23 1.21-.11.36.1.67.33.86.65.22.36.22.73.22 1.19V8.1c.55.56.99 1.2 1.33 1.9.3 0 .55.02.82.15.31.15.56.4.7.7.15.31.15.59.15.94v3.42c0 .36 0 .66-.17.98-.14.28-.37.51-.65.65-.32.16-.63.16-.98.16h-.46a7.035 7.035 0 0 1-2.75 2.33v.88c0 .36 0 .66-.17.98-.14.28-.37.51-.65.65-.32.16-.63.16-.98.16h.02Zm-1.7-2H16v-.78c0-.27 0-.48.09-.72.07-.21.19-.4.36-.56.19-.18.39-.28.65-.4.81-.38 1.51-.97 2.03-1.71.15-.21.25-.36.42-.5.14-.12.31-.21.5-.26.22-.06.39-.06.61-.06H21v-3a1.487 1.487 0 0 1-1.08-.47c-.17-.18-.25-.36-.37-.62-.25-.54-.58-1.02-1-1.44-.13-.13-.24-.24-.33-.4-.08-.12-.13-.26-.17-.41-.04-.18-.04-.33-.04-.5v-.84l-2.12.6s-.14.04-.17.04c-.04 0-.1.02-.16.02h-4.55c-2.75 0-4.99 2.25-4.99 5 0 1.33.52 2.58 1.45 3.52.13.13.23.24.33.39.09.14.15.28.18.44.04.16.04.31.04.48v2.17h1.5v-.2c0-.35 0-.66.16-.98.15-.28.37-.51.65-.65.32-.16.63-.16.98-.16h1.4c.35 0 .66 0 .98.16.28.14.51.37.65.65.16.32.16.62.16.98V20Zm-3-16c-1.31 0-2.38 1.01-2.49 2.29C9.64 6.1 10.3 6 10.99 6h2.95a2.5 2.5 0 0 0-2.45-2h.01Z"/>
</svg>
