<svg xmlns="http://www.w3.org/2000/svg" width="24" height="24" viewBox="0 0 24 24">
  <path fill-rule="evenodd" d="M7 6.5a4.5 4.5 0 1 1 8.954.642 1 1 0 1 1-1.98-.284 2.5 2.5 0 1 0-4.827.49 1 1 0 1 1-1.88.68A4.494 4.494 0 0 1 7 6.5Z" clip-rule="evenodd" opacity=".5"/>
  <path d="M16.2 22h-1.9c-.37 0-.66 0-.98-.16-.28-.14-.51-.37-.66-.65-.17-.33-.17-.62-.17-.98v-.2h-1v.2c0 .36 0 .66-.17.98-.14.28-.37.51-.65.65-.33.16-.62.16-.98.16h-1.9c-.37 0-.66 0-.98-.16-.28-.14-.51-.37-.66-.65-.17-.33-.17-.62-.17-.98v-2.3a6.99 6.99 0 0 1-1.93-3.9h-.07c-1.65 0-3-1.35-3-3 0-1.07.57-2.06 1.5-2.6.48-.28 1.09-.11 1.37.36.28.48.11 1.09-.36 1.37a1.004 1.004 0 0 0 .5 1.87h.07c.49-3.39 3.41-6 6.93-6h4.39l2.32-.67c.45-.13.8-.23 1.21-.11.36.1.67.34.86.66.22.36.22.72.22 1.18v1.04c.55.56.99 1.19 1.33 1.9.3 0 .55.02.83.15.3.14.55.39.7.7.15.3.15.58.15.93v3.41c0 .37 0 .66-.16.98-.14.28-.38.52-.66.66-.33.16-.62.16-.98.16h-.46c-.7 1-1.65 1.8-2.75 2.33v.87c0 .37 0 .66-.16.98-.14.28-.38.52-.66.66-.33.16-.62.16-.98.16h.01Zm-1.7-2H16v-.78c0-.27 0-.48.09-.72.07-.21.19-.4.37-.57.17-.17.37-.27.63-.38.83-.39 1.54-.98 2.04-1.72.14-.21.24-.35.41-.49.16-.13.33-.22.52-.27.2-.06.39-.06.6-.06H21v-3c-.16 0-.31-.02-.47-.08a1.52 1.52 0 0 1-.61-.39c-.17-.17-.25-.36-.38-.62a4.84 4.84 0 0 0-.99-1.42c-.14-.14-.23-.24-.32-.38-.09-.15-.15-.28-.18-.43-.04-.18-.04-.33-.04-.5v-.84l-2.12.61s-.13.04-.16.04c-.1.02-.15.02-.2.03H11c-2.76 0-5 2.24-5 5 0 1.33.52 2.58 1.45 3.52.15.15.24.25.33.39.08.14.14.27.17.42.04.18.04.33.04.5v2.17h1.5v-.2c0-.37 0-.66.16-.98.15-.29.38-.52.66-.66.32-.16.61-.16.98-.16h1.4c.37 0 .66 0 .97.16.29.15.52.38.66.66.16.32.16.62.16.98v.2l.02-.03Z"/>
</svg>
