<svg xmlns="http://www.w3.org/2000/svg" width="24" height="24" viewBox="0 0 24 24">
  <path d="M11.5 10a3.5 3.5 0 1 0 0-7 3.5 3.5 0 0 0 0 7Z" opacity=".2"/>
  <path fill-rule="evenodd" d="M11.5 4a2.5 2.5 0 1 0 2.46 2.945c.004-.06.012-.118.026-.175A2.5 2.5 0 0 0 11.5 4Zm4.45 1.831a4.501 4.501 0 1 0-8.893 1.385A7 7 0 0 0 4.07 12H4a1 1 0 0 1-.5-1.867 1 1 0 0 0-1-1.731A3 3 0 0 0 4 14h.07A6.984 6.984 0 0 0 6 17.899v2.324c0 .12 0 .262.01.387.012.145.042.353.153.571a1.5 1.5 0 0 0 .656.655c.218.112.426.142.571.154.125.01.268.01.387.01h1.946c.12 0 .261 0 .387-.01.145-.012.353-.042.57-.153a1.5 1.5 0 0 0 .656-.656c.111-.218.142-.426.154-.571.01-.125.01-.268.01-.387V20h1v.223c0 .12 0 .262.01.387.012.145.042.353.153.571a1.5 1.5 0 0 0 .656.655c.218.112.426.142.571.154.125.01.268.01.387.01h1.946c.12 0 .262 0 .387-.01a1.51 1.51 0 0 0 .571-.153 1.5 1.5 0 0 0 .655-.656c.112-.218.142-.426.154-.571.01-.125.01-.268.01-.387v-.897A7.025 7.025 0 0 0 20.745 17h.478c.12 0 .262 0 .387-.01a1.51 1.51 0 0 0 .571-.153 1.5 1.5 0 0 0 .655-.656c.112-.218.142-.426.154-.571.01-.125.01-.268.01-.387v-3.459c0-.114 0-.25-.01-.369a1.51 1.51 0 0 0-.139-.546M7.843 9.122a4.502 4.502 0 0 0 7.914-1.159c.05-.01.094-.023.117-.03l.008-.002L18 7.326v.87c0 .091-.002.279.041.46.037.155.094.294.178.431.097.16.238.3.31.37l.02.021c.41.412.747.895.992 1.427l.007.015c.04.086.084.182.127.262a1.46 1.46 0 0 0 .853.74c.162.054.335.072.472.077V15h-.374a1.984 1.984 0 0 0-.574.063 1.462 1.462 0 0 0-.511.27 2.071 2.071 0 0 0-.393.46l-.021.032a5.025 5.025 0 0 1-2.024 1.713l-.016.007c-.09.042-.19.088-.274.133a1.46 1.46 0 0 0-.727.828c-.09.256-.088.54-.086.678V20h-1.5v-.223c0-.12 0-.262-.01-.387a1.508 1.508 0 0 0-.154-.571 1.5 1.5 0 0 0-.655-.655 1.507 1.507 0 0 0-.571-.154 4.924 4.924 0 0 0-.387-.01h-1.446c-.12 0-.262 0-.387.01a1.508 1.508 0 0 0-.571.153 1.5 1.5 0 0 0-.656.656 1.508 1.508 0 0 0-.153.571c-.01.125-.01.268-.01.387V20H8v-2.196c0-.091.002-.279-.041-.46a1.461 1.461 0 0 0-.178-.431 2.072 2.072 0 0 0-.33-.391A4.98 4.98 0 0 1 6 13a4.99 4.99 0 0 1 1.843-3.878Zm8.108-3.29 1.755-.502.027-.008c.148-.042.317-.09.466-.12.164-.03.422-.064.71.018a1.5 1.5 0 0 1 .866.653c.158.255.197.512.212.679.013.15.013.326.013.48v1.069c.54.551.99 1.192 1.326 1.9.091 0 .19.001.279.008.138.011.336.038.546.14a1.5 1.5 0 0 1 .7.7" clip-rule="evenodd"/>
</svg>
