<svg xmlns="http://www.w3.org/2000/svg" width="24" height="24" viewBox="0 0 24 24">
  <path d="M6.878 4.194c-.294-.735-.441-1.102-.38-1.397a1 1 0 0 1 .427-.63C7.175 2 7.572 2 8.363 2h7.274c.791 0 1.187 0 1.439.167a1 1 0 0 1 .426.63c.061.295-.086.662-.38 1.397l-1.008 2.52c-.042.107-.064.16-.079.215a.997.997 0 0 0-.029.15c-.006.056-.006.114-.006.23v2.13c0 .208 0 .312.02.411a1 1 0 0 0 .09.254c.046.09.11.172.24.334l1.57 1.962c.666.833.999 1.249 1 1.599a1 1 0 0 1-.377.782c-.273.219-.806.219-1.872.219H7.329c-1.066 0-1.599 0-1.872-.219A1 1 0 0 1 5.08 14c0-.35.333-.766.999-1.599l1.57-1.962a2.03 2.03 0 0 0 .24-.334.985.985 0 0 0 .09-.254c.02-.1.02-.203.02-.411V7.31c0-.116 0-.174-.007-.23a1 1 0 0 0-.028-.15c-.015-.055-.037-.108-.08-.215l-1.007-2.52Z" opacity=".2"/>
  <path fill-rule="evenodd" d="M8.324 1h7.352c.362 0 .698 0 .973.025.288.026.647.088.979.308a2 2 0 0 1 .853 1.26c.081.39.005.746-.077 1.023-.08.265-.204.577-.338.913l-1.023 2.556-.042.106v.003L17 7.308v2.13c0 .112 0 .167.002.208v.003l.002.002c.023.032.058.075.127.163l1.598 1.997c.31.386.583.728.775 1.018.187.283.415.684.415 1.169a2 2 0 0 1-.752 1.565c-.379.302-.834.375-1.172.406-.347.031-.785.031-1.28.031H13v6a1 1 0 1 1-2 0v-6H7.285c-.495 0-.933 0-1.28-.031-.338-.031-.793-.104-1.172-.406a2 2 0 0 1-.752-1.565c0-.485.228-.886.415-1.169.192-.29.466-.632.775-1.019l1.598-1.996c.07-.088.104-.13.127-.163l.002-.002v-.003A6.05 6.05 0 0 0 7 9.439V7.193l-.001-.002a5.85 5.85 0 0 0-.042-.106L5.95 4.565l-.014-.036c-.135-.336-.26-.648-.339-.913-.082-.277-.158-.633-.077-1.023a2 2 0 0 1 .853-1.26c.332-.22.69-.282.979-.308C7.626 1 7.962 1 8.324 1Zm8.347 13c.553 0 .898-.001 1.143-.023l.047-.005a1.917 1.917 0 0 0-.026-.04c-.135-.205-.35-.475-.695-.907l-1.57-1.962-.027-.034a2.773 2.773 0 0 1-.324-.47 2.002 2.002 0 0 1-.178-.508c-.042-.203-.041-.407-.041-.569V7.284c0-.09 0-.203.013-.32a2.007 2.007 0 0 1 .164-.6l.009-.021 1.008-2.52a10.64 10.64 0 0 0 .3-.804l-.026-.002A10.676 10.676 0 0 0 15.637 3H8.363a10.677 10.677 0 0 0-.857.02l.007.024c.05.167.139.394.293.779l1.008 2.52.009.022c.033.083.076.189.106.301A2.001 2.001 0 0 1 9 7.284v2.198c0 .162 0 .366-.04.57a1.999 1.999 0 0 1-.179.507 2.778 2.778 0 0 1-.35.504l-1.57 1.962c-.346.432-.56.702-.696.907l-.026.04.047.005c.245.022.59.023 1.143.023h9.342Z" clip-rule="evenodd"/>
</svg>
