<svg xmlns="http://www.w3.org/2000/svg" width="24" height="24" viewBox="0 0 24 24">
  <path fill-rule="evenodd" d="M9.084 14.91a1 1 0 0 1 0 1.413L3.427 21.98a1 1 0 0 1-1.414-1.414l5.656-5.657a1 1 0 0 1 1.415 0Z" clip-rule="evenodd" opacity=".5"/>
  <path fill-rule="evenodd" d="M13.274 1.553a2 2 0 0 1 1.494-.287c.39.079.688.289.91.474.212.177.45.414.706.67l5.199 5.2c.256.255.493.493.67.705.185.222.395.52.474.91a2 2 0 0 1-.287 1.494c-.219.333-.524.532-.779.669a11.57 11.57 0 0 1-.884.406l-2.53 1.085a6.145 6.145 0 0 0-.105.045h-.002v.002c-.017.015-.038.036-.082.08l-1.56 1.56a5.96 5.96 0 0 0-.126.128l-.002.002v.002c-.008.034-.018.08-.037.175l-.741 3.707c-.088.44-.167.835-.26 1.146-.091.31-.243.711-.585 1.015a2 2 0 0 1-1.602.485c-.453-.063-.802-.313-1.051-.52a13.897 13.897 0 0 1-.851-.809L4.096 12.75a13.944 13.944 0 0 1-.81-.851c-.206-.249-.456-.598-.519-1.05a2 2 0 0 1 .485-1.603c.304-.342.705-.493 1.015-.586.31-.092.706-.171 1.146-.259L9.12 7.66a5.953 5.953 0 0 0 .177-.037L9.3 7.62l.127-.125 1.561-1.561.08-.081.001-.001.001-.002c.01-.02.021-.047.045-.104l1.085-2.53c.142-.333.275-.642.406-.885.137-.255.336-.56.669-.779Zm1.103 1.707a10.689 10.689 0 0 0-.356.78l-1.068 2.495-.01.022a2.01 2.01 0 0 1-.308.54 2.746 2.746 0 0 1-.217.235l-.017.017-1.56 1.56-.027.027c-.099.1-.224.225-.372.329-.129.09-.268.164-.414.221-.168.066-.342.1-.48.128l-.036.007-3.665.733a13.122 13.122 0 0 0-1.048.235l.025.03c.141.17.36.39.717.747l7.086 7.086a13.17 13.17 0 0 0 .777.742 13.183 13.183 0 0 0 .235-1.048l.733-3.665.007-.037c.028-.137.062-.31.128-.48.057-.145.132-.284.222-.413.103-.148.228-.273.328-.372l.026-.027 1.561-1.56.017-.017a2.013 2.013 0 0 1 .487-.387c.101-.058.206-.103.288-.138l.022-.01 2.495-1.069a10.669 10.669 0 0 0 .78-.355l-.016-.02a10.719 10.719 0 0 0-.576-.6l-5.144-5.144a10.656 10.656 0 0 0-.62-.592Z" clip-rule="evenodd"/>
</svg>
