<svg xmlns="http://www.w3.org/2000/svg" width="24" height="24" viewBox="0 0 24 24">
  <path fill-rule="evenodd" d="M8.324 1h7.353c.361 0 .698 0 .973.025.288.026.647.088.978.308a2 2 0 0 1 .854 1.26c.08.39.005.746-.078 1.023-.079.265-.204.577-.338.913l-1.023 2.556-.041.106-.001.002v2.245l.001.208v.003l.002.002.128.163 1.598 1.997c.308.386.582.728.774 1.018.187.283.415.684.416 1.169a2 2 0 0 1-.753 1.565c-.378.302-.834.375-1.172.406-.346.031-.784.031-1.28.031H13v6a1 1 0 1 1-2 0v-6H7.285c-.495 0-.933 0-1.28-.031-.337-.031-.793-.104-1.172-.406a2 2 0 0 1-.752-1.565c0-.485.229-.886.416-1.169.192-.29.465-.632.774-1.019L6.87 9.814c.07-.088.104-.13.128-.163L7 9.649v-.003a6.05 6.05 0 0 0 0-.207v-2.13a5.791 5.791 0 0 0 0-.118 5.931 5.931 0 0 0-.042-.106L5.95 4.565l-.015-.036c-.134-.336-.26-.648-.338-.913-.083-.277-.159-.633-.078-1.023a2 2 0 0 1 .853-1.26c.332-.22.691-.282.98-.308C7.625 1 7.961 1 8.323 1Zm8.347 13c.553 0 .899-.001 1.143-.023l.047-.005a1.917 1.917 0 0 0-.025-.04c-.136-.205-.35-.475-.696-.907l-1.57-1.962-.027-.034a2.778 2.778 0 0 1-.324-.47 1.997 1.997 0 0 1-.178-.508 2.773 2.773 0 0 1-.04-.569V7.284c0-.09 0-.203.012-.32a2.037 2.037 0 0 1 .165-.599l.008-.022 1.008-2.52a10.674 10.674 0 0 0 .3-.804l-.025-.002A10.677 10.677 0 0 0 15.637 3H8.364a10.677 10.677 0 0 0-.858.02l.007.024c.05.167.14.394.294.779l1.007 2.52.01.022a2 2 0 0 1 .177.92v2.197c0 .162 0 .366-.041.57a1.999 1.999 0 0 1-.179.507 2.778 2.778 0 0 1-.35.504l-1.57 1.962c-.345.432-.56.702-.696.907a2 2 0 0 0-.026.04l.048.005c.244.022.59.023 1.142.023h9.342Z" clip-rule="evenodd"/>
</svg>
