<svg xmlns="http://www.w3.org/2000/svg" width="24" height="24" viewBox="0 0 24 24">
  <path fill-rule="evenodd" d="M13.274 1.553a2 2 0 0 1 1.494-.287c.39.079.688.289.91.474.212.177.45.414.706.67l5.199 5.2c.256.255.493.493.67.705.185.222.395.52.474.91a2 2 0 0 1-.287 1.494c-.219.333-.524.531-.779.669-.243.131-.552.264-.884.406l-2.53 1.085a4.506 4.506 0 0 0-.105.045h-.002v.002a6.031 6.031 0 0 0-.082.08l-1.56 1.56a6.043 6.043 0 0 0-.126.128l-.002.002v.002c-.008.034-.018.08-.037.175l-.741 3.707c-.088.44-.167.835-.26 1.146-.091.31-.243.711-.585 1.015a2 2 0 0 1-1.602.485c-.453-.063-.802-.313-1.05-.52a13.94 13.94 0 0 1-.852-.81L8.377 17.03l-4.95 4.95a1 1 0 0 1-1.414-1.414l4.95-4.95-2.867-2.866c-.317-.317-.602-.602-.81-.851-.206-.25-.456-.598-.519-1.05a2 2 0 0 1 .485-1.603c.304-.342.705-.494 1.016-.586.31-.092.705-.171 1.145-.259L9.12 7.66a5.953 5.953 0 0 0 .177-.037L9.3 7.62c.025-.024.06-.057.127-.125l1.561-1.561a6.03 6.03 0 0 0 .08-.081l.002-.001V5.85c.01-.02.021-.047.045-.104l1.085-2.53c.143-.332.275-.641.406-.884.138-.255.336-.56.669-.779Zm-.647 16.9a13.115 13.115 0 0 0 .777.74l.012-.037c.063-.211.124-.515.223-1.01l.733-3.665.008-.037c.027-.137.061-.31.127-.48.057-.145.132-.284.222-.413a2.772 2.772 0 0 1 .354-.399l1.561-1.56.017-.017c.064-.064.144-.144.235-.217a2.022 2.022 0 0 1 .54-.308l.022-.01 2.495-1.069a10.669 10.669 0 0 0 .78-.355l-.016-.02a10.722 10.722 0 0 0-.576-.6l-5.143-5.144a10.683 10.683 0 0 0-.62-.592 10.689 10.689 0 0 0-.356.78l-1.07 2.495-.009.022a2.008 2.008 0 0 1-.308.54c-.072.091-.153.171-.217.235l-.016.017-1.561 1.56-.027.027c-.099.1-.224.225-.372.329-.129.09-.268.164-.414.221-.168.066-.342.1-.48.128l-.036.007-3.664.733a13.22 13.22 0 0 0-1.049.235l.025.03c.141.17.36.39.717.747l7.086 7.086Z" clip-rule="evenodd"/>
</svg>
