<svg xmlns="http://www.w3.org/2000/svg" width="24" height="24" viewBox="0 0 24 24">
  <path fill-rule="evenodd" d="M17.026 2.117a3.483 3.483 0 0 1 5.021 4.828l-2.778 2.91a6.478 6.478 0 0 0-.219.235v.005c.011.061.03.145.068.31l1.728 7.487.015.066c.058.243.13.549.105.861a2 2 0 0 1-.222.773c-.145.278-.367.499-.545.675l-.048.048-.4.4c-.278.278-.533.533-.759.721-.232.194-.55.418-.964.491a2 2 0 0 1-1.54-.363c-.338-.251-.522-.594-.643-.871-.118-.27-.232-.612-.357-.985l-1.51-4.533-2.202 2.201c-.107.107-.16.161-.197.202l-.003.003v.005c.003.055.011.13.028.28l.184 1.654.006.059c.025.217.056.49.013.764a2.002 2.002 0 0 1-.236.673c-.137.24-.332.434-.487.588l-.042.042-.197.197-.026.026c-.214.214-.419.419-.604.574a2.04 2.04 0 0 1-.798.44 2 2 0 0 1-1.378-.137 2.041 2.041 0 0 1-.697-.587c-.15-.19-.311-.43-.48-.682l-1.588-2.382a6 6 0 0 0-.068-.1 5.714 5.714 0 0 0-.098-.067L2.726 17.34a10.159 10.159 0 0 1-.682-.48 2.04 2.04 0 0 1-.587-.696 2 2 0 0 1-.136-1.379 2.04 2.04 0 0 1 .439-.798c.155-.185.36-.389.574-.603l.223-.223.041-.042c.155-.155.349-.35.59-.487.207-.118.435-.198.672-.236.273-.044.546-.013.764.012l.058.007 1.654.184a6.19 6.19 0 0 0 .285.028l.003-.003c.041-.037.095-.09.202-.197l2.201-2.202-4.533-1.51c-.373-.125-.715-.239-.984-.357-.278-.122-.62-.305-.871-.643a2 2 0 0 1-.364-1.54c.073-.415.298-.732.492-.965.188-.226.443-.48.72-.759l.03-.029.37-.37.049-.049c.176-.177.397-.4.674-.545a2 2 0 0 1 .773-.222c.313-.024.618.048.862.105l.066.016 7.459 1.72c.165.04.25.058.312.069h.005a6.495 6.495 0 0 0 .229-.23l2.71-2.799Zm3.551 1.374a1.483 1.483 0 0 0-2.114.017l-2.71 2.8-.046.048c-.17.177-.384.399-.653.547a2 2 0 0 1-.824.243c-.306.022-.606-.048-.845-.104l-.065-.015-7.459-1.722a6.524 6.524 0 0 0-.317-.069h-.006l-.004.003c-.047.042-.11.104-.232.227l-.37.37a11.53 11.53 0 0 0-.648.678l.028.012c.175.077.429.162.854.304l6.029 2.01a1 1 0 0 1 .39 1.655L8.24 13.841l-.041.042c-.154.155-.348.35-.589.487a2.002 2.002 0 0 1-.673.236c-.273.043-.546.012-.763-.013l-.06-.007-1.653-.183a6.404 6.404 0 0 0-.28-.028h-.005l-.003.002c-.041.037-.095.091-.202.198l-.198.197a9.27 9.27 0 0 0-.493.515l.014.012c.112.09.278.201.57.397l2.353 1.568.021.014c.078.052.176.117.268.195.08.069.155.143.223.224.079.092.144.19.196.268l.013.02 1.569 2.353c.195.293.307.459.396.57l.012.015a9.212 9.212 0 0 0 .515-.494l.198-.197c.107-.107.16-.161.197-.202l.003-.004v-.004a6.316 6.316 0 0 0-.028-.28l-.184-1.654-.006-.059c-.025-.217-.057-.49-.013-.764a2 2 0 0 1 .236-.672c.137-.241.332-.435.487-.59a15.9 15.9 0 0 1 .042-.04l3.345-3.346a1 1 0 0 1 1.656.39l2.01 6.03c.141.425.227.678.303.853l.013.028.024-.02c.147-.121.336-.31.653-.627l.37-.37a6.61 6.61 0 0 0 .231-.237v-.005a6.57 6.57 0 0 0-.07-.317l-1.728-7.488-.015-.064c-.055-.237-.125-.536-.104-.84a2 2 0 0 1 .208-.759c.138-.273.35-.494.519-.67l.045-.047 2.78-2.91a1.483 1.483 0 0 0-.025-2.073Z" clip-rule="evenodd"/>
</svg>
