<svg xmlns="http://www.w3.org/2000/svg" width="24" height="24" fill="none" viewBox="0 0 24 24">
  <path stroke="#2970FF" stroke-linecap="round" stroke-linejoin="round" stroke-width="2" d="M17.745 2.813a2.483 2.483 0 0 1 3.58 3.442l-2.78 2.91c-.217.228-.326.342-.393.475a1 1 0 0 0-.104.38c-.01.148.025.302.096.61l1.728 7.487c.073.315.109.473.097.625a.999.999 0 0 1-.11.387c-.072.136-.186.25-.415.479l-.37.37c-.607.607-.91.91-1.22.965a1 1 0 0 1-.77-.182c-.253-.188-.389-.595-.66-1.408l-2.01-6.029-3.345 3.345c-.2.2-.3.3-.366.417a.975.975 0 0 0-.118.337c-.022.133-.006.274.025.554l.184 1.654c.031.28.047.42.025.554a1 1 0 0 1-.118.337c-.067.117-.166.217-.366.417l-.198.197c-.473.473-.71.71-.972.778a1 1 0 0 1-.69-.068c-.244-.119-.43-.397-.8-.954L6.106 18.54c-.066-.1-.099-.15-.137-.194a1.006 1.006 0 0 0-.112-.112c-.045-.038-.095-.071-.194-.138L3.31 16.528c-.556-.371-.835-.557-.953-.801a1 1 0 0 1-.069-.69c.069-.262.305-.499.778-.972l.198-.197c.2-.2.3-.3.417-.367a1 1 0 0 1 .336-.118c.134-.02.274-.005.555.026l1.653.184c.281.03.421.046.555.025a.998.998 0 0 0 .336-.118c.118-.067.218-.166.417-.366l3.346-3.346-6.03-2.01c-.813-.27-1.22-.406-1.407-.659a1 1 0 0 1-.182-.77c.055-.31.358-.613.964-1.22l.37-.37c.23-.23.344-.344.48-.415a1 1 0 0 1 .386-.11c.153-.012.31.024.626.097l7.46 1.721c.31.072.464.108.614.097a1 1 0 0 0 .412-.122c.13-.072.242-.186.463-.415l2.71-2.8Z"/>
</svg>
