<svg xmlns="http://www.w3.org/2000/svg" width="24" height="24" viewBox="0 0 24 24">
  <path fill-rule="evenodd" d="M17.026 2.117a3.483 3.483 0 0 1 5.021 4.828L19.05 10.09l1.811 7.868c.057.243.13.549.105.861a2 2 0 0 1-.222.773c-.368.704-1.155 1.348-1.752 1.844-.233.194-.55.418-.964.491a2 2 0 0 1-1.54-.363c-.338-.251-.522-.594-.643-.871-.118-.27-.232-.612-.357-.985l-1.51-4.533-2.202 2.201c-.107.107-.16.161-.197.202l-.003.003c.005.096.017.191.028.286.063.57.125 1.142.19 1.712.025.217.056.49.013.764a2 2 0 0 1-.236.673c-.137.24-.332.434-.487.588-.304.302-.608.62-.869.839a2.04 2.04 0 0 1-.798.44 2 2 0 0 1-1.378-.137 2.041 2.041 0 0 1-.697-.587c-.792-.99-1.406-2.127-2.135-3.164-1.036-.729-2.173-1.342-3.163-2.135a2.04 2.04 0 0 1-.587-.696 2 2 0 0 1-.137-1.379 2.04 2.04 0 0 1 .44-.798c.219-.26.537-.565.838-.868.154-.155.348-.35.589-.487.208-.118.436-.198.673-.236.273-.044.546-.013.764.012.57.066 1.141.127 1.712.19.15.017.225.025.28.029h.005c.071-.064.138-.133.205-.2l2.201-2.202-4.533-1.51c-.373-.125-.715-.239-.984-.357-.278-.122-.62-.305-.871-.643a2 2 0 0 1-.364-1.54c.073-.415.298-.732.492-.965.494-.594 1.142-1.385 1.843-1.752a2 2 0 0 1 .773-.222c.313-.024.618.048.861.105l7.838 1.805 2.944-3.029Z" clip-rule="evenodd"/>
</svg>
