<svg xmlns="http://www.w3.org/2000/svg" width="24" height="24" viewBox="0 0 24 24">
  <path fill-rule="evenodd" d="M12 3a9 9 0 1 0 0 18 9 9 0 0 0 0-18ZM1 12C1 5.925 5.925 1 12 1s11 4.925 11 11-4.925 11-11 11S1 18.075 1 12Z" clip-rule="evenodd" opacity=".5"/>
  <path fill-rule="evenodd" d="m11.245 7.433.028.018 4.721 3.035.026.017c.151.097.316.203.448.305.14.109.36.3.49.608a1.5 1.5 0 0 1 0 1.168c-.13.307-.35.499-.49.608a6.27 6.27 0 0 1-.448.305l-.026.017-4.72 3.035-.029.018c-.176.113-.36.232-.523.317-.164.085-.46.223-.829.196a1.5 1.5 0 0 1-1.094-.597c-.22-.295-.265-.62-.282-.803a7.116 7.116 0 0 1-.017-.612V8.932c0-.21 0-.429.017-.612s.061-.508.282-.803a1.5 1.5 0 0 1 1.094-.597c.368-.027.665.111.829.196.163.085.347.204.523.317ZM10.5 9.332v5.336L14.65 12 10.5 9.332Zm4.747 3.061Z" clip-rule="evenodd"/>
</svg>
