<svg xmlns="http://www.w3.org/2000/svg" width="24" height="24" viewBox="0 0 24 24">
  <path fill-rule="evenodd" d="M7.759 2h8.482c.805 0 1.47 0 2.01.044.563.046 1.08.145 1.565.392a4 4 0 0 1 1.748 1.748c.247.485.346 1.002.392 1.564C22 6.29 22 6.954 22 7.758v8.483c0 .805 0 1.47-.044 2.01-.046.563-.145 1.08-.392 1.565a4 4 0 0 1-1.748 1.748c-.485.247-1.002.346-1.564.392-.541.044-1.206.044-2.01.044H7.758c-.805 0-1.47 0-2.01-.044-.563-.046-1.08-.145-1.565-.392a4 4 0 0 1-1.748-1.748c-.247-.485-.346-1.002-.392-1.564C2 17.71 2 17.046 2 16.242V7.758c0-.805 0-1.47.044-2.01.046-.563.145-1.08.392-1.565a4 4 0 0 1 1.748-1.748c.485-.247 1.002-.346 1.564-.392C6.29 2 6.954 2 7.758 2ZM5.91 4.038c-.438.035-.663.1-.819.18a2 2 0 0 0-.874.874c-.08.156-.145.38-.18.819C4 6.361 4 6.943 4 7.8v8.4c0 .857 0 1.439.038 1.889.035.438.1.663.18.819a2 2 0 0 0 .874.874c.156.08.38.145.819.18C6.361 20 6.943 20 7.8 20h8.4c.857 0 1.439 0 1.889-.038.438-.035.663-.1.819-.18a2 2 0 0 0 .874-.874c.08-.156.145-.38.18-.819.037-.45.038-1.032.038-1.889V7.8c0-.857 0-1.439-.038-1.889-.035-.438-.1-.663-.18-.819a2 2 0 0 0-.874-.874c-.156-.08-.38-.145-.819-.18C17.639 4 17.057 4 16.2 4H7.8c-.857 0-1.439 0-1.889.038Z" clip-rule="evenodd" opacity=".5"/>
  <path fill-rule="evenodd" d="m11.245 7.433.028.018 4.721 3.035.026.017c.151.097.316.203.448.305.14.109.36.3.49.608a1.5 1.5 0 0 1 0 1.168c-.13.307-.35.499-.49.608a6.27 6.27 0 0 1-.448.305l-.026.017-4.72 3.035-.029.018c-.176.113-.36.232-.523.317-.164.085-.46.223-.829.196a1.5 1.5 0 0 1-1.094-.597c-.22-.295-.265-.62-.282-.803a7.116 7.116 0 0 1-.017-.612V8.932c0-.21 0-.429.017-.612s.061-.508.282-.803a1.5 1.5 0 0 1 1.094-.597c.368-.027.665.111.829.196.163.085.347.204.523.317ZM10.5 9.332v5.336L14.65 12 10.5 9.332Zm4.747 3.061Z" clip-rule="evenodd"/>
</svg>
