<svg xmlns="http://www.w3.org/2000/svg" width="24" height="24" viewBox="0 0 24 24">
  <path d="M5 4.99c0-.972 0-1.457.202-1.725a1 1 0 0 1 .738-.395c.335-.02.74.25 1.548.788l10.515 7.01c.668.446 1.002.668 1.118.949a1 1 0 0 1 0 .766c-.116.28-.45.503-1.118.948l-10.515 7.01c-.809.54-1.213.809-1.548.789a1 1 0 0 1-.738-.395C5 20.467 5 19.982 5 19.01V4.99Z" opacity=".2"/>
  <path fill-rule="evenodd" d="m8.006 2.802.036.024L18.591 9.86c.305.203.588.392.805.567.227.183.495.437.649.808a2 2 0 0 1 0 1.532c-.154.371-.422.625-.649.808-.217.175-.5.364-.805.567L8.006 21.198c-.373.248-.708.472-.993.626-.285.155-.676.331-1.132.304a2 2 0 0 1-1.476-.79c-.276-.364-.346-.788-.376-1.11C4 19.905 4 19.502 4 19.054V4.946c0-.448 0-.851.03-1.174.029-.322.1-.745.375-1.11a2 2 0 0 1 1.476-.79c.456-.027.847.15 1.132.304.285.154.62.378.993.626Zm-1.98 1.113A13.171 13.171 0 0 0 6 4.99v14.02a13.17 13.17 0 0 0 .024 1.074 13.137 13.137 0 0 0 .908-.575l10.515-7.01a10.787 10.787 0 0 0 .714-.499l-.021-.017a10.84 10.84 0 0 0-.693-.482L6.933 4.49a13.167 13.167 0 0 0-.908-.576Z" clip-rule="evenodd"/>
</svg>
