<svg xmlns="http://www.w3.org/2000/svg" width="24" height="24" viewBox="0 0 24 24">
  <path d="M12 22c5.523 0 10-4.477 10-10S17.523 2 12 2 2 6.477 2 12s4.477 10 10 10Z" opacity=".2"/>
  <path fill-rule="evenodd" d="M12 3a9 9 0 1 0 0 18 9 9 0 0 0 0-18ZM1 12C1 5.925 5.925 1 12 1s11 4.925 11 11-4.925 11-11 11S1 18.075 1 12Zm11-6a1 1 0 0 1 1 1v5a1 1 0 1 1-2 0V7a1 1 0 0 1 1-1ZM8.6 8.2a1 1 0 0 1 .2 1.4 4 4 0 1 0 6.401 0 1 1 0 0 1 1.598-1.2 6 6 0 1 1-9.599 0 1 1 0 0 1 1.4-.2Z" clip-rule="evenodd"/>
</svg>
