<svg xmlns="http://www.w3.org/2000/svg" width="24" height="24" viewBox="0 0 24 24">
  <path fill-rule="evenodd" d="M11 18.137V21a1 1 0 1 0 2 0v-2.863c.117.095.25.207.408.338l3.952 3.293a1 1 0 1 0 1.28-1.536l-3.978-3.315a17.27 17.27 0 0 0-.903-.722 3.205 3.205 0 0 0-.786-.428 1 1 0 0 0-1.946 0 3.205 3.205 0 0 0-.786.428c-.264.189-.562.437-.903.722l-.027.022-3.951 3.293a1 1 0 1 0 1.28 1.536l3.952-3.293c.157-.131.291-.243.408-.338Z" clip-rule="evenodd" opacity=".5"/>
  <path fill-rule="evenodd" d="M1 3a1 1 0 0 1 1-1h20a1 1 0 1 1 0 2v7.241c0 .805 0 1.47-.044 2.01-.046.563-.145 1.08-.392 1.565a4 4 0 0 1-1.748 1.748c-.485.247-1.002.346-1.564.392-.541.044-1.206.044-2.01.044H7.758c-.805 0-1.47 0-2.01-.044-.563-.046-1.08-.145-1.565-.392a4 4 0 0 1-1.748-1.748c-.247-.485-.346-1.002-.392-1.564C2 12.71 2 12.046 2 11.242V4a1 1 0 0 1-1-1Zm3 1v7.2c0 .857 0 1.439.038 1.889.035.438.1.663.18.819a2 2 0 0 0 .874.874c.156.08.38.145.819.18C6.361 15 6.943 15 7.8 15h8.4c.857 0 1.439 0 1.889-.038.438-.035.663-.1.819-.18a2 2 0 0 0 .874-.874c.08-.156.145-.38.18-.819.037-.45.038-1.032.038-1.889V4H4Zm12 2a1 1 0 0 1 1 1v5a1 1 0 1 1-2 0V7a1 1 0 0 1 1-1Zm-4 2a1 1 0 0 1 1 1v3a1 1 0 1 1-2 0V9a1 1 0 0 1 1-1Zm-4 2a1 1 0 0 1 1 1v1a1 1 0 1 1-2 0v-1a1 1 0 0 1 1-1Z" clip-rule="evenodd"/>
</svg>
