<svg xmlns="http://www.w3.org/2000/svg" width="24" height="24" viewBox="0 0 24 24">
  <path fill-rule="evenodd" d="M1 3a1 1 0 0 1 1-1h20a1 1 0 1 1 0 2v7.241c0 .805 0 1.47-.044 2.01-.046.563-.145 1.08-.392 1.565a4 4 0 0 1-1.748 1.748c-.485.247-1.002.346-1.564.392-.541.044-1.206.044-2.01.044h-1.48l3.878 3.232a1 1 0 1 1-1.28 1.536L13 18.135V21a1 1 0 1 1-2 0v-2.865l-4.36 3.633a1 1 0 1 1-1.28-1.536L9.238 17h-1.48c-.804 0-1.469 0-2.01-.044-.562-.046-1.079-.145-1.564-.392a4 4 0 0 1-1.748-1.748c-.247-.485-.346-1.002-.392-1.564C2 12.71 2 12.046 2 11.242V4a1 1 0 0 1-1-1Zm3 1v7.2c0 .857 0 1.439.038 1.889.035.438.1.663.18.819a2 2 0 0 0 .874.874c.156.08.38.145.819.18C6.361 15 6.943 15 7.8 15h8.4c.857 0 1.439 0 1.889-.038.438-.035.663-.1.819-.18a2 2 0 0 0 .874-.874c.08-.156.145-.38.18-.819.037-.45.038-1.032.038-1.889V4H4Zm8 2a1 1 0 0 1 1 1v5a1 1 0 1 1-2 0V7a1 1 0 0 1 1-1ZM8 8a1 1 0 0 1 1 1v3a1 1 0 1 1-2 0V9a1 1 0 0 1 1-1Zm8 2a1 1 0 0 1 1 1v1a1 1 0 1 1-2 0v-1a1 1 0 0 1 1-1Z" clip-rule="evenodd"/>
</svg>
