<svg xmlns="http://www.w3.org/2000/svg" width="24" height="24" viewBox="0 0 24 24">
  <path d="M2 11.8c0-1.68 0-2.52.327-3.162a3 3 0 0 1 1.311-1.311C4.28 7 5.12 7 6.8 7h10.4c1.68 0 2.52 0 3.162.327a3 3 0 0 1 1.311 1.311C22 9.28 22 10.12 22 11.8V14c0 .93 0 1.395-.102 1.777a3 3 0 0 1-2.122 2.12C19.395 18 18.93 18 18 18v-.8c0-1.12 0-1.68-.218-2.108a2 2 0 0 0-.874-.874C16.48 14 15.92 14 14.8 14H9.2c-1.12 0-1.68 0-2.108.218a2 2 0 0 0-.874.874C6 15.52 6 16.08 6 17.2v.8c-.93 0-1.395 0-1.776-.102a3 3 0 0 1-2.122-2.121C2 15.395 2 14.93 2 14v-2.2Z" opacity=".2"/>
  <path fill-rule="evenodd" d="M9.161 1h5.678c.527 0 .981 0 1.356.03.395.033.789.104 1.167.297a3 3 0 0 1 1.311 1.311c.193.378.264.772.296 1.167.031.375.031.83.031 1.356v.866c.087.005.17.01.252.017.562.046 1.079.145 1.564.392a4 4 0 0 1 1.748 1.748c.247.485.346 1.002.392 1.564.044.541.044 1.206.044 2.01v2.38c0 .795 0 1.386-.136 1.897a4 4 0 0 1-2.829 2.829c-.307.082-.643.115-1.035.128 0 .462-.003.865-.03 1.203-.033.395-.104.789-.297 1.167a3 3 0 0 1-1.311 1.311c-.378.193-.772.264-1.167.296-.375.031-.83.031-1.357.031H9.162c-.527 0-.981 0-1.356-.03-.395-.033-.789-.104-1.167-.297a3 3 0 0 1-1.311-1.311c-.193-.378-.264-.772-.296-1.167-.028-.338-.03-.74-.031-1.203-.392-.013-.728-.046-1.035-.128a4 4 0 0 1-2.829-2.829C1 15.524 1 14.933 1 14.138v-2.379c0-.805 0-1.47.044-2.01.046-.563.145-1.08.392-1.565a4 4 0 0 1 1.748-1.748c.485-.247 1.002-.346 1.564-.392L5 6.027v-.866c0-.527 0-.981.03-1.356.033-.395.104-.789.297-1.167a3 3 0 0 1 1.311-1.311c.378-.193.772-.264 1.167-.296C8.18 1 8.635 1 9.16 1ZM7 6h10v-.8c0-.577 0-.949-.024-1.232-.022-.272-.06-.373-.085-.422a1 1 0 0 0-.437-.437c-.05-.025-.15-.063-.422-.085C15.75 3 15.377 3 14.8 3H9.2c-.577 0-.949 0-1.232.024-.272.022-.373.06-.422.085a1 1 0 0 0-.437.437c-.025.05-.063.15-.085.422C7 4.25 7 4.623 7 5.2V6Zm0 12.8c0 .577 0 .949.024 1.232.022.272.06.372.085.422a1 1 0 0 0 .437.437c.05.025.15.063.422.085C8.25 21 8.623 21 9.2 21h5.6c.576 0 .949 0 1.232-.024.272-.022.372-.06.422-.085a1 1 0 0 0 .437-.437c.025-.05.063-.15.085-.422.023-.283.024-.655.024-1.232v-1.6c0-.577 0-.949-.024-1.232-.022-.272-.06-.373-.085-.422a1 1 0 0 0-.437-.437c-.05-.025-.15-.063-.422-.085C15.75 15 15.377 15 14.8 15H9.2c-.577 0-.949 0-1.232.024-.272.022-.373.06-.422.085a1 1 0 0 0-.437.437c-.025.05-.063.15-.085.422C7 16.25 7 16.623 7 17.2v1.6Zm12-1.81c0-.455-.003-.852-.03-1.185-.033-.395-.104-.789-.297-1.167a3 3 0 0 0-1.311-1.311c-.378-.193-.772-.264-1.167-.296C15.82 13 15.365 13 14.838 13H9.162c-.527 0-.981 0-1.356.03-.395.033-.789.104-1.167.297a3 3 0 0 0-1.311 1.311c-.193.378-.264.772-.296 1.167-.028.333-.03.73-.031 1.185a2.294 2.294 0 0 1-.518-.058 2 2 0 0 1-1.414-1.414C3.008 15.295 3 14.994 3 14v-2.2c0-.857 0-1.439.038-1.889.035-.438.1-.663.18-.819a2 2 0 0 1 .874-.874c.156-.08.38-.145.819-.18C5.361 8 5.943 8 6.8 8h10.4c.857 0 1.439 0 1.889.038.438.035.663.1.819.18a2 2 0 0 1 .874.874c.08.156.145.38.18.819.037.45.038 1.032.038 1.889V14c0 .994-.009 1.295-.068 1.518a2 2 0 0 1-1.414 1.414c-.12.032-.26.049-.518.058Zm-5-6.49a1 1 0 0 1 1-1h3a1 1 0 1 1 0 2h-3a1 1 0 0 1-1-1Z" clip-rule="evenodd"/>
</svg>
