<svg xmlns="http://www.w3.org/2000/svg" width="24" height="24" viewBox="0 0 24 24">
  <path fill-rule="evenodd" d="M11.293 1.293a1 1 0 0 1 1.414 0l2.62 2.62c.632-.985 1.441-1.606 2.363-1.84 1.266-.322 2.482.16 3.28.957.798.798 1.279 2.014.957 3.28-.234.922-.855 1.731-1.84 2.363l2.62 2.62a1 1 0 0 1 0 1.414l-3.6 3.6a1 1 0 0 1-1.642-.351c-.527-1.384-1.197-1.83-1.647-1.945-.468-.118-.984.044-1.373.434-.39.39-.553.905-.434 1.373.115.45.561 1.12 1.945 1.647a1 1 0 0 1 .351 1.642l-3.6 3.6a1 1 0 0 1-1.414 0l-2.62-2.62c-.632.985-1.441 1.606-2.363 1.84-1.266.322-2.482-.16-3.28-.957-.798-.798-1.279-2.014-.957-3.28.234-.922.855-1.731 1.84-2.363l-2.62-2.62a1 1 0 0 1 0-1.414l3.6-3.6a1 1 0 0 1 1.641.351c.528 1.384 1.198 1.83 1.648 1.945.468.118.984-.044 1.373-.434.39-.39.553-.905.434-1.373-.115-.45-.561-1.12-1.945-1.648a1 1 0 0 1-.351-1.641l3.6-3.6Zm-1.205 4.034c.984.632 1.605 1.441 1.839 2.363.322 1.266-.16 2.482-.957 3.28-.798.798-2.014 1.279-3.28.957-.922-.234-1.731-.855-2.363-1.84L3.414 12l2.893 2.893a1 1 0 0 1-.351 1.642c-1.384.527-1.83 1.197-1.945 1.647-.118.468.044.984.434 1.373.39.39.905.553 1.373.434.45-.115 1.12-.561 1.648-1.945a1 1 0 0 1 1.641-.351L12 20.586l1.912-1.913c-.984-.632-1.605-1.441-1.839-2.363-.322-1.266.16-2.482.957-3.28.798-.798 2.014-1.279 3.28-.957.922.234 1.731.855 2.363 1.84L20.586 12l-2.893-2.893a1 1 0 0 1 .351-1.641c1.384-.528 1.83-1.198 1.945-1.648.119-.468-.044-.984-.434-1.373-.39-.39-.905-.552-1.373-.434-.45.115-1.12.561-1.647 1.945a1 1 0 0 1-1.642.351L12 3.414l-1.912 1.913Z" clip-rule="evenodd"/>
</svg>
