<svg xmlns="http://www.w3.org/2000/svg" width="24" height="24" viewBox="0 0 24 24">
  <path fill-rule="evenodd" d="M12 1a1 1 0 0 1 1 1v6a1 1 0 1 1-2 0V2a1 1 0 0 1 1-1ZM6.975 4.01A8.192 8.192 0 0 0 6.4 4H4.6a8.192 8.192 0 0 0-.589.011v.014C4 4.14 4 4.303 4 4.6v1.8a8.186 8.186 0 0 0 .011.589h.014C4.14 7 4.303 7 4.6 7h1.8a8.192 8.192 0 0 0 .589-.011v-.014C7 6.86 7 6.697 7 6.4V4.6a8.184 8.184 0 0 0-.011-.589h-.014Zm.163-1.993c.229.019.499.063.77.201a2 2 0 0 1 .874.874c.138.271.182.541.201.77C9 4.07 9 4.316 9 4.568v1.864c0 .252 0 .498-.017.706a2.022 2.022 0 0 1-.201.77 2 2 0 0 1-.874.874 2.021 2.021 0 0 1-.77.201C6.93 9 6.684 9 6.432 9H4.568c-.252 0-.498 0-.706-.017a2.021 2.021 0 0 1-.77-.201 2 2 0 0 1-.874-.874 2.022 2.022 0 0 1-.201-.77C2 6.93 2 6.684 2 6.432V4.568c0-.252 0-.498.017-.706a2.03 2.03 0 0 1 .201-.77 2 2 0 0 1 .874-.874 2.03 2.03 0 0 1 .77-.201C4.07 2 4.316 2 4.568 2h1.864c.252 0 .498 0 .706.017ZM17.568 2h1.864c.252 0 .498 0 .706.017.229.019.499.063.77.201a2 2 0 0 1 .874.874c.138.271.182.541.201.77.017.208.017.454.017.706v1.864c0 .252 0 .498-.017.706a2.022 2.022 0 0 1-.201.77 2 2 0 0 1-.874.874 2.022 2.022 0 0 1-.77.201C19.93 9 19.684 9 19.432 9h-1.864c-.252 0-.498 0-.706-.017a2.022 2.022 0 0 1-.77-.201 2 2 0 0 1-.874-.874 2.022 2.022 0 0 1-.201-.77C15 6.93 15 6.684 15 6.432V4.568c0-.252 0-.498.017-.706a2.03 2.03 0 0 1 .201-.77 2 2 0 0 1 .874-.874 2.03 2.03 0 0 1 .77-.201C17.07 2 17.316 2 17.568 2Zm-.556 2.011-.002.014C17 4.14 17 4.303 17 4.6v1.8a8.205 8.205 0 0 0 .012.589h.013c.116.01.279.011.575.011h1.8a8.194 8.194 0 0 0 .589-.011v-.014C20 6.86 20 6.697 20 6.4V4.6a8.205 8.205 0 0 0-.012-.589h-.013A8.194 8.194 0 0 0 19.4 4h-1.8a8.194 8.194 0 0 0-.588.011ZM2 12a1 1 0 0 1 1-1h.01a1 1 0 1 1 0 2H3a1 1 0 0 1-1-1Zm4 0a1 1 0 0 1 1-1h5a1 1 0 0 1 1 1v5a1 1 0 1 1-2 0v-4H7a1 1 0 0 1-1-1Zm8.5 0a1 1 0 0 1 1-1h2a1 1 0 1 1 0 2h-2a1 1 0 0 1-1-1Zm5.5 0a1 1 0 0 1 1-1h.01a1 1 0 1 1 0 2H21a1 1 0 0 1-1-1Zm-2.432 3h1.864c.252 0 .498 0 .706.017.229.019.499.063.77.201a2 2 0 0 1 .874.874c.138.271.182.541.201.77.017.208.017.454.017.706v1.864c0 .252 0 .498-.017.706a2.022 2.022 0 0 1-.201.77 2 2 0 0 1-.874.874 2.022 2.022 0 0 1-.77.201c-.208.017-.454.017-.706.017h-1.864c-.252 0-.498 0-.706-.017a2.022 2.022 0 0 1-.77-.201 2 2 0 0 1-.874-.874 2.022 2.022 0 0 1-.201-.77C15 19.93 15 19.684 15 19.432v-1.864c0-.252 0-.498.017-.706a2.03 2.03 0 0 1 .201-.77 2 2 0 0 1 .874-.874 2.03 2.03 0 0 1 .77-.201c.208-.017.454-.017.706-.017Zm-.556 2.011-.002.014c-.01.116-.01.279-.01.575v1.8a8.207 8.207 0 0 0 .012.588l.013.002c.116.01.279.01.575.01h1.8a8.207 8.207 0 0 0 .589-.012v-.013c.01-.116.011-.279.011-.575v-1.8a8.207 8.207 0 0 0-.012-.589h-.013A8.207 8.207 0 0 0 19.4 17h-1.8c-.297 0-.459 0-.575.01l-.013.001ZM2 17a1 1 0 0 1 1-1h1.5a1 1 0 1 1 0 2H3a1 1 0 0 1-1-1Zm5 0a1 1 0 0 1 1-1h.01a1 1 0 1 1 0 2H8a1 1 0 0 1-1-1Zm-5 4a1 1 0 0 1 1-1h5a1 1 0 1 1 0 2H3a1 1 0 0 1-1-1Zm9 0a1 1 0 0 1 1-1h.01a1 1 0 1 1 0 2H12a1 1 0 0 1-1-1Z" clip-rule="evenodd"/>
</svg>
