<svg xmlns="http://www.w3.org/2000/svg" width="24" height="24" viewBox="0 0 24 24">
  <path fill-rule="evenodd" d="M10.89 1.25a3.593 3.593 0 0 1 2.22 0c.472.153.863.421 1.241.742.362.307.772.717 1.26 1.206l5.191 5.19c.49.49.899.899 1.206 1.26.321.379.59.77.742 1.242a3.593 3.593 0 0 1 0 2.22c-.153.472-.42.864-.742 1.242-.307.361-.716.77-1.206 1.26l-5.19 5.19c-.49.49-.899.899-1.26 1.206-.379.321-.77.59-1.242.742a3.593 3.593 0 0 1-2.22 0c-.472-.153-.863-.42-1.241-.742-.362-.307-.772-.716-1.26-1.206l-5.191-5.19c-.49-.49-.899-.899-1.206-1.26-.321-.379-.59-.77-.742-1.242a3.593 3.593 0 0 1 0-2.22c.153-.472.42-.863.742-1.241.307-.362.717-.772 1.206-1.26l5.19-5.191c.49-.49.899-.899 1.26-1.206.379-.321.77-.589 1.242-.742Zm1.602 1.902a1.593 1.593 0 0 0-.984 0c-.12.039-.282.124-.565.365-.292.248-.644.598-1.17 1.123L4.64 9.774c-.525.525-.875.877-1.124 1.169-.24.283-.325.444-.364.565a1.59 1.59 0 0 0 0 .984c.039.12.124.282.364.565.249.293.6.644 1.124 1.17l5.134 5.133c.525.525.877.875 1.169 1.124.283.24.444.325.565.364.32.104.664.104.984 0 .12-.039.282-.124.565-.364.292-.249.644-.6 1.17-1.124l5.133-5.134c.525-.525.875-.877 1.123-1.169.241-.283.326-.444.365-.565a1.59 1.59 0 0 0 0-.984c-.039-.12-.124-.282-.364-.565-.249-.292-.6-.644-1.124-1.17L14.226 4.64c-.525-.525-.877-.875-1.169-1.123-.283-.241-.444-.326-.565-.365Z" clip-rule="evenodd"/>
</svg>
