<svg xmlns="http://www.w3.org/2000/svg" width="24" height="24" viewBox="0 0 24 24">
  <path d="M4 7.8c0-1.68 0-2.52.327-3.162a3 3 0 0 1 1.311-1.311C6.28 3 7.12 3 8.8 3h6.4c1.68 0 2.52 0 3.162.327a3 3 0 0 1 1.311 1.311C20 5.28 20 6.12 20 7.8V21l-2.75-2-2.5 2L12 19l-2.75 2-2.5-2L4 21V7.8Z" opacity=".2"/>
  <path fill-rule="evenodd" d="M8.759 2h6.482c.805 0 1.47 0 2.01.044.563.046 1.08.145 1.565.392a4 4 0 0 1 1.748 1.748c.247.485.346 1.002.392 1.564C21 6.29 21 6.954 21 7.758V21a1 1 0 0 1-1.588.809l-2.133-1.552-1.904 1.524a1 1 0 0 1-1.213.028L12 20.236 9.838 21.81a1 1 0 0 1-1.213-.028l-1.904-1.523-2.133 1.55A1 1 0 0 1 3 21V7.759c0-.805 0-1.47.044-2.01.046-.563.145-1.08.392-1.565a4 4 0 0 1 1.748-1.748c.485-.247 1.002-.346 1.564-.392C7.29 2 7.954 2 8.758 2ZM6.91 4.038c-.438.035-.663.1-.819.18a2 2 0 0 0-.874.874c-.08.156-.145.38-.18.819C5 6.361 5 6.943 5 7.8v11.236l1.162-.845a1 1 0 0 1 1.213.028l1.904 1.523 2.133-1.55a1 1 0 0 1 1.176 0l2.133 1.55 1.904-1.523a1 1 0 0 1 1.213-.028l1.162.845V7.8c0-.857 0-1.439-.038-1.889-.035-.438-.1-.663-.18-.819a2 2 0 0 0-.874-.874c-.156-.08-.38-.145-.819-.18C16.639 4 16.057 4 15.2 4H8.8c-.857 0-1.439 0-1.889.038Z" clip-rule="evenodd"/>
</svg>
