<svg xmlns="http://www.w3.org/2000/svg" width="24" height="24" viewBox="0 0 24 24">
  <path fill-rule="evenodd" d="M12 2a1 1 0 0 1 1 1v3a1 1 0 1 1-2 0V3a1 1 0 0 1 1-1Zm0 7.5a1 1 0 0 1 1 1v3a1 1 0 1 1-2 0v-3a1 1 0 0 1 1-1Zm0 7.5a1 1 0 0 1 1 1v3a1 1 0 1 1-2 0v-3a1 1 0 0 1 1-1Z" clip-rule="evenodd" opacity=".5"/>
  <path fill-rule="evenodd" d="m3.87 7.177.027.021 4.388 3.375.022.017c.12.093.258.198.368.3.122.112.3.297.406.573a1.5 1.5 0 0 1 0 1.074 1.52 1.52 0 0 1-.406.573c-.11.102-.247.207-.368.3l-.022.017-4.388 3.375-.027.021c-.183.14-.37.285-.534.389-.159.1-.463.277-.854.272a1.5 1.5 0 0 1-1.16-.57c-.242-.308-.287-.657-.304-.844A7.772 7.772 0 0 1 1 15.375V8.59c0-.23 0-.466.018-.66.017-.187.062-.536.304-.844a1.5 1.5 0 0 1 1.16-.57c.391-.005.695.172.854.272.164.104.351.248.534.389ZM3 9.03v5.938L6.86 12 3 9.03Zm18 0L17.14 12 21 14.97V9.03Zm-.336-2.243c.159-.1.463-.277.854-.272a1.5 1.5 0 0 1 1.16.57c.242.308.287.657.304.844.018.194.018.43.018.66v6.82c0 .23 0 .466-.018.66-.017.187-.062.536-.304.844a1.5 1.5 0 0 1-1.16.57c-.391.005-.695-.172-.854-.272-.165-.104-.351-.248-.534-.389l-4.415-3.396-.022-.017c-.121-.093-.258-.198-.368-.3a1.52 1.52 0 0 1-.406-.573 1.5 1.5 0 0 1 0-1.074 1.52 1.52 0 0 1 .406-.573c.11-.102.247-.207.368-.3l.022-.017 4.415-3.396c.183-.14.37-.285.534-.389Z" clip-rule="evenodd"/>
</svg>
