<svg xmlns="http://www.w3.org/2000/svg" width="24" height="24" viewBox="0 0 24 24">
  <path d="M2 15.375c0 .522 0 .783.107.92a.5.5 0 0 0 .387.19c.173.002.38-.157.794-.476l4.388-3.375c.28-.216.42-.324.47-.455a.5.5 0 0 0 0-.358c-.05-.131-.19-.24-.47-.455L3.288 7.99c-.414-.319-.62-.478-.794-.476a.5.5 0 0 0-.387.19C2 7.843 2 8.104 2 8.626v6.75Zm20 0c0 .522 0 .783-.108.92a.5.5 0 0 1-.386.19c-.173.002-.38-.157-.794-.476l-4.388-3.375c-.28-.216-.42-.324-.47-.455a.5.5 0 0 1 0-.358c.05-.131.19-.24.47-.455l4.388-3.375c.414-.319.62-.478.794-.476a.5.5 0 0 1 .386.19c.108.137.108.398.108.92v6.75Z" opacity=".2"/>
  <path fill-rule="evenodd" d="M12 2a1 1 0 0 1 1 1v3a1 1 0 1 1-2 0V3a1 1 0 0 1 1-1ZM3.87 7.177l.027.021 4.388 3.375.022.017c.121.093.258.198.368.3.122.112.3.297.406.573a1.5 1.5 0 0 1 0 1.074 1.52 1.52 0 0 1-.406.573c-.11.102-.247.207-.368.3l-.022.017-4.415 3.396c-.183.14-.37.285-.534.389-.159.1-.463.277-.854.273a1.5 1.5 0 0 1-1.16-.571c-.242-.308-.287-.657-.304-.844C1 15.876 1 15.64 1 15.41V8.59c0-.23 0-.466.018-.66.017-.187.062-.536.304-.844a1.5 1.5 0 0 1 1.16-.57c.391-.005.695.172.854.272.164.104.351.248.534.389ZM3 9.03v5.938L6.86 12 3 9.03Zm18 0L17.14 12 21 14.97V9.03Zm-.336-2.243c.159-.1.463-.277.854-.272a1.5 1.5 0 0 1 1.16.57c.242.308.287.657.305.844.017.194.017.43.017.66v6.82c0 .23 0 .466-.017.66-.018.187-.063.536-.305.844a1.5 1.5 0 0 1-1.16.57c-.391.005-.695-.172-.854-.272a7.762 7.762 0 0 1-.534-.389l-4.415-3.396-.022-.017c-.121-.093-.258-.198-.368-.3a1.52 1.52 0 0 1-.406-.573 1.5 1.5 0 0 1 0-1.074 1.52 1.52 0 0 1 .406-.573c.11-.102.247-.207.368-.3l.022-.017 4.415-3.396c.183-.14.37-.285.534-.389ZM12 9.5a1 1 0 0 1 1 1v3a1 1 0 1 1-2 0v-3a1 1 0 0 1 1-1Zm0 7.5a1 1 0 0 1 1 1v3a1 1 0 1 1-2 0v-3a1 1 0 0 1 1-1Z" clip-rule="evenodd"/>
</svg>
