<svg xmlns="http://www.w3.org/2000/svg" width="24" height="24" viewBox="0 0 24 24">
  <path fill-rule="evenodd" d="M4.929 4.929c3.905-3.905 10.237-3.905 14.142 0a9.958 9.958 0 0 1 2.68 4.85 1 1 0 0 1-1.95.442A8 8 0 0 0 6.343 6.343C4.606 8.081 3.737 9.13 3.311 9.721a4.048 4.048 0 0 0-.349.551A1 1 0 0 1 1.01 9.86L2 10c-.99-.141-.99-.143-.99-.145l.001-.003.001-.007.002-.013a1.1 1.1 0 0 1 .05-.196 2.38 2.38 0 0 1 .113-.266c.097-.197.255-.462.512-.819.513-.712 1.463-1.845 3.24-3.622Zm-1.926 8.096a1 1 0 0 1 1.196.754 8 8 0 0 0 13.458 3.878c1.737-1.738 2.605-2.786 3.032-3.378a4.059 4.059 0 0 0 .349-.551 1 1 0 0 1 1.952.413L22 14c.99.141.99.143.99.145l-.001.003-.001.007-.002.013a.911.911 0 0 1-.017.082c-.01.037-.02.075-.034.114a2.198 2.198 0 0 1-.112.266 5.919 5.919 0 0 1-.512.819c-.513.712-1.463 1.845-3.24 3.622-3.905 3.905-10.237 3.905-14.142 0a9.958 9.958 0 0 1-2.68-4.85 1 1 0 0 1 .754-1.196Z" clip-rule="evenodd" opacity=".5"/>
  <path fill-rule="evenodd" d="M2 3a1 1 0 0 1 1 1v5h5a1 1 0 0 1 0 2H2a1 1 0 0 1-1-1V4a1 1 0 0 1 1-1Zm13 11a1 1 0 0 1 1-1h6a1 1 0 0 1 1 1v6a1 1 0 1 1-2 0v-5h-5a1 1 0 0 1-1-1Z" clip-rule="evenodd"/>
</svg>
