<svg xmlns="http://www.w3.org/2000/svg" width="24" height="24" viewBox="0 0 24 24">
  <path fill-rule="evenodd" d="M18.495 8.25a7.5 7.5 0 0 0-13.954 2.963A1 1 0 0 1 2.552 11a9.5 9.5 0 0 1 17.675-3.75l.25.433a1 1 0 1 1-1.732 1l-.25-.433Zm2.064 3.649a1 1 0 0 1 .889 1.1A9.5 9.5 0 0 1 3.773 16.75l-.25-.433a1 1 0 1 1 1.732-1l.25.433a7.5 7.5 0 0 0 13.954-2.963 1 1 0 0 1 1.1-.888Z" clip-rule="evenodd" opacity=".5"/>
  <path fill-rule="evenodd" d="M20.766 4.968a1 1 0 0 1 .707 1.225l-.732 2.732a1 1 0 0 1-1.225.707L16.784 8.9a1 1 0 0 1 .518-1.932l1.766.473.473-1.766a1 1 0 0 1 1.225-.707Zm-17.04 9.5a1 1 0 0 1 .758-.1l2.732.732a1 1 0 0 1-.517 1.932l-1.766-.473-.474 1.766a1 1 0 0 1-1.931-.518l.732-2.732a1 1 0 0 1 .466-.607Z" clip-rule="evenodd"/>
</svg>
