<svg xmlns="http://www.w3.org/2000/svg" width="24" height="24" viewBox="0 0 24 24">
  <path fill-rule="evenodd" d="M13.707.893a1 1 0 0 1 0 1.414l-.297.297c4.578.681 8.09 4.628 8.09 9.396a9.488 9.488 0 0 1-3.911 7.683 1 1 0 0 1-1.178-1.617 7.503 7.503 0 0 0-2.956-13.425l.252.252a1 1 0 0 1-1.414 1.414l-2-2a1 1 0 0 1 0-1.414l2-2a1 1 0 0 1 1.414 0ZM7.808 4.537a1 1 0 0 1-.22 1.397 7.503 7.503 0 0 0 2.956 13.425l-.251-.252a1 1 0 1 1 1.414-1.414l2 2a1 1 0 0 1 0 1.414l-2 2a1 1 0 0 1-1.414-1.414l.297-.297C6.012 20.715 2.5 16.767 2.5 12a9.488 9.488 0 0 1 3.911-7.683 1 1 0 0 1 1.397.22Z" clip-rule="evenodd"/>
</svg>
