<svg xmlns="http://www.w3.org/2000/svg" width="24" height="24" viewBox="0 0 24 24">
  <path fill-rule="evenodd" d="M3 2a1 1 0 0 1 1-1h6a1 1 0 0 1 1 1v6a1 1 0 1 1-2 0V3.874c-.617.512-1.478 1.291-2.657 2.47A8 8 0 0 0 10.221 19.8a1 1 0 1 1-.442 1.95 9.958 9.958 0 0 1-4.85-2.68c-3.905-3.905-3.905-10.237 0-14.142A50.854 50.854 0 0 1 6.954 3H4a1 1 0 0 1-1-1Zm10.025 1.003a1 1 0 0 1 1.196-.754 9.958 9.958 0 0 1 4.85 2.68c3.905 3.905 3.905 10.237 0 14.142A50.814 50.814 0 0 1 17.046 21H20a1 1 0 1 1 0 2h-6a1 1 0 0 1-1-1v-6a1 1 0 1 1 2 0v4.126c.617-.512 1.479-1.29 2.657-2.47A8 8 0 0 0 13.779 4.2a1 1 0 0 1-.754-1.196Z" clip-rule="evenodd"/>
</svg>
