<svg xmlns="http://www.w3.org/2000/svg" width="24" height="24" viewBox="0 0 24 24">
  <path fill-rule="evenodd" d="M12 4c-2.21 0-4.21.895-5.659 2.345-.773.774-1.653 1.828-2.352 2.708a61.247 61.247 0 0 0-1.098 1.424l-.064.086-.016.022-.005.006a1 1 0 0 1-1.612-1.183L2 10l-.806-.592L1.2 9.4l.018-.024.068-.093.255-.338c.217-.287.523-.685.881-1.136.71-.894 1.648-2.02 2.503-2.877A9.972 9.972 0 0 1 12 2c5.523 0 10 4.477 10 10s-4.477 10-10 10c-4.56 0-8.405-3.052-9.609-7.223a1 1 0 0 1 1.922-.554A8 8 0 1 0 12 4Z" clip-rule="evenodd" opacity=".5"/>
  <path fill-rule="evenodd" d="M2 3a1 1 0 0 1 1 1v5h5a1 1 0 0 1 0 2H2a1 1 0 0 1-1-1V4a1 1 0 0 1 1-1Z" clip-rule="evenodd"/>
</svg>
