<svg xmlns="http://www.w3.org/2000/svg" width="24" height="24" viewBox="0 0 24 24">
  <path fill-rule="evenodd" d="M17.657 6.343a8 8 0 0 0-13.458 3.878 1 1 0 0 1-1.95-.442 9.958 9.958 0 0 1 2.68-4.85c3.905-3.905 10.237-3.905 14.142 0 1.777 1.777 2.727 2.91 3.24 3.622.257.357.415.622.512.82a2.202 2.202 0 0 1 .146.379 1.293 1.293 0 0 1 .017.082l.002.013.001.007v.003c0 .002.001.004-.989.145l.99-.141a1 1 0 0 1-1.952.413 4.057 4.057 0 0 0-.349-.551c-.427-.592-1.295-1.64-3.032-3.378Zm3.34 6.682a1 1 0 0 1 .754 1.196 9.959 9.959 0 0 1-2.68 4.85c-3.905 3.905-10.237 3.905-14.142 0-1.777-1.777-2.727-2.91-3.24-3.622a5.914 5.914 0 0 1-.512-.82 2.196 2.196 0 0 1-.146-.379 1.16 1.16 0 0 1-.017-.082l-.002-.013-.001-.007v-.003c0-.002 0-.004.989-.145l-.99.141a1 1 0 0 1 1.952-.413 4.05 4.05 0 0 0 .349.551c.426.592 1.295 1.64 3.032 3.378a8 8 0 0 0 13.458-3.878 1 1 0 0 1 1.196-.754Z" clip-rule="evenodd" opacity=".5"/>
  <path fill-rule="evenodd" d="M22 3a1 1 0 0 1 1 1v6a1 1 0 0 1-1 1h-6a1 1 0 1 1 0-2h5V4a1 1 0 0 1 1-1ZM1 14a1 1 0 0 1 1-1h6a1 1 0 1 1 0 2H3v5a1 1 0 1 1-2 0v-6Z" clip-rule="evenodd"/>
</svg>
