<svg xmlns="http://www.w3.org/2000/svg" width="24" height="24" viewBox="0 0 24 24">
  <path fill-rule="evenodd" d="M13.01 1.859a1 1 0 0 1 1.131-.849L14 2c.141-.99.143-.99.145-.99l.003.001.007.001.013.002a1.064 1.064 0 0 1 .196.05c.078.027.166.064.266.113.197.097.462.255.819.512.712.513 1.845 1.463 3.622 3.24 3.905 3.905 3.905 10.237 0 14.142a9.959 9.959 0 0 1-4.85 2.68 1 1 0 0 1-.442-1.95 8 8 0 0 0 3.878-13.458c-1.738-1.737-2.786-2.606-3.378-3.032a4.05 4.05 0 0 0-.551-.349 1 1 0 0 1-.718-1.103Zm-2.035 1.143a1 1 0 0 1-.754 1.197 8 8 0 0 0-3.878 13.458c1.738 1.737 2.786 2.605 3.378 3.032a4.057 4.057 0 0 0 .551.348 1 1 0 0 1-.413 1.953L10 22c-.141.99-.143.99-.145.99l-.003-.001-.007-.001-.013-.003-.015-.002-.012-.002a1.293 1.293 0 0 1-.169-.046 2.216 2.216 0 0 1-.266-.112 5.929 5.929 0 0 1-.819-.512c-.712-.513-1.845-1.463-3.622-3.24-3.905-3.905-3.905-10.237 0-14.142a9.958 9.958 0 0 1 4.85-2.68 1 1 0 0 1 1.196.753Zm-.83 18.008h.003-.003Z" clip-rule="evenodd" opacity=".5"/>
  <path fill-rule="evenodd" d="M13 2a1 1 0 0 1 1-1h6a1 1 0 1 1 0 2h-5v5a1 1 0 1 1-2 0V2Zm-3 13a1 1 0 0 1 1 1v6a1 1 0 0 1-1 1H4a1 1 0 1 1 0-2h5v-5a1 1 0 0 1 1-1Z" clip-rule="evenodd"/>
</svg>
