<svg xmlns="http://www.w3.org/2000/svg" width="24" height="24" viewBox="0 0 24 24">
  <path fill-rule="evenodd" d="M10.272 2.963A1 1 0 0 0 9.86 1.01L10 2c-.141-.99-.143-.99-.145-.99l-.003.001-.007.001-.013.002a1.053 1.053 0 0 0-.196.051 2.2 2.2 0 0 0-.266.112 5.91 5.91 0 0 0-.819.512c-.712.513-1.845 1.463-3.622 3.24-3.905 3.905-3.905 10.237 0 14.142a9.958 9.958 0 0 0 4.85 2.68 1 1 0 0 0 .442-1.95A8 8 0 0 1 6.343 6.343C8.081 4.606 9.13 3.738 9.721 3.311a4.047 4.047 0 0 1 .551-.348Zm2.753.04a1 1 0 0 1 1.196-.754 9.958 9.958 0 0 1 4.85 2.68c3.905 3.905 3.905 10.237 0 14.142-1.777 1.777-2.91 2.727-3.622 3.24a5.912 5.912 0 0 1-.82.512 2.18 2.18 0 0 1-.379.146 1.285 1.285 0 0 1-.082.017l-.013.002-.007.001h-.003c-.002 0-.004 0-.145-.989l.141.99a1 1 0 0 1-.413-1.952 4.053 4.053 0 0 0 .551-.349c.592-.427 1.64-1.295 3.378-3.032a8 8 0 0 0-3.878-13.458 1 1 0 0 1-.754-1.196Z" clip-rule="evenodd" opacity=".5"/>
  <path fill-rule="evenodd" d="M9 3H4a1 1 0 1 1 0-2h6a1 1 0 0 1 1 1v6a1 1 0 1 1-2 0V3Zm5 12a1 1 0 0 1 1 1v5h5a1 1 0 1 1 0 2h-6a1 1 0 0 1-1-1v-6a1 1 0 0 1 1-1Z" clip-rule="evenodd"/>
</svg>
