<svg xmlns="http://www.w3.org/2000/svg" width="24" height="24" viewBox="0 0 24 24">
  <path fill-rule="evenodd" d="M2 12C2 6.477 6.477 2 12 2a9.972 9.972 0 0 1 7.073 2.931c.856.857 1.793 1.983 2.504 2.877a63.216 63.216 0 0 1 1.136 1.474l.068.093.018.024.007.008L22 10l.806-.592a1 1 0 0 1-1.612 1.184l-.005-.007-.016-.022-.064-.086-.245-.325c-.21-.277-.506-.663-.853-1.1-.7-.879-1.58-1.933-2.352-2.707a8 8 0 1 0 2.029 7.878 1 1 0 0 1 1.921.554C20.405 18.948 16.56 22 12 22 6.477 22 2 17.523 2 12Z" clip-rule="evenodd" opacity=".5"/>
  <path fill-rule="evenodd" d="M22 3a1 1 0 0 1 1 1v6a1 1 0 0 1-1 1h-6a1 1 0 1 1 0-2h5V4a1 1 0 0 1 1-1Z" clip-rule="evenodd"/>
</svg>
