<svg xmlns="http://www.w3.org/2000/svg" width="24" height="24" viewBox="0 0 24 24">
  <path fill-rule="evenodd" d="M7.25 3.773a9.488 9.488 0 0 1 8.609-.454 1 1 0 0 1-.811 1.828A7.5 7.5 0 0 0 5.505 15.75a1 1 0 1 1-1.733 1A9.5 9.5 0 0 1 7.25 3.773ZM18.61 6.45a1 1 0 0 1 1.366.366l.25.433A9.5 9.5 0 0 1 8.141 20.682a1 1 0 0 1 .811-1.829A7.5 7.5 0 0 0 18.495 8.25l-.25-.433a1 1 0 0 1 .366-1.366Z" clip-rule="evenodd" opacity=".5"/>
  <path fill-rule="evenodd" d="M18.275 6.068a1 1 0 0 1 .759-.1l2.732.732a1 1 0 0 1-.518 1.932l-1.766-.473-.473 1.766a1 1 0 0 1-1.932-.518l.732-2.732a1 1 0 0 1 .466-.607Zm-12.059 7.3a1 1 0 0 1 .707 1.225l-.732 2.732a1 1 0 0 1-1.224.707L2.235 17.3a1 1 0 1 1 .517-1.932l1.766.473.474-1.766a1 1 0 0 1 1.224-.707Z" clip-rule="evenodd"/>
</svg>
