<svg xmlns="http://www.w3.org/2000/svg" width="24" height="24" viewBox="0 0 24 24">
  <path fill-rule="evenodd" d="M13.293 1.293A1 1 0 0 1 14 1h6a1 1 0 1 1 0 2h-2.954c.559.5 1.227 1.13 2.025 1.929 3.905 3.905 3.905 10.237 0 14.142a9.959 9.959 0 0 1-4.85 2.68 1 1 0 0 1-.442-1.95 8 8 0 0 0 3.878-13.458C16.479 5.165 15.617 4.386 15 3.874V8a1 1 0 1 1-2 0V2a1 1 0 0 1 .293-.707Zm-2.318 1.71a1 1 0 0 1-.754 1.196 8 8 0 0 0-3.878 13.458c1.179 1.178 2.04 1.956 2.657 2.468V16a1 1 0 1 1 2 0v6a1 1 0 0 1-1 1H4a1 1 0 0 1 0-2h2.954a50.915 50.915 0 0 1-2.025-1.93c-3.905-3.904-3.905-10.236 0-14.141a9.958 9.958 0 0 1 4.85-2.68 1 1 0 0 1 1.196.753Z" clip-rule="evenodd"/>
</svg>
