<svg xmlns="http://www.w3.org/2000/svg" width="24" height="24" viewBox="0 0 24 24">
  <path fill-rule="evenodd" d="M12 4.5a7.5 7.5 0 0 0-4.411 13.566 1 1 0 1 1-1.178 1.617A9.5 9.5 0 0 1 12 2.5h.5a1 1 0 1 1 0 2H12Zm4.192.037a1 1 0 0 1 1.397-.22A9.5 9.5 0 0 1 12 21.5h-.5a1 1 0 1 1 0-2h.5a7.5 7.5 0 0 0 4.411-13.566 1 1 0 0 1-.22-1.397Z" clip-rule="evenodd" opacity=".5"/>
  <path fill-rule="evenodd" d="M10.293.893a1 1 0 0 1 1.414 0l2 2a1 1 0 0 1 0 1.414l-2 2a1 1 0 1 1-1.414-1.414L11.586 3.6l-1.293-1.293a1 1 0 0 1 0-1.414Zm3.414 16.8a1 1 0 0 1 0 1.414L12.414 20.4l1.293 1.293a1 1 0 0 1-1.414 1.414l-2-2a1 1 0 0 1 0-1.414l2-2a1 1 0 0 1 1.414 0Z" clip-rule="evenodd"/>
</svg>
