<svg xmlns="http://www.w3.org/2000/svg" width="24" height="24" viewBox="0 0 24 24">
  <path fill-rule="evenodd" d="M7.25 3.773a9.488 9.488 0 0 1 8.609-.454 1 1 0 0 1-.811 1.828A7.503 7.503 0 0 0 4.899 14.42l.093-.345a1 1 0 1 1 1.931.518l-.732 2.732a1 1 0 0 1-1.224.707L2.235 17.3a1 1 0 1 1 .517-1.932l.405.108C1.46 11.171 3.121 6.156 7.25 3.773Zm10.559 2.902a1 1 0 0 1 1.224-.707l2.732.732a1 1 0 1 1-.517 1.932l-.406-.109a9.5 9.5 0 0 1-4.092 11.704 9.489 9.489 0 0 1-8.609.455 1 1 0 0 1 .811-1.829A7.502 7.502 0 0 0 19.101 9.58l-.092.345a1 1 0 1 1-1.932-.518l.732-2.732Z" clip-rule="evenodd"/>
</svg>
