<svg xmlns="http://www.w3.org/2000/svg" width="24" height="24" viewBox="0 0 24 24">
  <path fill-rule="evenodd" d="M17.645 7.06a7.502 7.502 0 0 0-13.104 4.153A1 1 0 0 1 2.55 11a9.488 9.488 0 0 1 4.7-7.227c4.129-2.384 9.303-1.316 12.182 2.308l.109-.406a1 1 0 1 1 1.931.518l-.732 2.732a1 1 0 0 1-1.224.707L16.784 8.9a1 1 0 1 1 .517-1.932l.344.092Zm2.915 4.84a1 1 0 0 1 .888 1.1 9.488 9.488 0 0 1-4.698 7.228c-4.128 2.384-9.302 1.317-12.181-2.307l-.109.405a1 1 0 0 1-1.932-.518l.732-2.732a1 1 0 0 1 1.225-.707l2.732.732a1 1 0 0 1-.518 1.932l-.344-.092a7.503 7.503 0 0 0 13.105-4.153 1 1 0 0 1 1.1-.888Z" clip-rule="evenodd"/>
</svg>
