<svg xmlns="http://www.w3.org/2000/svg" width="24" height="24" viewBox="0 0 24 24">
  <path fill-rule="evenodd" d="M10.5 3.5a1 1 0 0 1 1-1h.5a9.5 9.5 0 0 1 5.589 17.183 1 1 0 1 1-1.178-1.617A7.5 7.5 0 0 0 12 4.5h-.5a1 1 0 0 1-1-1ZM7.808 4.537a1 1 0 0 1-.22 1.397A7.5 7.5 0 0 0 12 19.5a1 1 0 1 1 .001 2 9.5 9.5 0 0 1-5.59-17.183 1 1 0 0 1 1.397.22Z" clip-rule="evenodd" opacity=".5"/>
  <path fill-rule="evenodd" d="M13.707.893a1 1 0 0 1 0 1.414L12.414 3.6l1.293 1.293a1 1 0 0 1-1.414 1.414l-2-2a1 1 0 0 1 0-1.414l2-2a1 1 0 0 1 1.414 0Zm-3.414 18.214a1 1 0 1 1 1.414-1.414l2 2a1 1 0 0 1 0 1.414l-2 2a1 1 0 0 1-1.414-1.414l1.293-1.293-1.293-1.293Z" clip-rule="evenodd"/>
</svg>
