<svg xmlns="http://www.w3.org/2000/svg" width="24" height="24" viewBox="0 0 24 24">
  <path fill-rule="evenodd" d="M12 3.118 19.764 7 12 10.882 4.236 7 12 3.118Zm-.197 7.862Zm.394 0Zm-.474-9.895a1.5 1.5 0 0 1 .554 0 1.902 1.902 0 0 1 .528.2l9.642 4.82a1 1 0 0 1 0 1.79l-9.642 4.82-.026.014c-.093.047-.286.146-.502.186a1.5 1.5 0 0 1-.554 0 1.885 1.885 0 0 1-.502-.186l-.026-.013-9.642-4.822a1 1 0 0 1 0-1.788l9.642-4.822.026-.013c.093-.047.286-.146.502-.186ZM1.106 11.553a1 1 0 0 1 1.341-.447l9.559 4.779a1 1 0 0 1 .799 1.83l-.026.014c-.093.047-.286.146-.502.186a1.5 1.5 0 0 1-.554 0 1.885 1.885 0 0 1-.502-.186l-.026-.014-9.642-4.82a1 1 0 0 1-.447-1.342Zm10.697 4.427Zm.394 0ZM20 14a1 1 0 1 0 0 2 1 1 0 0 0 0-2Zm-3 1a3 3 0 1 1 1.707 2.708L16.914 19.5l1.293 1.293a1 1 0 0 1-1.414 1.414L15.5 20.914l-1.793 1.793a1 1 0 0 1-1.414-1.414l5-5A2.988 2.988 0 0 1 17 15ZM1.106 16.553a1 1 0 0 1 1.341-.447l8 4a1 1 0 1 1-.894 1.788l-8-4a1 1 0 0 1-.447-1.341Z" clip-rule="evenodd"/>
</svg>
