<svg xmlns="http://www.w3.org/2000/svg" width="24" height="24" viewBox="0 0 24 24">
  <path fill-rule="evenodd" d="m20 4-3.333 2.5L20 9V4Zm-.32-2.238c.16-.099.463-.27.851-.262.45.01.873.22 1.15.575.24.306.284.651.302.838.017.192.017.425.017.652v5.87c0 .227 0 .46-.017.652-.018.187-.063.532-.302.838a1.5 1.5 0 0 1-1.15.575c-.388.008-.691-.163-.85-.262a7.663 7.663 0 0 1-.561-.398l-3.867-2.9-.022-.017a5.679 5.679 0 0 1-.379-.3 1.522 1.522 0 0 1-.417-.58 1.5 1.5 0 0 1 0-1.087c.11-.28.293-.467.417-.579.113-.101.254-.207.379-.3l.022-.017 3.895-2.92a7.68 7.68 0 0 1 .532-.378ZM2 4a1 1 0 0 1 1-1h9a1 1 0 1 1 0 2H3a1 1 0 0 1-1-1Zm0 5.25a1 1 0 0 1 1-1h9a1 1 0 1 1 0 2H3a1 1 0 0 1-1-1Zm0 5.5a1 1 0 0 1 1-1h18a1 1 0 1 1 0 2H3a1 1 0 0 1-1-1ZM2 20a1 1 0 0 1 1-1h18a1 1 0 1 1 0 2H3a1 1 0 0 1-1-1Z" clip-rule="evenodd"/>
</svg>
