<svg xmlns="http://www.w3.org/2000/svg" width="24" height="24" viewBox="0 0 24 24">
  <path fill-rule="evenodd" d="M20.663 4.408a1 1 0 0 0-1.15-1.151l-3.399.566a23.908 23.908 0 0 1 3.982 3.99l.567-3.405Zm-1.308 5.773a21.658 21.658 0 0 0-2.561-3.08 21.668 21.668 0 0 0-3.05-2.54L9.999 8.565a.998.998 0 0 1-.025.026l-2.797 2.99a3.654 3.654 0 0 0-.495 4.323l5.612-5.612a1 1 0 0 1 1.414 1.414l-5.59 5.59a3.654 3.654 0 0 0 4.222-.553l2.986-2.793a.952.952 0 0 1 .034-.032l3.996-3.738Zm-2.18 4.777 3.6-3.366a3.445 3.445 0 0 0 1.044-1.949l.817-4.906a3 3 0 0 0-3.452-3.453l-4.907.818a3.443 3.443 0 0 0-1.948 1.044L8.963 6.745l-2.267-.756a2 2 0 0 0-1.924.37L1.914 8.778c-1.17.99-.837 2.874.6 3.404l1.812.667a5.657 5.657 0 0 0 .909 4.503l-2.442 2.442a1 1 0 1 0 1.414 1.414l2.456-2.456a5.658 5.658 0 0 0 4.41.844l.667 1.81c.53 1.438 2.413 1.77 3.403.6l2.418-2.856a2 2 0 0 0 .37-1.925l-.755-2.266ZM15.57 16.46l-1.864 1.744a5.677 5.677 0 0 1-.786.616l.697 1.893 2.418-2.857-.465-1.396ZM5.1 11c.18-.275.385-.538.617-.786L7.46 8.351l-1.395-.466-2.858 2.418 1.894.698Z" clip-rule="evenodd"/>
</svg>
