<svg xmlns="http://www.w3.org/2000/svg" width="24" height="24" viewBox="0 0 24 24">
  <path d="M9.248 7.904a1.001 1.001 0 0 0-.13-.053L6.38 6.938a1 1 0 0 0-.962.185L2.561 9.541a1 1 0 0 0 .3 1.701l2.426.894a1 1 0 0 0 .3.06c.206-.465.492-.905.859-1.297l2.802-2.995Zm2.465 10.435a.997.997 0 0 0 .057.256l.909 2.465a1 1 0 0 0 1.701.3l2.418-2.857a1 1 0 0 0 .185-.962l-.823-2.47a1.001 1.001 0 0 0-.2-.346l-2.938 2.75a4.66 4.66 0 0 1-1.31.864ZM17.5 6.394a26.78 26.78 0 0 0-2.238-1.971c-.528-.418-.792-.627-.83-.804a.484.484 0 0 1 .111-.43c.118-.137.44-.19 1.084-.298l3.721-.62a2 2 0 0 1 2.302 2.301l-.62 3.717c-.107.646-.16.969-.297 1.087a.483.483 0 0 1-.431.111c-.176-.037-.387-.302-.807-.833a27.256 27.256 0 0 0-1.994-2.26Z" opacity=".2"/>
  <path fill-rule="evenodd" d="M20.664 4.408a1 1 0 0 0-1.151-1.15l-3.399.566a23.908 23.908 0 0 1 3.982 3.988l.568-3.404Zm-1.309 5.773a21.67 21.67 0 0 0-2.561-3.08 21.672 21.672 0 0 0-3.05-2.54L9.999 8.565a.997.997 0 0 1-.025.026l-2.796 2.99a3.654 3.654 0 0 0-.496 4.323l5.612-5.612a1 1 0 0 1 1.414 1.414l-5.59 5.59a3.654 3.654 0 0 0 4.222-.553l2.986-2.793a.955.955 0 0 1 .034-.032l3.996-3.738Zm-2.179 4.777 3.599-3.366a3.443 3.443 0 0 0 1.044-1.949l.818-4.906a3 3 0 0 0-3.453-3.453l-4.906.818a3.443 3.443 0 0 0-1.949 1.044L8.963 6.745l-2.267-.756a2 2 0 0 0-1.924.37L1.915 8.778c-1.17.99-.838 2.874.6 3.404l1.81.667a5.657 5.657 0 0 0 .91 4.503l-2.442 2.442a1 1 0 1 0 1.414 1.414l2.456-2.456a5.658 5.658 0 0 0 4.41.844l.667 1.81c.53 1.438 2.414 1.77 3.403.6l2.418-2.856a2 2 0 0 0 .37-1.925l-.755-2.266Zm-1.607 1.503-1.864 1.744a5.677 5.677 0 0 1-.786.616l.698 1.893 2.417-2.857-.465-1.396ZM5.1 11.001c.179-.274.384-.538.616-.786l1.743-1.863-1.395-.465-2.857 2.417 1.893.698Z" clip-rule="evenodd"/>
</svg>
