<svg xmlns="http://www.w3.org/2000/svg" width="24" height="24" viewBox="0 0 24 24">
  <path fill-rule="evenodd" d="M3.856 15.735a3.18 3.18 0 0 1 4.244.132l.013.011c1.188 1.174 1.173 3.057.152 4.266-.443.527-1.053.914-1.639 1.2-.598.292-1.244.514-1.824.68a17.38 17.38 0 0 1-2.116.46l-.037.005-.011.002h-.005L2.5 21.5l-.991-.133v-.005l.002-.01.005-.038.02-.134c.019-.113.046-.274.083-.47.074-.392.19-.93.357-1.512.166-.58.388-1.226.68-1.824.287-.587.673-1.197 1.2-1.64ZM2.5 21.5l-.991-.133a1 1 0 0 0 1.124 1.124L2.5 21.5Zm1.27-1.27c.155-.039.317-.082.482-.129a9.325 9.325 0 0 0 1.496-.554c.47-.23.799-.467.986-.69l.002-.002c.396-.469.363-1.16-.023-1.548a1.18 1.18 0 0 0-1.569-.042c-.224.188-.462.518-.69.987a9.32 9.32 0 0 0-.555 1.495c-.047.166-.09.328-.129.483Z" clip-rule="evenodd" opacity=".5"/>
  <path d="M11.5 21a.992.992 0 0 1-1-1v-4.59L8.09 13H3.5c-.3 0-.58-.13-.77-.36-.19-.23-.27-.53-.22-.82.06-.35.68-3.48 2.43-4.65 1.51-1.01 3.94-.61 5.15-.32 1.21-1.7 2.8-3.12 4.63-4.13 2.08-1.14 4.43-1.7 6.79-1.72.55 0 .99.45.99 1 0 2.7-.78 7.69-5.85 11.41.29 1.22.69 3.63-.32 5.14-1.17 1.75-4.3 2.37-4.65 2.43-.06.01-.12.02-.18.02Zm1-5.32v3.03c.88-.29 1.81-.73 2.17-1.27.42-.62.35-1.86.17-2.89-.76.42-1.54.8-2.34 1.13Zm-2.83-3.92 2.07 2.07c1.11-.46 2.19-1.02 3.21-1.66h.01c4.06-2.73 5.28-6.3 5.5-9.12-1.67.14-3.3.62-4.76 1.43-1.77.97-3.28 2.4-4.35 4.11-.65 1.01-1.21 2.08-1.67 3.18l-.01-.01ZM4.79 11h3.03c.34-.8.72-1.58 1.14-2.34-1.04-.18-2.29-.25-2.91.17-.54.36-.98 1.31-1.26 2.17Z"/>
</svg>
