<svg xmlns="http://www.w3.org/2000/svg" width="24" height="24" viewBox="0 0 24 24">
  <path fill-rule="evenodd" d="M4.772 6.36a2 2 0 0 1 1.924-.37l2.875.957a1 1 0 0 1-.632 1.898l-2.875-.958-2.857 2.417 2.707.998a1 1 0 0 1-.692 1.876l-2.707-.997c-1.438-.53-1.77-2.414-.6-3.404L4.772 6.36Zm8.935 3.933a1 1 0 0 1 0 1.414l-9.5 9.5a1 1 0 0 1-1.414-1.414l9.5-9.5a1 1 0 0 1 1.414 0Zm2.002 3.424a1 1 0 0 1 1.264.633l.959 2.874a2 2 0 0 1-.37 1.925l-2.419 2.857c-.99 1.17-2.873.837-3.403-.6l-.997-2.708a1 1 0 0 1 1.876-.691l.998 2.707 2.417-2.857-.958-2.875a1 1 0 0 1 .633-1.265Z" clip-rule="evenodd" opacity=".5"/>
  <path fill-rule="evenodd" d="M20.664 4.408a1 1 0 0 0-1.151-1.15l-3.399.566a23.908 23.908 0 0 1 3.982 3.988l.568-3.404Zm-1.309 5.773a21.67 21.67 0 0 0-2.561-3.08 21.672 21.672 0 0 0-3.05-2.54l-6.567 7.02a3.653 3.653 0 0 0 5.162 5.163l7.016-6.563Zm-.17-8.897a3 3 0 0 1 3.452 3.453l-.818 4.906a3.443 3.443 0 0 1-1.044 1.949l-7.07 6.613a5.653 5.653 0 0 1-7.989-7.99l6.613-7.069a3.443 3.443 0 0 1 1.949-1.044l4.906-.818Z" clip-rule="evenodd"/>
</svg>
