<svg xmlns="http://www.w3.org/2000/svg" width="24" height="24" viewBox="0 0 24 24">
  <path fill-rule="evenodd" d="M20.96 3.039a11.88 11.88 0 0 0-9.112 5.541l-.006.01a21.005 21.005 0 0 0-1.667 3.17l2.067 2.068a21.354 21.354 0 0 0 3.212-1.666c4.225-2.838 5.3-6.55 5.505-9.123ZM15.34 14.55A23.34 23.34 0 0 1 13 15.678v3.027c.096-.031.195-.065.295-.101.863-.313 1.582-.724 1.873-1.16.144-.214.25-.546.292-1.001a6.62 6.62 0 0 0-.047-1.423 8.44 8.44 0 0 0-.072-.469ZM12 20l.179.984A1 1 0 0 1 11 20v-4.586L8.586 13H4a1 1 0 0 1-.984-1.179L4 12l-.984-.179v-.002l.001-.003.002-.01.006-.032.023-.112a12.61 12.61 0 0 1 .468-1.639c.325-.895.913-2.175 1.928-2.854l.001-.001c.595-.397 1.293-.56 1.927-.62a8.597 8.597 0 0 1 1.863.055 13.16 13.16 0 0 1 1.36.252A13.88 13.88 0 0 1 22.006 1 1 1 0 0 1 23 2c0 2.81-.788 7.708-5.852 11.417.085.357.182.828.249 1.348.073.567.114 1.22.054 1.863-.059.634-.222 1.332-.619 1.927v.001c-.68 1.015-1.96 1.603-2.855 1.928a12.612 12.612 0 0 1-1.751.49l-.032.007-.01.002h-.005L12 20ZM9.467 8.662A22.998 22.998 0 0 0 8.325 11h-3.03a9.74 9.74 0 0 1 .101-.295c.313-.863.724-1.582 1.16-1.873.214-.143.546-.25 1.001-.292a6.62 6.62 0 0 1 1.423.047c.169.022.332.047.487.075Zm-5.61 7.073a3.18 3.18 0 0 1 4.243.132l.013.011c1.188 1.174 1.173 3.057.152 4.266-.443.527-1.053.914-1.639 1.2a11.34 11.34 0 0 1-1.823.68 17.348 17.348 0 0 1-2.117.46l-.037.005-.011.001-.005.001L2.5 21.5l-.991-.133v-.005l.002-.01.005-.038.02-.134c.019-.113.046-.274.083-.47.074-.392.19-.93.357-1.512.166-.58.388-1.226.68-1.824.287-.587.673-1.197 1.2-1.64ZM2.5 21.5l-.991-.133a1 1 0 0 0 1.124 1.124L2.5 21.5Zm1.27-1.27c.155-.039.317-.082.482-.129a9.325 9.325 0 0 0 1.496-.554c.47-.23.799-.467.986-.69l.002-.002c.396-.469.363-1.16-.023-1.548a1.18 1.18 0 0 0-1.569-.042c-.224.188-.462.518-.69.987a9.317 9.317 0 0 0-.555 1.495c-.047.166-.09.328-.129.483Z" clip-rule="evenodd"/>
</svg>
