<svg xmlns="http://www.w3.org/2000/svg" width="24" height="24" viewBox="0 0 24 24">
  <path fill-rule="evenodd" d="M20.026 5.517A16.908 16.908 0 0 0 19 5.5a1 1 0 1 1 0-2h.032c.439 0 .817 0 1.13.021.33.023.66.072.986.207a3 3 0 0 1 1.624 1.624c.135.326.184.656.207.986.021.313.021.691.021 1.13v.37c0 .528 0 .982-.03 1.357-.033.395-.104.789-.297 1.167a3 3 0 0 1-1.311 1.311c-.378.193-.772.264-1.167.296-.375.031-.83.031-1.357.031H15.2c-.577 0-.949 0-1.232.024-.272.022-.373.06-.422.085a1 1 0 0 0-.437.437c-.025.05-.063.15-.085.422C13 13.25 13 13.623 13 14.2v.8a1 1 0 1 1-2 0v-.838c0-.528 0-.982.03-1.357.033-.395.104-.789.297-1.167a3 3 0 0 1 1.311-1.311c.378-.193.772-.264 1.167-.296.375-.031.83-.031 1.357-.031H18.8c.577 0 .949 0 1.232-.024.272-.022.372-.06.422-.085a1 1 0 0 0 .437-.437c.025-.05.063-.15.085-.422C21 8.75 21 8.377 21 7.8v-.3c0-.48 0-.79-.017-1.026-.015-.228-.042-.315-.06-.357a1 1 0 0 0-.54-.54c-.042-.018-.129-.045-.357-.06Z" clip-rule="evenodd" opacity=".5"/>
  <path fill-rule="evenodd" d="M5.416 1h11.168c.38 0 .708 0 1.001.058a3 3 0 0 1 2.357 2.357c.059.293.058.62.058 1.001v.168c0 .38 0 .708-.058 1.001a3 3 0 0 1-2.357 2.357c-.293.059-.62.058-1.001.058H5.416c-.38 0-.708 0-1.001-.058a3 3 0 0 1-2.357-2.357C1.999 5.292 2 4.965 2 4.584v-.168c0-.38 0-.708.058-1.001a3 3 0 0 1 2.357-2.357C4.708.999 5.035 1 5.416 1ZM5.5 3c-.513 0-.623.005-.695.02a1 1 0 0 0-.786.785C4.005 3.877 4 3.987 4 4.5c0 .513.005.623.02.695a1 1 0 0 0 .785.786c.072.014.182.019.695.019h11c.513 0 .623-.005.695-.02a1 1 0 0 0 .786-.785c.014-.072.019-.182.019-.695 0-.513-.005-.623-.02-.695a1 1 0 0 0-.785-.786C17.123 3.005 17.013 3 16.5 3h-11Zm6.068 11h.864c.252 0 .498 0 .706.017.229.019.499.063.77.201a2 2 0 0 1 .874.874c.138.271.182.541.201.77.017.208.017.454.017.706v3.864c0 .252 0 .498-.017.706a2.022 2.022 0 0 1-.201.77 2 2 0 0 1-.874.874 2.022 2.022 0 0 1-.77.201 9.148 9.148 0 0 1-.706.017h-.864c-.252 0-.498 0-.706-.017a2.022 2.022 0 0 1-.77-.201 2 2 0 0 1-.874-.874 2.022 2.022 0 0 1-.201-.77C9 20.93 9 20.684 9 20.432v-3.864c0-.252 0-.498.017-.706.019-.229.063-.498.201-.77a2 2 0 0 1 .874-.874 2.02 2.02 0 0 1 .77-.201c.208-.017.454-.017.706-.017Zm-.557 2.012v.013c-.01.116-.011.279-.011.575v3.8c0 .297 0 .459.01.575l.001.014h.014c.116.01.278.011.575.011h.8c.296 0 .459 0 .575-.01l.014-.001v-.014c.01-.116.011-.278.011-.575v-3.8a8.202 8.202 0 0 0-.011-.588l-.014-.002A8.207 8.207 0 0 0 12.4 16h-.8a8.207 8.207 0 0 0-.589.012Z" clip-rule="evenodd"/>
</svg>
