<svg xmlns="http://www.w3.org/2000/svg" width="24" height="24" viewBox="0 0 24 24">
  <g opacity=".2">
    <path d="M3 4.5c0-.465 0-.697.038-.89A2 2 0 0 1 4.61 2.038C4.803 2 5.035 2 5.5 2h11c.465 0 .697 0 .89.038a2 2 0 0 1 1.572 1.572c.038.193.038.425.038.89s0 .697-.038.89a2 2 0 0 1-1.572 1.572C17.197 7 16.965 7 16.5 7h-11c-.465 0-.697 0-.89-.038A2 2 0 0 1 3.038 5.39C3 5.197 3 4.965 3 4.5Zm7 12.1c0-.56 0-.84.109-1.054a1 1 0 0 1 .437-.437C10.76 15 11.04 15 11.6 15h.8c.56 0 .84 0 1.054.109a1 1 0 0 1 .437.437C14 15.76 14 16.04 14 16.6v3.8c0 .56 0 .84-.109 1.054a1 1 0 0 1-.437.437C13.24 22 12.96 22 12.4 22h-.8c-.56 0-.84 0-1.054-.109a1 1 0 0 1-.437-.437C10 21.24 10 20.96 10 20.4v-3.8Z"/>
    <path stroke="gray" stroke-linecap="round" stroke-linejoin="round" stroke-width="2" d="M3 4.5c0-.465 0-.697.038-.89A2 2 0 0 1 4.61 2.038C4.803 2 5.035 2 5.5 2h11c.465 0 .697 0 .89.038a2 2 0 0 1 1.572 1.572c.038.193.038.425.038.89s0 .697-.038.89a2 2 0 0 1-1.572 1.572C17.197 7 16.965 7 16.5 7h-11c-.465 0-.697 0-.89-.038A2 2 0 0 1 3.038 5.39C3 5.197 3 4.965 3 4.5Zm7 12.1c0-.56 0-.84.109-1.054a1 1 0 0 1 .437-.437C10.76 15 11.04 15 11.6 15h.8c.56 0 .84 0 1.054.109a1 1 0 0 1 .437.437C14 15.76 14 16.04 14 16.6v3.8c0 .56 0 .84-.109 1.054a1 1 0 0 1-.437.437C13.24 22 12.96 22 12.4 22h-.8c-.56 0-.84 0-1.054-.109a1 1 0 0 1-.437-.437C10 21.24 10 20.96 10 20.4v-3.8Z"/>
  </g>
  <path fill-rule="evenodd" d="M5.416 1h11.168c.38 0 .708 0 1.001.058A3 3 0 0 1 19.96 3.51c.07.002.139.006.203.01.33.023.66.072.986.207a3 3 0 0 1 1.624 1.624c.135.326.184.656.207.986.021.313.021.691.021 1.13v.37c0 .528 0 .982-.03 1.357-.033.395-.104.789-.297 1.167a3 3 0 0 1-1.311 1.311c-.378.193-.772.264-1.167.296-.375.031-.83.031-1.357.031H15.2c-.576 0-.949 0-1.232.024-.272.022-.373.06-.422.085a1 1 0 0 0-.437.437c-.025.05-.063.15-.085.422-.02.25-.023.57-.024 1.04.048.003.094.005.138.009.229.019.499.063.77.201a2 2 0 0 1 .874.874c.138.271.182.541.201.77.017.208.017.454.017.706v3.864c0 .252 0 .498-.017.706a2.022 2.022 0 0 1-.201.77 2 2 0 0 1-.874.874 2.022 2.022 0 0 1-.77.201c-.208.017-.454.017-.706.017h-.864c-.252 0-.498 0-.706-.017a2.023 2.023 0 0 1-.77-.201 2 2 0 0 1-.874-.874 2.022 2.022 0 0 1-.201-.77C9 20.93 9 20.684 9 20.432v-3.864c0-.252 0-.498.017-.706a2.03 2.03 0 0 1 .201-.77 2 2 0 0 1 .874-.874 2.03 2.03 0 0 1 .77-.201c.044-.004.09-.006.138-.009 0-.462.003-.865.03-1.203.033-.395.104-.789.297-1.167a3 3 0 0 1 1.311-1.311c.378-.193.772-.264 1.167-.296.375-.031.83-.031 1.357-.031H18.8c.577 0 .949 0 1.232-.024.272-.022.373-.06.422-.085a1 1 0 0 0 .437-.437c.025-.05.063-.15.085-.422C21 8.75 21 8.377 21 7.8v-.3c0-.48 0-.79-.017-1.026-.015-.228-.042-.315-.06-.357a1 1 0 0 0-.54-.54c-.042-.018-.129-.045-.357-.06a4.727 4.727 0 0 0-.07-.005 3 3 0 0 1-2.37 2.43c-.294.059-.621.058-1.002.058H5.416c-.38 0-.708 0-1.001-.058a3 3 0 0 1-2.357-2.357C1.999 5.292 2 4.965 2 4.584v-.168c0-.38 0-.708.058-1.001a3 3 0 0 1 2.357-2.357C4.708.999 5.035 1 5.416 1ZM11.6 16c-.296 0-.459 0-.575.01l-.014.001v.014c-.01.116-.011.279-.011.575v3.8a8.207 8.207 0 0 0 .011.588l.014.002c.116.01.278.01.575.01h.8a8.205 8.205 0 0 0 .589-.012v-.013c.01-.116.011-.279.011-.575v-3.8c0-.297 0-.459-.01-.575l-.001-.014h-.014A8.205 8.205 0 0 0 12.4 16h-.8ZM5.5 3c-.513 0-.623.005-.695.02a1 1 0 0 0-.786.785C4.005 3.877 4 3.987 4 4.5c0 .513.005.623.02.695a1 1 0 0 0 .785.786c.072.014.182.019.695.019h11c.513 0 .623-.005.695-.02a1 1 0 0 0 .786-.785c.014-.072.019-.182.019-.695 0-.513-.005-.623-.02-.695a1 1 0 0 0-.785-.786C17.123 3.005 17.013 3 16.5 3h-11Z" clip-rule="evenodd"/>
</svg>
