<svg xmlns="http://www.w3.org/2000/svg" width="24" height="24" viewBox="0 0 24 24">
  <path fill-rule="evenodd" d="M19.95 20.927C20.686 10.844 13.157 3.315 3.074 4.05a1 1 0 0 1-.145-1.994c11.3-.823 19.84 7.717 19.017 19.017a1 1 0 1 1-1.994-.145Zm-7.907-8.97C9.926 9.84 6.794 8.67 3.098 9.033a1 1 0 0 1-.196-1.99c4.242-.417 7.98.925 10.555 3.5 2.575 2.575 3.917 6.313 3.5 10.555a1 1 0 0 1-1.99-.196c.363-3.697-.807-6.829-2.924-8.945ZM8.518 15.48c-1.184-1.183-3.037-1.82-5.37-1.47a1 1 0 0 1-.296-1.977c2.853-.43 5.377.33 7.08 2.033 1.704 1.704 2.463 4.228 2.034 7.081a1 1 0 1 1-1.978-.297c.35-2.332-.286-4.186-1.47-5.37ZM5 18a1 1 0 1 0 0 2 1 1 0 0 0 0-2Zm-3 1a3 3 0 1 1 6 0 3 3 0 0 1-6 0Z" clip-rule="evenodd"/>
</svg>
