<svg xmlns="http://www.w3.org/2000/svg" width="24" height="24" viewBox="0 0 24 24">
  <path d="M16.984 22.804c-.15 0-.31-.02-.46-.07-.35-.11-.56-.33-.81-.58l-2.43-2.43a.996.996 0 0 1 0-1.41c.09-.09.19-.16.3-.21.05-.11.12-.21.2-.29l1.5-1.5a.996.996 0 1 1 1.41 1.41l-1.29 1.29 1.59 1.59 3.59-3.59-2.79-2.79a.996.996 0 1 1 1.41-1.41l2.93 2.93c.25.25.47.47.58.81.1.3.1.63 0 .93-.11.34-.33.56-.58.81l-3.87 3.87c-.25.25-.46.47-.81.58-.15.05-.31.07-.46.07l-.01-.01Zm-14.5-.29c-.26 0-.52-.1-.71-.29-.21-.21-.32-.52-.29-.82l.38-3.38c.05-.45.08-.72.17-1.01.08-.26.2-.5.35-.73.17-.25.35-.44.67-.75l13.23-13.23a3.833 3.833 0 0 1 5.41 0 3.833 3.833 0 0 1 0 5.41l-13.21 13.21c-.32.32-.51.51-.77.68-.23.15-.47.27-.73.35-.29.09-.56.12-1 .17l-3.4.38h-.11l.01.01Zm16.5-19.33c-.47 0-.94.18-1.29.53l-13.21 13.21c-.24.24-.37.37-.42.45-.05.08-.09.16-.12.24-.03.1-.05.29-.09.62l-.24 2.14 2.14-.24c.33-.04.52-.06.62-.09.08-.03.17-.07.24-.12.08-.05.2-.18.45-.42l13.22-13.2c.71-.71.71-1.87 0-2.59a1.8 1.8 0 0 0-1.29-.53h-.01Zm-14 7.83c-.26 0-.51-.1-.71-.29l-2.43-2.44c-.25-.25-.47-.46-.58-.81-.1-.3-.1-.63 0-.93.11-.34.32-.55.57-.8l3.88-3.88c.26-.26.47-.47.81-.58.3-.1.62-.1.92 0 .34.11.56.33.81.57l2.94 2.94a.996.996 0 1 1-1.41 1.41l-2.79-2.79-3.59 3.59 1.59 1.59 1.29-1.29a.996.996 0 1 1 1.41 1.41l-1.5 1.5c-.09.09-.19.16-.3.21a.982.982 0 0 1-.91.58v.01Z"/>
</svg>
