<svg xmlns="http://www.w3.org/2000/svg" width="24" height="24" viewBox="0 0 24 24">
  <path fill-rule="evenodd" d="M16.536 1.28a1.5 1.5 0 0 1 .927 0c.233.076.402.202.513.296.096.081.196.182.28.266l.017.017 3.885 3.885c.084.084.185.184.266.28.094.111.22.28.295.513a1.5 1.5 0 0 1 0 .927 1.506 1.506 0 0 1-.295.512c-.081.096-.182.196-.266.28L8.256 22.158a4.922 4.922 0 0 1-.28.266 1.52 1.52 0 0 1-.513.296 1.5 1.5 0 0 1-.927 0 1.508 1.508 0 0 1-.512-.296c-.096-.081-.196-.182-.28-.266l-3.902-3.902a4.952 4.952 0 0 1-.266-.28 1.508 1.508 0 0 1-.296-.512 1.5 1.5 0 0 1 0-.927 1.52 1.52 0 0 1 .296-.513c.081-.096.182-.196.266-.28l.017-.017L15.727 1.86l.016-.017c.085-.084.185-.185.281-.266.111-.094.28-.22.512-.295ZM17 3.415 15.414 5l1.293 1.293a1 1 0 0 1-1.414 1.414L14 6.414 12.414 8l1.293 1.293a1 1 0 0 1-1.414 1.414L11 9.414 9.414 11l1.293 1.293a1 1 0 0 1-1.414 1.414L8 12.414 6.414 14l1.293 1.293a1 1 0 1 1-1.414 1.414L5 15.414 3.414 17 7 20.586 20.586 7 17 3.414Z" clip-rule="evenodd"/>
</svg>
