<svg xmlns="http://www.w3.org/2000/svg" width="24" height="24" fill="currentColor" viewBox="0 0 24 24">
  <path d="M8.7 23c-.39 0-.79-.08-1.16-.23-.75-.31-1.33-.89-1.64-1.64l-.72-1.75c-.11-.25-.3-.45-.56-.56l-1.74-.72c-.75-.31-1.33-.89-1.64-1.64a3.01 3.01 0 0 1 0-2.32l.72-1.75c.1-.25.1-.54 0-.79l-.72-1.75c-.15-.37-.23-.76-.23-1.16 0-.4.08-.79.23-1.16.16-.37.38-.7.66-.99.28-.28.61-.5.98-.66l1.74-.72c.25-.11.45-.3.56-.56l.72-1.74c.31-.75.89-1.33 1.64-1.64a3.01 3.01 0 0 1 2.32 0l1.74.72c.25.11.53.1.79 0l1.75-.72a3.03 3.03 0 0 1 3.96 1.64l.7 1.7s.01.03.02.04c.1.25.31.46.56.56l1.74.72a3.03 3.03 0 0 1 1.64 3.96l-.72 1.75c-.1.25-.1.54 0 .79l.72 1.75c.15.37.23.76.23 1.16 0 .4-.08.79-.23 1.16-.15.37-.37.7-.66.98-.28.28-.61.5-.98.66l-1.74.72c-.25.1-.46.31-.56.56l-.72 1.75c-.31.75-.89 1.33-1.64 1.64-.75.31-1.57.31-2.32 0l-1.74-.72c-.25-.1-.53-.11-.79 0l-1.75.72c-.37.15-.77.23-1.16.23V23Zm0-20c-.13 0-.27.03-.4.08-.25.11-.45.3-.56.56l-.72 1.74c-.31.75-.89 1.33-1.64 1.64l-1.74.72c-.13.05-.24.13-.33.22a1.046 1.046 0 0 0-.31.73c0 .14.03.27.08.39l.72 1.75c.31.75.31 1.57 0 2.32l-.72 1.75c-.1.25-.1.54 0 .79.11.26.3.45.56.56l1.75.72c.75.31 1.33.89 1.64 1.64l.72 1.75c.1.25.3.45.56.56.26.11.54.11.79 0l1.75-.72a3.01 3.01 0 0 1 2.32 0l1.75.72c.25.11.54.11.79 0s.45-.3.56-.56l.72-1.75c.3-.74.9-1.33 1.64-1.64l1.74-.72c.13-.05.24-.13.33-.22a1.097 1.097 0 0 0 .3-.74c0-.14-.03-.27-.08-.39l-.72-1.75a3.01 3.01 0 0 1 0-2.32l.72-1.75c.11-.25.11-.54 0-.79-.1-.25-.31-.45-.56-.56l-1.75-.72c-.72-.3-1.3-.87-1.62-1.58 0-.02-.02-.04-.02-.06l-.72-1.75c-.1-.25-.31-.45-.56-.56-.25-.1-.54-.1-.79 0l-1.75.72c-.75.31-1.57.31-2.32 0l-1.75-.72c-.13-.05-.26-.08-.4-.08L8.7 3ZM8 17c-.26 0-.51-.1-.71-.29a.996.996 0 0 1 0-1.41l8-8.01A.996.996 0 1 1 16.7 8.7l-7.99 8.01c-.2.2-.45.29-.71.29Zm7-.5c-.83 0-1.5-.67-1.5-1.5s.67-1.5 1.5-1.5 1.5.67 1.5 1.5-.67 1.5-1.5 1.5Zm-6-6c-.83 0-1.5-.67-1.5-1.5S8.17 7.5 9 7.5s1.5.67 1.5 1.5-.67 1.5-1.5 1.5Z"/>
</svg>
