<svg xmlns="http://www.w3.org/2000/svg" width="24" height="24" fill="none" viewBox="0 0 24 24">
  <path fill="#000" fill-rule="evenodd" d="M8.866 2.154a4.832 4.832 0 0 1 6.268 0c.454.387 1.018.62 1.612.668a4.832 4.832 0 0 1 4.432 4.432 2.83 2.83 0 0 0 .668 1.612 4.832 4.832 0 0 1 0 6.268 2.832 2.832 0 0 0-.668 1.612 4.832 4.832 0 0 1-4.432 4.432 2.832 2.832 0 0 0-1.612.668 4.832 4.832 0 0 1-6.268 0 2.832 2.832 0 0 0-1.612-.668 4.832 4.832 0 0 1-4.432-4.432 2.832 2.832 0 0 0-.668-1.612 4.832 4.832 0 0 1 0-6.268c.387-.454.62-1.018.668-1.612a4.832 4.832 0 0 1 4.432-4.432 2.832 2.832 0 0 0 1.612-.668Zm7.841 6.553a1 1 0 0 0-1.414-1.414l-8 8a1 1 0 1 0 1.414 1.414l8-8ZM7.5 9a1.5 1.5 0 1 1 3 0 1.5 1.5 0 0 1-3 0Zm6 6a1.5 1.5 0 1 1 3 0 1.5 1.5 0 0 1-3 0Z" clip-rule="evenodd"/>
</svg>
