<svg xmlns="http://www.w3.org/2000/svg" width="24" height="24" viewBox="0 0 24 24">
  <path d="M15.3 23c-.39 0-.79-.08-1.16-.23l-1.74-.72c-.25-.1-.54-.1-.79 0l-1.75.72c-.74.31-1.58.3-2.32 0-.75-.31-1.33-.89-1.64-1.64l-.72-1.74c-.11-.26-.3-.45-.56-.56l-1.75-.72c-.75-.31-1.33-.89-1.64-1.64a3.01 3.01 0 0 1 0-2.32l.72-1.75c.1-.25.1-.54 0-.79l-.72-1.75C1.08 9.49 1 9.1 1 8.7c0-.4.08-.79.23-1.16.15-.37.37-.7.66-.98.29-.28.62-.51.99-.66l1.74-.72c.26-.11.45-.3.56-.56l.72-1.74c.31-.75.89-1.33 1.64-1.64a3.01 3.01 0 0 1 2.32 0l1.74.72c.25.11.54.11.79 0l1.75-.72a3.01 3.01 0 0 1 2.32 0c.75.31 1.33.89 1.64 1.64l.7 1.7s.01.03.02.04c.11.25.3.45.56.56l1.74.72c.75.31 1.33.89 1.64 1.64.31.75.31 1.57 0 2.32l-.72 1.75c-.1.25-.1.54 0 .79l.72 1.75c.15.37.23.76.23 1.16 0 .4-.08.79-.23 1.16-.15.36-.37.7-.66.98-.29.29-.62.51-.99.66l-1.74.72c-.26.11-.46.3-.56.56l-.72 1.74c-.31.75-.89 1.33-1.64 1.64-.37.16-.77.23-1.16.23h.01ZM12 19.97c.4 0 .79.08 1.16.23l1.75.72c.26.11.54.11.79 0 .26-.11.45-.3.56-.56l.72-1.75c.31-.75.9-1.33 1.65-1.64l1.74-.72a1.06 1.06 0 0 0 .56-.56 1.006 1.006 0 0 0 0-.79l-.72-1.75a3.01 3.01 0 0 1 0-2.32l.72-1.75c.11-.25.11-.54 0-.79s-.3-.45-.56-.56l-1.75-.72c-.73-.3-1.3-.87-1.62-1.58 0-.02-.02-.04-.02-.05l-.72-1.75c-.11-.25-.3-.45-.56-.56a.987.987 0 0 0-.79 0l-1.75.72c-.75.31-1.57.31-2.32 0l-1.75-.72a.987.987 0 0 0-.79 0c-.26.11-.45.3-.56.56l-.72 1.75c-.31.75-.89 1.33-1.64 1.64l-1.74.72c-.13.05-.24.13-.34.22-.09.1-.17.21-.22.33a1.006 1.006 0 0 0 0 .79l.72 1.75c.3.73.31 1.58 0 2.32l-.72 1.75c-.11.25-.11.54 0 .79.1.25.31.46.56.56l1.75.72c.75.31 1.33.89 1.64 1.64l.72 1.74c.11.25.3.45.56.56.25.1.54.1.79 0l1.75-.72c.37-.15.76-.23 1.16-.23l-.01.01Z" opacity=".5"/>
  <path fill-rule="evenodd" d="M15.293 7.293a1 1 0 1 1 1.414 1.414l-8 8a1 1 0 0 1-1.414-1.414l8-8ZM7.5 9a1.5 1.5 0 1 1 3 0 1.5 1.5 0 0 1-3 0Zm6 6a1.5 1.5 0 1 1 3 0 1.5 1.5 0 0 1-3 0Z" clip-rule="evenodd"/>
</svg>
