<svg xmlns="http://www.w3.org/2000/svg" width="24" height="24" fill="currentColor" viewBox="0 0 24 24">
  <path fill-rule="evenodd" d="M8.866 2.154a4.832 4.832 0 0 1 6.268 0l-.642.754.642-.754c.454.387 1.018.62 1.612.668a4.832 4.832 0 0 1 4.432 4.432 2.83 2.83 0 0 0 .668 1.612 4.832 4.832 0 0 1 0 6.268 2.832 2.832 0 0 0-.668 1.612 4.832 4.832 0 0 1-4.432 4.432 2.832 2.832 0 0 0-1.612.668 4.832 4.832 0 0 1-6.268 0 2.832 2.832 0 0 0-1.612-.668 4.832 4.832 0 0 1-4.432-4.432 2.832 2.832 0 0 0-.668-1.612l.754-.642-.754.642a4.832 4.832 0 0 1 0-6.268c.387-.454.62-1.018.668-1.612a4.832 4.832 0 0 1 4.432-4.432 2.832 2.832 0 0 0 1.612-.668Zm4.97 1.523a2.832 2.832 0 0 0-3.673 0 4.832 4.832 0 0 1-2.75 1.139 2.832 2.832 0 0 0-2.597 2.597 4.832 4.832 0 0 1-1.14 2.75 2.832 2.832 0 0 0 0 3.674l-.76.649.76-.65a4.832 4.832 0 0 1 1.14 2.75 2.832 2.832 0 0 0 2.597 2.599 4.823 4.823 0 0 1 2.75 1.139 2.832 2.832 0 0 0 3.674 0 4.832 4.832 0 0 1 2.75-1.14 2.832 2.832 0 0 0 2.598-2.597 4.832 4.832 0 0 1 1.139-2.75 2.832 2.832 0 0 0 0-3.674 4.832 4.832 0 0 1-1.14-2.75 2.832 2.832 0 0 0-2.597-2.597 4.832 4.832 0 0 1-2.75-1.14Zm1.457 3.616a1 1 0 1 1 1.414 1.414l-8 8a1 1 0 0 1-1.414-1.414l8-8ZM7.5 9a1.5 1.5 0 1 1 3 0 1.5 1.5 0 0 1-3 0Zm6 6a1.5 1.5 0 1 1 3 0 1.5 1.5 0 0 1-3 0Z" clip-rule="evenodd"/>
</svg>
