<svg xmlns="http://www.w3.org/2000/svg" width="24" height="24" viewBox="0 0 24 24">
  <path d="M12 23c-.45 0-.91-.15-1.28-.44l-1.2-.92c-.05-.04-.11-.05-.18-.05l-1.5.2c-.94.13-1.86-.4-2.22-1.29l-.6-1.45-1.51-.66a2.105 2.105 0 0 1-1.28-2.22l.21-1.56-.98-1.33c-.58-.75-.58-1.81 0-2.57l.96-1.25-.19-1.64c-.12-.94.4-1.86 1.28-2.22L4.96 5l.66-1.51c.36-.88 1.27-1.42 2.22-1.28l1.56.21 1.33-.98c.75-.58 1.81-.58 2.57 0l1.25.96 1.64-.19c.94-.13 1.86.4 2.22 1.29l.6 1.45 1.51.66c.88.36 1.41 1.28 1.28 2.22l-.21 1.56.98 1.33c.58.75.58 1.81 0 2.57l-.92 1.21c-.04.05-.06.11-.05.18l.2 1.51c.12.94-.4 1.86-1.28 2.22l-1.45.6-.66 1.51a2.09 2.09 0 0 1-2.22 1.28l-1.56-.21-1.33.98c-.38.29-.83.44-1.28.44L12 23Zm-2.63-3.41c.49 0 .97.16 1.36.46l1.2.92s.09.03.13 0l1.25-.96c.44-.34 1-.49 1.56-.42l1.56.21c.05 0 .09-.02.11-.07l.6-1.45c.21-.52.62-.92 1.14-1.14l1.45-.6s.07-.07.07-.11l-.2-1.51c-.08-.58.08-1.19.45-1.66l.92-1.2s.03-.09 0-.13l-.96-1.25a2.13 2.13 0 0 1-.42-1.56l.21-1.56s-.02-.09-.07-.11l-1.45-.6a2.09 2.09 0 0 1-1.14-1.14l-.6-1.45s-.06-.07-.11-.07l-1.56.21c-.55.08-1.11-.08-1.55-.41l-1.25-.96s-.09-.03-.13 0l-1.25.96c-.45.34-.99.49-1.55.42L7.57 4.2s-.09.02-.11.07l-.6 1.45c-.22.52-.62.92-1.14 1.14l-1.46.6s-.07.06-.07.11l.21 1.56c.07.56-.08 1.11-.42 1.56l-.96 1.25s-.03.09 0 .13l.96 1.25c.34.44.49 1.01.42 1.56l-.21 1.56s.02.09.07.11l1.45.6c.52.21.93.62 1.14 1.14l.6 1.45s.07.07.11.07l1.5-.2c.1-.01.2-.02.3-.02h.01Z" opacity=".5"/>
  <path fill-rule="evenodd" d="M15.293 7.293a1 1 0 1 1 1.414 1.414l-8 8a1 1 0 0 1-1.414-1.414l8-8ZM7.5 9a1.5 1.5 0 1 1 3 0 1.5 1.5 0 0 1-3 0Zm6 6a1.5 1.5 0 1 1 3 0 1.5 1.5 0 0 1-3 0Z" clip-rule="evenodd"/>
</svg>
