<svg xmlns="http://www.w3.org/2000/svg" width="24" height="24" viewBox="0 0 24 24">
  <path d="M9.202 20.6a1.24 1.24 0 0 1 .92.247l1.203.924c.398.305.951.305 1.348 0l1.248-.959c.234-.179.528-.258.82-.219l1.561.206a1.11 1.11 0 0 0 1.168-.675l.601-1.453c.112-.272.328-.488.6-.6l1.453-.601c.464-.191.74-.671.675-1.168l-.198-1.505a1.24 1.24 0 0 1 .247-.92l.923-1.204a1.105 1.105 0 0 0 0-1.347l-.959-1.25a1.105 1.105 0 0 1-.219-.818l.206-1.562a1.108 1.108 0 0 0-.675-1.168l-1.453-.601a1.103 1.103 0 0 1-.6-.6l-.6-1.453a1.107 1.107 0 0 0-1.169-.675l-1.562.206a1.1 1.1 0 0 1-.817-.217l-1.25-.959a1.105 1.105 0 0 0-1.347 0l-1.249.959a1.115 1.115 0 0 1-.818.219L7.696 3.2a1.108 1.108 0 0 0-1.167.675l-.6 1.453a1.117 1.117 0 0 1-.6.6l-1.453.6c-.464.192-.74.671-.675 1.168l.206 1.562a1.11 1.11 0 0 1-.219.818l-.959 1.249a1.105 1.105 0 0 0 0 1.347l.959 1.25a1.1 1.1 0 0 1 .219.818L3.2 16.303c-.065.497.211.976.675 1.168l1.453.601c.272.112.488.328.6.6l.6 1.453c.192.464.672.74 1.169.675l1.504-.2Z" opacity=".2"/>
  <path d="M12 23c-.45 0-.91-.14-1.28-.44l-1.2-.92a.238.238 0 0 0-.18-.05l-1.5.2c-.95.13-1.86-.4-2.22-1.29l-.6-1.45-1.51-.66a2.105 2.105 0 0 1-1.28-2.22l.21-1.56-.98-1.33c-.58-.75-.58-1.81 0-2.57l.96-1.25-.18-1.64c-.12-.94.4-1.86 1.28-2.22L4.97 5l.66-1.51C6 2.61 6.91 2.08 7.85 2.21l1.56.21 1.33-.98c.75-.58 1.81-.58 2.57 0l1.25.96 1.64-.19c.94-.13 1.86.4 2.22 1.28l.6 1.45 1.51.66c.88.36 1.41 1.28 1.28 2.22l-.21 1.56.98 1.33c.58.75.58 1.81 0 2.57l-.92 1.2c-.04.05-.06.12-.05.18l.2 1.51c.12.94-.4 1.86-1.28 2.22l-1.45.6-.66 1.51c-.37.88-1.28 1.41-2.22 1.28l-1.56-.21-1.33.98c-.38.29-.83.44-1.28.44L12 23Zm-2.64-3.41c.49 0 .98.16 1.37.46l1.2.92s.09.03.13 0l1.25-.96c.45-.34 1-.49 1.56-.42l1.56.21s.09-.02.11-.07l.6-1.45c.21-.52.62-.93 1.14-1.14l1.45-.6s.07-.07.07-.11l-.2-1.51c-.08-.59.08-1.18.44-1.66l.92-1.2s.03-.09 0-.13L20 10.68c-.34-.45-.49-1-.42-1.56l.21-1.56s-.02-.09-.07-.11l-1.45-.6a2.09 2.09 0 0 1-1.14-1.14l-.6-1.45s-.06-.07-.11-.07l-1.56.21c-.55.08-1.12-.08-1.56-.41l-1.25-.96s-.09-.03-.13 0l-1.25.96c-.45.34-1 .49-1.56.42L7.55 4.2s-.1.02-.11.07l-.6 1.45c-.22.52-.62.92-1.14 1.14l-1.46.6s-.07.06-.06.11l.21 1.56c.07.55-.08 1.12-.42 1.56l-.96 1.25s-.03.09 0 .13l.96 1.25c.34.45.49 1 .42 1.56l-.21 1.56s.02.09.07.11l1.45.6c.52.21.93.62 1.14 1.14l.6 1.45s.07.07.11.07l1.5-.2c.1-.01.19-.02.29-.02h.02ZM8 17c-.26 0-.51-.1-.71-.29a.996.996 0 0 1 0-1.41l8-8.01A.996.996 0 1 1 16.7 8.7l-7.99 8.01c-.2.2-.45.29-.71.29Zm7-.5c-.83 0-1.5-.67-1.5-1.5s.67-1.5 1.5-1.5 1.5.67 1.5 1.5-.67 1.5-1.5 1.5Zm-6-6c-.83 0-1.5-.67-1.5-1.5S8.17 7.5 9 7.5s1.5.67 1.5 1.5-.67 1.5-1.5 1.5Z"/>
</svg>
