<svg xmlns="http://www.w3.org/2000/svg" width="24" height="24" viewBox="0 0 24 24">
  <path d="M11.9 15H8.6c-.56 0-.84 0-1.054.109a1 1 0 0 0-.437.437C7 15.76 7 16.04 7 16.6V21h6.5v-4.4c0-.56 0-.84-.109-1.054a1 1 0 0 0-.437-.437C12.74 15 12.46 15 11.9 15Z" opacity=".2"/>
  <path fill-rule="evenodd" d="M15.405 4.028c-.088-.022-.194-.028-.73-.028H7a1 1 0 0 1 0-2h7.758c.407 0 .766 0 1.114.083a3 3 0 0 1 .867.36c.306.186.559.44.846.728l.06.06 3.125 3.125.059.058c.288.288.542.541.729.847a3 3 0 0 1 .36.867c.083.349.082.707.082 1.114V17a1 1 0 1 1-2 0V9.325c0-.536-.006-.642-.028-.73a.998.998 0 0 0-.12-.29c-.047-.077-.117-.156-.496-.535L16.23 4.644c-.38-.38-.459-.45-.536-.497a1 1 0 0 0-.289-.12Zm-1.324 3.474a6.18 6.18 0 0 0-.244-.002H8v.9a8.192 8.192 0 0 0 .011.589h.014C8.14 9 8.303 9 8.6 9h3.9a1 1 0 1 1 0 2H8.568c-.252 0-.498 0-.706-.017a2.02 2.02 0 0 1-.77-.201 2 2 0 0 1-.874-.874 2.021 2.021 0 0 1-.201-.77C6 8.93 6 8.684 6 8.432V7.5c-.465 0-.783.004-1.032.024-.272.022-.373.06-.422.085a1 1 0 0 0-.437.437c-.025.05-.063.15-.085.422C4 8.75 4 9.123 4 9.7v8.1c0 .576 0 .949.024 1.232.022.272.06.372.085.422a1 1 0 0 0 .437.437c.05.025.15.063.422.085.249.02.567.024 1.032.024v-3.432c0-.252 0-.498.017-.706a2.03 2.03 0 0 1 .201-.77 2 2 0 0 1 .874-.874 2.03 2.03 0 0 1 .77-.201A9.15 9.15 0 0 1 8.568 14h3.364c.252 0 .498 0 .706.017.229.019.499.063.77.201a2 2 0 0 1 .874.874c.138.271.182.541.201.77.017.208.017.454.017.706V20c.465 0 .783-.004 1.032-.024.272-.022.373-.06.422-.085a1 1 0 0 0 .437-.437c.025-.05.063-.15.085-.422.023-.283.024-.655.024-1.232v-7.637c0-.131 0-.197-.002-.244v-.004l-.003-.002a6.15 6.15 0 0 0-.17-.175l-2.063-2.062a6.18 6.18 0 0 0-.177-.173h-.004ZM14.34 22c.527 0 .981 0 1.356-.03.395-.033.789-.104 1.167-.297a3 3 0 0 0 1.311-1.311c.193-.378.264-.772.296-1.167.031-.375.031-.83.031-1.357v-7.726c0-.19.001-.43-.055-.665a2.02 2.02 0 0 0-.24-.578 2.794 2.794 0 0 0-.43-.509l-.037-.036-2.062-2.063-.036-.036a2.795 2.795 0 0 0-.51-.43 2 2 0 0 0-.577-.24 2.795 2.795 0 0 0-.665-.055H6.161c-.527 0-.981 0-1.356.03-.395.033-.789.104-1.167.297a3 3 0 0 0-1.311 1.311c-.193.378-.264.772-.296 1.167C2 8.68 2 9.135 2 9.66v8.178c0 .527 0 .981.03 1.356.033.395.104.789.297 1.167a3 3 0 0 0 1.311 1.311c.378.193.772.264 1.167.296.375.031.83.031 1.356.031h8.178Zm-1.84-2v-3.4c0-.297 0-.459-.01-.575l-.001-.014h-.014A8.207 8.207 0 0 0 11.9 16H8.6c-.297 0-.459 0-.575.01l-.014.001v.014C8 16.14 8 16.304 8 16.6V20h4.5Z" clip-rule="evenodd"/>
</svg>
