<svg xmlns="http://www.w3.org/2000/svg" width="24" height="24" viewBox="0 0 24 24">
  <path fill-rule="evenodd" d="M7 2a1 1 0 0 1 1 1v3.4a8.186 8.186 0 0 0 .011.589h.014C8.14 7 8.303 7 8.6 7H15a1 1 0 1 1 0 2H8.568c-.252 0-.498 0-.706-.017a2.021 2.021 0 0 1-.77-.201 2 2 0 0 1-.874-.874 2.022 2.022 0 0 1-.201-.77C6 6.93 6 6.684 6 6.432V3a1 1 0 0 1 1-1Z" clip-rule="evenodd" opacity=".5"/>
  <path fill-rule="evenodd" d="M15.405 4.028c-.088-.022-.194-.028-.73-.028H7.8c-.857 0-1.439 0-1.889.038-.438.035-.663.1-.819.18a2 2 0 0 0-.874.874c-.08.156-.145.38-.18.819C4 6.361 4 6.943 4 7.8v8.4c0 .857 0 1.439.038 1.889.035.438.1.663.18.819a2 2 0 0 0 .874.874c.156.08.38.145.819.18L6 19.97v-5.4c0-.253 0-.5.017-.707a2.03 2.03 0 0 1 .201-.77 2 2 0 0 1 .874-.874 2.03 2.03 0 0 1 .77-.201A9.15 9.15 0 0 1 8.568 12h6.864c.252 0 .498 0 .706.017.229.019.499.063.77.201a2 2 0 0 1 .874.874c.138.271.182.541.201.77.017.208.017.454.017.706v5.401l.089-.007c.438-.035.663-.1.819-.18a2 2 0 0 0 .874-.874c.08-.156.145-.38.18-.82.037-.45.038-1.031.038-1.888V9.325c0-.536-.006-.642-.028-.73a.998.998 0 0 0-.12-.29c-.047-.077-.117-.156-.496-.535L16.23 4.644c-.38-.38-.459-.45-.536-.497a1 1 0 0 0-.289-.12Zm1.66 17.97a16.91 16.91 0 0 0 1.187-.042c.562-.046 1.079-.145 1.564-.392a4 4 0 0 0 1.748-1.748c.247-.485.346-1.002.392-1.564.044-.541.044-1.206.044-2.01v-7c0-.407 0-.765-.083-1.114a3 3 0 0 0-.36-.867c-.186-.306-.44-.56-.728-.847l-.06-.058-3.125-3.126-.058-.059c-.288-.288-.541-.542-.847-.729a3 3 0 0 0-.867-.36C15.524 2 15.165 2 14.758 2H7.759c-.805 0-1.47 0-2.01.044-.563.046-1.08.145-1.565.392a4 4 0 0 0-1.748 1.748c-.247.485-.346 1.002-.392 1.564C2 6.29 2 6.954 2 7.758v8.483c0 .805 0 1.47.044 2.01.046.563.145 1.08.392 1.565a4 4 0 0 0 1.748 1.748c.485.247 1.002.346 1.564.392a16.719 16.719 0 0 0 1.303.043L7.76 22h8.482l.708-.001a1.095 1.095 0 0 0 .117-.001ZM16 20v-5.4c0-.296 0-.459-.01-.575l-.001-.014h-.014A8.207 8.207 0 0 0 15.4 14H8.6c-.297 0-.459 0-.575.01l-.014.001v.014C8 14.14 8 14.303 8 14.6V20h8Z" clip-rule="evenodd"/>
</svg>
