<svg xmlns="http://www.w3.org/2000/svg" width="24" height="24" viewBox="0 0 24 24">
  <path fill-rule="evenodd" d="M15.162 2h1.08c.804 0 1.469 0 2.01.044.562.046 1.079.145 1.564.392a4 4 0 0 1 1.748 1.748c.247.485.346 1.002.392 1.564C22 6.29 22 6.954 22 7.758v8.483c0 .805 0 1.47-.044 2.01-.046.563-.145 1.08-.392 1.565a4 4 0 0 1-1.748 1.748c-.485.247-1.002.346-1.564.392-.541.044-1.206.044-2.01.044H7.758c-.805 0-1.47 0-2.01-.044-.563-.046-1.08-.145-1.565-.392a4 4 0 0 1-1.748-1.748c-.247-.485-.346-1.002-.392-1.564C2 17.71 2 17.046 2 16.242V7.758c0-.805 0-1.47.044-2.01.046-.563.145-1.08.392-1.565a4 4 0 0 1 1.748-1.748c.485-.247 1.002-.346 1.564-.392C6.29 2 6.954 2 7.758 2h7.403Zm-3.984 2H7.8c-.857 0-1.439 0-1.889.038-.438.035-.663.1-.819.18a2 2 0 0 0-.874.874c-.08.156-.145.38-.18.819C4 6.361 4 6.943 4 7.8v8.4c0 .857 0 1.439.038 1.889.035.438.1.663.18.819a2 2 0 0 0 .874.874c.156.08.38.145.819.18C6.361 20 6.943 20 7.8 20h8.4c.857 0 1.439 0 1.889-.038.438-.035.663-.1.819-.18a2 2 0 0 0 .874-.874c.08-.156.145-.38.18-.819.037-.45.038-1.032.038-1.889v-3.378a3.552 3.552 0 0 1-.805.147c-.375.031-.83.031-1.357.031h-2.677c-.527 0-.981 0-1.356-.03-.371-.03-.74-.096-1.098-.263L9.414 16H12a1 1 0 1 1 0 2H7a1 1 0 0 1-1-1v-5a1 1 0 1 1 2 0v2.586l3.293-3.293c-.167-.357-.232-.727-.262-1.098C11 9.82 11 9.365 11 8.839V6.16c0-.527 0-.981.03-1.356.023-.27.063-.54.148-.805ZM20 8.8v-1c0-.857 0-1.439-.038-1.889-.035-.438-.1-.663-.18-.819a2 2 0 0 0-.874-.874c-.156-.08-.38-.145-.819-.18C17.639 4 17.057 4 16.2 4h-1c-.577 0-.949 0-1.232.024-.272.022-.373.06-.422.085a1 1 0 0 0-.437.437c-.025.05-.063.15-.085.422C13 5.25 13 5.623 13 6.2v2.6c0 .577 0 .949.024 1.232.022.272.06.373.085.422a1 1 0 0 0 .437.437c.05.025.15.063.422.085.283.023.655.024 1.232.024h2.6c.577 0 .949 0 1.232-.024.272-.022.372-.06.422-.085a1 1 0 0 0 .437-.437c.025-.05.063-.15.085-.422C20 9.75 20 9.377 20 8.8Z" clip-rule="evenodd"/>
</svg>
