<svg xmlns="http://www.w3.org/2000/svg" width="24" height="24" viewBox="0 0 24 24">
  <path fill-rule="evenodd" d="M12 3a1.5 1.5 0 1 0 0 3 1.5 1.5 0 0 0 0-3Zm-3.355.5a3.502 3.502 0 0 1 6.71 0H20a1 1 0 1 1 0 2h-4.645A3.508 3.508 0 0 1 13 7.855V20h7a1 1 0 1 1 0 2H4a1 1 0 1 1 0-2h7V7.855A3.508 3.508 0 0 1 8.645 5.5H4a1 1 0 0 1 0-2h4.645Z" clip-rule="evenodd" opacity=".5"/>
  <path fill-rule="evenodd" d="M5.5 7a1 1 0 0 1 .84.456l2.984 4.606.019.029c.163.25.31.477.43.834.052.154.09.346.112.484a3.041 3.041 0 0 1 .024.888c-.017.124-.043.222-.059.283l-.002.01C9.34 16.534 7.601 18 5.5 18s-3.84-1.465-4.348-3.41l-.002-.01a2.242 2.242 0 0 1-.059-.283 3.084 3.084 0 0 1-.022-.393 3.23 3.23 0 0 1 .046-.495c.023-.138.06-.33.112-.484l.273.092-.273-.092c.12-.357.267-.584.43-.835l.019-.028L4.66 7.456A1 1 0 0 1 5.5 7Zm-2.429 7 .003.03c.001.009.004.019.013.054C3.38 15.206 4.365 16 5.5 16c1.135 0 2.12-.794 2.413-1.916l.013-.053L7.93 14H3.07Zm3.83-2H4.099L5.5 9.839 6.9 12ZM18.5 7a1 1 0 0 1 .84.456l2.984 4.606.019.029c.163.25.31.477.43.834.052.154.09.346.111.484a3.041 3.041 0 0 1 .025.888c-.017.124-.043.222-.059.283l-.002.01C22.34 16.534 20.601 18 18.5 18s-3.84-1.465-4.348-3.41l-.002-.01c-.016-.061-.042-.159-.059-.283a3.086 3.086 0 0 1-.022-.393 3.238 3.238 0 0 1 .046-.495c.023-.138.06-.33.112-.484.12-.357.267-.583.43-.835l.018-.028 2.986-4.606A1 1 0 0 1 18.5 7Zm-1.4 5h2.8l-1.4-2.161L17.1 12Zm3.829 2a.433.433 0 0 1-.003.03 1.744 1.744 0 0 1-.013.054C20.62 15.206 19.635 16 18.5 16c-1.135 0-2.12-.794-2.413-1.916a1.744 1.744 0 0 1-.013-.053L16.07 14h4.858Z" clip-rule="evenodd"/>
</svg>
