<svg xmlns="http://www.w3.org/2000/svg" width="24" height="24" viewBox="0 0 24 24">
  <path d="M5.5 17c1.618 0 2.98-1.13 3.38-2.664.033-.125.05-.188.051-.438a2.882 2.882 0 0 0-.105-.653A1.81 1.81 0 0 0 8.724 13H2.276a1.81 1.81 0 0 0-.102.245 2.89 2.89 0 0 0-.105.653c.001.25.018.313.05.438C2.52 15.871 3.883 17 5.5 17Zm13.001 0c1.618 0 2.98-1.13 3.38-2.664.033-.125.05-.188.051-.438a2.88 2.88 0 0 0-.105-.653 1.796 1.796 0 0 0-.102-.245h-6.448a1.81 1.81 0 0 0-.102.245 2.89 2.89 0 0 0-.105.653c.002.25.018.313.05.438.401 1.535 1.763 2.664 3.381 2.664Z" opacity=".2"/>
  <path fill-rule="evenodd" d="M12 3a1.5 1.5 0 1 0 0 3 1.5 1.5 0 0 0 0-3Zm-3.355.5a3.502 3.502 0 0 1 6.71 0H20a1 1 0 1 1 0 2h-4.645A3.508 3.508 0 0 1 13 7.855V20h7a1 1 0 1 1 0 2H4a1 1 0 1 1 0-2h7V7.855A3.508 3.508 0 0 1 8.645 5.5H4a1 1 0 0 1 0-2h4.645ZM5.5 7a1 1 0 0 1 .84.456l2.984 4.606.019.029c.163.25.31.477.43.834.052.154.09.346.112.484.022.138.047.332.046.495a2.24 2.24 0 0 1-.08.676l-.003.01C9.34 16.534 7.601 18 5.5 18s-3.84-1.465-4.348-3.41l-.002-.01a2.24 2.24 0 0 1-.059-.283 3.086 3.086 0 0 1-.022-.393 3.233 3.233 0 0 1 .046-.495c.023-.138.06-.33.112-.484.12-.357.267-.584.43-.835l.019-.028L4.66 7.456A1 1 0 0 1 5.5 7Zm-2.429 7a.51.51 0 0 0 .003.03l.013.054C3.38 15.206 4.365 16 5.5 16c1.135 0 2.12-.794 2.413-1.916l.013-.053A.48.48 0 0 0 7.93 14H3.07Zm3.83-2H4.099L5.5 9.839 6.9 12ZM18.5 7a1 1 0 0 1 .84.456l2.984 4.606.019.029c.163.25.31.477.43.834.053.154.09.346.112.484a3.041 3.041 0 0 1 .024.888c-.017.124-.043.222-.059.283l-.002.01C22.34 16.534 20.601 18 18.5 18s-3.84-1.465-4.348-3.41a.615.615 0 0 1-.002-.01c-.016-.061-.042-.159-.059-.283a3.086 3.086 0 0 1-.022-.393 3.238 3.238 0 0 1 .046-.495c.023-.138.06-.33.112-.484.12-.357.267-.584.43-.835l.019-.028 2.985-4.606A1 1 0 0 1 18.5 7Zm-1.4 5h2.8l-1.4-2.161L17.1 12Zm3.829 2-.002.03a2.122 2.122 0 0 1-.014.054C20.62 15.206 19.635 16 18.5 16c-1.135 0-2.12-.794-2.413-1.916a22.107 22.107 0 0 1-.013-.053.446.446 0 0 1-.003-.031h4.858Z" clip-rule="evenodd"/>
</svg>
