<svg xmlns="http://www.w3.org/2000/svg" width="24" height="24" viewBox="0 0 24 24">
  <path fill-rule="evenodd" d="M5.862 1H6a1 1 0 1 1 0 2c-.994 0-1.295.009-1.518.068a2 2 0 0 0-1.414 1.414C3.008 4.705 3 5.006 3 6a1 1 0 1 1-2 0v-.138c0-.795 0-1.386.136-1.897a4 4 0 0 1 2.829-2.829C4.476 1 5.067 1 5.862 1Zm13.656 2.068C19.295 3.008 18.994 3 18 3a1 1 0 1 1 0-2h.138c.795 0 1.386 0 1.897.136a4 4 0 0 1 2.829 2.829C23 4.476 23 5.067 23 5.862V6a1 1 0 1 1-2 0c0-.994-.009-1.295-.068-1.518a2 2 0 0 0-1.414-1.414ZM9 2a1 1 0 0 1 1-1h4a1 1 0 1 1 0 2h-4a1 1 0 0 1-1-1ZM2 9a1 1 0 0 1 1 1v1.536c.06-.035.122-.068.184-.1.485-.247 1.002-.346 1.564-.392C5.29 11 5.954 11 6.758 11h.483c.805 0 1.47 0 2.01.044.563.046 1.08.145 1.565.392a4 4 0 0 1 1.748 1.748c.247.485.346 1.002.392 1.564.044.541.044 1.206.044 2.01v.483c0 .805 0 1.47-.044 2.01-.046.563-.145 1.08-.392 1.565a4.073 4.073 0 0 1-.1.184H14a1 1 0 1 1 0 2H6.759c-.805 0-1.47 0-2.01-.044-.563-.046-1.08-.145-1.565-.392a4 4 0 0 1-1.748-1.748c-.247-.485-.346-1.002-.392-1.564C1 18.71 1 18.046 1 17.242V10a1 1 0 0 1 1-1Zm4.8 12h.4c.857 0 1.439 0 1.889-.038.438-.035.663-.1.819-.18a2 2 0 0 0 .874-.874c.08-.156.145-.38.18-.82.037-.45.038-1.031.038-1.888v-.4c0-.857 0-1.439-.038-1.889-.035-.438-.1-.663-.18-.819a2 2 0 0 0-.874-.874c-.156-.08-.38-.145-.82-.18C8.639 13 8.058 13 7.2 13h-.4c-.857 0-1.439 0-1.889.037-.438.036-.663.101-.819.181a2 2 0 0 0-.874.874c-.08.156-.145.38-.18.819C3 15.361 3 15.943 3 16.8v.4c0 .857 0 1.439.038 1.889.035.438.1.663.18.819a2 2 0 0 0 .874.874c.156.08.38.145.819.18C5.361 21 5.943 21 6.8 21ZM22 9a1 1 0 0 1 1 1v4a1 1 0 1 1-2 0v-4a1 1 0 0 1 1-1Zm0 8a1 1 0 0 1 1 1v.137c0 .796 0 1.387-.136 1.898a4 4 0 0 1-2.829 2.829c-.511.137-1.102.136-1.898.136H18a1 1 0 1 1 0-2c.994 0 1.295-.009 1.518-.068a2 2 0 0 0 1.414-1.414c.06-.223.068-.524.068-1.518a1 1 0 0 1 1-1Z" clip-rule="evenodd"/>
</svg>
