<svg xmlns="http://www.w3.org/2000/svg" width="24" height="24" viewBox="0 0 24 24">
  <path fill-rule="evenodd" d="M12 2a1 1 0 0 1 1 1v3.82l4.836-.806a1 1 0 0 1 1.032.49l3.579 6.262.026.046c.131.23.247.432.331.653.074.194.127.396.16.6.036.234.036.467.036.731V15a1 1 0 1 1-2 0v-.15c0-.347-.003-.415-.012-.474a1.005 1.005 0 0 0-.053-.2c-.022-.056-.053-.117-.225-.418L18 9.016l-2.71 4.742c-.172.301-.203.362-.225.418a.998.998 0 0 0-.053.2c-.01.06-.012.127-.012.474V15a1 1 0 1 1-2 0v-.204c0-.264 0-.497.036-.73.033-.206.086-.407.16-.601.084-.221.2-.423.33-.653.01-.015.018-.03.027-.046l2.534-4.433L7.58 9.75l2.866 5.016.026.046c.131.23.247.432.331.653.074.194.127.396.16.6.036.234.036.467.036.731V17a1 1 0 1 1-2 0v-.15c0-.347-.003-.415-.012-.474a1 1 0 0 0-.053-.2c-.022-.056-.053-.117-.225-.418L6 11.016l-2.71 4.742c-.172.301-.203.361-.225.418a.999.999 0 0 0-.053.2c-.01.06-.012.127-.012.474V17a1 1 0 1 1-2 0v-.204c0-.264 0-.497.036-.73.033-.205.086-.407.16-.601.084-.221.2-.423.33-.653.01-.015.018-.03.027-.046l3.579-6.262a1 1 0 0 1 .704-.49L11 7.153V3a1 1 0 0 1 1-1Z" clip-rule="evenodd" opacity=".5"/>
  <path fill-rule="evenodd" d="M13 15c0 2.76 2.24 5 5 5l.01.01c2.76 0 5-2.24 5-5v-.2c0-.36 0-.66-.16-.98-.15-.29-.37-.51-.66-.66-.32-.16-.63-.16-.98-.16h-6.4c-.36 0-.66 0-.98.16-.29.14-.52.37-.66.65-.17.32-.17.62-.17.98v.2Zm5 3c-1.65 0-3-1.35-3-3h6c0 1.65-1.35 3-3 3ZM1 17c0 2.76 2.24 5 5 5l.01.01c2.76 0 5-2.24 5-5v-.2c0-.36 0-.66-.16-.98-.15-.29-.37-.51-.66-.66-.32-.16-.63-.16-.98-.16h-6.4c-.36 0-.66 0-.98.16-.29.14-.52.37-.66.65-.17.32-.17.62-.17.98v.2Zm5 3c-1.65 0-3-1.35-3-3h6c0 1.65-1.35 3-3 3Z" clip-rule="evenodd"/>
</svg>
