<svg xmlns="http://www.w3.org/2000/svg" width="24" height="24" fill="none" viewBox="0 0 24 24">
  <path fill="#000" fill-rule="evenodd" d="M13 3a1 1 0 1 0-2 0v4.153l-5.146.858a1 1 0 0 0-.722.493l-3.605 6.308c-.131.23-.247.432-.331.653a2.999 2.999 0 0 0-.16.6 4.662 4.662 0 0 0-.036.731v.213A5 5 0 0 0 11 17v-.252a4.36 4.36 0 0 0-.036-.682 2.995 2.995 0 0 0-.16-.601c-.084-.221-.2-.423-.331-.653L7.581 9.751l8.506-1.418-2.56 4.48c-.131.229-.247.431-.331.652a3.008 3.008 0 0 0-.16.6 4.662 4.662 0 0 0-.036.731v.213A5 5 0 0 0 23 15v-.261c0-.24-.002-.457-.036-.673a2.995 2.995 0 0 0-.16-.601c-.084-.221-.2-.423-.331-.653l-3.595-6.291a1 1 0 0 0-.875-.52L18 5.999a1 1 0 0 0-.183.017L13 6.82V3Zm7.277 10L18 9.016 15.723 13h4.554Zm-12 2L6 11.016 3.723 15h4.554Z" clip-rule="evenodd"/>
</svg>
