<svg xmlns="http://www.w3.org/2000/svg" width="24" height="24" fill="currentColor" viewBox="0 0 24 24">
  <path fill-rule="evenodd" d="M12 3a1.5 1.5 0 1 0 0 3 1.5 1.5 0 0 0 0-3Zm-3.355.5a3.502 3.502 0 0 1 6.71 0H20a1 1 0 1 1 0 2h-4.645a3.507 3.507 0 0 1-2.354 2.355V20h7a1 1 0 1 1 0 2H4a1 1 0 1 1 0-2h7V7.855A3.508 3.508 0 0 1 8.645 5.5H4a1 1 0 0 1 0-2h4.645ZM5.5 7a1 1 0 0 1 .84.456l2.985 4.606.018.029c.163.25.31.477.43.834.053.154.09.346.112.484.022.138.048.332.047.495a3.034 3.034 0 0 1-.023.393 2.242 2.242 0 0 1-.058.283l-.003.01C9.34 16.534 7.602 18 5.5 18c-2.1 0-3.84-1.465-4.348-3.41l-.002-.01a2.24 2.24 0 0 1-.058-.283 3.084 3.084 0 0 1-.023-.393 3.231 3.231 0 0 1 .047-.495c.022-.138.059-.33.111-.484.12-.357.268-.584.43-.835l.019-.028 2.985-4.606A1 1 0 0 1 5.501 7Zm-2.428 7a.51.51 0 0 0 .002.03l.014.054C3.38 15.206 4.366 16 5.5 16c1.135 0 2.12-.794 2.413-1.916l.014-.053.002-.031H3.072Zm3.83-2H4.1l1.4-2.161L6.901 12ZM18.5 7a1 1 0 0 1 .84.456l2.985 4.606.018.029c.163.25.31.477.43.834.053.154.09.346.112.484.022.138.048.332.047.495a2.325 2.325 0 0 1-.081.676l-.002.01C22.34 16.534 20.602 18 18.5 18c-2.1 0-3.84-1.465-4.348-3.41a.615.615 0 0 1-.002-.01c-.016-.061-.042-.159-.058-.283a3.086 3.086 0 0 1-.023-.393 3.225 3.225 0 0 1 .047-.495c.022-.138.059-.33.111-.484.12-.357.268-.584.43-.835l.019-.028 2.985-4.606a1 1 0 0 1 .84-.456Zm-1.4 5h2.8l-1.4-2.161L17.1 12Zm3.83 2a.433.433 0 0 1-.003.03 1.563 1.563 0 0 1-.014.054C20.62 15.206 19.635 16 18.5 16c-1.134 0-2.12-.794-2.412-1.916a22.107 22.107 0 0 1-.014-.053.446.446 0 0 1-.002-.031h4.857Z" clip-rule="evenodd"/>
</svg>
