<svg xmlns="http://www.w3.org/2000/svg" width="24" height="24" fill="currentColor" viewBox="0 0 24 24">
  <path fill-rule="evenodd" d="M12 2a1 1 0 0 1 1 1v3.82l4.836-.806a1 1 0 0 1 1.032.49l3.579 6.262.026.046c.131.23.247.432.331.653.074.194.128.396.16.6.036.234.036.467.036.731V15a5 5 0 0 1-10 0v-.204c0-.264 0-.497.036-.73.033-.206.086-.407.16-.601a4.662 4.662 0 0 1 .357-.699l2.534-4.433-3.904.65a.994.994 0 0 1-.035.006l-4.567.761 2.866 5.016.026.046c.131.23.247.432.331.653.074.194.127.396.16.6.036.234.036.467.036.731V17a5 5 0 0 1-10 0v-.204c0-.264 0-.497.036-.73.033-.205.086-.407.16-.601.084-.221.2-.423.33-.653.01-.015.018-.03.027-.046l3.579-6.262a1 1 0 0 1 .704-.49L11 7.153V3a1 1 0 0 1 1-1ZM3.723 15 6 11.016 8.277 15H3.723ZM9 17H3a3 3 0 1 0 6 0Zm9-7.984L15.723 13h4.554L18 9.016ZM21 15h-6a3 3 0 0 0 6 0Z" clip-rule="evenodd"/>
</svg>
