<svg xmlns="http://www.w3.org/2000/svg" width="24" height="24" viewBox="0 0 24 24">
  <path fill-rule="evenodd" d="M7.759 2h8.482c.805 0 1.47 0 2.01.044.563.046 1.08.145 1.565.392a4 4 0 0 1 1.748 1.748c.247.485.346 1.002.392 1.564C22 6.29 22 6.954 22 7.758v8.483c0 .805 0 1.47-.044 2.01-.046.563-.145 1.08-.392 1.565a4 4 0 0 1-1.748 1.748c-.485.247-1.002.346-1.564.392-.541.044-1.206.044-2.01.044H16a1 1 0 1 1 0-2h.2c.857 0 1.439 0 1.889-.038.438-.035.663-.1.819-.18a2 2 0 0 0 .874-.874c.08-.156.145-.38.18-.819.037-.45.038-1.032.038-1.889V7.8c0-.857 0-1.439-.038-1.889-.035-.438-.1-.663-.18-.819a2 2 0 0 0-.874-.874c-.156-.08-.38-.145-.819-.18C17.639 4 17.057 4 16.2 4H7.8c-.857 0-1.439 0-1.889.038-.438.035-.663.1-.819.18a2 2 0 0 0-.874.874c-.08.156-.145.38-.18.819C4 6.361 4 6.943 4 7.8V8a1 1 0 1 1-2 0v-.241c0-.805 0-1.47.044-2.01.046-.563.145-1.08.392-1.565a4 4 0 0 1 1.748-1.748c.485-.247 1.002-.346 1.564-.392C6.29 2 6.954 2 7.758 2Z" clip-rule="evenodd" opacity=".5"/>
  <path fill-rule="evenodd" d="M12 8a1 1 0 1 1 0-2h5a1 1 0 0 1 1 1v5a1 1 0 1 1-2 0V9.414l-3.293 3.293c.167.357.232.727.262 1.098.031.375.031.83.031 1.357v2.676c0 .528 0 .982-.03 1.357-.033.395-.104.789-.297 1.167a3 3 0 0 1-1.311 1.311c-.378.193-.772.264-1.167.296C9.82 22 9.365 22 8.839 22H6.16c-.527 0-.981 0-1.356-.03-.395-.033-.789-.104-1.167-.297a3 3 0 0 1-1.311-1.311c-.193-.378-.264-.772-.296-1.167A17.9 17.9 0 0 1 2 17.838v-2.677c0-.527 0-.981.03-1.356.033-.395.104-.789.297-1.167a3 3 0 0 1 1.311-1.311c.378-.193.772-.264 1.167-.296C5.18 11 5.635 11 6.161 11H8.84c.527 0 .981 0 1.356.03.371.03.74.096 1.098.263L14.586 8H12Zm-7.032 5.024c-.272.022-.373.06-.422.085a1 1 0 0 0-.437.437c-.025.05-.063.15-.085.422C4 14.25 4 14.623 4 15.2v2.6c0 .577 0 .949.024 1.232.022.272.06.372.085.422a1 1 0 0 0 .437.437c.05.025.15.063.422.085C5.25 20 5.623 20 6.2 20h2.6c.577 0 .949 0 1.232-.024.272-.022.373-.06.422-.085a1 1 0 0 0 .437-.437c.025-.05.063-.15.085-.422C11 18.75 11 18.377 11 17.8v-2.6c0-.577 0-.949-.024-1.232-.022-.272-.06-.373-.085-.422a1 1 0 0 0-.437-.437c-.05-.025-.15-.063-.422-.085C9.75 13 9.377 13 8.8 13H6.2c-.577 0-.949 0-1.232.024Z" clip-rule="evenodd"/>
</svg>
