<svg xmlns="http://www.w3.org/2000/svg" width="24" height="24" viewBox="0 0 24 24">
  <path fill-rule="evenodd" d="M7.793 7.793a1 1 0 0 1 1.414 0l11.5 11.5a1 1 0 0 1-1.414 1.414l-11.5-11.5a1 1 0 0 1 0-1.414Z" clip-rule="evenodd" opacity=".5"/>
  <path fill-rule="evenodd" d="M6 4a2 2 0 1 0 0 4 2 2 0 0 0 0-4ZM2 6a4 4 0 1 1 8 0 4 4 0 0 1-8 0Zm17.293-2.707a1 1 0 1 1 1.414 1.414L9.447 15.968a4 4 0 1 1-1.414-1.414l11.26-11.261ZM16.5 12a1 1 0 0 1 1-1h.01a1 1 0 1 1 0 2h-.01a1 1 0 0 1-1-1Zm4.5 0a1 1 0 0 1 1-1h.01a1 1 0 1 1 0 2H22a1 1 0 0 1-1-1ZM6 16a2 2 0 1 0 0 4 2 2 0 0 0 0-4Z" clip-rule="evenodd"/>
</svg>
