<svg xmlns="http://www.w3.org/2000/svg" width="24" height="24" viewBox="0 0 24 24">
  <path d="M9 6a3 3 0 1 0-6 0 3 3 0 0 0 6 0Zm0 12a3 3 0 1 0-6 0 3 3 0 0 0 6 0Z" opacity=".2"/>
  <path fill-rule="evenodd" d="M6 4a2 2 0 1 0 0 4 2 2 0 0 0 0-4ZM2 6a4 4 0 1 1 7.446 2.032L12 10.586l7.293-7.293a1 1 0 1 1 1.414 1.414L13.414 12l7.293 7.293a1 1 0 0 1-1.414 1.414L12 13.414l-2.554 2.554a4 4 0 1 1-1.414-1.414L10.586 12 8.032 9.446A4 4 0 0 1 2 6Zm4 10a2 2 0 1 0 0 4 2 2 0 0 0 0-4Z" clip-rule="evenodd"/>
</svg>
