<svg xmlns="http://www.w3.org/2000/svg" width="24" height="24" viewBox="0 0 24 24">
  <path d="M9 6a3 3 0 1 0-6 0 3 3 0 0 0 6 0Zm0 12a3 3 0 1 0-6 0 3 3 0 0 0 6 0Z" opacity=".2"/>
  <path fill-rule="evenodd" d="M6 4a2 2 0 0 0-1 3.732l.19.097A2 2 0 1 0 6 4Zm2.183 5.353a4 4 0 1 0-3.849.285L8.974 12l-4.64 2.363a3.984 3.984 0 0 0-.38.2 4 4 0 1 0 4.23.085l2.995-1.526 9.367 4.77a1 1 0 0 0 .908-1.783L13.383 12l8.07-4.109a1 1 0 0 0-.907-1.782l-9.367 4.769-2.996-1.525ZM5 16.268l.19-.097a2 2 0 1 1-.19.097ZM16.5 12a1 1 0 0 1 1-1h.01a1 1 0 1 1 0 2h-.01a1 1 0 0 1-1-1Zm4.5 0a1 1 0 0 1 1-1h.01a1 1 0 1 1 0 2H22a1 1 0 0 1-1-1Z" clip-rule="evenodd"/>
</svg>
