<svg xmlns="http://www.w3.org/2000/svg" width="24" height="24" viewBox="0 0 24 24">
  <path fill-rule="evenodd" d="M3.609 8.146a1 1 0 0 1 1.345-.437l16.5 8.4a1 1 0 0 1-.908 1.782l-16.5-8.4a1 1 0 0 1-.437-1.345Z" clip-rule="evenodd" opacity=".5"/>
  <path fill-rule="evenodd" d="M6 4a2 2 0 1 0 0 4 2 2 0 0 0 0-4ZM2 6a4 4 0 1 1 8 0 4 4 0 0 1-8 0Zm19.891.546a1 1 0 0 1-.437 1.345L8.183 14.647a4 4 0 1 1-3.849-.285L20.546 6.11a1 1 0 0 1 1.345.437ZM5 16.268a2 2 0 1 0 .19-.097l-.19.097Z" clip-rule="evenodd"/>
</svg>
