<svg xmlns="http://www.w3.org/2000/svg" width="24" height="24" viewBox="0 0 24 24">
  <path fill-rule="evenodd" d="M8.183 2.113C9.396 1.28 10.863 1 12 1c1.138 0 2.604.28 3.816 1.113C17.081 2.983 18 4.413 18 6.5c0 1.736-.59 2.915-1.09 3.916l-.016.031c-.35.701-.652 1.314-.799 2.053h.146c.805 0 1.47 0 2.01.044.563.046 1.08.145 1.565.392a4 4 0 0 1 1.748 1.748c.247.485.346 1.002.392 1.564.044.541.044 1.206.044 2.01v.242a1 1 0 0 1-1 1H3a1 1 0 0 1-1-1v-.241c0-.805 0-1.47.044-2.01.046-.563.145-1.08.392-1.565a4 4 0 0 1 1.748-1.748c.485-.247 1.002-.346 1.564-.392.541-.044 1.206-.044 2.01-.044h.147c-.147-.739-.449-1.352-.8-2.053l-.015-.031C6.59 9.415 6 8.236 6 6.5c0-2.088.92-3.517 2.183-4.387Zm1.134 1.649C8.58 4.267 8 5.088 8 6.5c0 1.245.398 2.06.894 3.053l.016.031c.5 1.001 1.09 2.18 1.09 3.916a1 1 0 0 1-1 1H7.8c-.857 0-1.439 0-1.889.038-.438.035-.663.1-.819.18a2 2 0 0 0-.874.874c-.08.156-.145.38-.18.819-.024.294-.033.643-.036 1.089h15.996a15.13 15.13 0 0 0-.036-1.089c-.035-.438-.1-.663-.18-.819a2 2 0 0 0-.874-.874c-.156-.08-.38-.145-.819-.18-.45-.037-1.032-.038-1.889-.038H15a1 1 0 0 1-1-1c0-1.736.59-2.915 1.09-3.916l.016-.031C15.602 8.56 16 7.745 16 6.5c0-1.412-.58-2.233-1.316-2.738C13.896 3.22 12.861 3 12 3c-.862 0-1.896.22-2.683.762ZM2 22a1 1 0 0 1 1-1h18a1 1 0 1 1 0 2H3a1 1 0 0 1-1-1Z" clip-rule="evenodd"/>
</svg>
