<svg xmlns="http://www.w3.org/2000/svg" width="24" height="24" viewBox="0 0 24 24">
  <path fill-rule="evenodd" d="M4 12a1 1 0 0 1 1-1h5.5a1 1 0 1 1 0 2H5a1 1 0 0 1-1-1Z" clip-rule="evenodd" opacity=".5"/>
  <path fill-rule="evenodd" d="M4.039 2.82c.01.006.022.01.033.016l16.75 7.537c.228.103.457.206.636.307.166.093.486.286.668.655a1.5 1.5 0 0 1 0 1.33c-.182.369-.502.562-.668.655a8.324 8.324 0 0 1-.636.307l-16.778 7.55c-.234.105-.467.21-.664.278-.18.063-.544.177-.946.065a1.5 1.5 0 0 1-.995-.9c-.151-.389-.074-.762-.03-.948.049-.202.13-.445.212-.689l2.325-6.946-2.321-6.993a47.033 47.033 0 0 0-.012-.034c-.08-.243-.16-.486-.208-.688-.044-.186-.12-.558.032-.946a1.5 1.5 0 0 1 .994-.898c.402-.112.765.002.945.065.196.068.43.173.663.278Zm-.372 2.027 2.198 6.623.006.019a1.5 1.5 0 0 1 .089.744c-.02.15-.067.29-.09.358l-.006.018-2.19 6.541L19.564 12 3.666 4.847Z" clip-rule="evenodd"/>
</svg>
