<svg xmlns="http://www.w3.org/2000/svg" width="24" height="24" viewBox="0 0 24 24">
  <path fill-rule="evenodd" d="M12 11a1 1 0 0 1 1 1v7a1 1 0 1 1-2 0v-7a1 1 0 0 1 1-1Z" clip-rule="evenodd" opacity=".5"/>
  <path fill-rule="evenodd" d="M12.035 4.437 4.85 20.332l6.62-2.197a.679.679 0 0 0 .018-.006 1.5 1.5 0 0 1 .744-.089c.15.02.29.067.358.09l.018.006 6.546 2.192-7.12-15.891Zm-.661-2.564a1.5 1.5 0 0 1 1.33.002c.368.183.561.503.654.67.1.178.203.407.305.635l.015.033 7.504 16.747c.104.234.209.467.277.663.062.18.175.544.063.946a1.5 1.5 0 0 1-.9.993c-.389.151-.762.074-.947.03a8.633 8.633 0 0 1-.688-.211l-6.95-2.327-7.024 2.331a8.784 8.784 0 0 1-.688.21c-.186.043-.56.12-.948-.033a1.5 1.5 0 0 1-.897-.996c-.111-.402.004-.765.066-.945.069-.197.174-.43.28-.663l7.57-16.75.014-.033c.103-.228.207-.457.307-.635.094-.166.288-.485.657-.667Z" clip-rule="evenodd"/>
</svg>
