<svg xmlns="http://www.w3.org/2000/svg" width="24" height="24" viewBox="0 0 24 24">
  <path fill-rule="evenodd" d="M12.035 4.437 4.852 20.332 11 18.29V12a1 1 0 1 1 2 0v6.267l6.155 2.06-7.12-15.89Zm-.66-2.564a1.5 1.5 0 0 1 1.33.002c.368.183.56.503.654.67.1.178.203.407.305.635l.015.033 7.503 16.747c.105.233.21.467.277.663.062.18.176.544.063.946a1.5 1.5 0 0 1-.9.992c-.389.152-.761.075-.947.03a8.691 8.691 0 0 1-.687-.21l-6.95-2.327-7.024 2.331c-.244.081-.486.162-.689.21-.186.043-.559.12-.947-.033a1.5 1.5 0 0 1-.897-.996c-.112-.402.003-.765.066-.945a7.86 7.86 0 0 1 .28-.663l7.569-16.75.015-.033c.103-.228.206-.457.307-.635.093-.166.287-.485.656-.667Z" clip-rule="evenodd"/>
</svg>
