<svg xmlns="http://www.w3.org/2000/svg" width="24" height="24" viewBox="0 0 24 24">
  <path d="M19.302 4.698c.777-.777 1.165-1.165 1.382-1.158a.5.5 0 0 1 .434.284c.094.196-.106.707-.505 1.73l-5.866 15.033c-.233.595-.349.893-.516.98a.5.5 0 0 1-.461-.001c-.167-.087-.283-.385-.514-.98L10.5 13.5l8.802-8.802Z" opacity=".2"/>
  <path fill-rule="evenodd" d="m19.334 6.08-7.665 7.666 2.333 6L19.334 6.08Zm-9.08 6.252 7.666-7.666L4.255 9.998l6 2.334ZM20.648 1.473c.183-.053.551-.149.947-.016.447.149.798.5.948.947.132.396.036.764-.017.947-.058.2-.151.438-.244.677l-6.618 16.957c-.104.267-.204.525-.303.724-.085.173-.275.54-.669.744a1.5 1.5 0 0 1-1.384-.001c-.394-.205-.583-.572-.668-.744a9.775 9.775 0 0 1-.303-.725l-2.61-6.712-6.676-2.596-.035-.013a10.104 10.104 0 0 1-.725-.303c-.172-.085-.539-.274-.744-.668a1.5 1.5 0 0 1 0-1.384c.204-.394.57-.584.743-.669.199-.098.457-.2.724-.303l.036-.014 16.92-6.603c.24-.093.477-.186.677-.244Z" clip-rule="evenodd"/>
</svg>
