<svg xmlns="http://www.w3.org/2000/svg" width="24" height="24" viewBox="0 0 24 24">
  <path fill-rule="evenodd" d="m19.334 6.08-7.666 7.666 2.333 6L19.334 6.08Zm-9.08 6.252 7.666-7.666L4.254 9.998l6 2.334ZM20.647 1.473c.183-.053.552-.149.948-.016.447.149.798.5.947.947.132.396.037.764-.017.947-.058.2-.15.438-.244.677l-6.617 16.957a9.433 9.433 0 0 1-.304.724c-.085.173-.274.54-.668.744a1.5 1.5 0 0 1-1.385-.001c-.393-.205-.582-.572-.667-.744-.099-.2-.2-.458-.303-.725l-2.61-6.711-6.676-2.597-.035-.013a9.915 9.915 0 0 1-.725-.303c-.173-.085-.54-.274-.744-.668a1.5 1.5 0 0 1-.001-1.384c.204-.394.57-.584.743-.669.2-.098.458-.2.725-.303l.035-.014 16.922-6.604c.239-.093.477-.186.676-.244Z" clip-rule="evenodd"/>
</svg>
