<svg xmlns="http://www.w3.org/2000/svg" width="24" height="24" viewBox="0 0 24 24">
  <path fill-rule="evenodd" d="m4.039 2.82.033.016 16.75 7.537c.229.103.458.206.636.307.166.093.486.286.669.655a1.5 1.5 0 0 1 0 1.33c-.183.369-.503.562-.669.656-.178.1-.407.203-.635.306l-16.778 7.55c-.234.105-.468.21-.664.278-.18.063-.544.177-.947.065a1.5 1.5 0 0 1-.994-.9c-.152-.389-.074-.762-.03-.948.048-.202.13-.445.211-.689l2.325-6.946-2.32-6.993c-.005-.011-.008-.023-.012-.034-.08-.243-.161-.486-.209-.688-.044-.185-.12-.558.032-.946a1.5 1.5 0 0 1 .995-.898c.401-.112.764.003.944.065.197.068.43.173.663.278Zm-.372 2.027L5.709 11h4.792a1 1 0 0 1 0 2H5.733l-2.059 6.15L19.564 12 3.667 4.847Z" clip-rule="evenodd"/>
</svg>
