<svg xmlns="http://www.w3.org/2000/svg" width="24" height="24" viewBox="0 0 24 24">
  <path fill-rule="evenodd" d="M21.707 2.293a1 1 0 0 1 0 1.414l-10.5 10.5a1 1 0 0 1-1.414-1.414l10.5-10.5a1 1 0 0 1 1.414 0Z" clip-rule="evenodd" opacity=".5"/>
  <path fill-rule="evenodd" d="M20.24 3.76 4.255 9.998l6.28 2.442.023.01c.087.033.267.101.427.215a1.5 1.5 0 0 1 .35.35c.114.16.182.34.215.427l.01.024 2.442 6.28L20.24 3.76Zm.408-2.286c.183-.053.551-.149.947-.016.447.149.798.5.948.947.132.396.036.764-.017.947-.058.2-.151.438-.244.677l-6.618 16.957a9.787 9.787 0 0 1-.303.724c-.085.173-.275.54-.669.744a1.5 1.5 0 0 1-1.384-.001c-.394-.205-.583-.572-.668-.744-.098-.2-.199-.458-.303-.725l-2.61-6.712-6.676-2.596-.035-.013a10.104 10.104 0 0 1-.725-.303c-.172-.085-.539-.274-.744-.668a1.5 1.5 0 0 1 0-1.384c.204-.394.57-.584.743-.669.199-.098.457-.2.724-.303l.036-.014 16.92-6.604c.24-.093.477-.186.677-.244Z" clip-rule="evenodd"/>
</svg>
