<svg xmlns="http://www.w3.org/2000/svg" width="24" height="24" viewBox="0 0 24 24">
  <path d="M2.574 4.73c-.182-.548-.272-.82-.206-.99a.5.5 0 0 1 .331-.298c.174-.049.437.07.963.306l16.717 7.522c.514.232.771.348.85.508a.5.5 0 0 1 0 .444c-.079.16-.336.276-.85.508L3.667 20.25c-.527.237-.79.355-.964.307a.5.5 0 0 1-.332-.3c-.066-.169.026-.443.21-.99l2.334-6.976a1.06 1.06 0 0 0 .054-.188.5.5 0 0 0 0-.129c-.006-.048-.022-.095-.053-.188L2.574 4.729Z" opacity=".2"/>
  <path fill-rule="evenodd" d="m4.038 2.82.034.016 16.75 7.537c.228.103.457.206.636.307.166.093.486.286.668.655a1.5 1.5 0 0 1 0 1.33c-.182.369-.502.562-.668.655-.179.101-.408.204-.636.307l-16.778 7.55c-.234.105-.467.21-.664.278-.18.063-.544.177-.946.065a1.5 1.5 0 0 1-.995-.9c-.151-.389-.074-.762-.03-.948.049-.202.13-.445.212-.689l2.325-6.946-2.321-6.993-.012-.034c-.08-.243-.16-.486-.208-.688-.044-.186-.12-.558.032-.946a1.5 1.5 0 0 1 .994-.898c.402-.112.765.002.945.065.196.068.43.173.663.278Zm-.371 2.027L5.709 11H10.5a1 1 0 1 1 0 2H5.733l-2.06 6.15L19.564 12 3.667 4.847Z" clip-rule="evenodd"/>
</svg>
