<svg xmlns="http://www.w3.org/2000/svg" width="24" height="24" viewBox="0 0 24 24">
  <path d="M4.733 21.425c-.548.182-.822.273-.99.206a.5.5 0 0 1-.3-.332c-.048-.174.071-.437.309-.963L11.307 3.62c.232-.514.348-.77.509-.85a.5.5 0 0 1 .443 0c.16.08.276.338.507.852l7.488 16.713c.236.526.354.79.305.964a.5.5 0 0 1-.3.33c-.169.066-.442-.025-.989-.208l-6.979-2.336a1.041 1.041 0 0 0-.188-.054.497.497 0 0 0-.129 0 1.057 1.057 0 0 0-.188.053l-7.053 2.34Z" opacity=".2"/>
  <path fill-rule="evenodd" d="M12.035 4.437 4.85 20.332l6.15-2.04V12a1 1 0 1 1 2 0v6.267l6.155 2.06-7.12-15.89Zm-.661-2.564a1.5 1.5 0 0 1 1.33.002c.368.183.561.503.654.67.1.178.203.407.305.635l.015.033 7.504 16.747c.104.234.209.467.277.663.062.18.175.544.063.946a1.5 1.5 0 0 1-.9.993c-.389.151-.762.074-.947.03a8.596 8.596 0 0 1-.688-.211l-6.95-2.327-7.024 2.331a8.784 8.784 0 0 1-.688.21c-.186.043-.56.12-.948-.033a1.5 1.5 0 0 1-.897-.996c-.111-.402.003-.765.066-.945.069-.197.174-.43.28-.663l7.57-16.75.014-.033c.103-.228.207-.457.307-.635.094-.166.288-.485.657-.667Z" clip-rule="evenodd"/>
</svg>
