<svg xmlns="http://www.w3.org/2000/svg" width="24" height="24" viewBox="0 0 24 24">
  <path d="M7.48 3h9.04c1.578 0 2.367 0 2.986.3a3 3 0 0 1 1.298 1.21c.341.598.396 1.385.504 2.96l.658 9.543A3.5 3.5 0 0 0 18.5 14h-13a3.5 3.5 0 0 0-3.466 3.013l.658-9.543c.108-1.575.163-2.362.504-2.96A3 3 0 0 1 4.494 3.3C5.113 3 5.902 3 7.48 3Z" opacity=".2"/>
  <path fill-rule="evenodd" d="M7.44 2h9.12c.755 0 1.38 0 1.892.04.533.043 1.023.133 1.49.36a4 4 0 0 1 1.73 1.614c.258.45.382.933.46 1.462.076.508.12 1.132.171 1.885l.659 9.55A4.5 4.5 0 0 1 18.5 22h-13a4.5 4.5 0 0 1-4.462-5.09l.659-9.55c.052-.753.095-1.377.17-1.885.08-.529.204-1.012.46-1.462A4 4 0 0 1 4.059 2.4c.467-.226.957-.316 1.49-.358C6.06 2 6.685 2 7.441 2ZM3 17.532l.028-.41A2.5 2.5 0 0 1 5.5 15h13a2.5 2.5 0 0 1 2.471 2.121l.029.41A2.5 2.5 0 0 1 18.5 20h-13A2.5 2.5 0 0 1 3 17.532Zm17.728-3.943A4.48 4.48 0 0 0 18.5 13h-13a4.48 4.48 0 0 0-2.228.59l.417-6.051c.056-.804.094-1.348.157-1.768.06-.408.134-.617.218-.764a2 2 0 0 1 .865-.807c.152-.074.366-.133.777-.166C6.13 4.001 6.676 4 7.48 4h9.04c.805 0 1.35 0 1.774.034.41.033.625.092.777.166a2 2 0 0 1 .865.807c.084.147.157.356.218.764.063.42.101.964.157 1.768l.417 6.05ZM5 17.5a1 1 0 0 1 1-1h.01a1 1 0 1 1 0 2H6a1 1 0 0 1-1-1Zm6 0a1 1 0 0 1 1-1h6a1 1 0 1 1 0 2h-6a1 1 0 0 1-1-1Z" clip-rule="evenodd"/>
</svg>
