<svg xmlns="http://www.w3.org/2000/svg" width="24" height="24" viewBox="0 0 24 24">
  <path fill-rule="evenodd" d="M7.199 1.5h9.602c.718 0 1.313 0 1.801.038.51.04.98.124 1.431.333a4 4 0 0 1 1.711 1.51c.264.422.406.878.508 1.379.098.48.172 1.07.261 1.783l.48 3.833a.999.999 0 0 1-.006.284 4.492 4.492 0 0 1-1.659 3.84 4.5 4.5 0 0 1-2.829 8H5.501a4.5 4.5 0 0 1-2.829-8 4.491 4.491 0 0 1-1.658-3.84 1 1 0 0 1-.005-.284l.479-3.833c.089-.712.163-1.303.26-1.783.103-.501.245-.957.509-1.379a4 4 0 0 1 1.71-1.51c.452-.21.922-.294 1.432-.333.487-.038 1.081-.038 1.8-.038ZM3.446 6.995A4.48 4.48 0 0 1 5.5 6.5h13c.74 0 1.438.179 2.054.495l-.02-.166c-.096-.76-.16-1.273-.241-1.67-.079-.383-.158-.58-.245-.718a2 2 0 0 0-.855-.756c-.15-.069-.354-.123-.745-.153-.402-.031-.92-.032-1.685-.032H7.237c-.765 0-1.283 0-1.685.032-.39.03-.596.084-.745.153a2 2 0 0 0-.855.756c-.087.138-.166.335-.245.719-.08.396-.145.91-.24 1.669l-.021.166ZM5.5 15.5a2.5 2.5 0 0 0 0 5h13a2.5 2.5 0 0 0 0-5h-13Zm13-2a2.5 2.5 0 0 0 0-5h-13a2.5 2.5 0 0 0 0 5h13ZM5 11a1 1 0 0 1 1-1h.01a1 1 0 1 1 0 2H6a1 1 0 0 1-1-1Zm6 0a1 1 0 0 1 1-1h6a1 1 0 1 1 0 2h-6a1 1 0 0 1-1-1Zm-6 7a1 1 0 0 1 1-1h.01a1 1 0 1 1 0 2H6a1 1 0 0 1-1-1Zm6 0a1 1 0 0 1 1-1h6a1 1 0 1 1 0 2h-6a1 1 0 0 1-1-1Z" clip-rule="evenodd"/>
</svg>
