<svg xmlns="http://www.w3.org/2000/svg" width="24" height="24" viewBox="0 0 24 24">
  <path fill-rule="evenodd" d="M7.44 2h9.12c.755 0 1.38 0 1.892.04.533.043 1.023.133 1.49.36a4 4 0 0 1 1.73 1.614c.258.45.382.933.46 1.462.076.508.12 1.132.171 1.885l.695 10.07a1 1 0 1 1-1.996.138l-.691-10.03c-.056-.804-.094-1.348-.157-1.768-.06-.408-.134-.617-.218-.764a2 2 0 0 0-.865-.807c-.152-.074-.366-.133-.777-.166C17.87 4.001 17.324 4 16.52 4H7.48c-.805 0-1.35 0-1.774.034-.41.033-.625.092-.777.166a2 2 0 0 0-.865.807c-.084.147-.158.356-.218.764-.063.42-.101.964-.157 1.768l-.691 10.03a1 1 0 1 1-1.996-.138l.695-10.07c.052-.753.095-1.377.17-1.885.08-.529.204-1.012.46-1.462A4 4 0 0 1 4.059 2.4c.467-.226.957-.316 1.49-.358C6.06 2 6.685 2 7.441 2Z" clip-rule="evenodd" opacity=".5"/>
  <path fill-rule="evenodd" d="M1 17.5A4.5 4.5 0 0 1 5.5 13h13a4.5 4.5 0 1 1 0 9h-13A4.5 4.5 0 0 1 1 17.5ZM5.5 15a2.5 2.5 0 0 0 0 5h13a2.5 2.5 0 0 0 0-5h-13ZM5 17.5a1 1 0 0 1 1-1h.01a1 1 0 1 1 0 2H6a1 1 0 0 1-1-1Zm6 0a1 1 0 0 1 1-1h6a1 1 0 1 1 0 2h-6a1 1 0 0 1-1-1Z" clip-rule="evenodd"/>
</svg>
