<svg xmlns="http://www.w3.org/2000/svg" width="24" height="24" viewBox="0 0 24 24">
  <path fill-rule="evenodd" d="M4 3a1 1 0 1 0 0 2 1 1 0 0 0 0-2ZM1 4a3 3 0 1 1 5.95.55A8.958 8.958 0 0 1 12 3a8.95 8.95 0 0 1 5.05 1.55 3 3 0 1 1 2.4 2.4A8.958 8.958 0 0 1 21 12a8.95 8.95 0 0 1-1.55 5.05 3 3 0 1 1-2.4 2.4A8.958 8.958 0 0 1 12 21a8.958 8.958 0 0 1-5.05-1.55 3 3 0 1 1-2.4-2.4A8.958 8.958 0 0 1 3 12a8.95 8.95 0 0 1 1.55-5.05A3 3 0 0 1 1 4Zm19-1a1 1 0 1 0 0 2 1 1 0 0 0 0-2ZM5.07 11h2.787c.19-1.997.831-3.918 1.866-5.621A7.009 7.009 0 0 0 5.071 11ZM12 5.572A11.24 11.24 0 0 0 9.868 11h4.265A11.24 11.24 0 0 0 12 5.572ZM14.133 13A11.24 11.24 0 0 1 12 18.428 11.24 11.24 0 0 1 9.868 13h4.265Zm-6.276 0H5.071a7.008 7.008 0 0 0 4.652 5.621A13.241 13.241 0 0 1 7.857 13Zm6.42 5.621A13.241 13.241 0 0 0 16.144 13h2.785a7.009 7.009 0 0 1-4.652 5.621ZM18.93 11h-2.785a13.241 13.241 0 0 0-1.867-5.621A7.009 7.009 0 0 1 18.93 11ZM4 19a1 1 0 1 0 0 2 1 1 0 0 0 0-2Zm16 0a1 1 0 1 0 0 2 1 1 0 0 0 0-2Z" clip-rule="evenodd"/>
</svg>
