<svg xmlns="http://www.w3.org/2000/svg" width="24" height="24" viewBox="0 0 24 24">
  <path d="M2 8a4 4 0 0 1 4-4h12a4 4 0 0 1 0 8H6a4 4 0 0 1-4-4Zm0 8a4 4 0 0 1 4-4h12a4 4 0 0 1 0 8H6a4 4 0 0 1-4-4Z" opacity=".2"/>
  <path fill-rule="evenodd" d="M1 8a5 5 0 0 1 5-5h12a5 5 0 0 1 3 9 5 5 0 0 1-3 9H6a5 5 0 0 1-3-9 4.992 4.992 0 0 1-2-4Zm5 5a3 3 0 1 0 0 6h12a3 3 0 1 0 0-6H6Zm12-2a3 3 0 1 0 0-6H6a3 3 0 0 0 0 6h12ZM5 8a1 1 0 0 1 1-1h.01a1 1 0 0 1 0 2H6a1 1 0 0 1-1-1Zm0 8a1 1 0 0 1 1-1h.01a1 1 0 1 1 0 2H6a1 1 0 0 1-1-1Z" clip-rule="evenodd"/>
</svg>
