<svg xmlns="http://www.w3.org/2000/svg" width="24" height="24" viewBox="0 0 24 24">
  <path fill-rule="evenodd" d="M2 20a1 1 0 0 1 1-1h7a1 1 0 1 1 0 2H3a1 1 0 0 1-1-1Zm11 0a1 1 0 0 1 1-1h7a1 1 0 1 1 0 2h-7a1 1 0 0 1-1-1Z" clip-rule="evenodd" opacity=".5"/>
  <path fill-rule="evenodd" d="M6.083 8h2.18A11.712 11.712 0 0 1 9.72 3.448 6.009 6.009 0 0 0 6.083 8ZM12 3.588A9.708 9.708 0 0 0 10.276 8h3.45A9.712 9.712 0 0 0 12 3.588ZM13.726 10A9.712 9.712 0 0 1 12 14.412 9.708 9.708 0 0 1 10.276 10h3.45Zm-5.463 0h-2.18a6.009 6.009 0 0 0 3.638 4.552A11.711 11.711 0 0 1 8.263 10ZM13 16.938A8.001 8.001 0 0 0 12 1a8 8 0 0 0-1 15.938v.233a3.001 3.001 0 1 0 2 0v-.233Zm1.28-2.386A11.712 11.712 0 0 0 15.74 10h2.177a6.008 6.008 0 0 1-3.637 4.552ZM17.917 8h-2.178a11.71 11.71 0 0 0-1.46-4.552A6.008 6.008 0 0 1 17.918 8ZM12 19a1 1 0 1 0 0 2 1 1 0 0 0 0-2Z" clip-rule="evenodd"/>
</svg>
