<svg xmlns="http://www.w3.org/2000/svg" width="24" height="24" viewBox="0 0 24 24">
  <path d="M12 15.97c-2.21 0-4-1.79-4-4s1.79-4 4-4 4 1.79 4 4-1.79 4-4 4Zm0-6c-1.1 0-2 .9-2 2s.9 2 2 2 2-.9 2-2-.9-2-2-2Z"/>
  <path d="M12.07 22.97c-.75 0-1.46-.29-1.99-.82-.53-.54-.83-1.24-.83-1.99 0-.16-.03-.25-.09-.34a.578.578 0 0 0-.23-.18c-.15-.07-.25-.08-.35-.06-.1.02-.19.06-.26.13-.31.31-.62.51-.96.66-.7.29-1.47.29-2.16 0-.35-.14-.65-.35-.92-.61a2.74 2.74 0 0 1-.61-.92c-.14-.34-.21-.71-.21-1.08 0-.37.07-.74.22-1.08.14-.34.35-.65.61-.91.12-.12.16-.21.18-.31.02-.1 0-.2-.03-.29a.503.503 0 0 0-.46-.31h-.15c-.74 0-1.47-.3-1.99-.83a2.85 2.85 0 0 1-.83-1.99c0-.74.29-1.46.83-1.99.52-.53 1.25-.83 1.99-.83.16 0 .26-.03.34-.09.08-.06.14-.14.18-.23.06-.15.08-.25.06-.35a.495.495 0 0 0-.13-.26c-.31-.31-.52-.62-.66-.96-.14-.34-.21-.71-.21-1.08 0-.37.07-.74.21-1.08.14-.34.35-.65.61-.91s.57-.47.91-.61a2.79 2.79 0 0 1 2.16 0c.34.14.65.35.91.61.12.12.21.16.31.18.1.02.2 0 .29-.03.06-.03.12-.05.18-.06a.49.49 0 0 0 .12-.13.53.53 0 0 0 .08-.27V3.8c0-.75.29-1.46.83-1.99C11.08.75 12.94.75 14 1.81c.53.53.83 1.24.83 1.99 0 .18.03.27.08.35.05.08.13.15.22.18.1.04.2.06.3.04.1-.02.19-.06.26-.13.31-.31.62-.52.96-.66a2.79 2.79 0 0 1 2.16 0c.34.14.65.35.91.61s.47.57.61.91c.14.35.22.71.22 1.08 0 .37-.07.73-.21 1.08-.14.35-.35.65-.61.92-.12.12-.16.21-.18.31-.02.1 0 .2.04.29.03.06.04.12.06.18.04.05.08.09.13.12.08.05.18.08.27.08h.15c.75 0 1.46.29 1.99.83s.83 1.24.83 1.99-.29 1.46-.83 1.99-1.25.83-1.99.83c-.18 0-.27.03-.35.08-.08.05-.15.13-.18.22a.51.51 0 0 0 .11.56c.31.31.51.61.66.96.14.34.22.71.22 1.08 0 .37-.07.74-.22 1.08-.14.34-.35.65-.61.91s-.57.47-.91.61c-.69.29-1.47.29-2.16 0-.35-.14-.65-.35-.92-.61-.12-.11-.21-.16-.31-.18-.1-.02-.2 0-.29.04-.1.04-.18.11-.23.19a.53.53 0 0 0-.08.27v.15c0 .75-.29 1.46-.83 1.99-.53.53-1.24.83-1.99.83l-.04-.01Zm-3.41-5.4c.35 0 .69.07 1.01.21.41.15.82.46 1.11.87.29.41.45.89.47 1.39v.11c0 .22.09.42.24.58.31.31.85.31 1.16 0 .15-.15.24-.36.24-.58V20a2.516 2.516 0 0 1 1.52-2.3 2.507 2.507 0 0 1 2.75.5c.14.14.23.2.33.24.2.08.43.08.62 0a.8.8 0 0 0 .27-.18.8.8 0 0 0 .24-.58.815.815 0 0 0-.24-.58c-.41-.42-.65-.87-.73-1.36-.09-.49-.03-.99.17-1.45.19-.45.51-.83.92-1.1.41-.27.88-.41 1.37-.41.3 0 .51-.09.66-.24.15-.15.24-.36.24-.58 0-.22-.09-.43-.24-.58a.825.825 0 0 0-.58-.24h-.15c-.49 0-.96-.14-1.37-.41-.41-.27-.73-.65-.92-1.1a.771.771 0 0 1-.07-.26c-.14-.4-.17-.84-.1-1.26.09-.5.32-.95.67-1.3.14-.14.2-.23.24-.33a.853.853 0 0 0 0-.63c-.04-.1-.1-.19-.18-.26a.98.98 0 0 0-.27-.18.857.857 0 0 0-.63 0 .8.8 0 0 0-.27.18c-.42.41-.87.65-1.37.73-.49.09-1 .03-1.45-.17-.44-.19-.82-.5-1.09-.91-.27-.41-.41-.88-.42-1.37 0-.3-.08-.51-.24-.66a.84.84 0 0 0-1.16 0c-.15.15-.24.36-.24.58v.15c0 .49-.15.97-.42 1.37-.27.41-.65.73-1.1.92-.08.03-.17.06-.25.07-.41.14-.84.18-1.26.1-.49-.09-.94-.32-1.3-.67-.14-.14-.23-.2-.33-.24a.857.857 0 0 0-.63 0 .8.8 0 0 0-.27.18.8.8 0 0 0-.24.58.8.8 0 0 0 .24.58c.41.42.65.87.73 1.37.09.49.03 1-.17 1.45-.15.42-.46.82-.87 1.11-.41.29-.89.45-1.4.47h-.1c-.21 0-.43.09-.58.24-.15.15-.24.36-.24.58 0 .22.09.43.24.58.15.15.36.24.58.24h.15c.49 0 .96.14 1.37.41.41.27.73.65.92 1.1a2.507 2.507 0 0 1-.5 2.75c-.14.14-.2.23-.24.33-.04.1-.06.21-.06.31s.02.21.06.31c.04.1.1.19.18.27a.8.8 0 0 0 .27.18c.2.08.42.08.63 0 .1-.04.19-.1.26-.18.42-.41.87-.65 1.36-.74.15-.03.3-.04.45-.04h.01Z"/>
</svg>
