<svg xmlns="http://www.w3.org/2000/svg" width="24" height="24" viewBox="0 0 24 24">
  <path d="M11.96 23a3.201 3.201 0 0 1-2.93-1.91l-.58-1.31c-.12-.28-.33-.5-.59-.66-.26-.15-.56-.21-.87-.18l-1.43.15a3.21 3.21 0 0 1-1.8-.33c-.55-.28-1.01-.72-1.32-1.26-.32-.54-.47-1.15-.44-1.77.03-.62.24-1.22.61-1.72l.85-1.16c.18-.25.27-.54.27-.84 0-.31-.09-.6-.27-.84L2.61 10c-.36-.51-.57-1.1-.61-1.72-.03-.62.11-1.24.43-1.78.31-.54.77-.97 1.32-1.26.56-.28 1.17-.4 1.8-.33l1.43.15c.3.03.6-.03.86-.18s.46-.38.59-.65l.59-1.32c.25-.57.66-1.05 1.19-1.39a3.21 3.21 0 0 1 3.5 0c.52.34.93.82 1.19 1.39l.59 1.31c.12.28.33.51.59.66.26.15.56.21.86.18l1.43-.15c.61-.06 1.24.05 1.79.33a3.229 3.229 0 0 1 1.76 3.03c-.03.62-.24 1.22-.61 1.72l-.85 1.16c-.18.25-.27.54-.27.84 0 .31.09.6.27.85L21.3 14c.37.5.58 1.1.61 1.72a3.232 3.232 0 0 1-1.76 3.04c-.55.28-1.17.4-1.79.33l-1.43-.15c-.3-.03-.6.03-.86.18s-.46.38-.59.65l-.58 1.31c-.25.57-.66 1.05-1.19 1.39-.52.34-1.13.52-1.75.52V23Zm-1.69-4.04.58 1.31c.1.21.25.4.45.53a1.214 1.214 0 0 0 1.77-.53l.58-1.31c.3-.66.78-1.21 1.41-1.57.63-.37 1.35-.52 2.08-.44l1.43.15c.24.02.47-.02.68-.12.21-.11.38-.27.5-.47.12-.2.17-.44.16-.67-.01-.24-.09-.46-.23-.65l-.85-1.16c-.43-.6-.66-1.3-.65-2.03 0-.72.23-1.42.66-2.01l.85-1.16a1.21 1.21 0 0 0 .07-1.32c-.12-.21-.29-.37-.5-.48-.21-.11-.44-.15-.68-.12l-1.43.15c-.72.08-1.44-.08-2.08-.44-.63-.37-1.12-.91-1.41-1.58l-.59-1.31A1.223 1.223 0 0 0 11.96 3c-.24 0-.46.07-.66.2s-.35.31-.45.52l-.58 1.31c-.29.66-.78 1.21-1.41 1.57-.63.37-1.35.52-2.08.44l-1.44-.15c-.23-.03-.47.02-.68.13-.21.11-.38.27-.5.47a1.21 1.21 0 0 0 .07 1.32l.85 1.17c.43.59.66 1.29.66 2.02s-.23 1.43-.66 2.02l-.85 1.16c-.14.19-.22.41-.23.65a1.192 1.192 0 0 0 .66 1.14c.21.11.44.15.68.12l1.43-.15c.73-.08 1.44.08 2.07.44.63.37 1.12.91 1.42 1.58h.01Z"/>
  <path d="M11.96 16c-2.21 0-4-1.79-4-4s1.79-4 4-4 4 1.79 4 4-1.79 4-4 4Zm0-6c-1.1 0-2 .9-2 2s.9 2 2 2 2-.9 2-2-.9-2-2-2Z"/>
</svg>
