<svg xmlns="http://www.w3.org/2000/svg" width="24" height="24" viewBox="0 0 24 24">
  <path fill-rule="evenodd" d="M17.5 4a2.5 2.5 0 1 0 0 5 2.5 2.5 0 0 0 0-5Zm-2.829-1a4.5 4.5 0 1 1 0 7H5.5a3.5 3.5 0 1 1 0-7h9.171Zm-1.415 2H5.5a1.5 1.5 0 1 0 0 3h7.756A4.49 4.49 0 0 1 13 6.5c0-.526.09-1.03.256-1.5ZM2 17.5A4.5 4.5 0 0 1 9.329 14H18.5a3.5 3.5 0 1 1 0 7H9.329A4.5 4.5 0 0 1 2 17.5Zm8.744 1.5H18.5a1.5 1.5 0 0 0 0-3h-7.756c.166.47.256.974.256 1.5s-.09 1.03-.256 1.5ZM6.5 15a2.5 2.5 0 1 0 0 5 2.5 2.5 0 0 0 0-5Z" clip-rule="evenodd"/>
</svg>
