<svg xmlns="http://www.w3.org/2000/svg" width="24" height="24" viewBox="0 0 24 24">
  <path fill-rule="evenodd" d="M18.624 15.6a1.5 1.5 0 0 1 .103-.873 1.5 1.5 0 0 1 1.373-.909h.082a1.818 1.818 0 0 0 0-3.636h-.155a1.5 1.5 0 0 1-1.373-.91V9.2a1.5 1.5 0 0 1 .3-1.655l.055-.054a1.819 1.819 0 1 0-2.573-2.573l-.054.055a1.5 1.5 0 0 1-1.655.3 1.5 1.5 0 0 1-.909-1.373v-.082a1.818 1.818 0 0 0-3.636 0v.155a1.5 1.5 0 0 1-.91 1.372H9.2a1.5 1.5 0 0 1-1.655-.3l-.054-.054a1.818 1.818 0 1 0-2.573 2.573l.055.054a1.5 1.5 0 0 1 .3 1.655 1.5 1.5 0 0 1-1.373.982h-.082a1.818 1.818 0 0 0 0 3.636h.155a1.5 1.5 0 0 1 1.372.909 1.5 1.5 0 0 1-.3 1.654l-.054.055a1.819 1.819 0 1 0 2.573 2.573l.054-.055a1.5 1.5 0 0 1 1.655-.3 1.5 1.5 0 0 1 .982 1.373v.082a1.818 1.818 0 0 0 3.636 0v-.155a1.5 1.5 0 0 1 .909-1.373 1.5 1.5 0 0 1 1.654.3l.055.055a1.82 1.82 0 1 0 2.573-2.573l-.055-.054a1.5 1.5 0 0 1-.403-.782ZM15 12a3 3 0 1 1-6 0 3 3 0 0 1 6 0Z" clip-rule="evenodd" opacity=".2"/>
  <path fill-rule="evenodd" d="M8 11.97c0 2.21 1.79 4 4 4s4-1.79 4-4-1.79-4-4-4-4 1.79-4 4Zm2 0c0-1.1.9-2 2-2s2 .9 2 2-.9 2-2 2-2-.9-2-2Z" clip-rule="evenodd"/>
  <path fill-rule="evenodd" d="M10.08 22.14c.52.53 1.25.83 1.99.83.75 0 1.45-.3 1.99-.83s.83-1.24.83-1.99V20c0-.1.02-.2.08-.28.06-.08.13-.15.23-.19.09-.04.19-.06.29-.04.1.02.19.06.31.18.26.27.57.47.92.62.69.29 1.47.29 2.16 0a2.801 2.801 0 0 0 1.52-1.53c.15-.34.22-.71.22-1.08 0-.37-.08-.74-.22-1.08-.14-.34-.35-.65-.66-.96a.495.495 0 0 1-.13-.26c-.01-.1 0-.2.04-.29.03-.09.1-.17.18-.22.08-.05.17-.08.35-.08.75 0 1.45-.3 1.99-.83s.83-1.24.83-1.99-.29-1.46-.82-1.99c-.53-.54-1.24-.83-1.99-.83h-.15a.53.53 0 0 1-.27-.08.49.49 0 0 1-.13-.12.636.636 0 0 0-.06-.18c-.04-.09-.06-.19-.04-.29.02-.1.06-.19.18-.31.27-.26.47-.57.61-.91.15-.34.22-.7.22-1.08 0-.38-.07-.74-.21-1.08-.14-.35-.34-.66-.61-.92-.27-.26-.57-.47-.92-.61a2.79 2.79 0 0 0-2.16 0c-.34.14-.65.35-.96.66-.07.07-.16.11-.26.13-.1.02-.2.01-.3-.04a.489.489 0 0 1-.22-.18c-.05-.08-.08-.17-.08-.35 0-.75-.3-1.45-.83-1.99-1.06-1.06-2.92-1.06-3.98 0-.54.53-.83 1.24-.83 1.99v.15c0 .09-.03.19-.08.27a.49.49 0 0 1-.12.13c-.06.01-.12.03-.18.06-.09.04-.19.06-.29.04a.564.564 0 0 1-.31-.18c-.26-.26-.57-.47-.91-.61-.69-.29-1.48-.28-2.16 0a2.801 2.801 0 0 0-1.53 1.52c-.15.34-.22.71-.22 1.08 0 .37.08.74.22 1.08.15.34.35.65.66.96.07.07.11.16.13.26.02.1.01.2-.06.35-.04.09-.09.17-.18.23a.55.55 0 0 1-.34.09c-.75 0-1.46.3-1.99.83-.54.53-.83 1.25-.83 1.99s.3 1.46.83 1.99 1.24.82 1.99.82h.15c.1 0 .2.02.28.08.08.06.15.13.19.23.04.09.06.19.04.29-.02.1-.06.19-.18.31-.26.26-.47.57-.61.91-.15.34-.22.7-.22 1.08 0 .38.07.74.21 1.08.14.35.34.66.61.92.26.26.57.47.91.61.69.29 1.47.29 2.16 0 .34-.14.65-.35.96-.66.07-.07.16-.11.26-.13.1-.02.2-.01.35.06.09.04.17.1.23.18.06.09.09.18.09.34 0 .75.31 1.46.83 1.99Zm-.4-4.36a2.54 2.54 0 0 0-1.01-.21l.03.01c-.15 0-.3.01-.45.04-.5.09-.95.33-1.37.74a.8.8 0 0 1-.27.18.83.83 0 0 1-.62 0 .8.8 0 0 1-.27-.18.8.8 0 0 1-.24-.58c0-.11.02-.22.06-.32.04-.1.1-.19.24-.33a2.507 2.507 0 0 0 .5-2.75c-.2-.45-.51-.83-.92-1.1-.41-.27-.88-.42-1.38-.42h-.15c-.22 0-.43-.09-.58-.24a.825.825 0 0 1-.24-.58c0-.22.08-.42.24-.58.16-.16.36-.24.58-.24h.1c.51-.01.99-.18 1.4-.47.41-.29.72-.7.87-1.11.2-.45.26-.96.17-1.45-.09-.5-.32-.95-.74-1.37a.8.8 0 0 1-.24-.58.815.815 0 0 1 .51-.76c.2-.08.42-.09.63 0 .1.04.19.1.33.24.36.35.81.58 1.3.67.42.07.85.04 1.26-.1.08-.01.17-.04.25-.07.45-.19.83-.51 1.1-.92.27-.41.41-.88.41-1.37v-.15c0-.22.08-.42.24-.58a.84.84 0 0 1 1.16 0c.16.16.24.37.24.67a2.508 2.508 0 0 0 1.51 2.28c.46.2.96.26 1.46.17.49-.09.94-.33 1.36-.74.07-.08.16-.14.26-.18.21-.08.43-.08.63 0 .1.04.19.1.27.18a.8.8 0 0 1 .24.58c0 .11-.02.22-.06.32-.04.1-.1.19-.24.33-.35.36-.58.81-.67 1.3-.07.42-.04.85.1 1.26.01.08.04.17.07.25.19.45.51.83.92 1.1.41.27.88.41 1.37.41h.15c.22 0 .42.08.58.24.16.16.24.36.24.58 0 .22-.09.43-.24.58-.15.15-.36.24-.66.24-.49.01-.96.15-1.37.42-.41.27-.73.64-.92 1.09-.2.46-.26.96-.17 1.45.09.5.33.95.74 1.37a.8.8 0 0 1 .24.58.815.815 0 0 1-.24.58c-.07.08-.16.14-.26.18-.2.08-.44.08-.63 0-.1-.04-.19-.1-.33-.24-.36-.35-.8-.58-1.3-.67-.5-.09-1-.03-1.45.17-.45.2-.83.51-1.1.92-.27.41-.42.88-.42 1.38v.15c0 .22-.09.43-.24.58-.31.3-.86.31-1.16 0a.825.825 0 0 1-.24-.58v-.1a2.58 2.58 0 0 0-.47-1.4c-.29-.41-.7-.72-1.11-.87Z" clip-rule="evenodd"/>
</svg>
