<svg xmlns="http://www.w3.org/2000/svg" width="24" height="24" viewBox="0 0 24 24">
  <path fill-rule="evenodd" d="M5.5 5a1.5 1.5 0 1 0 0 3h9.55a1 1 0 1 1 0 2H5.5a3.5 3.5 0 1 1 0-7h9.55a1 1 0 1 1 0 2H5.5Zm2.45 10a1 1 0 0 1 1-1h9.55a3.5 3.5 0 1 1 0 7H8.95a1 1 0 1 1 0-2h9.55a1.5 1.5 0 0 0 0-3H8.95a1 1 0 0 1-1-1Z" clip-rule="evenodd" opacity=".5"/>
  <path fill-rule="evenodd" d="M17.5 4a2.5 2.5 0 1 0 0 5 2.5 2.5 0 0 0 0-5ZM13 6.5a4.5 4.5 0 1 1 9 0 4.5 4.5 0 0 1-9 0Zm-11 11a4.5 4.5 0 1 1 9 0 4.5 4.5 0 0 1-9 0ZM6.5 15a2.5 2.5 0 1 0 0 5 2.5 2.5 0 0 0 0-5Z" clip-rule="evenodd"/>
</svg>
