<svg xmlns="http://www.w3.org/2000/svg" width="24" height="24" viewBox="0 0 24 24">
  <path d="M11.96 15.99c-2.21 0-4-1.79-4-4s1.79-4 4-4 4 1.79 4 4-1.79 4-4 4Zm0-6c-1.1 0-2 .9-2 2s.9 2 2 2 2-.9 2-2-.9-2-2-2Z" opacity=".5"/>
  <path d="M11.96 22.99a3.226 3.226 0 0 1-2.94-1.91l-.58-1.31c-.12-.28-.33-.51-.59-.66-.26-.15-.56-.22-.87-.18l-1.43.15c-.63.07-1.24-.05-1.8-.33s-1.01-.72-1.33-1.26c-.3-.54-.45-1.15-.42-1.77.03-.62.24-1.22.61-1.72l.85-1.16c.18-.25.27-.54.27-.84 0-.3-.09-.6-.27-.84L2.61 10A3.41 3.41 0 0 1 2 8.27c-.03-.62.12-1.23.43-1.77s.77-.97 1.32-1.26c.56-.28 1.18-.4 1.8-.33l1.43.15c.3.03.6-.03.87-.18.26-.15.46-.38.58-.65l.58-1.32c.25-.57.66-1.05 1.19-1.39 1.05-.68 2.45-.68 3.5 0 .52.34.93.82 1.19 1.39l.59 1.31c.12.28.33.51.59.66.26.15.56.21.86.18l1.43-.15c.63-.07 1.24.05 1.8.33a3.229 3.229 0 0 1 1.76 3.04c-.03.62-.24 1.22-.61 1.72l-.85 1.16c-.18.25-.27.54-.27.84 0 .31.09.6.27.85l.84 1.16c.37.5.58 1.1.61 1.72.03.62-.12 1.24-.43 1.78s-.77.97-1.32 1.26c-.55.28-1.17.4-1.79.33l-1.43-.15c-.31-.03-.6.03-.86.18s-.46.38-.59.65l-.58 1.31A3.201 3.201 0 0 1 11.98 23l-.02-.01Zm0-2c.24 0 .46-.07.66-.2s.35-.31.45-.52l.58-1.31c.3-.66.78-1.21 1.41-1.57.63-.37 1.35-.52 2.08-.44l1.43.15c.24.03.47-.02.68-.12.21-.11.38-.27.5-.48a1.21 1.21 0 0 0-.07-1.32l-.85-1.16c-.43-.6-.66-1.3-.65-2.03 0-.72.22-1.42.65-2.01l.85-1.16a1.21 1.21 0 0 0 .07-1.32c-.12-.2-.29-.37-.5-.48a1.15 1.15 0 0 0-.68-.12l-1.43.15c-.72.08-1.44-.08-2.08-.44-.63-.37-1.12-.91-1.42-1.58l-.59-1.31c-.1-.22-.25-.4-.45-.53-.39-.25-.93-.26-1.32 0-.2.13-.35.31-.45.52l-.58 1.31c-.29.66-.78 1.21-1.41 1.57-.63.37-1.35.52-2.08.44l-1.43-.15c-.24-.03-.47.02-.68.13-.21.11-.38.27-.5.47a1.21 1.21 0 0 0 .07 1.32l.85 1.16c.43.59.66 1.29.66 2.02S5.5 13.41 5.07 14l-.85 1.16a1.21 1.21 0 0 0-.07 1.32c.12.2.29.37.5.48.21.11.44.15.68.12l1.43-.15c.72-.08 1.44.07 2.08.44.63.36 1.12.91 1.42 1.58l.58 1.31c.1.21.25.4.45.52s.42.2.66.2l.01.01Z"/>
</svg>
