<svg xmlns="http://www.w3.org/2000/svg" width="24" height="24" viewBox="0 0 24 24">
  <path fill-rule="evenodd" d="M9.975 20.686 9.39 19.37a2.426 2.426 0 0 0-2.474-1.429l-1.43.152a2.214 2.214 0 0 1-2.023-3.502l.847-1.163a2.429 2.429 0 0 0 0-2.858l-.847-1.163a2.211 2.211 0 0 1 2.023-3.502l1.434.152a2.433 2.433 0 0 0 1.47-.312 2.426 2.426 0 0 0 1-1.117l.585-1.315a2.212 2.212 0 0 1 4.044 0l.589 1.315c.207.468.557.86 1 1.117.445.256.96.365 1.47.312l1.43-.152a2.212 2.212 0 0 1 2.022 3.502l-.847 1.163A2.43 2.43 0 0 0 19.22 12a2.428 2.428 0 0 0 .46 1.434l.847 1.164a2.212 2.212 0 0 1-2.023 3.502l-1.43-.152a2.426 2.426 0 0 0-2.47 1.423l-.584 1.315a2.213 2.213 0 0 1-4.044 0ZM15.1 12a3 3 0 1 1-6 0 3 3 0 0 1 6 0Z" clip-rule="evenodd" opacity=".2"/>
  <path fill-rule="evenodd" d="M7.96 11.99c0 2.21 1.79 4 4 4s4-1.79 4-4-1.79-4-4-4-4 1.79-4 4Zm2 0c0-1.1.9-2 2-2s2 .9 2 2-.9 2-2 2-2-.9-2-2Z" clip-rule="evenodd"/>
  <path fill-rule="evenodd" d="M10.21 22.47c.52.34 1.13.52 1.75.52v-.01c.62 0 1.23-.18 1.75-.52.53-.34.94-.82 1.19-1.39l.58-1.31c.13-.27.33-.5.59-.65.26-.15.56-.21.86-.18l1.43.15c.62.07 1.24-.05 1.79-.33.55-.29 1.01-.72 1.32-1.26.31-.54.46-1.16.43-1.78-.03-.62-.24-1.22-.61-1.72l-.84-1.16c-.18-.25-.27-.54-.27-.85 0-.3.09-.59.27-.84l.85-1.16c.37-.5.58-1.1.61-1.72a3.232 3.232 0 0 0-1.76-3.03 3.21 3.21 0 0 0-1.8-.33l-1.43.15c-.3.03-.6-.03-.86-.18s-.47-.38-.59-.66l-.59-1.31a3.28 3.28 0 0 0-1.19-1.39c-1.04-.68-2.45-.68-3.5 0-.52.34-.93.82-1.18 1.39l-.58 1.32c-.12.27-.32.5-.58.65-.26.15-.56.21-.86.18L5.55 4.9c-.62-.07-1.25.04-1.8.33-.55.29-1.01.72-1.32 1.26-.31.54-.46 1.16-.43 1.78.04.62.25 1.21.61 1.72l.85 1.16c.18.25.27.54.27.84 0 .3-.09.59-.27.84l-.85 1.16c-.37.5-.58 1.1-.61 1.72-.03.63.12 1.24.42 1.78a3.21 3.21 0 0 0 3.13 1.59l1.43-.15c.3-.03.61.03.87.18.26.16.47.38.59.66l.58 1.31c.26.57.67 1.05 1.19 1.39Zm.64-2.21-.58-1.31-.02.04c-.3-.67-.79-1.21-1.42-1.58-.63-.36-1.34-.52-2.07-.44l-1.43.15a1.24 1.24 0 0 1-1.18-.6 1.21 1.21 0 0 1 .07-1.32l.85-1.16c.43-.59.66-1.29.66-2.02S5.5 10.59 5.07 10l-.85-1.17c-.14-.19-.22-.42-.23-.65-.01-.23.04-.46.16-.67.12-.2.29-.36.5-.47.21-.11.44-.15.68-.13l1.44.15c.72.08 1.45-.07 2.08-.44a3.43 3.43 0 0 0 1.41-1.58l.58-1.32c.1-.21.25-.39.45-.52a1.214 1.214 0 0 1 1.77.53l.59 1.31c.3.67.79 1.21 1.42 1.58.64.36 1.36.51 2.08.44l1.43-.15c.24-.03.47.01.68.12.21.11.38.28.5.48a1.21 1.21 0 0 1-.07 1.32l-.85 1.16c-.43.59-.66 1.29-.66 2.01-.01.73.22 1.43.65 2.03l.85 1.16c.14.19.22.41.23.65.01.23-.04.47-.16.67-.12.2-.29.36-.5.47-.21.1-.44.14-.68.12l-1.43-.15c-.73-.08-1.45.07-2.08.44-.63.36-1.11.91-1.41 1.57l-.58 1.31c-.1.21-.25.39-.45.52-.39.26-.93.26-1.32 0-.2-.13-.35-.32-.45-.53Z" clip-rule="evenodd"/>
</svg>
