<svg xmlns="http://www.w3.org/2000/svg" width="24" height="24" viewBox="0 0 24 24">
  <path d="M20.791 12.607c.244-.209.366-.313.411-.438a.5.5 0 0 0 0-.338c-.045-.124-.167-.23-.41-.438L12.32 4.132c-.42-.36-.63-.54-.809-.545a.5.5 0 0 0-.4.184C11 3.91 11 4.186 11 4.74v4.296a9.666 9.666 0 0 0-8 9.516v.612a11.401 11.401 0 0 1 8-4.093v4.19c0 .554 0 .83.112.969a.5.5 0 0 0 .4.184c.178-.005.388-.185.809-.545l8.47-7.26Z" opacity=".2"/>
  <path fill-rule="evenodd" d="M10.337 3.14a1.5 1.5 0 0 1 1.2-.552c.407.01.714.213.868.323a8.29 8.29 0 0 1 .566.462l8.471 7.26.02.017c.104.09.226.194.323.293.11.113.266.292.358.55a1.5 1.5 0 0 1 0 1.014 1.514 1.514 0 0 1-.358.55c-.098.1-.219.203-.323.293l-.02.017-8.498 7.284c-.186.16-.374.32-.539.438-.154.11-.461.313-.868.323a1.5 1.5 0 0 1-1.2-.552c-.257-.315-.302-.68-.319-.87a8.277 8.277 0 0 1-.018-.693v-3.1a10.4 10.4 0 0 0-6.23 3.605A1 1 0 0 1 2 19.163v-.612a10.667 10.667 0 0 1 8-10.322V4.703c0-.245 0-.492.018-.693.017-.19.062-.555.32-.87ZM12 5.173v3.86a1 1 0 0 1-.828.986 8.666 8.666 0 0 0-6.95 6.588 12.397 12.397 0 0 1 6.71-2.535A1 1 0 0 1 12 15.07v3.756L19.963 12 12 5.174Z" clip-rule="evenodd"/>
</svg>
