<svg xmlns="http://www.w3.org/2000/svg" width="24" height="24"  viewBox="0 0 24 24">
  <path fill-rule="evenodd" d="M11.714 1.089a2 2 0 0 1 .572 0c.219.031.422.108.584.17l.043.015 5.492 2.06c.618.23 1.16.433 1.578.801a3 3 0 0 1 .82 1.184c.199.52.198 1.1.197 1.76V12c0 2.827-1.537 5.183-3.199 6.915-1.673 1.742-3.587 2.973-4.6 3.564l-.04.024c-.185.108-.425.249-.742.317a2.13 2.13 0 0 1-.838 0c-.317-.068-.557-.209-.742-.317l-.04-.024c-1.013-.59-2.927-1.822-4.6-3.564C4.537 17.183 3 14.826 3 12V7.078c-.001-.66-.002-1.238.196-1.759a3 3 0 0 1 .82-1.184c.418-.368.96-.57 1.579-.801l5.492-2.06.043-.016c.162-.06.365-.138.584-.17ZM13 6a1 1 0 1 0-2 0v.5a3 3 0 0 0 0 6h2a1 1 0 1 1 0 2h-2.133a.867.867 0 0 1-.769-.465 1 1 0 1 0-1.77.93 2.866 2.866 0 0 0 2.539 1.535H11v.5a1 1 0 1 0 2 0v-.5a3 3 0 1 0 0-6h-2a1 1 0 1 1 0-2h2.133c.332 0 .622.186.769.465a1 1 0 0 0 1.77-.93A2.867 2.867 0 0 0 13.133 6.5H13V6Z" clip-rule="evenodd"/>
</svg>
