<svg xmlns="http://www.w3.org/2000/svg" width="24" height="24" viewBox="0 0 24 24">
  <path fill-rule="evenodd" d="M12.286 1.088a2 2 0 0 0-.572 0 2.785 2.785 0 0 0-.584.17l-.043.016-5.492 2.06c-.618.23-1.16.433-1.578.801a3 3 0 0 0-.82 1.184c-.199.52-.198 1.1-.197 1.759V12c0 2.826 1.537 5.183 3.2 6.914 1.672 1.743 3.586 2.974 4.598 3.564l.041.024c.185.109.425.25.742.318.26.055.579.055.838 0 .317-.068.557-.209.742-.317l.04-.024c1.013-.591 2.927-1.822 4.6-3.565C19.463 17.184 21 14.826 21 12V7.078c.001-.66.002-1.239-.196-1.76a3 3 0 0 0-.82-1.183c-.418-.368-.96-.57-1.579-.801l-5.492-2.06-.043-.016c-.162-.061-.365-.138-.584-.17Zm-.563 5.609a.643.643 0 0 1 .554 0 .668.668 0 0 1 .276.266c.044.07.089.161.132.25l.924 1.871 2.066.302c.097.014.197.029.278.048.078.02.223.06.338.181a.64.64 0 0 1 .171.527.668.668 0 0 1-.168.345c-.054.063-.126.133-.196.202l-1.495 1.456.353 2.056c.016.097.033.196.04.28a.67.67 0 0 1-.068.377.642.642 0 0 1-.447.325.669.669 0 0 1-.38-.052 3.312 3.312 0 0 1-.254-.125L12 14.035l-1.847.971a3.306 3.306 0 0 1-.253.125.669.669 0 0 1-.38.053.643.643 0 0 1-.448-.326.669.669 0 0 1-.068-.378c.007-.083.024-.182.04-.28l.353-2.055-1.494-1.456c-.07-.069-.143-.139-.197-.202a.668.668 0 0 1-.168-.345.643.643 0 0 1 .17-.527.668.668 0 0 1 .339-.18c.081-.02.18-.035.278-.049l2.066-.302.924-1.871c.044-.089.088-.18.132-.25a.67.67 0 0 1 .276-.266Z" clip-rule="evenodd"/>
</svg>
