<svg xmlns="http://www.w3.org/2000/svg" width="24" height="24" viewBox="0 0 24 24">
  <path fill-rule="evenodd" d="M12.286 1.089a2 2 0 0 0-.286-.02 1 1 0 0 0-.007 2l.01.002c.04.014.096.034.208.076l5.362 2.01c.825.31.983.387 1.088.479a1 1 0 0 1 .274.394c.05.13.065.306.065 1.188V12c0 2.082-1.14 3.965-2.642 5.53-1.491 1.553-3.228 2.675-4.164 3.221a9.118 9.118 0 0 1-.195.11 1 1 0 0 0 .001 2c.124 0 .272-.01.42-.041.316-.068.556-.209.74-.317l.042-.024c1.012-.59 2.926-1.822 4.599-3.564C19.463 17.183 21 14.826 21 12V7.078c.001-.66.002-1.238-.196-1.759a3 3 0 0 0-.82-1.184c-.418-.368-.96-.57-1.579-.801l-.13-.049-5.362-2.01-.043-.017a2.785 2.785 0 0 0-.584-.17Z" clip-rule="evenodd" opacity=".5"/>
  <path fill-rule="evenodd" d="M11.714 1.089c.095-.014.19-.021.286-.021a1 1 0 0 1 1 1v19.794a1 1 0 0 1-1 1c-.124 0-.272-.01-.42-.042a2.42 2.42 0 0 1-.74-.317l-.042-.024c-1.012-.59-2.926-1.822-4.599-3.565C4.537 17.184 3 14.827 3 12V7.078c-.001-.66-.002-1.238.196-1.759a3 3 0 0 1 .82-1.184c.418-.368.96-.57 1.579-.801l.13-.049 5.362-2.01.043-.017c.162-.061.365-.138.584-.17ZM11 3.443 6.428 5.158c-.826.31-.984.386-1.09.478a1 1 0 0 0-.273.394C5.015 6.16 5 6.336 5 7.218V12c0 2.082 1.14 3.964 2.642 5.53 1.13 1.177 2.401 2.106 3.358 2.725V3.443Z" clip-rule="evenodd"/>
</svg>
