<svg xmlns="http://www.w3.org/2000/svg" width="24" height="24" viewBox="0 0 24 24">
  <path d="M11.302 21.615c.221.13.332.194.488.227.122.026.298.026.42 0 .156-.033.267-.098.488-.227C14.646 20.479 20 16.909 20 12V8.2c0-1.074 0-1.61-.166-1.992a1.746 1.746 0 0 0-.68-.837c-.34-.24-1.005-.378-2.336-.655-1.467-.305-2.594-.856-3.624-1.653-.494-.382-.74-.573-.934-.625a.842.842 0 0 0-.52 0c-.194.052-.44.243-.934.625-1.03.797-2.157 1.348-3.624 1.653-1.33.277-1.996.415-2.336.655-.345.244-.512.45-.68.837C4 6.59 4 7.126 4 8.2V12c0 4.909 5.354 8.479 7.302 9.615Z" opacity=".2"/>
  <path fill-rule="evenodd" d="M12 1.397c.202 0 .375.036.52.076.271.073.499.218.663.331.17.118.373.275.603.453l.02.015c.913.706 1.9 1.192 3.215 1.465l.03.006c.64.133 1.16.242 1.562.348.39.103.791.233 1.117.463.22.155.424.327.606.55.182.224.309.46.416.706.15.346.202.71.225 1.069.023.349.023.78.023 1.289V12c0 2.827-1.537 5.183-3.2 6.914-1.672 1.743-3.586 2.974-4.598 3.565l-.041.024c-.185.108-.425.249-.742.317a2.13 2.13 0 0 1-.838 0 2.421 2.421 0 0 1-.742-.317l-.04-.024c-1.013-.59-2.927-1.822-4.6-3.565C4.537 17.184 3 14.827 3 12V8.167c0-.509 0-.939.023-1.288.023-.359.075-.723.225-1.07.107-.246.234-.481.416-.704.181-.224.386-.396.606-.551.326-.23.727-.36 1.117-.463.401-.106.922-.215 1.563-.348l.029-.006c1.314-.273 2.302-.759 3.215-1.465l.02-.015c.23-.178.433-.335.603-.453.164-.113.392-.258.662-.331.146-.04.32-.076.521-.076Zm0 2.022a14.518 14.518 0 0 0-.582.436c-1.148.887-2.413 1.503-4.032 1.84-.677.14-1.145.238-1.488.33a3.529 3.529 0 0 0-.368.113.568.568 0 0 0-.107.05.992.992 0 0 0-.208.179.993.993 0 0 0-.132.24c-.015.034-.047.13-.064.403C5 7.285 5 7.65 5 8.2V12c0 2.082 1.14 3.964 2.642 5.53 1.491 1.553 3.228 2.675 4.164 3.221a10.13 10.13 0 0 0 .194.11l.06-.032.134-.078c.936-.546 2.673-1.668 4.164-3.222C17.86 15.964 19 14.082 19 12V8.2c0-.55 0-.915-.019-1.19-.018-.274-.049-.37-.064-.404a.992.992 0 0 0-.133-.24.99.99 0 0 0-.207-.178s-.027-.019-.108-.05a3.53 3.53 0 0 0-.367-.114c-.343-.09-.811-.188-1.488-.329-1.619-.337-2.884-.953-4.032-1.84A14.518 14.518 0 0 0 12 3.418Z" clip-rule="evenodd"/>
</svg>
