<svg xmlns="http://www.w3.org/2000/svg" width="24" height="24" viewBox="0 0 24 24">
  <path d="m6.076 4.221 5.362-2.01c.208-.078.312-.117.419-.133a1 1 0 0 1 .143-.01v19.794a1.04 1.04 0 0 1-.21-.02c-.156-.033-.267-.098-.488-.227C9.354 20.479 4 16.909 4 12V7.218c0-.8 0-1.2.13-1.543a2 2 0 0 1 .548-.79c.275-.242.65-.383 1.398-.664Z" opacity=".2"/>
  <path fill-rule="evenodd" d="M11.714 1.089a2 2 0 0 1 .572 0c.219.031.422.108.584.169l.043.016 5.362 2.011.13.049c.618.23 1.16.433 1.578.801a3 3 0 0 1 .82 1.184c.199.52.198 1.1.197 1.76V12c0 2.827-1.537 5.183-3.199 6.914-1.673 1.743-3.587 2.974-4.6 3.565l-.04.024a2.42 2.42 0 0 1-.742.317 2.13 2.13 0 0 1-.838 0 2.42 2.42 0 0 1-.742-.317l-.04-.024c-1.013-.59-2.927-1.822-4.6-3.565C4.537 17.184 3 14.827 3 12V7.078c-.001-.66-.002-1.238.196-1.759a3 3 0 0 1 .82-1.184c.418-.368.96-.57 1.579-.801l.13-.049 5.362-2.01.043-.017c.162-.061.365-.138.584-.17ZM13 3.443l4.573 1.715c.825.31.983.386 1.088.478a1 1 0 0 1 .274.394c.05.13.065.306.065 1.188V12c0 2.082-1.14 3.964-2.642 5.53-1.13 1.177-2.401 2.106-3.358 2.725V3.443Zm-2 16.812c-.957-.619-2.228-1.548-3.358-2.726C6.14 15.964 5 14.082 5 12V7.218c0-.882.016-1.057.065-1.188a1 1 0 0 1 .274-.394c.104-.092.263-.169 1.089-.478L11 3.443v16.812Z" clip-rule="evenodd"/>
</svg>
