<svg xmlns="http://www.w3.org/2000/svg" width="24" height="24"  viewBox="0 0 24 24">
  <path d="M12.52 1.473a1.967 1.967 0 0 0-.52-.076c-.202 0-.375.037-.52.076a2.192 2.192 0 0 0-.663.331c-.17.118-.373.275-.603.453l-.02.015c-.913.707-1.9 1.192-3.215 1.465l-.03.006c-.64.133-1.16.242-1.562.348-.39.103-.791.233-1.117.463-.22.155-.424.327-.606.55a2.951 2.951 0 0 0-.416.706c-.15.346-.202.71-.225 1.069C3 7.228 3 7.659 3 8.168V12c0 2.827 1.537 5.183 3.2 6.915 1.672 1.742 3.586 2.973 4.598 3.564l.041.024c.185.108.425.249.742.317.26.056.579.056.838 0 .317-.068.557-.209.742-.317l.04-.024c1.013-.59 2.927-1.822 4.6-3.564C19.463 17.183 21 14.826 21 12V8.168c0-.51 0-.94-.023-1.289-.023-.359-.075-.723-.225-1.07a2.955 2.955 0 0 0-.416-.704 2.953 2.953 0 0 0-.606-.55c-.326-.231-.727-.361-1.117-.464a33.168 33.168 0 0 0-1.563-.348l-.029-.006c-1.315-.273-2.302-.759-3.215-1.465l-.02-.015a15.78 15.78 0 0 0-.603-.453 2.183 2.183 0 0 0-.662-.331Z"/>
</svg>
