<svg xmlns="http://www.w3.org/2000/svg" width="24" height="24" viewBox="0 0 24 24">
  <path fill-rule="evenodd" d="M11.714 1.089a2 2 0 0 1 .572 0c.219.031.422.108.584.169l.043.016 5.362 2.011.13.049c.618.23 1.16.433 1.578.801a3 3 0 0 1 .82 1.184c.199.52.198 1.1.197 1.76V12c0 2.827-1.537 5.183-3.199 6.914-1.673 1.743-3.587 2.974-4.6 3.565l-.04.024a2.42 2.42 0 0 1-.742.317 2.13 2.13 0 0 1-.838 0 2.42 2.42 0 0 1-.742-.317l-.04-.024c-1.013-.59-2.927-1.822-4.6-3.565C4.537 17.184 3 14.827 3 12V7.078c-.001-.66-.002-1.238.196-1.759a3 3 0 0 1 .82-1.184c.418-.368.96-.57 1.579-.801l.13-.049 5.362-2.01.043-.017c.162-.061.365-.138.584-.17Zm.283 1.982a6.22 6.22 0 0 0-.208.076l-5.361 2.01c-.826.31-.984.387-1.09.479a1 1 0 0 0-.273.394C5.015 6.16 5 6.336 5 7.218V12c0 2.082 1.14 3.964 2.642 5.53 1.491 1.553 3.228 2.675 4.164 3.221a10.13 10.13 0 0 0 .194.11l.06-.032.134-.078c.936-.546 2.673-1.668 4.164-3.222C17.86 15.964 19 14.082 19 12V7.218c0-.882-.016-1.057-.065-1.188a1 1 0 0 0-.274-.394c-.105-.092-.263-.169-1.088-.478L12.21 3.147A6.053 6.053 0 0 0 12 3.07l-.003.001Z" clip-rule="evenodd" opacity=".5"/>
  <path fill-rule="evenodd" d="M16.207 8.293a1 1 0 0 1 0 1.414l-4.5 4.5a1 1 0 0 1-1.414 0l-2-2a1 1 0 1 1 1.414-1.414L11 12.086l3.793-3.793a1 1 0 0 1 1.414 0Z" clip-rule="evenodd"/>
</svg>
