<svg xmlns="http://www.w3.org/2000/svg" width="24" height="24" viewBox="0 0 24 24">
  <path d="M4 12V5.776c0-.467.29-.885.727-1.048l12.895 12.898c-1.686 1.96-3.834 3.353-4.922 3.988-.223.13-.334.195-.49.228a1.137 1.137 0 0 1-.42 0c-.156-.033-.267-.098-.488-.227C9.354 20.479 4 16.909 4 12Z" opacity=".2"/>
  <path d="M12 22.79c-.15 0-.29-.01-.42-.04-.31-.07-.53-.19-.78-.34C8.46 21.04 3 17.29 3 11.93V5.71c0-.38.1-.75.29-1.07l-1-1A.996.996 0 1 1 3.7 2.23l1.71 1.71.03.03 16.27 16.26a.996.996 0 1 1-1.41 1.41L17.66 19c-1.62 1.64-3.43 2.82-4.45 3.41-.26.15-.47.28-.79.34-.13.03-.27.04-.42.04ZM5 6.35v5.59c0 4.44 5.21 7.82 6.81 8.75.09.06.15.09.21.12.02-.02.08-.06.17-.12.93-.54 2.59-1.61 4.05-3.1L5 6.35Zm14.68 8.66c-.1 0-.2-.01-.29-.04a.997.997 0 0 1-.66-1.25c.18-.59.27-1.19.27-1.78V7.15c0-.63 0-1.02-.07-1.19a.979.979 0 0 0-.27-.39c-.14-.12-.5-.26-1.09-.48l-5.36-2.01c-.11-.04-.17-.07-.23-.08-.02.01-.08.04-.19.08l-2.63.99c-.52.19-1.09-.07-1.29-.59-.19-.52.07-1.09.59-1.29l2.63-.98c.24-.09.41-.15.63-.19.19-.03.38-.03.57 0 .22.03.39.1.63.19l5.36 2.01c.83.31 1.29.49 1.71.85.36.32.65.73.82 1.18.2.52.2 1.01.2 1.9v4.78c0 .79-.12 1.58-.36 2.37-.13.43-.53.71-.96.71h-.01Z"/>
</svg>
