<svg xmlns="http://www.w3.org/2000/svg" width="24" height="24" viewBox="0 0 24 24">
  <path fill-rule="evenodd" d="M11.714 1.089a2 2 0 0 1 .572 0c.219.031.422.108.584.169l.043.016 5.362 2.011.13.049c.618.23 1.16.433 1.578.801l-.66.75.66-.75a3 3 0 0 1 .82 1.184l-.934.356.935-.356c.198.52.197 1.1.196 1.76V12c0 .828-.133 1.619-.363 2.365a1 1 0 1 1-1.911-.588A6.012 6.012 0 0 0 19 12V7.218c0-.882-.016-1.057-.065-1.188a1 1 0 0 0-.274-.394c-.105-.092-.263-.169-1.088-.478L12.21 3.147a6.053 6.053 0 0 0-.214-.076 9.58 9.58 0 0 0-.208.076l-2.63.986a1 1 0 1 1-.701-1.873l2.63-.986.042-.016c.162-.061.365-.138.584-.17Z" clip-rule="evenodd" opacity=".5"/>
  <path d="M12 22.79c-.14 0-.29-.01-.42-.04-.32-.07-.52-.19-.79-.34-2.34-1.37-7.8-5.13-7.8-10.48V5.71c0-.38.11-.75.29-1.07l-1-1c-.38-.39-.38-1.02.01-1.41a.996.996 0 0 1 1.41 0l18 18a.996.996 0 1 1-1.41 1.41L17.65 19c-1.62 1.65-3.43 2.82-4.45 3.41-.25.15-.47.27-.78.34-.13.03-.28.04-.42.04ZM5 6.35v5.59c0 4.44 5.21 7.82 6.81 8.75.09.05.15.09.21.12.02-.02.08-.06.17-.12.93-.54 2.59-1.61 4.05-3.1L5 6.35Z"/>
</svg>
