<svg xmlns="http://www.w3.org/2000/svg" width="24" height="24" viewBox="0 0 24 24">
  <path fill-rule="evenodd" d="m20.802 7-1.308 7.194c-.088.481-.144.789-.205 1.022-.057.22-.102.303-.131.346a1 1 0 0 1-.422.352c-.048.021-.137.05-.364.067-.24.018-.553.019-1.043.019H6.5a1 1 0 1 0 0 2h10.864c.445 0 .834 0 1.157-.024a3.032 3.032 0 0 0 1.026-.233 3 3 0 0 0 1.265-1.056c.208-.307.325-.633.412-.967a16.6 16.6 0 0 0 .232-1.135l1.356-7.463.005-.026c.025-.139.055-.299.068-.44.015-.16.022-.4-.073-.664a1.5 1.5 0 0 0-.659-.79 1.516 1.516 0 0 0-.64-.19C21.372 5 21.209 5 21.068 5H5a1 1 0 0 0 0 2h15.8Z" clip-rule="evenodd" opacity=".5"/>
  <path fill-rule="evenodd" d="M3.146 3H2a1 1 0 1 1 0-2h1.336c.104 0 .23 0 .341.008a1.5 1.5 0 0 1 .513.125c.26.117.48.306.637.544.118.18.172.358.203.487.026.11.045.234.061.335l.003.02L7.854 20H19a1 1 0 1 1 0 2H7.663c-.103 0-.228 0-.34-.008a1.503 1.503 0 0 1-.513-.125 1.5 1.5 0 0 1-.637-.544 1.503 1.503 0 0 1-.203-.487 4.664 4.664 0 0 1-.061-.335L3.146 3Z" clip-rule="evenodd"/>
</svg>
