<svg xmlns="http://www.w3.org/2000/svg" width="24" height="24" viewBox="0 0 24 24">
  <path d="M16.229 22c1.828 0 2.742 0 3.413-.366a3 3 0 0 0 1.32-1.45c.302-.703.217-1.612.046-3.432l-.6-6.4c-.144-1.537-.216-2.305-.562-2.886a3 3 0 0 0-1.291-1.176C17.944 6 17.172 6 15.629 6H8.371c-1.543 0-2.315 0-2.926.29a3 3 0 0 0-1.291 1.176c-.346.581-.418 1.35-.562 2.886l-.6 6.4c-.17 1.82-.256 2.73.046 3.432a3 3 0 0 0 1.32 1.45C5.03 22 5.943 22 7.771 22h8.458Z" opacity=".2"/>
  <path fill-rule="evenodd" d="M7 7.013V9a1 1 0 0 0 2 0V7h6v2a1 1 0 1 0 2 0V7.013c.131.005.252.011.363.02.402.032.612.089.763.16a2 2 0 0 1 .86.784c.086.144.163.347.231.745.071.409.122.94.195 1.723l.6 6.4c.087.927.146 1.56.15 2.051.005.48-.046.725-.119.893a2 2 0 0 1-.88.967c-.161.088-.4.161-.878.202-.49.041-1.125.042-2.056.042H7.771c-.931 0-1.567 0-2.056-.042-.478-.04-.717-.114-.878-.202a2 2 0 0 1-.88-.966c-.073-.17-.124-.414-.12-.894.005-.49.064-1.124.15-2.05l.6-6.4c.074-.785.125-1.315.196-1.724.068-.398.145-.601.23-.745a2 2 0 0 1 .861-.784c.15-.071.36-.128.763-.16A8.65 8.65 0 0 1 7 7.013Zm9.902-2.004c.222.006.428.015.618.03.522.041 1.003.13 1.463.347a4 4 0 0 1 1.723 1.569c.26.437.393.908.482 1.425.086.495.143 1.104.212 1.84l.608 6.482c.082.873.149 1.59.154 2.176.006.605-.052 1.167-.281 1.701a4 4 0 0 1-1.76 1.933c-.51.278-1.064.388-1.668.439-.583.049-1.304.049-2.18.049H7.727c-.877 0-1.598 0-2.181-.05-.604-.05-1.158-.16-1.668-.438a4 4 0 0 1-1.76-1.933c-.23-.534-.287-1.096-.281-1.701.005-.585.072-1.303.154-2.176L2.6 10.22c.069-.736.126-1.345.212-1.84.09-.517.222-.988.482-1.425a4 4 0 0 1 1.723-1.569c.46-.218.94-.306 1.463-.347.19-.015.396-.024.618-.03a5.002 5.002 0 0 1 9.804 0ZM14.829 5a3.001 3.001 0 0 0-5.658 0h5.658Z" clip-rule="evenodd"/>
</svg>
