<svg xmlns="http://www.w3.org/2000/svg" width="24" height="24" viewBox="0 0 24 24">
  <path d="M16.283 21c1.811 0 2.716 0 3.385-.362a3 3 0 0 0 1.32-1.434c.304-.696.23-1.598.079-3.403l-.7-8.4c-.13-1.552-.194-2.329-.538-2.916a3 3 0 0 0-1.294-1.191C17.92 3 17.14 3 15.583 3H8.417c-1.558 0-2.337 0-2.951.294a3 3 0 0 0-1.295 1.19c-.344.588-.408 1.365-.538 2.917l-.7 8.4c-.15 1.805-.225 2.707.08 3.403a3 3 0 0 0 1.32 1.434C5 21 5.905 21 7.716 21h8.566Z" opacity=".2"/>
  <path fill-rule="evenodd" d="M8.377 2h7.246c.745 0 1.363 0 1.868.04.527.041 1.012.13 1.475.352a4 4 0 0 1 1.726 1.588c.26.443.388.919.473 1.44.082.5.133 1.116.195 1.86l.707 8.482c.072.865.131 1.577.13 2.157 0 .601-.062 1.158-.294 1.687a4 4 0 0 1-1.76 1.912c-.507.274-1.056.383-1.655.433-.578.049-1.293.049-2.161.049H7.673c-.868 0-1.583 0-2.161-.049-.599-.05-1.148-.159-1.656-.433a4 4 0 0 1-1.76-1.912c-.23-.529-.293-1.086-.294-1.687 0-.58.059-1.292.131-2.158L2.64 7.28c.062-.743.113-1.358.195-1.859.085-.521.214-.997.473-1.44a4 4 0 0 1 1.726-1.588c.463-.222.948-.31 1.475-.352C7.014 2 7.632 2 8.377 2ZM6.666 4.034c-.406.032-.618.09-.769.162a2 2 0 0 0-.863.794c-.085.145-.16.35-.225.752-.068.414-.113.95-.18 1.742l-.7 8.4c-.076.92-.127 1.547-.127 2.034 0 .475.053.717.127.885a2 2 0 0 0 .88.956c.16.087.397.16.871.2.484.04 1.114.041 2.037.041h8.566c.923 0 1.553 0 2.037-.042.474-.04.71-.112.872-.2a2 2 0 0 0 .88-.955c.073-.168.125-.41.126-.886 0-.486-.051-1.113-.128-2.033l-.7-8.4c-.066-.792-.111-1.328-.179-1.742-.065-.401-.14-.607-.225-.752a2 2 0 0 0-.863-.794c-.152-.073-.363-.13-.769-.162C16.916 4 16.378 4 15.584 4H8.416c-.795 0-1.333 0-1.751.034ZM8 7a1 1 0 0 1 1 1 3 3 0 1 0 6 0 1 1 0 1 1 2 0A5 5 0 1 1 7 8a1 1 0 0 1 1-1Z" clip-rule="evenodd"/>
</svg>
