<svg xmlns="http://www.w3.org/2000/svg" width="24" height="24" viewBox="0 0 24 24">
  <path fill-rule="evenodd" d="M8 9a1 1 0 0 1 1 1 3 3 0 0 0 6 0 1 1 0 1 1 2 0 5 5 0 1 1-10 0 1 1 0 0 1 1-1Z" clip-rule="evenodd" opacity=".5"/>
  <path fill-rule="evenodd" d="M6.739 1h10.523c.226 0 .512-.002.787.077a2 2 0 0 1 .66.33c.228.173.399.402.534.584l.037.049 1.581 2.108.043.057.256.342.04.053c.198.264.373.497.5.76.113.233.195.478.244.731C22 6.38 22 6.67 22 7v11.839c0 .527 0 .982-.03 1.356-.033.395-.104.789-.297 1.167a3 3 0 0 1-1.311 1.311c-.378.193-.772.264-1.167.297-.375.03-.83.03-1.356.03H6.16c-.527 0-.981 0-1.356-.03-.395-.033-.789-.104-1.167-.297a3 3 0 0 1-1.311-1.311c-.193-.378-.264-.772-.296-1.167C2 19.82 2 19.365 2 18.84V7c0-.33 0-.621.056-.909a3 3 0 0 1 .243-.73c.128-.264.303-.497.5-.76l.041-.054.257-.343.042-.056.019-.025.002-.003 1.56-2.08.037-.05c.135-.181.306-.41.534-.583a2 2 0 0 1 .66-.33c.275-.079.56-.078.788-.077ZM6.32 3.24 5 5h14l-1.32-1.76a6.252 6.252 0 0 0-.179-.233l-.003-.003h-.004A6.376 6.376 0 0 0 17.2 3H6.8c-.157 0-.236 0-.294.003h-.004a6.369 6.369 0 0 0-.182.236ZM20 6.99c-.173.01-.372.01-.565.01H4.565C4.372 7 4.173 7 4 6.99V18.8c0 .577 0 .949.024 1.232.022.272.06.373.085.422a1 1 0 0 0 .437.437c.05.025.15.063.422.085C5.25 21 5.623 21 6.2 21h11.6c.577 0 .949 0 1.232-.024.272-.022.373-.06.422-.085a1 1 0 0 0 .437-.437c.025-.05.063-.15.085-.422C20 19.75 20 19.377 20 18.8V6.989Z" clip-rule="evenodd"/>
</svg>
