<svg xmlns="http://www.w3.org/2000/svg" width="24" height="24" viewBox="0 0 24 24">
  <path fill-rule="evenodd" d="M8.332 5h7.336c.739 0 1.35 0 1.852.04.522.04 1.003.128 1.463.346a4 4 0 0 1 1.723 1.569c.26.437.393.908.482 1.425.086.495.143 1.104.212 1.84l.608 6.482c.082.873.149 1.59.154 2.176.006.605-.052 1.167-.281 1.701a4 4 0 0 1-1.76 1.933c-.51.278-1.064.388-1.668.439-.583.049-1.304.049-2.18.049H7.728c-.877 0-1.598 0-2.181-.05-.604-.05-1.158-.16-1.668-.438a4 4 0 0 1-1.76-1.933c-.23-.534-.287-1.096-.281-1.701.005-.585.072-1.303.154-2.176L2.6 10.22c.069-.736.126-1.345.212-1.84.09-.517.222-.988.482-1.425a4 4 0 0 1 1.723-1.569c.46-.218.94-.306 1.463-.347C6.982 5 7.594 5 8.332 5ZM6.637 7.033c-.402.032-.612.089-.763.16a2 2 0 0 0-.86.784c-.086.144-.163.347-.231.745-.071.409-.122.94-.195 1.723l-.6 6.4c-.087.927-.146 1.56-.15 2.051-.005.48.046.725.119.893a2 2 0 0 0 .88.967c.161.088.4.161.878.202.49.041 1.125.042 2.056.042h8.458c.931 0 1.567 0 2.056-.042.478-.04.717-.114.878-.202a2 2 0 0 0 .88-.966c.073-.17.124-.414.12-.894-.005-.49-.064-1.124-.15-2.05l-.6-6.4c-.074-.785-.125-1.315-.196-1.724-.068-.398-.145-.601-.23-.745a2 2 0 0 0-.861-.784c-.15-.071-.36-.128-.763-.16C16.95 7.001 16.416 7 15.63 7H8.371c-.787 0-1.32 0-1.734.033Z" clip-rule="evenodd" opacity=".5"/>
  <path fill-rule="evenodd" d="M12 3a3 3 0 0 0-3 3v3a1 1 0 0 1-2 0V6a5 5 0 0 1 10 0v3a1 1 0 1 1-2 0V6a3 3 0 0 0-3-3Z" clip-rule="evenodd"/>
</svg>
