<svg xmlns="http://www.w3.org/2000/svg" width="24" height="24" fill="currentColor" viewBox="0 0 24 24">
  <path fill-rule="evenodd" d="M3.146 3H2a1 1 0 1 1 0-2h1.336c.104 0 .23 0 .341.008a1.5 1.5 0 0 1 .513.125c.26.117.48.306.637.544.118.18.172.358.203.487.026.11.045.234.061.335l.003.02L5.486 5h15.582c.14 0 .304 0 .445.012.16.014.398.05.64.19a1.5 1.5 0 0 1 .66.79c.094.263.087.505.072.664a5.352 5.352 0 0 1-.068.44l-1.361 7.49c-.08.438-.15.82-.232 1.134-.087.334-.204.66-.412.967a3 3 0 0 1-1.265 1.056c-.34.15-.681.207-1.026.233-.323.024-.712.024-1.157.024H7.539l.315 2H19a1 1 0 1 1 0 2H7.663c-.103 0-.228 0-.34-.008a1.503 1.503 0 0 1-.513-.125 1.5 1.5 0 0 1-.637-.544 1.503 1.503 0 0 1-.203-.487 4.664 4.664 0 0 1-.061-.335L3.146 3Zm4.077 13h10.106c.49 0 .803 0 1.043-.019.227-.017.316-.046.364-.067a1 1 0 0 0 .422-.352c.03-.043.074-.126.131-.346.06-.233.117-.54.205-1.022L20.802 7h-15l1.42 9Z" clip-rule="evenodd"/>
</svg>
