<svg xmlns="http://www.w3.org/2000/svg" width="24" height="24" fill="currentColor" viewBox="0 0 24 24">
  <path fill-rule="evenodd" d="M7 7.013V9a1 1 0 0 0 2 0V7h6v2a1 1 0 1 0 2 0V7.013c.132.005.252.011.364.02.401.032.611.089.762.16a2 2 0 0 1 .861.784c.086.144.162.347.23.745.072.409.122.94.196 1.723l.6 6.4c.087.927.145 1.56.15 2.051.004.48-.047.725-.12.893a2 2 0 0 1-.88.967c-.16.088-.4.161-.878.202-.489.041-1.125.042-2.056.042H7.771c-.93 0-1.566 0-2.055-.042-.479-.04-.717-.114-.879-.202a2 2 0 0 1-.88-.966c-.072-.17-.123-.414-.119-.894.005-.49.063-1.124.15-2.05l.6-6.4c.074-.785.124-1.315.195-1.724.069-.398.145-.601.23-.745a2 2 0 0 1 .862-.784c.15-.071.36-.128.762-.16A8.73 8.73 0 0 1 7 7.013Zm9.902-2.004c.223.006.428.015.618.03.523.041 1.004.13 1.464.347a4 4 0 0 1 1.722 1.569c.26.437.393.908.482 1.425.086.495.143 1.104.212 1.84l.608 6.482c.082.873.15 1.59.155 2.176.005.605-.053 1.167-.282 1.701a4 4 0 0 1-1.76 1.933c-.51.278-1.064.388-1.667.439C17.87 23 17.15 23 16.273 23H7.728c-.877 0-1.598 0-2.181-.05-.603-.05-1.157-.16-1.667-.438a4 4 0 0 1-1.76-1.933c-.23-.534-.287-1.096-.282-1.701.006-.585.073-1.303.155-2.176L2.6 10.22c.07-.736.126-1.345.212-1.84.09-.517.222-.988.483-1.425a4 4 0 0 1 1.722-1.569c.46-.218.941-.306 1.464-.347.19-.015.395-.024.617-.03a5.002 5.002 0 0 1 9.804 0ZM14.83 5a3.001 3.001 0 0 0-5.66 0h5.659Z" clip-rule="evenodd"/>
</svg>
