<svg xmlns="http://www.w3.org/2000/svg" width="24" height="24" viewBox="0 0 24 24">
  <path d="M18.136 14H4.75l-.563-9h16.92c.309 0 .463 0 .576.062a.5.5 0 0 1 .22.246c.05.12.033.273-.002.58l-.585 5.265c-.112 1.007-.168 1.51-.4 1.89a2 2 0 0 1-.858.768c-.403.189-.91.189-1.922.189Z" opacity=".2"/>
  <path fill-rule="evenodd" d="M3.06 3H2a1 1 0 1 1 0-2h1.27c.113 0 .248 0 .368.01.14.01.338.04.548.141.274.133.5.346.65.61.115.203.155.4.175.538.017.12.026.255.033.367v.022L5.128 4h16.004c.132 0 .287 0 .422.011.154.014.38.047.613.176a1.5 1.5 0 0 1 .66.737c.102.246.111.475.107.63a4.82 4.82 0 0 1-.035.42l-.592 5.326c-.052.472-.098.883-.162 1.22-.068.359-.17.71-.374 1.045a3 3 0 0 1-1.288 1.152c-.354.166-.715.228-1.079.256-.342.027-.755.027-1.231.027H5.814l.125 2H19a1 1 0 1 1 0 2H5.73c-.113 0-.248 0-.368-.01a1.506 1.506 0 0 1-.548-.141 1.5 1.5 0 0 1-.65-.61 1.505 1.505 0 0 1-.175-.538 4.806 4.806 0 0 1-.033-.367v-.022L3.06 3Zm-.011-.188.087-.005a.5.5 0 0 0 .176.143.614.614 0 0 0 .168.053M5.69 13h12.446c.522 0 .856 0 1.112-.02.244-.02.337-.052.386-.074a1 1 0 0 0 .43-.384c.027-.046.07-.136.115-.376.048-.252.086-.584.143-1.103L20.882 6H5.253l.437 7ZM6 21.5a1.5 1.5 0 1 1 3 0 1.5 1.5 0 0 1-3 0Zm9 0a1.5 1.5 0 1 1 3 0 1.5 1.5 0 0 1-3 0Z" clip-rule="evenodd"/>
</svg>
