<svg xmlns="http://www.w3.org/2000/svg" width="24" height="24" fill="currentColor" viewBox="0 0 24 24">
  <path fill-rule="evenodd" d="M8.377 2h7.245c.746 0 1.363 0 1.869.04.527.041 1.012.13 1.475.352a4 4 0 0 1 1.726 1.588c.259.443.388.919.473 1.44.082.5.133 1.116.195 1.86l.707 8.482c.072.865.131 1.577.13 2.157 0 .601-.063 1.158-.294 1.687a4 4 0 0 1-1.76 1.912c-.507.274-1.057.383-1.655.433-.579.049-1.293.049-2.162.049H7.673c-.869 0-1.583 0-2.161-.049-.6-.05-1.149-.159-1.656-.433a4 4 0 0 1-1.76-1.912c-.231-.529-.294-1.086-.294-1.687 0-.58.059-1.292.13-2.158L2.64 7.28c.061-.743.113-1.358.194-1.859.086-.521.215-.997.474-1.44a4 4 0 0 1 1.725-1.588c.463-.222.948-.31 1.475-.352C7.014 2 7.631 2 8.377 2ZM6.665 4.034c-.405.032-.617.09-.768.162a2 2 0 0 0-.863.794c-.085.145-.16.35-.226.752-.067.414-.113.95-.179 1.742l-.7 8.4c-.076.92-.128 1.547-.127 2.034 0 .475.053.717.126.885a2 2 0 0 0 .88.956c.16.087.398.16.872.2.484.04 1.114.041 2.036.041h8.567c.922 0 1.552 0 2.037-.042.473-.04.71-.112.871-.2a2 2 0 0 0 .88-.955c.073-.168.126-.41.126-.886 0-.486-.05-1.113-.127-2.033l-.7-8.4c-.066-.792-.112-1.328-.18-1.742-.065-.401-.14-.607-.225-.752a2 2 0 0 0-.863-.794c-.15-.073-.362-.13-.768-.162C16.916 4 16.378 4 15.583 4H8.416c-.795 0-1.333 0-1.75.034ZM8 7a1 1 0 0 1 1 1 3 3 0 1 0 6 0 1 1 0 1 1 2 0A5 5 0 1 1 7 8a1 1 0 0 1 1-1Z" clip-rule="evenodd"/>
</svg>
