<svg xmlns="http://www.w3.org/2000/svg" width="24" height="24" viewBox="0 0 24 24">
  <path fill-rule="evenodd" d="M2.293 2.293a1 1 0 0 1 1.414 0l6 6a1 1 0 0 1-1.414 1.414l-6-6a1 1 0 0 1 0-1.414Zm12 12a1 1 0 0 1 1.414 0L20 18.586V16a1 1 0 1 1 2 0v5a1 1 0 0 1-1 1h-5a1 1 0 1 1 0-2h2.586l-4.293-4.293a1 1 0 0 1 0-1.414Z" clip-rule="evenodd" opacity=".5"/>
  <path fill-rule="evenodd" d="M16 4a1 1 0 1 1 0-2h5a1 1 0 0 1 1 1v5a1 1 0 1 1-2 0V5.414L3.707 21.707a1 1 0 0 1-1.414-1.414L18.586 4H16Z" clip-rule="evenodd"/>
</svg>
