<svg xmlns="http://www.w3.org/2000/svg" width="24" height="24" viewBox="0 0 24 24">
  <path fill-rule="evenodd" d="M17.293 2.293a1 1 0 0 1 1.414 0l3 3a1 1 0 0 1 0 1.414l-3 3a1 1 0 0 1-1.414-1.414L18.586 7h-.017c-1.002 0-1.294.01-1.545.086a2 2 0 0 0-.688.369c-.203.166-.373.404-.929 1.237l-5.15 7.725-.073.11c-.45.675-.788 1.184-1.25 1.563a4 4 0 0 1-1.377.737c-.572.174-1.183.173-1.994.173H3a1 1 0 1 1 0-2h2.431c1.002 0 1.294-.01 1.545-.086a2 2 0 0 0 .688-.369c.203-.166.373-.404.929-1.237l5.15-7.725.073-.11c.45-.675.788-1.184 1.25-1.563a4.001 4.001 0 0 1 1.377-.737c.572-.174 1.183-.174 1.994-.173h.149l-1.293-1.293a1 1 0 0 1 0-1.414ZM6.976 7.086C6.725 7.01 6.433 7 5.43 7H3a1 1 0 0 1 0-2h2.563c.81 0 1.422 0 1.994.173a4 4 0 0 1 1.377.737c.462.379.8.888 1.25 1.563l.073.11.242.362a1 1 0 1 1-1.664 1.11l-.242-.363c-.556-.833-.726-1.07-.929-1.237a2 2 0 0 0-.688-.369Zm10.317 7.207a1 1 0 0 1 1.414 0l3 3a1 1 0 0 1 0 1.414l-3 3a1 1 0 0 1-1.414-1.414L18.586 19h-.149c-.81 0-1.422 0-1.994-.173a4 4 0 0 1-1.377-.737c-.462-.379-.8-.888-1.25-1.563a69.415 69.415 0 0 0-.073-.11l-.242-.362a1 1 0 1 1 1.664-1.11l.242.363c.556.833.726 1.07.929 1.237.203.167.437.292.688.369.251.076.543.086 1.545.086h.017l-1.293-1.293a1 1 0 0 1 0-1.414Z" clip-rule="evenodd"/>
</svg>
