<svg xmlns="http://www.w3.org/2000/svg" width="24" height="24" viewBox="0 0 24 24">
  <path fill-rule="evenodd" d="M5.636 4.222a1 1 0 0 1 0 1.414 9 9 0 0 0 0 12.728 1 1 0 1 1-1.414 1.414c-4.296-4.296-4.296-11.26 0-15.556a1 1 0 0 1 1.414 0Zm12.728 0a1 1 0 0 1 1.414 0c4.296 4.296 4.296 11.26 0 15.556a1 1 0 0 1-1.414-1.414 9 9 0 0 0 0-12.728 1 1 0 0 1 0-1.414Zm-9.9 2.828a1 1 0 0 1 0 1.414 5 5 0 0 0 0 7.072A1 1 0 1 1 7.05 16.95a7 7 0 0 1 0-9.9 1 1 0 0 1 1.414 0Zm7.072 0a1 1 0 0 1 1.414 0 7 7 0 0 1 0 9.9 1 1 0 1 1-1.414-1.414 5 5 0 0 0 0-7.072 1 1 0 0 1 0-1.414Z" clip-rule="evenodd" opacity=".5"/>
  <path fill-rule="evenodd" d="M12 11a1 1 0 1 0 0 2 1 1 0 0 0 0-2Zm-3 1a3 3 0 1 1 6 0 3 3 0 0 1-6 0Z" clip-rule="evenodd"/>
</svg>
