<svg xmlns="http://www.w3.org/2000/svg" width="24" height="24" viewBox="0 0 24 24">
  <path fill-rule="evenodd" d="M13.224 3.055c-.203-.049-.43-.055-1.212-.055H8.8c-.857 0-1.439 0-1.889.038-.438.035-.663.1-.819.18a2 2 0 0 0-.874.874c-.08.156-.145.38-.18.819C5 5.361 5 5.943 5 6.8v10.4c0 .857 0 1.439.038 1.889.035.438.1.663.18.819a2 2 0 0 0 .874.874c.156.08.38.145.819.18C7.361 21 7.943 21 8.8 21h6.4c.857 0 1.439 0 1.889-.038.438-.035.663-.1.819-.18a2 2 0 0 0 .874-.874c.08-.156.145-.38.18-.819.037-.45.038-1.032.038-1.889V9.988c0-.781-.006-1.009-.055-1.212a2.01 2.01 0 0 0-.24-.578c-.109-.179-.265-.344-.818-.897l-3.188-3.188c-.553-.553-.718-.709-.897-.818a2.002 2.002 0 0 0-.578-.24ZM12.114 1c.635 0 1.114 0 1.577.11a4 4 0 0 1 1.156.48c.406.248.745.588 1.194 1.037l.072.072 3.188 3.188.072.072c.45.449.789.788 1.038 1.194a4 4 0 0 1 .479 1.156c.11.463.11.942.11 1.577v7.355c0 .805 0 1.47-.044 2.01-.046.563-.145 1.08-.392 1.565a4 4 0 0 1-1.748 1.748c-.485.247-1.002.346-1.564.392-.541.044-1.206.044-2.01.044H8.758c-.805 0-1.47 0-2.01-.044-.563-.046-1.08-.145-1.565-.392a4 4 0 0 1-1.748-1.748c-.247-.485-.346-1.002-.392-1.564C3 18.71 3 18.046 3 17.242V6.758c0-.805 0-1.47.044-2.01.046-.563.145-1.08.392-1.565a4 4 0 0 1 1.748-1.748c.485-.247 1.002-.346 1.564-.392C7.29 1 7.954 1 8.758 1h3.356Z" clip-rule="evenodd" opacity=".5"/>
  <path fill-rule="evenodd" d="M8.777 12h6.446c.12 0 .261 0 .387.01.145.012.353.042.571.154a1.5 1.5 0 0 1 .655.655c.112.218.142.426.154.571.01.125.01.268.01.387v3.446c0 .12 0 .262-.01.387a1.508 1.508 0 0 1-.153.571 1.5 1.5 0 0 1-.656.655 1.507 1.507 0 0 1-.571.154c-.125.01-.268.01-.387.01H8.777c-.12 0-.261 0-.387-.01a1.508 1.508 0 0 1-.571-.153 1.5 1.5 0 0 1-.655-.656 1.508 1.508 0 0 1-.154-.571 4.927 4.927 0 0 1-.01-.387v-3.446c0-.12 0-.261.01-.387.012-.145.042-.353.154-.571a1.5 1.5 0 0 1 .655-.655c.218-.112.426-.142.571-.154.125-.01.268-.01.387-.01ZM9 14v3h6v-3H9Z" clip-rule="evenodd"/>
</svg>
