<svg xmlns="http://www.w3.org/2000/svg" width="24" height="24" viewBox="0 0 24 24">
  <path d="M4 4.6c0-.56 0-.84.109-1.054a1 1 0 0 1 .437-.437C4.76 3 5.04 3 5.6 3h.8c.56 0 .84 0 1.054.109a1 1 0 0 1 .437.437C8 3.76 8 4.04 8 4.6v.8c0 .56 0 .84-.109 1.054a1 1 0 0 1-.437.437C7.24 7 6.96 7 6.4 7h-.8c-.56 0-.84 0-1.054-.109a1 1 0 0 1-.437-.437C4 6.24 4 5.96 4 5.4v-.8Zm-2 14c0-.56 0-.84.109-1.054a1 1 0 0 1 .437-.437C2.76 17 3.04 17 3.6 17h.8c.56 0 .84 0 1.054.109a1 1 0 0 1 .437.437C6 17.76 6 18.04 6 18.6v.8c0 .56 0 .84-.109 1.054a1 1 0 0 1-.437.437C5.24 21 4.96 21 4.4 21h-.8c-.56 0-.84 0-1.054-.109a1 1 0 0 1-.437-.437C2 20.24 2 19.96 2 19.4v-.8Zm16-14c0-.56 0-.84.109-1.054a1 1 0 0 1 .437-.437C18.76 3 19.04 3 19.6 3h.8c.56 0 .84 0 1.054.109a1 1 0 0 1 .437.437C22 3.76 22 4.04 22 4.6v.8c0 .56 0 .84-.109 1.054a1 1 0 0 1-.437.437C21.24 7 20.96 7 20.4 7h-.8c-.56 0-.84 0-1.054-.109a1 1 0 0 1-.437-.437C18 6.24 18 5.96 18 5.4v-.8Zm-2 14c0-.56 0-.84.109-1.054a1 1 0 0 1 .437-.437C16.76 17 17.04 17 17.6 17h.8c.56 0 .84 0 1.054.109a1 1 0 0 1 .437.437C20 17.76 20 18.04 20 18.6v.8c0 .56 0 .84-.109 1.054a1 1 0 0 1-.437.437C19.24 21 18.96 21 18.4 21h-.8c-.56 0-.84 0-1.054-.109a1 1 0 0 1-.437-.437C16 20.24 16 19.96 16 19.4v-.8Z" opacity=".2"/>
  <path fill-rule="evenodd" d="M5.568 2h.864c.252 0 .498 0 .706.017.229.019.499.063.77.201a2 2 0 0 1 .874.874c.138.271.182.541.201.77.004.044.007.09.009.138h8.016c.003-.048.005-.094.009-.138a2.02 2.02 0 0 1 .201-.77 2 2 0 0 1 .874-.874 2.03 2.03 0 0 1 .77-.201C19.07 2 19.316 2 19.568 2h.864c.252 0 .498 0 .706.017.229.019.499.063.77.201a2 2 0 0 1 .874.874c.138.271.182.541.201.77.017.208.017.454.017.706v.864c0 .252 0 .498-.017.706a2.022 2.022 0 0 1-.201.77 2 2 0 0 1-.874.874 2.022 2.022 0 0 1-.77.201 7.327 7.327 0 0 1-.557.017l-1.15 8.056c.152.03.314.08.477.162a2 2 0 0 1 .874.874c.138.271.182.541.201.77.017.208.017.454.017.706v.864c0 .252 0 .498-.017.706a2.022 2.022 0 0 1-.201.77 2 2 0 0 1-.874.874 2.022 2.022 0 0 1-.77.201c-.208.017-.454.017-.706.017h-.864c-.252 0-.498 0-.706-.017a2.022 2.022 0 0 1-.77-.201 2 2 0 0 1-.874-.874 2.022 2.022 0 0 1-.201-.77 4.264 4.264 0 0 1-.009-.138H6.992a4.022 4.022 0 0 1-.009.138 2.022 2.022 0 0 1-.201.77 2 2 0 0 1-.874.874 2.022 2.022 0 0 1-.77.201C4.93 22 4.684 22 4.432 22h-.864c-.252 0-.498 0-.706-.017a2.022 2.022 0 0 1-.77-.201 2 2 0 0 1-.874-.874 2.022 2.022 0 0 1-.201-.77C1 19.93 1 19.684 1 19.432v-.864c0-.252 0-.498.017-.706a2.03 2.03 0 0 1 .201-.77 2 2 0 0 1 .874-.874 2.03 2.03 0 0 1 .77-.201C3.057 16 3.285 16 3.52 16l1.43-8.01a3.74 3.74 0 0 1-.088-.007 2.021 2.021 0 0 1-.77-.201 2 2 0 0 1-.874-.874 2.022 2.022 0 0 1-.201-.77C3 5.93 3 5.684 3 5.432v-.864c0-.252 0-.498.017-.706a2.03 2.03 0 0 1 .201-.77 2 2 0 0 1 .874-.874 2.03 2.03 0 0 1 .77-.201C5.07 2 5.316 2 5.568 2Zm.592 4a.98.98 0 0 0-.037 0H5.6a8.184 8.184 0 0 1-.589-.011v-.014A8.185 8.185 0 0 1 5 5.4v-.8a8.186 8.186 0 0 1 .011-.589h.014C5.14 4 5.303 4 5.6 4h.8a8.192 8.192 0 0 1 .589.011v.014C7 4.14 7 4.303 7 4.6v.8a8.183 8.183 0 0 1-.011.589h-.014C6.86 6 6.697 6 6.4 6h-.24Zm.821 1.993L5.537 16.08c.12.03.246.074.371.138a2 2 0 0 1 .874.874c.138.271.182.541.201.77.004.044.007.09.009.138h8.016c.003-.048.005-.094.009-.138a2.03 2.03 0 0 1 .201-.77 2 2 0 0 1 .874-.874 2.03 2.03 0 0 1 .77-.201 7.33 7.33 0 0 1 .556-.017l1.151-8.056a1.812 1.812 0 0 1-.477-.162 2 2 0 0 1-.874-.874 2.02 2.02 0 0 1-.201-.77A4.006 4.006 0 0 1 17.008 6H8.992a4.035 4.035 0 0 1-.009.138 2.022 2.022 0 0 1-.201.77 2 2 0 0 1-.874.874 2.021 2.021 0 0 1-.77.201 4.14 4.14 0 0 1-.157.01ZM19 5.4a8.205 8.205 0 0 0 .012.589h.013c.116.01.279.011.575.011h.8c.297 0 .459 0 .575-.01l.014-.001v-.014C21 5.86 21 5.697 21 5.4v-.8a8.205 8.205 0 0 0-.012-.589h-.013A8.194 8.194 0 0 0 20.4 4h-.8a8.194 8.194 0 0 0-.588.011l-.002.014C19 4.14 19 4.303 19 4.6v.8ZM18.28 18h-.68c-.297 0-.459 0-.575.01l-.013.001-.002.014c-.01.116-.01.279-.01.575v.8a8.207 8.207 0 0 0 .012.588l.013.002c.116.01.279.01.575.01h.8a8.207 8.207 0 0 0 .589-.012v-.013c.01-.116.011-.279.011-.575v-.8a8.207 8.207 0 0 0-.012-.589h-.013A8.207 8.207 0 0 0 18.4 18h-.12ZM5 18.6a8.185 8.185 0 0 0-.011-.589h-.014A8.205 8.205 0 0 0 4.4 18h-.8c-.297 0-.459 0-.575.01l-.014.001v.014C3 18.14 3 18.304 3 18.6v.8a8.187 8.187 0 0 0 .011.588l.014.002c.116.01.278.01.575.01h.8a8.205 8.205 0 0 0 .589-.012v-.013C5 19.86 5 19.696 5 19.4v-.8Z" clip-rule="evenodd"/>
</svg>
