<svg xmlns="http://www.w3.org/2000/svg" width="24" height="24" viewBox="0 0 24 24">
  <path fill-rule="evenodd" d="M5 4a1 1 0 0 1 1 1v14a1 1 0 1 1-2 0V5a1 1 0 0 1 1-1Z" clip-rule="evenodd" opacity=".5"/>
  <path fill-rule="evenodd" d="M17.998 4.08a2 2 0 0 1 1.565.753c.302.379.375.834.406 1.172.031.347.031.785.031 1.28v9.43c0 .495 0 .933-.031 1.28-.031.338-.104.793-.406 1.172a2 2 0 0 1-1.565.752c-.485 0-.886-.228-1.17-.415-.29-.192-.631-.466-1.018-.775l-5.9-4.721a9.93 9.93 0 0 1-.65-.548 2.043 2.043 0 0 1-.531-.758 2 2 0 0 1 0-1.404c.125-.334.34-.576.53-.758.178-.17.408-.354.65-.547l.029-.023 5.872-4.7c.387-.31.729-.583 1.019-.775.283-.187.684-.415 1.169-.415Zm-.066 2.085c-.205.135-.475.35-.907.695l-5.839 4.671a9.382 9.382 0 0 0-.56.469l.014.014c.106.101.265.23.546.455l5.84 4.67c.43.346.701.56.906.696l.04.026.005-.047c.022-.245.023-.59.023-1.143V7.329c0-.553-.001-.898-.023-1.143a2.893 2.893 0 0 0-.005-.047 2.267 2.267 0 0 0-.04.026Z" clip-rule="evenodd"/>
</svg>
