<svg xmlns="http://www.w3.org/2000/svg" width="24" height="24" viewBox="0 0 24 24">
  <path fill-rule="evenodd" d="M19 4a1 1 0 0 1 1 1v14a1 1 0 1 1-2 0V5a1 1 0 0 1 1-1Z" clip-rule="evenodd" opacity=".5"/>
  <path fill-rule="evenodd" d="M4.437 4.833a2 2 0 0 1 1.565-.752c.485 0 .886.228 1.17.415.29.192.631.466 1.017.775l.035.028 5.867 4.694c.243.193.473.377.65.547.191.182.406.424.531.758a2 2 0 0 1 0 1.404c-.125.334-.34.576-.53.758-.178.17-.408.354-.65.547L8.188 18.73c-.386.31-.728.583-1.018.775-.283.187-.684.415-1.169.415a2 2 0 0 1-1.565-.752c-.302-.379-.375-.834-.406-1.172A15.428 15.428 0 0 1 4 16.715v-9.43c0-.495 0-.933.031-1.28.031-.338.104-.793.406-1.172Zm1.591 1.306-.005.047C6.001 6.431 6 6.776 6 7.33v9.342c0 .553.001.898.023 1.143l.005.047.04-.026c.205-.135.475-.35.907-.695l5.839-4.671c.28-.225.44-.354.546-.455l.014-.014a9.382 9.382 0 0 0-.56-.469l-5.84-4.67c-.43-.346-.701-.56-.906-.696a2.238 2.238 0 0 0-.04-.026Z" clip-rule="evenodd"/>
</svg>
