<svg xmlns="http://www.w3.org/2000/svg" width="24" height="24" viewBox="0 0 24 24">
  <path fill-rule="evenodd" d="M19.777 4.223a1 1 0 0 1 0 1.414L13.414 12l6.363 6.363a1 1 0 0 1-1.414 1.414L12 13.414l-6.363 6.363a1 1 0 0 1-1.414-1.414L10.586 12 4.223 5.637a1 1 0 0 1 1.414-1.414L12 10.586l6.363-6.363a1 1 0 0 1 1.414 0Z" clip-rule="evenodd" opacity=".5"/>
  <path fill-rule="evenodd" d="M12 3a9 9 0 1 0 0 18 9 9 0 0 0 0-18ZM1 12C1 5.925 5.925 1 12 1s11 4.925 11 11-4.925 11-11 11S1 18.075 1 12Z" clip-rule="evenodd"/>
</svg>
