<svg xmlns="http://www.w3.org/2000/svg" width="24" height="24" viewBox="0 0 24 24">
  <path fill-rule="evenodd" d="M4.968 6.382A8.962 8.962 0 0 0 3 12c0 2.125.736 4.078 1.968 5.618L10.586 12 4.968 6.382Zm1.414-1.414L12 10.586l5.618-5.618A8.962 8.962 0 0 0 12 3a8.962 8.962 0 0 0-5.618 1.968Zm12.65 1.414L13.414 12l5.618 5.618A8.962 8.962 0 0 0 21 12a8.962 8.962 0 0 0-1.968-5.618Zm-1.414 12.65L12 13.414l-5.618 5.618A8.962 8.962 0 0 0 12 21a8.962 8.962 0 0 0 5.618-1.968ZM1 12C1 5.925 5.925 1 12 1s11 4.925 11 11-4.925 11-11 11S1 18.075 1 12Z" clip-rule="evenodd"/>
</svg>
