<svg xmlns="http://www.w3.org/2000/svg" width="24" height="24" viewBox="0 0 24 24">
  <path d="M12 11a2 2 0 1 0 0-4 2 2 0 0 0 0 4Zm7 6a2 2 0 1 0 0-4 2 2 0 0 0 0 4ZM5 15a2 2 0 1 0 0-4 2 2 0 0 0 0 4Z" opacity=".2"/>
  <path fill-rule="evenodd" d="M5 2a1 1 0 0 1 1 1v4a1 1 0 0 1-2 0V3a1 1 0 0 1 1-1Zm7 0a1 1 0 0 1 1 1v3.17a3.001 3.001 0 1 1-2 0V3a1 1 0 0 1 1-1Zm7 0a1 1 0 0 1 1 1v6a1 1 0 1 1-2 0V3a1 1 0 0 1 1-1Zm-7 6a1 1 0 1 0 0 2 1 1 0 0 0 0-2Zm-7 4a1 1 0 1 0 0 2 1 1 0 0 0 0-2Zm-3 1a3 3 0 1 1 4 2.83V21a1 1 0 1 1-2 0v-5.17A3.001 3.001 0 0 1 2 13Zm17 1a1 1 0 1 0 0 2 1 1 0 0 0 0-2Zm-3 1a3 3 0 1 1 4 2.83V21a1 1 0 1 1-2 0v-3.17A3.001 3.001 0 0 1 16 15Zm-4-1a1 1 0 0 1 1 1v6a1 1 0 1 1-2 0v-6a1 1 0 0 1 1-1Z" clip-rule="evenodd"/>
</svg>
