<svg xmlns="http://www.w3.org/2000/svg" width="24" height="24" viewBox="0 0 24 24">
  <path fill-rule="evenodd" d="M5 2a1 1 0 0 1 1 1v7a1 1 0 1 1-2 0V3a1 1 0 0 1 1-1Zm7 0a1 1 0 0 1 1 1v4h2a1 1 0 1 1 0 2H9a1 1 0 0 1 0-2h2V3a1 1 0 0 1 1-1Zm7 0a1 1 0 0 1 1 1v9a1 1 0 1 1-2 0V3a1 1 0 0 1 1-1Zm-7 9a1 1 0 0 1 1 1v9a1 1 0 1 1-2 0v-9a1 1 0 0 1 1-1ZM1 14a1 1 0 0 1 1-1h6a1 1 0 1 1 0 2H6v6a1 1 0 1 1-2 0v-6H2a1 1 0 0 1-1-1Zm14 2a1 1 0 0 1 1-1h6a1 1 0 1 1 0 2h-2v4a1 1 0 1 1-2 0v-4h-2a1 1 0 0 1-1-1Z" clip-rule="evenodd"/>
</svg>
