<svg xmlns="http://www.w3.org/2000/svg" width="24" height="24" viewBox="0 0 24 24">
  <path fill-rule="evenodd" d="M12 4a1 1 0 0 1 1 1v5.268l4.562-2.634a1 1 0 1 1 1 1.732L14 12l4.562 2.634a1 1 0 0 1-1 1.732L13 13.732V19a1 1 0 1 1-2 0v-5.268l-4.562 2.634a1 1 0 1 1-1-1.732L10 12 5.438 9.366a1 1 0 1 1 1-1.732L11 10.268V5a1 1 0 0 1 1-1Z" clip-rule="evenodd" opacity=".5"/>
  <path fill-rule="evenodd" d="M8.293 1.293a1 1 0 0 1 1.414 0L12 3.586l2.293-2.293a1 1 0 1 1 1.414 1.414l-3 3a1 1 0 0 1-1.414 0l-3-3a1 1 0 0 1 0-1.414Zm11.126 2.143a1 1 0 0 1 .707 1.225l-.84 3.132 3.133.84a1 1 0 0 1-.518 1.931l-4.098-1.098a1 1 0 0 1-.707-1.225l1.098-4.098a1 1 0 0 1 1.225-.707Zm-14.838 0a1 1 0 0 1 1.225.707l1.098 4.098a1 1 0 0 1-.707 1.225l-4.098 1.098a1 1 0 1 1-.518-1.932l3.132-.839-.839-3.132a1 1 0 0 1 .707-1.225Zm18.545 10.707a1 1 0 0 1-.707 1.225l-3.132.839.84 3.132a1 1 0 0 1-1.933.518l-1.098-4.098a1 1 0 0 1 .707-1.225l4.098-1.098a1 1 0 0 1 1.225.707Zm-22.252 0a1 1 0 0 1 1.225-.707l4.098 1.098a1 1 0 0 1 .707 1.225l-1.098 4.098a1 1 0 0 1-1.932-.518l.84-3.132-3.133-.84a1 1 0 0 1-.707-1.224ZM12 18a1 1 0 0 1 .707.293l3 3a1 1 0 0 1-1.414 1.414L12 20.414l-2.293 2.293a1 1 0 0 1-1.414-1.414l3-3A1 1 0 0 1 12 18Z" clip-rule="evenodd"/>
</svg>
