<svg xmlns="http://www.w3.org/2000/svg" width="24" height="24" viewBox="0 0 24 24">
  <path fill-rule="evenodd" d="M12 7a1 1 0 0 1 1 1v3h3a1 1 0 1 1 0 2h-3v3a1 1 0 1 1-2 0v-3H8a1 1 0 1 1 0-2h3V8a1 1 0 0 1 1-1Z" clip-rule="evenodd" opacity=".5"/>
  <path fill-rule="evenodd" d="M12 1a1 1 0 0 1 1 1v3.586l3.293-3.293a1 1 0 1 1 1.414 1.414l-5 5a1 1 0 0 1-1.414 0l-5-5a1 1 0 0 1 1.414-1.414L11 5.586V2a1 1 0 0 1 1-1ZM2.293 6.293a1 1 0 0 1 1.414 0l5 5a1 1 0 0 1 0 1.414l-5 5a1 1 0 0 1-1.414-1.414L5.586 13H2a1 1 0 1 1 0-2h3.586L2.293 7.707a1 1 0 0 1 0-1.414Zm19.414 0a1 1 0 0 1 0 1.414L18.414 11H22a1 1 0 1 1 0 2h-3.586l3.293 3.293a1 1 0 0 1-1.414 1.414l-5-5a1 1 0 0 1 0-1.414l5-5a1 1 0 0 1 1.414 0ZM11 18.414l-3.293 3.293a1 1 0 0 1-1.414-1.414l5-5a1 1 0 0 1 1.414 0l5 5a1 1 0 0 1-1.414 1.414L13 18.414V22a1 1 0 1 1-2 0v-3.586Z" clip-rule="evenodd"/>
</svg>
