<svg xmlns="http://www.w3.org/2000/svg" width="24" height="24" viewBox="0 0 24 24">
  <path fill-rule="evenodd" d="M3 2a1 1 0 0 1 1 1v18a1 1 0 1 1-2 0V3a1 1 0 0 1 1-1Zm18 0a1 1 0 0 1 1 1v18a1 1 0 1 1-2 0V3a1 1 0 0 1 1-1Z" clip-rule="evenodd" opacity=".5"/>
  <path fill-rule="evenodd" d="M8.555 8.168a1 1 0 0 1 .277 1.387L7.87 11h8.262l-.963-1.445a1 1 0 0 1 1.664-1.11l2 3a1 1 0 0 1 0 1.11l-2 3a1 1 0 0 1-1.664-1.11L16.13 13H7.87l.963 1.445a1 1 0 1 1-1.664 1.11l-2-3a1 1 0 0 1 0-1.11l2-3a1 1 0 0 1 1.387-.277Z" clip-rule="evenodd"/>
</svg>
