<svg xmlns="http://www.w3.org/2000/svg" width="24" height="24"  viewBox="0 0 24 24">
  <path fill-rule="evenodd" d="M1 12C1 5.925 5.925 1 12 1s11 4.925 11 11a10.95 10.95 0 0 1-2.013 6.345c-.162.23-.243.344-.365.4a.523.523 0 0 1-.34.029c-.129-.035-.235-.141-.448-.354l-.333-.333c-.614-.615-1.04-1.04-1.545-1.35a5.001 5.001 0 0 0-1.446-.599C15.933 16 15.332 16 14.463 16H9.537c-.869 0-1.47 0-2.047.138-.51.123-.998.325-1.446.599-.506.31-.93.735-1.545 1.35l-.333.333c-.213.213-.32.32-.448.354a.523.523 0 0 1-.34-.029c-.121-.056-.203-.17-.365-.4A10.95 10.95 0 0 1 1 12Zm12-9a1 1 0 1 0-2 0v2.25a1 1 0 1 0 2 0V3ZM3 11a1 1 0 1 0 0 2h2.25a1 1 0 1 0 0-2H3Zm15.75 0a1 1 0 1 0 0 2H21a1 1 0 1 0 0-2h-2.25ZM6.337 4.993a1 1 0 0 0-1.415 1.414L6.485 7.97A1 1 0 1 0 7.9 6.556L6.337 4.993Zm12.736 1.419a1 1 0 0 0-1.404-1.424l-5.021 4.95c-.043.042-.08.087-.114.134A2.002 2.002 0 0 0 10 12a2 2 0 1 0 3.928-.534 1.01 1.01 0 0 0 .124-.104l5.02-4.95Z" clip-rule="evenodd"/>
  <path d="m18.167 19.582.253.252c.213.213.32.32.354.448a.523.523 0 0 1-.03.34c-.055.122-.17.203-.4.365A10.95 10.95 0 0 1 12 23a10.95 10.95 0 0 1-6.345-2.013c-.23-.162-.344-.243-.4-.365a.523.523 0 0 1-.029-.34c.035-.129.141-.235.354-.448l.253-.252c.725-.726.977-.969 1.256-1.14.269-.164.561-.285.868-.359.318-.076.668-.083 1.694-.083h4.698c1.026 0 1.376.006 1.695.083a3 3 0 0 1 .867.36c.279.17.531.413 1.256 1.139Z"/>
</svg>
