<svg xmlns="http://www.w3.org/2000/svg" width="24" height="24" viewBox="0 0 24 24">
  <path fill-rule="evenodd" d="M12 1a1 1 0 0 1 1 1v2.5a1 1 0 1 1-2 0V2a1 1 0 0 1 1-1ZM4.215 4.293a1 1 0 0 1 1.414 0l1.736 1.736a1 1 0 0 1-1.414 1.415L4.215 5.707a1 1 0 0 1 0-1.414ZM1 12a1 1 0 0 1 1-1h2.5a1 1 0 1 1 0 2H2a1 1 0 0 1-1-1Zm17.5 0a1 1 0 0 1 1-1H22a1 1 0 1 1 0 2h-2.5a1 1 0 0 1-1-1ZM7.404 16.596a1 1 0 0 1 0 1.414L5.63 19.785a1 1 0 1 1-1.414-1.414l1.775-1.775a1 1 0 0 1 1.414 0Zm9.194.002a1 1 0 0 1 1.414 0l1.773 1.773a1 1 0 1 1-1.414 1.415l-1.773-1.774a1 1 0 0 1 0-1.414ZM12 18.5a1 1 0 0 1 1 1V22a1 1 0 1 1-2 0v-2.5a1 1 0 0 1 1-1Z" clip-rule="evenodd" opacity=".5"/>
  <path fill-rule="evenodd" d="M12 3a9 9 0 1 0 7.062 3.42l-4.352 4.291a3 3 0 1 1-1.412-1.417L17.655 5A8.962 8.962 0 0 0 12 3ZM1 12C1 5.925 5.925 1 12 1s11 4.925 11 11-4.925 11-11 11S1 18.075 1 12Zm11-1a1 1 0 1 0 0 2 1 1 0 0 0 0-2Z" clip-rule="evenodd"/>
</svg>
