<svg xmlns="http://www.w3.org/2000/svg" width="24" height="24" viewBox="0 0 24 24">
  <path fill-rule="evenodd" d="M3.055 11H4.5a1 1 0 1 1 0 2H3.055a8.957 8.957 0 0 0 1.915 4.62c.384-.374.708-.659 1.074-.883a5.002 5.002 0 0 1 1.446-.599C8.067 16 8.668 16 9.537 16h4.926c.869 0 1.47 0 2.047.138.51.123.998.325 1.446.599.366.224.69.51 1.074.883A8.957 8.957 0 0 0 20.945 13H19.5a1 1 0 1 1 0-2h1.445a8.957 8.957 0 0 0-1.883-4.58l-4.352 4.291a3 3 0 1 1-1.412-1.417L17.655 5A8.958 8.958 0 0 0 13 3.055V4.5a1 1 0 1 1-2 0V3.055a8.958 8.958 0 0 0-4.661 1.948l1.026 1.026a1 1 0 0 1-1.414 1.415L4.933 6.426A8.957 8.957 0 0 0 3.055 11Zm16.83 8.67A10.964 10.964 0 0 0 23 12c0-6.075-4.925-11-11-11S1 5.925 1 12c0 2.983 1.187 5.689 3.115 7.67a1.002 1.002 0 0 0 .215.215A10.964 10.964 0 0 0 12 23c2.983 0 5.689-1.187 7.67-3.115a1.014 1.014 0 0 0 .215-.215Zm-2.27-.636c-.332-.321-.512-.474-.704-.592a3 3 0 0 0-.867-.36c-.319-.076-.669-.082-1.695-.082H9.651c-1.026 0-1.376.006-1.694.083a3 3 0 0 0-.868.36c-.192.117-.372.27-.704.591A8.962 8.962 0 0 0 12 21a8.961 8.961 0 0 0 5.615-1.966ZM12 11a1 1 0 1 0 0 2 1 1 0 0 0 0-2Z" clip-rule="evenodd"/>
</svg>
