<svg xmlns="http://www.w3.org/2000/svg" width="24" height="24" viewBox="0 0 24 24">
  <path fill-rule="evenodd" d="M12 1a1 1 0 0 1 1 1v2.5a1 1 0 1 1-2 0V2a1 1 0 0 1 1-1ZM4.215 4.293a1 1 0 0 1 1.414 0l1.736 1.736a1 1 0 0 1-1.414 1.415L4.215 5.707a1 1 0 0 1 0-1.414ZM1 12a1 1 0 0 1 1-1h2.5a1 1 0 1 1 0 2H2a1 1 0 0 1-1-1Zm17.5 0a1 1 0 0 1 1-1H22a1 1 0 1 1 0 2h-2.5a1 1 0 0 1-1-1Zm-2.456 6.083c-.319-.077-.669-.083-1.695-.083H9.651c-1.026 0-1.376.006-1.694.083a3 3 0 0 0-.868.36c-.279.17-.53.413-1.256 1.139l-.204.203a1 1 0 1 1-1.414-1.414l.203-.203.08-.081c.615-.615 1.04-1.04 1.546-1.35a5.002 5.002 0 0 1 1.446-.599C8.067 16 8.668 16 9.537 16h4.926c.869 0 1.47 0 2.047.138.51.123.998.325 1.446.599.506.31.931.735 1.545 1.35l.08.08.204.204a1 1 0 1 1-1.414 1.415l-.204-.204c-.725-.726-.977-.969-1.256-1.14a3 3 0 0 0-.867-.36Z" clip-rule="evenodd" opacity=".5"/>
  <path fill-rule="evenodd" d="M12 3a9 9 0 1 0 7.062 3.42l-4.352 4.291a3 3 0 1 1-1.412-1.417L17.655 5A8.962 8.962 0 0 0 12 3ZM1 12C1 5.925 5.925 1 12 1s11 4.925 11 11-4.925 11-11 11S1 18.075 1 12Zm11-1a1 1 0 1 0 0 2 1 1 0 0 0 0-2Z" clip-rule="evenodd"/>
</svg>
