<svg xmlns="http://www.w3.org/2000/svg" width="24" height="24" viewBox="0 0 24 24">
  <path fill-rule="evenodd" d="M12 6a6 6 0 0 0-6 6 1 1 0 1 1-2 0 8 8 0 0 1 8-8 1 1 0 1 1 0 2Z" clip-rule="evenodd" opacity=".5"/>
  <path fill-rule="evenodd" d="M12 3a9 9 0 1 0 0 18 9 9 0 0 0 0-18ZM1 12C1 5.925 5.925 1 12 1s11 4.925 11 11-4.925 11-11 11S1 18.075 1 12Zm16.207-5.207a1 1 0 0 1 0 1.414l-3.275 3.275A2.002 2.002 0 0 1 12 14a2 2 0 1 1 .518-3.932l3.275-3.275a1 1 0 0 1 1.414 0Z" clip-rule="evenodd"/>
</svg>
