<svg xmlns="http://www.w3.org/2000/svg" width="24" height="24" viewBox="0 0 24 24">
  <path fill-rule="evenodd" d="M12 3a9 9 0 1 0 0 18 9 9 0 0 0 0-18ZM1 12C1 5.925 5.925 1 12 1s11 4.925 11 11-4.925 11-11 11S1 18.075 1 12Zm11-6a6 6 0 0 0-4.925 9.428 1 1 0 0 1-1.64 1.144 8 8 0 0 1 7.978-12.448 1 1 0 1 1-.351 1.97A6.041 6.041 0 0 0 12 6Zm5.207.793a1 1 0 0 1 0 1.414l-3.275 3.275A2.002 2.002 0 0 1 12 14a2 2 0 1 1 .518-3.932l3.275-3.275a1 1 0 0 1 1.414 0Zm1.419 2.73a1 1 0 0 1 1.19.764 8.026 8.026 0 0 1-1.25 6.285 1 1 0 1 1-1.64-1.144 6.026 6.026 0 0 0 .937-4.715 1 1 0 0 1 .763-1.19Z" clip-rule="evenodd"/>
</svg>
