<svg xmlns="http://www.w3.org/2000/svg" width="24" height="24"  viewBox="0 0 24 24">
  <path fill-rule="evenodd" d="M12 1C5.925 1 1 5.925 1 12s4.925 11 11 11 11-4.925 11-11S18.075 1 12 1Zm1 2a1 1 0 1 0-2 0v2.25a1 1 0 1 0 2 0V3Zm0 15.75a1 1 0 1 0-2 0V21a1 1 0 1 0 2 0v-2.25ZM2 12a1 1 0 0 1 1-1h2.25a1 1 0 1 1 0 2H3a1 1 0 0 1-1-1Zm16.75-1a1 1 0 1 0 0 2H21a1 1 0 1 0 0-2h-2.25Zm-2.683 5.067a1 1 0 0 1 1.414 0l1.597 1.596a1 1 0 0 1-1.415 1.415l-1.596-1.597a1 1 0 0 1 0-1.414ZM7.935 17.48a1 1 0 1 0-1.415-1.415l-1.598 1.598a1 1 0 0 0 1.415 1.415l1.598-1.598ZM4.922 4.993a1 1 0 0 1 1.415 0l1.562 1.563A1 1 0 0 1 6.485 7.97L4.922 6.407a1 1 0 0 1 0-1.414Zm14.15 1.419a1 1 0 0 0-1.403-1.424l-5.021 4.95c-.043.042-.08.087-.114.134A2.002 2.002 0 0 0 10 12a2 2 0 1 0 3.928-.534 1.01 1.01 0 0 0 .124-.104l5.02-4.95Z" clip-rule="evenodd"/>
</svg>
