<svg xmlns="http://www.w3.org/2000/svg" width="24" height="24" viewBox="0 0 24 24">
  <path d="M2 7.2c0-1.12 0-1.68.218-2.108a2 2 0 0 1 .874-.874C3.52 4 4.08 4 5.2 4h13.6c1.12 0 1.68 0 2.108.218a2 2 0 0 1 .874.874C22 5.52 22 6.08 22 7.2v6.6c0 1.12 0 1.68-.218 2.108a2 2 0 0 1-.874.874C20.48 17 19.92 17 18.8 17H5.2c-1.12 0-1.68 0-2.108-.218a2 2 0 0 1-.874-.874C2 15.48 2 14.92 2 13.8V7.2Z" opacity=".2"/>
  <path fill-rule="evenodd" d="M12 1a1 1 0 0 1 1 1v1h5.838c.528 0 .982 0 1.357.03.395.033.789.104 1.167.297a3 3 0 0 1 1.311 1.311c.193.378.264.772.296 1.167.031.375.031.83.031 1.356v6.678c0 .527 0 .981-.03 1.356-.033.395-.104.789-.297 1.167a3 3 0 0 1-1.311 1.311c-.378.193-.772.264-1.167.296-.375.031-.83.031-1.356.031h-1.425l3.293 3.293a1 1 0 0 1-1.414 1.414L14.586 18H13v4a1 1 0 1 1-2 0v-4H9.414l-4.707 4.707a1 1 0 0 1-1.414-1.414L6.586 18H5.16c-.527 0-.981 0-1.356-.03-.395-.033-.789-.104-1.167-.297a3 3 0 0 1-1.311-1.311c-.193-.378-.264-.772-.296-1.167C1 14.82 1 14.365 1 13.838V7.162c0-.527 0-.981.03-1.356.033-.395.104-.789.297-1.167a3 3 0 0 1 1.311-1.311c.378-.193.772-.264 1.167-.296C4.18 3 4.635 3 5.161 3H11V2a1 1 0 0 1 1-1ZM5.2 5c-.577 0-.949 0-1.232.024-.272.022-.373.06-.422.085a1 1 0 0 0-.437.437c-.025.05-.063.15-.085.422C3 6.25 3 6.623 3 7.2v6.6c0 .577 0 .949.024 1.232.022.272.06.373.085.422a1 1 0 0 0 .437.437c.05.025.15.063.422.085C4.25 16 4.623 16 5.2 16h13.6c.577 0 .949 0 1.232-.024.272-.022.372-.06.422-.085a1 1 0 0 0 .437-.437c.025-.05.063-.15.085-.422C21 14.75 21 14.377 21 13.8V7.2c0-.577 0-.949-.024-1.232-.022-.272-.06-.373-.085-.422a1 1 0 0 0-.437-.437c-.05-.025-.15-.063-.422-.085C19.75 5 19.377 5 18.8 5H5.2Z" clip-rule="evenodd"/>
</svg>
