<svg xmlns="http://www.w3.org/2000/svg" width="24" height="24" viewBox="0 0 24 24">
  <path d="M11.29 3.366c.23-.442.345-.663.499-.734a.5.5 0 0 1 .422 0c.154.071.27.292.499.734l1.513 2.913c.099.19.149.286.223.35a.5.5 0 0 0 .229.11c.096.018.201-.003.412-.044l3.22-.633c.49-.096.734-.144.886-.068a.5.5 0 0 1 .263.33c.04.165-.06.393-.263.848l-1.334 2.999c-.087.196-.13.294-.134.392a.5.5 0 0 0 .056.248c.046.086.128.156.292.295l2.502 2.123c.38.322.57.484.606.65a.5.5 0 0 1-.094.412c-.105.134-.346.197-.828.322l-3.176.827c-.208.055-.312.082-.39.14a.5.5 0 0 0-.159.199c-.039.09-.042.197-.049.411l-.1 3.28c-.015.499-.022.748-.13.88a.5.5 0 0 1-.38.183c-.17.002-.37-.148-.769-.446l-2.626-1.968c-.172-.129-.258-.193-.353-.218a.5.5 0 0 0-.254 0c-.095.025-.18.09-.352.218l-2.627 1.968c-.4.298-.598.448-.768.446a.5.5 0 0 1-.381-.184c-.108-.131-.115-.38-.13-.878l-.1-3.28c-.007-.215-.01-.323-.05-.412a.5.5 0 0 0-.158-.2c-.078-.057-.182-.085-.39-.139l-3.176-.827c-.482-.125-.723-.188-.828-.322a.5.5 0 0 1-.094-.412c.036-.166.226-.328.606-.65l2.503-2.123c.163-.14.245-.209.29-.295a.5.5 0 0 0 .057-.248c-.003-.098-.047-.196-.134-.392L4.807 7.172c-.202-.455-.303-.683-.263-.848a.5.5 0 0 1 .263-.33c.152-.076.397-.028.886.068l3.22.633c.21.041.316.062.412.043a.5.5 0 0 0 .23-.11c.074-.063.123-.159.222-.35l1.513-2.911Z" opacity=".2"/>
  <path fill-rule="evenodd" d="M11.366 1.725a1.5 1.5 0 0 1 1.268 0c.345.16.54.438.64.595.102.159.207.36.308.555l.015.03 1.444 2.78 3.107-.61a7.01 7.01 0 0 1 .626-.106c.185-.02.523-.04.864.129a1.5 1.5 0 0 1 .79.992c.09.369-.006.694-.066.87-.06.18-.153.387-.242.587l-1.286 2.893 2.414 2.049c.167.141.34.288.473.423.13.133.357.385.437.756a1.5 1.5 0 0 1-.282 1.237c-.233.3-.547.428-.722.491-.178.064-.398.121-.61.176l-3.064.798-.096 3.165a7.415 7.415 0 0 1-.036.634c-.023.184-.078.519-.318.813a1.5 1.5 0 0 1-1.144.55c-.38.005-.675-.16-.834-.258-.16-.099-.342-.235-.518-.366L12 19.009l-2.534 1.899a7.412 7.412 0 0 1-.518.366c-.159.098-.455.263-.834.258a1.5 1.5 0 0 1-1.144-.55c-.24-.294-.295-.628-.318-.813a7.418 7.418 0 0 1-.036-.634L6.52 16.37l-3.064-.798c-.212-.055-.432-.112-.61-.176-.175-.063-.489-.191-.722-.491a1.5 1.5 0 0 1-.282-1.237c.08-.371.307-.623.437-.756.133-.135.306-.282.473-.423l.026-.023 2.388-2.026-1.272-2.862-.014-.031a7.418 7.418 0 0 1-.242-.586c-.06-.177-.156-.502-.067-.871a1.5 1.5 0 0 1 .791-.992c.34-.17.679-.148.864-.13a7.415 7.415 0 0 1 .66.113l3.073.604 1.444-2.78.015-.03c.101-.194.206-.396.308-.555.1-.157.295-.434.64-.595ZM12 4.17l-1.335 2.57-.02.038c-.067.134-.208.412-.442.612a1.5 1.5 0 0 1-.687.331c-.303.059-.608-.005-.755-.035l-.04-.009-2.843-.559 1.177 2.647.017.038c.063.137.192.42.203.728a1.5 1.5 0 0 1-.17.744c-.143.273-.383.472-.498.568l-.033.026-2.209 1.874 2.804.73a.291.291 0 0 0 .04.01c.146.037.449.112.696.296a1.5 1.5 0 0 1 .475.597c.125.281.13.593.133.743l.001.042.088 2.895 2.319-1.736.033-.025c.12-.092.367-.282.664-.36.25-.066.513-.066.764 0 .297.078.545.268.664.36l.033.025 2.319 1.736.088-2.895v-.042c.003-.15.01-.462.134-.743a1.5 1.5 0 0 1 .475-.597c.247-.184.55-.26.696-.295l.04-.01 2.804-.73-2.21-1.875-.032-.026c-.115-.096-.355-.295-.498-.568a1.5 1.5 0 0 1-.17-.744c.01-.308.14-.591.203-.728l.017-.038 1.177-2.646-2.842.558-.041.008c-.147.031-.452.095-.755.036a1.5 1.5 0 0 1-.687-.33c-.234-.2-.375-.479-.443-.613a2.497 2.497 0 0 0-.018-.037L12 4.17Z" clip-rule="evenodd"/>
</svg>
