<svg xmlns="http://www.w3.org/2000/svg" width="24" height="24" viewBox="0 0 24 24">
  <path d="M11.306 3.207c.228-.396.342-.594.49-.66a.5.5 0 0 1 .408 0c.148.066.262.264.49.66l1.955 3.402c.084.147.126.22.185.273a.5.5 0 0 0 .181.105c.076.024.16.024.33.024l3.923-.008c.457-.001.685-.002.817.094a.5.5 0 0 1 .204.353c.016.162-.098.36-.327.754l-1.97 3.395c-.084.146-.126.219-.143.297a.5.5 0 0 0 0 .208c.017.078.06.151.144.297l1.969 3.395c.229.395.343.592.327.754a.5.5 0 0 1-.204.353c-.132.096-.36.095-.817.094l-3.924-.008c-.169 0-.253 0-.329.024a.499.499 0 0 0-.18.105c-.06.053-.102.126-.186.273l-1.955 3.402c-.228.396-.342.594-.49.66a.5.5 0 0 1-.408 0c-.148-.066-.262-.264-.49-.66l-1.955-3.402c-.084-.147-.126-.22-.185-.273a.499.499 0 0 0-.18-.105c-.076-.024-.161-.024-.33-.024l-3.924.008c-.457.001-.685.002-.817-.094a.5.5 0 0 1-.203-.353c-.017-.162.097-.36.326-.754l1.97-3.395c.084-.146.126-.219.143-.297a.5.5 0 0 0 0-.208c-.017-.078-.059-.151-.144-.297L4.038 8.204c-.229-.395-.343-.592-.326-.754a.5.5 0 0 1 .203-.353c.132-.096.36-.095.817-.094l3.924.008c.169 0 .254 0 .33-.024a.5.5 0 0 0 .18-.105c.059-.053.101-.126.185-.273l1.955-3.402Z" opacity=".2"/>
  <path fill-rule="evenodd" d="M11.389 1.634a1.5 1.5 0 0 1 1.222 0c.327.145.521.395.626.544.102.146.208.33.307.502l.017.029 1.897 3.302 3.808-.008h.033c.2 0 .411-.001.589.015.181.016.494.06.784.27a1.5 1.5 0 0 1 .611 1.058 1.55 1.55 0 0 1-.158.814c-.075.162-.182.345-.282.518l-.016.028L18.916 12l1.91 3.294.017.028c.1.173.207.356.282.518.076.165.195.458.158.814a1.5 1.5 0 0 1-.611 1.058c-.29.21-.603.254-.784.27-.178.016-.39.016-.59.015l-3.84-.008-1.914 3.33a6.96 6.96 0 0 1-.307.503c-.105.15-.3.399-.626.544a1.5 1.5 0 0 1-1.222 0 1.542 1.542 0 0 1-.626-.544 7.156 7.156 0 0 1-.307-.502l-1.914-3.33-3.84.007c-.2 0-.412.001-.59-.015a1.543 1.543 0 0 1-.784-.27 1.5 1.5 0 0 1-.611-1.058 1.543 1.543 0 0 1 .158-.814c.075-.162.182-.345.282-.518l.016-.028L5.083 12l-1.91-3.294-.016-.028c-.1-.173-.207-.356-.282-.518a1.543 1.543 0 0 1-.158-.814 1.5 1.5 0 0 1 .611-1.058c.29-.21.603-.254.784-.27.178-.016.39-.016.59-.015h.032l3.808.008 1.897-3.302.017-.029c.099-.172.205-.356.307-.502.105-.15.3-.399.626-.544ZM12 4.007l-1.782 3.1-.016.03c-.059.104-.18.32-.366.488a1.5 1.5 0 0 1-.543.313c-.238.077-.486.074-.606.073h-.033l-3.576-.007 1.794 3.093.017.028c.061.103.188.317.24.562a1.5 1.5 0 0 1 0 .626c-.052.245-.179.459-.24.562l-.017.028-1.794 3.093 3.576-.007h.033c.12-.001.368-.004.606.073.201.065.386.172.543.313.185.168.307.384.366.489l.016.028L12 19.993l1.782-3.1.016-.03a1.91 1.91 0 0 1 .366-.488c.157-.141.342-.248.543-.313.238-.077.486-.074.606-.073h.033l3.576.007-1.794-3.093-.017-.028c-.061-.103-.188-.317-.24-.562a1.498 1.498 0 0 1 0-.626c.052-.245.179-.459.24-.562l.017-.028 1.794-3.093-3.576.007h-.033c-.12.001-.368.004-.606-.073a1.5 1.5 0 0 1-.543-.313 1.912 1.912 0 0 1-.366-.489l-.016-.028L12 4.007Z" clip-rule="evenodd"/>
</svg>
