<svg xmlns="http://www.w3.org/2000/svg" width="24" height="24" fill="currentColor" viewBox="0 0 24 24">
  <path fill-rule="evenodd" d="M6.5 1a1 1 0 0 1 .894.553l.785 1.569c.282.565.368.727.473.863a2 2 0 0 0 .363.363c.136.105.298.19.863.473l1.57.785a1 1 0 0 1 0 1.788l-1.57.785c-.565.282-.727.368-.863.473a2 2 0 0 0-.363.363c-.105.136-.19.298-.473.863l-.785 1.57a1 1 0 0 1-1.788 0l-.785-1.57c-.282-.565-.368-.727-.473-.863a2 2 0 0 0-.363-.363c-.136-.105-.298-.19-.863-.473l-1.57-.785a1 1 0 0 1 0-1.788l1.57-.785c.565-.282.727-.368.863-.473a2 2 0 0 0 .363-.363c.105-.136.19-.298.473-.863l.785-1.57A1 1 0 0 1 6.5 1Zm0 3.236c-.195.39-.356.695-.568.97a4 4 0 0 1-.726.726c-.275.212-.58.373-.97.568.39.195.695.356.97.568a4 4 0 0 1 .726.726c.212.275.373.58.568.97.195-.39.356-.695.568-.97a4 4 0 0 1 .726-.726c.275-.212.58-.373.97-.568-.39-.195-.695-.356-.97-.568a4 4 0 0 1-.726-.726c-.212-.275-.373-.58-.568-.97ZM18.5 2a1 1 0 0 1 1 1v1.5H21a1 1 0 1 1 0 2h-1.5V8a1 1 0 1 1-2 0V6.5H16a1 1 0 1 1 0-2h1.5V3a1 1 0 0 1 1-1ZM17 11a1 1 0 0 1 .894.553l.952 1.902c.282.565.368.728.473.863a2 2 0 0 0 .363.363c.135.105.298.191.863.473l1.902.952a1 1 0 0 1 0 1.788l-1.902.952c-.565.282-.728.368-.863.473a2 2 0 0 0-.363.363c-.105.135-.191.298-.473.863l-.952 1.902a1 1 0 0 1-1.788 0l-.952-1.902c-.282-.565-.368-.728-.473-.863a2 2 0 0 0-.363-.363c-.135-.105-.298-.191-.863-.473l-1.902-.952a1 1 0 0 1 0-1.788l1.902-.952c.565-.282.728-.368.863-.473a2 2 0 0 0 .363-.363c.105-.135.191-.298.473-.863l.952-1.902A1 1 0 0 1 17 11Zm0 3.236-.057.114-.036.073c-.23.46-.404.808-.642 1.116-.21.273-.454.516-.726.726-.308.238-.656.412-1.116.642a24.96 24.96 0 0 0-.073.036l-.114.057.114.057.073.036c.46.23.808.404 1.116.642.273.21.516.454.726.726.238.308.412.656.642 1.116l.036.073.057.114.057-.113.036-.074c.23-.46.404-.808.642-1.116.21-.272.454-.516.726-.726.308-.238.656-.412 1.116-.642l.073-.036.114-.057-.113-.057a24.96 24.96 0 0 0-.074-.036c-.46-.23-.808-.404-1.116-.642a3.998 3.998 0 0 1-.726-.726c-.238-.308-.412-.656-.642-1.116a24.96 24.96 0 0 0-.036-.073L17 14.236ZM5.5 15a1 1 0 0 1 1 1v1.5H8a1 1 0 1 1 0 2H6.5V21a1 1 0 1 1-2 0v-1.5H3a1 1 0 1 1 0-2h1.5V16a1 1 0 0 1 1-1Z" clip-rule="evenodd"/>
</svg>
