<svg xmlns="http://www.w3.org/2000/svg" width="24" height="24" viewBox="0 0 24 24">
  <path fill-rule="evenodd" d="M12 1a1 1 0 0 1 1 1v2a1 1 0 1 1-2 0V2a1 1 0 0 1 1-1ZM4.222 4.222a1 1 0 0 1 1.414 0L7.05 5.636A1 1 0 1 1 5.636 7.05L4.222 5.636a1 1 0 0 1 0-1.414Zm15.556 0a1 1 0 0 1 0 1.414L18.364 7.05a1 1 0 1 1-1.414-1.414l1.414-1.414a1 1 0 0 1 1.414 0ZM1 12a1 1 0 0 1 1-1h2a1 1 0 1 1 0 2H2a1 1 0 0 1-1-1Zm18 0a1 1 0 0 1 1-1h2a1 1 0 1 1 0 2h-2a1 1 0 0 1-1-1ZM7.05 16.95a1 1 0 0 1 0 1.414l-1.414 1.414a1 1 0 0 1-1.414-1.414l1.414-1.414a1 1 0 0 1 1.414 0Zm9.9 0a1 1 0 0 1 1.414 0l1.414 1.414a1 1 0 0 1-1.414 1.414l-1.414-1.414a1 1 0 0 1 0-1.414ZM12 19a1 1 0 0 1 1 1v2a1 1 0 1 1-2 0v-2a1 1 0 0 1 1-1Z" clip-rule="evenodd" opacity=".5"/>
  <path fill-rule="evenodd" d="M12 6a1 1 0 0 1 .897.557l1.312 2.66 2.936.429a1 1 0 0 1 .553 1.705l-2.123 2.068.5 2.922a1 1 0 0 1-1.45 1.054L12 16.015l-2.625 1.38a1 1 0 0 1-1.45-1.054l.5-2.922-2.123-2.068a1 1 0 0 1 .553-1.705l2.936-.43 1.312-2.659A1 1 0 0 1 12 6Zm0 3.26-.648 1.313a1 1 0 0 1-.752.546l-1.452.213 1.05 1.022a1 1 0 0 1 .288.885l-.248 1.443L11.534 14a1 1 0 0 1 .931 0l1.297.682-.248-1.443a1 1 0 0 1 .288-.885l1.05-1.022-1.452-.213a1 1 0 0 1-.752-.546L12 9.259Z" clip-rule="evenodd"/>
</svg>
