<svg xmlns="http://www.w3.org/2000/svg" width="24" height="24" viewBox="0 0 24 24">
  <path d="m12 2 2.012 5.231c.282.733.423 1.1.642 1.408.195.274.433.512.707.707.308.219.675.36 1.408.642L22 12l-5.231 2.012c-.733.282-1.1.423-1.408.642a3.003 3.003 0 0 0-.707.707c-.219.308-.36.675-.642 1.408L12 22l-2.012-5.231c-.282-.733-.423-1.1-.642-1.408a3.002 3.002 0 0 0-.707-.707c-.308-.219-.675-.36-1.408-.642L2 12l5.231-2.012c.733-.282 1.1-.423 1.408-.642a3 3 0 0 0 .707-.707c.219-.308.36-.675.642-1.408L12 2Z" opacity=".2"/>
  <path fill-rule="evenodd" d="M12 1a1 1 0 0 1 .933.641l2.012 5.231c.3.781.395 1.006.524 1.188.13.182.289.341.471.47.182.13.407.224 1.188.525l5.231 2.012a1 1 0 0 1 0 1.866l-5.231 2.012c-.781.3-1.006.395-1.188.524-.182.13-.341.289-.47.471-.13.182-.224.407-.525 1.188l-2.012 5.231a1 1 0 0 1-1.866 0l-2.012-5.231c-.3-.781-.395-1.006-.524-1.188a2.001 2.001 0 0 0-.471-.47c-.182-.13-.407-.224-1.188-.525l-5.231-2.012a1 1 0 0 1 0-1.866l5.231-2.012c.781-.3 1.006-.395 1.188-.524a2 2 0 0 0 .47-.471c.13-.182.224-.407.525-1.188l2.012-5.231A1 1 0 0 1 12 1Zm0 3.786L10.921 7.59l-.039.102c-.243.634-.427 1.114-.721 1.527a4.03 4.03 0 0 1-.942.942c-.413.294-.893.478-1.527.721l-.102.04L4.786 12l2.804 1.079.102.039c.634.243 1.114.427 1.527.721.364.26.683.578.942.942.294.413.478.893.721 1.527l.04.102L12 19.214l1.079-2.804.039-.102c.243-.634.427-1.114.721-1.527a4 4 0 0 1 .942-.942c.413-.294.893-.478 1.527-.721l.102-.04L19.214 12l-2.804-1.079-.102-.039c-.634-.243-1.114-.427-1.527-.721a3.999 3.999 0 0 1-.942-.942c-.294-.413-.478-.893-.721-1.527l-.04-.102L12 4.786Z" clip-rule="evenodd"/>
</svg>
