<svg xmlns="http://www.w3.org/2000/svg" width="24" height="24" viewBox="0 0 24 24">
  <path d="m13 3 1.734 4.509c.282.733.423 1.1.643 1.408a3 3 0 0 0 .706.707c.308.219.675.36 1.408.642L22 12l-4.509 1.734c-.733.282-1.1.423-1.408.643a2.999 2.999 0 0 0-.706.706c-.22.308-.36.675-.643 1.408L13 21l-1.734-4.509c-.282-.733-.423-1.1-.643-1.408a2.998 2.998 0 0 0-.706-.707c-.308-.219-.675-.36-1.408-.642L4 12l4.509-1.734c.733-.282 1.1-.423 1.408-.642a3 3 0 0 0 .707-.707c.219-.308.36-.675.642-1.408L13 3Z" opacity=".2"/>
  <path fill-rule="evenodd" d="M4.5 1a1 1 0 0 1 1 1v1.5H7a1 1 0 0 1 0 2H5.5V7a1 1 0 0 1-2 0V5.5H2a1 1 0 0 1 0-2h1.5V2a1 1 0 0 1 1-1ZM13 2a1 1 0 0 1 .933.641l1.735 4.509c.3.78.394 1.006.523 1.188.13.182.29.341.471.47.182.13.407.224 1.188.524l4.509 1.735a1 1 0 0 1 0 1.866l-4.509 1.735c-.78.3-1.006.394-1.188.523a2.02 2.02 0 0 0-.47.471c-.13.182-.224.407-.524 1.188l-1.735 4.509a1 1 0 0 1-1.866 0l-1.735-4.509c-.3-.78-.394-1.006-.523-1.188a2.001 2.001 0 0 0-.471-.47c-.182-.13-.407-.224-1.188-.524l-4.51-1.735a1 1 0 0 1 0-1.866l4.51-1.735c.78-.3 1.006-.394 1.188-.523a2 2 0 0 0 .47-.471c.13-.182.224-.407.524-1.188l1.735-4.509A1 1 0 0 1 13 2Zm0 3.786-.8 2.082-.04.102c-.244.634-.428 1.113-.722 1.527a4 4 0 0 1-.941.941c-.414.294-.893.478-1.527.722l-.102.04-2.082.8 2.082.8.102.04c.634.244 1.113.428 1.527.722a4 4 0 0 1 .941.941c.294.414.478.893.722 1.527l.04.102.8 2.082.8-2.082.04-.102c.244-.634.428-1.113.722-1.527a4 4 0 0 1 .941-.941c.414-.294.893-.478 1.527-.722l.102-.04 2.082-.8-2.082-.8a79.415 79.415 0 0 0-.102-.04c-.634-.244-1.113-.428-1.527-.722a4 4 0 0 1-.941-.941c-.294-.414-.478-.893-.722-1.527a74.474 74.474 0 0 0-.04-.102L13 5.786ZM4.5 16a1 1 0 0 1 1 1v1.5H7a1 1 0 1 1 0 2H5.5V22a1 1 0 1 1-2 0v-1.5H2a1 1 0 1 1 0-2h1.5V17a1 1 0 0 1 1-1Z" clip-rule="evenodd"/>
</svg>
