<svg xmlns="http://www.w3.org/2000/svg" width="24" height="24" viewBox="0 0 24 24">
  <path fill-rule="evenodd" d="M11.354 1.776a1.5 1.5 0 0 1 1.292 0c.353.168.547.46.645.62a7.771 7.771 0 0 1 .323.615l2.14 4.335 4.822.705c.227.033.46.067.65.113.182.044.52.139.789.423a1.5 1.5 0 0 1 .398 1.228c-.051.387-.27.663-.391.805a7.74 7.74 0 0 1-.46.472l-3.488 3.397.823 4.799c.04.226.08.458.095.652.014.187.029.538-.158.882a1.5 1.5 0 0 1-1.045.759c-.384.071-.714-.051-.887-.123a7.79 7.79 0 0 1-.591-.291L12 18.9l-4.31 2.267a7.584 7.584 0 0 1-.592.29c-.173.073-.503.195-.887.124a1.5 1.5 0 0 1-1.045-.76c-.187-.343-.172-.694-.158-.881.016-.194.056-.426.095-.652l.822-4.799-3.462-3.372-.025-.025a7.677 7.677 0 0 1-.46-.472c-.122-.142-.34-.418-.39-.805a1.5 1.5 0 0 1 .397-1.228c.27-.284.607-.38.79-.423.189-.046.422-.08.649-.113l.034-.005 4.788-.7 2.14-4.335.016-.032c.101-.206.205-.417.307-.582.098-.16.292-.453.645-.621ZM8.142 7.554Zm.333-.242Zm9.561 6.949ZM12 4.259 9.993 8.326l-.013.027a1.917 1.917 0 0 1-.303.471 1.5 1.5 0 0 1-.467.34c-.208.096-.433.127-.541.142a3.951 3.951 0 0 0-.03.004l-4.49.657 3.247 3.163.022.02c.08.077.243.234.355.435a1.5 1.5 0 0 1 .179.55c.028.228-.013.451-.032.56a3.212 3.212 0 0 0-.006.029l-.766 4.468 4.014-2.111.027-.014c.096-.052.296-.16.522-.204a1.5 1.5 0 0 1 .578 0c.226.044.426.152.522.204l.027.014 4.014 2.11-.767-4.467-.005-.03a1.876 1.876 0 0 1-.032-.56c.024-.193.084-.38.179-.549.112-.201.276-.358.355-.434.008-.008.015-.015.022-.02l3.248-3.164-4.49-.657-.03-.004a1.894 1.894 0 0 1-.542-.143 1.5 1.5 0 0 1-.467-.339 1.905 1.905 0 0 1-.303-.471l-.013-.027L12 4.259Z" clip-rule="evenodd"/>
</svg>
