<svg xmlns="http://www.w3.org/2000/svg" width="24" height="24" viewBox="0 0 24 24">
  <path d="M11.283 3.453c.23-.467.345-.7.502-.775a.5.5 0 0 1 .43 0c.157.075.272.308.502.775l2.187 4.43c.068.138.102.207.152.26a.502.502 0 0 0 .155.114c.067.03.143.042.295.064l4.891.715c.515.075.773.113.892.238a.5.5 0 0 1 .133.41c-.023.172-.21.353-.582.716l-3.54 3.446c-.11.108-.165.162-.2.226a.5.5 0 0 0-.06.183c-.009.072.004.148.03.3l.835 4.867c.088.514.132.77.05.922a.5.5 0 0 1-.349.253c-.17.032-.4-.09-.862-.332l-4.373-2.3c-.136-.07-.204-.107-.276-.12a.498.498 0 0 0-.192 0c-.072.013-.14.05-.276.12l-4.373 2.3c-.461.243-.692.364-.862.332a.5.5 0 0 1-.348-.253c-.083-.152-.039-.409.05-.922l.834-4.867c.026-.152.039-.228.03-.3a.5.5 0 0 0-.06-.184c-.035-.063-.09-.117-.2-.225L3.16 10.4c-.373-.363-.56-.544-.582-.716a.5.5 0 0 1 .132-.41c.12-.125.377-.163.892-.238l4.891-.715c.152-.022.228-.034.295-.064a.5.5 0 0 0 .155-.113c.05-.054.084-.123.152-.26l2.187-4.43Z" opacity=".2"/>
  <path fill-rule="evenodd" d="M11.354 1.776a1.5 1.5 0 0 1 1.292 0c.353.168.547.46.645.62a7.771 7.771 0 0 1 .323.615l2.14 4.335 4.822.705c.227.033.46.067.65.113.182.044.52.139.789.423a1.5 1.5 0 0 1 .398 1.228c-.051.387-.27.663-.391.805a7.766 7.766 0 0 1-.46.472l-3.488 3.397.823 4.799c.04.226.08.458.095.652.014.187.029.538-.158.882a1.5 1.5 0 0 1-1.045.759c-.384.071-.714-.051-.887-.123a7.733 7.733 0 0 1-.591-.291L12 18.9l-4.31 2.267a7.752 7.752 0 0 1-.592.29c-.173.073-.503.195-.887.124a1.5 1.5 0 0 1-1.045-.76c-.187-.343-.172-.694-.158-.881.016-.194.056-.426.095-.652l.822-4.799-3.462-3.372-.025-.025a7.677 7.677 0 0 1-.46-.472c-.122-.142-.34-.418-.39-.805a1.5 1.5 0 0 1 .397-1.228c.27-.284.607-.38.79-.423.189-.046.422-.08.649-.113l.034-.005 4.788-.7 2.14-4.335.016-.032c.101-.206.205-.417.307-.582.098-.16.292-.453.645-.621ZM8.142 7.554Zm.333-.242Zm9.561 6.949ZM12 4.259 9.993 8.326a3.278 3.278 0 0 0-.013.027 1.917 1.917 0 0 1-.303.471 1.5 1.5 0 0 1-.467.34c-.208.096-.433.127-.541.142l-.03.004-4.49.657 3.247 3.163.022.02c.08.077.243.234.355.435a1.5 1.5 0 0 1 .179.55 1.905 1.905 0 0 1-.038.589l-.766 4.468 4.014-2.111c.008-.004.017-.01.027-.014.096-.052.296-.16.522-.204a1.5 1.5 0 0 1 .578 0c.226.044.426.152.522.204l.027.014 4.014 2.11-.767-4.467c0-.009-.003-.019-.005-.03a1.905 1.905 0 0 1-.032-.56 1.5 1.5 0 0 1 .179-.549c.112-.201.276-.358.355-.434l.022-.021 3.248-3.163-4.49-.657-.03-.004a1.894 1.894 0 0 1-.542-.143 1.5 1.5 0 0 1-.467-.339 1.905 1.905 0 0 1-.316-.498L12 4.259Z" clip-rule="evenodd"/>
</svg>
