<svg xmlns="http://www.w3.org/2000/svg" width="24" height="24" viewBox="0 0 24 24">
  <path fill-rule="evenodd" d="M4.182 10.708a9.117 9.117 0 0 1 9.11 9.11l-9.11-9.11ZM11.883 3a9.12 9.12 0 0 0-8.469 5.734c.252-.017.506-.026.761-.026 6.14 0 11.117 4.978 11.117 11.117 0 .256-.008.51-.025.761A9.12 9.12 0 0 0 21 12.117 9.117 9.117 0 0 0 11.883 3Zm.65 18.887.2.2.046.047c.177.178.403.405.705.554.25.124.559.2.838.207.335.007.616-.081.832-.15l.05-.015c4.517-1.412 7.797-5.628 7.797-10.613C23 5.977 18.023 1 11.883 1 6.9 1 2.684 4.28 1.271 8.797l-.016.05c-.068.216-.157.497-.149.832.007.28.083.588.206.838l.225-.11-.225.11c.15.302.377.528.555.705l.046.045.213.214.177.178.025.025 9.989 9.989.024.025.193.19Z" clip-rule="evenodd"/>
</svg>
