<svg xmlns="http://www.w3.org/2000/svg" width="24" height="24" viewBox="0 0 24 24">
  <path d="M13.62 22.47h-.14a1 1 0 0 1-.9-1.09c.04-.36.26-.66.57-.81v-.08c.02-.22.02-.44.02-.66 0-5.03-4.09-9.12-9.12-9.12-.22 0-.44 0-.66.02h-.08c-.14.31-.44.54-.81.57-.55.05-1.04-.35-1.1-.89-.05-.45.13-.93.46-1.24.39-.37.85-.4 1.37-.44.27-.02.53-.03.8-.03 6.13 0 11.12 4.99 11.12 11.12 0 .27 0 .54-.03.8-.04.53-.07.99-.44 1.38-.28.3-.69.47-1.1.47h.04Z" opacity=".5"/>
  <path d="M14.26 22.9h-.05c-.28 0-.59-.08-.84-.21-.29-.14-.48-.33-.75-.6L1.81 11.27c-.26-.26-.45-.45-.6-.75-.13-.26-.21-.56-.21-.84 0-.33.07-.57.17-.88C2.62 4.13 6.89 1 11.78 1 17.91 1 22.9 5.99 22.9 12.12c0 4.89-3.13 9.15-7.8 10.61-.3.09-.53.17-.84.17ZM11.78 3a9.07 9.07 0 0 0-8.7 6.39c-.04.11-.06.19-.08.26.04.02.11.09.22.2l10.82 10.82c.11.11.18.19.25.23.02-.02.1-.05.21-.09a9.08 9.08 0 0 0 6.4-8.71c0-5.03-4.09-9.12-9.12-9.12V3Z"/>
</svg>
