<svg xmlns="http://www.w3.org/2000/svg" width="24" height="24" viewBox="0 0 24 24">
  <path d="M3.446 9.734c.24-.017.484-.026.729-.026 5.587 0 10.117 4.53 10.117 10.117 0 .245-.009.488-.026.729-.03.42-.045.63-.167.76a.531.531 0 0 1-.414.154c-.177-.018-.339-.18-.662-.502l-9.989-9.99c-.323-.322-.484-.484-.502-.661a.531.531 0 0 1 .154-.414c.13-.122.34-.137.76-.167Z" opacity=".2"/>
  <path fill-rule="evenodd" d="M4.182 10.708a9.117 9.117 0 0 1 9.11 9.11l-9.11-9.11ZM11.883 3a9.12 9.12 0 0 0-8.469 5.734c.251-.017.505-.026.76-.026 6.14 0 11.118 4.978 11.118 11.117 0 .256-.009.51-.026.761A9.12 9.12 0 0 0 21 12.117 9.117 9.117 0 0 0 11.883 3Zm.65 18.887.2.2.046.047c.177.178.403.405.704.554.25.124.56.2.839.207.335.007.615-.081.832-.15l.05-.015C19.72 21.318 23 17.102 23 12.117 23 5.977 18.023 1 11.883 1 6.898 1 2.683 4.28 1.27 8.797l-.015.05c-.069.216-.157.497-.15.832.007.28.083.588.207.838l.224-.11-.224.11c.149.302.377.528.554.705l.046.045.214.214.176.178.025.025 9.99 9.989.024.025.192.19Z" clip-rule="evenodd"/>
</svg>
