<svg xmlns="http://www.w3.org/2000/svg" width="24" height="24" viewBox="0 0 24 24">
  <path d="M14.366 4.366c-.429-.429-.643-.643-.827-.657a.5.5 0 0 0-.42.173C13 4.022 13 4.326 13 4.932V6.2c0 1.68 0 2.52.327 3.162a3 3 0 0 0 1.311 1.311C15.28 11 16.12 11 17.8 11h1.269" opacity=".2"/>
  <path fill-rule="evenodd" d="M12 4.02a12.7 12.7 0 0 0-.988-.02H7.8c-.857 0-1.439 0-1.889.038-.438.035-.663.1-.819.18a2 2 0 0 0-.874.874c-.08.156-.145.38-.18.819C4 6.361 4 6.943 4 7.8v8.4c0 .857 0 1.439.038 1.889.035.438.1.663.18.819a2 2 0 0 0 .874.874c.156.08.38.145.819.18C6.361 20 6.943 20 7.8 20h8.4c.857 0 1.439 0 1.889-.038.438-.035.663-.1.819-.18a2 2 0 0 0 .874-.874c.08-.156.145-.38.18-.819.037-.45.038-1.032.038-1.889v-3.212c0-.527-.003-.802-.02-.988h-2.22c-.805 0-1.47 0-2.01-.044-.563-.046-1.08-.145-1.565-.392a4 4 0 0 1-1.748-1.748c-.247-.485-.346-1.002-.392-1.564C12 7.71 12 7.046 12 6.242V4.02Zm2 1.394V6.2c0 .857 0 1.439.038 1.889.035.438.1.663.18.819a2 2 0 0 0 .874.874c.156.08.38.145.819.18.45.037 1.032.038 1.889.038h.786L14 5.414ZM11.114 2c.635 0 1.114 0 1.577.11a4 4 0 0 1 1.156.48c.406.248.745.588 1.194 1.037l.072.072 5.188 5.188.072.072c.45.449.789.788 1.038 1.194a4 4 0 0 1 .479 1.156c.11.463.11.942.11 1.577v3.355c0 .805 0 1.47-.044 2.01-.046.563-.145 1.08-.392 1.565a4 4 0 0 1-1.748 1.748c-.485.247-1.002.346-1.564.392-.541.044-1.206.044-2.01.044H7.758c-.805 0-1.47 0-2.01-.044-.563-.046-1.08-.145-1.565-.392a4 4 0 0 1-1.748-1.748c-.247-.485-.346-1.002-.392-1.564C2 17.71 2 17.046 2 16.242V7.758c0-.805 0-1.47.044-2.01.046-.563.145-1.08.392-1.565a4 4 0 0 1 1.748-1.748c.485-.247 1.002-.346 1.564-.392C6.29 2 6.954 2 7.758 2h3.356Z" clip-rule="evenodd"/>
</svg>
