<svg xmlns="http://www.w3.org/2000/svg" width="24" height="24" viewBox="0 0 24 24">
  <path fill-rule="evenodd" d="M12 3a9 9 0 1 0 0 18 9 9 0 0 0 0-18ZM1 12C1 5.925 5.925 1 12 1s11 4.925 11 11-4.925 11-11 11S1 18.075 1 12Zm8.568-5h4.864c.252 0 .498 0 .706.017.229.019.499.063.77.201a2 2 0 0 1 .874.874c.138.271.182.541.201.77.017.208.017.454.017.706v4.864c0 .252 0 .498-.017.706a2.022 2.022 0 0 1-.201.77 2 2 0 0 1-.874.874 2.022 2.022 0 0 1-.77.201c-.208.017-.454.017-.706.017H9.568c-.252 0-.498 0-.706-.017a2.022 2.022 0 0 1-.77-.201 2 2 0 0 1-.874-.874 2.022 2.022 0 0 1-.201-.77C7 14.93 7 14.684 7 14.432V9.568c0-.252 0-.498.017-.706a2.03 2.03 0 0 1 .201-.77 2 2 0 0 1 .874-.874 2.03 2.03 0 0 1 .77-.201C9.07 7 9.316 7 9.568 7Zm-.557 2.011v.014C9 9.14 9 9.303 9 9.6v4.8a8.194 8.194 0 0 0 .011.589h.014c.116.01.278.011.575.011h4.8c.296 0 .459 0 .575-.01l.014-.001v-.014c.01-.116.011-.278.011-.575V9.6c0-.297 0-.459-.01-.575l-.001-.014h-.014A8.194 8.194 0 0 0 14.4 9H9.6a8.192 8.192 0 0 0-.589.011Z" clip-rule="evenodd"/>
</svg>
