<svg xmlns="http://www.w3.org/2000/svg" width="24" height="24" viewBox="0 0 24 24">
  <path d="M14 20a4 4 0 0 0 0-8h-3.5a4 4 0 0 1 0 8H14Z" opacity=".2"/>
  <path fill-rule="evenodd" d="M5 8a5 5 0 0 1 5-5h4a5 5 0 0 1 5 5 1 1 0 1 1-2 0 3 3 0 0 0-3-3h-.5a3 3 0 0 0-3 3 1 1 0 1 1-2 0c0-1.104.358-2.125.964-2.952A3 3 0 0 0 7 8a1 1 0 0 1-2 0Zm-3 4a1 1 0 0 1 1-1h18a1 1 0 1 1 0 2h-3a5 5 0 0 1-4 8h-4a5 5 0 0 1-5-5 1 1 0 1 1 2 0 3 3 0 0 0 3 3h.5a3 3 0 1 0 0-6H3a1 1 0 0 1-1-1Zm12.536 1.048c.606.827.964 1.848.964 2.952a4.978 4.978 0 0 1-.964 2.952 3 3 0 0 0 0-5.904Z" clip-rule="evenodd"/>
</svg>
