<svg xmlns="http://www.w3.org/2000/svg" width="24" height="24" viewBox="0 0 24 24">
  <path fill-rule="evenodd" d="M2.293 4.293a1 1 0 0 1 1.414 0L8 8.586l4.293-4.293a1 1 0 1 1 1.414 1.414L9.414 10l4.293 4.293a1 1 0 0 1-1.414 1.414L8 11.414l-4.293 4.293a1 1 0 0 1-1.414-1.414L6.586 10 2.293 5.707a1 1 0 0 1 0-1.414ZM17.408 11.4a3.11 3.11 0 0 1 3.861.648l.009.01c.466.54.722 1.232.722 1.942 0 1.082-.604 1.84-1.226 2.34-.58.467-1.288.801-1.791 1.038l-.056.026c-.48.227-.647.378-.735.514a.722.722 0 0 0-.045.082H21a1 1 0 1 1 0 2h-4a1 1 0 0 1-1-1c0-.83.118-1.557.513-2.168.397-.614.98-.963 1.56-1.236.555-.262 1.065-.506 1.448-.814.363-.292.479-.534.479-.782a.981.981 0 0 0-.234-.633 1.11 1.11 0 0 0-1.372-.228 1.013 1.013 0 0 0-.452.536 1 1 0 1 1-1.884-.67 3.013 3.013 0 0 1 1.346-1.603l.004-.002Z" clip-rule="evenodd"/>
</svg>
