<svg xmlns="http://www.w3.org/2000/svg" width="24" height="24" viewBox="0 0 24 24">
  <path fill-rule="evenodd" d="M13.566 21.823c-.947-.43-2.185-.43-3.132 0-1.473.67-3.315.67-4.788 0a1 1 0 0 1 .828-1.82c.947.43 2.185.43 3.132 0 1.473-.67 3.315-.67 4.788 0 .947.43 2.185.43 3.132 0a1 1 0 0 1 .828 1.82c-1.473.67-3.315.67-4.788 0Z" clip-rule="evenodd" opacity=".5"/>
  <path fill-rule="evenodd" d="M12 2a1 1 0 0 1 1 1v2a1 1 0 1 1-2 0V3a1 1 0 0 1 1-1ZM4.193 5.193a1 1 0 0 1 1.414 0l1.414 1.414a1 1 0 1 1-1.414 1.414L4.193 6.607a1 1 0 0 1 0-1.414Zm15.614 0a1 1 0 0 1 0 1.414l-1.414 1.414a1 1 0 0 1-1.415-1.414l1.415-1.414a1 1 0 0 1 1.414 0ZM12 9a4 4 0 0 0-4 4 1 1 0 1 1-2 0 6 6 0 1 1 12 0 1 1 0 1 1-2 0 4 4 0 0 0-4-4ZM1 13a1 1 0 0 1 1-1h2a1 1 0 1 1 0 2H2a1 1 0 0 1-1-1Zm18 0a1 1 0 0 1 1-1h2a1 1 0 1 1 0 2h-2a1 1 0 0 1-1-1ZM5.646 18.323c-.947-.43-2.185-.43-3.132 0a1 1 0 0 1-.828-1.82c1.473-.67 3.315-.67 4.788 0 .947.43 2.185.43 3.132 0 1.473-.67 3.315-.67 4.788 0 .947.43 2.185.43 3.132 0 1.473-.67 3.315-.67 4.788 0a1 1 0 0 1-.828 1.82c-.947-.43-2.185-.43-3.132 0-1.473.67-3.315.67-4.788 0-.947-.43-2.185-.43-3.132 0-1.473.67-3.315.67-4.788 0Z" clip-rule="evenodd"/>
</svg>
