<svg xmlns="http://www.w3.org/2000/svg" width="24" height="24"  viewBox="0 0 24 24">
  <path d="M12 2a1 1 0 0 1 1 1v2a1 1 0 1 1-2 0V3a1 1 0 0 1 1-1Zm1.566 19.823c-.947-.43-2.185-.43-3.132 0-1.473.67-3.315.67-4.788 0a1 1 0 0 1 .828-1.82c.947.43 2.185.43 3.132 0 1.473-.67 3.315-.67 4.788 0 .947.43 2.185.43 3.132 0a1 1 0 0 1 .828 1.82c-1.473.67-3.315.67-4.788 0ZM2 12a1 1 0 1 0 0 2h2a1 1 0 1 0 0-2H2Zm2.193-6.807a1 1 0 0 1 1.414 0l1.414 1.414a1 1 0 1 1-1.414 1.414L4.193 6.607a1 1 0 0 1 0-1.414Zm15.614 1.414a1 1 0 0 0-1.414-1.414l-1.415 1.414a1 1 0 0 0 1.415 1.414l1.414-1.414ZM19 13a1 1 0 0 1 1-1h2a1 1 0 1 1 0 2h-2a1 1 0 0 1-1-1ZM6 13a6 6 0 1 1 12 0 1 1 0 0 1-1 1H7a1 1 0 0 1-1-1Zm-3.486 5.323c.947-.43 2.185-.43 3.132 0 1.473.67 3.315.67 4.788 0 .947-.43 2.185-.43 3.132 0 1.473.67 3.315.67 4.788 0 .947-.43 2.185-.43 3.132 0a1 1 0 0 0 .828-1.82c-1.473-.67-3.315-.67-4.788 0-.947.43-2.185.43-3.132 0-1.473-.67-3.315-.67-4.788 0-.947.43-2.185.43-3.132 0-1.473-.67-3.315-.67-4.788 0a1 1 0 0 0 .828 1.82Z"/>
</svg>
