<svg xmlns="http://www.w3.org/2000/svg" width="24" height="24" viewBox="0 0 24 24">
  <path d="M12 17a5 5 0 1 0 0-10 5 5 0 0 0 0 10Z" opacity=".2"/>
  <path fill-rule="evenodd" d="M12 1a1 1 0 0 1 1 1v2a1 1 0 1 1-2 0V2a1 1 0 0 1 1-1ZM4.193 4.193a1 1 0 0 1 1.414 0l1.414 1.414a1 1 0 1 1-1.414 1.414L4.193 5.607a1 1 0 0 1 0-1.414Zm15.614 0a1 1 0 0 1 0 1.414l-1.414 1.414a1 1 0 1 1-1.414-1.414l1.414-1.414a1 1 0 0 1 1.414 0ZM12 8a4 4 0 1 0 0 8 4 4 0 0 0 0-8Zm-6 4a6 6 0 1 1 12 0 6 6 0 0 1-12 0Zm-5 0a1 1 0 0 1 1-1h2a1 1 0 1 1 0 2H2a1 1 0 0 1-1-1Zm18 0a1 1 0 0 1 1-1h2a1 1 0 1 1 0 2h-2a1 1 0 0 1-1-1ZM7.021 16.983a1 1 0 0 1 0 1.414l-1.414 1.414a1 1 0 0 1-1.414-1.414l1.414-1.414a1 1 0 0 1 1.414 0Zm9.958 0a1 1 0 0 1 1.414 0l1.414 1.414a1 1 0 0 1-1.414 1.414l-1.414-1.414a1 1 0 0 1 0-1.414ZM12 19a1 1 0 0 1 1 1v2a1 1 0 1 1-2 0v-2a1 1 0 0 1 1-1Z" clip-rule="evenodd"/>
</svg>
