<svg xmlns="http://www.w3.org/2000/svg" width="24" height="24" viewBox="0 0 24 24">
  <path d="M12 8a5 5 0 0 0-5 5h10a5 5 0 0 0-5-5Z" opacity=".2"/>
  <path fill-rule="evenodd" d="M12 2a1 1 0 0 1 1 1v2a1 1 0 1 1-2 0V3a1 1 0 0 1 1-1ZM4.193 5.193a1 1 0 0 1 1.414 0l1.414 1.414a1 1 0 1 1-1.414 1.414L4.193 6.607a1 1 0 0 1 0-1.414Zm15.614 0a1 1 0 0 1 0 1.414l-1.414 1.414a1 1 0 0 1-1.415-1.414l1.415-1.414a1 1 0 0 1 1.414 0ZM12 9a4 4 0 0 0-4 4 1 1 0 1 1-2 0 6 6 0 1 1 12 0 1 1 0 1 1-2 0 4 4 0 0 0-4-4ZM1 13a1 1 0 0 1 1-1h2a1 1 0 1 1 0 2H2a1 1 0 0 1-1-1Zm18 0a1 1 0 0 1 1-1h2a1 1 0 1 1 0 2h-2a1 1 0 0 1-1-1ZM1 16.5a1 1 0 0 1 1-1h20a1 1 0 1 1 0 2H2a1 1 0 0 1-1-1ZM3 20a1 1 0 0 1 1-1h16a1 1 0 1 1 0 2H4a1 1 0 0 1-1-1Z" clip-rule="evenodd"/>
</svg>
