<svg xmlns="http://www.w3.org/2000/svg" width="24" height="24" viewBox="0 0 24 24">
  <path d="M12 9a6 6 0 0 0-6 6h12a6 6 0 0 0-6-6Z" opacity=".2"/>
  <path fill-rule="evenodd" d="M12 2a1 1 0 0 1 1 1v2a1 1 0 1 1-2 0V3a1 1 0 0 1 1-1ZM3.193 5.193a1 1 0 0 1 1.414 0l1.414 1.414a1 1 0 1 1-1.414 1.414L3.193 6.607a1 1 0 0 1 0-1.414Zm17.614 0a1 1 0 0 1 0 1.414l-1.414 1.414a1 1 0 1 1-1.414-1.414l1.414-1.414a1 1 0 0 1 1.414 0ZM5.071 14H2a1 1 0 1 0 0 2h20a1 1 0 1 0 0-2h-3.07a7.001 7.001 0 0 0-13.86 0ZM7.1 14h9.8a5.002 5.002 0 0 0-9.8 0ZM4 19a1 1 0 0 1 1-1h14a1 1 0 1 1 0 2H5a1 1 0 0 1-1-1Z" clip-rule="evenodd"/>
</svg>
