<svg xmlns="http://www.w3.org/2000/svg" width="24" height="24" fill="currentColor" viewBox="0 0 24 24">
  <path fill-rule="evenodd" d="M11.293 1.293a1 1 0 0 1 1.414 0l4 4a1 1 0 0 1-1.414 1.414L13 4.414V9a1 1 0 1 1-2 0V4.414L8.707 6.707a1 1 0 0 1-1.414-1.414l4-4Zm-7.1 8.9a1 1 0 0 1 1.414 0l1.414 1.414a1 1 0 1 1-1.414 1.414l-1.414-1.414a1 1 0 0 1 0-1.414Zm15.614 0a1 1 0 0 1 0 1.414l-1.414 1.414a1 1 0 0 1-1.414-1.414l1.414-1.414a1 1 0 0 1 1.414 0ZM12 14a4 4 0 0 0-4 4 1 1 0 1 1-2 0 6 6 0 0 1 12 0 1 1 0 1 1-2 0 4 4 0 0 0-4-4ZM1 18a1 1 0 0 1 1-1h2a1 1 0 1 1 0 2H2a1 1 0 0 1-1-1Zm18 0a1 1 0 0 1 1-1h2a1 1 0 1 1 0 2h-2a1 1 0 0 1-1-1ZM1 22a1 1 0 0 1 1-1h20a1 1 0 1 1 0 2H2a1 1 0 0 1-1-1Z" clip-rule="evenodd"/>
</svg>
