<svg xmlns="http://www.w3.org/2000/svg" width="24" height="24" fill="currentColor" viewBox="0 0 24 24">
  <path fill-rule="evenodd" d="M12 1a1 1 0 0 1 1 1v4.586l2.293-2.293a1 1 0 1 1 1.414 1.414l-4 4a1 1 0 0 1-1.414 0l-4-4a1 1 0 0 1 1.414-1.414L11 6.586V2a1 1 0 0 1 1-1Zm-7.807 9.193a1 1 0 0 1 1.414 0l1.414 1.414a1 1 0 1 1-1.414 1.414l-1.414-1.414a1 1 0 0 1 0-1.414Zm15.614 0a1 1 0 0 1 0 1.414l-1.414 1.414a1 1 0 0 1-1.414-1.414l1.414-1.414a1 1 0 0 1 1.414 0ZM12 14a4 4 0 0 0-4 4 1 1 0 1 1-2 0 6 6 0 0 1 12 0 1 1 0 1 1-2 0 4 4 0 0 0-4-4ZM1 18a1 1 0 0 1 1-1h2a1 1 0 1 1 0 2H2a1 1 0 0 1-1-1Zm18 0a1 1 0 0 1 1-1h2a1 1 0 1 1 0 2h-2a1 1 0 0 1-1-1ZM1 22a1 1 0 0 1 1-1h20a1 1 0 1 1 0 2H2a1 1 0 0 1-1-1Z" clip-rule="evenodd"/>
</svg>
