<svg xmlns="http://www.w3.org/2000/svg" width="24" height="24"  viewBox="0 0 24 24">
  <path d="M12 1a1 1 0 0 1 1 1v4.586l2.293-2.293a1 1 0 1 1 1.414 1.414l-4 4a1 1 0 0 1-1.414 0l-4-4a1 1 0 0 1 1.414-1.414L11 6.586V2a1 1 0 0 1 1-1ZM2 17a1 1 0 1 0 0 2h2a1 1 0 1 0 0-2H2Zm2.193-6.807a1 1 0 0 1 1.414 0l1.414 1.414a1 1 0 1 1-1.414 1.414l-1.414-1.414a1 1 0 0 1 0-1.414Zm15.614 1.414a1 1 0 0 0-1.414-1.414l-1.414 1.414a1 1 0 0 0 1.414 1.414l1.414-1.414ZM19 18a1 1 0 0 1 1-1h2a1 1 0 1 1 0 2h-2a1 1 0 0 1-1-1ZM6 18a6 6 0 0 1 12 0 1 1 0 0 1-1 1H7a1 1 0 0 1-1-1Zm-4 3a1 1 0 1 0 0 2h20a1 1 0 1 0 0-2H2Z"/>
</svg>
