<svg xmlns="http://www.w3.org/2000/svg" width="24" height="24" viewBox="0 0 24 24">
  <path d="M9 2h6v1.4c0 .56 0 .84-.109 1.054a1 1 0 0 1-.437.437C14.24 5 13.96 5 13.4 5h-2.8c-.56 0-.84 0-1.054-.109a1 1 0 0 1-.437-.437C9 4.24 9 3.96 9 3.4V2Z" opacity=".2"/>
  <path fill-rule="evenodd" d="M7.161 1h9.678c.527 0 .982 0 1.356.03.395.033.789.104 1.167.297a3 3 0 0 1 1.311 1.311c.193.378.264.772.296 1.167.031.375.031.83.031 1.356V18.84c0 .527 0 .982-.03 1.356-.033.395-.104.789-.297 1.167a3 3 0 0 1-1.311 1.311c-.378.193-.772.264-1.167.296-.375.031-.83.031-1.356.031H7.16c-.527 0-.981 0-1.356-.03-.395-.033-.789-.104-1.167-.297a3 3 0 0 1-1.311-1.311c-.193-.378-.264-.772-.296-1.167A17.9 17.9 0 0 1 3 18.838V5.162c0-.527 0-.981.03-1.356.033-.395.104-.789.297-1.167a3 3 0 0 1 1.311-1.311c.378-.193.772-.264 1.167-.296C6.18 1 6.635 1 7.161 1ZM14 3h-4v.4a8.205 8.205 0 0 0 .011.589h.014c.116.01.278.011.575.011h2.8a8.194 8.194 0 0 0 .589-.011v-.014C14 3.86 14 3.697 14 3.4V3ZM8 3v.432c0 .252 0 .498.017.706.019.229.063.499.201.77a2 2 0 0 0 .874.874c.271.138.541.182.77.201.208.017.454.017.706.017h2.864c.252 0 .498 0 .706-.017a2.03 2.03 0 0 0 .77-.201 2 2 0 0 0 .874-.874 2.03 2.03 0 0 0 .201-.77C16 3.93 16 3.684 16 3.432V3h.8c.577 0 .949 0 1.232.024.272.022.372.06.422.085a1 1 0 0 1 .437.437c.025.05.063.15.085.422C19 4.25 19 4.623 19 5.2v13.6c0 .577 0 .949-.024 1.232-.022.272-.06.372-.085.422a1 1 0 0 1-.437.437c-.05.025-.15.063-.422.085C17.75 21 17.377 21 16.8 21H7.2c-.577 0-.949 0-1.232-.024-.272-.022-.373-.06-.422-.085a1 1 0 0 1-.437-.437c-.025-.05-.063-.15-.085-.422C5 19.75 5 19.377 5 18.8V5.2c0-.577 0-.949.024-1.232.022-.272.06-.373.085-.422a1 1 0 0 1 .437-.437c.05-.025.15-.063.422-.085C6.25 3 6.623 3 7.2 3H8Z" clip-rule="evenodd"/>
</svg>
