<svg xmlns="http://www.w3.org/2000/svg" width="24" height="24" viewBox="0 0 24 24">
  <path d="M4 5.2c0-1.12 0-1.68.218-2.108a2 2 0 0 1 .874-.874C5.52 2 6.08 2 7.2 2h9.6c1.12 0 1.68 0 2.108.218a2 2 0 0 1 .874.874C20 3.52 20 4.08 20 5.2v13.6c0 1.12 0 1.68-.218 2.108a2 2 0 0 1-.874.874C18.48 22 17.92 22 16.8 22H7.2c-1.12 0-1.68 0-2.108-.218a2 2 0 0 1-.874-.874C4 20.48 4 19.92 4 18.8V5.2Z" opacity=".2"/>
  <path fill-rule="evenodd" d="M7.161 1h9.678c.527 0 .982 0 1.356.03.395.033.789.104 1.167.297a3 3 0 0 1 1.311 1.311c.193.378.264.772.296 1.167.031.375.031.83.031 1.356V18.84c0 .527 0 .982-.03 1.356-.033.395-.104.789-.297 1.167a3 3 0 0 1-1.311 1.311c-.378.193-.772.264-1.167.296-.375.031-.83.031-1.356.031H7.16c-.527 0-.981 0-1.356-.03-.395-.033-.789-.104-1.167-.297a3 3 0 0 1-1.311-1.311c-.193-.378-.264-.772-.296-1.167A17.9 17.9 0 0 1 3 18.838V5.162c0-.527 0-.981.03-1.356.033-.395.104-.789.297-1.167a3 3 0 0 1 1.311-1.311c.378-.193.772-.264 1.167-.296C6.18 1 6.635 1 7.161 1ZM5.968 3.024c-.272.022-.373.06-.422.085a1 1 0 0 0-.437.437c-.025.05-.063.15-.085.422C5 4.25 5 4.623 5 5.2v13.6c0 .577 0 .949.024 1.232.022.272.06.373.085.422a1 1 0 0 0 .437.437c.05.025.15.063.422.085C6.25 21 6.623 21 7.2 21h9.6c.577 0 .949 0 1.232-.024.272-.022.372-.06.422-.085a1 1 0 0 0 .437-.437c.025-.05.063-.15.085-.422C19 19.75 19 19.377 19 18.8V5.2c0-.577 0-.949-.024-1.232-.022-.272-.06-.373-.085-.422a1 1 0 0 0-.437-.437c-.05-.025-.15-.063-.422-.085C17.75 3 17.377 3 16.8 3H7.2c-.577 0-.949 0-1.232.024ZM10.5 17.5a1.5 1.5 0 1 1 3 0 1.5 1.5 0 0 1-3 0Z" clip-rule="evenodd"/>
</svg>
