<svg xmlns="http://www.w3.org/2000/svg" width="24" height="24" viewBox="0 0 24 24">
  <path d="M2.937 11.937c-.346-.346-.519-.519-.642-.72a2.001 2.001 0 0 1-.24-.579C2 10.409 2 10.165 2 9.676v-2.85c0-.489 0-.733.055-.963a2 2 0 0 1 .24-.579c.123-.201.296-.374.642-.72l1.626-1.626c.346-.346.519-.519.72-.642a2 2 0 0 1 .579-.24C6.092 2 6.336 2 6.825 2h2.85c.489 0 .733 0 .963.055.204.05.4.13.579.24.201.123.374.296.72.642l7.669 7.669c1.188 1.188 1.782 1.782 2.004 2.467a3 3 0 0 1 0 1.854c-.222.685-.816 1.28-2.004 2.467l-2.212 2.212c-1.188 1.188-1.782 1.782-2.467 2.004a3 3 0 0 1-1.854 0c-.685-.222-1.28-.816-2.467-2.004l-7.669-7.669Z" opacity=".2"/>
  <path fill-rule="evenodd" d="M6.742 1h3.016c.407 0 .766 0 1.114.083a3 3 0 0 1 .867.36c.306.186.559.44.846.728l.06.06 7.697 7.697c.57.57 1.04 1.039 1.39 1.453.366.43.661.865.83 1.383a4 4 0 0 1 0 2.472c-.169.518-.464.953-.83 1.383-.35.414-.82.884-1.39 1.453l-2.27 2.27c-.57.57-1.039 1.04-1.453 1.39-.43.366-.865.661-1.383.83a4 4 0 0 1-2.472 0c-.518-.169-.953-.464-1.383-.83-.414-.35-.884-.82-1.453-1.39L2.23 12.644l-.059-.059c-.288-.287-.542-.54-.729-.846a3 3 0 0 1-.36-.867C1 10.524 1 10.165 1 9.758V6.742c0-.407 0-.765.083-1.114a3 3 0 0 1 .36-.867c.186-.306.44-.559.728-.846l.06-.06L3.855 2.23l.059-.059c.287-.288.54-.542.846-.729a3 3 0 0 1 .867-.36C5.977 1 6.335 1 6.742 1Zm.083 2c-.536 0-.642.006-.73.028a1 1 0 0 0-.29.12c-.077.047-.156.117-.535.496L3.644 5.27c-.38.38-.45.458-.497.536a1 1 0 0 0-.12.289c-.02.088-.027.194-.027.73v2.85c0 .536.006.642.028.73a1 1 0 0 0 .12.29c.047.076.117.156.496.535l7.669 7.669c.606.605 1.018 1.017 1.362 1.309.336.285.54.397.707.452a2 2 0 0 0 1.236 0c.167-.055.371-.167.707-.452.344-.292.756-.703 1.362-1.31l2.212-2.211c.605-.606 1.017-1.018 1.309-1.362.285-.336.397-.54.452-.707a2 2 0 0 0 0-1.236c-.055-.167-.167-.371-.452-.707-.292-.344-.703-.756-1.31-1.362L11.23 3.644c-.38-.38-.459-.45-.536-.497a1 1 0 0 0-.289-.12c-.088-.02-.194-.027-.73-.027h-2.85ZM6.5 8a1.5 1.5 0 1 1 3 0 1.5 1.5 0 0 1-3 0Z" clip-rule="evenodd"/>
</svg>
