<svg xmlns="http://www.w3.org/2000/svg" width="24" height="24" viewBox="0 0 24 24">
  <path d="M3.937 12.937c-.346-.346-.519-.519-.642-.72a2.001 2.001 0 0 1-.24-.579C3 11.409 3 11.165 3 10.676V8.7c0-1.12 0-1.68.218-2.108a2 2 0 0 1 .874-.874C4.52 5.5 5.08 5.5 6.2 5.5h2.975c.489 0 .733 0 .963.055.204.05.4.13.579.24.201.123.374.296.72.642l7.3 7.3c.792.792 1.188 1.188 1.337 1.645a2 2 0 0 1 0 1.236c-.149.457-.545.853-1.337 1.645l-2.474 2.474c-.792.792-1.188 1.188-1.645 1.337a2 2 0 0 1-1.236 0c-.457-.149-.853-.545-1.645-1.337l-7.8-7.8Z" opacity=".2"/>
  <path fill-rule="evenodd" d="M11.224 3.055c-.203-.049-.43-.055-1.212-.055H6a1 1 0 1 1 0-2h4.114c.635 0 1.114 0 1.577.11a4 4 0 0 1 1.156.48c.406.248.745.587 1.194 1.037l.072.072 7.594 7.594a1 1 0 0 1-1.414 1.414l-7.594-7.594c-.553-.553-.718-.709-.897-.818a2.001 2.001 0 0 0-.578-.24ZM9.905 6.528c-.088-.022-.194-.028-.73-.028H6.2c-.577 0-.949 0-1.232.024-.272.022-.373.06-.422.085a1 1 0 0 0-.437.437c-.025.05-.063.15-.085.422C4 7.75 4 8.123 4 8.7v1.975c0 .536.006.642.028.73a1 1 0 0 0 .12.29c.047.076.117.156.496.535l7.8 7.8c.408.408.672.67.889.854.207.177.305.221.358.239a1 1 0 0 0 .618 0c.053-.018.15-.062.358-.239.217-.183.48-.446.889-.854l2.474-2.474c.408-.408.67-.672.854-.889.177-.207.221-.305.239-.358a1 1 0 0 0 0-.618c-.018-.053-.062-.15-.239-.358-.183-.217-.446-.48-.854-.889l-7.3-7.3c-.38-.38-.459-.45-.536-.497a1 1 0 0 0-.289-.12ZM9.258 4.5c.407 0 .766 0 1.114.083a3 3 0 0 1 .867.36c.306.186.559.44.846.728l.06.06 7.327 7.326c.372.373.694.695.937.981.257.303.485.631.616 1.035a3 3 0 0 1 0 1.854c-.131.404-.36.732-.616 1.035-.243.286-.565.608-.937.98l-2.53 2.53c-.372.372-.694.694-.98.937-.303.257-.631.485-1.035.616a3 3 0 0 1-1.854 0c-.404-.131-.732-.36-1.035-.616a18.005 18.005 0 0 1-.98-.937L3.23 13.644l-.059-.059c-.288-.287-.542-.54-.729-.846a3 3 0 0 1-.36-.867C2 11.524 2 11.165 2 10.758V8.66c0-.527 0-.981.03-1.356.033-.395.104-.789.297-1.167a3 3 0 0 1 1.311-1.311c.378-.193.772-.264 1.167-.296.375-.031.83-.031 1.356-.031h3.097Z" clip-rule="evenodd"/>
</svg>
