<svg xmlns="http://www.w3.org/2000/svg" width="24" height="24" viewBox="0 0 24 24">
  <path d="m19 2-3 3v3h3l3-3-2-1-1-2Zm-7 15a5 5 0 1 0 0-10 5 5 0 0 0 0 10Z" opacity=".2"/>
  <path fill-rule="evenodd" d="M19.16 1.013a1 1 0 0 1 .734.54l.851 1.702 1.702.85a1 1 0 0 1 .26 1.602l-3 3A1 1 0 0 1 19 9h-2.586l-3.707 3.707a1 1 0 0 1-1.414-1.414L15 7.586V5a1 1 0 0 1 .293-.707l3-3a1 1 0 0 1 .867-.28ZM17 7h1.586l1.726-1.726-.76-.38a1 1 0 0 1-.447-.447l-.379-.759L17 5.414V7Zm-5-4a9 9 0 1 0 9 9 1 1 0 1 1 2 0c0 6.075-4.925 11-11 11S1 18.075 1 12 5.925 1 12 1a1 1 0 1 1 0 2Zm0 5a4 4 0 1 0 4 4 1 1 0 1 1 2 0 6 6 0 1 1-6-6 1 1 0 1 1 0 2Z" clip-rule="evenodd"/>
</svg>
