<svg xmlns="http://www.w3.org/2000/svg" width="24" height="24" viewBox="0 0 24 24">
  <path fill-rule="evenodd" d="M20.047 3.756c-.45.12-.756.206-.991.29-.257.092-.344.154-.386.191a1 1 0 0 0-.309.536c-.011.054-.021.16.027.43.051.279.147.639.296 1.195l.155.58c.15.557.247.916.343 1.184.091.257.154.344.19.385a1 1 0 0 0 .536.31c.054.011.162.021.43-.028.245-.044.553-.124 1.003-.244l-1.294-4.83Zm-1.573 6.633c.308.202.653.346 1.018.424.416.088.814.055 1.204-.016.37-.067.81-.185 1.318-.322l.06-.015c.115-.031.252-.068.37-.11.138-.05.331-.133.513-.296a1.5 1.5 0 0 0 .463-.803 1.51 1.51 0 0 0 0-.592 4.943 4.943 0 0 0-.096-.398l-1.397-5.216a1.508 1.508 0 0 0-.412-.905 1.5 1.5 0 0 0-.803-.464 1.508 1.508 0 0 0-.591 0c-.124.022-.261.06-.376.09l-.06.016c-.51.137-.948.254-1.302.38-.374.134-.735.305-1.05.59a3 3 0 0 0-.67.875L5.105 6.724l-.023.006a4.28 4.28 0 0 0-.37.11c-.138.049-.33.132-.512.296a1.5 1.5 0 0 0-.49.997l-1.244.333-.023.006a5.127 5.127 0 0 0-.37.11c-.138.05-.33.132-.512.296a1.5 1.5 0 0 0-.464.803c-.05.24-.026.448 0 .591.022.124.06.261.09.377l.006.022.362 1.352.006.023c.031.115.068.252.11.37.05.138.133.33.296.512a1.5 1.5 0 0 0 .803.464c.24.05.448.026.591 0a4.898 4.898 0 0 0 .399-.096l1.243-.333a1.5 1.5 0 0 0 .923.619c.24.05.449.026.592 0 .124-.023.261-.06.376-.09l.023-.007 2.095-.561a2.986 2.986 0 0 0 .568 2.05l-4.407 6.463a1 1 0 1 0 1.653 1.126l4.406-6.462a3.007 3.007 0 0 0 1.535 0l4.406 6.462a1 1 0 1 0 1.653-1.126l-4.407-6.463c.365-.497.58-1.11.58-1.774 0-.646-.204-1.243-.55-1.733l4.024-1.078Zm-1.538-2.786-.018-.07-.176-.654-.017-.065-.283-1.057L5.817 8.604l.188.703.013.047.006.023.362 1.352.006.022.013.048.188.703 10.625-2.847-.282-1.052Zm-4.294 6.364a1 1 0 1 0-1.282 0 1.03 1.03 0 0 1 .16.11.996.996 0 0 0 .96 0 1.032 1.032 0 0 1 .162-.11Zm-8.24-2.914-.258-.965-.966.258.258.966.966-.258Z" clip-rule="evenodd"/>
</svg>
