<svg xmlns="http://www.w3.org/2000/svg" width="24" height="24" viewBox="0 0 24 24">
  <g opacity=".2">
    <path d="M4.798 8.67c-.072-.27-.108-.406-.083-.523a.5.5 0 0 1 .154-.268c.09-.08.225-.117.495-.19l11.784-3.157 1.294 4.83L6.658 12.52c-.27.072-.406.108-.523.083a.5.5 0 0 1-.268-.154c-.08-.09-.116-.225-.189-.495l-.88-3.284Z"/>
    <path d="M17.718 6.657c-.29-1.082-.435-1.623-.335-2.092A2 2 0 0 1 18 3.495c.357-.322.898-.467 1.98-.757.27-.072.405-.109.523-.084a.5.5 0 0 1 .267.155c.08.09.117.224.19.495l1.397 5.216c.072.27.109.406.084.523a.5.5 0 0 1-.155.268c-.089.08-.224.116-.495.189-1.082.29-1.623.434-2.092.335a2 2 0 0 1-1.07-.618c-.322-.357-.467-.898-.757-1.98l-.155-.58Z"/>
  </g>
  <path fill-rule="evenodd" d="M20.046 3.756c-.449.12-.755.206-.99.29-.257.092-.345.154-.386.191a1 1 0 0 0-.309.536c-.012.054-.022.161.027.43.051.279.147.639.296 1.196l.155.58c.15.556.246.915.342 1.183.092.257.154.344.191.385a1 1 0 0 0 .536.31c.054.011.161.021.43-.027.245-.045.553-.125 1.002-.245l-1.294-4.83Zm-1.573 6.633c.309.202.654.346 1.019.424.415.088.814.055 1.204-.016.37-.067.809-.185 1.318-.322l.06-.015c.115-.031.252-.068.37-.11.138-.05.33-.133.512-.296a1.5 1.5 0 0 0 .464-.803 1.51 1.51 0 0 0 0-.591 4.943 4.943 0 0 0-.096-.399l-1.398-5.216a1.508 1.508 0 0 0-.412-.905 1.5 1.5 0 0 0-.802-.464 1.508 1.508 0 0 0-.592 0c-.123.022-.26.06-.376.09l-.06.016c-.509.137-.948.254-1.302.38-.373.134-.735.305-1.05.59a3 3 0 0 0-.67.875L5.105 6.724l-.022.006a4.28 4.28 0 0 0-.37.11 1.5 1.5 0 0 0-.513.296 1.5 1.5 0 0 0-.49.997l-1.244.333-.022.006a5.127 5.127 0 0 0-.37.11c-.138.05-.331.132-.513.296a1.5 1.5 0 0 0-.463.803c-.051.24-.027.448 0 .591.022.124.059.261.09.377l.006.022.362 1.352.006.023c.03.115.068.252.11.37.049.138.132.33.296.512a1.5 1.5 0 0 0 .803.464c.239.05.448.026.591 0 .124-.022.261-.06.376-.09l.023-.006 1.243-.333a1.5 1.5 0 0 0 .923.619c.24.05.448.026.592 0a4.896 4.896 0 0 0 .398-.097l2.096-.561a2.986 2.986 0 0 0 .568 2.05l-4.407 6.463a1 1 0 0 0 1.652 1.126l4.406-6.462a3.003 3.003 0 0 0 1.536 0l4.406 6.462a1 1 0 1 0 1.652-1.126l-4.406-6.463c.364-.497.58-1.11.58-1.774 0-.645-.204-1.243-.55-1.733l4.023-1.078Zm-1.537-2.786-.019-.07-.175-.654-.018-.065-.283-1.057L5.816 8.604l.189.703.012.047.006.023.363 1.352.006.022.012.048.189.703 10.625-2.847-.282-1.052Zm-4.295 6.364a1 1 0 1 0-1.282 0 1.014 1.014 0 0 1 .161.11.995.995 0 0 0 .96 0 .987.987 0 0 1 .161-.11Zm-8.239-2.914-.259-.965-.966.258.26.966.965-.258Z" clip-rule="evenodd"/>
</svg>
