<svg xmlns="http://www.w3.org/2000/svg" width="24" height="24" viewBox="0 0 24 24">
  <path fill-rule="evenodd" d="M12 12.2a1 1 0 0 0-.641 1.768.985.985 0 0 1 .161.11.995.995 0 0 0 .96 0 1.007 1.007 0 0 1 .161-.11A1 1 0 0 0 12 12.2Zm2.42 2.774a3 3 0 1 0-4.84 0l-4.406 6.463a1 1 0 0 0 1.652 1.126l4.406-6.462a3.003 3.003 0 0 0 1.536 0l4.406 6.462a1 1 0 0 0 1.652-1.126l-4.406-6.463Z" clip-rule="evenodd" opacity=".5"/>
  <path fill-rule="evenodd" d="M20.046 3.756c-.449.12-.755.206-.99.29-.257.092-.345.154-.386.191a1 1 0 0 0-.309.536c-.012.054-.022.161.027.43.051.279.147.639.296 1.196l.155.58c.15.556.247.915.342 1.183.092.257.154.344.191.385a1 1 0 0 0 .536.31c.054.011.161.021.43-.027.245-.045.553-.125 1.002-.245l-1.294-4.83Zm-1.573 6.633a3 3 0 0 0 1.019.424c.415.088.814.055 1.204-.016.37-.067.809-.185 1.318-.322l.06-.015c.115-.031.252-.068.37-.11.138-.05.33-.133.512-.296a1.5 1.5 0 0 0 .464-.803c.05-.24.026-.448 0-.591a4.896 4.896 0 0 0-.096-.399l-1.398-5.216a3.287 3.287 0 0 1-.006-.022 4.3 4.3 0 0 0-.11-.371 1.506 1.506 0 0 0-.295-.512 1.5 1.5 0 0 0-.803-.464 1.508 1.508 0 0 0-.592 0c-.123.022-.26.06-.376.09l-.06.016c-.509.137-.948.254-1.302.38-.373.134-.735.305-1.05.59a3 3 0 0 0-.67.875L5.105 6.724l-.022.006a4.28 4.28 0 0 0-.37.11 1.5 1.5 0 0 0-.513.296 1.5 1.5 0 0 0-.49.997l-1.244.333-.022.006a5.127 5.127 0 0 0-.37.11c-.138.05-.331.132-.513.296a1.5 1.5 0 0 0-.463.803c-.051.24-.027.448 0 .591.022.124.059.261.09.377l.006.022.362 1.352.006.023c.03.115.068.252.11.37.049.138.132.33.296.512a1.5 1.5 0 0 0 .803.464c.239.05.448.026.591 0 .124-.022.261-.06.376-.09l.023-.006 1.243-.333a1.5 1.5 0 0 0 .923.619c.24.05.448.026.592 0a4.896 4.896 0 0 0 .398-.097l11.556-3.096Zm-1.537-2.786a22.787 22.787 0 0 1-.019-.07l-.175-.654-.018-.065-.283-1.057L5.816 8.604l.189.703.012.047.006.023.363 1.352.006.022.012.048.189.703 10.625-2.847-.282-1.052Zm-12.534 3.45-.259-.965-.966.258.26.966.965-.258Z" clip-rule="evenodd"/>
</svg>
