<svg xmlns="http://www.w3.org/2000/svg" width="24" height="24"  viewBox="0 0 24 24">
  <path fill-rule="evenodd" d="M20.12 1.676a1.53 1.53 0 0 1 .592 0c.31.066.59.228.803.464.163.182.247.375.296.512.042.118.079.256.11.37l1.41 5.261c.03.116.067.253.09.377.026.143.05.352 0 .591a1.5 1.5 0 0 1-.464.803 1.508 1.508 0 0 1-.512.296 5.306 5.306 0 0 1-.371.11l-.06.016c-.509.136-.948.254-1.318.321-.39.071-.789.104-1.204.016a2.998 2.998 0 0 1-1.018-.424l-4.025 1.078c.347.49.551 1.088.551 1.733 0 .664-.215 1.277-.58 1.774l4.406 6.463a1 1 0 1 1-1.652 1.126l-4.406-6.462a3.007 3.007 0 0 1-1.535 0l-4.407 6.462a1 1 0 0 1-1.652-1.126l4.406-6.463a2.987 2.987 0 0 1-.567-2.05l-2.118.568c-.115.03-.253.067-.376.09a1.53 1.53 0 0 1-.592 0 1.5 1.5 0 0 1-.923-.62l-1.266.34c-.115.03-.252.068-.376.09a1.51 1.51 0 0 1-.591 0 1.5 1.5 0 0 1-.803-.464 1.507 1.507 0 0 1-.296-.512 4.926 4.926 0 0 1-.11-.37l-.374-1.397c-.031-.116-.068-.253-.09-.377a1.508 1.508 0 0 1 0-.591 1.5 1.5 0 0 1 .463-.803c.182-.164.375-.247.512-.296.119-.042.256-.079.371-.11l1.266-.339a1.5 1.5 0 0 1 .49-.997c.182-.164.375-.247.512-.296.119-.042.256-.08.371-.11l11.579-3.102a3 3 0 0 1 .67-.877c.316-.284.677-.455 1.05-.588.354-.127.794-.244 1.303-.38l.06-.017c.114-.03.252-.067.375-.09Zm-.073 2.08c-.45.12-.756.206-.991.29-.257.092-.345.154-.386.192a1 1 0 0 0-.309.535c-.011.054-.022.161.027.43.051.279.147.639.296 1.196l.155.58c.15.556.247.915.342 1.183.092.257.155.344.192.386a1 1 0 0 0 .535.309c.054.011.161.021.43-.027.245-.045.553-.125 1.003-.244l-1.294-4.83Z" clip-rule="evenodd"/>
</svg>
