<svg xmlns="http://www.w3.org/2000/svg" width="24" height="24" viewBox="0 0 24 24">
  <path d="M10.5 4.5a2.5 2.5 0 0 0-5 0v9.258a4.5 4.5 0 1 0 5 0V4.5Z" opacity=".2"/>
  <path fill-rule="evenodd" d="M4.5 4.5a3.5 3.5 0 1 1 7 0v8.757a5.5 5.5 0 1 1-7 0V4.5ZM8 3a1.5 1.5 0 0 0-1.5 1.5v9.258a1 1 0 0 1-.444.83 3.5 3.5 0 1 0 3.887 0 1 1 0 0 1-.443-.83V4.5A1.5 1.5 0 0 0 8 3Zm6 0a1 1 0 0 1 1-1h6a1 1 0 1 1 0 2h-6a1 1 0 0 1-1-1Zm0 4a1 1 0 0 1 1-1h6a1 1 0 1 1 0 2h-6a1 1 0 0 1-1-1Zm0 4a1 1 0 0 1 1-1h6a1 1 0 1 1 0 2h-6a1 1 0 0 1-1-1Zm-8 6.5a2 2 0 1 1 4 0 2 2 0 0 1-4 0Z" clip-rule="evenodd"/>
</svg>
