<svg xmlns="http://www.w3.org/2000/svg" width="24" height="24" viewBox="0 0 24 24">
  <path fill-rule="evenodd" d="M9 3a1 1 0 0 1 1 1v2.586l1.293-1.293a1 1 0 1 1 1.414 1.414L10 9.414V11h2a1 1 0 1 1 0 2h-2v1.586l1.207 1.207A1 1 0 0 1 10 17.366V20a1 1 0 1 1-2 0v-2.586l-1.293 1.293a1 1 0 0 1-1.414-1.414L8 14.586V13H6.414l-2.707 2.707a1 1 0 0 1-1.414-1.414L3.586 13H2a1 1 0 1 1 0-2h1.586L2.293 9.707a1 1 0 0 1 1.414-1.414L6.414 11H8V9.414L5.293 6.707a1 1 0 0 1 1.414-1.414L8 6.586V4a1 1 0 0 1 1-1Z" clip-rule="evenodd" opacity=".5"/>
  <path fill-rule="evenodd" d="M15 4a3 3 0 1 1 6 0v10a5 5 0 1 1-6 0V4Zm3-1a1 1 0 0 0-1 1v10.535a1 1 0 0 1-.5.866 3 3 0 1 0 2.999 0 1 1 0 0 1-.499-.866V4a1 1 0 0 0-1-1Z" clip-rule="evenodd"/>
</svg>
