<svg xmlns="http://www.w3.org/2000/svg" width="24" height="24" viewBox="0 0 24 24">
  <path fill-rule="evenodd" d="M12 2a1 1 0 0 1 1 1v2a1 1 0 1 1-2 0V3a1 1 0 0 1 1-1ZM4.493 5.493a1 1 0 0 1 1.414 0l1.4 1.4a1 1 0 0 1-1.414 1.414l-1.4-1.4a1 1 0 0 1 0-1.414ZM8.92 9.01A5 5 0 0 1 12.016 8a1 1 0 0 1-.032 2 3 3 0 0 0-1.5 5.625 1 1 0 1 1-.968 1.75 5 5 0 0 1-.595-8.365ZM1 13a1 1 0 0 1 1-1h2a1 1 0 1 1 0 2H2a1 1 0 0 1-1-1Zm6.307 4.693a1 1 0 0 1 0 1.414l-1.4 1.4a1 1 0 0 1-1.414-1.414l1.4-1.4a1 1 0 0 1 1.414 0Z" clip-rule="evenodd" opacity=".5"/>
  <path fill-rule="evenodd" d="M15 4a3 3 0 1 1 6 0v10a5 5 0 1 1-6 0V4Zm3-1a1 1 0 0 0-1 1v10.535a1 1 0 0 1-.5.866 3 3 0 1 0 2.999 0 1 1 0 0 1-.499-.866V4a1 1 0 0 0-1-1Z" clip-rule="evenodd"/>
</svg>
