<svg xmlns="http://www.w3.org/2000/svg" width="24" height="24" viewBox="0 0 24 24">
  <path fill-rule="evenodd" d="M7 10a1 1 0 0 1 1 1v11a1 1 0 1 1-2 0V11a1 1 0 0 1 1-1Z" clip-rule="evenodd" opacity=".5"/>
  <path fill-rule="evenodd" d="M9.87 2.082A1.822 1.822 0 0 1 11.533 1 3.466 3.466 0 0 1 15 4.466V8h3.503a4 4 0 0 1 3.954 4.608l-1.077 7A4 4 0 0 1 17.426 23H4a3 3 0 0 1-3-3v-7a3 3 0 0 1 3-3h2.35l3.52-7.918Zm1.778.922-3.47 7.808A2 2 0 0 1 6.35 12H4a1 1 0 0 0-1 1v7a1 1 0 0 0 1 1h13.426a2 2 0 0 0 1.977-1.696l1.077-7A2 2 0 0 0 18.503 10H15a2 2 0 0 1-2-2V4.466c0-.771-.596-1.404-1.352-1.462Z" clip-rule="evenodd"/>
</svg>
