<svg xmlns="http://www.w3.org/2000/svg" width="24" height="24" viewBox="0 0 24 24">
  <path d="M2 13v7a2 2 0 0 0 2 2h3V11H4a2 2 0 0 0-2 2Z" opacity=".2"/>
  <path fill-rule="evenodd" d="M9.87 2.082A1.822 1.822 0 0 1 11.533 1 3.466 3.466 0 0 1 15 4.466V8h3.503a4 4 0 0 1 3.954 4.608l-1.077 7A4 4 0 0 1 17.426 23H4a3 3 0 0 1-3-3v-7a3 3 0 0 1 3-3h2.35l3.52-7.918ZM8 21h9.426a2 2 0 0 0 1.977-1.696l1.077-7A2 2 0 0 0 18.503 10H15a2 2 0 0 1-2-2V4.466c0-.771-.596-1.404-1.352-1.462l-3.47 7.808a2 2 0 0 1-.178.319V21Zm-2-9v9H4a1 1 0 0 1-1-1v-7a1 1 0 0 1 1-1h2Z" clip-rule="evenodd"/>
</svg>
