<svg xmlns="http://www.w3.org/2000/svg" width="24" height="24" viewBox="0 0 24 24">
  <path fill-rule="evenodd" d="M2.293 1.293a1 1 0 0 1 1.023-.242l3 1A1 1 0 0 1 7 3v2.586l3.11 3.11a6.5 6.5 0 0 1 9.651-6.82 1 1 0 0 1 .205 1.572l-2.628 2.628c-.21.21-.323.325-.4.414l-.008.01.009.01c.076.09.19.205.4.414l.237.238A8.176 8.176 0 0 0 18 7.57a8.176 8.176 0 0 0 .424-.408l2.458-2.458a1 1 0 0 1 1.632.327 6.503 6.503 0 0 1-4.322 8.747l3.015 3.015a3.121 3.121 0 0 1-4.414 4.414L12 16.414l-4.793 4.793a3.121 3.121 0 1 1-4.414-4.414L9.086 10.5 5.586 7H3a1 1 0 0 1-.949-.684l-1-3a1 1 0 0 1 .242-1.023l1-1ZM5 5V3.72l-1.73-.576-.126.126L3.721 5H5Zm6.206 6.208-6.999 7a1.121 1.121 0 0 0 1.586 1.585l7.157-7.157.058-.058.127-.128.098-.097a1.994 1.994 0 0 1 .476-.354c.097-.053.216-.11.36-.154a1.955 1.955 0 0 1 .45-.078c.27-.022.538.005.787.073.103.029.209.053.316.075h.001l.059.011A4.524 4.524 0 0 0 16.5 12 4.5 4.5 0 0 0 21 7.415l-1.184 1.183a9.172 9.172 0 0 1-.511.488 2.023 2.023 0 0 1-.687.402 2 2 0 0 1-1.236 0 2.022 2.022 0 0 1-.687-.402 9.175 9.175 0 0 1-.51-.488l-.283-.282a9.194 9.194 0 0 1-.488-.511 2.022 2.022 0 0 1-.402-.687 2 2 0 0 1 0-1.236c.094-.29.254-.512.402-.686.135-.16.31-.333.488-.512l1.577-1.577a4.5 4.5 0 0 0-5.394 5.27l.004.018c.045.228.084.426.109.584.023.15.051.356.03.567-.01.11-.029.24-.073.385a1.962 1.962 0 0 1-.153.36c-.144.268-.382.505-.58.701l-.058.058-.156.156v.001l-.002.001ZM13.414 15l4.793 4.793a1.121 1.121 0 0 0 1.586-1.586l-4.282-4.282a6.53 6.53 0 0 1-.275-.048 15.98 15.98 0 0 0-.584-.108 8.576 8.576 0 0 0-.28.272l-.008.01-.95.949Z" clip-rule="evenodd"/>
</svg>
