<svg xmlns="http://www.w3.org/2000/svg" width="24" height="24" viewBox="0 0 24 24">
  <path d="M15.631 7.631c-.396-.396-.594-.594-.668-.822a1 1 0 0 1 0-.618c.074-.228.272-.426.668-.822L18.47 2.53a6 6 0 0 0-8.3 6.895c.12.49.179.734.168.888a.849.849 0 0 1-.11.392c-.07.138-.207.274-.48.547L3.5 17.5a2.121 2.121 0 0 0 3 3l6.248-6.248c.273-.273.41-.41.547-.48a.849.849 0 0 1 .392-.11c.154-.011.399.049.888.168a6 6 0 0 0 6.895-8.3l-2.84 2.84c-.396.396-.594.594-.822.668a1 1 0 0 1-.618 0c-.228-.074-.426-.272-.822-.668l-.738-.738Z" opacity=".2"/>
  <path fill-rule="evenodd" d="M16 3a5 5 0 0 0-4.858 6.188l.005.02c.055.228.104.428.136.59.031.153.068.364.053.584-.02.298-.082.518-.22.783-.146.283-.395.53-.6.734l-.061.06-6.248 6.248a1.121 1.121 0 0 0 1.586 1.586l6.248-6.248.06-.06c.204-.206.451-.455.734-.601.265-.138.485-.2.783-.22.22-.015.43.022.584.053.162.032.362.08.59.136l.02.005a5 5 0 0 0 6.158-5.414l-1.654 1.654a9.167 9.167 0 0 1-.511.488 2.02 2.02 0 0 1-.687.402 2 2 0 0 1-1.236 0 2.023 2.023 0 0 1-.687-.402 9.171 9.171 0 0 1-.51-.488l-.783-.782a9.146 9.146 0 0 1-.488-.512 2.02 2.02 0 0 1-.402-.686 2 2 0 0 1 0-1.236 2.02 2.02 0 0 1 .402-.686c.135-.16.31-.333.488-.512l1.653-1.654A5.066 5.066 0 0 0 16 3ZM9 8a7 7 0 0 1 9.882-6.38 1 1 0 0 1 .295 1.617l-2.838 2.839c-.21.21-.324.325-.4.414l-.009.01.009.01c.076.09.19.205.4.414l.737.738c.21.21.325.323.414.4l.01.008.01-.009c.09-.076.205-.19.414-.4l2.839-2.838a1 1 0 0 1 1.618.295 7 7 0 0 1-8.043 9.683 15.473 15.473 0 0 0-.583-.134l-.013.011a9.236 9.236 0 0 0-.287.281l-6.248 6.248a3.121 3.121 0 1 1-4.414-4.414l6.248-6.248c.144-.144.225-.225.28-.287l.012-.013a15.488 15.488 0 0 0-.134-.584A7.014 7.014 0 0 1 9 8Zm.35 2.229a.274.274 0 0 0-.005.016v.002a.293.293 0 0 0-.005.017v.001" clip-rule="evenodd"/>
</svg>
