<svg xmlns="http://www.w3.org/2000/svg" width="24" height="24" viewBox="0 0 24 24">
  <path fill-rule="evenodd" d="M2.293 1.293a1 1 0 0 1 1.023-.242l3 1A1 1 0 0 1 7 3v2.586l4.207 4.207a1 1 0 0 1-1.414 1.414L5.586 7H3a1 1 0 0 1-.949-.684l-1-3a1 1 0 0 1 .242-1.023l1-1ZM5 5V3.72l-1.73-.576-.126.126L3.721 5H5Zm8.233 7.353c.585-.585 1.404-.696 2.072-.513.247.068.502.115.765.14a1 1 0 0 1 .612.288l4.525 4.525a3.121 3.121 0 0 1-4.414 4.414l-5.5-5.5a1 1 0 0 1 0-1.414l1.94-1.94Zm1.412 1.416Zm0 0a.075.075 0 0 1 .02-.007.242.242 0 0 1 .111.007c.24.066.485.118.735.156l4.282 4.282a1.121 1.121 0 0 1-1.586 1.586L13.414 15l1.232-1.232Z" clip-rule="evenodd" opacity=".5"/>
  <path fill-rule="evenodd" d="M10 7.5a6.5 6.5 0 0 1 9.761-5.624 1 1 0 0 1 .205 1.572l-2.628 2.628c-.21.21-.323.325-.4.414l-.008.01.009.01c.076.09.19.205.4.414l.237.238c.21.21.325.323.414.4l.01.008.01-.009c.09-.076.205-.19.414-.4l2.458-2.457a1 1 0 0 1 1.632.327 6.5 6.5 0 0 1-7.278 8.846 16.487 16.487 0 0 0-.584-.108l-.012.011c-.06.054-.138.132-.276.27l-7.157 7.157a3.121 3.121 0 0 1-4.414-4.414L9.95 9.636a9.013 9.013 0 0 0 .28-.288 16.528 16.528 0 0 0-.108-.584A6.525 6.525 0 0 1 10 7.5ZM16.5 3a4.5 4.5 0 0 0-4.415 5.377l.004.018c.045.228.084.425.109.584.023.15.051.356.03.567-.01.11-.029.24-.073.385a1.957 1.957 0 0 1-.153.36c-.144.268-.382.505-.58.701l-.058.058-7.157 7.157a1.121 1.121 0 0 0 1.586 1.586l7.157-7.157.058-.058c.196-.198.433-.436.7-.58.098-.052.217-.11.361-.153a1.963 1.963 0 0 1 .952-.043c.159.025.356.064.584.11l.018.003A4.5 4.5 0 0 0 21 7.415l-1.183 1.183a8.884 8.884 0 0 1-.511.488 2.02 2.02 0 0 1-.687.402 2 2 0 0 1-1.236 0 2.023 2.023 0 0 1-.687-.402 9.171 9.171 0 0 1-.51-.488l-.283-.282a9.19 9.19 0 0 1-.488-.512 2.022 2.022 0 0 1-.402-.686 2 2 0 0 1 0-1.236 2.02 2.02 0 0 1 .402-.686 9.15 9.15 0 0 1 .488-.512l1.577-1.577A4.52 4.52 0 0 0 16.5 3Z" clip-rule="evenodd"/>
</svg>
