<svg xmlns="http://www.w3.org/2000/svg" width="24" height="24" viewBox="0 0 24 24">
  <path fill-rule="evenodd" d="M7 2a1 1 0 0 1 1-1h8a1 1 0 1 1 0 2h-3v2a1 1 0 1 1-2 0V3H8a1 1 0 0 1-1-1Zm1.5 20a1 1 0 0 1 1-1h5a1 1 0 1 1 0 2h-5a1 1 0 0 1-1-1Z" clip-rule="evenodd" opacity=".5"/>
  <path fill-rule="evenodd" d="M8.759 4h6.482c.805 0 1.47 0 2.01.044.563.046 1.08.145 1.565.392a4 4 0 0 1 1.748 1.748c.247.485.346 1.002.392 1.564C21 8.29 21 8.954 21 9.758v4.483c0 .805 0 1.47-.044 2.01-.046.563-.145 1.08-.392 1.565a4 4 0 0 1-1.748 1.748 3.114 3.114 0 0 1-.342.149l.92 1.84a1 1 0 1 1-1.788.894l-1.227-2.453c-.343.006-.722.006-1.138.006H8.76c-.416 0-.795 0-1.138-.006l-1.227 2.453a1 1 0 1 1-1.788-.894l.92-1.84a3.11 3.11 0 0 1-.342-.149 4 4 0 0 1-1.748-1.748c-.247-.485-.346-1.002-.392-1.564C3 15.71 3 15.046 3 14.242V9.758c0-.805 0-1.47.044-2.01.046-.563.145-1.08.392-1.565a4 4 0 0 1 1.748-1.748c.485-.247 1.002-.346 1.564-.392C7.29 4 7.954 4 8.758 4ZM5 13v1.2c0 .857 0 1.439.038 1.889.035.438.1.663.18.819a2 2 0 0 0 .874.874c.156.08.38.145.819.18C7.361 18 7.943 18 8.8 18h6.4c.857 0 1.439 0 1.889-.038.438-.035.663-.1.819-.18a2 2 0 0 0 .874-.874c.08-.156.145-.38.18-.819.037-.45.038-1.032.038-1.889V13H5Zm14-2H5V9.8c0-.857 0-1.439.038-1.889.035-.438.1-.663.18-.819a2 2 0 0 1 .874-.874c.156-.08.38-.145.819-.18C7.361 6 7.943 6 8.8 6h6.4c.857 0 1.439 0 1.889.038.438.035.663.1.819.18a2 2 0 0 1 .874.874c.08.156.145.38.18.819C19 8.361 19 8.943 19 9.8V11ZM7 15.5a1.5 1.5 0 1 1 3 0 1.5 1.5 0 0 1-3 0Zm7 0a1.5 1.5 0 1 1 3 0 1.5 1.5 0 0 1-3 0Z" clip-rule="evenodd"/>
</svg>
