<svg xmlns="http://www.w3.org/2000/svg" width="24" height="24" viewBox="0 0 24 24">
  <path fill-rule="evenodd" d="M7 2a1 1 0 0 1 1-1h8a1 1 0 1 1 0 2h-3v1h2.241c.805 0 1.47 0 2.01.044.563.046 1.08.145 1.565.392a4 4 0 0 1 1.748 1.748c.247.485.346 1.002.392 1.564C21 8.29 21 8.954 21 9.758v4.483c0 .805 0 1.47-.044 2.01-.046.563-.145 1.08-.392 1.565a4 4 0 0 1-1.748 1.748 3.114 3.114 0 0 1-.342.149l.92 1.84a1 1 0 1 1-1.788.894l-1.227-2.453c-.343.006-.722.006-1.138.006H8.76c-.416 0-.795 0-1.138-.006l-1.227 2.453a1 1 0 1 1-1.788-.894l.92-1.84a3.11 3.11 0 0 1-.342-.149 4 4 0 0 1-1.748-1.748c-.247-.485-.346-1.002-.392-1.564C3 15.71 3 15.046 3 14.242V9.758c0-.805 0-1.47.044-2.01.046-.563.145-1.08.392-1.565a4 4 0 0 1 1.748-1.748c.485-.247 1.002-.346 1.564-.392C7.29 4 7.954 4 8.758 4H11V3H8a1 1 0 0 1-1-1Zm1.8 4c-.857 0-1.439 0-1.889.038-.438.035-.663.1-.819.18a2 2 0 0 0-.874.874c-.08.156-.145.38-.18.819C5 8.361 5 8.943 5 9.8V11h14V9.8c0-.857 0-1.439-.038-1.889-.035-.438-.1-.663-.18-.819a2 2 0 0 0-.874-.874c-.156-.08-.38-.145-.819-.18C16.639 6 16.057 6 15.2 6H8.8ZM19 13H5v1.2c0 .857 0 1.439.038 1.889.035.438.1.663.18.819a2 2 0 0 0 .874.874c.156.08.38.145.819.18C7.361 18 7.943 18 8.8 18h6.4c.857 0 1.439 0 1.889-.038.438-.035.663-.1.819-.18a2 2 0 0 0 .874-.874c.08-.156.145-.38.18-.819.037-.45.038-1.032.038-1.889V13ZM7 15.5a1.5 1.5 0 1 1 3 0 1.5 1.5 0 0 1-3 0Zm7 0a1.5 1.5 0 1 1 3 0 1.5 1.5 0 0 1-3 0ZM8.5 22a1 1 0 0 1 1-1h5a1 1 0 1 1 0 2h-5a1 1 0 0 1-1-1Z" clip-rule="evenodd"/>
</svg>
