<svg xmlns="http://www.w3.org/2000/svg" width="24" height="24" viewBox="0 0 24 24">
  <path fill-rule="evenodd" d="M8.978 1h-.403c-.367 0-.644 0-.921.039a4 4 0 0 0-.721.17c-.266.09-.514.213-.842.377l-.052.026-.986.494a1 1 0 1 0 .894 1.788l.987-.493c.402-.2.52-.257.636-.297a2 2 0 0 1 .36-.085A3.37 3.37 0 0 1 8.383 3l1 2H8.76c-.805 0-1.47 0-2.01.044-.563.046-1.08.145-1.565.392a4 4 0 0 0-1.748 1.748c-.247.485-.346 1.002-.392 1.564C3 9.29 3 9.954 3 10.758v4.483c0 .805 0 1.47.044 2.01.046.563.145 1.08.392 1.565a4 4 0 0 0 1.748 1.748c.112.057.226.106.342.149l-.42.84a1 1 0 1 0 1.789.894l.726-1.453C7.964 21 8.343 21 8.76 21h6.482c.416 0 .795 0 1.138-.006l.727 1.453a1 1 0 1 0 1.788-.894l-.42-.84c.116-.043.23-.092.342-.149a4 4 0 0 0 1.748-1.748c.247-.485.346-1.002.392-1.564.044-.541.044-1.206.044-2.01v-4.483c0-.805 0-1.47-.044-2.01-.046-.563-.145-1.08-.392-1.565a4 4 0 0 0-1.748-1.748c-.485-.247-1.002-.346-1.564-.392C16.71 5 16.046 5 15.242 5h-.624l1-2c.255.002.355.006.451.02.123.016.243.045.36.084.118.04.235.096.637.297l.987.493a1 1 0 1 0 .894-1.788l-.986-.494-.052-.026c-.328-.164-.576-.288-.842-.377a4 4 0 0 0-.72-.17c-.278-.04-.555-.04-.922-.039h-.403a1 1 0 0 0-.042 0H8.978Zm4.404 2h-2.764l1 2h.764l1-2ZM10.98 7a.97.97 0 0 0 .042 0h1.956a.97.97 0 0 0 .042 0h2.18c.857 0 1.439 0 1.889.038.438.035.663.1.819.18a2 2 0 0 1 .874.874c.08.156.145.38.18.819C19 9.361 19 9.943 19 10.8V12H5v-1.2c0-.857 0-1.439.038-1.889.035-.438.1-.663.18-.819a2 2 0 0 1 .874-.874c.156-.08.38-.145.819-.18C7.361 7 7.943 7 8.8 7h2.18ZM5 14v1.2c0 .857 0 1.439.038 1.889.035.438.1.663.18.819a2 2 0 0 0 .874.874c.156.08.38.145.819.18C7.361 19 7.943 19 8.8 19h6.4c.857 0 1.439 0 1.889-.038.438-.035.663-.1.819-.18a2 2 0 0 0 .874-.874c.08-.156.145-.38.18-.82.037-.45.038-1.031.038-1.888V14H5Zm2 2.5a1.5 1.5 0 1 1 3 0 1.5 1.5 0 0 1-3 0Zm7 0a1.5 1.5 0 1 1 3 0 1.5 1.5 0 0 1-3 0Z" clip-rule="evenodd"/>
</svg>
