<svg xmlns="http://www.w3.org/2000/svg" width="24" height="24" viewBox="0 0 24 24">
  <path fill-rule="evenodd" d="M8.978 1h-.403c-.367 0-.644 0-.921.039a4 4 0 0 0-.721.17c-.266.09-.514.213-.842.377l-.052.026-.986.494a1 1 0 1 0 .894 1.788l.987-.493c.402-.2.52-.257.636-.297a2 2 0 0 1 .36-.085A3.37 3.37 0 0 1 8.383 3l1.723 3.447A1 1 0 0 0 12 6.02a1 1 0 0 0 1.894.427L15.618 3c.255.002.355.006.451.02.123.016.243.045.36.084.118.04.235.096.637.297l.448-.894-.448.894.987.493a1 1 0 1 0 .894-1.788l-.986-.494-.052-.026c-.328-.164-.576-.288-.842-.377a4 4 0 0 0-.72-.17l-.14.99.14-.99c-.278-.04-.555-.04-.922-.039H8.978Zm4.404 2h-2.764l1.276 2.553a.997.997 0 0 1 .106.425.995.995 0 0 1 .105-.425L13.382 3Z" clip-rule="evenodd" opacity=".5"/>
  <path fill-rule="evenodd" d="M8.759 5h6.482c.805 0 1.47 0 2.01.044.563.046 1.08.145 1.565.392a4 4 0 0 1 1.748 1.748c.247.485.346 1.002.392 1.564.044.541.044 1.206.044 2.01v4.483c0 .805 0 1.47-.044 2.01-.046.563-.145 1.08-.392 1.565a4 4 0 0 1-1.748 1.748 3.114 3.114 0 0 1-.342.149l.42.84a1 1 0 1 1-1.788.894l-.727-1.453c-.343.006-.722.006-1.138.006H8.76c-.416 0-.795 0-1.138-.006l-.726 1.453a1 1 0 1 1-1.79-.894l.42-.84a3.093 3.093 0 0 1-.341-.149 4 4 0 0 1-1.748-1.748c-.247-.485-.346-1.002-.392-1.564C3 16.71 3 16.046 3 15.242v-4.483c0-.805 0-1.47.044-2.01.046-.563.145-1.08.392-1.565a4 4 0 0 1 1.748-1.748c.485-.247 1.002-.346 1.564-.392C7.29 5 7.954 5 8.758 5ZM5 14v1.2c0 .857 0 1.439.038 1.889.035.438.1.663.18.819a2 2 0 0 0 .874.874c.156.08.38.145.819.18C7.361 19 7.943 19 8.8 19h6.4c.857 0 1.439 0 1.889-.038.438-.035.663-.1.819-.18a2 2 0 0 0 .874-.874c.08-.156.145-.38.18-.819.037-.45.038-1.032.038-1.889V14H5Zm14-2H5v-1.2c0-.857 0-1.439.038-1.889.035-.438.1-.663.18-.819a2 2 0 0 1 .874-.874c.156-.08.38-.145.819-.18C7.361 7 7.943 7 8.8 7h6.4c.857 0 1.439 0 1.889.038.438.035.663.1.819.18a2 2 0 0 1 .874.874c.08.156.145.38.18.819C19 9.361 19 9.943 19 10.8V12ZM7 16.5a1.5 1.5 0 1 1 3 0 1.5 1.5 0 0 1-3 0Zm7 0a1.5 1.5 0 1 1 3 0 1.5 1.5 0 0 1-3 0Z" clip-rule="evenodd"/>
</svg>
