<svg xmlns="http://www.w3.org/2000/svg" width="24" height="24" viewBox="0 0 24 24">
  <path d="M11 22c-.14 0-.29-.03-.43-.1a.993.993 0 0 1-.47-1.33l1.9-3.98s.01-.03.02-.04l2.86-5.97c.3-.63.5-1.04.97-1.27.41-.2.89-.2 1.3 0 .47.23.67.64.97 1.27l2.86 5.98s.01.03.02.04l1.9 3.98c.24.5.03 1.1-.47 1.33a.99.99 0 0 1-1.33-.47l-1.64-3.43h-5.92l-1.64 3.43c-.17.36-.53.57-.9.57V22Zm3.5-6h4l-2-4.18-2 4.18Z" opacity=".5"/>
  <path d="M4 15c-.26 0-.51-.1-.71-.29a.996.996 0 0 1 0-1.41l2.79-2.79-1.79-1.79A.996.996 0 1 1 5.7 7.31L7.49 9.1l1.72-1.72.91-1.36H2c-.55 0-1-.45-1-1s.45-1 1-1h12c.55 0 1 .45 1 1s-.45 1-1 1h-1.46l-1.7 2.55c-.04.05-.08.11-.12.15l-1.79 1.79 1.79 1.79a.996.996 0 1 1-1.41 1.41l-1.79-1.79-2.79 2.79c-.2.2-.45.29-.71.29H4ZM8 3H7c-.55 0-1-.45-1-1s.45-1 1-1h1c.55 0 1 .45 1 1s-.45 1-1 1Z"/>
</svg>
