<svg xmlns="http://www.w3.org/2000/svg" width="24" height="24" viewBox="0 0 24 24">
  <path fill-rule="evenodd" d="M6 2a1 1 0 0 1 1-1h1a1 1 0 0 1 0 2H7a1 1 0 0 1-1-1Zm5.986 2H2a1 1 0 0 0 0 2h8.132l-.91 1.363L7.5 9.086 5.707 7.293a1 1 0 0 0-1.414 1.414L6.086 10.5l-2.793 2.793a1 1 0 1 0 1.414 1.414L7.5 11.914l1.793 1.793a1 1 0 0 0 1.414-1.414L8.914 10.5l1.793-1.793a1.01 1.01 0 0 0 .125-.152L12.535 6H14a1 1 0 1 0 0-2h-2.014Zm3.862 5.308a1.5 1.5 0 0 1 1.304 0c.359.173.553.475.65.637.1.17.205.387.306.6l4.794 10.024a1 1 0 1 1-1.804.863L19.457 18h-5.914l-1.64 3.431a1 1 0 1 1-1.805-.863l4.778-9.99.016-.032c.101-.214.205-.43.306-.6.097-.163.291-.465.65-.638ZM14.5 16h4l-2-4.182-2 4.182Z" clip-rule="evenodd"/>
</svg>
