<svg xmlns="http://www.w3.org/2000/svg" width="24" height="24" viewBox="0 0 24 24">
  <path fill-rule="evenodd" d="M8 2a1 1 0 0 1 1 1v1h5a1 1 0 1 1 0 2h-1.672a19.05 19.05 0 0 1-2.763 6.637c.285.175.569.327.845.45a1 1 0 1 1-.82 1.825 9.611 9.611 0 0 1-1.227-.668 18.324 18.324 0 0 1-5.918 4.651 1 1 0 1 1-.89-1.79 16.323 16.323 0 0 0 5.22-4.08c-1.14-1.03-2.136-2.309-2.696-3.636a1 1 0 0 1 1.842-.778c.405.959 1.152 1.955 2.055 2.802A17.008 17.008 0 0 0 10.279 6H2a1 1 0 1 1 0-2h5V3a1 1 0 0 1 1-1Zm7.848 7.308a1.5 1.5 0 0 1 1.304 0c.359.173.553.475.65.637.1.17.204.387.306.6l4.794 10.024a1 1 0 1 1-1.804.863L19.457 18h-5.914l-1.64 3.431a1 1 0 0 1-1.805-.863l4.778-9.99.016-.032c.101-.214.205-.43.306-.6.097-.163.291-.465.65-.638ZM14.5 16h4l-2-4.182-2 4.182Z" clip-rule="evenodd"/>
</svg>
