<svg xmlns="http://www.w3.org/2000/svg" width="24" height="24" viewBox="0 0 24 24">
  <path d="M3 4.6c0-.56 0-.84.109-1.054a1 1 0 0 1 .437-.437C3.76 3 4.04 3 4.6 3h.8c.56 0 .84 0 1.054.109a1 1 0 0 1 .437.437C7 3.76 7 4.04 7 4.6v.8c0 .56 0 .84-.109 1.054a1 1 0 0 1-.437.437C6.24 7 5.96 7 5.4 7h-.8c-.56 0-.84 0-1.054-.109a1 1 0 0 1-.437-.437C3 6.24 3 5.96 3 5.4v-.8Zm0 14c0-.56 0-.84.109-1.054a1 1 0 0 1 .437-.437C3.76 17 4.04 17 4.6 17h.8c.56 0 .84 0 1.054.109a1 1 0 0 1 .437.437C7 17.76 7 18.04 7 18.6v.8c0 .56 0 .84-.109 1.054a1 1 0 0 1-.437.437C6.24 21 5.96 21 5.4 21h-.8c-.56 0-.84 0-1.054-.109a1 1 0 0 1-.437-.437C3 20.24 3 19.96 3 19.4v-.8Zm14-14c0-.56 0-.84.109-1.054a1 1 0 0 1 .437-.437C17.76 3 18.04 3 18.6 3h.8c.56 0 .84 0 1.054.109a1 1 0 0 1 .437.437C21 3.76 21 4.04 21 4.6v.8c0 .56 0 .84-.109 1.054a1 1 0 0 1-.437.437C20.24 7 19.96 7 19.4 7h-.8c-.56 0-.84 0-1.054-.109a1 1 0 0 1-.437-.437C17 6.24 17 5.96 17 5.4v-.8Zm0 14c0-.56 0-.84.109-1.054a1 1 0 0 1 .437-.437C17.76 17 18.04 17 18.6 17h.8c.56 0 .84 0 1.054.109a1 1 0 0 1 .437.437C21 17.76 21 18.04 21 18.6v.8c0 .56 0 .84-.109 1.054a1 1 0 0 1-.437.437C20.24 21 19.96 21 19.4 21h-.8c-.56 0-.84 0-1.054-.109a1 1 0 0 1-.437-.437C17 20.24 17 19.96 17 19.4v-.8Z" opacity=".2"/>
  <path fill-rule="evenodd" d="M4.568 2h.864c.252 0 .498 0 .706.017.229.019.499.063.77.201a2 2 0 0 1 .874.874c.138.271.182.541.201.77.004.044.007.09.009.138h8.016a4.28 4.28 0 0 1 .009-.138 2.03 2.03 0 0 1 .201-.77 2 2 0 0 1 .874-.874 2.03 2.03 0 0 1 .77-.201C18.07 2 18.316 2 18.568 2h.864c.252 0 .498 0 .706.017.229.019.499.063.77.201a2 2 0 0 1 .874.874c.138.271.182.541.201.77.017.208.017.454.017.706v.864c0 .252 0 .498-.017.706a2.022 2.022 0 0 1-.201.77 2 2 0 0 1-.874.874 2.022 2.022 0 0 1-.77.201c-.044.004-.09.007-.138.009v8.016c.048.003.094.005.138.009.229.019.499.063.77.201a2 2 0 0 1 .874.874c.138.271.182.541.201.77.017.208.017.454.017.706v.864c0 .252 0 .498-.017.706a2.022 2.022 0 0 1-.201.77 2 2 0 0 1-.874.874 2.022 2.022 0 0 1-.77.201c-.208.017-.454.017-.706.017h-.864c-.252 0-.498 0-.706-.017a2.022 2.022 0 0 1-.77-.201 2 2 0 0 1-.874-.874 2.022 2.022 0 0 1-.201-.77 4.264 4.264 0 0 1-.009-.138H7.992a4.022 4.022 0 0 1-.009.138 2.022 2.022 0 0 1-.201.77 2 2 0 0 1-.874.874 2.022 2.022 0 0 1-.77.201C5.93 22 5.684 22 5.432 22h-.864c-.252 0-.498 0-.706-.017a2.022 2.022 0 0 1-.77-.201 2 2 0 0 1-.874-.874 2.022 2.022 0 0 1-.201-.77C2 19.93 2 19.684 2 19.432v-.864c0-.252 0-.498.017-.706a2.03 2.03 0 0 1 .201-.77 2 2 0 0 1 .874-.874 2.03 2.03 0 0 1 .77-.201c.044-.004.09-.006.138-.009V7.992a4.033 4.033 0 0 1-.138-.009 2.021 2.021 0 0 1-.77-.201 2 2 0 0 1-.874-.874 2.022 2.022 0 0 1-.201-.77C2 5.93 2 5.684 2 5.432v-.864c0-.252 0-.498.017-.706a2.03 2.03 0 0 1 .201-.77 2 2 0 0 1 .874-.874 2.03 2.03 0 0 1 .77-.201C4.07 2 4.316 2 4.568 2ZM6 7.992v8.016c.048.003.094.005.138.009.229.019.499.063.77.201a2 2 0 0 1 .874.874c.138.271.182.541.201.77.004.044.007.09.009.138h8.016c.003-.048.005-.094.009-.138a2.03 2.03 0 0 1 .201-.77 2 2 0 0 1 .874-.874 2.03 2.03 0 0 1 .77-.201c.044-.004.09-.006.138-.009V7.992a4.022 4.022 0 0 1-.138-.009 2.022 2.022 0 0 1-.77-.201 2 2 0 0 1-.874-.874 2.022 2.022 0 0 1-.201-.77A4.28 4.28 0 0 1 16.008 6H7.992a4.035 4.035 0 0 1-.009.138 2.022 2.022 0 0 1-.201.77 2 2 0 0 1-.874.874 2.021 2.021 0 0 1-.77.201c-.044.004-.09.007-.138.009ZM6 4.6a8.184 8.184 0 0 0-.011-.589h-.014A8.192 8.192 0 0 0 5.4 4h-.8a8.192 8.192 0 0 0-.589.011v.014C4 4.14 4 4.303 4 4.6v.8a8.185 8.185 0 0 0 .011.589h.014C4.14 6 4.303 6 4.6 6h.8a8.183 8.183 0 0 0 .589-.011v-.014C6 5.86 6 5.697 6 5.4v-.8Zm12 .8a8.205 8.205 0 0 0 .012.589h.013c.116.01.279.011.575.011h.8c.297 0 .459 0 .575-.01l.014-.001v-.014C20 5.86 20 5.697 20 5.4v-.8a8.205 8.205 0 0 0-.012-.589h-.013A8.194 8.194 0 0 0 19.4 4h-.8a8.194 8.194 0 0 0-.588.011l-.002.014C18 4.14 18 4.303 18 4.6v.8Zm.6 12.6c-.297 0-.459 0-.575.01l-.013.001-.002.014c-.01.116-.01.279-.01.575v.8a8.207 8.207 0 0 0 .012.588l.013.002c.116.01.279.01.575.01h.8a8.207 8.207 0 0 0 .589-.012v-.013c.01-.116.011-.279.011-.575v-.8a8.207 8.207 0 0 0-.012-.589h-.013A8.207 8.207 0 0 0 19.4 18h-.8ZM6 18.6a8.185 8.185 0 0 0-.011-.589h-.014A8.205 8.205 0 0 0 5.4 18h-.8c-.297 0-.459 0-.575.01l-.014.001v.014C4 18.14 4 18.304 4 18.6v.8a8.187 8.187 0 0 0 .011.588l.014.002c.116.01.278.01.575.01h.8a8.205 8.205 0 0 0 .589-.012v-.013C6 19.86 6 19.696 6 19.4v-.8Z" clip-rule="evenodd"/>
</svg>
