<svg xmlns="http://www.w3.org/2000/svg" width="24" height="24" viewBox="0 0 24 24">
  <path fill-rule="evenodd" d="M1.293 6.293a1 1 0 0 1 1.414 0l4.869 4.869c.21.21.325.323.414.4l.01.008.01-.009c.09-.076.205-.19.414-.4l2.76-2.76c.179-.178.352-.352.511-.487.175-.148.397-.308.687-.402a2 2 0 0 1 1.236 0c.29.094.512.254.687.402.159.135.332.31.51.488l7.892 7.89a1 1 0 0 1-1.414 1.415l-7.869-7.869a8.176 8.176 0 0 0-.414-.4L13 9.43l-.01.009a7.64 7.64 0 0 0-.414.4l-2.76 2.76a9.19 9.19 0 0 1-.512.487 2.022 2.022 0 0 1-.686.402 2 2 0 0 1-1.236 0 2.022 2.022 0 0 1-.686-.402 9.19 9.19 0 0 1-.512-.488l-.022-.022-4.87-4.869a1 1 0 0 1 0-1.414Z" clip-rule="evenodd" opacity=".5"/>
  <path fill-rule="evenodd" d="M22 9a1 1 0 0 1 1 1v7a1 1 0 0 1-1 1h-7a1 1 0 1 1 0-2h6v-6a1 1 0 0 1 1-1Z" clip-rule="evenodd"/>
</svg>
