<svg xmlns="http://www.w3.org/2000/svg" width="24" height="24" viewBox="0 0 24 24">
  <path fill-rule="evenodd" d="M22.707 6.293a1 1 0 0 1 0 1.414l-7.891 7.891a9.18 9.18 0 0 1-.511.488 2.022 2.022 0 0 1-.687.402 2 2 0 0 1-1.236 0 2.022 2.022 0 0 1-.687-.402 9.18 9.18 0 0 1-.51-.488l-2.76-2.76a8.177 8.177 0 0 0-.415-.4L8 12.43l-.01.009a7.64 7.64 0 0 0-.414.4l-4.869 4.868a1 1 0 0 1-1.414-1.414l4.869-4.869.022-.022a9.19 9.19 0 0 1 .512-.488c.174-.148.396-.308.686-.402a2 2 0 0 1 1.236 0c.29.094.512.254.686.402.16.135.333.31.512.488l2.76 2.76c.21.21.325.323.414.4l.01.008.01-.009c.09-.076.205-.19.414-.4l7.869-7.868a1 1 0 0 1 1.414 0Z" clip-rule="evenodd" opacity=".5"/>
  <path fill-rule="evenodd" d="M14 7a1 1 0 0 1 1-1h7a1 1 0 0 1 1 1v7a1 1 0 1 1-2 0V8h-6a1 1 0 0 1-1-1Z" clip-rule="evenodd"/>
</svg>
