<svg xmlns="http://www.w3.org/2000/svg" width="24" height="24" viewBox="0 0 24 24">
  <path d="m2.39 18.098 8.225-14.206c.455-.785.682-1.178.979-1.31a1 1 0 0 1 .812 0c.297.132.524.525.979 1.31l8.225 14.206c.456.788.684 1.182.65 1.506a1 1 0 0 1-.406.705c-.263.191-.719.191-1.63.191H3.776c-.91 0-1.366 0-1.629-.191a1 1 0 0 1-.406-.705c-.034-.324.194-.718.65-1.506Z" opacity=".2"/>
  <path d="M20.49 22H4.04c-1.09 0-1.69 0-2.22-.38-.46-.33-.75-.85-.81-1.41-.07-.65.23-1.17.78-2.11l8.22-14.2c.54-.94.84-1.46 1.44-1.72.52-.23 1.11-.23 1.63 0 .59.26.89.78 1.44 1.72l8.23 14.21c.55.94.85 1.46.78 2.11-.06.56-.36 1.08-.81 1.41-.53.38-1.13.38-2.22.38l-.01-.01ZM3.04 19.98c.21.02.61.02 1 .02h16.45c.39 0 .79 0 1-.02-.09-.2-.3-.55-.48-.88L12.78 4.9c-.2-.34-.4-.68-.52-.85-.12.17-.32.51-.52.85L3.52 19.1c-.2.34-.4.68-.48.88Z"/>
</svg>
