<svg xmlns="http://www.w3.org/2000/svg" width="24" height="24" viewBox="0 0 24 24">
  <path d="M13 6a1 1 0 1 0-2 0v.5a1 1 0 1 0 2 0V6Zm0 3.5a1 1 0 1 0-2 0v1a1 1 0 1 0 2 0v-1Zm-1 3a1 1 0 0 1 1 1v1a1 1 0 1 1-2 0v-1a1 1 0 0 1 1-1Zm1 5a1 1 0 1 0-2 0v.5a1 1 0 1 0 2 0v-.5Z"/>
  <path fill-rule="evenodd" d="M13.752 2.111c-.76-1.381-2.745-1.381-3.504 0L.938 19.036C.207 20.37 1.17 22 2.692 22H21.31c1.52 0 2.485-1.631 1.752-2.964l-9.31-16.925ZM2.692 20 12 3.075 21.309 20H2.69Z" clip-rule="evenodd"/>
</svg>
