<svg xmlns="http://www.w3.org/2000/svg" width="24" height="24" viewBox="0 0 24 24">
  <path fill-rule="evenodd" d="M5.161 2h7.678c.527 0 .981 0 1.356.03.395.033.789.104 1.167.297a3 3 0 0 1 1.311 1.311c.193.378.264.772.296 1.167.031.375.031.83.031 1.356V7h1.388c.19 0 .43-.001.665.055a2 2 0 0 1 .578.24c.206.126.375.296.509.43l.036.037 2.063 2.062.036.036c.134.134.304.303.43.51.11.178.19.373.24.577a2.8 2.8 0 0 1 .055.665v2.82c0 .252 0 .498-.017.706a2.022 2.022 0 0 1-.201.77 2 2 0 0 1-.874.874 2.022 2.022 0 0 1-.77.201 6.556 6.556 0 0 1-.475.017 3.5 3.5 0 1 1-6.326 0H9.663a3.5 3.5 0 1 1-6.285-.085 2.659 2.659 0 0 1-.74-.242 3 3 0 0 1-1.311-1.311c-.193-.378-.264-.772-.296-1.167C1 13.82 1 13.365 1 12.838V6.162c0-.527 0-.981.03-1.356.033-.395.104-.789.297-1.167a3 3 0 0 1 1.311-1.311c.378-.193.772-.264 1.167-.296C4.18 2 4.635 2 5.161 2ZM6.5 17a1.5 1.5 0 1 0 0 3 1.5 1.5 0 0 0 0-3Zm8.5-2V6.2c0-.577 0-.949-.024-1.232-.022-.272-.06-.373-.085-.422a1 1 0 0 0-.437-.437c-.05-.025-.15-.063-.422-.085C13.75 4 13.377 4 12.8 4H5.2c-.577 0-.949 0-1.232.024-.272.022-.373.06-.422.085a1 1 0 0 0-.437.437c-.025.05-.063.15-.085.422C3 5.25 3 5.623 3 6.2v6.6c0 .577 0 .949.024 1.232.022.272.06.373.085.422a1 1 0 0 0 .437.437c.05.025.15.063.422.085C4.25 15 4.623 15 5.2 15H15Zm2-6v6h3.4a8.207 8.207 0 0 0 .589-.011v-.014c.01-.116.011-.278.011-.575v-2.737c0-.131 0-.197-.002-.244v-.004l-.003-.002a6.14 6.14 0 0 0-.17-.175l-2.063-2.062a6.175 6.175 0 0 0-.177-.173h-.004A6.18 6.18 0 0 0 18.337 9H17Zm.5 8a1.5 1.5 0 1 0 0 3 1.5 1.5 0 0 0 0-3Z" clip-rule="evenodd"/>
</svg>
