<svg xmlns="http://www.w3.org/2000/svg" width="24" height="24" viewBox="0 0 24 24">
  <path fill-rule="evenodd" d="M16.581 8.002A6.18 6.18 0 0 0 16.337 8H14a1 1 0 1 1 0-2h2.388c.19 0 .43-.001.665.055.204.05.399.13.578.24.206.126.375.296.509.43l.036.037 4.063 4.062.036.036c.134.134.304.303.43.51.11.178.19.373.24.577a2.8 2.8 0 0 1 .055.665v2.914c0 .21 0 .415-.012.59a2.03 2.03 0 0 1-.14.65 2 2 0 0 1-1.083 1.082 2.03 2.03 0 0 1-.65.14c-.174.012-.378.012-.588.012H20.5a1 1 0 1 1 0-2 8.095 8.095 0 0 0 .492-.008v-.013c.008-.097.008-.232.008-.479v-2.837c0-.131 0-.197-.002-.244v-.004l-.003-.002a6.14 6.14 0 0 0-.17-.175l-4.063-4.062a6.19 6.19 0 0 0-.18-.174Z" clip-rule="evenodd" opacity=".5"/>
  <path fill-rule="evenodd" d="M5.161 3h5.678c.527 0 .981 0 1.356.03.395.033.789.104 1.167.297a3 3 0 0 1 1.311 1.311c.193.378.264.772.296 1.167.031.375.031.83.031 1.356v8.535A3.5 3.5 0 1 1 14.535 18h-3.661a4.002 4.002 0 0 1-7.781-.14A3.001 3.001 0 0 1 1 15V7.161c0-.527 0-.981.03-1.356.033-.395.104-.789.297-1.167a3 3 0 0 1 1.311-1.311c.378-.193.772-.264 1.167-.296C4.18 3 4.635 3 5.161 3ZM3.235 15.645a4.002 4.002 0 0 1 7.639.355H13V7.2c0-.577 0-.949-.024-1.232-.022-.272-.06-.373-.085-.422a1 1 0 0 0-.437-.437c-.05-.025-.15-.063-.422-.085C11.75 5 11.377 5 10.8 5H5.2c-.577 0-.949 0-1.232.024-.272.022-.373.06-.422.085a1 1 0 0 0-.437.437c-.025.05-.063.15-.085.422C3 6.25 3 6.623 3 7.2V15c0 .246.089.47.235.645ZM7 15a2 2 0 1 0 0 4 2 2 0 0 0 0-4Zm11 1a1.5 1.5 0 1 0 0 3 1.5 1.5 0 0 0 0-3Z" clip-rule="evenodd"/>
</svg>
