<svg xmlns="http://www.w3.org/2000/svg" width="24" height="24" viewBox="0 0 24 24">
  <path fill-rule="evenodd" d="M18.026 5.017A16.908 16.908 0 0 0 17 5h-2.25v3a1 1 0 1 1-2 0V5h-1.5a1 1 0 1 1-2 0v-.032A1 1 0 0 1 9.5 3h7.532c.439 0 .817 0 1.13.021.33.023.66.072.986.207a3 3 0 0 1 1.624 1.624c.135.326.184.656.207.986.021.313.021.691.021 1.13V7a1 1 0 1 1-2 0c0-.48 0-.79-.017-1.026-.015-.228-.042-.315-.06-.357a1 1 0 0 0-.54-.54c-.042-.018-.129-.045-.357-.06Z" clip-rule="evenodd" opacity=".5"/>
  <path fill-rule="evenodd" d="M2.293 2.293a1 1 0 0 1 1.414 0l18 18a1 1 0 0 1-1.414 1.414l-5.543-5.543V19H16a1 1 0 1 1 0 2H8a1 1 0 1 1 0-2h1.25v-8.336L5 6.414V7a1 1 0 0 1-2 0V6c0-.463.105-.902.293-1.293l-1-1a1 1 0 0 1 0-1.414Zm8.957 10.371V19h1.5v-4.836l-1.5-1.5Z" clip-rule="evenodd"/>
</svg>
