<svg xmlns="http://www.w3.org/2000/svg" width="24" height="24" viewBox="0 0 24 24">
  <path d="M12 2c-4.98 0-9.11 3.64-9.874 8.406-.074.465-.111.698-.018.946.075.198.257.412.44.516.23.132.504.132 1.052.132h16.8c.548 0 .822 0 1.052-.132.183-.104.365-.318.44-.516.093-.248.056-.48-.018-.946C21.11 5.641 16.98 2 12 2Z" opacity=".2"/>
  <path fill-rule="evenodd" d="M12 3a9.003 9.003 0 0 0-8.93 7.851 2.152 2.152 0 0 0-.016.137c.105.01.253.012.546.012h16.8c.293 0 .44-.001.546-.011a2.112 2.112 0 0 0-.016-.138c-.01-.077-.025-.167-.044-.287A9.003 9.003 0 0 0 12 3Zm1 10h7.435c.243 0 .493 0 .709-.021a1.97 1.97 0 0 0 .804-.242c.386-.22.723-.617.88-1.032.19-.506.11-.995.048-1.367l-.015-.09C22.021 5.005 17.48 1 12 1S1.979 5.005 1.139 10.248l-.015.09c-.061.372-.142.86.048 1.367.157.415.494.812.88 1.032.278.159.555.217.804.242.216.021.466.021.709.021H11v6.4c0 1.95 1.53 3.6 3.5 3.6s3.5-1.65 3.5-3.6a1 1 0 1 0-2 0c0 .921-.708 1.6-1.5 1.6s-1.5-.679-1.5-1.6V13Z" clip-rule="evenodd"/>
</svg>
