<svg xmlns="http://www.w3.org/2000/svg" width="24" height="24" viewBox="0 0 24 24">
  <path d="M9.5 23C7.57 23 6 21.38 6 19.4c0-.55.45-1 1-1s1 .45 1 1c0 .88.67 1.6 1.5 1.6s1.5-.72 1.5-1.6V11c0-.55.45-1 1-1s1 .45 1 1v8.4c0 1.99-1.57 3.6-3.5 3.6Z" opacity=".5"/>
  <path d="M2 13c-.16 0-.31-.04-.46-.11A.997.997 0 0 1 1 12C1 5.93 5.93 1 12 1s11 4.93 11 11c0 .38-.21.72-.54.89-.33.17-.73.14-1.04-.08 0 0-1.16-.81-2.42-.81s-2.4.8-2.42.81c-.28.2-.65.25-.97.11-.62-.26-2.46-.92-3.61-.92s-3 .67-3.61.92c-.32.13-.69.09-.97-.11 0 0-1.16-.81-2.42-.81s-2.4.8-2.42.81c-.17.12-.38.19-.58.19Zm3-3c1.31 0 2.47.53 3.1.89.84-.31 2.55-.89 3.9-.89s3.06.57 3.9.89c.63-.35 1.79-.89 3.1-.89.67 0 1.3.14 1.84.32C20.05 6.15 16.39 3 12 3s-8.06 3.16-8.84 7.32C3.7 10.14 4.33 10 5 10Z"/>
</svg>
