<svg xmlns="http://www.w3.org/2000/svg" width="24" height="24" viewBox="0 0 24 24">
  <path d="M12 2C6.477 2 2 6.477 2 12c0 0 1.39-1 3-1s3 1 3 1 2.39-1 4-1c1.61 0 4 1 4 1s1.39-1 3-1 3 1 3 1c0-5.523-4.477-10-10-10Z" opacity=".2"/>
  <path fill-rule="evenodd" d="M3.156 10.322A5.774 5.774 0 0 1 5 10c1.001 0 1.899.308 2.518.59.227.103.424.206.584.297.258-.096.603-.219.995-.341C9.912 10.29 11.034 10 12 10s2.088.29 2.902.546c.393.123.738.245.996.341.16-.09.357-.194.584-.297.62-.282 1.517-.59 2.518-.59.68 0 1.314.142 1.844.322a9.003 9.003 0 0 0-17.688 0ZM22 12l-.584.812.003.002A1 1 0 0 0 23 12c0-6.075-4.925-11-11-11S1 5.925 1 12a1 1 0 0 0 1.581.814m13.033.108h-.003l-.017-.008a18.017 18.017 0 0 0-1.289-.46 12.666 12.666 0 0 0-1.305-.34V19.4c0 1.95-1.53 3.6-3.5 3.6S6 21.35 6 19.4a1 1 0 1 1 2 0c0 .921.708 1.6 1.5 1.6s1.5-.679 1.5-1.6v-7.285c-.428.084-.88.207-1.305.34a18.028 18.028 0 0 0-1.289.46l-.017.006-.003.002a1 1 0 0 1-.967-.11h-.001l-.003-.002a2.288 2.288 0 0 0-.174-.11 5.484 5.484 0 0 0-.552-.291C6.212 12.192 5.61 12 5 12s-1.212.192-1.69.41a5.484 5.484 0 0 0-.725.4l-.003.003h.001m4.834 0Zm0-.001ZM8 12l-.584.812L8 12Zm7.614.922a1 1 0 0 0 .967-.108" clip-rule="evenodd"/>
</svg>
