<svg xmlns="http://www.w3.org/2000/svg" width="24" height="24" fill="currentColor" viewBox="0 0 24 24">
  <path fill-rule="evenodd" d="M13.286 3.09A9.012 9.012 0 0 0 4.84 6.54a2.15 2.15 0 0 0-.082.111c.086.062.214.136.467.283l2.961 1.71c1.316-2.09 2.822-3.82 4.282-4.968.27-.213.544-.41.818-.586Zm4.21-.619C12.75-.265 6.816.933 3.47 5.052a16.9 16.9 0 0 1-.058.071c-.239.291-.553.674-.641 1.207-.073.439.022.95.246 1.334.161.277.371.466.575.612.176.126.392.25.603.373l.03.017 3.81 2.2 2.599 1.5L5.649 21H2a1 1 0 1 0 0 2h20a1 1 0 1 0 0-2H7.959l4.407-7.634 6.439 3.718c.21.121.427.246.624.335.229.104.497.191.818.193.444.002.934-.172 1.278-.454.418-.343.592-.806.725-1.16l.032-.085c1.894-4.96-.037-10.7-4.782-13.44l-.005-.002ZM16.5 4.206c-.163-.095-.453-.156-.956-.006-.506.151-1.133.492-1.84 1.048-1.23.968-2.575 2.489-3.784 4.396l5.16 2.98c1.048-2.001 1.692-3.927 1.915-5.476.128-.89.11-1.604-.012-2.117-.122-.511-.32-.73-.483-.825Zm.314 9.418c1.152-2.183 1.896-4.353 2.16-6.19.05-.342.083-.677.1-1.003a9.012 9.012 0 0 1 1.234 9.04 2.152 2.152 0 0 1-.055.126 6.457 6.457 0 0 1-.478-.263l-2.961-1.71Z" clip-rule="evenodd"/>
</svg>
