<svg xmlns="http://www.w3.org/2000/svg" width="24" height="24" viewBox="0 0 24 24">
  <path fill-rule="evenodd" d="M12 11a1 1 0 0 1 1 1v7.4c0 .921.708 1.6 1.5 1.6s1.5-.679 1.5-1.6a1 1 0 1 1 2 0c0 1.95-1.53 3.6-3.5 3.6S11 21.35 11 19.4V12a1 1 0 0 1 1-1Z" clip-rule="evenodd" opacity=".5"/>
  <path fill-rule="evenodd" d="M12 3a9.003 9.003 0 0 0-8.93 7.851 2.152 2.152 0 0 0-.016.137c.105.01.253.012.546.012h16.8c.293 0 .44-.001.546-.011a2.205 2.205 0 0 0-.016-.138c-.01-.077-.025-.167-.044-.287A9.003 9.003 0 0 0 12 3ZM1.139 10.248C1.979 5.005 6.52 1 12 1s10.021 4.005 10.861 9.248l.015.09c.061.372.142.86-.048 1.367a2.093 2.093 0 0 1-.88 1.032 1.974 1.974 0 0 1-.804.242 7.51 7.51 0 0 1-.71.021H3.566c-.243 0-.493 0-.709-.021a1.973 1.973 0 0 1-.804-.242 2.092 2.092 0 0 1-.88-1.032c-.19-.506-.11-.995-.048-1.367l.015-.09Z" clip-rule="evenodd"/>
</svg>
