<svg xmlns="http://www.w3.org/2000/svg" width="24" height="24" fill="currentColor" viewBox="0 0 24 24">
  <path d="M9.5 23C7.57 23 6 21.38 6 19.4c0-.55.45-1 1-1s1 .45 1 1c0 .88.67 1.6 1.5 1.6s1.5-.72 1.5-1.6v-7.28c-1.02.2-2.16.62-2.61.81-.32.13-.69.09-.97-.11 0 0-1.16-.81-2.42-.81s-2.4.8-2.42.81A.997.997 0 0 1 1 12.01C1 5.93 5.93 1 12 1s11 4.93 11 11a.997.997 0 0 1-1.58.81S20.26 12 19 12s-2.4.8-2.42.81c-.28.2-.65.25-.97.11-.46-.19-1.59-.61-2.61-.81v7.28c0 1.99-1.57 3.6-3.5 3.6V23ZM5 10c1.31 0 2.47.53 3.1.89.84-.31 2.55-.89 3.9-.89s3.06.57 3.9.89c.63-.35 1.79-.89 3.1-.89.67 0 1.3.14 1.84.32C20.05 6.15 16.39 3 12 3s-8.06 3.16-8.84 7.32C3.7 10.14 4.33 10 5 10Z"/>
</svg>
