<svg xmlns="http://www.w3.org/2000/svg" width="24" height="24" viewBox="0 0 24 24">
  <path fill-rule="evenodd" d="M9.5 4a6.5 6.5 0 0 0-4.605 11.088 1 1 0 1 1-1.416 1.411A8.5 8.5 0 1 1 16.715 6.003a6.5 6.5 0 0 1 3.922 11.51 1 1 0 1 1-1.274-1.541A4.5 4.5 0 0 0 16.5 8a1.62 1.62 0 0 1-1.395-.795A6.497 6.497 0 0 0 9.5 4Z" clip-rule="evenodd" opacity=".5"/>
  <path fill-rule="evenodd" d="M12 11a1 1 0 0 1 .707.293l4 4a1 1 0 0 1-1.414 1.414L13 14.414V21a1 1 0 1 1-2 0v-6.586l-2.293 2.293a1 1 0 0 1-1.414-1.414l4-4A1 1 0 0 1 12 11Z" clip-rule="evenodd"/>
</svg>
