<svg xmlns="http://www.w3.org/2000/svg" width="24" height="24" viewBox="0 0 24 24">
  <path d="M12 22c5.523 0 10-4.477 10-10S17.523 2 12 2 2 6.477 2 12s4.477 10 10 10Z" opacity=".2"/>
  <path fill-rule="evenodd" d="M12 3a9 9 0 0 0-4.5 16.797 1 1 0 1 1-1 1.73A10.996 10.996 0 0 1 1 12C1 5.925 5.925 1 12 1s11 4.925 11 11a11 11 0 0 1-5.919 9.759l-.044.023c-.323.168-.682.356-1.091.463-.46.12-.925.127-1.483.051-.512-.07-1.07-.33-1.506-.594-.435-.264-.924-.638-1.223-1.06-.736-1.04-.735-2.036-.734-3.297v-6.931l-2.293 2.293a1 1 0 0 1-1.414-1.414l4-4a1 1 0 0 1 1.414 0l4 4a1 1 0 0 1-1.414 1.414L13 10.414V17.2c0 1.451.03 1.81.367 2.287.067.095.287.299.627.505.34.206.622.307.738.322.386.053.574.03.709-.005.167-.043.332-.124.715-.324A9 9 0 0 0 12 3Z" clip-rule="evenodd"/>
</svg>
