<svg xmlns="http://www.w3.org/2000/svg" width="24" height="24" viewBox="0 0 24 24">
  <path d="M2 12.5a4.5 4.5 0 0 1 4.08-4.48 6.002 6.002 0 0 1 11.84 0A4.5 4.5 0 0 1 20 16.241h-4V16l-4-3.758L8 16v.242H4A4.496 4.496 0 0 1 2 12.5Z" opacity=".2"/>
  <path fill-rule="evenodd" d="M5.25 7.143a7.002 7.002 0 0 1 13.5 0 5.502 5.502 0 0 1 1.806 9.93 1 1 0 0 1-1.112-1.662 3.5 3.5 0 0 0-1.616-6.396 1 1 0 0 1-.895-.833 5.002 5.002 0 0 0-9.867 0 1 1 0 0 1-.894.833 3.5 3.5 0 0 0-1.616 6.396 1 1 0 0 1-1.112 1.662 5.502 5.502 0 0 1 1.805-9.93ZM11 14.414l-2.293 2.293a1 1 0 0 1-1.414-1.414l4-4a1 1 0 0 1 1.414 0l4 4a1 1 0 0 1-1.414 1.414L13 14.414V21a1 1 0 1 1-2 0v-6.586Z" clip-rule="evenodd"/>
</svg>
