<svg xmlns="http://www.w3.org/2000/svg" width="24" height="24" viewBox="0 0 24 24">
  <path fill-rule="evenodd" d="M7.568 1h8.864c.252 0 .498 0 .706.017.229.019.499.063.77.201a2 2 0 0 1 .874.874c.138.271.182.541.201.77.017.208.017.454.017.706V9a1 1 0 1 1-2 0V3.6c0-.297 0-.459-.01-.575l-.001-.014h-.014A8.194 8.194 0 0 0 16.4 3H7.6a8.192 8.192 0 0 0-.589.011v.014C7 3.14 7 3.303 7 3.6V9a1 1 0 0 1-2 0V3.568c0-.252 0-.498.017-.706a2.03 2.03 0 0 1 .201-.77 2 2 0 0 1 .874-.874 2.03 2.03 0 0 1 .77-.201C7.07 1 7.316 1 7.568 1ZM10 4a1 1 0 0 1 1 1v1a1 1 0 1 1-2 0V5a1 1 0 0 1 1-1Zm4 0a1 1 0 0 1 1 1v1a1 1 0 1 1-2 0V5a1 1 0 0 1 1-1Z" clip-rule="evenodd" opacity=".5"/>
  <path fill-rule="evenodd" d="M7.161 8h9.678c.527 0 .982 0 1.356.03.395.033.789.104 1.167.297a3 3 0 0 1 1.311 1.311c.193.378.264.772.296 1.167.031.375.031.83.031 1.356v5.08c0 .805 0 1.47-.044 2.01-.046.563-.145 1.08-.392 1.565a4 4 0 0 1-1.748 1.748c-.485.247-1.002.346-1.564.392-.541.044-1.206.044-2.01.044H8.758c-.805 0-1.47 0-2.01-.044-.563-.046-1.08-.145-1.565-.392a4 4 0 0 1-1.748-1.748c-.247-.485-.346-1.002-.392-1.564C3 18.71 3 18.046 3 17.242v-5.08c0-.528 0-.982.03-1.357.033-.395.104-.789.297-1.167a3 3 0 0 1 1.311-1.311c.378-.193.772-.264 1.167-.296C6.18 8 6.635 8 7.161 8Zm-1.193 2.024c-.272.022-.373.06-.422.085a1 1 0 0 0-.437.437c-.025.05-.063.15-.085.422C5 11.25 5 11.623 5 12.2v5c0 .857 0 1.439.038 1.889.035.438.1.663.18.819a2 2 0 0 0 .874.874c.156.08.38.145.819.18C7.361 21 7.943 21 8.8 21h6.4c.857 0 1.439 0 1.889-.038.438-.035.663-.1.819-.18a2 2 0 0 0 .874-.874c.08-.156.145-.38.18-.819.037-.45.038-1.032.038-1.889v-5c0-.577 0-.949-.024-1.232-.022-.272-.06-.373-.085-.422a1 1 0 0 0-.437-.437c-.05-.025-.15-.063-.422-.085C17.75 10 17.377 10 16.8 10H7.2c-.577 0-.949 0-1.232.024Z" clip-rule="evenodd"/>
</svg>
