<svg xmlns="http://www.w3.org/2000/svg" width="24" height="24" viewBox="0 0 24 24">
  <path fill-rule="evenodd" d="M18.043 10.043a2.768 2.768 0 1 1 3.914 3.914L15.5 20.414l-.022.023a2.768 2.768 0 0 1-.318.285c-.11.08-.226.149-.35.205a2.71 2.71 0 0 1-.403.14l-.03.008-3.102.887a1 1 0 0 1-1.236-1.237l.886-3.101.008-.03c.033-.117.075-.263.14-.405a1.97 1.97 0 0 1 .205-.349c.092-.125.2-.232.285-.318l.023-.022 6.457-6.457Zm2.5 1.414c-.3-.3-.786-.3-1.086 0L13 17.914a6.23 6.23 0 0 0-.11.112l-.042.147-.392 1.371 1.37-.392c.08-.022.12-.034.148-.043h.002l.001-.002a6.1 6.1 0 0 0 .11-.107l6.456-6.457c.3-.3.3-.786 0-1.086Z" clip-rule="evenodd" opacity=".5"/>
  <path fill-rule="evenodd" d="M10 4a3.5 3.5 0 1 0 0 7 3.5 3.5 0 0 0 0-7ZM4.5 7.5a5.5 5.5 0 1 1 11 0 5.5 5.5 0 0 1-11 0Zm2.826 7H9a1 1 0 1 1 0 2H7.5c-1.468 0-1.98.01-2.37.13a3 3 0 0 0-2 2c-.12.39-.13.902-.13 2.37a1 1 0 1 1-2 0v-.174c0-1.227 0-2.065.215-2.777a5 5 0 0 1 3.334-3.334c.712-.216 1.55-.216 2.777-.215Z" clip-rule="evenodd"/>
</svg>
