<svg xmlns="http://www.w3.org/2000/svg" width="24" height="24"  viewBox="0 0 24 24">
  <path fill-rule="evenodd" d="M17.107 15.388a1 1 0 0 1 1.342-.445c1.634.821 3.016 2.129 4.016 3.74.151.243.372.57.44 1.01a2.01 2.01 0 0 1-.246 1.27 2.009 2.009 0 0 1-.948.878c-.419.178-.874.159-1.21.159a1 1 0 1 1 0-2c.214 0 .327 0 .408-.006l.002-.004c.02-.034-.126-.222-.145-.253-.823-1.325-1.937-2.365-3.215-3.006a1 1 0 0 1-.444-1.343ZM15.105 3.023a1 1 0 0 1 1.34-.45 5.5 5.5 0 0 1 0 9.855 1 1 0 0 1-.89-1.791 3.5 3.5 0 0 0 0-6.274 1 1 0 0 1-.45-1.34Z" clip-rule="evenodd"/>
  <path fill-rule="evenodd" d="M4 7.5a5.5 5.5 0 1 1 11 0 5.5 5.5 0 0 1-11 0ZM9.5 14c3.196 0 6.054 1.804 7.797 4.42.154.23.318.476.432.71.138.281.237.604.214.99-.019.307-.12.593-.242.82a2.02 2.02 0 0 1-.548.655c-.33.25-.684.337-.998.373a8.53 8.53 0 0 1-.933.032H3.778c-.33 0-.657 0-.933-.032-.313-.037-.668-.124-.998-.373a2.021 2.021 0 0 1-.548-.655 2.021 2.021 0 0 1-.242-.82 1.934 1.934 0 0 1 .214-.99 6.51 6.51 0 0 1 .432-.71C3.447 15.804 6.303 14 9.5 14Z" clip-rule="evenodd"/>
</svg>
