<svg xmlns="http://www.w3.org/2000/svg" width="24" height="24" viewBox="0 0 24 24">
  <path fill-rule="evenodd" d="M15.104 3.023a1 1 0 0 1 1.341-.45 5.5 5.5 0 0 1 0 9.855 1 1 0 1 1-.89-1.791 3.5 3.5 0 0 0 0-6.274 1 1 0 0 1-.45-1.34Zm2.002 12.365a1 1 0 0 1 1.343-.445c1.634.821 3.016 2.129 4.016 3.74l.034.054c.149.238.343.548.406.957a2.01 2.01 0 0 1-.246 1.268 2.009 2.009 0 0 1-.948.879c-.383.163-.797.16-1.123.16L20.5 22a1 1 0 1 1 0-2c.215 0 .328 0 .41-.006l.001-.004.003-.006a11.598 11.598 0 0 0-.149-.247c-.822-1.325-1.937-2.365-3.214-3.006a1 1 0 0 1-.445-1.343Z" clip-rule="evenodd" opacity=".5"/>
  <path fill-rule="evenodd" d="M3.95 7.5c0 3.03 2.47 5.5 5.5 5.5s5.5-2.47 5.5-5.5S12.49 2 9.45 2s-5.5 2.47-5.5 5.5Zm2 0c0-1.93 1.57-3.5 3.5-3.5s3.5 1.57 3.5 3.5-1.57 3.5-3.5 3.5-3.5-1.57-3.5-3.5ZM3.77 22h11.35v-.01c.87 0 1.44 0 1.98-.41.44-.34.76-.93.79-1.48.04-.66-.27-1.13-.67-1.73-1.85-2.78-4.69-4.38-7.77-4.38-3.08 0-5.91 1.59-7.77 4.38-.4.6-.71 1.07-.67 1.74.03.56.35 1.15.79 1.48.53.41 1.1.41 1.97.41Zm-.43-2.51C4.82 17.27 7.05 16 9.45 16c2.4 0 4.63 1.27 6.11 3.49l.087.137c.094.146.182.284.213.353-.16.02-.46.02-.73.02H3.77c-.34 0-.72 0-.77.05.02-.08.19-.34.34-.56Z" clip-rule="evenodd"/>
</svg>
