<svg xmlns="http://www.w3.org/2000/svg" width="24" height="24" viewBox="0 0 24 24">
  <path fill-rule="evenodd" d="M4.396 19.048A5.001 5.001 0 0 1 9 16h6a5.001 5.001 0 0 1 4.604 3.048 1 1 0 1 1-1.84.781A3.001 3.001 0 0 0 15 18H9a3 3 0 0 0-2.763 1.83 1 1 0 1 1-1.841-.782Z" clip-rule="evenodd" opacity=".5"/>
  <path fill-rule="evenodd" d="M12 3a9 9 0 1 0 0 18 9 9 0 0 0 0-18ZM1 12C1 5.925 5.925 1 12 1s11 4.925 11 11-4.925 11-11 11S1 18.075 1 12Zm11-5.5a3 3 0 1 0 0 6 3 3 0 0 0 0-6Zm-5 3a5 5 0 1 1 10 0 5 5 0 0 1-10 0Z" clip-rule="evenodd"/>
</svg>
