<svg xmlns="http://www.w3.org/2000/svg" width="24" height="24" viewBox="0 0 24 24">
  <path d="M9.5 11a4 4 0 1 0 0-8 4 4 0 0 0 0 8Z" opacity=".2"/>
  <path fill-rule="evenodd" d="M9.5 4a3 3 0 1 0 0 6 3 3 0 0 0 0-6Zm-5 3a5 5 0 1 1 10 0 5 5 0 0 1-10 0Zm10.073-4.084a1 1 0 0 1 1.302-.552 5.001 5.001 0 0 1 0 9.272 1 1 0 0 1-.75-1.854 3.001 3.001 0 0 0 0-5.564 1 1 0 0 1-.552-1.302ZM7.964 14H12a1 1 0 1 1 0 2H8c-.946 0-1.605 0-2.12.036-.507.034-.803.099-1.028.192a3 3 0 0 0-1.624 1.624c-.093.225-.158.52-.192 1.027C3 19.395 3 20.054 3 21a1 1 0 1 1-2 0v-.035c0-.902 0-1.63.04-2.222.042-.608.13-1.147.34-1.656a5 5 0 0 1 2.707-2.706c.51-.212 1.048-.3 1.656-.34C6.335 14 7.063 14 7.964 14Zm11.743.293 3 3a1 1 0 0 1 0 1.414l-3 3a1 1 0 0 1-1.414-1.414L19.586 19H16a1 1 0 1 1 0-2h3.586l-1.293-1.293a1 1 0 0 1 1.414-1.414Z" clip-rule="evenodd"/>
</svg>
