<svg xmlns="http://www.w3.org/2000/svg" width="24" height="24" viewBox="0 0 24 24">
  <path d="M9 11a3.5 3.5 0 1 0 0-7 3.5 3.5 0 0 0 0 7Z" opacity=".2"/>
  <path fill-rule="evenodd" d="M18.293 2.293a1 1 0 0 1 1.414 0l3 3a1 1 0 0 1 0 1.414l-3 3a1 1 0 0 1-1.414-1.414L19.586 7H16a1 1 0 1 1 0-2h3.586l-1.293-1.293a1 1 0 0 1 0-1.414ZM9 5a2.5 2.5 0 1 0 0 5 2.5 2.5 0 0 0 0-5ZM4.5 7.5a4.5 4.5 0 1 1 9 0 4.5 4.5 0 0 1-9 0ZM6.759 14h4.482c.805 0 1.47 0 2.01.044.563.046 1.08.145 1.565.392a4 4 0 0 1 1.748 1.748c.247.485.346 1.002.392 1.564.044.541.044 1.206.044 2.01V21a1 1 0 1 1-2 0v-1.2c0-.857 0-1.439-.038-1.889-.035-.438-.1-.663-.18-.819a2 2 0 0 0-.874-.874c-.156-.08-.38-.145-.819-.18C12.639 16 12.057 16 11.2 16H6.8c-.857 0-1.439 0-1.889.038-.438.035-.663.1-.819.18a2 2 0 0 0-.874.874c-.08.156-.145.38-.18.819C3 18.361 3 18.943 3 19.8V21a1 1 0 1 1-2 0v-1.241c0-.805 0-1.47.044-2.01.046-.563.145-1.08.392-1.565a4 4 0 0 1 1.748-1.748c.485-.247 1.002-.346 1.564-.392C5.29 14 5.954 14 6.758 14Z" clip-rule="evenodd"/>
</svg>
