<svg xmlns="http://www.w3.org/2000/svg" width="24" height="24" viewBox="0 0 24 24">
  <path fill-rule="evenodd" d="M14.573 2.916a1 1 0 0 1 1.302-.552A5.001 5.001 0 0 1 19 7a1 1 0 1 1-2 0 3.001 3.001 0 0 0-1.875-2.782 1 1 0 0 1-.552-1.302Zm4.22 8.377a2.414 2.414 0 1 1 3.414 3.414l-6.657 6.657-.027.027c-.099.1-.224.225-.372.328-.129.09-.268.164-.414.222a2.71 2.71 0 0 1-.48.127l-.036.008-2.025.405a1 1 0 0 1-1.177-1.177l.405-2.025.008-.037c.027-.138.061-.311.127-.48a2.03 2.03 0 0 1 .222-.413 2.76 2.76 0 0 1 .354-.399l6.658-6.657Zm2 1.414a.414.414 0 0 0-.586 0l-6.657 6.658a5.954 5.954 0 0 0-.126.127l-.002.002v.002c-.008.034-.018.08-.036.175l-.111.554.554-.11.175-.037h.002l.002-.002c.025-.024.06-.057.128-.126l6.657-6.657a.414.414 0 0 0 0-.586Z" clip-rule="evenodd" opacity=".5"/>
  <path fill-rule="evenodd" d="M9.5 4a3 3 0 1 0 0 6 3 3 0 0 0 0-6Zm-5 3a5 5 0 1 1 10 0 5 5 0 0 1-10 0Zm3.464 7H11a1 1 0 1 1 0 2H8c-.946 0-1.605 0-2.12.036-.507.034-.803.099-1.028.192a3 3 0 0 0-1.624 1.624c-.093.225-.158.52-.192 1.027C3 19.395 3 20.054 3 21a1 1 0 1 1-2 0v-.035c0-.902 0-1.63.04-2.222.042-.608.13-1.147.34-1.656a5 5 0 0 1 2.707-2.706c.51-.212 1.048-.3 1.656-.34C6.335 14 7.063 14 7.964 14Z" clip-rule="evenodd"/>
</svg>
