<svg xmlns="http://www.w3.org/2000/svg" width="24" height="24" viewBox="0 0 24 24">
  <path d="M20.517 22c-.55 0-1-.45-1-1s.45-1 1-1c.22 0 .35.01.46-.01-.06-.04-.12-.12-.2-.25-.82-1.32-1.93-2.36-3.22-3.01a.998.998 0 0 1 .9-1.78c1.61.81 3 2.1 4.02 3.74.21.34.38.61.44 1.01.13.86-.39 1.81-1.2 2.15-.37.16-.72.16-1.21.16l.01-.01Zm-5.32 0H3.837c-.87 0-1.44 0-1.98-.4-.44-.33-.76-.93-.79-1.48-.04-.67.27-1.14.67-1.73C3.597 15.6 6.427 14 9.507 14c3.08 0 5.92 1.6 7.77 4.38.4.6.71 1.07.67 1.74-.03.55-.35 1.14-.79 1.47-.54.41-1.11.41-1.98.41h.02Zm-12.1-2.02c.16.02.47.02.74.02h11.35c.27 0 .57 0 .73-.02-.04-.09-.17-.3-.3-.49-1.48-2.22-3.71-3.5-6.11-3.5-2.4 0-4.63 1.27-6.11 3.49-.12.18-.25.38-.31.49l.01.01ZM9.517 13a5.51 5.51 0 0 1-5.5-5.5c0-3.03 2.46-5.5 5.5-5.5s5.5 2.47 5.5 5.5-2.47 5.5-5.5 5.5Zm0-9c-1.93 0-3.5 1.57-3.5 3.5s1.57 3.5 3.5 3.5 3.5-1.57 3.5-3.5-1.57-3.5-3.5-3.5Zm6.5 8.53a1.002 1.002 0 0 1-.45-1.9c1.2-.6 1.95-1.8 1.95-3.14s-.75-2.54-1.95-3.14a1 1 0 1 1 .89-1.79c1.88.94 3.05 2.82 3.05 4.93s-1.17 3.99-3.05 4.93c-.14.07-.29.1-.44.1v.01Z"/>
</svg>
