<svg xmlns="http://www.w3.org/2000/svg" width="24" height="24" viewBox="0 0 24 24">
  <path d="M12 12a4.5 4.5 0 1 0 0-9 4.5 4.5 0 0 0 0 9Z" opacity=".2"/>
  <path fill-rule="evenodd" d="M12 4a3.5 3.5 0 1 0 0 7 3.5 3.5 0 0 0 0-7ZM6.5 7.5a5.5 5.5 0 1 1 11 0 5.5 5.5 0 0 1-11 0ZM12 16c-2.84 0-5.37 1.37-6.986 3.509-.1.13-.175.231-.238.32-.048.066-.08.115-.103.152.149.017.36.019.754.019h13.146c.393 0 .605-.002.754-.019a2.61 2.61 0 0 0-.103-.153 16.067 16.067 0 0 0-.238-.32C17.37 17.37 14.84 16 12 16Zm-8.582 2.303C5.391 15.692 8.498 14 12 14c3.501 0 6.609 1.692 8.582 4.303l.027.036c.17.224.351.465.481.697.157.28.274.605.267 1a2.022 2.022 0 0 1-.219.85 2.02 2.02 0 0 1-.546.687c-.333.262-.696.355-1.019.393a8.472 8.472 0 0 1-.955.034H5.382c-.337 0-.673 0-.955-.034-.323-.038-.686-.131-1.019-.393a2.023 2.023 0 0 1-.546-.687 2.022 2.022 0 0 1-.219-.85 1.93 1.93 0 0 1 .267-1c.13-.233.312-.473.481-.697l.027-.036Z" clip-rule="evenodd"/>
</svg>
