<svg xmlns="http://www.w3.org/2000/svg" width="24" height="24" viewBox="0 0 24 24">
  <path d="M9.5 12a4.5 4.5 0 1 0 0-9 4.5 4.5 0 0 0 0 9Zm0 3c-2.83 0-5.346 1.545-6.94 3.938-.35.525-.525.787-.505 1.122.016.26.187.58.395.738.268.202.636.202 1.372.202h11.356c.736 0 1.104 0 1.372-.202.208-.158.379-.477.395-.738.02-.335-.155-.597-.504-1.122C14.847 16.545 12.33 15 9.5 15Z" opacity=".2"/>
  <path fill-rule="evenodd" d="M9.45 13a5.51 5.51 0 0 1-5.5-5.5c0-3.03 2.46-5.5 5.5-5.5s5.5 2.47 5.5 5.5-2.47 5.5-5.5 5.5Zm0-9c-1.93 0-3.5 1.57-3.5 3.5S7.52 11 9.45 11s3.5-1.57 3.5-3.5S11.38 4 9.45 4Zm5.67 18H3.77c-.87 0-1.44 0-1.97-.41-.44-.33-.76-.92-.79-1.48-.04-.67.27-1.14.67-1.74 1.86-2.79 4.69-4.38 7.77-4.38 3.08 0 5.92 1.6 7.77 4.38.4.6.71 1.07.67 1.73-.03.55-.35 1.14-.79 1.48-.54.41-1.11.41-1.98.41V22Zm-5.67-6c-2.4 0-4.63 1.27-6.11 3.49-.15.22-.32.48-.34.56.05-.05.43-.05.77-.05h11.36c.27 0 .57 0 .73-.02a3.885 3.885 0 0 0-.213-.353l-.087-.137C14.08 17.27 11.85 16 9.45 16Z" clip-rule="evenodd"/>
  <path d="M16.445 2.572a1 1 0 1 0-.89 1.791 3.5 3.5 0 0 1 0 6.274 1 1 0 0 0 .89 1.79 5.5 5.5 0 0 0 0-9.855Zm2.004 12.371a1 1 0 0 0-.898 1.787c1.277.642 2.392 1.682 3.215 3.007a11.598 11.598 0 0 1 .149.247l-.004.006-.002.004c-.08.005-.194.006-.409.006a1 1 0 1 0 0 2h.088c.325.002.74.004 1.123-.16.44-.186.757-.534.948-.878.191-.343.32-.796.246-1.268-.063-.41-.257-.72-.406-.957l-.034-.055c-1-1.61-2.382-2.918-4.016-3.739Z"/>
</svg>
