<svg xmlns="http://www.w3.org/2000/svg" width="24" height="24" viewBox="0 0 24 24">
  <path d="M9.5 12a4.5 4.5 0 1 0 0-9 4.5 4.5 0 0 0 0 9Z" opacity=".2"/>
  <path fill-rule="evenodd" d="M9.5 4a3.5 3.5 0 1 0 0 7 3.5 3.5 0 0 0 0-7ZM4 7.5a5.5 5.5 0 1 1 11 0 5.5 5.5 0 0 1-11 0Zm11.104-4.477a1 1 0 0 1 1.341-.45 5.5 5.5 0 0 1 0 9.855 1 1 0 0 1-.89-1.791 3.5 3.5 0 0 0 0-6.274 1 1 0 0 1-.45-1.34ZM9.5 17c-2.539 0-4.912 1.325-6.714 3.618a1 1 0 0 1-1.572-1.236C3.305 16.72 6.217 15 9.5 15c3.283 0 6.195 1.72 8.286 4.382a1 1 0 1 1-1.572 1.236C14.413 18.325 12.039 17 9.5 17Zm7.589-.646a1 1 0 0 1 1.323-.499c1.678.76 3.162 1.984 4.374 3.527a1 1 0 1 1-1.572 1.236c-1.043-1.327-2.281-2.332-3.626-2.94a1 1 0 0 1-.5-1.324Z" clip-rule="evenodd"/>
</svg>
