<svg xmlns="http://www.w3.org/2000/svg" width="24" height="24"  viewBox="0 0 24 24">
  <path fill-rule="evenodd" d="M18.793 11.293a2.414 2.414 0 1 1 3.414 3.414c-2.228 2.228-4.46 4.452-6.684 6.684-.099.1-.224.225-.372.328-.129.09-.268.164-.414.222-.183.072-.373.106-.516.135l-2.025.405a1 1 0 0 1-1.177-1.177c.138-.687.277-1.374.413-2.062.027-.138.061-.311.127-.48a2.03 2.03 0 0 1 .222-.413c.103-.148.228-.273.328-.372 2.232-2.224 4.456-4.456 6.684-6.684ZM8.181 14.164a1.5 1.5 0 0 1 .656.655c.153.3.163.629.163.958v4.446c0 .12 0 .262-.01.387a1.508 1.508 0 0 1-.153.571 1.5 1.5 0 0 1-.656.655 1.508 1.508 0 0 1-.571.154c-.125.01-.268.01-.387.01H2.777c-.12 0-.262 0-.388-.01a1.508 1.508 0 0 1-.572-.154 1.501 1.501 0 0 1-.656-.66 1.507 1.507 0 0 1-.151-.571 4.877 4.877 0 0 1-.01-.387c.005-1.039-.026-2.153.38-3.131a5 5 0 0 1 2.706-2.706c.51-.212 1.048-.3 1.656-.34L7.223 14c.33 0 .658.01.958.164Zm6.392-11.248a1 1 0 0 1 1.302-.552 5.001 5.001 0 0 1 0 9.272 1 1 0 0 1-.75-1.854 3.001 3.001 0 0 0 0-5.564 1 1 0 0 1-.552-1.302Z" clip-rule="evenodd"/>
  <path fill-rule="evenodd" d="M4.5 7a5 5 0 1 1 10 0 5 5 0 0 1-10 0Z" clip-rule="evenodd"/>
</svg>
