<svg xmlns="http://www.w3.org/2000/svg" width="24" height="24" viewBox="0 0 24 24">
  <path fill-rule="evenodd" d="M10 4a3.5 3.5 0 1 0 0 7 3.5 3.5 0 0 0 0-7ZM4.5 7.5a5.5 5.5 0 1 1 11 0 5.5 5.5 0 0 1-11 0ZM20 14a1 1 0 1 0 0 2 1 1 0 0 0 0-2Zm-3 1a3 3 0 1 1 1.707 2.708L16.914 19.5l1.293 1.293a1 1 0 1 1-1.414 1.414L15.5 20.914l-1.793 1.793a1 1 0 0 1-1.414-1.414l5-5A2.988 2.988 0 0 1 17 15Zm-9.674-.5H12a1 1 0 1 1 0 2H7.5c-1.468 0-1.98.01-2.37.13a3 3 0 0 0-2 2c-.12.39-.13.902-.13 2.37a1 1 0 1 1-2 0v-.174c0-1.227 0-2.065.215-2.777a5 5 0 0 1 3.334-3.334c.712-.216 1.55-.216 2.777-.215Z" clip-rule="evenodd"/>
</svg>
