<svg xmlns="http://www.w3.org/2000/svg" width="24" height="24" viewBox="0 0 24 24">
  <path d="M18.684 19.438A9.963 9.963 0 0 1 12 22a9.963 9.963 0 0 1-6.684-2.562A4.001 4.001 0 0 1 9 17h6a4.001 4.001 0 0 1 3.684 2.438ZM12 13.5a4 4 0 1 0 0-8 4 4 0 0 0 0 8Z" opacity=".2"/>
  <path fill-rule="evenodd" d="M12 3a9 9 0 0 0-6.862 14.824A4.99 4.99 0 0 1 9 16h6a4.99 4.99 0 0 1 3.862 1.824A9 9 0 0 0 12 3Zm7.37 17.166A10.972 10.972 0 0 0 23 12c0-6.075-4.925-11-11-11S1 5.925 1 12a10.972 10.972 0 0 0 3.665 8.198A10.96 10.96 0 0 0 12 23a10.96 10.96 0 0 0 7.37-2.834ZM17.4 19.2A2.996 2.996 0 0 0 15 18H9c-.98 0-1.853.47-2.4 1.2A8.96 8.96 0 0 0 12 21a8.96 8.96 0 0 0 5.4-1.8ZM12 6.5a3 3 0 1 0 0 6 3 3 0 0 0 0-6Zm-5 3a5 5 0 1 1 10 0 5 5 0 0 1-10 0Z" clip-rule="evenodd"/>
</svg>
