<svg xmlns="http://www.w3.org/2000/svg" width="24" height="24" viewBox="0 0 24 24">
  <path fill-rule="evenodd" d="M19.463 2.104a1 1 0 0 1 1.34.453A21.253 21.253 0 0 1 23 12c0 3.39-.79 6.597-2.198 9.443a1 1 0 0 1-1.792-.886A19.252 19.252 0 0 0 21 12c0-3.076-.717-5.98-1.99-8.557a1 1 0 0 1 .453-1.34Zm-14.926 0a1 1 0 0 1 .453 1.34A19.253 19.253 0 0 0 3 12c0 3.076.717 5.98 1.99 8.557a1 1 0 0 1-1.793.886A21.254 21.254 0 0 1 1 12c0-3.39.79-6.597 2.197-9.443a1 1 0 0 1 1.34-.453Zm3.178 6.521a1 1 0 0 1 1-1h1.394c.95 0 1.78.633 2.038 1.543l.376 1.324L14 8.762a3.234 3.234 0 0 1 2.46-1.137h.09a1 1 0 1 1 0 2h-.09c-.36 0-.703.158-.938.434l-2.34 2.745.74 2.607a.12.12 0 0 0 .115.089h1.394a1 1 0 1 1 0 2h-1.394a2.12 2.12 0 0 1-2.038-1.543l-.377-1.324-1.475 1.73a3.233 3.233 0 0 1-2.46 1.137h-.09a1 1 0 1 1 0-2h.09c.359 0 .702-.158.938-.435l2.34-2.744-.74-2.607a.12.12 0 0 0-.115-.089H8.715a1 1 0 0 1-1-1Z" clip-rule="evenodd"/>
</svg>
