<svg xmlns="http://www.w3.org/2000/svg" width="24" height="24" viewBox="0 0 24 24">
  <path fill-rule="evenodd" d="M21 9.414 18.414 12 21 14.586V9.414Zm.382-2.702a1.5 1.5 0 0 1 1.259.52c.279.328.323.721.34.912.02.214.019.48.019.75v6.212c0 .27 0 .536-.019.75-.017.19-.061.584-.34.911a1.5 1.5 0 0 1-1.259.521c-.428-.034-.738-.28-.885-.403a9.16 9.16 0 0 1-.544-.517l-.026-.027-3.634-3.634a1 1 0 0 1 0-1.414l3.634-3.634.026-.027c.192-.191.38-.379.544-.517.147-.123.457-.37.885-.403Z" clip-rule="evenodd" opacity=".5"/>
  <path fill-rule="evenodd" d="M6.759 4h5.482c.805 0 1.47 0 2.01.044.563.046 1.08.145 1.565.392a4 4 0 0 1 1.748 1.748c.247.485.346 1.002.392 1.564C18 8.29 18 8.954 18 9.758v4.483c0 .805 0 1.47-.044 2.01-.046.563-.145 1.08-.392 1.565a4 4 0 0 1-1.748 1.748c-.485.247-1.002.346-1.564.392-.541.044-1.206.044-2.01.044H6.758c-.805 0-1.47 0-2.01-.044-.563-.046-1.08-.145-1.565-.392a4 4 0 0 1-1.748-1.748c-.247-.485-.346-1.002-.392-1.564C1 15.71 1 15.046 1 14.242V9.758c0-.805 0-1.47.044-2.01.046-.563.145-1.08.392-1.565a4 4 0 0 1 1.748-1.748c.485-.247 1.002-.346 1.564-.392C5.29 4 5.954 4 6.758 4ZM4.91 6.038c-.438.035-.663.1-.819.18a2 2 0 0 0-.874.874c-.08.156-.145.38-.18.819C3 8.361 3 8.943 3 9.8v4.4c0 .857 0 1.439.038 1.889.035.438.1.663.18.819a2 2 0 0 0 .874.874c.156.08.38.145.819.18C5.361 18 5.943 18 6.8 18h5.4c.857 0 1.439 0 1.889-.038.438-.035.663-.1.819-.18a2 2 0 0 0 .874-.874c.08-.156.145-.38.18-.819.037-.45.038-1.032.038-1.889V9.8c0-.857 0-1.439-.038-1.889-.035-.438-.1-.663-.18-.819a2 2 0 0 0-.874-.874c-.156-.08-.38-.145-.819-.18C13.639 6 13.057 6 12.2 6H6.8c-.857 0-1.439 0-1.889.038Z" clip-rule="evenodd"/>
</svg>
