<svg xmlns="http://www.w3.org/2000/svg" width="24" height="24" viewBox="0 0 24 24">
  <path d="M12 23c-.77 0-1.54-.08-2.29-.24a.998.998 0 0 1-.77-1.19c.11-.54.65-.89 1.19-.77.29.06.58.11.88.14v-3.03c-.91-.15-1.75-.51-2.47-1.03L6.4 19.02c.23.18.47.36.72.52a1 1 0 0 1 .29 1.38 1 1 0 0 1-1.38.29c-.62-.41-1.21-.88-1.74-1.41-.02-.01-.03-.03-.04-.04l-.04-.04c-.53-.53-1-1.12-1.4-1.74a1 1 0 0 1 .29-1.38 1 1 0 0 1 1.38.29c.16.25.33.48.52.71l2.14-2.14a5.95 5.95 0 0 1-1.03-2.48H3.06c.03.29.08.59.14.87.11.54-.23 1.07-.77 1.19a1.01 1.01 0 0 1-1.19-.77 10.992 10.992 0 0 1 0-4.58c.11-.54.64-.89 1.19-.77.54.11.89.65.77 1.19-.06.29-.11.58-.14.88h3.03c.15-.91.51-1.75 1.03-2.47L4.98 6.38c-.19.23-.36.47-.52.72a1 1 0 0 1-1.38.29 1 1 0 0 1-.29-1.38c.41-.62.88-1.21 1.41-1.74l.04-.04.04-.04c.53-.53 1.12-1 1.74-1.41a1 1 0 0 1 1.38.29 1 1 0 0 1-.29 1.38c-.25.16-.49.33-.72.52l2.14 2.14c.72-.52 1.56-.87 2.47-1.03V3.05a8.3 8.3 0 0 0-.87.14 1.01 1.01 0 0 1-1.19-.77c-.11-.54.23-1.07.77-1.19 1.5-.31 3.08-.31 4.58.01.54.11.89.65.77 1.19-.11.54-.65.88-1.19.77-.29-.06-.58-.11-.87-.14v3.03c.91.15 1.75.51 2.48 1.03l2.14-2.14c-.23-.18-.47-.36-.72-.52a1 1 0 0 1-.29-1.38 1 1 0 0 1 1.38-.29c.62.41 1.21.88 1.74 1.41.02.01.03.03.04.04l.04.04c.53.53 1 1.12 1.41 1.74a1 1 0 0 1-.29 1.38 1 1 0 0 1-1.38-.29c-.16-.25-.33-.49-.52-.72l-2.14 2.14c.52.72.87 1.56 1.03 2.47h3.03a8.3 8.3 0 0 0-.14-.87c-.11-.54.23-1.07.77-1.19.54-.12 1.07.23 1.19.77a10.992 10.992 0 0 1 0 4.58c-.11.54-.65.88-1.19.77a.998.998 0 0 1-.77-1.19c.06-.29.11-.58.14-.87h-3.03c-.15.91-.51 1.75-1.03 2.47l2.14 2.14c.18-.23.36-.47.52-.71a1 1 0 0 1 1.38-.29 1 1 0 0 1 .29 1.38 10.93 10.93 0 0 1-3.23 3.23 1 1 0 0 1-1.38-.29 1 1 0 0 1 .29-1.38c.25-.16.49-.33.72-.52l-2.14-2.14c-.72.52-1.56.87-2.47 1.03v3.03c.29-.03.58-.08.87-.14.54-.11 1.07.23 1.19.77.11.54-.23 1.07-.77 1.19-.75.16-1.51.24-2.28.24L12 23ZM8 12c0 2.21 1.79 4 4 4s4-1.79 4-4-1.79-4-4-4-4 1.79-4 4Z"/>
</svg>
