<svg xmlns="http://www.w3.org/2000/svg" width="24" height="24" viewBox="0 0 24 24">
  <path fill-rule="evenodd" d="M12 1a1 1 0 0 1 1 1v5a1 1 0 1 1-2 0V2a1 1 0 0 1 1-1ZM4.222 4.222a1 1 0 0 1 1.414 0l3.536 3.535a1 1 0 1 1-1.415 1.415L4.222 5.636a1 1 0 0 1 0-1.414Zm15.556 0a1 1 0 0 1 0 1.414l-3.535 3.536a1 1 0 1 1-1.415-1.415l3.536-3.535a1 1 0 0 1 1.414 0ZM16 12a1 1 0 0 1 1-1h5a1 1 0 1 1 0 2h-5a1 1 0 0 1-1-1ZM1 12a1 1 0 0 1 1-1h5a1 1 0 1 1 0 2H2a1 1 0 0 1-1-1Zm8.172 2.828a1 1 0 0 1 0 1.415l-3.536 3.535a1 1 0 0 1-1.414-1.414l3.535-3.536a1 1 0 0 1 1.415 0Zm5.656 0a1 1 0 0 1 1.415 0l3.535 3.536a1 1 0 0 1-1.414 1.414l-3.536-3.535a1 1 0 0 1 0-1.415ZM12 16a1 1 0 0 1 1 1v5a1 1 0 1 1-2 0v-5a1 1 0 0 1 1-1Z" clip-rule="evenodd" opacity=".5"/>
  <path fill-rule="evenodd" d="M12 3c-.643 0-1.27.067-1.873.195a1 1 0 0 1-.414-1.957 11.041 11.041 0 0 1 4.574 0 1 1 0 1 1-.414 1.957A9.041 9.041 0 0 0 12 3Zm4.608.067a1 1 0 0 1 1.384-.293 11.055 11.055 0 0 1 3.235 3.235A1 1 0 0 1 19.55 7.1a9.054 9.054 0 0 0-2.649-2.649 1 1 0 0 1-.293-1.383Zm-9.217 0a1 1 0 0 1-.293 1.384A9.054 9.054 0 0 0 4.45 7.099a1 1 0 1 1-1.676-1.09 11.054 11.054 0 0 1 3.233-3.235 1 1 0 0 1 1.384.293ZM12 8a4 4 0 1 0 0 8 4 4 0 0 0 0-8Zm-6 4a6 6 0 1 1 12 0 6 6 0 0 1-12 0ZM2.425 8.939a1 1 0 0 1 .77 1.185 9.04 9.04 0 0 0 0 3.75 1 1 0 0 1-1.957.413A11.041 11.041 0 0 1 1.24 9.71a1 1 0 0 1 1.186-.771Zm19.151.002a1 1 0 0 1 1.186.772 11.04 11.04 0 0 1 0 4.573 1 1 0 1 1-1.957-.413 9.039 9.039 0 0 0 0-3.746 1 1 0 0 1 .771-1.186Zm-.644 7.67a1 1 0 0 1 .292 1.384 11.053 11.053 0 0 1-3.234 3.233 1 1 0 1 1-1.09-1.677 9.054 9.054 0 0 0 2.648-2.647 1 1 0 0 1 1.384-.292Zm-17.863.002a1 1 0 0 1 1.384.292 9.055 9.055 0 0 0 2.646 2.645 1 1 0 1 1-1.09 1.676 11.055 11.055 0 0 1-3.232-3.23 1 1 0 0 1 .292-1.383Zm5.868 4.962a1 1 0 0 1 1.186-.77 9.04 9.04 0 0 0 3.747 0 1 1 0 0 1 .414 1.957 11.041 11.041 0 0 1-4.576-.001 1 1 0 0 1-.77-1.186Z" clip-rule="evenodd"/>
</svg>
