<svg xmlns="http://www.w3.org/2000/svg" width="24" height="24" viewBox="0 0 24 24">
  <path d="M12 17a5 5 0 1 0 0-10 5 5 0 0 0 0 10Z" opacity=".2"/>
  <path d="M12 23c-.77 0-1.54-.08-2.29-.24a.998.998 0 0 1-.77-1.19c.12-.54.65-.88 1.19-.77.29.06.58.11.88.14v-3.03c-.91-.15-1.75-.51-2.47-1.03L6.4 19.02c.23.18.47.36.72.52a1 1 0 0 1 .29 1.38c-.3.46-.92.6-1.38.29-.62-.4-1.21-.88-1.74-1.4-.02-.01-.03-.03-.05-.05l-.05-.05c-.52-.53-1-1.11-1.4-1.73a1 1 0 0 1 .29-1.38 1 1 0 0 1 1.38.29c.16.25.33.48.52.71l2.14-2.14c-.52-.72-.88-1.56-1.03-2.47H3.06c.03.29.08.58.14.87a.995.995 0 0 1-.77 1.18.988.988 0 0 1-1.18-.77 10.992 10.992 0 0 1 0-4.58 1 1 0 0 1 1.19-.77c.54.12.88.65.77 1.19-.06.29-.11.58-.14.88H6.1c.15-.91.51-1.75 1.03-2.48L4.99 6.37c-.19.23-.36.47-.52.72a1 1 0 0 1-1.38.29A1 1 0 0 1 2.8 6c.85-1.3 1.94-2.39 3.23-3.23a1 1 0 0 1 1.38.29 1 1 0 0 1-.29 1.38c-.25.16-.48.33-.71.52L8.55 7.1a6.1 6.1 0 0 1 2.47-1.03V3.04a8.3 8.3 0 0 0-.87.14c-.55.11-1.07-.23-1.19-.77-.11-.54.23-1.07.77-1.19 1.49-.32 3.09-.32 4.58 0 .54.12.88.65.77 1.19-.12.54-.65.88-1.19.77-.29-.06-.58-.11-.87-.14v3.03c.91.15 1.75.51 2.47 1.03l2.14-2.14c-.23-.18-.47-.36-.72-.52a1 1 0 0 1-.29-1.38A1 1 0 0 1 18 2.77c.62.41 1.21.88 1.74 1.4.02.01.03.03.05.04.02.01.03.03.04.05.53.53 1 1.12 1.41 1.74a1 1 0 0 1-.29 1.38 1 1 0 0 1-1.38-.29c-.16-.25-.33-.49-.52-.72l-2.14 2.14c.52.72.88 1.57 1.03 2.48h3.03a8.3 8.3 0 0 0-.14-.87c-.11-.54.23-1.07.77-1.19.55-.11 1.07.23 1.19.77.16.75.24 1.51.24 2.29s-.08 1.54-.24 2.29c-.12.54-.65.88-1.19.77a1.01 1.01 0 0 1-.77-1.19c.06-.29.11-.58.14-.87h-3.03c-.15.91-.51 1.75-1.03 2.47l2.14 2.14c.18-.23.36-.47.52-.71.3-.46.92-.6 1.38-.29a1 1 0 0 1 .29 1.38c-.4.62-.87 1.2-1.4 1.73-.01.02-.03.03-.05.05l-.05.05c-.53.53-1.12 1-1.74 1.4a1 1 0 0 1-1.38-.29 1 1 0 0 1 .29-1.38c.25-.16.49-.33.72-.52l-2.14-2.14c-.72.52-1.56.88-2.47 1.03v3.03c.29-.03.58-.08.87-.14.55-.11 1.07.23 1.19.77.11.54-.23 1.07-.77 1.19-.75.16-1.51.24-2.28.24H12ZM8 12c0 2.21 1.79 4 4 4s4-1.79 4-4-1.79-4-4-4-4 1.79-4 4Z"/>
</svg>
