<svg xmlns="http://www.w3.org/2000/svg" width="24" height="24" viewBox="0 0 24 24">
  <path fill-rule="evenodd" d="M12.5 6.414 9.676 9.238l-.036.037c-.134.134-.303.304-.51.43a2 2 0 0 1-.577.24 2.796 2.796 0 0 1-.716.055H6.1c-.297 0-.459 0-.575.01l-.014.001v.014c-.01.116-.011.278-.011.575v2.8a8.187 8.187 0 0 0 .011.588l.014.002c.116.01.278.01.575.01h1.788c.19 0 .43-.001.665.055.204.05.399.13.578.24.206.126.375.296.509.43l.036.037 2.824 2.824V6.414Zm.382-2.702a1.5 1.5 0 0 1 1.259.52c.279.328.323.721.34.912.02.214.019.48.019.75v12.212c0 .27 0 .536-.019.75-.017.19-.061.584-.34.911a1.5 1.5 0 0 1-1.259.521c-.428-.034-.738-.28-.885-.403a9.188 9.188 0 0 1-.543-.517l-3.192-3.192a6.13 6.13 0 0 0-.175-.171l-.002-.002H8.08A6.13 6.13 0 0 0 7.837 16H6.068c-.252 0-.498 0-.706-.017a2.02 2.02 0 0 1-.77-.201 2 2 0 0 1-.874-.874 2.022 2.022 0 0 1-.201-.77c-.017-.208-.017-.454-.017-.706v-2.864c0-.252 0-.498.017-.706a2.03 2.03 0 0 1 .201-.77 2 2 0 0 1 .874-.874 2.03 2.03 0 0 1 .77-.201C5.57 8 5.816 8 6.068 8h1.769a6.184 6.184 0 0 0 .248-.003l.002-.002c.036-.032.082-.078.175-.17l3.165-3.166a7.25 7.25 0 0 0 .027-.027c.19-.191.379-.379.543-.517.147-.123.457-.37.885-.403Zm4.791 3.468a1 1 0 0 1 1.392.248A7.968 7.968 0 0 1 20.5 12c0 1.698-.53 3.276-1.435 4.572a1 1 0 0 1-1.64-1.144A5.967 5.967 0 0 0 18.5 12a5.967 5.967 0 0 0-1.075-3.428 1 1 0 0 1 .248-1.392Z" clip-rule="evenodd"/>
</svg>
