<svg xmlns="http://www.w3.org/2000/svg" width="24" height="24" viewBox="0 0 24 24">
  <path d="M2 9.6c0-.56 0-.84.109-1.054a1 1 0 0 1 .437-.437C2.76 8 3.04 8 3.6 8h1.737c.245 0 .367 0 .482-.028a1 1 0 0 0 .29-.12c.1-.061.187-.148.36-.32l3.165-3.166c.429-.429.643-.643.827-.657a.5.5 0 0 1 .42.173c.119.14.119.444.119 1.05v14.137c0 .605 0 .908-.12 1.049a.5.5 0 0 1-.42.173c-.183-.014-.397-.228-.826-.657L6.47 16.47c-.173-.173-.26-.26-.36-.322a.998.998 0 0 0-.29-.12C5.704 16 5.582 16 5.337 16H3.6c-.56 0-.84 0-1.054-.109a1 1 0 0 1-.437-.437C2 15.24 2 14.96 2 14.4V9.6Z" opacity=".2"/>
  <path fill-rule="evenodd" d="M10 5.414 7.176 8.238l-.036.037c-.134.134-.303.304-.51.43a2 2 0 0 1-.577.24C5.817 9 5.578 9 5.388 9H3.6a8.184 8.184 0 0 0-.589.011v.014C3 9.14 3 9.303 3 9.6v4.8a8.187 8.187 0 0 0 .011.588l.014.002c.116.01.278.01.575.01h1.788c.19 0 .43-.001.665.055.204.05.399.13.578.24.206.126.375.296.509.43l.036.037L10 18.585V5.414Zm.382-2.702a1.5 1.5 0 0 1 1.259.52c.279.328.323.721.34.912.02.214.019.48.019.75v14.212c0 .27 0 .536-.019.75-.017.19-.061.584-.34.911a1.5 1.5 0 0 1-1.259.521c-.428-.034-.738-.28-.885-.403a9.17 9.17 0 0 1-.543-.517l-3.192-3.192a6.13 6.13 0 0 0-.175-.171l-.002-.002H5.58A6.13 6.13 0 0 0 5.337 17H3.568c-.252 0-.498 0-.706-.017a2.02 2.02 0 0 1-.77-.201 2 2 0 0 1-.874-.874 2.022 2.022 0 0 1-.201-.77C1 14.93 1 14.684 1 14.432V9.568c0-.252 0-.498.017-.706a2.03 2.03 0 0 1 .201-.77 2 2 0 0 1 .874-.874 2.03 2.03 0 0 1 .77-.201C3.07 7 3.316 7 3.568 7h1.769a6.184 6.184 0 0 0 .248-.003l.002-.002c.035-.032.082-.078.175-.17l3.165-3.166.027-.027c.19-.191.379-.379.543-.517.147-.123.457-.37.885-.403Zm8.782 1.476a1 1 0 0 1 1.396.228A12.946 12.946 0 0 1 23 12c0 2.829-.905 5.45-2.44 7.584a1 1 0 0 1-1.624-1.168A10.945 10.945 0 0 0 21 12c0-2.396-.765-4.61-2.064-6.416a1 1 0 0 1 .228-1.396Zm-3.99 2.992a1 1 0 0 1 1.392.248A7.968 7.968 0 0 1 18 12c0 1.698-.53 3.276-1.434 4.572a1 1 0 0 1-1.64-1.144A5.968 5.968 0 0 0 16 12a5.968 5.968 0 0 0-1.075-3.428 1 1 0 0 1 .248-1.392Z" clip-rule="evenodd"/>
</svg>
