<svg xmlns="http://www.w3.org/2000/svg" width="24" height="24" viewBox="0 0 24 24">
  <path fill-rule="evenodd" d="M17.673 7.18a1 1 0 0 1 1.392.248A7.967 7.967 0 0 1 20.5 12c0 1.698-.53 3.276-1.435 4.572a1 1 0 1 1-1.64-1.144A5.968 5.968 0 0 0 18.5 12a5.968 5.968 0 0 0-1.075-3.428 1 1 0 0 1 .248-1.392Z" clip-rule="evenodd" opacity=".5"/>
  <path fill-rule="evenodd" d="M12.5 5.414 9.676 8.238l-.036.037a2.794 2.794 0 0 1-.51.43 2 2 0 0 1-.577.24A2.794 2.794 0 0 1 7.888 9H6.1a8.192 8.192 0 0 0-.589.011v.014c-.01.116-.011.278-.011.575v4.8a8.187 8.187 0 0 0 .011.589h.014c.116.01.278.011.575.011h1.788c.19 0 .43-.001.665.055.204.05.399.13.578.24.206.126.375.296.509.43l.036.037 2.824 2.824V5.414Zm.382-2.702a1.5 1.5 0 0 1 1.259.52c.279.328.323.721.34.912.02.214.019.48.019.75v14.212c0 .27 0 .536-.019.75-.017.19-.061.584-.34.911a1.5 1.5 0 0 1-1.259.521c-.428-.034-.738-.28-.885-.403a9.188 9.188 0 0 1-.543-.517l-3.192-3.192a6.13 6.13 0 0 0-.177-.173H8.08A6.13 6.13 0 0 0 7.837 17H6.068c-.252 0-.498 0-.706-.017a2.022 2.022 0 0 1-.77-.201 2 2 0 0 1-.874-.874 2.022 2.022 0 0 1-.201-.77c-.017-.208-.017-.454-.017-.706V9.568c0-.252 0-.498.017-.706a2.03 2.03 0 0 1 .201-.77 2 2 0 0 1 .874-.874 2.03 2.03 0 0 1 .77-.201C5.57 7 5.816 7 6.068 7h1.769c.131 0 .197 0 .244-.002h.004l.002-.003c.036-.032.082-.078.175-.17l3.165-3.166.027-.027c.19-.191.379-.379.543-.517.147-.123.457-.37.885-.403Z" clip-rule="evenodd"/>
</svg>
