<svg xmlns="http://www.w3.org/2000/svg" width="24" height="24" viewBox="0 0 24 24">
  <path fill-rule="evenodd" d="M10 6.414 7.176 9.238l-.036.037c-.134.134-.303.304-.51.43a2 2 0 0 1-.577.24 2.796 2.796 0 0 1-.716.055H3.6c-.297 0-.459 0-.575.01l-.014.001v.014C3 10.14 3 10.303 3 10.6v2.8a8.187 8.187 0 0 0 .011.588l.014.002c.116.01.278.01.575.01h1.788c.19 0 .43-.001.665.055.204.05.399.13.578.24.206.126.375.296.509.43l.036.037L10 17.585V6.414Zm.382-2.702a1.5 1.5 0 0 1 1.259.52c.279.328.323.721.34.912.02.214.019.48.019.75v12.212c0 .27 0 .536-.019.75-.017.19-.061.584-.34.911a1.5 1.5 0 0 1-1.259.521c-.428-.034-.738-.28-.885-.403a9.17 9.17 0 0 1-.543-.517l-3.192-3.192a6.13 6.13 0 0 0-.175-.171l-.002-.002H5.58A6.13 6.13 0 0 0 5.337 16H3.568c-.252 0-.498 0-.706-.017a2.02 2.02 0 0 1-.77-.201 2 2 0 0 1-.874-.874 2.022 2.022 0 0 1-.201-.77C1 13.93 1 13.684 1 13.432v-2.864c0-.252 0-.498.017-.706a2.03 2.03 0 0 1 .201-.77 2 2 0 0 1 .874-.874 2.03 2.03 0 0 1 .77-.201C3.07 8 3.316 8 3.568 8h1.769a6.184 6.184 0 0 0 .248-.003l.002-.002c.035-.032.082-.078.175-.17l3.165-3.166.027-.027c.19-.191.379-.379.543-.517.147-.123.457-.37.885-.403ZM18.5 7.5a1 1 0 0 1 1 1V11H22a1 1 0 1 1 0 2h-2.5v2.5a1 1 0 1 1-2 0V13H15a1 1 0 1 1 0-2h2.5V8.5a1 1 0 0 1 1-1Z" clip-rule="evenodd"/>
</svg>
