<svg xmlns="http://www.w3.org/2000/svg" width="24" height="24" viewBox="0 0 24 24">
  <path fill-rule="evenodd" d="M8.464 3.5c-.25 0-.493.1-.675.286A1.019 1.019 0 0 0 7.5 4.5c0 .271.106.527.289.714a.947.947 0 0 0 .675.286h2.17a6.117 6.117 0 0 0-.25-.525c-.486-.9-1.11-1.475-1.92-1.475Zm4.902 2h2.17c.25 0 .493-.1.675-.286A1.02 1.02 0 0 0 16.5 4.5a1.02 1.02 0 0 0-.289-.714.947.947 0 0 0-.675-.286c-.81 0-1.434.576-1.92 1.475a6.117 6.117 0 0 0-.25.525ZM12 3.772c.627-1.054 1.741-2.272 3.536-2.272.792 0 1.548.32 2.102.885.554.564.862 1.325.862 2.115 0 .79-.308 1.551-.862 2.115a2.946 2.946 0 0 1-2.102.885H8.464c-.792 0-1.548-.32-2.102-.885A3.019 3.019 0 0 1 5.5 4.5c0-.79.308-1.551.862-2.115A2.947 2.947 0 0 1 8.464 1.5c1.795 0 2.909 1.218 3.536 2.272Z" clip-rule="evenodd" opacity=".5"/>
  <path fill-rule="evenodd" d="M6.084 5.5h11.832c.328 0 .637 0 .892.023.272.024.604.081.92.277a2 2 0 0 1 .87 1.154c.102.357.066.693.014.96-.048.252-.133.55-.223.864l-.308 1.08 1.64 2.734.059.098c.361.601.634 1.056.78 1.558.128.443.179.905.15 1.365-.033.521-.201 1.024-.424 1.69l-.035.108-.208.623c-.02.057-.038.114-.056.17-.338 1.014-.592 1.777-1.08 2.362a4 4 0 0 1-1.605 1.157c-.71.279-1.514.278-2.584.277H7.282c-1.07 0-1.874.002-2.584-.277a4 4 0 0 1-1.604-1.157c-.49-.585-.743-1.348-1.08-2.363a218.86 218.86 0 0 0-.057-.169l-.208-.623-.035-.108c-.223-.666-.39-1.169-.424-1.69a4 4 0 0 1 .15-1.365c.146-.502.419-.957.78-1.558l.058-.098L3.92 9.858l-.298-1.044a10.731 10.731 0 0 1-.233-.9c-.052-.267-.088-.603.014-.96a2 2 0 0 1 .87-1.154c.316-.196.648-.253.92-.277.255-.023.564-.023.892-.023ZM5.566 11l-1.573 2.621c-.445.742-.568.963-.632 1.183a2 2 0 0 0-.075.682c.015.23.087.471.36 1.292l.209.624c.42 1.26.56 1.625.773 1.881a2 2 0 0 0 .802.578c.31.122.7.139 2.03.139h9.08c1.33 0 1.72-.017 2.03-.139.311-.122.587-.321.802-.578.214-.256.353-.62.773-1.881l.208-.624c.274-.82.346-1.062.36-1.292a2 2 0 0 0-.074-.682c-.064-.22-.187-.44-.632-1.183L18.434 11H5.566Zm12.68-2 .21-.735a9.824 9.824 0 0 0 .196-.748l-.022-.002a9.813 9.813 0 0 0-.751-.015H6.12a9.816 9.816 0 0 0-.773.017l.004.021c.03.153.088.363.192.727l.21.735h12.492Z" clip-rule="evenodd"/>
</svg>
