<svg xmlns="http://www.w3.org/2000/svg" width="24" height="24" viewBox="0 0 24 24">
  <path fill-rule="evenodd" d="M14.952 3.605a10.79 10.79 0 0 0-.803.35L5.279 8.05c-.743.342-.884.423-.978.515a1 1 0 0 0-.243.38C4.014 9.068 4 9.23 4 10.047V15a1 1 0 1 1-2 0V9.919c-.001-.613-.002-1.152.173-1.644a3 3 0 0 1 .73-1.14c.374-.366.863-.591 1.42-.847l.117-.054 8.907-4.111c.346-.16.665-.307.936-.403.28-.1.646-.198 1.053-.129a2 2 0 0 1 1.314.841c.233.34.297.714.324 1.01C17 3.728 17 4.08 17 4.46V8a1 1 0 1 1-2 0V4.5c0-.435-.001-.692-.018-.876 0-.01-.002-.02-.003-.029a2.096 2.096 0 0 0-.027.01Z" clip-rule="evenodd" opacity=".5"/>
  <path fill-rule="evenodd" d="M6.161 7H17.84c.527 0 .982 0 1.356.03.395.033.789.104 1.167.297a3 3 0 0 1 1.311 1.311c.193.378.264.772.296 1.167.031.375.031.83.031 1.356v6.678c0 .527 0 .982-.03 1.356-.033.395-.104.789-.297 1.167a3 3 0 0 1-1.311 1.311c-.378.193-.772.264-1.167.296-.375.031-.83.031-1.356.031H6.16c-.527 0-.981 0-1.356-.03-.395-.033-.789-.104-1.167-.297a3 3 0 0 1-1.311-1.311c-.193-.378-.264-.772-.296-1.167A17.9 17.9 0 0 1 2 17.838v-6.677c0-.527 0-.981.03-1.356.033-.395.104-.789.297-1.167a3 3 0 0 1 1.311-1.311c.378-.193.772-.264 1.167-.296C5.18 7 5.635 7 6.161 7ZM4.968 9.024c-.272.022-.373.06-.422.085a1 1 0 0 0-.437.437c-.025.05-.063.15-.085.422C4 10.25 4 10.623 4 11.2v6.6c0 .577 0 .949.024 1.232.022.272.06.372.085.422a1 1 0 0 0 .437.437c.05.025.15.063.422.085C5.25 20 5.623 20 6.2 20h11.6c.577 0 .949 0 1.232-.024.272-.022.372-.06.422-.085a1 1 0 0 0 .437-.437c.025-.05.063-.15.085-.422C20 18.75 20 18.377 20 17.8v-6.6c0-.577 0-.949-.024-1.232-.022-.272-.06-.373-.085-.422a1 1 0 0 0-.437-.437c-.05-.025-.15-.063-.422-.085C18.75 9 18.377 9 17.8 9H6.2c-.577 0-.949 0-1.232.024ZM15 14.5a1.5 1.5 0 1 1 3 0 1.5 1.5 0 0 1-3 0Z" clip-rule="evenodd"/>
</svg>
