<svg xmlns="http://www.w3.org/2000/svg" width="24" height="24" viewBox="0 0 24 24">
  <path d="M13.586 22h-3.172c-.865 0-1.298 0-1.662-.148a2 2 0 0 1-.816-.616c-.243-.309-.361-.725-.6-1.557L7 18.5h10l-.337 1.18c-.238.831-.356 1.247-.6 1.556a1.999 1.999 0 0 1-.815.616c-.364.148-.796.148-1.662.148Zm3.077-17.68c-.238-.831-.356-1.247-.6-1.556a2 2 0 0 0-.815-.616C14.884 2 14.452 2 13.586 2h-3.172c-.865 0-1.298 0-1.662.148a2 2 0 0 0-.816.616c-.243.309-.361.725-.6 1.557L7 5.5h10l-.337-1.18Z" opacity=".2"/>
  <path fill-rule="evenodd" d="M10.262 1h3.476c.712-.001 1.337-.002 1.888.223a3 3 0 0 1 1.224.923c.368.468.538 1.069.733 1.754l.042.146.22.773.017.008a3 3 0 0 1 1.311 1.311c.193.378.264.772.296 1.167.031.375.031.83.031 1.356v6.678c0 .527 0 .981-.03 1.356-.033.395-.104.789-.297 1.167a3 3 0 0 1-1.311 1.311l-.017.008-.22.773-.042.146c-.194.685-.365 1.286-.733 1.754a3 3 0 0 1-1.224.923c-.551.225-1.176.224-1.888.223h-3.476c-.712.001-1.337.002-1.888-.223a3 3 0 0 1-1.224-.923c-.368-.468-.538-1.069-.733-1.754a86.45 86.45 0 0 0-.042-.146l-.22-.773-.017-.008a3 3 0 0 1-1.311-1.311c-.193-.378-.264-.772-.296-1.167a17.9 17.9 0 0 1-.031-1.357V8.662c0-.527 0-.981.03-1.356.033-.395.104-.789.297-1.167a3 3 0 0 1 1.328-1.32l.22-.772.042-.146c.195-.685.365-1.286.733-1.754a3 3 0 0 1 1.224-.923C8.925.998 9.55.999 10.262 1ZM8.326 4.5h7.348c-.24-.835-.308-1.005-.396-1.118a1 1 0 0 0-.409-.308C14.732 3.018 14.542 3 13.587 3h-3.172c-.955 0-1.146.018-1.284.074a1 1 0 0 0-.408.308c-.088.113-.156.283-.396 1.118Zm0 15c.24.835.308 1.005.396 1.118.107.136.248.242.409.308.137.056.328.074 1.283.074h3.172c.955 0 1.146-.018 1.284-.074.16-.066.3-.172.408-.308.088-.113.156-.283.396-1.118H8.326ZM7.468 6.524c-.272.022-.373.06-.422.085a1 1 0 0 0-.437.437c-.025.05-.063.15-.085.422C6.5 7.75 6.5 8.123 6.5 8.7v6.6c0 .577 0 .949.024 1.232.022.272.06.372.085.422a1 1 0 0 0 .437.437c.05.025.15.063.422.085.283.023.655.024 1.232.024h6.6c.577 0 .949 0 1.232-.024.272-.022.372-.06.422-.085a1 1 0 0 0 .437-.437c.025-.05.063-.15.085-.422.023-.283.024-.655.024-1.232V8.7c0-.577 0-.949-.024-1.232-.022-.272-.06-.373-.085-.422a1 1 0 0 0-.437-.437c-.05-.025-.15-.063-.422-.085C16.25 6.5 15.877 6.5 15.3 6.5H8.7c-.577 0-.949 0-1.232.024ZM12 8a1 1 0 0 1 1 1v2.586l1.207 1.207a1 1 0 0 1-1.414 1.414l-1.5-1.5A1 1 0 0 1 11 12V9a1 1 0 0 1 1-1Z" clip-rule="evenodd"/>
</svg>
