<svg xmlns="http://www.w3.org/2000/svg" width="24" height="24" viewBox="0 0 24 24">
  <path fill-rule="evenodd" d="M10.59 1h2.82c.439 0 .821 0 1.14.024.34.025.676.08 1.012.227a3 3 0 0 1 1.258 1.032c.21.3.33.62.422.947.085.309.16.683.246 1.113l.493 2.46a1 1 0 0 1-1.962.393l-.485-2.427a15.517 15.517 0 0 0-.219-1.002c-.06-.216-.105-.297-.135-.34a1 1 0 0 0-.42-.343c-.047-.021-.135-.05-.358-.066A15.495 15.495 0 0 0 13.377 3h-2.754c-.482 0-.789 0-1.025.018-.223.017-.311.045-.359.066a1 1 0 0 0-.42.344c-.03.042-.074.123-.134.339a15.49 15.49 0 0 0-.219 1.002l-.485 2.427a1 1 0 0 1-1.962-.392l.493-2.46c.086-.43.16-.805.246-1.114.092-.328.212-.647.422-.947A3 3 0 0 1 8.438 1.25a3.027 3.027 0 0 1 1.012-.227C9.77 1 10.151 1 10.59 1ZM6.02 17.196a1 1 0 0 1 1.96-.392l.486 2.428c.095.472.155.773.219 1.001.06.216.105.297.135.34a1 1 0 0 0 .42.343c.047.021.135.05.358.066.236.017.543.018 1.025.018h2.754c.482 0 .789 0 1.025-.018.223-.017.311-.045.359-.066a1 1 0 0 0 .42-.344c.03-.042.074-.123.134-.339.064-.228.124-.529.219-1.002l.485-2.427a1 1 0 0 1 1.962.392l-.493 2.461c-.085.43-.16.805-.246 1.113a3.025 3.025 0 0 1-.422.947 3 3 0 0 1-1.258 1.032 3.024 3.024 0 0 1-1.012.227c-.319.024-.701.024-1.14.024h-2.82c-.439 0-.821 0-1.14-.024a3.024 3.024 0 0 1-1.012-.227 3 3 0 0 1-1.258-1.032c-.21-.3-.33-.62-.422-.947-.086-.308-.16-.683-.246-1.113l-.493-2.46Z" clip-rule="evenodd" opacity=".5"/>
  <path fill-rule="evenodd" d="M12 6a6 6 0 1 0 0 12 6 6 0 0 0 0-12Zm-8 6a8 8 0 1 1 16 0 8 8 0 0 1-16 0Zm8-4a1 1 0 0 1 1 1v2.586l1.207 1.207a1 1 0 0 1-1.414 1.414l-1.5-1.5A1 1 0 0 1 11 12V9a1 1 0 0 1 1-1Z" clip-rule="evenodd"/>
</svg>
