<svg xmlns="http://www.w3.org/2000/svg" width="24" height="24" viewBox="0 0 24 24">
  <path d="M12 13.688a3.188 3.188 0 1 0 0-6.376 3.188 3.188 0 0 0 0 6.375Z" opacity=".2"/>
  <path fill-rule="evenodd" d="M12 3a7.5 7.5 0 1 0 0 15 7.5 7.5 0 0 0 0-15Zm-9.5 7.5a9.5 9.5 0 1 1 19 0 9.5 9.5 0 0 1-19 0ZM12 8.312a2.188 2.188 0 1 0 0 4.376 2.188 2.188 0 0 0 0-4.376ZM7.812 10.5a4.188 4.188 0 1 1 8.376 0 4.188 4.188 0 0 1-8.375 0ZM7 22a1 1 0 0 1 1-1h8a1 1 0 1 1 0 2H8a1 1 0 0 1-1-1Z" clip-rule="evenodd"/>
</svg>
