<svg xmlns="http://www.w3.org/2000/svg" width="24" height="24" viewBox="0 0 24 24">
  <path fill-rule="evenodd" d="M12 5.503a15 15 0 0 0-1.69.095 1 1 0 1 1-.225-1.987A17.002 17.002 0 0 1 23.24 7.75a1 1 0 0 1-1.322 1.5 15 15 0 0 0-9.92-3.747Zm2.357 4.2a1 1 0 0 1 1.252-.658 11.999 11.999 0 0 1 4.111 2.237 1 1 0 1 1-1.28 1.536 9.997 9.997 0 0 0-3.426-1.863 1 1 0 0 1-.657-1.252Z" clip-rule="evenodd" opacity=".5"/>
  <path fill-rule="evenodd" d="M2.293 2.293a1 1 0 0 1 1.414 0l18 18a1 1 0 0 1-1.414 1.414l-5.033-5.033a1.004 1.004 0 0 1-.179-.112A4.974 4.974 0 0 0 12 15.5a4.974 4.974 0 0 0-3.12 1.093 1 1 0 0 1-1.25-1.562 6.975 6.975 0 0 1 4.456-1.53l-2.665-2.666a9.976 9.976 0 0 0-4.028 2.158 1 1 0 1 1-1.322-1.5 11.995 11.995 0 0 1 3.76-2.248L5.542 6.957a15.028 15.028 0 0 0-3.674 2.481 1 1 0 0 1-1.35-1.475 17.041 17.041 0 0 1 3.536-2.495l-1.761-1.76a1 1 0 0 1 0-1.415ZM11 19.5a1 1 0 0 1 1-1h.01a1 1 0 1 1 0 2H12a1 1 0 0 1-1-1Z" clip-rule="evenodd"/>
</svg>
