<svg xmlns="http://www.w3.org/2000/svg" width="24" height="24" fill="currentColor" viewBox="0 0 24 24">
  <path fill-rule="evenodd" d="M12.22 6.98c-2.17.694-4.64 1.485-7.492.68-.442-.125-.971-.31-1.375-.458a37.007 37.007 0 0 1-.663-.25l-.041-.016-.016-.006a1 1 0 0 1 .734-1.86l.011.004.037.015a28.64 28.64 0 0 0 .625.235c.394.144.865.308 1.232.412 2.231.63 4.173.031 6.423-.688l.086-.028c2.169-.694 4.64-1.485 7.49-.68.443.125.973.31 1.376.458a36.795 36.795 0 0 1 .663.25l.041.016.016.006a1 1 0 0 1-.734 1.86l-.011-.004-.037-.015a31.113 31.113 0 0 0-.625-.235 18.762 18.762 0 0 0-1.232-.412c-2.232-.63-4.173-.031-6.423.688l-.086.028Zm0 6c-2.17.694-4.64 1.485-7.492.68-.442-.125-.971-.31-1.375-.458a37.045 37.045 0 0 1-.663-.25l-.041-.016-.016-.006a1 1 0 0 1 .734-1.86l.011.004.037.015a27.861 27.861 0 0 0 .625.235c.394.144.865.308 1.232.412 2.231.63 4.173.031 6.423-.689.029-.008.057-.018.086-.027 2.169-.694 4.64-1.485 7.49-.68.443.125.973.31 1.376.458a36.981 36.981 0 0 1 .663.25l.041.016.016.006a1 1 0 0 1-.734 1.86l-.011-.004-.037-.015a31.15 31.15 0 0 0-.625-.235 18.774 18.774 0 0 0-1.232-.412c-2.232-.63-4.173-.031-6.423.689l-.086.027Zm0 6c-2.17.694-4.64 1.485-7.492.68-.442-.125-.971-.31-1.375-.458a37.045 37.045 0 0 1-.663-.25l-.041-.016-.015-.005a1 1 0 0 1 .733-1.861m0 0 .011.004.037.015a27.861 27.861 0 0 0 .625.235c.394.144.865.308 1.232.411 2.231.63 4.173.032 6.423-.688l.086-.027c2.169-.694 4.64-1.485 7.49-.68.443.125.973.31 1.376.458a36.981 36.981 0 0 1 .663.25l.041.016.012.004.003.001a1 1 0 0 1-.733 1.861l-.011-.004-.037-.015a31.15 31.15 0 0 0-.625-.235 18.774 18.774 0 0 0-1.232-.411c-2.232-.63-4.173-.032-6.423.688l-.086.027" clip-rule="evenodd"/>
</svg>
