<svg xmlns="http://www.w3.org/2000/svg" width="24" height="24" viewBox="0 0 24 24">
  <path fill-rule="evenodd" d="M12.22 12.98c-2.17.694-4.64 1.485-7.492.68-.442-.125-.971-.31-1.375-.458a37.045 37.045 0 0 1-.663-.25l-.041-.016-.016-.006a1 1 0 0 1 .734-1.86l.011.004.037.015a27.861 27.861 0 0 0 .625.235c.394.144.865.308 1.232.412 2.231.63 4.173.031 6.423-.689l.086-.027c2.169-.694 4.64-1.485 7.49-.68.443.124.973.31 1.376.458a36.981 36.981 0 0 1 .663.25l.041.016.016.006-.358.909.358-.91a1 1 0 1 1-.734 1.861l-.011-.004-.037-.015a31.15 31.15 0 0 0-.625-.235 18.774 18.774 0 0 0-1.232-.412c-2.232-.63-4.173-.031-6.423.688l-.086.028Z" clip-rule="evenodd" opacity=".5"/>
  <path fill-rule="evenodd" d="M12.22 6.98c-2.17.694-4.64 1.485-7.492.68-.442-.125-.971-.31-1.375-.458a36.858 36.858 0 0 1-.663-.25l-.041-.016-.016-.006L3 6l-.367.93a1 1 0 0 1 .734-1.86l.011.004.037.015a27.834 27.834 0 0 0 .625.235c.394.144.865.308 1.232.412 2.231.63 4.173.031 6.423-.688l.086-.028c2.169-.694 4.64-1.485 7.49-.68.443.125.973.31 1.376.458a36.924 36.924 0 0 1 .663.25l.041.016.016.006L21 6l.367-.93a1 1 0 0 1-.734 1.86m0 0-.011-.004-.037-.015a30.88 30.88 0 0 0-.625-.235 18.769 18.769 0 0 0-1.232-.412c-2.232-.63-4.173-.031-6.423.688l-.086.028m0 12c-2.169.694-4.64 1.485-7.49.68-.443-.125-.972-.31-1.376-.458a37.045 37.045 0 0 1-.663-.25l-.041-.016-.015-.005a1 1 0 0 1 .733-1.861m0 0 .011.004.037.015a27.861 27.861 0 0 0 .625.235c.394.144.865.308 1.232.411 2.231.63 4.173.032 6.423-.688l.086-.027c2.169-.694 4.64-1.485 7.49-.68.443.125.973.31 1.376.458a36.981 36.981 0 0 1 .663.25l.041.016.012.004.003.001a1 1 0 0 1-.733 1.861l-.011-.004-.037-.015a31.15 31.15 0 0 0-.625-.235 18.774 18.774 0 0 0-1.232-.411c-2.232-.63-4.173-.032-6.423.687l-.086.028" clip-rule="evenodd"/>
</svg>
