<svg xmlns="http://www.w3.org/2000/svg" width="24" height="24" viewBox="0 0 24 24">
  <path fill-rule="evenodd" stroke="gray" stroke-linecap="round" stroke-linejoin="round" stroke-width="2" d="M20.944 6.054c.31.32.53.714.637 1.146A26.36 26.36 0 0 1 22 12.045c.005 1.6-.135 3.198-.419 4.773a2.528 2.528 0 0 1-1.763 1.818c-1.564.418-7.818.418-7.818.418s-6.254 0-7.818-.418A2.529 2.529 0 0 1 2.42 16.89 26.362 26.362 0 0 1 2 12.045a26.362 26.362 0 0 1 .418-4.809 2.527 2.527 0 0 1 1.763-1.818C5.746 5 12 5 12 5s6.254 0 7.818.382c.428.12.816.353 1.126.672ZM9.85 8.616c-.1.133-.1.372-.1.85v5.069c0 .477 0 .716.1.849a.5.5 0 0 0 .364.199c.166.012.367-.117.769-.375l3.942-2.535c.349-.224.523-.336.583-.478a.5.5 0 0 0 0-.39c-.06-.142-.234-.254-.583-.478l-3.942-2.535c-.402-.258-.603-.387-.769-.375a.5.5 0 0 0-.364.2Z" clip-rule="evenodd" opacity=".2"/>
  <path fill-rule="evenodd" d="M12 4v2h-.268a120.36 120.36 0 0 0-3.025.052 61.03 61.03 0 0 0-2.57.122c-.808.059-1.4.132-1.69.208a1.527 1.527 0 0 0-1.05 1.068A25.362 25.362 0 0 0 3 12.04v.011c-.01 1.545.121 3.087.392 4.607a1.527 1.527 0 0 0 1.05 1.012c.289.077.882.15 1.693.21.786.057 1.698.096 2.571.122a123.601 123.601 0 0 0 3.026.051h.535a123.61 123.61 0 0 0 3.026-.051 62.375 62.375 0 0 0 2.57-.122c.807-.059 1.399-.132 1.688-.208a1.528 1.528 0 0 0 1.052-1.069c.268-1.503.401-3.027.396-4.554v-.01c.01-1.55-.123-3.099-.396-4.625a1.527 1.527 0 0 0-1.041-1.065c-.302-.07-.895-.137-1.693-.19a68.215 68.215 0 0 0-2.575-.112 135.497 135.497 0 0 0-3.027-.046h-.2L12 6V4h.276a136.435 136.435 0 0 1 3.074.048c.885.024 1.828.06 2.653.115.799.053 1.565.129 2.052.247l.035.01a3.527 3.527 0 0 1 2.475 2.602c.3 1.658.445 3.34.434 5.024a27.362 27.362 0 0 1-.448 5.014 3.528 3.528 0 0 1-2.461 2.538l-.014.004c-.494.132-1.268.215-2.067.273-.826.06-1.77.1-2.657.126a125.656 125.656 0 0 1-3.28.053h-.145a84.778 84.778 0 0 1-.94-.007c-.614-.006-1.452-.02-2.34-.046a64.282 64.282 0 0 1-2.656-.126c-.799-.058-1.573-.141-2.067-.273l-.006-.002a3.527 3.527 0 0 1-2.461-2.436.996.996 0 0 1-.022-.096A27.363 27.363 0 0 1 1 12.044a27.364 27.364 0 0 1 .449-5.05A3.527 3.527 0 0 1 3.91 4.455l.014-.004c.494-.132 1.268-.215 2.067-.273.826-.06 1.77-.1 2.657-.126A125.653 125.653 0 0 1 11.928 4H12Zm-.505 3.933.028.018 3.943 2.535.026.017c.151.097.316.203.448.305.14.109.36.3.49.608a1.5 1.5 0 0 1 0 1.168c-.13.307-.35.499-.49.608a6.605 6.605 0 0 1-.448.305l-.026.017-3.943 2.535-.028.018c-.176.113-.36.232-.523.317-.164.085-.46.223-.829.196a1.5 1.5 0 0 1-1.094-.597c-.22-.295-.265-.62-.282-.803-.017-.183-.017-.403-.017-.612V9.432c0-.21 0-.429.017-.612s.061-.508.282-.803a1.5 1.5 0 0 1 1.094-.597c.368-.027.665.111.829.196.163.085.347.204.523.317Zm-.745 1.899v4.336L14.123 12 10.75 9.832Z" clip-rule="evenodd"/>
</svg>
