<svg xmlns="http://www.w3.org/2000/svg" width="24" height="24" viewBox="0 0 24 24">
  <path fill-rule="evenodd" d="M12 4v2h-.268a120.36 120.36 0 0 0-3.025.052 61.03 61.03 0 0 0-2.57.122c-.808.059-1.4.132-1.69.208a1.527 1.527 0 0 0-1.05 1.068A25.362 25.362 0 0 0 3 12.04v.011c-.01 1.545.121 3.087.392 4.607a1.527 1.527 0 0 0 1.05 1.012c.289.077.882.15 1.693.21.786.057 1.698.096 2.571.122a123.601 123.601 0 0 0 3.026.051h.535a123.61 123.61 0 0 0 3.026-.051 62.375 62.375 0 0 0 2.57-.122c.807-.059 1.399-.132 1.688-.208a1.528 1.528 0 0 0 1.052-1.069c.268-1.503.401-3.027.396-4.554v-.01c.01-1.55-.123-3.099-.396-4.625a1.527 1.527 0 0 0-1.041-1.065c-.302-.07-.895-.137-1.693-.19a68.215 68.215 0 0 0-2.575-.112 135.497 135.497 0 0 0-3.027-.046h-.2L12 6V4h.276a136.435 136.435 0 0 1 3.074.048c.885.024 1.828.06 2.653.115.799.053 1.565.129 2.052.247l.035.01a3.527 3.527 0 0 1 2.475 2.602c.3 1.658.445 3.34.434 5.024a27.362 27.362 0 0 1-.448 5.014 3.528 3.528 0 0 1-2.461 2.538l-.014.004c-.494.132-1.268.215-2.067.273-.826.06-1.77.1-2.657.126a125.656 125.656 0 0 1-3.28.053h-.145a84.778 84.778 0 0 1-.94-.007c-.614-.006-1.452-.02-2.34-.046a64.282 64.282 0 0 1-2.656-.126c-.799-.058-1.573-.141-2.067-.273l-.006-.002a3.527 3.527 0 0 1-2.461-2.436.996.996 0 0 1-.022-.096A27.363 27.363 0 0 1 1 12.044a27.364 27.364 0 0 1 .449-5.05A3.527 3.527 0 0 1 3.91 4.455l.014-.004c.494-.132 1.268-.215 2.067-.273.826-.06 1.77-.1 2.657-.126A125.653 125.653 0 0 1 11.928 4H12Z" clip-rule="evenodd" opacity=".5"/>
  <path fill-rule="evenodd" d="m11.495 7.933.028.018 3.943 2.535.026.017c.151.097.316.203.448.305.14.109.36.3.49.608a1.5 1.5 0 0 1 0 1.168c-.13.307-.35.499-.49.608a6.272 6.272 0 0 1-.448.305l-.026.017-3.943 2.535-.028.018c-.176.113-.36.232-.523.317-.164.085-.46.223-.829.196a1.5 1.5 0 0 1-1.094-.597c-.22-.295-.265-.62-.282-.803a7.116 7.116 0 0 1-.017-.612V9.432c0-.21 0-.429.017-.612s.061-.508.282-.803a1.5 1.5 0 0 1 1.094-.597c.368-.027.665.111.829.196.163.085.347.204.523.317Zm-.745 1.899v4.336L14.123 12 10.75 9.832Z" clip-rule="evenodd"/>
</svg>
