<svg xmlns="http://www.w3.org/2000/svg" width="24" height="24" viewBox="0 0 24 24">
  <path fill-rule="evenodd" d="M7.759 2h8.482c.805 0 1.47 0 2.01.044.563.046 1.08.145 1.565.392a4 4 0 0 1 1.748 1.748c.247.485.346 1.002.392 1.564C22 6.29 22 6.954 22 7.758v8.483c0 .805 0 1.47-.044 2.01-.046.563-.145 1.08-.392 1.565a4 4 0 0 1-1.748 1.748c-.485.247-1.002.346-1.564.392-.541.044-1.206.044-2.01.044H7.758c-.805 0-1.47 0-2.01-.044-.563-.046-1.08-.145-1.565-.392a4 4 0 0 1-1.748-1.748c-.247-.485-.346-1.002-.392-1.564C2 17.71 2 17.046 2 16.242V7.758c0-.805 0-1.47.044-2.01.046-.563.145-1.08.392-1.565a4 4 0 0 1 1.748-1.748c.485-.247 1.002-.346 1.564-.392C6.29 2 6.954 2 7.758 2ZM5.91 4.038c-.438.035-.663.1-.819.18a2 2 0 0 0-.874.874c-.08.156-.145.38-.18.819C4 6.361 4 6.943 4 7.8v8.4c0 .857 0 1.439.038 1.889.035.438.1.663.18.819a2 2 0 0 0 .874.874c.156.08.38.145.819.18C6.361 20 6.943 20 7.8 20h8.4c.857 0 1.439 0 1.889-.038.438-.035.663-.1.819-.18a2 2 0 0 0 .874-.874c.08-.156.145-.38.18-.819.037-.45.038-1.032.038-1.889V7.8c0-.857 0-1.439-.038-1.889-.035-.438-.1-.663-.18-.819a2 2 0 0 0-.874-.874c-.156-.08-.38-.145-.819-.18C17.639 4 17.057 4 16.2 4H7.8c-.857 0-1.439 0-1.889.038Z" clip-rule="evenodd" opacity=".5"/>
  <path fill-rule="evenodd" d="M12.311 5.05A1 1 0 0 1 13 6v3.5h2.956c.224 0 .455 0 .646.017.186.017.528.062.832.299a1.5 1.5 0 0 1 .579 1.141c.01.386-.155.688-.252.848-.098.165-.235.35-.368.531a.2.2 0 0 1-.02.028l-4.567 6.227A1 1 0 0 1 11 18v-3.5H8.044c-.224 0-.455 0-.646-.017-.186-.017-.528-.062-.832-.299a1.5 1.5 0 0 1-.579-1.141c-.01-.386.155-.688.252-.848.098-.165.235-.35.368-.531.007-.01.013-.02.02-.028l4.567-6.227a1 1 0 0 1 1.117-.36ZM8.473 12.5H12a1 1 0 0 1 1 1v1.445l2.527-3.445H12a1 1 0 0 1-1-1V9.055L8.473 12.5Z" clip-rule="evenodd"/>
</svg>
