<svg xmlns="http://www.w3.org/2000/svg" width="24" height="24" viewBox="0 0 24 24">
  <path fill-rule="evenodd" d="M12 3a9 9 0 1 0 0 18 9 9 0 0 0 0-18ZM1 12C1 5.925 5.925 1 12 1s11 4.925 11 11-4.925 11-11 11S1 18.075 1 12Zm11.297-7.455A1 1 0 0 1 13 5.5v4h3.013c.217 0 .442 0 .629.017.185.017.518.062.818.29a1.5 1.5 0 0 1 .588 1.119c.018.376-.133.676-.224.838a7.34 7.34 0 0 1-.342.528l-4.658 6.775A1 1 0 0 1 11 18.5v-4H7.987c-.217 0-.442 0-.629-.017-.185-.017-.518-.062-.818-.29a1.5 1.5 0 0 1-.588-1.119c-.018-.376.133-.676.224-.838a7.332 7.332 0 0 1 .362-.556l4.638-6.747a1 1 0 0 1 1.12-.388ZM8.4 12.5H12a1 1 0 0 1 1 1v1.78l2.599-3.78H12a1 1 0 0 1-1-1V8.72L8.401 12.5Z" clip-rule="evenodd"/>
</svg>
