<svg xmlns="http://www.w3.org/2000/svg" width="24" height="24" viewBox="0 0 24 24">
  <path d="m17 3-6.596 9.235c-.292.409-.438.613-.432.784a.5.5 0 0 0 .194.377c.135.104.386.104.889.104H16L15 21l6.596-9.235c.292-.409.438-.613.432-.784a.5.5 0 0 0-.194-.377c-.135-.104-.386-.104-.889-.104H16L17 3Z" opacity=".2"/>
  <path fill-rule="evenodd" d="M17.368 2.07a1 1 0 0 1 .623 1.062L17.142 9.5h3.838c.22 0 .45 0 .639.017.185.017.524.062.826.296a1.5 1.5 0 0 1 .582 1.131c.014.382-.145.683-.24.845a7.47 7.47 0 0 1-.357.53l-6.616 9.262a1 1 0 0 1-1.805-.713l.849-6.368H11.02c-.22 0-.45 0-.638-.017-.186-.017-.525-.062-.827-.296a1.5 1.5 0 0 1-.582-1.131c-.015-.382.145-.683.24-.845a7.27 7.27 0 0 1 .357-.53l.02-.027 6.596-9.235a1 1 0 0 1 1.182-.349ZM11.443 12.5H16a1 1 0 0 1 .991 1.132l-.469 3.516 4.035-5.648H16a1 1 0 0 1-.991-1.132l.469-3.516-4.035 5.648ZM3 6.5a1 1 0 0 1 1-1h5a1 1 0 0 1 0 2H4a1 1 0 0 1-1-1ZM1 12a1 1 0 0 1 1-1h4.5a1 1 0 1 1 0 2H2a1 1 0 0 1-1-1Zm1.5 5.5a1 1 0 0 1 1-1H9a1 1 0 1 1 0 2H3.5a1 1 0 0 1-1-1Z" clip-rule="evenodd"/>
</svg>
